<?xml version="1.0" encoding="utf-8"?>
<!-- Generator: Adobe Illustrator 24.0.2, SVG Export Plug-In . SVG Version: 6.00 Build 0)  -->
<svg version="1.1" id="Layer_1" xmlns="http://www.w3.org/2000/svg" xmlns:xlink="http://www.w3.org/1999/xlink" x="0px" y="0px"
	 viewBox="0 0 500 500" style="enable-background:new 0 0 500 500;" xml:space="preserve">
<style type="text/css">
	.st0{fill:#6C5D1C;}
	.st1{fill:#937F26;}
	.st2{fill:#C4933F;}
	.st3{fill:#FFFEF9;}
</style>
<g>
	<path class="st0" d="M429.5,255.5c-2.1,7.9-0.2,17.5-7.6,20.8c-16.5,7.4-56.6,26.2-84.7,38.4c-38.8,16.9-80.6,43.3-131.9,48.6
		c-45.3,4.7-98.1,4.2-134.6-6.7C61.9,354,57.1,344.6,60,336c2.5-7.1,15.7-21.3,24.2-27.4c21-15,60.2-39.6,73.4-47.5
		c1.9-1.1,3-1.8,3-1.8s0,0,0,0c0,0,0,0,0,0c0,0,0.1,0.1,0.2,0.1c0.6,0.4,2.6,1.6,5.6,3.1c0.2,0.1,0.3,0.2,0.5,0.3
		c2.7,1.3,6.2,2.9,10.2,4.3c0.3,0.1,0.5,0.2,0.8,0.3c2.5,0.8,5.1,1.6,7.9,2.3c0.3,0.1,0.6,0.1,0.9,0.2c1,0.2,1.9,0.4,2.9,0.6
		c0.3,0.1,0.6,0.1,1,0.2c1,0.2,2,0.3,3,0.5c0.5,0.1,1.1,0.1,1.6,0.2c0.8,0.1,1.7,0.2,2.6,0.2c0.6,0,1.3,0.1,2,0.1c0.1,0,0.2,0,0.4,0
		c0.5,0,1,0,1.5,0c2.5,0,5-0.1,7.6-0.5c0.5-0.1,1-0.1,1.6-0.2c24.9-4,58.9-23,91.6-43.6c32.7-20.7,96.6-62.3,111.4-56.7
		c0.7,0.2,1.2,0.6,1.7,1c9.9,9.5,12.9,21.5,16.4,45.1C435.2,237.3,432.1,245.7,429.5,255.5z"/>
	<path class="st1" d="M430.3,253.1c-2.1,7.9-7.7,14.3-15.1,17.7c-16.5,7.4-50.2,22.5-78.4,34.7c-38.8,16.9-80.6,43.3-131.9,48.6
		c-45.3,4.7-98.1,4.2-134.6-6.7c-8.7-2.6-13.6-11.9-10.6-20.5c2.5-7.1,15.7-21.3,24.2-27.4c21-15,60.2-39.6,73.4-47.5
		c1.9-1.1,3-1.8,3-1.8s0,0,0,0c0,0,0,0,0,0c0,0,0.1,0.1,0.2,0.1c0.6,0.4,2.6,1.6,5.6,3.1c0.2,0.1,0.3,0.2,0.5,0.3
		c2.7,1.3,6.2,2.9,10.2,4.3c0.3,0.1,0.5,0.2,0.8,0.3c2.5,0.8,5.1,1.6,7.9,2.3c0.3,0.1,0.6,0.1,0.9,0.2c1,0.2,1.9,0.4,2.9,0.6
		c0.3,0.1,0.6,0.1,1,0.2c1,0.2,2,0.3,3,0.5c0.5,0.1,1.1,0.1,1.6,0.2c0.8,0.1,1.7,0.2,2.6,0.2c0.7,0,1.3,0.1,2,0.1c0.1,0,0.2,0,0.4,0
		c0.5,0,1,0,1.5,0c2.5,0,5-0.1,7.6-0.5c0.5-0.1,1-0.1,1.6-0.2c24.9-4,58.9-23,91.6-43.7c32.7-20.7,96.6-62.3,111.4-56.7
		c0.7,0.2,1.2,0.6,1.7,1c9.9,9.5,12.9,21.5,16.4,45.1C434.8,228.1,432.8,243.3,430.3,253.1z"/>
	<path class="st2" d="M410.1,199.9c-0.4,0.7-0.9,1.3-1.3,2c-20.4,27.4-96.3,68.6-122.3,77.5c-24.8,8.5-47.8,19.8-71.3,15.4
		c-0.7-0.1-1.5-0.3-2.2-0.4c-16.8-3.9-23.3-10.4-29.3-16.1c-13-12.4-23-27.5-23.3-28c0,0,0,0,0,0c0,0,0.1,0.1,0.2,0.1
		c0.6,0.4,2.6,1.6,5.6,3.1c0.2,0.1,0.3,0.2,0.5,0.3c2.7,1.3,6.2,2.9,10.2,4.3c0.3,0.1,0.5,0.2,0.8,0.3c2.5,0.8,5.1,1.6,7.9,2.3
		c0.3,0.1,0.6,0.1,0.9,0.2c1,0.2,1.9,0.4,2.9,0.6c0.3,0.1,0.7,0.1,1,0.2c1,0.2,2,0.3,3,0.5c0.5,0.1,1.1,0.1,1.6,0.2
		c0.8,0.1,1.7,0.2,2.6,0.2c0.7,0,1.3,0.1,2,0.1c0.1,0,0.2,0,0.4,0c0.5,0,1,0,1.5,0c2.5,0,5-0.1,7.6-0.5c0.5-0.1,1-0.1,1.6-0.2
		c24.9-4,58.9-23,91.6-43.7c32.7-20.7,96.6-62.3,111.4-56.7C415.7,169.4,418.6,186.5,410.1,199.9z"/>
	<path class="st3" d="M410.1,199.9c-0.4,0.7-0.9,1.3-1.3,2c-20.4,27.4-96.3,68.6-122.3,77.5c-24.8,8.5-47.8,19.8-71.3,15.4
		c16.1-6.3,38.9-15.2,57.5-24.2C312.9,251,379.7,214.9,410.1,199.9z"/>
</g>
</svg>
