<?xml version="1.0" encoding="utf-8"?>
<!-- Generator: Adobe Illustrator 24.0.2, SVG Export Plug-In . SVG Version: 6.00 Build 0)  -->
<svg version="1.1" id="Layer_1" xmlns="http://www.w3.org/2000/svg" xmlns:xlink="http://www.w3.org/1999/xlink" x="0px" y="0px"
	 viewBox="0 0 500 500" style="enable-background:new 0 0 500 500;" xml:space="preserve">
<style type="text/css">
	.st0{fill:#514C25;}
	.st1{fill:#361560;}
	.st2{fill:#070303;}
	.st3{fill:#4935BC;}
	.st4{opacity:0.38;fill:#2B2568;}
	.st5{fill:#4EBBE5;}
	.st6{fill:#F967DA;}
	.st7{fill:#F786E2;}
	.st8{fill:#C149AA;}
	.st9{fill:#ED0C97;}
	.st10{opacity:0.46;fill:#6B485F;}
	.st11{fill:#FFB3E6;}
	.st12{fill:#F9EFC5;}
	.st13{fill:#33322D;}
	.st14{opacity:0.53;fill:#04060C;}
	.st15{fill:#EAE298;}
	.st16{fill:#F985E4;}
	.st17{fill:#FFFAD7;}
</style>
<g>
	<polygon class="st0" points="148.6,264.7 146.8,262.3 155,251.1 	"/>
	<path class="st1" d="M165.6,254.3c0,0,79.6-95.4,79.1-110.6c-0.5-15.2-48.3-13.8-48.3-13.8L165.6,254.3z"/>
	<path class="st2" d="M436,168.5c4.9,4.4,15.9,15.8,17.6,23.3c1.7,7.4-15.8,21.2-76.4,60.3l-2-2.7l-11.9,7.7l1.6,4.4l-24.4,15
		l-3.4-5.3l-7.5,5.1l3.2,6l-12,7.8l-3.4-5.3l-7.2,4.7l3.4,5.3l-39.9,26.5l-5.8-4.9l0.6,8.3L246.1,340l-3.2-4.9l-5.6,3.6l3.2,4.9
		l-26,15.9l-2.8-4.3l-5.7,3.7l2.3,4.5l-24.8,15.3l-2.9-4.5l-6.1,3.9l1.9,4.3L153.1,396c0,0-2.9-2.8-5.4-2.1
		c-2.4,0.7-3.1,5.6-3.1,5.6s-21.9,13.1-31.9,13c-7.8-0.1-21.5-1.4-31.1-5.2c-2.7-1.1-5-2.3-6.8-3.8c-3.8-3.1-6.6-7.1-8.5-10.7
		c-2.5-4.6-2.6-10.2-0.3-15c0.7-1.5,1.7-3.4,2.8-5.5c1.2-2.4,5.3-7.4,10.7-13.6c16.2-18.6,44.7-48.2,48.5-53.2
		c5-6.6,26.3-54.6,26.3-54.6s38.1-62.7,56.8-78.6c18.7-15.9,96-38.7,103.5-52.8c7.5-14,3.2-33.5,16.3-42c13.1-8.5,25.6-2,25.6-2
		s9.6,9.2,20.2,19.5c2.8,2.7,5.6,5.5,8.3,8.2c4,3.9,7.8,7.7,11,11c13.8,14.2,20,26.9,20,26.9l4.8,0.2l3.5,5.5c0,0,2.4,0.5,3.3,2
		c0.9,1.4,3.3,14.7,8,19.4C435.7,168.3,435.8,168.4,436,168.5z"/>
	<path class="st1" d="M435.6,168.2l-124.4,84.3l-7.5-7.5l-14.5-6.1c0,0-13.1-7.7-11.7-13.9c1.3-6.2,64.6-76,64.6-76
		s14.1-7.4,16-16.1c1.9-8.7-2.9-13.6,7.8-25.7c4-4.6,7.8-8.7,10.8-12c2.8,2.7,5.6,5.5,8.3,8.2c4,3.9,7.8,7.7,11,11
		c13.8,14.2,20,26.9,20,26.9l4.8,0.2l3.5,5.5c0,0,2.4,0.5,3.3,2C428.5,150.2,431,163.5,435.6,168.2z"/>
	<path class="st3" d="M385,103.3l-68.9,92.6l-18.3,16.9L250,257.1l-33.1,30.7l-13,12c-10.2,9.4-23.2,15.3-37.1,16.6l-12.6,1.2
		c0,0-67.1,46.9-72.8,43.5c-0.9-0.5-1.5-1.4-2-2.5c16.2-18.6,44.7-48.2,48.5-53.2c5-6.6,26.3-54.6,26.3-54.6s3.3-5.5,8.5-13.6
		c12.4-19.4,35.1-53.7,48.3-64.9c5.5-4.7,16.1-10,28.6-15.5c29.7-13.1,69.7-27.4,75-37.3c7.5-14,3.2-33.5,16.3-42
		c13.1-8.5,25.6-2,25.6-2S371.7,90.1,385,103.3z"/>
	<path class="st4" d="M385,103.3l-68.9,92.6l-18.3,16.9L250,257.1c-2.5-38.6-8.1-82.9-10.4-100.2c29.7-13.1,69.7-27.4,75-37.3
		c7.5-14,3.2-33.5,16.3-42c13.1-8.5,25.6-2,25.6-2S371.7,90.1,385,103.3z"/>
	<path class="st5" d="M162.7,237.3c9.4-15.9,35.2-57.8,50.2-68.4c23.4-16.4,88.8-36,99.8-49.2l0.5-0.7c8.5-14.1,1.8-41.1,26.7-45.6
		c5.7-1.1,11.6-0.3,16.7,2.2c-7.5-3.1-16.5-2.8-24,1.9c-7.4,4-9.7,12.9-11,21c-4.6,27.2-2.1,26.6-61.2,51.5
		C208.5,171.5,210.7,168,162.7,237.3z"/>
	<path class="st6" d="M422.5,142.9l1.7,3.9l4.1,27l-99.9,73c0,0-1-23.2,14.8-44.3c15.8-21.1,36.1-40.2,48.6-45.8
		c12.4-5.6,24.1-15.6,24.1-15.6l2.2-0.5C419.9,140.3,421.8,141.2,422.5,142.9z"/>
	<path class="st6" d="M307.4,246.6l-54.5,56.2c0,0-15.5-10.7-36-15c-13.8-2.9-30-2.9-45.1,5.4c-37.6,20.4-43.8,12.4-43.8,12.4
		c5-6.6,26.3-54.6,26.3-54.6s3.3-5.5,8.5-13.6c7.8,0.3,17-0.3,25.3-3.1c18.9-6.5,23.9-26,32.1-31.3c3.1-2,14.4-2.6,27.3-2.7
		c21.4,0,47.3,1.6,47.3,1.6l3.2,11.1L307.4,246.6z"/>
	<g>
		<path class="st7" d="M216.5,285.6c-13.8-2.9-30-2.9-45.1,5.4c-29,15.7-39.3,14.6-42.5,13.3c-0.3,0.5-0.6,1-0.9,1.3
			c0,0,6.2,8,43.8-12.4c15.2-8.2,31.3-8.3,45.1-5.4c20.5,4.3,36,15,36,15l2.8-2.9C247.2,295.8,230.9,288.6,216.5,285.6z"/>
		<polygon class="st7" points="306.8,244.6 296.8,257.5 307.4,246.6 		"/>
	</g>
	<path class="st8" d="M252.9,302.8c10.8-28.8,1.7-75.1-5.5-102.7c21.4,0,47.3,1.6,47.3,1.6l3.2,11.1l9.6,33.7L252.9,302.8z"/>
	<path class="st9" d="M377.2,252.1l-2-2.7l-11.9,7.7l1.6,4.4l-24.4,15l-3.4-5.3l-7.5,5.1l3.2,6l-12,7.8l-3.4-5.3l-7.2,4.7l3.4,5.3
		l-39.9,26.5l-5.8-4.9l0.6,8.3L246.1,340l-3.2-4.9l-5.6,3.6l3.2,4.9l-26,15.9l-0.6-1l-2.2-3.3l-5.8,3.7l2.3,4.5l-24.8,15.3l-2.9-4.5
		l-6.1,3.9l1.9,4.3L153.1,396c0,0-3-2.8-5.4-2.1c-2.4,0.7-3.1,5.6-3.1,5.6s-21.9,13.1-31.9,13c-7.8-0.1-21.5-1.4-31.1-5.2
		c1.4-0.8,3-1.6,4.6-2.6c37.5-21,131.5-74,145.6-87.3c6.3-5.9,14.4-14.8,24.1-25.3c17.5-18.9,40.5-42.9,68.6-64.1
		c43.9-33,50.4-46.1,60.9-55.4c10.5-9.4,38.7-25.8,38.7-25.8s3.2-0.2,4.1,1.2c0.9,1.5,2.7,16.1,7.6,20.5c3.1,2.8,8.8,8.6,12.9,14.3
		c2.3,3.2,4.1,6.3,4.7,9C455.3,199.2,437.8,213,377.2,252.1z"/>
	<path class="st10" d="M377.2,252.1l-2-2.7l-11.9,7.7l1.6,4.4l-24.4,15l-3.4-5.3l-7.5,5.1l3.2,6l-12,7.8l-3.4-5.3l-7.2,4.7l3.4,5.3
		l-39.9,26.5l-5.8-4.9l0.6,8.3L246.1,340l-3.2-4.9l-5.6,3.6l3.2,4.9l-26,15.9l-0.6-1c61.7-54.1,42.1-66.4,42.1-66.4
		c17.5-18.9,40.5-42.9,68.6-64.1c43.9-33,50.4-46.1,60.9-55.4c10.5-9.4,38.7-25.8,38.7-25.8s3.2-0.2,4.1,1.2
		c0.7,1.1,1.9,9.6,4.5,15.6c0.4,0.8,0.8,1.6,1.2,2.3c0.6,1,1.2,1.8,1.9,2.5c0.2,0.2,0.4,0.4,0.7,0.6c0.6,0.5,1.2,1.1,1.8,1.7
		c0.4,0.4,0.9,0.9,1.4,1.4c0.5,0.5,1.1,1.1,1.6,1.7c2.5,2.6,5.2,5.7,7.4,8.8c2.3,3.2,4.1,6.3,4.7,9
		C455.3,199.2,437.8,213,377.2,252.1z"/>
	<path class="st10" d="M434,166L301.4,269.8l131.4-106.1C433.2,164.5,433.6,165.3,434,166z"/>
	<path class="st10" d="M438.5,170.9L277.4,292.7l159.3-123.5C437.2,169.7,437.8,170.2,438.5,170.9z"/>
	<path class="st10" d="M441.5,174l-93.6,73.3l92-75C440.4,172.8,441,173.4,441.5,174z"/>
	<path class="st11" d="M81.7,407.3c145.5-84.3,144-84.4,159.5-100.9c14.2-15,42.5-47.9,77.8-75.4c30.2-23.2,34.8-26,60.8-53.5
		c3.9-4.1,5.7-5.7,10.1-9.1c9.4-7,23.9-15.7,34.4-21.7c-63.5,38.7-25.9,25.5-104,85.9c-49.9,39.1-75.4,78.8-97.9,93.3
		C188.5,348.7,117.3,388.2,81.7,407.3z"/>
	<path class="st12" d="M453.6,191.8c1.7,7.4-15.8,21.2-76.4,60.3l-2-2.7l-11.9,7.7l1.6,4.4l-24.4,15l-3.4-5.3l-7.5,5.1l3.2,6
		l-12,7.8l-3.4-5.3l-7.2,4.7l3.4,5.3l-39.9,26.5l-5.8-4.9l0.6,8.3L246.1,340l-3.2-4.9l-5.6,3.6l3.2,4.9l-26,15.9l-2.8-4.3l-5.7,3.7
		l2.3,4.5l-24.8,15.3l-2.9-4.5l-6.1,3.9l1.9,4.3L153.1,396c0,0-2.9-2.8-5.4-2.1c-2.4,0.7-3.1,5.6-3.1,5.6s-21.9,13.1-31.9,13
		c-7.8-0.1-21.5-1.4-31.1-5.2c1.4-0.8,2.9-1.7,4.5-2.6l7.7,2c0,0,35.5-7.5,92.8-41.4c57.3-33.9,234.9-151.7,244.9-160.3
		c8.9-7.7,16.1-14.7,17.4-22.3C451.2,186,453,189.1,453.6,191.8z"/>
	<path class="st13" d="M453.6,191.8c0.2,1,0.1,2.1-0.3,3c-4.8,12.3-59.5,46.2-76,56.8c-0.3-0.4-2.1-2.8-2-2.7c-10.9,7-0.1,0-12.4,8
		c0.1,0.2,1.6,4.6,1.5,4.4L340.6,276c-0.1-0.1-3.5-5.4-3.4-5.3c-0.2,0.2-8.7,5.9-8.2,5.6c0.1,0.2,3.3,6.2,3.2,5.9l-11.3,7.3
		c-0.1-0.1-3.5-5.4-3.4-5.3c-0.1,0.1-8.6,5.5-8.1,5.2c0.1,0.1,3.5,5.4,3.4,5.3l-39.2,25.9c-0.2-0.1-7-5.9-6.6-5.5
		c0.1,1,0.8,9.7,0.7,9.4l-21.6,15c-0.1-0.2-3.3-5-3.2-4.9c-0.7,0.5-6.6,4.3-6.5,4.2c0.1,0.1,3.3,5.2,3.2,4.9l-25.1,15.4
		c-0.6-0.9-2.9-4.5-2.8-4.3c-0.7,0.5-6.6,4.3-6.5,4.2c0.1,0.3,2.3,4.6,2.3,4.5l-24.1,14.9c-0.1-0.1-3-4.6-2.9-4.5
		c-0.2,0.1-7.1,4.6-6.7,4.3c0.1,0.2,2,4.5,1.9,4.3l-22.7,13.2c-4.3-3.7-7.7-2.8-8.8,3.7c-7.7,4.6-21.2,11.8-30.1,13
		c-5,0.5-21.8-0.8-32.6-4.9c8.3,3.3,19.6,4.9,28.5,5.3c13.1,0.6,32-11.6,34.8-12.9c0.1-0.5,0.2-1.6,0.8-3.1c2.3-5.3,7.1-0.3,7.3-0.2
		c5.3-3.1,18.4-10.6,23.8-13.7c-0.1-0.2-2-4.5-1.9-4.4l5.5-3.6c0.1,0.1,3,4.6,2.9,4.5c7.8-4.8,15.8-9.7,25.5-15.6
		c-0.1-0.3-2.3-4.6-2.3-4.5l5-3.2c0.1,0.2,2.9,4.6,2.8,4.3c14.4-8.8,11.7-7.1,26.8-16.4c-0.1-0.1-3.4-5.2-3.2-4.9l4.7-3
		c0.1,0.1,3.3,5.1,3.2,5c8.5-5.8,14.2-9.8,23.1-16c0-0.2-0.6-7.5-0.5-7.2c0.1,0.1,5.2,4.4,5.1,4.3c12.5-8.3,25.5-16.9,40.7-27.1
		c-0.1-0.1-3.5-5.5-3.4-5.3l6.3-4.1c0.1,0.1,3.5,5.4,3.4,5.3c8.8-5.7,2.9-1.9,12.8-8.3c-0.1-0.2-3.4-6.3-3.2-6l6.7-4.6
		c0.1,0.1,3.5,5.4,3.4,5.3c16-9.9,9.2-5.7,25.1-15.5c-0.1-0.3-1.6-4.5-1.6-4.4l11.3-7.3c0.3,0.4,2.1,2.8,2,2.7
		c15.8-10.3,71.6-45.5,76.2-57.8C453.7,193.9,453.8,192.8,453.6,191.8z"/>
	<path class="st14" d="M148.9,289.9c0,2.2-1.8,4-4,4c-2.2,0-4-1.8-4-4c0-2.2,1.8-4,4-4C147.1,285.9,148.9,287.7,148.9,289.9z"/>
	<path class="st15" d="M136.4,289.1c0,0,1.1-9.8,5.7-11.4c4.5-1.6,0.8,4.4,1.6,5.6c0.8,1.2,3.4,4.3,3.5,6.6c0.1,2.4-2.7,4.1-5,4.5
		C139.9,294.8,136.2,293.2,136.4,289.1z"/>
	<path class="st14" d="M162.7,267.5c0,2.2-1.8,4-4,4c-2.2,0-4-1.8-4-4c0-2.2,1.8-4,4-4C160.9,263.5,162.7,265.3,162.7,267.5z"/>
	<path class="st15" d="M140.5,278.6c0,0,2.7-0.2,7-1.4c4.3-1.2,11.4-5.4,11.9-7.7c0.5-2.3,0.9-5.1-3.2-6c-4.1-0.9-8.7,2.3-8.7,2.3
		S139,275.6,140.5,278.6z"/>
	<path class="st14" d="M176.3,246.6c0.5,2.8-1.1,5.5-3.7,6c-2.5,0.5-5-1.5-5.5-4.3c-0.5-2.8,1.1-5.5,3.7-6
		C173.3,241.8,175.8,243.8,176.3,246.6z"/>
	<path class="st15" d="M146.8,262.3c0,0,24-7.2,26.3-10.5c2.3-3.2-1.8-11.2-5-10c-3.2,1.2-13.3,7.3-13.3,7.3
		S143.5,260.8,146.8,262.3z"/>
	<path class="st14" d="M218.5,186c0.5,2.8-1.1,5.5-3.7,6c-2.5,0.5-5-1.5-5.5-4.3c-0.5-2.8,1.1-5.5,3.7-6
		C215.5,181.2,218,183.2,218.5,186z"/>
	<path class="st15" d="M183.8,181c0,0-0.3,0.2-2.5,1.6c-2.1,1.4-1.6,5.6-1.2,6.3c0.4,0.6,1.2,1.9,1.2,1.9s28.9,1.6,32.6,0.1
		c3.9-1.6,3.6-2.4,3.2-4c-0.2-0.6-0.6-1.1-1.2-1.6c-1-0.8-2.3-1.3-3.7-1.4L183.8,181z"/>
	<path class="st14" d="M210.9,203c0.5,2.7-1.2,5.2-3.7,5.7c-2.5,0.5-5-1.4-5.5-4c-0.5-2.7,1.2-5.2,3.7-5.7
		C208,198.5,210.5,200.3,210.9,203z"/>
	<path class="st15" d="M174.5,218.5c0,0-2-0.8-2.1-4.8c-0.2-4,1.3-6.6,1.7-8.1c0.3-1.5,5.5-4.6,11-5.3c5.5-0.7,22.7,1.3,22.7,1.3
		s5,1.2,2.9,4.7c-2.1,3.4-6.5,4.9-13.3,5.9c-6.9,1-13.3-1.6-17.4,0.5C175.6,214.9,174.5,218.5,174.5,218.5z"/>
	<path class="st14" d="M189.9,222.5c0.5,2.8-1.1,5.5-3.7,6c-2.5,0.5-5-1.5-5.5-4.3c-0.5-2.8,1.1-5.5,3.7-6
		C187,217.8,189.4,219.7,189.9,222.5z"/>
	<path class="st15" d="M171.5,212.1c0,0-4.2,4.5-5.8,8.5c-1.6,4,0.4,11.5,0.4,11.5s8.1,0.5,14.8-2.9c6.8-3.3,9-10.3,5.3-11.1
		c-3.7-0.8-11.8,0.3-11.8,0.3S176.5,209.5,171.5,212.1z"/>
	<path class="st1" d="M231.2,182.3c0.8,1.2,0.4,2.8-0.8,3.5c-1.2,0.8-2.8,0.4-3.5-0.8c-0.8-1.2-0.4-2.8,0.8-3.5
		C228.8,180.7,230.4,181.1,231.2,182.3z"/>
	<path class="st16" d="M224.2,218.5c0,0,4.1,38.9-13.1,52.3c-17.2,13.4-45.3,7.3-51.1,13.1c-5.8,5.8,5.2-20.6,19.3-25.9
		C193.4,252.6,224.2,225.2,224.2,218.5z"/>
	<path class="st17" d="M164,246.8c-0.8,0.1-9,4.3-9,4.3s-9.9,7-6.8,7.8C151.2,259.6,175.7,245.6,164,246.8z"/>
	<path class="st17" d="M153.7,265.6c0,0-6.7,1.1-8.6,5.4c-1.9,4.3,8.7,0,10.6-1.9C157.5,267.3,153.7,265.6,153.7,265.6z"/>
	<path class="st17" d="M140.3,281.4c0,0-5,5-1.6,9c3.4,4,6,3.1,4.9-1.7C142.6,283.9,142.4,280.6,140.3,281.4z"/>
	<path class="st17" d="M167.1,221.3c0,0-3.6,7.3,0,8.6c3.6,1.3,18.1-3.8,17.3-6.4C183.7,220.9,167.1,221.3,167.1,221.3z"/>
	<path class="st17" d="M176.7,205c0,0-4.5,6.2-1.7,6.6c2.8,0.5,19.1-2.2,21.4-4.6C198.8,204.7,176.7,205,176.7,205z"/>
	<path class="st17" d="M183.3,182.8c0,0-5,4.3-1.4,5.7c3.7,1.4,23.2,2.8,22.3,0C203.4,185.7,183.3,182.8,183.3,182.8z"/>
</g>
</svg>
