<?xml version="1.0" encoding="utf-8"?>
<!-- Generator: Adobe Illustrator 24.0.2, SVG Export Plug-In . SVG Version: 6.00 Build 0)  -->
<svg version="1.1" id="Capa_1" xmlns="http://www.w3.org/2000/svg" xmlns:xlink="http://www.w3.org/1999/xlink" x="0px" y="0px"
	 viewBox="0 0 512 512" style="enable-background:new 0 0 512 512;" xml:space="preserve">
<style type="text/css">
	.st0{fill:#FFE07D;}
	.st1{fill:#FFD064;}
</style>
<g>
	<path class="st0" d="M411.8,242.2v116.9l-155,43.8l-155-43.8V242.2c0-77.2,56.4-141.2,130.3-153c-8.3-7-13.6-17.5-13.6-29.2
		c0-21.1,17.1-38.3,38.3-38.3c21.1,0,38.3,17.1,38.3,38.3c0,11.7-5.3,22.2-13.6,29.2C355.3,101,411.8,165,411.8,242.2L411.8,242.2z"
		/>
	<path class="st1" d="M187.7,359.1l69.1,43.8l-155-43.8V242.2c0-77.2,56.4-141.2,130.3-153c-8.3-7-13.6-17.5-13.6-29.2
		c0-21.1,17.1-38.3,38.3-38.3c-9.4,0-17.1,17.1-17.1,38.3c0,11.7,2.4,22.2,6.1,29.2c-32.9,11.8-58.1,75.8-58.1,153V359.1z"/>
	<circle class="st0" cx="256.8" cy="427.4" r="67.1"/>
	<path class="st1" d="M280.4,490.2c-7.3,2.8-15.3,4.3-23.6,4.3c-37,0-67.1-30-67.1-67.1c0-37,30-67.1,67.1-67.1
		c8.3,0,16.3,1.5,23.6,4.3c-25.4,9.6-43.5,34.1-43.5,62.8C236.9,456.2,255,480.7,280.4,490.2z"/>
	<path class="st1" d="M411.8,332.5v26.6l-155,43.8l-155-43.8v-26.6H411.8z"/>
	<path class="st0" d="M422.9,359.1H90.7c-24.2,0-43.8,19.6-43.8,43.8s19.6,43.8,43.8,43.8h332.2c24.2,0,43.8-19.6,43.8-43.8
		S447.1,359.1,422.9,359.1z"/>
	<path class="st1" d="M180.9,433.9c7.9,7.9,18.9,12.8,31,12.8H90.7c-12.1,0-23.1-4.9-31-12.8c-7.9-7.9-12.8-18.9-12.8-31
		c0-24.2,19.6-43.8,43.8-43.8h121.2c-24.2,0-43.8,19.6-43.8,43.8C168.1,415,173,426,180.9,433.9z"/>
</g>
</svg>
