<?xml version="1.0" encoding="utf-8"?>
<!-- Generator: Adobe Illustrator 24.0.2, SVG Export Plug-In . SVG Version: 6.00 Build 0)  -->
<svg version="1.1" id="Layer_1" xmlns="http://www.w3.org/2000/svg" xmlns:xlink="http://www.w3.org/1999/xlink" x="0px" y="0px"
	 viewBox="0 0 500 500" style="enable-background:new 0 0 500 500;" xml:space="preserve">
<style type="text/css">
	.st0{fill:#2D2D38;}
	.st1{fill:#524F5B;}
	.st2{opacity:0.36;fill:#26242B;}
	.st3{opacity:0.41;fill:#2B2930;}
	.st4{fill:#5E5E60;}
	.st5{opacity:0.24;fill:#FBFAFF;}
	.st6{fill:#414159;}
	.st7{fill:#A7A6BC;}
	.st8{fill:#B0B0D1;}
	.st9{fill:#0F0C23;}
</style>
<g>
	<path class="st0" d="M201.1,268.5c0.4-3.6,1.6-25.5,1.5-47.1c0-15.5,0.1-30.6-4-38.9c-9.9-20.4-18.8-20.9-19.3-20.9
		c7.3,0.1,18.8,0.8,38.8-3.4c-3,3.4-2.9,8.9-3.1,15.8c-1.1,34.2,25.4,102,27.5,107.2c0.1,0.2-0.7,0.4-0.7,0.4L201,269
		C201,269,201,268.8,201.1,268.5z"/>
	<path class="st1" d="M123.4,127.8c-0.4,0-0.6,0-0.6,0C123,127.7,123.2,127.7,123.4,127.8z"/>
	<path class="st1" d="M146.8,157.3h-9.5c0,0-2.2-5.9-4.9-12.4c-3.2-7.7-7-16.2-9-17.1c3.5,0,20.9-0.1,20.9,0c0,0.1,0.9,9.4,1.7,18.4
		C146.3,150.3,146.6,154.2,146.8,157.3z"/>
	<path class="st2" d="M146.8,157.3h-9.5c0,0-2.2-5.9-4.9-12.4l13.6,1.3C146.3,150.3,146.6,154.2,146.8,157.3z"/>
	<path d="M133,158.1c0,0-14.3-29.5-10.2-30.3c4.1-0.8,5.4,3.8,8.5,10.7c3.1,6.9,6.4,19.7,6.4,19.7H133z"/>
	<path class="st1" d="M176.1,156.2c2,0,3.2,0,3.2,0c0.5,0,9.4,0.5,19.3,21.8c10.2,21.9,2.7,90.3,2.7,90.3l40.4,13
		c0,0-28.7-73.5-28.2-111c0.1-9.5,6.4-17.8,15.5-20.5c0.6-0.2,1.2-0.4,1.8-0.5c14.8-4.5,30.7,3.6,35.6,18.2c1,3,2.1,6,3.3,9
		c0.1,0.1,0.1,0.3,0.2,0.4c0.1,0.4,0.3,0.7,0.4,1c7.4,18.7,34.8,75.6,60,92.1c3.7,2.8,25.7,15.9,53.2,23.8c6.2,1.8,12.3,3.2,17.8,4
		c3.3,0.5,6.2,1.6,8.8,3.1c20,11.9,17.1,51.6,17.1,51.6c-18.6,7.8-80.8,11.1-127.2,9.2c-27.3-1.1-49.2-4.2-53.6-9.5
		c-0.5-0.6-1.1-1.2-1.9-1.8c-6.3-5-22.4-11.8-41.1-18.6c-37.5-13.6-85.3-27.4-85.3-27.4s0,0,0-0.1c0,0,0-0.1,0-0.2c0,0,0,0,0-0.1
		c0-0.1,0-0.1-0.1-0.2c-5.9-19.6-6.8-40.8-5-61.1c1.1-12.8,2.8-28.4,4.5-42.8c2.9-24.2,5.8-45.3,5.8-45.3l3.7,0.7L176.1,156.2z"/>
	<path class="st3" d="M410.3,301.3c2.5,11.9,1.5,24-9.9,27.6c-25.2,8-146.8,6.6-190.1-25.8c-43.3-32.4-35.9-55.1-92.9-102.7
		c-1.7,14.4-3.4,30-4.5,42.8c-2.3,27.1,2.2,49.8,4.2,58.2c0.2,0.9,0.5,1.8,0.8,2.7c0,0.1,0,0.2,0.1,0.2c0,0,0,0,0,0.1
		c0,0.1,0,0.1,0,0.2c0,0,0,0.1,0,0.1s47.8,13.8,85.3,27.4c18.7,6.8,34.8,13.6,41.1,18.6c0.8,0.6,1.4,1.2,1.9,1.8
		c4.4,5.3,26.2,8.3,53.6,9.5c14.5,0.6,30.5,0.7,46.3,0.3c30.5-0.9,60.1-3.6,75.9-7.8c1.9-0.5,3.6-1.1,5-1.7
		C427.1,352.7,430,313.4,410.3,301.3z"/>
	<path d="M116.1,383.2l-4-94.6c0,0,78.1,31,101.6,43.8c23.5,12.8,44.8,20.7,65.7,24.2c20.9,3.4,115.9,6,147.7-4
		c0,0,0.1,15.9,0.1,18.6c0,3-82.4,14.8-130.6,11.3c-48.2-3.4-79.7-20.2-87.6-24.6c-7.9-4.4-21.6-5.3-21.6-5.3l4.2,30.5H116.1z"/>
	<g>
		<path class="st4" d="M211.3,336.2c24.8,12.8,47.3,20.7,69.4,24.2c20.2,3.2,106.3,5.6,146.4-1.7c0-3.3-0.1-6-0.1-6
			c-31.8,10-126.8,7.4-147.7,4c-20.9-3.4-42.2-11.4-65.7-24.2c-23.5-12.8-101.6-43.8-101.6-43.8l0.3,7
			C134.2,303.9,191.4,325.9,211.3,336.2z"/>
	</g>
	<path class="st5" d="M330.3,270.2c-15.9,5.4-50.6,6.7-68.1,1.9c-26.4-7.3-25.9-87.6-25.9-87.6s1.9,2.1,33.6-7.5
		c0.1,0.4,0.3,0.7,0.4,1C277.7,196.8,305.1,253.6,330.3,270.2z"/>
	<path class="st5" d="M131.6,130.7c0,0,4.7,7.5,6.2,11.5c1.5,4,5.3,2.5,5.3,2.5v-13.8L131.6,130.7z"/>
	<path class="st5" d="M401.3,298c-2.9,11.4-19.3,19.5-35.4,19.9c-16.1,0.4-41.6-4.4-41.6-4.4c38,2.4,54.7-14,59.2-19.5
		C389.7,295.8,395.8,297.2,401.3,298z"/>
	<g>
		<path class="st6" d="M131.8,163.3c0,1.5-1.2,2.7-2.7,2.7c-1.5,0-2.7-1.2-2.7-2.7c0-1.5,1.2-2.7,2.7-2.7
			C130.5,160.5,131.8,161.8,131.8,163.3z"/>
		<path class="st7" d="M131.6,163.3c0,1.4-1.1,2.5-2.5,2.5c-1.4,0-2.5-1.1-2.5-2.5c0-1.4,1.1-2.5,2.5-2.5
			C130.4,160.7,131.6,161.9,131.6,163.3z"/>
		<path class="st8" d="M130.2,162.7c0,0.6-0.5,1.1-1.1,1.1c-0.6,0-1.1-0.5-1.1-1.1c0-0.6,0.5-1.1,1.1-1.1
			C129.7,161.6,130.2,162.1,130.2,162.7z"/>
	</g>
	<g>
		<path class="st6" d="M149.1,163.7c0,1.5-1.2,2.7-2.7,2.7c-1.5,0-2.7-1.2-2.7-2.7c0-1.5,1.2-2.7,2.7-2.7
			C147.8,160.9,149.1,162.2,149.1,163.7z"/>
		<path class="st7" d="M148.9,163.7c0,1.4-1.1,2.5-2.5,2.5c-1.4,0-2.5-1.1-2.5-2.5c0-1.4,1.1-2.5,2.5-2.5
			C147.7,161.1,148.9,162.3,148.9,163.7z"/>
		<path class="st8" d="M147.5,163.1c0,0.6-0.5,1.1-1.1,1.1c-0.6,0-1.1-0.5-1.1-1.1c0-0.6,0.5-1.1,1.1-1.1
			C147,162,147.5,162.5,147.5,163.1z"/>
	</g>
	<g>
		<path class="st6" d="M227,163.1c0,1.5-1.2,2.7-2.7,2.7c-1.5,0-2.7-1.2-2.7-2.7c0-1.5,1.2-2.7,2.7-2.7
			C225.8,160.3,227,161.6,227,163.1z"/>
		<path class="st7" d="M226.8,163.1c0,1.4-1.1,2.5-2.5,2.5c-1.4,0-2.5-1.1-2.5-2.5c0-1.4,1.1-2.5,2.5-2.5
			C225.7,160.5,226.8,161.7,226.8,163.1z"/>
		<path class="st8" d="M225.4,162.5c0,0.6-0.5,1.1-1.1,1.1c-0.6,0-1.1-0.5-1.1-1.1c0-0.6,0.5-1.1,1.1-1.1
			C224.9,161.4,225.4,161.9,225.4,162.5z"/>
	</g>
	<g>
		<path class="st6" d="M224.5,175.6c0,1.5-1.2,2.7-2.7,2.7c-1.5,0-2.7-1.2-2.7-2.7c0-1.5,1.2-2.7,2.7-2.7
			C223.2,172.9,224.5,174.1,224.5,175.6z"/>
		<path class="st7" d="M224.3,175.6c0,1.4-1.1,2.5-2.5,2.5c-1.4,0-2.5-1.1-2.5-2.5c0-1.4,1.1-2.5,2.5-2.5
			C223.1,173.1,224.3,174.2,224.3,175.6z"/>
		<path class="st8" d="M222.9,175c0,0.6-0.5,1.1-1.1,1.1c-0.6,0-1.1-0.5-1.1-1.1c0-0.6,0.5-1.1,1.1-1.1
			C222.4,173.9,222.9,174.4,222.9,175z"/>
	</g>
	<g>
		<path class="st6" d="M225.6,193.9c0,1.5-1.2,2.7-2.7,2.7c-1.5,0-2.7-1.2-2.7-2.7c0-1.5,1.2-2.7,2.7-2.7
			C224.4,191.2,225.6,192.4,225.6,193.9z"/>
		<path class="st7" d="M225.4,193.9c0,1.4-1.1,2.5-2.5,2.5c-1.4,0-2.5-1.1-2.5-2.5c0-1.4,1.1-2.5,2.5-2.5
			C224.3,191.4,225.4,192.6,225.4,193.9z"/>
		<path class="st8" d="M224,193.4c0,0.6-0.5,1.1-1.1,1.1c-0.6,0-1.1-0.5-1.1-1.1c0-0.6,0.5-1.1,1.1-1.1
			C223.5,192.3,224,192.8,224,193.4z"/>
	</g>
	<g>
		<path class="st6" d="M228.6,209.4c0,1.5-1.2,2.7-2.7,2.7c-1.5,0-2.7-1.2-2.7-2.7c0-1.5,1.2-2.7,2.7-2.7
			C227.3,206.7,228.6,207.9,228.6,209.4z"/>
		<path class="st7" d="M228.4,209.4c0,1.4-1.1,2.5-2.5,2.5c-1.4,0-2.5-1.1-2.5-2.5c0-1.4,1.1-2.5,2.5-2.5
			C227.2,206.9,228.4,208,228.4,209.4z"/>
		<path class="st8" d="M227,208.8c0,0.6-0.5,1.1-1.1,1.1c-0.6,0-1.1-0.5-1.1-1.1c0-0.6,0.5-1.1,1.1-1.1
			C226.5,207.7,227,208.2,227,208.8z"/>
	</g>
	<g>
		<path class="st6" d="M232.9,226.6c0,1.5-1.2,2.7-2.6,2.7c-1.5,0-2.6-1.2-2.6-2.7c0-1.5,1.2-2.7,2.6-2.7
			C231.7,223.9,232.9,225.1,232.9,226.6z"/>
		<path class="st7" d="M232.7,226.6c0,1.4-1.1,2.5-2.4,2.5c-1.3,0-2.4-1.1-2.4-2.5c0-1.4,1.1-2.5,2.4-2.5
			C231.6,224.1,232.7,225.2,232.7,226.6z"/>
		<path class="st8" d="M231.4,226.1c0,0.6-0.5,1.1-1.1,1.1c-0.6,0-1.1-0.5-1.1-1.1c0-0.6,0.5-1.1,1.1-1.1
			C230.9,224.9,231.4,225.4,231.4,226.1z"/>
	</g>
	<g>
		<path class="st6" d="M238.3,245.6c0,1.5-1.2,2.7-2.7,2.7c-1.5,0-2.7-1.2-2.7-2.7c0-1.5,1.2-2.7,2.7-2.7
			C237.1,242.9,238.3,244.1,238.3,245.6z"/>
		<path class="st7" d="M238.1,245.6c0,1.4-1.1,2.5-2.5,2.5c-1.4,0-2.5-1.1-2.5-2.5c0-1.4,1.1-2.5,2.5-2.5
			C237,243.1,238.1,244.2,238.1,245.6z"/>
		<path class="st8" d="M236.7,245.1c0,0.6-0.5,1.1-1.1,1.1c-0.6,0-1.1-0.5-1.1-1.1s0.5-1.1,1.1-1.1
			C236.2,244,236.7,244.5,236.7,245.1z"/>
	</g>
	<g>
		<path class="st6" d="M244.4,263.6c0,1.5-1.2,2.7-2.7,2.7c-1.5,0-2.7-1.2-2.7-2.7c0-1.5,1.2-2.7,2.7-2.7
			C243.2,260.9,244.4,262.1,244.4,263.6z"/>
		<path class="st7" d="M244.2,263.6c0,1.4-1.1,2.5-2.5,2.5s-2.5-1.1-2.5-2.5c0-1.4,1.1-2.5,2.5-2.5S244.2,262.2,244.2,263.6z"/>
		<path class="st8" d="M242.8,263.1c0,0.6-0.5,1.1-1.1,1.1c-0.6,0-1.1-0.5-1.1-1.1c0-0.6,0.5-1.1,1.1-1.1
			C242.3,261.9,242.8,262.4,242.8,263.1z"/>
	</g>
	<g>
		<path class="st6" d="M250.6,281c0,1.5-1.2,2.7-2.7,2.7c-1.5,0-2.7-1.2-2.7-2.7c0-1.5,1.2-2.7,2.7-2.7
			C249.4,278.2,250.6,279.5,250.6,281z"/>
		<path class="st7" d="M250.4,281c0,1.4-1.1,2.5-2.5,2.5c-1.4,0-2.5-1.1-2.5-2.5c0-1.4,1.1-2.5,2.5-2.5
			C249.3,278.4,250.4,279.6,250.4,281z"/>
		<path class="st8" d="M249,280.4c0,0.6-0.5,1.1-1.1,1.1c-0.6,0-1.1-0.5-1.1-1.1c0-0.6,0.5-1.1,1.1-1.1
			C248.5,279.3,249,279.8,249,280.4z"/>
	</g>
	<g>
		<path class="st6" d="M171.2,163.3c0,1.5-1.2,2.7-2.7,2.7c-1.5,0-2.7-1.2-2.7-2.7c0-1.5,1.2-2.7,2.7-2.7
			C169.9,160.5,171.2,161.8,171.2,163.3z"/>
		<path class="st7" d="M171,163.3c0,1.4-1.1,2.5-2.5,2.5s-2.5-1.1-2.5-2.5c0-1.4,1.1-2.5,2.5-2.5S171,161.9,171,163.3z"/>
		<path class="st8" d="M169.6,162.7c0,0.6-0.5,1.1-1.1,1.1c-0.6,0-1.1-0.5-1.1-1.1c0-0.6,0.5-1.1,1.1-1.1
			C169.1,161.6,169.6,162.1,169.6,162.7z"/>
	</g>
	<g>
		<path class="st6" d="M186.5,168c0,1.5-1.2,2.7-2.7,2.7c-1.5,0-2.7-1.2-2.7-2.7c0-1.5,1.2-2.7,2.7-2.7
			C185.3,165.3,186.5,166.5,186.5,168z"/>
		<path class="st7" d="M186.3,168c0,1.4-1.1,2.5-2.5,2.5c-1.4,0-2.5-1.1-2.5-2.5c0-1.4,1.1-2.5,2.5-2.5
			C185.2,165.5,186.3,166.6,186.3,168z"/>
		<path class="st8" d="M184.9,167.5c0,0.6-0.5,1.1-1.1,1.1c-0.6,0-1.1-0.5-1.1-1.1c0-0.6,0.5-1.1,1.1-1.1
			C184.4,166.3,184.9,166.8,184.9,167.5z"/>
	</g>
	<g>
		<path class="st6" d="M195.4,183.1c0,1.5-1.2,2.7-2.7,2.7s-2.7-1.2-2.7-2.7c0-1.5,1.2-2.7,2.7-2.7S195.4,181.6,195.4,183.1z"/>
		<path class="st7" d="M195.2,183.1c0,1.4-1.1,2.5-2.5,2.5s-2.5-1.1-2.5-2.5c0-1.4,1.1-2.5,2.5-2.5S195.2,181.8,195.2,183.1z"/>
		<path class="st8" d="M193.9,182.6c0,0.6-0.5,1.1-1.1,1.1c-0.6,0-1.1-0.5-1.1-1.1c0-0.6,0.5-1.1,1.1-1.1
			C193.3,181.5,193.9,182,193.9,182.6z"/>
	</g>
	<g>
		<path class="st6" d="M199.3,200.5c0,1.5-1.2,2.7-2.7,2.7c-1.5,0-2.7-1.2-2.7-2.7c0-1.5,1.2-2.7,2.7-2.7
			C198.1,197.7,199.3,199,199.3,200.5z"/>
		<path class="st7" d="M199.1,200.5c0,1.4-1.1,2.5-2.5,2.5c-1.4,0-2.5-1.1-2.5-2.5c0-1.4,1.1-2.5,2.5-2.5
			C198,197.9,199.1,199.1,199.1,200.5z"/>
		<path class="st8" d="M197.7,199.9c0,0.6-0.5,1.1-1.1,1.1c-0.6,0-1.1-0.5-1.1-1.1c0-0.6,0.5-1.1,1.1-1.1
			C197.2,198.8,197.7,199.3,197.7,199.9z"/>
	</g>
	<g>
		<path class="st6" d="M199.3,218.7c0,1.5-1.2,2.7-2.7,2.7c-1.5,0-2.7-1.2-2.7-2.7c0-1.5,1.2-2.7,2.7-2.7
			C198.1,215.9,199.3,217.2,199.3,218.7z"/>
		<path class="st7" d="M199.1,218.7c0,1.4-1.1,2.5-2.5,2.5c-1.4,0-2.5-1.1-2.5-2.5c0-1.4,1.1-2.5,2.5-2.5
			C198,216.1,199.1,217.3,199.1,218.7z"/>
		<path class="st8" d="M197.7,218.1c0,0.6-0.5,1.1-1.1,1.1c-0.6,0-1.1-0.5-1.1-1.1c0-0.6,0.5-1.1,1.1-1.1
			C197.2,217,197.7,217.5,197.7,218.1z"/>
	</g>
	<g>
		<path class="st6" d="M199.3,236c0,1.5-1.2,2.7-2.7,2.7c-1.5,0-2.7-1.2-2.7-2.7c0-1.5,1.2-2.7,2.7-2.7
			C198.1,233.3,199.3,234.5,199.3,236z"/>
		<path class="st7" d="M199.1,236c0,1.4-1.1,2.5-2.5,2.5c-1.4,0-2.5-1.1-2.5-2.5c0-1.4,1.1-2.5,2.5-2.5
			C198,233.5,199.1,234.6,199.1,236z"/>
		<path class="st8" d="M197.7,235.5c0,0.6-0.5,1.1-1.1,1.1c-0.6,0-1.1-0.5-1.1-1.1c0-0.6,0.5-1.1,1.1-1.1
			C197.2,234.3,197.7,234.8,197.7,235.5z"/>
	</g>
	<g>
		<path class="st6" d="M198.2,252.9c0,1.5-1.2,2.7-2.7,2.7c-1.5,0-2.7-1.2-2.7-2.7c0-1.5,1.2-2.7,2.7-2.7
			C196.9,250.2,198.2,251.4,198.2,252.9z"/>
		<path class="st7" d="M198,252.9c0,1.4-1.1,2.5-2.5,2.5c-1.4,0-2.5-1.1-2.5-2.5s1.1-2.5,2.5-2.5C196.8,250.4,198,251.5,198,252.9z"
			/>
		<path class="st8" d="M196.6,252.4c0,0.6-0.5,1.1-1.1,1.1s-1.1-0.5-1.1-1.1c0-0.6,0.5-1.1,1.1-1.1S196.6,251.7,196.6,252.4z"/>
	</g>
	<g>
		<path class="st6" d="M197.7,269c0,1.5-1.2,2.7-2.7,2.7c-1.5,0-2.7-1.2-2.7-2.7c0-1.5,1.2-2.7,2.7-2.7
			C196.5,266.3,197.7,267.5,197.7,269z"/>
		<path class="st7" d="M197.5,269c0,1.4-1.1,2.5-2.5,2.5c-1.4,0-2.5-1.1-2.5-2.5c0-1.4,1.1-2.5,2.5-2.5
			C196.4,266.5,197.5,267.6,197.5,269z"/>
		<path class="st8" d="M196.1,268.5c0,0.6-0.5,1.1-1.1,1.1c-0.6,0-1.1-0.5-1.1-1.1c0-0.6,0.5-1.1,1.1-1.1
			C195.6,267.3,196.1,267.8,196.1,268.5z"/>
	</g>
	<path class="st9" d="M261.2,294.9l-4.3-1.3c-0.2-0.1-0.3-0.3-0.3-0.5c0.1-0.2,0.3-0.3,0.5-0.3l3.1,0.9c0-0.1,0.1-0.1,0.2-0.1
		c0.2-0.1,0.4,0,0.5,0.2L261.2,294.9z M253,292.5c0,0-0.1,0-0.1,0l-3.9-1.1c-0.2-0.1-0.3-0.3-0.3-0.5c0.1-0.2,0.3-0.3,0.5-0.3
		l3.9,1.1c0.2,0.1,0.3,0.3,0.3,0.5C253.4,292.4,253.2,292.5,253,292.5z M259.1,290.6c-0.2,0-0.3-0.1-0.4-0.3l-1.3-3.8
		c-0.1-0.2,0-0.4,0.3-0.5c0.2-0.1,0.4,0,0.5,0.3l1.3,3.8c0.1,0.2,0,0.4-0.3,0.5C259.2,290.5,259.1,290.6,259.1,290.6z M245.3,290.3
		c0,0-0.1,0-0.1,0l-3.9-1.1c-0.2-0.1-0.3-0.3-0.3-0.5c0.1-0.2,0.3-0.3,0.5-0.3l3.9,1.1c0.2,0.1,0.3,0.3,0.3,0.5
		C245.6,290.2,245.5,290.3,245.3,290.3z M237.5,288c0,0-0.1,0-0.1,0l-3.9-1.1c-0.2-0.1-0.3-0.3-0.3-0.5c0.1-0.2,0.3-0.3,0.5-0.3
		l3.9,1.1c0.2,0.1,0.3,0.3,0.3,0.5C237.9,287.9,237.7,288,237.5,288z M229.8,285.8c0,0-0.1,0-0.1,0l-3.9-1.1
		c-0.2-0.1-0.3-0.3-0.3-0.5c0.1-0.2,0.3-0.3,0.5-0.3l3.9,1.1c0.2,0.1,0.3,0.3,0.3,0.5C230.1,285.7,230,285.8,229.8,285.8z
		 M222,283.5c0,0-0.1,0-0.1,0l-3.9-1.1c-0.2-0.1-0.3-0.3-0.3-0.5c0.1-0.2,0.3-0.3,0.5-0.3l3.9,1.1c0.2,0.1,0.3,0.3,0.3,0.5
		C222.4,283.4,222.2,283.5,222,283.5z M256.4,282.9c-0.2,0-0.3-0.1-0.4-0.3l-1.3-3.8c-0.1-0.2,0-0.4,0.2-0.5c0.2-0.1,0.4,0,0.5,0.3
		l1.3,3.8c0.1,0.2,0,0.4-0.2,0.5C256.5,282.9,256.5,282.9,256.4,282.9z M214.3,281.3c0,0-0.1,0-0.1,0l-3.9-1.1
		c-0.2-0.1-0.3-0.3-0.3-0.5c0.1-0.2,0.3-0.3,0.5-0.3l3.9,1.1c0.2,0.1,0.3,0.3,0.3,0.5C214.6,281.2,214.5,281.3,214.3,281.3z
		 M206.5,279.1c0,0-0.1,0-0.1,0l-3.9-1.1c-0.2-0.1-0.3-0.3-0.3-0.5c0.1-0.2,0.3-0.3,0.5-0.3l3.9,1.1c0.2,0.1,0.3,0.3,0.3,0.5
		C206.9,278.9,206.7,279.1,206.5,279.1z M198.8,276.8c0,0-0.1,0-0.1,0l-3.9-1.1c-0.2-0.1-0.3-0.3-0.3-0.5c0.1-0.2,0.3-0.3,0.5-0.3
		l3.9,1.1c0.2,0.1,0.3,0.3,0.3,0.5C199.1,276.7,198.9,276.8,198.8,276.8z M253.8,275.2c-0.2,0-0.3-0.1-0.4-0.3l-1.3-3.8
		c-0.1-0.2,0-0.4,0.3-0.5c0.2-0.1,0.4,0,0.5,0.3l1.3,3.8c0.1,0.2,0,0.4-0.3,0.5C253.9,275.2,253.9,275.2,253.8,275.2z M191,274.6
		c0,0-0.1,0-0.1,0l-3.9-1.1c-0.2-0.1-0.3-0.3-0.3-0.5c0.1-0.2,0.3-0.3,0.5-0.3l3.9,1.1c0.2,0.1,0.3,0.3,0.3,0.5
		C191.4,274.5,191.2,274.6,191,274.6z M183.3,272.3c0,0-0.1,0-0.1,0l-1.6-0.5l0.7-0.4c0-0.4,0.1-1.5,0.3-3.2c0-0.2,0.2-0.4,0.4-0.4
		c0.2,0,0.4,0.2,0.4,0.4c-0.2,1.7-0.2,2.6-0.3,3.1l0.3,0.1c0.2,0.1,0.3,0.3,0.3,0.5C183.6,272.2,183.4,272.3,183.3,272.3z
		 M251.2,267.6c-0.2,0-0.3-0.1-0.4-0.3l-1.3-3.8c-0.1-0.2,0-0.4,0.3-0.5c0.2-0.1,0.4,0,0.5,0.3l1.3,3.8c0.1,0.2,0,0.4-0.3,0.5
		C251.3,267.6,251.2,267.6,251.2,267.6z M183.3,264.7C183.3,264.7,183.3,264.7,183.3,264.7c-0.3,0-0.4-0.2-0.4-0.4l0.4-4
		c0-0.2,0.2-0.4,0.4-0.4c0.2,0,0.4,0.2,0.4,0.4l-0.4,4C183.7,264.6,183.5,264.7,183.3,264.7z M248.6,259.9c-0.2,0-0.3-0.1-0.4-0.3
		l-1.3-3.8c-0.1-0.2,0-0.4,0.3-0.5c0.2-0.1,0.4,0,0.5,0.3l1.3,3.8c0.1,0.2,0,0.4-0.3,0.5C248.7,259.9,248.6,259.9,248.6,259.9z
		 M184.1,256.7C184.1,256.7,184,256.7,184.1,256.7c-0.3,0-0.4-0.2-0.4-0.4l0.4-4c0-0.2,0.2-0.4,0.4-0.4c0.2,0,0.4,0.2,0.4,0.4
		l-0.4,4C184.4,256.5,184.3,256.7,184.1,256.7z M246,252.3c-0.2,0-0.3-0.1-0.4-0.3l-1.3-3.8c-0.1-0.2,0-0.4,0.3-0.5
		c0.2-0.1,0.4,0,0.5,0.3l1.3,3.8c0.1,0.2,0,0.4-0.3,0.5C246.1,252.2,246,252.3,246,252.3z M184.8,248.6
		C184.8,248.6,184.8,248.6,184.8,248.6c-0.3,0-0.4-0.2-0.4-0.4l0.4-4c0-0.2,0.2-0.4,0.4-0.4c0.2,0,0.4,0.2,0.4,0.4l-0.4,4
		C185.2,248.4,185,248.6,184.8,248.6z M243.4,244.6c-0.2,0-0.3-0.1-0.4-0.3l-1.3-3.8c-0.1-0.2,0-0.4,0.3-0.5c0.2-0.1,0.4,0,0.5,0.3
		l1.3,3.8c0.1,0.2,0,0.4-0.3,0.5C243.5,244.6,243.4,244.6,243.4,244.6z M185.6,240.5C185.5,240.5,185.5,240.5,185.6,240.5
		c-0.3,0-0.4-0.2-0.4-0.4l0.4-4c0-0.2,0.2-0.4,0.4-0.4c0.2,0,0.4,0.2,0.4,0.4l-0.4,4C185.9,240.4,185.8,240.5,185.6,240.5z
		 M240.8,236.9c-0.2,0-0.3-0.1-0.4-0.3l-1.3-3.8c-0.1-0.2,0-0.4,0.3-0.5c0.2-0.1,0.4,0,0.5,0.3l1.3,3.8c0.1,0.2,0,0.4-0.3,0.5
		C240.9,236.9,240.9,236.9,240.8,236.9z M186.3,232.5C186.3,232.5,186.3,232.5,186.3,232.5c-0.3,0-0.4-0.2-0.4-0.4l0.4-4
		c0-0.2,0.2-0.4,0.4-0.4c0.2,0,0.4,0.2,0.4,0.4l-0.4,4C186.7,232.3,186.5,232.5,186.3,232.5z M238.3,229.2c-0.2,0-0.3-0.1-0.4-0.3
		c-0.4-1.3-0.9-2.6-1.3-3.8c-0.1-0.2,0-0.4,0.3-0.5c0.2-0.1,0.4,0,0.5,0.3c0.4,1.3,0.8,2.5,1.3,3.8c0.1,0.2,0,0.4-0.3,0.5
		C238.4,229.2,238.3,229.2,238.3,229.2z M187,224.4C187,224.4,187,224.4,187,224.4c-0.3,0-0.4-0.2-0.4-0.4l0.4-4
		c0-0.2,0.2-0.4,0.4-0.4c0.2,0,0.4,0.2,0.4,0.4l-0.4,4C187.4,224.3,187.2,224.4,187,224.4z M235.8,221.5c-0.2,0-0.3-0.1-0.4-0.3
		c-0.4-1.3-0.8-2.6-1.2-3.9c-0.1-0.2,0.1-0.4,0.3-0.5c0.2-0.1,0.4,0.1,0.5,0.3c0.4,1.2,0.8,2.5,1.2,3.9c0.1,0.2,0,0.4-0.3,0.5
		C235.9,221.5,235.8,221.5,235.8,221.5z M187.8,216.4C187.8,216.4,187.7,216.4,187.8,216.4c-0.3,0-0.4-0.2-0.4-0.4l0.1-1.5
		c0.1-0.8,0.1-1.7,0.2-2.5c0-0.2,0.2-0.4,0.4-0.4c0.2,0,0.4,0.2,0.4,0.4c0,0.9-0.1,1.7-0.2,2.6l-0.1,1.5
		C188.2,216.2,188,216.4,187.8,216.4z M233.3,213.8c-0.2,0-0.3-0.1-0.4-0.3c-0.4-1.4-0.8-2.7-1.2-3.9c-0.1-0.2,0.1-0.4,0.3-0.5
		c0.2-0.1,0.4,0.1,0.5,0.3c0.4,1.2,0.8,2.5,1.2,3.9c0.1,0.2-0.1,0.4-0.3,0.5C233.4,213.8,233.4,213.8,233.3,213.8z M188.2,208.3
		c-0.2,0-0.4-0.2-0.4-0.4c0-1.3,0-2.7-0.1-4c0-0.2,0.2-0.4,0.4-0.4c0.2,0,0.4,0.2,0.4,0.4c0.1,1.4,0.1,2.7,0.1,4.1
		C188.6,208.1,188.4,208.3,188.2,208.3L188.2,208.3z M231,206.1c-0.2,0-0.3-0.1-0.4-0.3c-0.3-1.1-0.5-2-0.7-2.7
		c-0.1-0.4-0.2-0.8-0.3-1.3c0-0.2,0.1-0.4,0.3-0.5c0.2,0,0.4,0.1,0.5,0.3c0.1,0.4,0.2,0.9,0.3,1.3c0.1,0.6,0.4,1.5,0.7,2.7
		c0.1,0.2-0.1,0.4-0.3,0.5C231.1,206.1,231,206.1,231,206.1z M187.8,200.2c-0.2,0-0.4-0.2-0.4-0.4c-0.1-1.3-0.2-2.7-0.4-4
		c0-0.2,0.1-0.4,0.4-0.5c0.2,0,0.4,0.1,0.4,0.4c0.2,1.3,0.3,2.7,0.4,4C188.2,200,188.1,200.2,187.8,200.2
		C187.8,200.2,187.8,200.2,187.8,200.2z M229.3,198.2c-0.2,0-0.4-0.1-0.4-0.3c-0.2-1.3-0.4-2.6-0.6-4c0-0.2,0.1-0.4,0.3-0.5
		c0.2,0,0.4,0.1,0.5,0.3c0.2,1.3,0.4,2.7,0.6,4C229.7,197.9,229.6,198.1,229.3,198.2C229.3,198.2,229.3,198.2,229.3,198.2z
		 M186.8,192.2c-0.2,0-0.4-0.1-0.4-0.3c-0.2-1.4-0.5-2.7-0.7-3.9c0-0.2,0.1-0.4,0.3-0.5c0.2,0,0.4,0.1,0.5,0.3
		c0.3,1.3,0.5,2.6,0.8,4C187.3,192,187.1,192.2,186.8,192.2C186.9,192.2,186.9,192.2,186.8,192.2z M228.2,190.2
		c-0.2,0-0.4-0.2-0.4-0.4c-0.2-1.4-0.3-2.7-0.4-4c0-0.2,0.1-0.4,0.4-0.4c0.2,0,0.4,0.1,0.4,0.4c0.1,1.3,0.2,2.6,0.4,4
		C228.6,189.9,228.4,190.1,228.2,190.2C228.2,190.2,228.2,190.2,228.2,190.2z M185.1,184.4c-0.2,0-0.3-0.1-0.4-0.3
		c-0.4-1.4-0.9-2.6-1.3-3.5l-0.1-0.2c-0.1-0.2,0-0.4,0.2-0.5c0.2-0.1,0.4,0,0.5,0.2l0.1,0.2c0.5,0.9,0.9,2.1,1.3,3.6
		c0.1,0.2-0.1,0.4-0.3,0.5C185.2,184.3,185.1,184.4,185.1,184.4z M227.5,182.1c-0.2,0-0.4-0.2-0.4-0.4c-0.1-1.4-0.1-2.8-0.1-4.1
		c0-0.2,0.2-0.4,0.4-0.4h0c0.2,0,0.4,0.2,0.4,0.4c0,1.3,0.1,2.6,0.1,4C227.9,181.9,227.8,182.1,227.5,182.1
		C227.5,182.1,227.5,182.1,227.5,182.1z M181.4,177.2c-0.1,0-0.2,0-0.3-0.1c-0.8-1-1.8-1.9-2.8-2.8c-0.2-0.1-0.2-0.4-0.1-0.6
		c0.1-0.2,0.4-0.2,0.6-0.1c1.1,0.9,2.1,1.9,2.9,2.9c0.1,0.2,0.1,0.4-0.1,0.6C181.6,177.2,181.5,177.2,181.4,177.2z M227.4,174
		C227.4,174,227.4,174,227.4,174c-0.2,0-0.4-0.2-0.4-0.4c0.1-1.5,0.2-2.8,0.3-4.1c0-0.2,0.2-0.4,0.4-0.4c0.2,0,0.4,0.2,0.4,0.4
		c-0.1,1.2-0.2,2.6-0.3,4C227.8,173.9,227.7,174,227.4,174z M175.3,172.1c-0.1,0-0.1,0-0.2-0.1c-1.1-0.6-2.3-1.2-3.6-1.7
		c-0.2-0.1-0.3-0.3-0.2-0.5c0.1-0.2,0.3-0.3,0.5-0.2c1.3,0.5,2.5,1.1,3.7,1.8c0.2,0.1,0.3,0.4,0.2,0.5
		C175.5,172,175.4,172.1,175.3,172.1z M167.8,169.1c0,0-0.1,0-0.1,0l-0.5-0.1c-0.8-0.2-2-0.4-3.4-0.5c-0.2,0-0.4-0.2-0.4-0.4
		c0-0.2,0.2-0.4,0.4-0.4c1.5,0.2,2.7,0.3,3.6,0.5l0.5,0.1c0.2,0.1,0.3,0.3,0.3,0.5C168.1,169,168,169.1,167.8,169.1z M123.4,168.4
		c-0.2,0-0.4-0.2-0.4-0.4c0-0.2,0.2-0.4,0.4-0.4c0,0,1.5-0.1,4-0.1c0.2,0,0.4,0.2,0.4,0.4c0,0.2-0.2,0.4-0.4,0.4
		C125,168.4,123.4,168.4,123.4,168.4C123.4,168.4,123.4,168.4,123.4,168.4z M159.8,168.2C159.8,168.2,159.8,168.2,159.8,168.2
		c-1.3-0.1-2.6-0.1-4-0.2c-0.2,0-0.4-0.2-0.4-0.4c0-0.2,0.2-0.4,0.4-0.4c1.4,0,2.8,0.1,4,0.2c0.2,0,0.4,0.2,0.4,0.4
		C160.2,168,160,168.2,159.8,168.2z M131.5,168.2c-0.2,0-0.4-0.2-0.4-0.4c0-0.2,0.2-0.4,0.4-0.4c1.3,0,2.6-0.1,4-0.1
		c0.2,0,0.4,0.2,0.4,0.4c0,0.2-0.2,0.4-0.4,0.4C134.1,168.1,132.8,168.1,131.5,168.2C131.5,168.2,131.5,168.2,131.5,168.2z
		 M139.6,168c-0.2,0-0.4-0.2-0.4-0.4c0-0.2,0.2-0.4,0.4-0.4c1.3,0,2.7,0,4,0c0.3,0,0.4,0.2,0.4,0.4c0,0.2-0.2,0.4-0.4,0.4
		C142.3,168,140.9,168,139.6,168L139.6,168z M151.7,168L151.7,168c-1.3,0-2.7,0-4,0c-0.2,0-0.4-0.2-0.4-0.4c0-0.2,0.2-0.4,0.4-0.4
		l0,0c1.4,0,2.7,0,4,0c0.2,0,0.4,0.2,0.4,0.4C152.1,167.8,151.9,168,151.7,168z M228.4,166C228.4,166,228.4,166,228.4,166
		c-0.3-0.1-0.4-0.3-0.4-0.5c0.4-1.6,0.9-2.9,1.5-3.9c0.1-0.2,0.4-0.2,0.6-0.1c0.2,0.1,0.2,0.4,0.1,0.6c-0.6,0.9-1.1,2.1-1.4,3.6
		C228.8,165.9,228.6,166,228.4,166z M258.4,160.7C258.3,160.7,258.3,160.7,258.4,160.7c-0.2,0-0.6-0.1-1.3-0.3
		c-0.2,0-0.4-0.2-0.3-0.5c0-0.2,0.3-0.4,0.5-0.3c0.7,0.1,1.2,0.2,1.3,0.2c0.2,0,0.3,0.2,0.3,0.4
		C258.7,160.6,258.6,160.7,258.4,160.7z M233.1,159.9c-0.2,0-0.3-0.1-0.4-0.3c-0.1-0.2,0-0.4,0.2-0.5c1.1-0.4,2.5-0.7,4-0.9
		c0.2,0,0.4,0.1,0.4,0.4c0,0.2-0.1,0.4-0.4,0.4c-1.5,0.2-2.8,0.5-3.8,0.8C233.2,159.9,233.1,159.9,233.1,159.9z M253.1,159.8
		C253.1,159.8,253.1,159.8,253.1,159.8c-1.4-0.2-2.8-0.4-4.1-0.5c-0.2,0-0.4-0.2-0.4-0.4c0-0.2,0.2-0.4,0.4-0.4
		c1.3,0.1,2.7,0.3,4,0.5c0.2,0,0.4,0.2,0.3,0.5C253.5,159.7,253.3,159.8,253.1,159.8z M245.1,159C245.1,159,245.1,159,245.1,159
		c-1.4-0.1-2.6-0.1-3.8-0.1H241h0c-0.2,0-0.4-0.2-0.4-0.4s0.2-0.4,0.4-0.4h0.2c1.2,0,2.5,0,3.8,0.1c0.2,0,0.4,0.2,0.4,0.4
		C245.5,158.8,245.3,159,245.1,159z"/>
</g>
</svg>
