<?xml version="1.0" encoding="utf-8"?>
<!-- Generator: Adobe Illustrator 24.0.2, SVG Export Plug-In . SVG Version: 6.00 Build 0)  -->
<svg version="1.1" id="Layer_1" xmlns="http://www.w3.org/2000/svg" xmlns:xlink="http://www.w3.org/1999/xlink" x="0px" y="0px"
	 viewBox="0 0 500 500" style="enable-background:new 0 0 500 500;" xml:space="preserve">
<style type="text/css">
	.st0{fill:url(#SVGID_1_);}
	.st1{fill:url(#SVGID_2_);}
	.st2{fill:url(#SVGID_3_);}
	.st3{fill:url(#SVGID_4_);}
	.st4{opacity:0.3;fill:url(#SVGID_5_);}
	.st5{opacity:0.3;fill:url(#SVGID_6_);}
	.st6{fill:url(#SVGID_7_);}
	.st7{fill:url(#SVGID_8_);}
	.st8{fill:url(#SVGID_9_);}
	.st9{opacity:0.7;fill:url(#SVGID_10_);}
	.st10{fill:url(#SVGID_11_);}
	.st11{fill:url(#SVGID_12_);}
	.st12{fill:url(#SVGID_13_);}
	.st13{fill:url(#SVGID_14_);}
	.st14{fill:url(#SVGID_15_);}
	.st15{fill:url(#SVGID_16_);}
	.st16{fill:url(#SVGID_17_);}
</style>
<g>
	<linearGradient id="SVGID_1_" gradientUnits="userSpaceOnUse" x1="162.8761" y1="205.1995" x2="230.9462" y2="205.1995">
		<stop  offset="0" style="stop-color:#C18D4A"/>
		<stop  offset="0.1588" style="stop-color:#CB9855"/>
		<stop  offset="0.463" style="stop-color:#E7B976"/>
		<stop  offset="0.6322" style="stop-color:#FFD28C"/>
		<stop  offset="0.7599" style="stop-color:#FDD796"/>
		<stop  offset="0.9818" style="stop-color:#F9E8B1"/>
		<stop  offset="1" style="stop-color:#F9E9B4"/>
	</linearGradient>
	<path class="st0" d="M230.9,204.8c0,19.4-13.1,48.4-32.4,48.4c-19.3,0-35.7-22-35.7-48.3s13.8-47.2,33.1-47.7
		C213.8,156.8,230.9,182.1,230.9,204.8z"/>
	<linearGradient id="SVGID_2_" gradientUnits="userSpaceOnUse" x1="286.4958" y1="205.3626" x2="354.5659" y2="205.3626">
		<stop  offset="0" style="stop-color:#F9E9B4"/>
		<stop  offset="1.815228e-02" style="stop-color:#F9E8B1"/>
		<stop  offset="0.2401" style="stop-color:#FDD796"/>
		<stop  offset="0.3678" style="stop-color:#FFD28C"/>
		<stop  offset="0.537" style="stop-color:#E7B976"/>
		<stop  offset="0.8412" style="stop-color:#CB9855"/>
		<stop  offset="1" style="stop-color:#C18D4A"/>
	</linearGradient>
	<path class="st1" d="M286.5,205.2c0,19.3,13.1,48,32.4,48c19.3,0,35.7-21.8,35.7-47.9c0-26.1-14.5-47.2-33.9-47.7
		C302.9,157.1,286.5,182.6,286.5,205.2z"/>
	<g>
		<linearGradient id="SVGID_3_" gradientUnits="userSpaceOnUse" x1="83.7731" y1="237.3633" x2="230.9462" y2="237.3633">
			<stop  offset="0" style="stop-color:#9F6728"/>
			<stop  offset="6.611850e-02" style="stop-color:#8E5823"/>
			<stop  offset="0.1451" style="stop-color:#7F4B1E"/>
			<stop  offset="0.2259" style="stop-color:#77441B"/>
			<stop  offset="0.3103" style="stop-color:#74421A"/>
			<stop  offset="0.3768" style="stop-color:#804D1F"/>
			<stop  offset="0.4577" style="stop-color:#895623"/>
			<stop  offset="0.5278" style="stop-color:#8D5924"/>
			<stop  offset="0.5732" style="stop-color:#9A6828"/>
			<stop  offset="1" style="stop-color:#BD8C35"/>
		</linearGradient>
		<path class="st2" d="M230.9,206.1c0-19.3-15.6-47.5-34.9-47.5l0,0c-65.5,9.4-112.2,32.5-112.2,61.2c0,1.1,0,96.4,0,96.4
			c0-5,2.6-11.5,3.7-13.8c11.8-24,57.9-43,117.2-50C219.8,248.5,230.9,222.3,230.9,206.1z"/>
		<linearGradient id="SVGID_4_" gradientUnits="userSpaceOnUse" x1="277.0487" y1="237.91" x2="417.9994" y2="237.91">
			<stop  offset="0" style="stop-color:#ECC49F"/>
			<stop  offset="1.889977e-02" style="stop-color:#E2B88A"/>
			<stop  offset="4.976668e-02" style="stop-color:#D6A970"/>
			<stop  offset="8.238055e-02" style="stop-color:#CC9D5A"/>
			<stop  offset="0.1167" style="stop-color:#C69548"/>
			<stop  offset="0.1536" style="stop-color:#C1903D"/>
			<stop  offset="0.1948" style="stop-color:#BE8D37"/>
			<stop  offset="0.249" style="stop-color:#BD8C35"/>
			<stop  offset="0.3741" style="stop-color:#BA8833"/>
			<stop  offset="0.4802" style="stop-color:#AF7D2F"/>
			<stop  offset="0.5792" style="stop-color:#9E6B29"/>
			<stop  offset="0.5994" style="stop-color:#996728"/>
			<stop  offset="0.6158" style="stop-color:#915F25"/>
			<stop  offset="0.6219" style="stop-color:#8D5B24"/>
			<stop  offset="0.7464" style="stop-color:#74421A"/>
			<stop  offset="0.8155" style="stop-color:#77441B"/>
			<stop  offset="0.8814" style="stop-color:#7F4B1E"/>
			<stop  offset="0.946" style="stop-color:#8E5823"/>
			<stop  offset="1" style="stop-color:#9F6728"/>
		</linearGradient>
		<path class="st3" d="M320.7,159.7L320.7,159.7c-18.9,0.4-34.2,28.4-34.2,47.5c0,15.9,10.7,41.7,25.2,45.9
			c56.5,7.6,99.8,26.2,112.1,49.3c0.6,1.1,3.7,8.8,3.7,13.8c0,0,0-95.9,0-97C427.4,191.2,383.3,169.4,320.7,159.7z"/>
	</g>
	<g>
		<linearGradient id="SVGID_5_" gradientUnits="userSpaceOnUse" x1="83.7731" y1="281.1761" x2="214.7704" y2="281.1761">
			<stop  offset="0" style="stop-color:#9F4A23"/>
			<stop  offset="0.1191" style="stop-color:#AE5F29"/>
			<stop  offset="0.2979" style="stop-color:#C27835"/>
			<stop  offset="0.472" style="stop-color:#D28C3E"/>
			<stop  offset="0.6376" style="stop-color:#DD9A44"/>
			<stop  offset="0.7854" style="stop-color:#E2A047"/>
			<stop  offset="0.854" style="stop-color:#DE9C45"/>
			<stop  offset="0.8984" style="stop-color:#D49240"/>
			<stop  offset="0.9359" style="stop-color:#C68338"/>
			<stop  offset="0.9694" style="stop-color:#B46F2E"/>
			<stop  offset="1" style="stop-color:#9E5825"/>
		</linearGradient>
		<path class="st4" d="M214.8,246.2c-66.4,5.7-117.1,26.1-130,51.8c-0.3,0.6-0.6,1.4-1,2.3c0,9.2,0,15.9,0,15.9
			c0-5,2.6-11.5,3.7-13.8c11.8-24,57.9-43,117.2-50C209.1,251.3,211.2,248.8,214.8,246.2z"/>
		<linearGradient id="SVGID_6_" gradientUnits="userSpaceOnUse" x1="302.1564" y1="281.6509" x2="427.4464" y2="281.6509">
			<stop  offset="0" style="stop-color:#9F4A23"/>
			<stop  offset="0.1191" style="stop-color:#AE5F29"/>
			<stop  offset="0.2979" style="stop-color:#C27835"/>
			<stop  offset="0.472" style="stop-color:#D28C3E"/>
			<stop  offset="0.6376" style="stop-color:#DD9A44"/>
			<stop  offset="0.7854" style="stop-color:#E2A047"/>
			<stop  offset="0.854" style="stop-color:#DE9C45"/>
			<stop  offset="0.8984" style="stop-color:#D49240"/>
			<stop  offset="0.9359" style="stop-color:#C68338"/>
			<stop  offset="0.9694" style="stop-color:#B46F2E"/>
			<stop  offset="1" style="stop-color:#9E5825"/>
		</linearGradient>
		<path class="st5" d="M427.2,298c-13.4-24.9-61.1-44.5-125-50.8c3.4,2.7,5.3,4.7,9.5,5.9c56.5,7.6,99.8,26.2,112.1,49.3
			c0.6,1.1,3.7,8.8,3.7,13.8c0,0,0-7.5,0-17.7C427.4,298.3,427.3,298.1,427.2,298z"/>
	</g>
	<g>
		<linearGradient id="SVGID_7_" gradientUnits="userSpaceOnUse" x1="134.1443" y1="166.1092" x2="168.8587" y2="304.2122">
			<stop  offset="0" style="stop-color:#9E773F"/>
			<stop  offset="2.452013e-02" style="stop-color:#A78351"/>
			<stop  offset="7.293084e-02" style="stop-color:#B89A70"/>
			<stop  offset="0.1248" style="stop-color:#C8B08F"/>
			<stop  offset="0.1795" style="stop-color:#D6C4AC"/>
			<stop  offset="0.2379" style="stop-color:#E2D6C6"/>
			<stop  offset="0.301" style="stop-color:#ECE5DB"/>
			<stop  offset="0.3716" style="stop-color:#F5F1EC"/>
			<stop  offset="0.4553" style="stop-color:#FCFBF9"/>
			<stop  offset="0.5862" style="stop-color:#FFFFFF"/>
			<stop  offset="0.6551" style="stop-color:#FAF8F5"/>
			<stop  offset="0.7417" style="stop-color:#F1ECE4"/>
			<stop  offset="0.8377" style="stop-color:#E5DACB"/>
			<stop  offset="0.9398" style="stop-color:#D4C4AC"/>
			<stop  offset="1" style="stop-color:#CAB597"/>
		</linearGradient>
		<path class="st6" d="M230.9,206.1c0-19.3-15.6-47.5-34.9-47.5l0,0c-65.5,9.4-112.2,32.5-112.2,61.2c0,1.1,0,96.4,0,96.4
			c0-5,2.6-11.5,3.7-13.8c11.8-24,57.9-43,117.2-50C219.8,248.5,230.9,222.3,230.9,206.1z"/>
		<linearGradient id="SVGID_8_" gradientUnits="userSpaceOnUse" x1="388.1786" y1="175.0868" x2="341.0393" y2="299.3793">
			<stop  offset="0" style="stop-color:#9E773F"/>
			<stop  offset="2.452013e-02" style="stop-color:#A78351"/>
			<stop  offset="7.293084e-02" style="stop-color:#B89A70"/>
			<stop  offset="0.1248" style="stop-color:#C8B08F"/>
			<stop  offset="0.1795" style="stop-color:#D6C4AC"/>
			<stop  offset="0.2379" style="stop-color:#E2D6C6"/>
			<stop  offset="0.301" style="stop-color:#ECE5DB"/>
			<stop  offset="0.3716" style="stop-color:#F5F1EC"/>
			<stop  offset="0.4553" style="stop-color:#FCFBF9"/>
			<stop  offset="0.5862" style="stop-color:#FFFFFF"/>
			<stop  offset="0.6551" style="stop-color:#FAF8F5"/>
			<stop  offset="0.7417" style="stop-color:#F1ECE4"/>
			<stop  offset="0.8377" style="stop-color:#E5DACB"/>
			<stop  offset="0.9398" style="stop-color:#D4C4AC"/>
			<stop  offset="1" style="stop-color:#CAB597"/>
		</linearGradient>
		<path class="st7" d="M320.7,159.7L320.7,159.7c-18.9,0.4-34.2,28.4-34.2,47.5c0,15.9,10.7,41.7,25.2,45.9
			c56.5,7.6,99.8,26.2,112.1,49.3c0.6,1.1,3.7,8.8,3.7,13.8c0,0,0-95.9,0-97C427.4,191.2,383.3,169.4,320.7,159.7z"/>
	</g>
	<g>
		<linearGradient id="SVGID_9_" gradientUnits="userSpaceOnUse" x1="83.7731" y1="300.6835" x2="427.9919" y2="300.6835">
			<stop  offset="3.831420e-03" style="stop-color:#8F5F25"/>
			<stop  offset="2.200632e-02" style="stop-color:#8D5E25"/>
			<stop  offset="2.855338e-02" style="stop-color:#885B24"/>
			<stop  offset="3.322051e-02" style="stop-color:#7E5521"/>
			<stop  offset="3.699391e-02" style="stop-color:#714C1E"/>
			<stop  offset="4.018820e-02" style="stop-color:#614119"/>
			<stop  offset="4.214560e-02" style="stop-color:#553914"/>
			<stop  offset="5.416524e-02" style="stop-color:#66471F"/>
			<stop  offset="9.375707e-02" style="stop-color:#A67B49"/>
			<stop  offset="0.1228" style="stop-color:#D5A46A"/>
			<stop  offset="0.1379" style="stop-color:#ECB879"/>
			<stop  offset="0.1797" style="stop-color:#EAB778"/>
			<stop  offset="0.1948" style="stop-color:#E6B373"/>
			<stop  offset="0.2055" style="stop-color:#DDAC6A"/>
			<stop  offset="0.2141" style="stop-color:#D2A25D"/>
			<stop  offset="0.2184" style="stop-color:#CB9C54"/>
			<stop  offset="0.272" style="stop-color:#DBAE6B"/>
			<stop  offset="0.3103" style="stop-color:#E4B978"/>
			<stop  offset="0.3158" style="stop-color:#E5BC7D"/>
			<stop  offset="0.338" style="stop-color:#EBC78F"/>
			<stop  offset="0.3618" style="stop-color:#EFD09C"/>
			<stop  offset="0.388" style="stop-color:#F2D4A5"/>
			<stop  offset="0.4215" style="stop-color:#F2D6A7"/>
			<stop  offset="0.4633" style="stop-color:#F8E2B8"/>
			<stop  offset="0.5122" style="stop-color:#FEEDC6"/>
			<stop  offset="0.5556" style="stop-color:#FFF0CA"/>
			<stop  offset="0.5883" style="stop-color:#F7E2B8"/>
			<stop  offset="0.6475" style="stop-color:#E7C690"/>
			<stop  offset="0.7914" style="stop-color:#C08A3F"/>
			<stop  offset="0.8391" style="stop-color:#B57A2B"/>
			<stop  offset="0.843" style="stop-color:#BD8536"/>
			<stop  offset="0.8499" style="stop-color:#C9974D"/>
			<stop  offset="0.8578" style="stop-color:#D4A864"/>
			<stop  offset="0.8667" style="stop-color:#DDB676"/>
			<stop  offset="0.8771" style="stop-color:#E6C385"/>
			<stop  offset="0.8899" style="stop-color:#ECCC8F"/>
			<stop  offset="0.9079" style="stop-color:#F0D196"/>
			<stop  offset="0.9579" style="stop-color:#F1D398"/>
			<stop  offset="0.9737" style="stop-color:#EFD196"/>
			<stop  offset="0.9803" style="stop-color:#E7C98D"/>
			<stop  offset="0.9852" style="stop-color:#DDBD81"/>
			<stop  offset="0.9893" style="stop-color:#CFAD71"/>
			<stop  offset="0.9928" style="stop-color:#BF9B5D"/>
			<stop  offset="0.996" style="stop-color:#AD8646"/>
			<stop  offset="0.9988" style="stop-color:#997030"/>
			<stop  offset="1" style="stop-color:#8F6728"/>
		</linearGradient>
		<path class="st8" d="M424.3,232.9c-16.1,30.3-85.6,53-168.4,53s-153.4-22.4-168.4-53c-1.1-2.3-3.7-8.8-3.7-13.8c0,0,0,95.2,0,96.4
			c0,36.9,77.1,66.8,172.1,66.8S428,353,428,316.1c0-1.1,0-97,0-97C428,224.1,424.9,231.9,424.3,232.9z"/>
		<linearGradient id="SVGID_10_" gradientUnits="userSpaceOnUse" x1="83.7731" y1="347.0569" x2="427.9919" y2="347.0569">
			<stop  offset="0" style="stop-color:#9F4A23"/>
			<stop  offset="0.1191" style="stop-color:#AE5F29"/>
			<stop  offset="0.2979" style="stop-color:#C27835"/>
			<stop  offset="0.472" style="stop-color:#D28C3E"/>
			<stop  offset="0.6376" style="stop-color:#DD9A44"/>
			<stop  offset="0.7854" style="stop-color:#E2A047"/>
			<stop  offset="0.854" style="stop-color:#DE9C45"/>
			<stop  offset="0.8984" style="stop-color:#D49240"/>
			<stop  offset="0.9359" style="stop-color:#C68338"/>
			<stop  offset="0.9694" style="stop-color:#B46F2E"/>
			<stop  offset="1" style="stop-color:#9E5825"/>
		</linearGradient>
		<path class="st9" d="M255.9,378.6c-95.1,0-172.1-29.9-172.1-66.8c0,2.2,0,3.5,0,3.6c0,36.9,77.1,66.8,172.1,66.8
			S428,353,428,316.1c0-0.1,0-1.5,0-3.6C428,349.4,350.9,378.6,255.9,378.6z"/>
		<linearGradient id="SVGID_11_" gradientUnits="userSpaceOnUse" x1="83.7731" y1="333.1825" x2="427.9919" y2="333.1825">
			<stop  offset="0" style="stop-color:#623914"/>
			<stop  offset="0.2644" style="stop-color:#9B6B36"/>
			<stop  offset="0.395" style="stop-color:#C19459"/>
			<stop  offset="0.4995" style="stop-color:#DEB474"/>
			<stop  offset="0.5594" style="stop-color:#EDC381"/>
			<stop  offset="0.6217" style="stop-color:#E3B774"/>
			<stop  offset="0.7395" style="stop-color:#CB9C54"/>
			<stop  offset="0.9962" style="stop-color:#683F18"/>
		</linearGradient>
		<path class="st10" d="M255.9,364.8c-95.1,0-172.1-29.9-172.1-66.8c0,2.2,0,3.5,0,3.6c0,36.9,77.1,66.8,172.1,66.8
			S428,339.1,428,302.3c0-0.1,0-1.5,0-3.6C428,335.5,350.9,364.8,255.9,364.8z"/>
		<linearGradient id="SVGID_12_" gradientUnits="userSpaceOnUse" x1="83.501" y1="267.5736" x2="427.7186" y2="267.5736">
			<stop  offset="0" style="stop-color:#623914"/>
			<stop  offset="0.2644" style="stop-color:#9B6B36"/>
			<stop  offset="0.395" style="stop-color:#C19459"/>
			<stop  offset="0.4995" style="stop-color:#DEB474"/>
			<stop  offset="0.5594" style="stop-color:#EDC381"/>
			<stop  offset="0.6217" style="stop-color:#E3B774"/>
			<stop  offset="0.7395" style="stop-color:#CB9C54"/>
			<stop  offset="0.9962" style="stop-color:#683F18"/>
		</linearGradient>
		<path class="st11" d="M255.6,299.1c-95.1,0-172.1-29.9-172.1-66.8c0,2.2,0,3.5,0,3.6c0,36.9,77.1,66.8,172.1,66.8
			s172.1-29.2,172.1-66.1c0-0.1,0-1.5,0-3.6C427.7,269.9,350.7,299.1,255.6,299.1z"/>
		<linearGradient id="SVGID_13_" gradientUnits="userSpaceOnUse" x1="83.501" y1="280.6949" x2="427.7186" y2="280.6949">
			<stop  offset="0" style="stop-color:#623914"/>
			<stop  offset="0.2644" style="stop-color:#9B6B36"/>
			<stop  offset="0.395" style="stop-color:#C19459"/>
			<stop  offset="0.4995" style="stop-color:#DEB474"/>
			<stop  offset="0.5594" style="stop-color:#EDC381"/>
			<stop  offset="0.6217" style="stop-color:#E3B774"/>
			<stop  offset="0.7395" style="stop-color:#CB9C54"/>
			<stop  offset="0.9962" style="stop-color:#683F18"/>
		</linearGradient>
		<path class="st12" d="M255.6,312.3c-95.1,0-172.1-29.9-172.1-66.8c0,2.2,0,3.5,0,3.6c0,36.9,77.1,66.8,172.1,66.8
			s172.1-29.2,172.1-66.1c0-0.1,0-1.5,0-3.6C427.7,283,350.7,312.3,255.6,312.3z"/>
		<linearGradient id="SVGID_14_" gradientUnits="userSpaceOnUse" x1="83.501" y1="293.8174" x2="427.7186" y2="293.8174">
			<stop  offset="0" style="stop-color:#623914"/>
			<stop  offset="0.2644" style="stop-color:#9B6B36"/>
			<stop  offset="0.395" style="stop-color:#C19459"/>
			<stop  offset="0.4995" style="stop-color:#DEB474"/>
			<stop  offset="0.5594" style="stop-color:#EDC381"/>
			<stop  offset="0.6217" style="stop-color:#E3B774"/>
			<stop  offset="0.7395" style="stop-color:#CB9C54"/>
			<stop  offset="0.9962" style="stop-color:#683F18"/>
		</linearGradient>
		<path class="st13" d="M255.6,325.4c-95.1,0-172.1-29.9-172.1-66.8c0,2.2,0,3.5,0,3.6c0,36.9,77.1,66.8,172.1,66.8
			s172.1-29.2,172.1-66.1c0-0.1,0-1.5,0-3.6C427.7,296.1,350.7,325.4,255.6,325.4z"/>
		<linearGradient id="SVGID_15_" gradientUnits="userSpaceOnUse" x1="83.501" y1="306.9387" x2="427.7186" y2="306.9387">
			<stop  offset="0" style="stop-color:#623914"/>
			<stop  offset="0.2644" style="stop-color:#9B6B36"/>
			<stop  offset="0.395" style="stop-color:#C19459"/>
			<stop  offset="0.4995" style="stop-color:#DEB474"/>
			<stop  offset="0.5594" style="stop-color:#EDC381"/>
			<stop  offset="0.6217" style="stop-color:#E3B774"/>
			<stop  offset="0.7395" style="stop-color:#CB9C54"/>
			<stop  offset="0.9962" style="stop-color:#683F18"/>
		</linearGradient>
		<path class="st14" d="M255.6,338.5c-95.1,0-172.1-29.9-172.1-66.8c0,2.2,0,3.5,0,3.6c0,36.9,77.1,66.8,172.1,66.8
			s172.1-29.2,172.1-66.1c0-0.1,0-1.5,0-3.6C427.7,309.3,350.7,338.5,255.6,338.5z"/>
		<linearGradient id="SVGID_16_" gradientUnits="userSpaceOnUse" x1="83.501" y1="320.0612" x2="427.7186" y2="320.0612">
			<stop  offset="0" style="stop-color:#623914"/>
			<stop  offset="0.2644" style="stop-color:#9B6B36"/>
			<stop  offset="0.395" style="stop-color:#C19459"/>
			<stop  offset="0.4995" style="stop-color:#DEB474"/>
			<stop  offset="0.5594" style="stop-color:#EDC381"/>
			<stop  offset="0.6217" style="stop-color:#E3B774"/>
			<stop  offset="0.7395" style="stop-color:#CB9C54"/>
			<stop  offset="0.9962" style="stop-color:#683F18"/>
		</linearGradient>
		<path class="st15" d="M255.6,351.6c-95.1,0-172.1-29.9-172.1-66.8c0,2.2,0,3.5,0,3.6c0,36.9,77.1,66.8,172.1,66.8
			s172.1-29.2,172.1-66.1c0-0.1,0-1.5,0-3.6C427.7,322.4,350.7,351.6,255.6,351.6z"/>
	</g>
	<linearGradient id="SVGID_17_" gradientUnits="userSpaceOnUse" x1="83.7731" y1="221.9017" x2="427.9919" y2="221.9017">
		<stop  offset="0" style="stop-color:#F9E9B4"/>
		<stop  offset="1.815228e-02" style="stop-color:#F9E8B1"/>
		<stop  offset="0.2401" style="stop-color:#FDD796"/>
		<stop  offset="0.3678" style="stop-color:#FFD28C"/>
		<stop  offset="0.5512" style="stop-color:#FFD793"/>
		<stop  offset="0.9808" style="stop-color:#FFE0A1"/>
	</linearGradient>
	<path class="st16" d="M320.5,157.6l0.2,2.1c60.8,9.8,103.5,32.5,103.5,59.4c0,35.7-75.4,64.7-168.3,64.7S87.6,254.8,87.6,219
		c0-27.7,45.2-51.2,108.7-60.5c-0.1,0-0.2,0-0.3,0v-1.3c-65.5,9.4-112.2,33.9-112.2,62.6c0,36.9,77.1,66.8,172.1,66.8
		S428,256.7,428,219.8C428,191.8,383.3,165.6,320.5,157.6z"/>
</g>
</svg>
