<svg height="512pt" viewBox="-2 0 512 512.0009" width="512pt" xmlns="http://www.w3.org/2000/svg"><path d="m506.109375 1.792969c-1.535156-1.375-3.601563-2.007813-5.640625-1.7265628-7.125.9765628-70.082031 10.1093748-87.4375 29.4570318-11.363281 12.675781-15.160156 29.53125-11.714844 45-.210937.148437-.417968.289062-.628906.433593-.441406.308594-.886719.625-1.328125.9375-.507813.355469-1.015625.710938-1.527344 1.074219-.453125.324219-.914062.65625-1.371093.988281-.507813.363281-1.011719.726563-1.519532 1.101563-.484375.347656-.96875.707031-1.453125 1.066406s-.972656.71875-1.464843 1.085938c-.519532.390624-1.046876.785156-1.574219 1.183593-.445313.335938-.890625.675781-1.339844 1.015625-.589844.449219-1.179687.902344-1.773437 1.363282-.371094.28125-.738282.566406-1.109376.855468-.6875.535156-1.378906 1.078125-2.074218 1.625-.238282.1875-.476563.375-.714844.5625-.84375.664063-1.6875 1.339844-2.539062 2.023438-.023438.019531-.050782.039062-.078126.0625-24.871093 19.96875-53.386718 47.160156-81.734374 78.066406-10.730469-18.519531-16.519532-39.855469-16.304688-61.347656.039062-3.765625.25-7.507813.476562-11.472656.386719-6.855469.785157-13.945313.214844-21.15625-1.140625-14.441407-6.441406-25.652344-15.75-33.324219-10.539062-8.683594-25.78125-12.175781-44.089844-10.089844-52.730468 6.007813-101.757812 28.417969-141.773437 64.808594-3.074219 2.796875-3.300781 7.554687-.507813 10.628906 2.796876 3.074219 7.554688 3.300781 10.628907.503906 37.667969-34.253906 83.78125-55.34375 133.355469-60.992187 9.871093-1.121094 23.574218-.863282 32.820312 6.753906 6.039062 4.976562 9.511719 12.679688 10.320312 22.894531.492188 6.195313.136719 12.476563-.238281 19.125-.226562 3.960938-.457031 8.054688-.496093 12.167969-.347657 34.574219 13.089843 68.800781 36.863281 93.902344 12.769531 13.484375 27.800781 23.695312 45.3125 30.734375 1.054687.789062 2.261719 1.238281 3.503906 1.355469 18.628906 6.914062 39.980469 10.371093 64.3125 10.457031 2.144531.007812 4.308594.007812 6.496094.007812 3.207031.003907 6.460937.003907 9.773437.027344 23.148438.160156 33.539063 14.332031 33.570313 28.3125v.488281c0 61.777344-25.660157 121.660156-70.398438 164.289063-9.617187 9.167969-20.125 17.496093-31.230469 24.761719-52.828124 34.566406-119.355468 44.960937-182.527343 28.523437-62.308594-16.214844-114.539063-57.03125-143.296875-111.980469-10.421875-19.910156-17.738282-41.523437-21.746094-64.242187-5.765625-32.683594-4.03125-65.511719 5.160156-97.574219 8.78125-30.636719 23.847656-58.980469 44.785156-84.242188 2.648438-3.199218 2.207032-7.941406-.992187-10.59375-3.199219-2.648437-7.941406-2.207031-10.59375.992188-22.269531 26.871094-38.304687 57.050781-47.660156 89.699219-9.828125 34.277343-11.683594 69.378906-5.515625 104.332031 4.277344 24.242188 12.09375 47.324219 23.230468 68.605469 30.726563 58.703125 86.433594 102.28125 152.839844 119.5625 20.898438 5.4375 42.144532 8.113281 63.199219 8.113281 46.722656 0 92.496094-13.179688 131.355469-38.605469 11.867187-7.765625 23.09375-16.667969 33.371094-26.460937 47.703124-45.457032 75.0625-109.308594 75.0625-175.179688v-.523437c-.054688-25.3125-20.003907-43.125-48.511719-43.324219-3.34375-.019531-6.632813-.023438-9.867188-.023438-2.171875 0-4.320312-.003906-6.449219-.011718-18.8125-.066406-35.613281-2.292969-50.554687-6.710938 33.929687-39.15625 61.832031-77.554687 77.914063-107.277344 1.855468.207032 3.730468.324219 5.617187.324219.9375 0 1.878906-.027343 2.820313-.078125 13.542968-.734375 25.988281-6.703125 35.042968-16.796875 17.351563-19.351562 19.609375-82.929687 19.808594-90.113281.058594-2.066406-.792969-4.046875-2.328125-5.425781zm-99.523437 146.847656-35.671876-31.992187c12.746094-11.246094 24.851563-20.976563 35.539063-28.574219 2.667969 4.8125 6.15625 9.273437 10.476563 13.152343 4.269531 3.828126 9.0625 6.847657 14.195312 9.011719-6.398438 11.453125-14.738281 24.507813-24.539062 38.402344zm-91.058594 41.382813c-3.007813-3.171876-5.820313-6.515626-8.445313-9.996094 18.042969-19.8125 36.160157-38.105469 53.332031-53.933594l37.921876 34.007812c-13.199219 17.863282-28.523438 36.835938-45.289063 55.964844-14.46875-6.195312-26.921875-14.851562-37.519531-26.042968zm162.652344-102.070313c-6.554688 7.304687-15.558594 11.621094-25.355469 12.152344s-19.214844-2.78125-26.519531-9.332031c-15.078126-13.523438-16.34375-36.792969-2.816407-51.875 9.394531-10.476563 45.257813-19.429688 70.554688-23.648438-1.453125 25.601562-6.46875 62.226562-15.863281 72.703125zm0 0"/><path d="m162.328125 104.015625c-21.855469 0-39.632813 17.777344-39.632813 39.632813 0 21.855468 17.777344 39.636718 39.632813 39.636718s39.636719-17.78125 39.636719-39.636718c0-21.855469-17.78125-39.632813-39.636719-39.632813zm0 64.222656c-13.558594 0-24.589844-11.03125-24.589844-24.589843 0-13.558594 11.03125-24.589844 24.589844-24.589844 13.5625 0 24.589844 11.03125 24.589844 24.589844 0 13.558593-11.03125 24.589843-24.589844 24.589843zm0 0"/><path d="m68.078125 219.15625c0 20.933594 17.03125 37.964844 37.96875 37.964844 20.933594 0 37.964844-17.03125 37.964844-37.964844 0-20.9375-17.03125-37.964844-37.964844-37.964844-20.9375 0-37.96875 17.03125-37.96875 37.964844zm60.886719 0c0 12.636719-10.28125 22.917969-22.921875 22.917969-12.636719 0-22.917969-10.28125-22.917969-22.917969 0-12.640625 10.28125-22.921875 22.917969-22.921875 12.640625 0 22.921875 10.28125 22.921875 22.921875zm0 0"/><path d="m100.671875 289.234375c-20.933594 0-37.964844 17.027344-37.964844 37.964844 0 20.933593 17.03125 37.964843 37.964844 37.964843s37.964844-17.03125 37.964844-37.964843c0-20.9375-17.03125-37.964844-37.964844-37.964844zm0 60.882813c-12.636719 0-22.917969-10.28125-22.917969-22.917969 0-12.640625 10.28125-22.921875 22.917969-22.921875 12.640625 0 22.921875 10.28125 22.921875 22.921875 0 12.636719-10.28125 22.917969-22.921875 22.917969zm0 0"/><path d="m170.214844 446.941406c20.933594 0 37.964844-17.03125 37.964844-37.964844 0-20.9375-17.03125-37.96875-37.964844-37.96875-20.9375 0-37.96875 17.03125-37.96875 37.96875 0 20.933594 17.035156 37.964844 37.96875 37.964844zm0-60.886718c12.636718 0 22.917968 10.28125 22.917968 22.921874 0 12.636719-10.28125 22.921876-22.917968 22.921876-12.640625 0-22.921875-10.285157-22.921875-22.921876 0-12.640624 10.28125-22.921874 22.921875-22.921874zm0 0"/><path d="m250.734375 414.941406c0 20.9375 17.03125 37.96875 37.96875 37.96875 20.933594 0 37.964844-17.03125 37.964844-37.96875 0-20.933594-17.03125-37.964844-37.964844-37.964844-20.9375 0-37.96875 17.03125-37.96875 37.964844zm60.886719 0c0 12.640625-10.28125 22.921875-22.921875 22.921875-12.636719 0-22.917969-10.28125-22.917969-22.921875 0-12.636718 10.28125-22.917968 22.917969-22.917968 12.640625 0 22.921875 10.28125 22.921875 22.917968zm0 0"/><path d="m417.308594 343.25c0-21.851562-17.78125-39.632812-39.636719-39.632812s-39.632813 17.78125-39.632813 39.632812c0 21.855469 17.777344 39.636719 39.632813 39.636719s39.636719-17.78125 39.636719-39.636719zm-64.226563 0c0-13.558594 11.03125-24.589844 24.59375-24.589844 13.558594 0 24.589844 11.03125 24.589844 24.589844 0 13.5625-11.03125 24.59375-24.589844 24.59375-13.5625 0-24.59375-11.03125-24.59375-24.59375zm0 0"/><path d="m322.859375 257.960938c-4.125-.167969-7.652344 3.058593-7.824219 7.207031-1.160156 28.195312-20.160156 53.320312-48.40625 64.003906-18.320312 6.933594-38.027344 6.820313-55.484375-.316406-17.273437-7.058594-30.273437-20.167969-36.609375-36.914063-1.46875-3.882812-5.808594-5.84375-9.695312-4.371094-3.886719 1.46875-5.84375 5.808594-4.375 9.695313 7.828125 20.695313 23.804687 36.859375 44.984375 45.515625 10.695312 4.371094 22.0625 6.558594 33.542969 6.558594 11.058593 0 22.21875-2.03125 32.960937-6.097656 33.894531-12.820313 56.703125-43.222657 58.113281-77.457032.171875-4.148437-3.054687-7.652344-7.207031-7.824218zm0 0"/></svg>