<?xml version="1.0" encoding="utf-8"?>
<!-- Generator: Adobe Illustrator 24.0.2, SVG Export Plug-In . SVG Version: 6.00 Build 0)  -->
<svg version="1.1" id="Capa_1" xmlns="http://www.w3.org/2000/svg" xmlns:xlink="http://www.w3.org/1999/xlink" x="0px" y="0px"
	 viewBox="0 0 512 512" style="enable-background:new 0 0 512 512;" xml:space="preserve">
<style type="text/css">
	.st0{fill:#EDEBED;}
	.st1{fill:#DBD9DC;}
	.st2{fill:#C9C6CA;}
	.st3{fill:#FFE17D;}
	.st4{fill:#FFD164;}
	.st5{fill:#FFC350;}
	.st6{fill:#F8C0CD;}
	.st7{fill:#F4A8BD;}
	.st8{fill:#F48CAC;}
</style>
<g>
	<path class="st0" d="M511.9,139.2l-16.1-64.4c-3.6-14.3-15.3-25-29.9-27.2c-89-13.7-179.5-13.7-268.5,0
		c-14.5,2.2-26.3,13-29.9,27.2l-16.1,64.4c-1.4,5.5,1.3,11.3,6.4,13.8l64.3,32.1v205.1c0,6.7,5.4,12.2,12.2,12.2h194.8
		c6.7,0,12.2-5.5,12.2-12.2v-205l64.3-32.1C510.6,150.5,513.3,144.7,511.9,139.2z"/>
	<g>
		<path class="st1" d="M495.5,74.8l16.1,64.4c1.4,5.5-1.3,11.3-6.4,13.8L441,185.2v-55.6c0-10.5,3.3-20.8,9.5-29.3L483,55.5
			C489,60.4,493.6,67,495.5,74.8z"/>
		<path class="st1" d="M246,41.6L246,41.6c16.9,27.7,43.8,63.1,80.3,84c1.7,1,3.6,1.4,5.4,1.4c1.9,0,3.7-0.5,5.4-1.4
			c36.5-20.8,63.4-56.2,80.3-84l0,0C360.4,36.1,303,36.1,246,41.6z"/>
	</g>
	<path class="st2" d="M326.3,125.6c1.7,1,3.6,1.4,5.4,1.4c1.9,0,3.7-0.5,5.4-1.4c36.5-20.8,63.4-56.2,80.3-84l0,0
		c-12.6-1.2-25.3-2.1-37.9-2.8c-12.1,17.5-28.1,36.7-47.8,50.8c-19.7-14-35.7-33.2-47.8-50.7c-12.7,0.7-25.3,1.5-37.9,2.8l0,0
		C262.9,69.4,289.8,104.8,326.3,125.6z"/>
</g>
<g>
	<path class="st3" d="M436.1,183.9L420,119.5c-3.6-14.3-15.3-25-29.9-27.2c-89-13.7-179.5-13.7-268.5,0c-14.5,2.2-26.3,13-29.9,27.2
		l-16.1,64.4c-1.4,5.5,1.3,11.3,6.4,13.8l64.3,32.1V435c0,6.7,5.4,12.2,12.2,12.2h194.8c6.7,0,12.2-5.5,12.2-12.2V229.9l64.3-32.1
		C434.8,195.2,437.5,189.4,436.1,183.9z"/>
	<g>
		<path class="st4" d="M419.7,119.5l16.1,64.4c1.4,5.5-1.3,11.3-6.4,13.8l-64.3,32.1v-55.6c0-10.5,3.3-20.8,9.5-29.3l32.5-44.8
			C413.2,105.1,417.8,111.7,419.7,119.5z"/>
		<path class="st4" d="M170.2,86.4L170.2,86.4c16.9,27.7,43.8,63.1,80.3,84c1.7,1,3.6,1.4,5.4,1.4c1.9,0,3.7-0.5,5.4-1.4
			c36.5-20.8,63.4-56.2,80.3-84l0,0C284.6,80.8,227.2,80.8,170.2,86.4z"/>
	</g>
	<path class="st5" d="M250.5,170.3c1.7,1,3.6,1.4,5.4,1.4c1.9,0,3.7-0.5,5.4-1.4c36.5-20.8,63.4-56.2,80.3-84l0,0
		c-12.6-1.2-25.3-2.1-37.9-2.8c-12.1,17.5-28.1,36.7-47.8,50.8c-19.7-14.1-35.7-33.3-47.8-50.8c-12.7,0.7-25.3,1.5-37.9,2.8l0,0
		C187.1,114.1,214,149.5,250.5,170.3z"/>
</g>
<g>
	<path class="st6" d="M360.8,232.8l-16.1-64.4c-3.6-14.3-15.3-25-29.9-27.2c-89-13.7-179.5-13.7-268.5,0
		c-14.5,2.2-26.3,13-29.9,27.2l-16,64.4c-1.4,5.5,1.3,11.3,6.4,13.8L71,278.8V484c0,6.7,5.4,12.2,12.2,12.2H278
		c6.7,0,12.2-5.5,12.2-12.2V278.8l64.3-32.1C359.5,244.1,362.2,238.4,360.8,232.8z"/>
	<g>
		<path class="st7" d="M16.5,168.5L0.4,232.8c-1.4,5.5,1.3,11.3,6.4,13.8L71,278.8v-55.6c0-10.5-3.3-20.8-9.5-29.3L29,149.2
			C23,154.1,18.4,160.6,16.5,168.5z"/>
		<path class="st7" d="M344.4,168.5l16.1,64.4c1.4,5.5-1.3,11.3-6.4,13.8l-64.3,32.1v-55.6c0-10.5,3.3-20.8,9.5-29.3l32.5-44.8
			C337.9,154.1,342.5,160.6,344.4,168.5z"/>
	</g>
	<path class="st8" d="M94.9,135.3L94.9,135.3c16.9,27.7,43.8,63.1,80.3,84c1.7,1,3.6,1.4,5.4,1.4c1.9,0,3.7-0.5,5.4-1.4
		c36.5-20.8,63.4-56.2,80.3-84l0,0C209.3,129.8,151.9,129.7,94.9,135.3z"/>
	<g>
		<path class="st7" d="M175.2,219.3c1.7,1,3.6,1.4,5.4,1.4c1.9,0,3.7-0.5,5.4-1.4c36.5-20.8,63.4-56.2,80.3-84l0,0
			c-12.6-1.2-25.3-2.1-37.9-2.8c-12.1,17.5-28.1,36.7-47.8,50.8c-19.7-14.1-35.7-33.3-47.8-50.8c-12.7,0.7-25.3,1.5-37.9,2.8l0,0
			C111.8,163,138.7,198.5,175.2,219.3z"/>
		<path class="st7" d="M103.6,348.1v-22.4c0-19.6-11.5-37.4-29.3-45.4l-3.2-1.5V484c0,6.7,5.5,12.2,12.2,12.2H278
			c6.7,0,12.2-5.4,12.2-12.2v-19.6h-70.3C155.6,464.3,103.6,412.3,103.6,348.1z"/>
	</g>
</g>
</svg>
