<?xml version="1.0" encoding="utf-8"?>
<!-- Generator: Adobe Illustrator 24.0.2, SVG Export Plug-In . SVG Version: 6.00 Build 0)  -->
<svg version="1.1" id="Capa_1" xmlns="http://www.w3.org/2000/svg" xmlns:xlink="http://www.w3.org/1999/xlink" x="0px" y="0px"
	 viewBox="0 0 512 512" style="enable-background:new 0 0 512 512;" xml:space="preserve">
<style type="text/css">
	.st0{fill:#F8C0CD;}
	.st1{fill:#F48CAC;}
	.st2{fill:#F4A8BD;}
	.st3{fill:#9C969E;}
</style>
<path class="st0" d="M484.1,156.4L464,75.9c-4.5-17.9-19.2-31.3-37.4-34.1c-111.4-17.1-224.7-17.1-336.1,0
	C72.3,44.6,57.6,58,53.1,75.9L33,156.4c-1.7,6.9,1.6,14.1,8,17.3l80.5,40.2v256.8c0,8.4,6.8,15.2,15.2,15.2h243.8
	c8.4,0,15.2-6.8,15.2-15.2V214l80.5-40.2C482.5,170.6,485.9,163.4,484.1,156.4z"/>
<path class="st1" d="M151.3,34.4c21.2,34.7,54.8,79,100.5,105.1c2.1,1.2,4.5,1.8,6.8,1.8c2.3,0,4.7-0.6,6.8-1.8
	c45.7-26.1,79.3-70.4,100.5-105.1C294.6,27.4,222.7,27.4,151.3,34.4z"/>
<g>
	<path class="st2" d="M53.1,75.9L33,156.4c-1.7,6.9,1.6,14.1,8,17.3l80.5,40.2v-45.7c0-11.4-3.2-22.6-9.3-32.3L62.9,57.2
		C58.3,62.5,54.9,68.8,53.1,75.9z"/>
	<path class="st2" d="M464,75.9l20.1,80.6c1.7,6.9-1.6,14.1-8,17.3L395.7,214v-45.7c0-11.4,3.2-22.6,9.3-32.3l49.3-78.8
		C458.8,62.5,462.2,68.8,464,75.9z"/>
	<path class="st2" d="M151.9,333.7v-86.5c0-12.2-7.3-23.2-18.5-28l-12-5.1v256.8c0,8.4,6.8,15.2,15.2,15.2h243.8
		c8.4,0,15.2-6.8,15.2-15.2v-15.2H273.8C206.5,455.5,151.9,401,151.9,333.7z"/>
	<path class="st2" d="M331.4,31.7c-17.3,25.9-41.8,56-72.8,76.2c-31-20.2-55.6-50.3-72.8-76.2c-11.5,0.8-23,1.5-34.5,2.6
		c21.2,34.7,54.8,79,100.5,105.1c2.1,1.2,4.5,1.8,6.8,1.8s4.7-0.6,6.8-1.8c45.7-26.1,79.3-70.4,100.5-105.1
		C354.4,33.3,342.9,32.5,331.4,31.7z"/>
</g>
<path class="st3" d="M455.1,47.2v344.2c0,4.7,3.8,8.5,8.5,8.5s8.5-3.8,8.5-8.5V47.2c1.8,1.8,3.7,2.9,6.4,2.9c7.5,0,11.4-9.2,6-14.6
	c-0.5-0.5-15-15.1-15.6-15.5c-1.7-1.4-4-2.1-6.2-1.9c-3.9,0.4-4.2,1.4-20.1,17.4c-3.3,3.3-3.3,8.7,0,12.1
	C445.7,50.6,451,51.3,455.1,47.2z"/>
<path class="st3" d="M457.6,450.8c3.3,3.3,8.7,3.3,12.1,0l14.9-14.9c3.3-3.3,3.3-8.7,0-12.1c-3.3-3.3-8.7-3.3-12.1,0l-8.9,8.9
	l-8.9-8.9c-3.3-3.3-8.7-3.3-12.1,0c-3.3,3.3-3.3,8.7,0,12.1L457.6,450.8z"/>
<path class="st3" d="M496.7,483.5c-0.8-2.6-0.8-2.2-17.1-18.5c-3.3-3.3-8.7-3.3-12.1,0c-3,3-3.7,8.3,0.4,12.4H76.8
	c-4.7,0-8.5,3.8-8.5,8.5s3.8,8.5,8.5,8.5h391.1c-4,4-3.5,9.3-0.4,12.4c3.3,3.3,8.7,3.3,12.1,0c9.9-9.9,15.1-15,15.7-15.8
	C497,488.9,497.5,486.1,496.7,483.5L496.7,483.5z"/>
<path class="st3" d="M44.4,465c-3.3-3.3-8.7-3.3-12.1,0l-14.9,15c-3.3,3.3-3.3,8.7,0,12.1l15,14.9c1.7,1.7,3.8,2.5,6,2.5
	c7.5,0,11.4-9.2,6-14.6l-8.9-8.9l8.9-8.9C47.8,473.8,47.8,468.4,44.4,465z"/>
</svg>
