<?xml version="1.0" encoding="utf-8"?>
<!-- Generator: Adobe Illustrator 24.0.2, SVG Export Plug-In . SVG Version: 6.00 Build 0)  -->
<svg version="1.1" id="Layer_1" xmlns="http://www.w3.org/2000/svg" xmlns:xlink="http://www.w3.org/1999/xlink" x="0px" y="0px"
	 viewBox="0 0 500 500" style="enable-background:new 0 0 500 500;" xml:space="preserve">
<style type="text/css">
	.st0{fill:#662609;}
	.st1{fill:#3A1608;}
	.st2{opacity:0.32;fill:#38170B;}
	.st3{fill:#EDB183;}
	.st4{fill:#230E07;}
	.st5{opacity:0.23;fill:#230E07;}
	.st6{opacity:0.21;fill:#301C0A;}
	.st7{opacity:0.95;fill:#FFCA9F;}
	.st8{fill:#4C3929;}
	.st9{fill:#FFCDC0;}
</style>
<g>
	<path class="st0" d="M383.3,412c-6.5,19.3-22.8,32-40.9,32H162.8c-18.3,0-34.7-13-41.1-32.5c-0.5-1.5-1-3-1.5-4.6
		C104.4,357.7,79.7,271.1,83,218h341C427,273.1,399.5,363.9,383.3,412z"/>
	<g>
		<path class="st1" d="M180.8,218H83c-3,49.2,17.9,126.9,33.5,177.2c6.1-50.6,21-109.6,30.8-145.2C152.6,230.7,165.9,218,180.8,218z
			"/>
		<polygon class="st0" points="162.8,444 342.4,444 342.4,444 162.8,444 		"/>
		<path class="st1" d="M361.2,250.5c0.4,1.5,0.8,3,1.2,4.6c9.2,34.9,22,88.6,27.7,135.8c16-50.3,36.5-125.1,33.8-173h-96.4
			C342.6,218,356,230.9,361.2,250.5z"/>
		<polygon class="st0" points="327.6,218 180.8,218 180.8,218 327.6,218 		"/>
	</g>
	<path class="st2" d="M383.3,412c-6.5,19.3-22.8,32-40.9,32H162.8c-18.3,0-34.7-13-41.1-32.5c-0.5-1.5-1-3-1.5-4.6
		c53.8-5.4,109.2-13.9,153.2-27.2C357,354.4,398.8,274.2,418.8,218h5.2C427,273.1,399.5,363.9,383.3,412z"/>
	<path class="st3" d="M212.4,180.4v20.6h-17.1v-20.6H212.4L212.4,180.4z M217.2,176.2h-26.8v28.9h26.8V176.2L217.2,176.2z"/>
	<path class="st1" d="M211.4,235.1l1.3-36.7h-17.6l1.3,36.3c-2.3,3.9-3.7,9.6-3.7,15.9c0,11.8,5,21.4,11.1,21.4
		c6.1,0,11.1-9.6,11.1-21.4C214.9,244.6,213.5,239,211.4,235.1z"/>
	<path class="st3" d="M311.7,180.4v20.6h-17.1v-20.6H311.7L311.7,180.4z M316.5,176.2h-26.8v28.9h26.8V176.2L316.5,176.2z"/>
	<path class="st1" d="M310.7,235.1l1.3-36.7h-17.6l1.3,36.3c-2.3,3.9-3.7,9.6-3.7,15.9c0,11.8,5,21.4,11.1,21.4
		c6.1,0,11.1-9.6,11.1-21.4C314.2,244.6,312.8,239,310.7,235.1z"/>
	<path class="st1" d="M310.2,166.3c-1.5-18.4-4.3-36.7-8.3-54.9c-3.3-14.6-7.4-29.1-14.9-42.7c-7.2-13.1-17.6-23.7-32.7-23.9
		c-15.1,0.3-25.4,10.9-32.7,23.9c-7.5,13.5-11.6,28.1-14.9,42.7c-4.1,18.1-6.8,36.5-8.3,54.9c0,0,0,0,0,0.1c2.5,0.2,5,0.3,7.5,0.5
		c1.7-17.5,4.7-34.8,9.1-52c4-15.8,8.3-31.9,17.8-46.3c4.3-6.5,11.7-14.8,21.4-15.1c9.7,0.3,17.1,8.6,21.4,15.1
		c9.5,14.4,13.8,30.5,17.8,46.3c4.4,17.2,7.4,34.5,9.1,52C305.2,166.7,307.7,166.5,310.2,166.3C310.2,166.3,310.2,166.3,310.2,166.3
		z"/>
	<polygon class="st1" points="212.4,183 195.3,183 197.2,145.9 211,145.9 	"/>
	<polygon class="st1" points="311.7,183 294.6,183 296.5,145.9 310.3,145.9 	"/>
	<rect x="190.4" y="229.3" class="st4" width="24.5" height="4.6"/>
	<path class="st5" d="M194.1,349.4l0.5-119.2l-1.1,0L189,349.4c-8.2,2-14.5,13.9-14.5,28.3c0,15.8,7.6,28.6,17,28.6
		c9.4,0,17-12.8,17-28.6C208.5,363.4,202.3,351.5,194.1,349.4z"/>
	<path class="st4" d="M192.9,347.6l0.4-117.4l-1.1,0l-4.2,117.4c-7.7,2-13.6,13.7-13.6,27.9c0,15.6,7.1,28.2,15.9,28.2
		c8.8,0,15.9-12.6,15.9-28.2C206.3,361.3,200.5,349.7,192.9,347.6z"/>
	<g>
		<path class="st6" d="M207.4,212.6c0,2-1.6,3.6-3.6,3.6c-2,0-3.6-1.6-3.6-3.6c0-2,1.6-3.6,3.6-3.6
			C205.8,209,207.4,210.6,207.4,212.6z"/>
		<path class="st7" d="M206.6,212.6c0,1.6-1.3,2.8-2.8,2.8c-1.6,0-2.8-1.3-2.8-2.8c0-1.6,1.3-2.8,2.8-2.8
			C205.4,209.8,206.6,211,206.6,212.6z"/>
		<path class="st8" d="M201.7,212.6c0.2-0.2,0.4-0.3,0.5-0.5c0.2,0,0.4,0,0.5,0h1.1h1.1h0.5c0.2,0.1,0.4,0.3,0.5,0.5
			c-0.2,0.2-0.4,0.3-0.5,0.5h-0.5h-1.1h-1.1c-0.2,0-0.4,0-0.5,0C202.1,212.9,201.9,212.8,201.7,212.6z"/>
	</g>
	<g>
		<path class="st6" d="M307.6,213.1c0,2-1.6,3.6-3.6,3.6c-2,0-3.6-1.6-3.6-3.6c0-2,1.6-3.6,3.6-3.6
			C305.9,209.5,307.6,211.1,307.6,213.1z"/>
		<path class="st7" d="M306.8,213.1c0,1.6-1.3,2.8-2.8,2.8c-1.6,0-2.8-1.3-2.8-2.8c0-1.6,1.3-2.8,2.8-2.8
			C305.5,210.3,306.8,211.5,306.8,213.1z"/>
		<path class="st8" d="M301.8,213.1c0.2-0.2,0.4-0.3,0.5-0.5c0.2,0,0.4,0,0.5,0h1.1h1.1h0.5c0.2,0.1,0.4,0.3,0.5,0.5
			c-0.2,0.2-0.4,0.3-0.5,0.5H305h-1.1h-1.1c-0.2,0-0.4,0-0.5,0C302.2,213.4,302,213.3,301.8,213.1z"/>
	</g>
	<path class="st9" d="M190.4,399.7h-0.1c-0.2,0-0.4-0.2-0.4-0.4c0-0.2,0.2-0.4,0.4-0.4h0.1c1.1,0,2.3-0.4,3.4-1.3
		c0.2-0.1,0.4-0.1,0.6,0.1c0.1,0.2,0.1,0.4-0.1,0.6C193,399.2,191.7,399.7,190.4,399.7z M186.6,398.2c-0.1,0-0.2,0-0.3-0.1
		c-1-0.8-1.9-1.9-2.7-3.2c-0.1-0.2-0.1-0.4,0.1-0.6c0.2-0.1,0.4-0.1,0.6,0.1c0.8,1.3,1.6,2.3,2.5,3c0.2,0.1,0.2,0.4,0.1,0.6
		C186.8,398.1,186.7,398.2,186.6,398.2z M196.7,395.3c-0.1,0-0.1,0-0.2-0.1c-0.2-0.1-0.2-0.4-0.1-0.6c0.7-1,1.3-2.2,1.8-3.6
		c0.1-0.2,0.3-0.3,0.5-0.2c0.2,0.1,0.3,0.3,0.2,0.5c-0.6,1.4-1.2,2.6-1.9,3.7C196.9,395.2,196.8,395.3,196.7,395.3z M182.2,391.4
		c-0.2,0-0.3-0.1-0.4-0.3c-0.5-1.2-0.9-2.5-1.3-3.9c-0.1-0.2,0.1-0.4,0.3-0.5c0.2-0.1,0.4,0.1,0.5,0.3c0.3,1.4,0.8,2.6,1.2,3.8
		c0.1,0.2,0,0.4-0.2,0.5C182.3,391.4,182.3,391.4,182.2,391.4z M199.8,387.8c0,0-0.1,0-0.1,0c-0.2-0.1-0.3-0.3-0.3-0.5
		c0.3-1.3,0.6-2.6,0.8-3.9c0-0.2,0.2-0.4,0.5-0.3c0.2,0,0.4,0.2,0.3,0.5c-0.2,1.4-0.5,2.7-0.8,4
		C200.1,387.7,199.9,387.8,199.8,387.8z M180.2,383.6c-0.2,0-0.4-0.1-0.4-0.3c-0.2-1.3-0.4-2.7-0.5-4.1c0-0.2,0.2-0.4,0.4-0.4
		c0.2,0,0.4,0.2,0.4,0.4c0.1,1.4,0.3,2.7,0.5,4C180.6,383.3,180.5,383.5,180.2,383.6C180.2,383.6,180.2,383.6,180.2,383.6z
		 M201.1,379.8C201.1,379.8,201.1,379.8,201.1,379.8c-0.3,0-0.4-0.2-0.4-0.4c0.1-1.3,0.2-2.7,0.2-4c0-0.2,0.2-0.4,0.4-0.4
		c0.2,0,0.4,0.2,0.4,0.4c0,1.4-0.1,2.7-0.2,4.1C201.5,379.6,201.3,379.8,201.1,379.8z M179.6,375.5L179.6,375.5
		c-0.2,0-0.4-0.2-0.4-0.4c0-1.4,0.1-2.8,0.2-4.1c0-0.2,0.2-0.4,0.4-0.4c0.2,0,0.4,0.2,0.4,0.4c-0.1,1.3-0.2,2.7-0.2,4
		C180,375.3,179.8,375.5,179.6,375.5z M201.1,372.1c-0.2,0-0.4-0.2-0.4-0.4c-0.1-1.4-0.2-2.7-0.4-4c0-0.2,0.1-0.4,0.3-0.5
		c0.2,0,0.4,0.1,0.5,0.3c0.2,1.3,0.4,2.7,0.4,4.1C201.5,371.9,201.4,372.1,201.1,372.1C201.1,372.1,201.1,372.1,201.1,372.1z
		 M180.2,367.4C180.2,367.4,180.2,367.4,180.2,367.4c-0.3,0-0.4-0.3-0.4-0.5c0.2-1.4,0.5-2.7,0.9-4c0.1-0.2,0.3-0.3,0.5-0.3
		c0.2,0.1,0.3,0.3,0.3,0.5c-0.3,1.3-0.6,2.6-0.9,3.9C180.6,367.2,180.4,367.4,180.2,367.4z M199.9,364.1c-0.2,0-0.3-0.1-0.4-0.3
		c-0.3-1.4-0.7-2.6-1.2-3.8c-0.1-0.2,0-0.4,0.2-0.5c0.2-0.1,0.4,0,0.5,0.2c0.5,1.2,0.9,2.5,1.2,3.9
		C200.3,363.8,200.2,364,199.9,364.1C199.9,364.1,199.9,364.1,199.9,364.1z M182.4,359.5c-0.1,0-0.1,0-0.2,0
		c-0.2-0.1-0.3-0.3-0.2-0.5c0.6-1.4,1.2-2.6,1.9-3.7c0.1-0.2,0.4-0.2,0.6-0.1c0.2,0.1,0.2,0.4,0.1,0.6c-0.7,1-1.3,2.2-1.8,3.5
		C182.7,359.4,182.6,359.5,182.4,359.5z M196.9,356.5c-0.1,0-0.3-0.1-0.3-0.2c-0.8-1.3-1.6-2.3-2.5-3.1c-0.2-0.1-0.2-0.4,0-0.6
		c0.1-0.2,0.4-0.2,0.6,0c0.9,0.8,1.8,1.9,2.6,3.3c0.1,0.2,0.1,0.4-0.1,0.6C197.1,356.5,197,356.5,196.9,356.5z M187,352.9
		c-0.1,0-0.2-0.1-0.3-0.2c-0.1-0.2-0.1-0.4,0.1-0.6c1.3-1,2.7-1.4,4.1-1.3c0.2,0,0.4,0.2,0.4,0.4c0,0.2-0.2,0.4-0.4,0.4
		c-1.2-0.1-2.4,0.3-3.5,1.1C187.2,352.9,187.1,352.9,187,352.9z"/>
</g>
</svg>
