<?xml version="1.0" encoding="utf-8"?>
<!-- Generator: Adobe Illustrator 24.0.2, SVG Export Plug-In . SVG Version: 6.00 Build 0)  -->
<svg version="1.1" id="Layer_1" xmlns="http://www.w3.org/2000/svg" xmlns:xlink="http://www.w3.org/1999/xlink" x="0px" y="0px"
	 viewBox="0 0 500 500" style="enable-background:new 0 0 500 500;" xml:space="preserve">
<style type="text/css">
	.st0{fill:#CCCCCC;}
	.st1{fill:#2D2A2F;}
	.st2{fill:#201D21;}
	.st3{fill:#48434B;}
	.st4{fill:#CDC4CC;}
	.st5{fill:#DF1D42;}
	.st6{fill:#F04953;}
	.st7{fill:#6F8A72;}
	.st8{fill:#AD1E34;}
	.st9{fill:#D9B295;}
</style>
<g>
	<g>
		<path class="st0" d="M256.6,115c0.3-0.7,0.6-1.5,0.9-2.3C257.3,113.5,257,114.2,256.6,115C256.6,115,256.6,115,256.6,115z"/>
	</g>
	<g>
		<path class="st1" d="M329.8,449c0,3.7-9.3,7-24.1,9.3l-0.4-13.5l-2-68.9l-8.8,69l-1.9,15c-10.6,1-22.8,1.6-35.8,1.6
			c-40.3,0-73-5.6-73-12.6c-8.2-89.7-28.9-147.2,6.6-224.5h132.9C358.8,301.9,338.1,359.3,329.8,449z"/>
		<path class="st2" d="M303.4,243.4c0,4.3-3.5,7.8-7.8,7.8H218c-4.3,0-7.8-3.5-7.8-7.8l0,0c0-4.3,3.5-7.8,7.8-7.8h77.6
			C299.9,235.6,303.4,239.1,303.4,243.4L303.4,243.4z"/>
		<path class="st3" d="M256.8,235.6v15.5H218c-4.3,0-7.8-3.5-7.8-7.8c0-2.1,0.9-4.1,2.3-5.5c1.4-1.4,3.3-2.3,5.5-2.3H256.8z"/>
		<path class="st4" d="M263.6,232.9h-19.1c-2.7,0-5.1,1-6.9,2.6h26c4.3,0,7.8,3.5,7.8,7.8c0,4.3-3.5,7.8-7.8,7.8h-26
			c1.8,1.6,4.3,2.6,6.9,2.6h19.1c5.8,0,10.5-4.7,10.5-10.5C274,237.6,269.4,232.9,263.6,232.9z"/>
		<path class="st4" d="M267.5,243.4c0,0.9-0.7,1.6-1.6,1.6h-10.7c-0.9,0-1.6-0.7-1.6-1.6l0,0c0-0.9,0.7-1.6,1.6-1.6H266
			C266.8,241.8,267.5,242.5,267.5,243.4L267.5,243.4z"/>
	</g>
	<path class="st5" d="M146.8,67.7l-19,96.3c0,0-3,9-0.9,13.7c2,4.4,6.6,9.9,6.6,9.9l40.1-10.8l0.6-14l9.1-63.2l2.5-14.5L146.8,67.7z
		"/>
	<polygon class="st6" points="176.7,174.8 176.4,187.6 124.3,187.4 124.4,167.9 	"/>
	<path class="st5" d="M366.4,67.7l14.4,96.3c0,0,0.6,6.7,0.1,12.9c-0.4,4.9-0.4,4.9-0.4,4.9l-43.4-7l-1.3-13.2l-6-61.9l-2.5-14.5
		L366.4,67.7z"/>
	<polygon class="st6" points="333.6,181.7 332.9,169.9 384.5,166.2 384.1,186.9 	"/>
	<path class="st5" d="M364.3,77.4c-7.8,2.3-26.3,6.5-33.7,9c2,9,3.5,26.3-6.9,53.5c-9.5,25.2-9.2,50.6-5.3,64.2
		c0.5,2,1.1,3.8,1.4,5.3c0.7,3,2.6,6.7,5.1,11.4c2.3,4.3,5,9.5,7.5,15.7c0.7,1.8,1.4,3.8,2.1,5.8c-7.6,5.2-39.6,9-78,9
		c-38.4,0-70.4-3.9-78-9c0.7-2,1.4-4,2.2-5.8c2.5-6.2,5.2-11.4,7.5-15.7c2.4-4.7,4.4-8.4,5.1-11.4c0.3-1.5,0.8-3.2,1.4-5.3
		c3.9-13.5,5.2-35.6-5.3-64.2c-9.2-25-8-44.3-6.1-53.3c-8.3-2.8-28.2-8.4-35.2-10.9c-2.9-1.1-2.1-4.1-1.7-6.4c2-10.8,6-14.7,14-22.6
		l1.3-1.3c3.3-3.3,34.6-12.2,51.2-16.7l-17.6,31.3l25.3-7.7l24.8,35.4l12.2,17.4l12.2-17.4l24.8-35.4l22.9,6.9l2.4,0.7l-17.5-31.2
		c16.4,4.5,45.5,13.2,48.9,16.6l1.3,1.3c8,7.9,11.6,11.9,14.1,22.6C368.1,75.4,366.9,76.7,364.3,77.4z"/>
	<path class="st7" d="M219.2,27.1l-24,33l17.6-31.3C215.3,28.1,217.5,27.5,219.2,27.1z"/>
	<polygon class="st7" points="250.3,87.8 257.6,105.3 245.4,87.8 	"/>
	<polygon class="st7" points="269.8,87.8 257.6,105.3 265,87.8 	"/>
	<path class="st7" d="M320,60.1l-2.4-0.7l-21.8-32.3c1.8,0.5,4,1.1,6.6,1.8L320,60.1z"/>
	<polygon class="st6" points="257.6,105.3 245.4,87.8 220.6,52.4 195.2,60.1 212.8,28.8 218,19.6 221.1,18.7 250.3,87.8 	"/>
	<polygon class="st6" points="320,60.1 317.6,59.4 294.7,52.4 269.8,87.8 257.6,105.3 265,87.8 294.1,18.7 297.3,19.6 302.5,28.9 	
		"/>
	<polygon class="st8" points="221.1,18.7 232.4,17.2 233.8,18.5 233.3,27.4 225.5,29.2 	"/>
	<polygon class="st8" points="282.1,28 281.4,19.2 283.2,17.5 294.1,18.7 289.5,29.7 	"/>
	<polygon class="st9" points="195.2,60.1 218.4,60.1 257.6,105.3 220.6,52.4 	"/>
	<polygon class="st9" points="320,60.1 298.3,60.1 257.6,105.3 294.7,52.4 	"/>
</g>
</svg>
