<?xml version="1.0" encoding="utf-8"?>
<!-- Generator: Adobe Illustrator 24.0.2, SVG Export Plug-In . SVG Version: 6.00 Build 0)  -->
<svg version="1.1" id="Layer_1" xmlns="http://www.w3.org/2000/svg" xmlns:xlink="http://www.w3.org/1999/xlink" x="0px" y="0px"
	 viewBox="0 0 500 500" style="enable-background:new 0 0 500 500;" xml:space="preserve">
<style type="text/css">
	.st0{fill:#613A3E;}
	.st1{fill:#987F41;}
	.st2{fill:#CCA858;}
	.st3{fill:#C08B62;}
	.st4{fill:#7F4025;}
	.st5{fill:#984C2C;}
	.st6{fill:#F3CFAB;}
	.st7{fill:#E6CB91;}
</style>
<g>
	<path class="st0" d="M357.6,239.3c0,0,1.3,15.4,4,46.5c2.6,31.1-1.3,91-1.3,91l9.3,5.8L399,209.5L357.6,239.3z"/>
	<path class="st1" d="M369.5,382.7h11.7c0,0,3.6-51.8,20-118c16.4-66.2,20.6-70.1,20.6-70.1l-24.5,10.7c0,0-20.4,72.1-23.1,110.9
		C371.5,355.1,369.5,382.7,369.5,382.7z"/>
	<path class="st1" d="M89.2,396l-1.9-16.7l231.3-5.6l-4.6,19.5c0,0-42,14.8-121.8,11.2C112.5,400.8,89.2,396,89.2,396z"/>
	<path class="st2" d="M421.8,194.6c0,0-51.8,56.3-73.9,96.5c-22.1,40.2-29.6,85.8-29.6,85.8s-70,16.1-134.9,11.6
		c-64.8-4.6-96.1-9.2-96.1-9.2l0.7-9.7c1-14.2,8.2-25.1,24.5-33.7l55-33.7c0,0,0,0,0,0c0.3,0.2,2.3,1.9,5.9,3.4
		c6.5,2.8,18.2,5.1,34.1-2.4c25.4-11.9,40-53.5,84.1-121.5c44.2-68.1,94.3-88.2,94.3-88.2s0.8,0.9,2.2,2.6
		c3.9,4.7,10.3,15.7,21.4,33.2C434.4,168.7,421.8,194.6,421.8,194.6z"/>
	<path class="st3" d="M385.9,93.5c0,0-26.1,53.2-39.3,86.8c-6.6,16.8-12.8,34.5-16.6,49.6c-11.3,45.5-15.8,87.7-51.1,103.4
		c-12.9,5.7-31.3,3.1-49.4-2.5c-23.1-7.2-45.8-19.2-56.2-25.1c6.5,2.8,18.2,5.1,34.1-2.4c25.4-11.9,40-53.5,84.1-121.5
		C335.8,113.7,385.9,93.5,385.9,93.5S384.4,91.8,385.9,93.5z"/>
	<polygon class="st4" points="360.2,387.8 360.3,376.8 369.5,382.7 368.7,393.9 	"/>
	<polygon class="st5" points="380.3,393.9 381.2,382.7 369.5,382.7 368.7,393.9 	"/>
	<path class="st6" d="M346.6,180.3c-6.6,16.8-12.8,34.5-16.6,49.6c-11.3,45.5-15.8,87.7-51.1,103.4c-12.9,5.7-31.3,3.1-49.4-2.5
		c44.5-17.9,56.6-79.1,77.3-108.8C322.6,199.3,336,187,346.6,180.3z"/>
	<path class="st7" d="M118,362.9c-6.6-3.6-2.2-13.6,5-11.2c9.4,3.2,22.3,6.3,39.5,8c47.5,4.6,93.6,6.5,93.6,6.5
		s-32.4,17.3-100.1,7.8C138.4,371.5,126.3,367.4,118,362.9z"/>
	<path class="st7" d="M393.3,112.7c0,0,14,19.1,19.7,41.2c5.7,22.1-6.1,43-6.1,43s-0.8-23.6-4-41.9
		C399.7,136.7,393.3,112.7,393.3,112.7z"/>
</g>
</svg>
