<?xml version="1.0" encoding="utf-8"?>
<!-- Generator: Adobe Illustrator 24.0.2, SVG Export Plug-In . SVG Version: 6.00 Build 0)  -->
<svg version="1.1" id="Capa_1" xmlns="http://www.w3.org/2000/svg" xmlns:xlink="http://www.w3.org/1999/xlink" x="0px" y="0px"
	 viewBox="0 0 512 512" style="enable-background:new 0 0 512 512;" xml:space="preserve">
<style type="text/css">
	.st0{fill:#FFD164;}
	.st1{fill:#FF8087;}
	.st2{fill:#FFC350;}
</style>
<path class="st0" d="M274.4,36.2l87.6,169c2.2,4.2,5.8,7,10,8.2c-1.2,1.3-2.6,2.4-4.2,3.3c-8.1,4.2-18.1,1-22.3-7.1l-87.6-169
	c-4.2-8.1-1-18.1,7.1-22.3v0c3.9-2,8.3-2.3,12.3-1.2C272.4,22.2,271,29.8,274.4,36.2z"/>
<g>
	<path class="st1" d="M121.3,189.9H24.8c-4.6,0-8.3,3.7-8.3,8.3c0,4.6,3.7,8.3,8.3,8.3h90.1c2.3,0,3.9-1.9,3.9-4.2
		C118.9,198.1,119.7,193.9,121.3,189.9z"/>
	<path class="st1" d="M322.1,200.4l-5.4-10.5H195.3l-5.4,10.5c-1.4,2.7,0.6,6,3.7,6h124.9C321.6,206.5,323.5,203.2,322.1,200.4z"/>
	<path class="st1" d="M487.2,189.9h-96.5c1.6,4,2.3,8.2,2.3,12.4c0,2.3,2,4.1,4.4,4.1h89.8c4.6,0,8.3-3.7,8.3-8.3
		C495.5,193.6,491.8,189.9,487.2,189.9z"/>
</g>
<g>
	<g>
		<path class="st0" d="M255.8,419.8l-117.7,74c-25.9,16.4-58.5-7.3-51-37.1l34-135L14.3,232.6c-23.5-19.7-11.1-58,19.5-60.1
			l138.8-9.4l51.9-129c11.5-28.4,51.7-28.4,63,0l51.9,129l138.8,9.4c30.7,2.1,43,40.4,19.5,60.1L391,321.8l34,135
			c7.5,29.8-25.1,53.5-51,37.1L255.8,419.8z"/>
	</g>
	<path class="st2" d="M409.6,396.7c-148-5.9-274.1-97.9-329.1-227.3l-46.8,3.1c-30.7,2.1-43,40.4-19.5,60.1l106.8,89.2l-34,135
		c-7.5,29.8,25.1,53.5,51,37.1l117.7-74l117.7,74c25.9,16.4,58.5-7.3,51-37.1L409.6,396.7z"/>
</g>
</svg>
