<?xml version="1.0" encoding="utf-8"?>
<!-- Generator: Adobe Illustrator 24.0.2, SVG Export Plug-In . SVG Version: 6.00 Build 0)  -->
<svg version="1.1" id="Capa_1" xmlns="http://www.w3.org/2000/svg" xmlns:xlink="http://www.w3.org/1999/xlink" x="0px" y="0px"
	 viewBox="0 0 512 512" style="enable-background:new 0 0 512 512;" xml:space="preserve">
<style type="text/css">
	.st0{fill:#FFF7E8;}
	.st1{fill:#F8C0CD;}
	.st2{fill:#F4A8BD;}
	.st3{fill:#FFFFFF;}
</style>
<g>
	<path class="st0" d="M388.5,480.1h-266c-20.3,0-36.7-16.4-36.7-36.7V205L255.5,67.3L425.2,205v238.5
		C425.2,463.7,408.7,480.1,388.5,480.1L388.5,480.1z"/>
	<path class="st1" d="M454.8,240.8c-6.1,0-12.2-2-17.3-6.2L255.5,87l-182,147.7c-11.8,9.6-29.1,7.8-38.7-4
		c-9.6-11.8-7.8-29.1,4-38.7L238.1,30.2c10.1-8.2,24.6-8.2,34.7,0l199.4,161.7c11.8,9.6,13.6,26.9,4,38.7
		C470.8,237.3,462.8,240.8,454.8,240.8L454.8,240.8z"/>
	<g>
		<path class="st2" d="M218.8,87l-181,146.8c9.9,8.9,25,9.5,35.7,0.8L255.5,87C244.8,78.3,229.4,78.3,218.8,87z"/>
		<path class="st2" d="M472.2,191.9L272.8,30.2c-10.1-8.2-24.6-8.2-34.7,0l-1,0.8l198.4,160.9c11.8,9.6,13.6,26.9,4,38.7
			c-0.9,1.2-2,2.2-3.1,3.2l1,0.8c5.1,4.1,11.2,6.2,17.3,6.2c8,0,16-3.5,21.4-10.2C485.8,218.8,484,201.5,472.2,191.9z"/>
	</g>
	<g>
		<circle class="st2" cx="255.5" cy="310" r="94.2"/>
		<circle class="st3" cx="255.5" cy="310" r="57.5"/>
		<path class="st1" d="M255.5,252.5c-6.4,0-12.6,1.1-18.4,3c22.8,7.7,39.2,29.2,39.2,54.5s-16.4,46.8-39.2,54.5
			c5.8,1.9,11.9,3,18.4,3c31.8,0,57.5-25.7,57.5-57.5S287.2,252.5,255.5,252.5z"/>
	</g>
</g>
</svg>
