<?xml version="1.0" encoding="utf-8"?>
<!-- Generator: Adobe Illustrator 24.0.2, SVG Export Plug-In . SVG Version: 6.00 Build 0)  -->
<svg version="1.1" id="Layer_1" xmlns="http://www.w3.org/2000/svg" xmlns:xlink="http://www.w3.org/1999/xlink" x="0px" y="0px"
	 viewBox="0 0 500 500" style="enable-background:new 0 0 500 500;" xml:space="preserve">
<style type="text/css">
	.st0{fill:#F38C8B;}
	.st1{opacity:0.5;fill:#FFFFFF;}
	.st2{clip-path:url(#SVGID_2_);}
	.st3{fill:#FFFFFF;}
</style>
<g>
	<path class="st0" d="M366.6,340c-6.6-24.6,4.7-110.1,4.7-110.1c0.9-16,2.2-32.9,3.6-48.5c3.6-48.4-32.7-73.9-32.7-73.9l3.3-71.4
		c0-11.4,0.8-19.2,0.8-19.2l-11-2.2c0,0,0.6,3.7-0.2,20.8c-0.8,17.2-5.3,69.7-5.3,69.7c-67.7,34.1-80.8,34.1-148.5,0
		c0,0-4.5-52.6-5.3-69.7c-0.8-17.1-0.2-20.8-0.2-20.8L165,17c0,0,0.8,7.8,0.8,19.2l3.3,71.4c0,0-36.3,25.4-32.7,73.9
		c1.4,15.5,2.7,32.5,3.6,48.5c0,0,11.3,85.4,4.7,110.1c-6.6,24.6-17.6,58.7-17.6,58.7s72.6,26.1,95.7,66.6l10.6,18.7
		c0,0,9,3.6,18.8,4.5c0,0,2.3,0.2,3.5,0.2c1.2,0,3.4-0.2,3.4-0.2c9.8-0.9,18.8-4.5,18.8-4.5l10.6-18.7
		c23.2-40.5,95.7-66.6,95.7-66.6S373.2,364.6,366.6,340z"/>
	<path class="st1" d="M253.6,177.1c0,0-8.9-51.1-76.7-57.7C176.9,119.5,217.6,127.9,253.6,177.1z"/>
	<path class="st1" d="M258.6,177.1c0,0,6.9-39.6,59.4-44.7C318,132.4,286.5,139,258.6,177.1z"/>
	<g>
		<defs>
			<path id="SVGID_1_" d="M366.6,340c-6.6-24.6,4.7-110.1,4.7-110.1c0.9-16,2.2-32.9,3.6-48.5c3.6-48.4-32.7-73.9-32.7-73.9
				l3.3-71.4c0-11.4,0.8-19.2,0.8-19.2l-11-2.2c0,0,0.6,3.7-0.2,20.8c-0.8,17.2-5.3,69.7-5.3,69.7c-67.7,34.1-80.8,34.1-148.5,0
				c0,0-4.5-52.6-5.3-69.7c-0.8-17.1-0.2-20.8-0.2-20.8L165,17c0,0,0.8,7.8,0.8,19.2l3.3,71.4c0,0-36.3,25.4-32.7,73.9
				c1.4,15.5,2.7,32.5,3.6,48.5c0,0,11.3,85.4,4.7,110.1c-6.6,24.6-17.6,58.7-17.6,58.7s72.6,26.1,95.7,66.6l10.6,18.7
				c0,0,9,3.6,18.8,4.5c0,0,2.3,0.2,3.5,0.2c1.2,0,3.4-0.2,3.4-0.2c9.8-0.9,18.8-4.5,18.8-4.5l10.6-18.7
				c23.2-40.5,95.7-66.6,95.7-66.6S373.2,364.6,366.6,340z"/>
		</defs>
		<clipPath id="SVGID_2_">
			<use xlink:href="#SVGID_1_"  style="overflow:visible;"/>
		</clipPath>
		<g class="st2">
			<g>
				<path class="st3" d="M175.4,125.5c0.9,2.4-0.3,5-2.7,5.9c-2.4,0.9-5-0.3-5.9-2.7c-0.9-2.4,0.3-5,2.7-5.9
					C171.9,121.9,174.6,123.1,175.4,125.5z"/>
			</g>
			<g>
				<path class="st3" d="M167.7,149.6c0.9,2.4-0.3,5-2.7,5.9c-2.4,0.9-5-0.3-5.9-2.7c-0.9-2.4,0.3-5,2.7-5.9
					C164.2,146,166.8,147.2,167.7,149.6z"/>
				<path class="st3" d="M202.4,136.6c0.9,2.4-0.3,5-2.7,5.9c-2.4,0.9-5-0.3-5.9-2.7c-0.9-2.4,0.3-5,2.7-5.9
					C198.9,133,201.5,134.2,202.4,136.6z"/>
				<path class="st3" d="M237.1,123.5c0.9,2.4-0.3,5-2.7,5.9c-2.4,0.9-5-0.3-5.9-2.7c-0.9-2.4,0.3-5,2.7-5.9
					C233.6,120,236.2,121.2,237.1,123.5z"/>
			</g>
			<g>
				<path class="st3" d="M157.1,176.5c0.9,2.4-0.3,5-2.7,5.9c-2.4,0.9-5-0.3-5.9-2.7c-0.9-2.4,0.3-5,2.7-5.9
					C153.6,173,156.3,174.2,157.1,176.5z"/>
				<path class="st3" d="M191.9,163.5c0.9,2.4-0.3,5-2.7,5.9c-2.4,0.9-5-0.3-5.9-2.7c-0.9-2.4,0.3-5,2.7-5.9
					C188.3,160,191,161.2,191.9,163.5z"/>
				<path class="st3" d="M226.6,150.5c0.9,2.4-0.3,5-2.7,5.9c-2.4,0.9-5-0.3-5.9-2.7c-0.9-2.4,0.3-5,2.7-5.9
					C223.1,147,225.7,148.2,226.6,150.5z"/>
				<path class="st3" d="M261.3,137.5c0.9,2.4-0.3,5-2.7,5.9c-2.4,0.9-5-0.3-5.9-2.7c-0.9-2.4,0.3-5,2.7-5.9
					C257.8,134,260.4,135.2,261.3,137.5z"/>
				<path class="st3" d="M296,124.5c0.9,2.4-0.3,5-2.7,5.9c-2.4,0.9-5-0.3-5.9-2.7c-0.9-2.4,0.3-5,2.7-5.9
					C292.5,121,295.1,122.2,296,124.5z"/>
				<path class="st3" d="M330.7,111.5c0.9,2.4-0.3,5-2.7,5.9c-2.4,0.9-5-0.3-5.9-2.7c-0.9-2.4,0.3-5,2.7-5.9
					C327.2,108,329.8,109.2,330.7,111.5z"/>
			</g>
			<g>
				<path class="st3" d="M149.4,200.6c0.9,2.4-0.3,5-2.7,5.9c-2.4,0.9-5-0.3-5.9-2.7c-0.9-2.4,0.3-5,2.7-5.9
					C145.9,197,148.5,198.2,149.4,200.6z"/>
				<path class="st3" d="M184.1,187.6c0.9,2.4-0.3,5-2.7,5.9c-2.4,0.9-5-0.3-5.9-2.7c-0.9-2.4,0.3-5,2.7-5.9
					C180.6,184,183.2,185.2,184.1,187.6z"/>
				<path class="st3" d="M218.8,174.6c0.9,2.4-0.3,5-2.7,5.9c-2.4,0.9-5-0.3-5.9-2.7c-0.9-2.4,0.3-5,2.7-5.9
					C215.3,171,217.9,172.2,218.8,174.6z"/>
				<path class="st3" d="M253.5,161.6c0.9,2.4-0.3,5-2.7,5.9c-2.4,0.9-5-0.3-5.9-2.7c-0.9-2.4,0.3-5,2.7-5.9
					C250,158,252.6,159.2,253.5,161.6z"/>
				<path class="st3" d="M288.2,148.6c0.9,2.4-0.3,5-2.7,5.9c-2.4,0.9-5-0.3-5.9-2.7c-0.9-2.4,0.3-5,2.7-5.9
					C284.7,145,287.3,146.2,288.2,148.6z"/>
				<path class="st3" d="M322.9,135.6c0.9,2.4-0.3,5-2.7,5.9c-2.4,0.9-5-0.3-5.9-2.7c-0.9-2.4,0.3-5,2.7-5.9
					C319.4,132,322,133.2,322.9,135.6z"/>
				<path class="st3" d="M357.6,122.6c0.9,2.4-0.3,5-2.7,5.9c-2.4,0.9-5-0.3-5.9-2.7c-0.9-2.4,0.3-5,2.7-5.9
					C354.1,119,356.8,120.2,357.6,122.6z"/>
			</g>
			<g>
				<path class="st3" d="M141,223.3c0.9,2.4-0.3,5-2.7,5.9c-2.4,0.9-5-0.3-5.9-2.7c-0.9-2.4,0.3-5,2.7-5.9
					C137.5,219.8,140.1,221,141,223.3z"/>
				<path class="st3" d="M175.7,210.3c0.9,2.4-0.3,5-2.7,5.9c-2.4,0.9-5-0.3-5.9-2.7c-0.9-2.4,0.3-5,2.7-5.9
					C172.2,206.8,174.8,208,175.7,210.3z"/>
				<path class="st3" d="M210.4,197.3c0.9,2.4-0.3,5-2.7,5.9c-2.4,0.9-5-0.3-5.9-2.7c-0.9-2.4,0.3-5,2.7-5.9
					C206.9,193.8,209.5,195,210.4,197.3z"/>
				<path class="st3" d="M245.1,184.3c0.9,2.4-0.3,5-2.7,5.9c-2.4,0.9-5-0.3-5.9-2.7c-0.9-2.4,0.3-5,2.7-5.9
					C241.6,180.8,244.2,182,245.1,184.3z"/>
				<path class="st3" d="M279.8,171.3c0.9,2.4-0.3,5-2.7,5.9c-2.4,0.9-5-0.3-5.9-2.7c-0.9-2.4,0.3-5,2.7-5.9
					C276.3,167.8,278.9,169,279.8,171.3z"/>
				<path class="st3" d="M314.5,158.3c0.9,2.4-0.3,5-2.7,5.9c-2.4,0.9-5-0.3-5.9-2.7c-0.9-2.4,0.3-5,2.7-5.9
					C311,154.8,313.6,156,314.5,158.3z"/>
				<path class="st3" d="M349.2,145.3c0.9,2.4-0.3,5-2.7,5.9c-2.4,0.9-5-0.3-5.9-2.7c-0.9-2.4,0.3-5,2.7-5.9
					C345.7,141.8,348.3,143,349.2,145.3z"/>
			</g>
			<g>
				<path class="st3" d="M167.9,234.4c0.9,2.4-0.3,5-2.7,5.9c-2.4,0.9-5-0.3-5.9-2.7c-0.9-2.4,0.3-5,2.7-5.9
					C164.4,230.8,167,232,167.9,234.4z"/>
				<path class="st3" d="M202.6,221.4c0.9,2.4-0.3,5-2.7,5.9c-2.4,0.9-5-0.3-5.9-2.7c-0.9-2.4,0.3-5,2.7-5.9
					C199.1,217.8,201.7,219,202.6,221.4z"/>
				<path class="st3" d="M237.3,208.4c0.9,2.4-0.3,5-2.7,5.9c-2.4,0.9-5-0.3-5.9-2.7c-0.9-2.4,0.3-5,2.7-5.9
					C233.8,204.8,236.4,206,237.3,208.4z"/>
				<path class="st3" d="M272,195.4c0.9,2.4-0.3,5-2.7,5.9c-2.4,0.9-5-0.3-5.9-2.7c-0.9-2.4,0.3-5,2.7-5.9
					C268.5,191.8,271.2,193,272,195.4z"/>
				<path class="st3" d="M306.7,182.4c0.9,2.4-0.3,5-2.7,5.9c-2.4,0.9-5-0.3-5.9-2.7c-0.9-2.4,0.3-5,2.7-5.9
					C303.2,178.8,305.9,180,306.7,182.4z"/>
				<path class="st3" d="M341.5,169.4c0.9,2.4-0.3,5-2.7,5.9c-2.4,0.9-5-0.3-5.9-2.7c-0.9-2.4,0.3-5,2.7-5.9
					C337.9,165.8,340.6,167,341.5,169.4z"/>
				<path class="st3" d="M376.2,156.4c0.9,2.4-0.3,5-2.7,5.9c-2.4,0.9-5-0.3-5.9-2.7c-0.9-2.4,0.3-5,2.7-5.9
					C372.7,152.8,375.3,154,376.2,156.4z"/>
			</g>
			<g>
				<path class="st3" d="M157.4,261.4c0.9,2.4-0.3,5-2.7,5.9c-2.4,0.9-5-0.3-5.9-2.7c-0.9-2.4,0.3-5,2.7-5.9
					C153.9,257.8,156.5,259,157.4,261.4z"/>
				<path class="st3" d="M192.1,248.4c0.9,2.4-0.3,5-2.7,5.9c-2.4,0.9-5-0.3-5.9-2.7c-0.9-2.4,0.3-5,2.7-5.9
					C188.6,244.8,191.2,246,192.1,248.4z"/>
				<path class="st3" d="M226.8,235.4c0.9,2.4-0.3,5-2.7,5.9c-2.4,0.9-5-0.3-5.9-2.7c-0.9-2.4,0.3-5,2.7-5.9
					C223.3,231.8,225.9,233,226.8,235.4z"/>
				<path class="st3" d="M261.5,222.4c0.9,2.4-0.3,5-2.7,5.9c-2.4,0.9-5-0.3-5.9-2.7c-0.9-2.4,0.3-5,2.7-5.9
					C258,218.8,260.6,220,261.5,222.4z"/>
				<path class="st3" d="M296.2,209.3c0.9,2.4-0.3,5-2.7,5.9c-2.4,0.9-5-0.3-5.9-2.7c-0.9-2.4,0.3-5,2.7-5.9
					C292.7,205.8,295.3,207,296.2,209.3z"/>
				<path class="st3" d="M330.9,196.3c0.9,2.4-0.3,5-2.7,5.9c-2.4,0.9-5-0.3-5.9-2.7c-0.9-2.4,0.3-5,2.7-5.9
					C327.4,192.8,330,194,330.9,196.3z"/>
				<path class="st3" d="M365.6,183.3c0.9,2.4-0.3,5-2.7,5.9c-2.4,0.9-5-0.3-5.9-2.7c-0.9-2.4,0.3-5,2.7-5.9
					C362.1,179.8,364.7,181,365.6,183.3z"/>
			</g>
			<g>
				<path class="st3" d="M149.6,285.4c0.9,2.4-0.3,5-2.7,5.9c-2.4,0.9-5-0.3-5.9-2.7c-0.9-2.4,0.3-5,2.7-5.9
					C146.1,281.9,148.7,283.1,149.6,285.4z"/>
				<path class="st3" d="M184.3,272.4c0.9,2.4-0.3,5-2.7,5.9c-2.4,0.9-5-0.3-5.9-2.7c-0.9-2.4,0.3-5,2.7-5.9
					C180.8,268.9,183.4,270.1,184.3,272.4z"/>
				<path class="st3" d="M219,259.4c0.9,2.4-0.3,5-2.7,5.9c-2.4,0.9-5-0.3-5.9-2.7c-0.9-2.4,0.3-5,2.7-5.9
					C215.5,255.9,218.2,257.1,219,259.4z"/>
				<path class="st3" d="M253.7,246.4c0.9,2.4-0.3,5-2.7,5.9c-2.4,0.9-5-0.3-5.9-2.7c-0.9-2.4,0.3-5,2.7-5.9
					C250.2,242.9,252.9,244.1,253.7,246.4z"/>
				<path class="st3" d="M288.5,233.4c0.9,2.4-0.3,5-2.7,5.9c-2.4,0.9-5-0.3-5.9-2.7c-0.9-2.4,0.3-5,2.7-5.9
					C284.9,229.9,287.6,231.1,288.5,233.4z"/>
				<path class="st3" d="M323.2,220.4c0.9,2.4-0.3,5-2.7,5.9c-2.4,0.9-5-0.3-5.9-2.7c-0.9-2.4,0.3-5,2.7-5.9
					C319.7,216.9,322.3,218.1,323.2,220.4z"/>
				<path class="st3" d="M357.9,207.4c0.9,2.4-0.3,5-2.7,5.9c-2.4,0.9-5-0.3-5.9-2.7c-0.9-2.4,0.3-5,2.7-5.9
					C354.4,203.9,357,205.1,357.9,207.4z"/>
			</g>
			<g>
				<path class="st3" d="M174.6,299.4c0.9,2.4-0.3,5-2.7,5.9c-2.4,0.9-5-0.3-5.9-2.7c-0.9-2.4,0.3-5,2.7-5.9
					C171.1,295.8,173.7,297,174.6,299.4z"/>
				<path class="st3" d="M209.3,286.4c0.9,2.4-0.3,5-2.7,5.9c-2.4,0.9-5-0.3-5.9-2.7c-0.9-2.4,0.3-5,2.7-5.9
					C205.8,282.8,208.4,284,209.3,286.4z"/>
				<path class="st3" d="M244,273.4c0.9,2.4-0.3,5-2.7,5.9c-2.4,0.9-5-0.3-5.9-2.7c-0.9-2.4,0.3-5,2.7-5.9
					C240.5,269.8,243.1,271,244,273.4z"/>
				<path class="st3" d="M278.7,260.4c0.9,2.4-0.3,5-2.7,5.9c-2.4,0.9-5-0.3-5.9-2.7c-0.9-2.4,0.3-5,2.7-5.9
					C275.2,256.8,277.9,258,278.7,260.4z"/>
				<path class="st3" d="M313.5,247.4c0.9,2.4-0.3,5-2.7,5.9c-2.4,0.9-5-0.3-5.9-2.7c-0.9-2.4,0.3-5,2.7-5.9
					C309.9,243.8,312.6,245,313.5,247.4z"/>
				<path class="st3" d="M348.2,234.4c0.9,2.4-0.3,5-2.7,5.9c-2.4,0.9-5-0.3-5.9-2.7c-0.9-2.4,0.3-5,2.7-5.9
					C344.7,230.8,347.3,232,348.2,234.4z"/>
			</g>
			<g>
				<path class="st3" d="M166.9,323.5c0.9,2.4-0.3,5-2.7,5.9c-2.4,0.9-5-0.3-5.9-2.7c-0.9-2.4,0.3-5,2.7-5.9
					C163.3,319.9,166,321.1,166.9,323.5z"/>
				<path class="st3" d="M201.6,310.5c0.9,2.4-0.3,5-2.7,5.9c-2.4,0.9-5-0.3-5.9-2.7c-0.9-2.4,0.3-5,2.7-5.9
					C198.1,306.9,200.7,308.1,201.6,310.5z"/>
				<path class="st3" d="M236.3,297.5c0.9,2.4-0.3,5-2.7,5.9c-2.4,0.9-5-0.3-5.9-2.7c-0.9-2.4,0.3-5,2.7-5.9
					C232.8,293.9,235.4,295.1,236.3,297.5z"/>
				<path class="st3" d="M271,284.5c0.9,2.4-0.3,5-2.7,5.9c-2.4,0.9-5-0.3-5.9-2.7c-0.9-2.4,0.3-5,2.7-5.9
					C267.5,280.9,270.1,282.1,271,284.5z"/>
				<path class="st3" d="M305.7,271.4c0.9,2.4-0.3,5-2.7,5.9c-2.4,0.9-5-0.3-5.9-2.7c-0.9-2.4,0.3-5,2.7-5.9
					C302.2,267.9,304.8,269.1,305.7,271.4z"/>
				<path class="st3" d="M340.4,258.4c0.9,2.4-0.3,5-2.7,5.9c-2.4,0.9-5-0.3-5.9-2.7c-0.9-2.4,0.3-5,2.7-5.9
					C336.9,254.9,339.5,256.1,340.4,258.4z"/>
				<path class="st3" d="M375.1,245.4c0.9,2.4-0.3,5-2.7,5.9c-2.4,0.9-5-0.3-5.9-2.7c-0.9-2.4,0.3-5,2.7-5.9
					C371.6,241.9,374.2,243.1,375.1,245.4z"/>
			</g>
			<g>
				<path class="st3" d="M156.3,350.4c0.9,2.4-0.3,5-2.7,5.9c-2.4,0.9-5-0.3-5.9-2.7c-0.9-2.4,0.3-5,2.7-5.9
					C152.8,346.9,155.4,348.1,156.3,350.4z"/>
				<path class="st3" d="M191,337.4c0.9,2.4-0.3,5-2.7,5.9c-2.4,0.9-5-0.3-5.9-2.7c-0.9-2.4,0.3-5,2.7-5.9
					C187.5,333.9,190.1,335.1,191,337.4z"/>
				<path class="st3" d="M225.7,324.4c0.9,2.4-0.3,5-2.7,5.9c-2.4,0.9-5-0.3-5.9-2.7c-0.9-2.4,0.3-5,2.7-5.9
					C222.2,320.9,224.9,322.1,225.7,324.4z"/>
				<path class="st3" d="M260.4,311.4c0.9,2.4-0.3,5-2.7,5.9c-2.4,0.9-5-0.3-5.9-2.7c-0.9-2.4,0.3-5,2.7-5.9
					C256.9,307.9,259.6,309.1,260.4,311.4z"/>
				<path class="st3" d="M295.2,298.4c0.9,2.4-0.3,5-2.7,5.9c-2.4,0.9-5-0.3-5.9-2.7c-0.9-2.4,0.3-5,2.7-5.9
					C291.6,294.9,294.3,296.1,295.2,298.4z"/>
				<path class="st3" d="M329.9,285.4c0.9,2.4-0.3,5-2.7,5.9c-2.4,0.9-5-0.3-5.9-2.7c-0.9-2.4,0.3-5,2.7-5.9
					C326.4,281.9,329,283.1,329.9,285.4z"/>
				<path class="st3" d="M364.6,272.4c0.9,2.4-0.3,5-2.7,5.9c-2.4,0.9-5-0.3-5.9-2.7c-0.9-2.4,0.3-5,2.7-5.9
					C361.1,268.9,363.7,270.1,364.6,272.4z"/>
			</g>
			<g>
				<path class="st3" d="M148.6,374.5c0.9,2.4-0.3,5-2.7,5.9c-2.4,0.9-5-0.3-5.9-2.7c-0.9-2.4,0.3-5,2.7-5.9
					C145.1,371,147.7,372.1,148.6,374.5z"/>
				<path class="st3" d="M183.3,361.5c0.9,2.4-0.3,5-2.7,5.9c-2.4,0.9-5-0.3-5.9-2.7c-0.9-2.4,0.3-5,2.7-5.9
					C179.8,357.9,182.4,359.1,183.3,361.5z"/>
				<path class="st3" d="M218,348.5c0.9,2.4-0.3,5-2.7,5.9c-2.4,0.9-5-0.3-5.9-2.7c-0.9-2.4,0.3-5,2.7-5.9
					C214.5,344.9,217.1,346.1,218,348.5z"/>
				<path class="st3" d="M252.7,335.5c0.9,2.4-0.3,5-2.7,5.9c-2.4,0.9-5-0.3-5.9-2.7c-0.9-2.4,0.3-5,2.7-5.9
					C249.2,331.9,251.8,333.1,252.7,335.5z"/>
				<path class="st3" d="M287.4,322.5c0.9,2.4-0.3,5-2.7,5.9c-2.4,0.9-5-0.3-5.9-2.7c-0.9-2.4,0.3-5,2.7-5.9
					C283.9,318.9,286.5,320.1,287.4,322.5z"/>
				<path class="st3" d="M322.1,309.5c0.9,2.4-0.3,5-2.7,5.9c-2.4,0.9-5-0.3-5.9-2.7c-0.9-2.4,0.3-5,2.7-5.9
					C318.6,305.9,321.2,307.1,322.1,309.5z"/>
				<path class="st3" d="M356.8,296.5c0.9,2.4-0.3,5-2.7,5.9c-2.4,0.9-5-0.3-5.9-2.7c-0.9-2.4,0.3-5,2.7-5.9
					C353.3,292.9,355.9,294.1,356.8,296.5z"/>
			</g>
			<g>
				<path class="st3" d="M140.1,397.2c0.9,2.4-0.3,5-2.7,5.9c-2.4,0.9-5-0.3-5.9-2.7c-0.9-2.4,0.3-5,2.7-5.9
					C136.6,393.7,139.3,394.9,140.1,397.2z"/>
				<path class="st3" d="M174.8,384.2c0.9,2.4-0.3,5-2.7,5.9c-2.4,0.9-5-0.3-5.9-2.7c-0.9-2.4,0.3-5,2.7-5.9
					C171.3,380.7,174,381.9,174.8,384.2z"/>
				<path class="st3" d="M209.6,371.2c0.9,2.4-0.3,5-2.7,5.9c-2.4,0.9-5-0.3-5.9-2.7c-0.9-2.4,0.3-5,2.7-5.9
					C206,367.7,208.7,368.9,209.6,371.2z"/>
				<path class="st3" d="M244.3,358.2c0.9,2.4-0.3,5-2.7,5.9c-2.4,0.9-5-0.3-5.9-2.7c-0.9-2.4,0.3-5,2.7-5.9
					C240.8,354.7,243.4,355.9,244.3,358.2z"/>
				<path class="st3" d="M279,345.2c0.9,2.4-0.3,5-2.7,5.9c-2.4,0.9-5-0.3-5.9-2.7c-0.9-2.4,0.3-5,2.7-5.9
					C275.5,341.7,278.1,342.9,279,345.2z"/>
				<path class="st3" d="M313.7,332.2c0.9,2.4-0.3,5-2.7,5.9c-2.4,0.9-5-0.3-5.9-2.7c-0.9-2.4,0.3-5,2.7-5.9
					C310.2,328.7,312.8,329.9,313.7,332.2z"/>
				<path class="st3" d="M348.4,319.2c0.9,2.4-0.3,5-2.7,5.9c-2.4,0.9-5-0.3-5.9-2.7c-0.9-2.4,0.3-5,2.7-5.9
					C344.9,315.7,347.5,316.9,348.4,319.2z"/>
			</g>
			<g>
				<path class="st3" d="M167.1,408.3c0.9,2.4-0.3,5-2.7,5.9c-2.4,0.9-5-0.3-5.9-2.7c-0.9-2.4,0.3-5,2.7-5.9
					C163.6,404.7,166.2,405.9,167.1,408.3z"/>
				<path class="st3" d="M201.8,395.3c0.9,2.4-0.3,5-2.7,5.9c-2.4,0.9-5-0.3-5.9-2.7c-0.9-2.4,0.3-5,2.7-5.9
					C198.3,391.7,200.9,392.9,201.8,395.3z"/>
				<path class="st3" d="M236.5,382.3c0.9,2.4-0.3,5-2.7,5.9c-2.4,0.9-5-0.3-5.9-2.7c-0.9-2.4,0.3-5,2.7-5.9
					C233,378.7,235.6,379.9,236.5,382.3z"/>
				<path class="st3" d="M271.2,369.3c0.9,2.4-0.3,5-2.7,5.9s-5-0.3-5.9-2.7c-0.9-2.4,0.3-5,2.7-5.9
					C267.7,365.7,270.3,366.9,271.2,369.3z"/>
				<path class="st3" d="M305.9,356.3c0.9,2.4-0.3,5-2.7,5.9c-2.4,0.9-5-0.3-5.9-2.7c-0.9-2.4,0.3-5,2.7-5.9
					C302.4,352.7,305,353.9,305.9,356.3z"/>
				<path class="st3" d="M340.6,343.3c0.9,2.4-0.3,5-2.7,5.9c-2.4,0.9-5-0.3-5.9-2.7c-0.9-2.4,0.3-5,2.7-5.9
					C337.1,339.7,339.7,340.9,340.6,343.3z"/>
			</g>
			<g>
				<path class="st3" d="M191.3,422.3c0.9,2.4-0.3,5-2.7,5.9c-2.4,0.9-5-0.3-5.9-2.7c-0.9-2.4,0.3-5,2.7-5.9
					C187.8,418.7,190.4,419.9,191.3,422.3z"/>
				<path class="st3" d="M226,409.3c0.9,2.4-0.3,5-2.7,5.9c-2.4,0.9-5-0.3-5.9-2.7c-0.9-2.4,0.3-5,2.7-5.9
					C222.5,405.7,225.1,406.9,226,409.3z"/>
				<path class="st3" d="M260.7,396.3c0.9,2.4-0.3,5-2.7,5.9c-2.4,0.9-5-0.3-5.9-2.7c-0.9-2.4,0.3-5,2.7-5.9
					C257.2,392.7,259.8,393.9,260.7,396.3z"/>
				<path class="st3" d="M295.4,383.3c0.9,2.4-0.3,5-2.7,5.9c-2.4,0.9-5-0.3-5.9-2.7c-0.9-2.4,0.3-5,2.7-5.9
					C291.9,379.7,294.5,380.9,295.4,383.3z"/>
				<path class="st3" d="M330.1,370.3c0.9,2.4-0.3,5-2.7,5.9c-2.4,0.9-5-0.3-5.9-2.7c-0.9-2.4,0.3-5,2.7-5.9
					C326.6,366.7,329.2,367.9,330.1,370.3z"/>
				<path class="st3" d="M364.8,357.3c0.9,2.4-0.3,5-2.7,5.9c-2.4,0.9-5-0.3-5.9-2.7c-0.9-2.4,0.3-5,2.7-5.9
					C361.3,353.7,363.9,354.9,364.8,357.3z"/>
			</g>
			<g>
				<path class="st3" d="M220,434.3c0.9,2.4-0.3,5-2.7,5.9c-2.4,0.9-5-0.3-5.9-2.7c-0.9-2.4,0.3-5,2.7-5.9
					C216.5,430.7,219.1,431.9,220,434.3z"/>
				<path class="st3" d="M254.7,421.3c0.9,2.4-0.3,5-2.7,5.9c-2.4,0.9-5-0.3-5.9-2.7c-0.9-2.4,0.3-5,2.7-5.9
					C251.2,417.7,253.8,418.9,254.7,421.3z"/>
				<path class="st3" d="M289.4,408.3c0.9,2.4-0.3,5-2.7,5.9c-2.4,0.9-5-0.3-5.9-2.7c-0.9-2.4,0.3-5,2.7-5.9
					C285.9,404.7,288.5,405.9,289.4,408.3z"/>
				<path class="st3" d="M324.1,395.3c0.9,2.4-0.3,5-2.7,5.9c-2.4,0.9-5-0.3-5.9-2.7c-0.9-2.4,0.3-5,2.7-5.9
					C320.6,391.7,323.2,392.9,324.1,395.3z"/>
				<path class="st3" d="M358.8,382.3c0.9,2.4-0.3,5-2.7,5.9c-2.4,0.9-5-0.3-5.9-2.7c-0.9-2.4,0.3-5,2.7-5.9
					C355.3,378.7,357.9,379.9,358.8,382.3z"/>
			</g>
			<g>
				<path class="st3" d="M244.2,446.3c0.9,2.4-0.3,5-2.7,5.9c-2.4,0.9-5-0.3-5.9-2.7c-0.9-2.4,0.3-5,2.7-5.9
					C240.6,442.8,243.3,444,244.2,446.3z"/>
				<path class="st3" d="M278.9,433.3c0.9,2.4-0.3,5-2.7,5.9c-2.4,0.9-5-0.3-5.9-2.7c-0.9-2.4,0.3-5,2.7-5.9
					C275.3,429.8,278,431,278.9,433.3z"/>
				<path class="st3" d="M313.6,420.3c0.9,2.4-0.3,5-2.7,5.9c-2.4,0.9-5-0.3-5.9-2.7c-0.9-2.4,0.3-5,2.7-5.9
					C310.1,416.8,312.7,418,313.6,420.3z"/>
				<path class="st3" d="M348.3,407.3c0.9,2.4-0.3,5-2.7,5.9c-2.4,0.9-5-0.3-5.9-2.7c-0.9-2.4,0.3-5,2.7-5.9
					C344.8,403.8,347.4,405,348.3,407.3z"/>
				<path class="st3" d="M383,394.3c0.9,2.4-0.3,5-2.7,5.9c-2.4,0.9-5-0.3-5.9-2.7c-0.9-2.4,0.3-5,2.7-5.9
					C379.5,390.8,382.1,392,383,394.3z"/>
			</g>
			<g>
				<path class="st3" d="M238.5,474.3c0.9,2.4-0.3,5-2.7,5.9c-2.4,0.9-5-0.3-5.9-2.7c-0.9-2.4,0.3-5,2.7-5.9
					C235,470.7,237.7,471.9,238.5,474.3z"/>
				<path class="st3" d="M273.2,461.3c0.9,2.4-0.3,5-2.7,5.9c-2.4,0.9-5-0.3-5.9-2.7c-0.9-2.4,0.3-5,2.7-5.9
					C269.7,457.7,272.4,458.9,273.2,461.3z"/>
			</g>
		</g>
	</g>
</g>
</svg>
