<?xml version="1.0" encoding="utf-8"?>
<!-- Generator: Adobe Illustrator 24.0.2, SVG Export Plug-In . SVG Version: 6.00 Build 0)  -->
<svg version="1.1" id="Layer_1" xmlns="http://www.w3.org/2000/svg" xmlns:xlink="http://www.w3.org/1999/xlink" x="0px" y="0px"
	 viewBox="0 0 500 500" style="enable-background:new 0 0 500 500;" xml:space="preserve">
<style type="text/css">
	.st0{fill:#E8C468;}
	.st1{fill:#292F39;}
	.st2{fill:#F5D06D;}
	.st3{fill:#39352B;}
	.st4{fill:#F5EEDD;}
	.st5{fill:#F5D57D;}
	.st6{fill:#F4EBD3;}
</style>
<g>
	<rect x="343.6" y="243.5" class="st0" width="30.7" height="8.7"/>
	<g>
		<g>
			
				<rect x="204.2" y="353.1" transform="matrix(1 -2.887498e-03 2.887498e-03 1 -1.0279 0.7375)" class="st1" width="101.4" height="6.4"/>
		</g>
		<g>
			
				<rect x="186.7" y="337.4" transform="matrix(-2.885343e-03 -1 1 -2.885343e-03 -136.2455 549.216)" class="st1" width="37.9" height="10.3"/>
		</g>
		<g>
			
				<rect x="285.1" y="337.1" transform="matrix(-2.885343e-03 -1 1 -2.885343e-03 -37.3599 647.2492)" class="st1" width="37.9" height="10.3"/>
		</g>
	</g>
	<g>
		<g>
			
				<rect x="186.2" y="148.9" transform="matrix(2.885347e-03 1 -1 2.885347e-03 358.6158 -51.5352)" class="st1" width="37.9" height="10.3"/>
		</g>
		<g>
			
				<rect x="284.5" y="148.6" transform="matrix(2.885347e-03 1 -1 2.885347e-03 456.3663 -150.1361)" class="st1" width="37.9" height="10.3"/>
		</g>
		<g>
			
				<rect x="203.6" y="136.8" transform="matrix(1 -2.884269e-03 2.884269e-03 1 -0.4027 0.734)" class="st1" width="101.4" height="6.4"/>
		</g>
	</g>
	<g>
		<g>
			<path class="st2" d="M211.2,483.9c-1.3,0-2.3-1-2.3-2.3l0-9.7c0-1.3,1-2.3,2.3-2.3c0,0,0,0,0,0c1.3,0,2.3,1,2.3,2.3l0,9.7
				C213.6,482.9,212.5,483.9,211.2,483.9C211.2,483.9,211.2,483.9,211.2,483.9z"/>
		</g>
		<g>
			<path class="st2" d="M211.2,480.2c-5.4,0-9.7-4.4-9.8-9.7l0-11.3c0-2.6,1-5.1,2.8-6.9c1.8-1.8,4.3-2.9,6.9-2.9
				c5.4,0,9.8,4.4,9.8,9.7l0,11.2C221,475.8,216.6,480.2,211.2,480.2L211.2,480.2z M211.2,454.1c-1.4,0-2.6,0.5-3.6,1.5
				c-1,1-1.5,2.2-1.5,3.6l0,11.3c0,2.8,2.3,5.1,5.1,5.1v2.3l0-2.3c1.4,0,2.6-0.5,3.6-1.5c1-1,1.5-2.2,1.5-3.6l0-11.2
				C216.2,456.4,214,454.1,211.2,454.1z"/>
		</g>
		<g>
			<path class="st2" d="M211.2,463.6c-1.3,0-2.3-1-2.3-2.3l-0.1-19.4c0-1.3,1-2.3,2.3-2.3c0,0,0,0,0,0c1.3,0,2.3,1,2.3,2.3l0.1,19.4
				C213.5,462.6,212.5,463.6,211.2,463.6C211.2,463.6,211.2,463.6,211.2,463.6z"/>
		</g>
		<g>
			<path class="st2" d="M211.1,450.2c-5.4,0-9.7-4.4-9.8-9.7l0-11.3c0-5.4,4.3-9.8,9.7-9.8c5.4,0,9.8,4.4,9.8,9.7l0,11.3
				c0,2.6-1,5.1-2.8,6.9C216.2,449.1,213.8,450.2,211.1,450.2L211.1,450.2z M211.1,424.1c-2.8,0-5.1,2.3-5.1,5.1l0,11.3
				c0,2.8,2.3,5.1,5.1,5.1v2.3l0-2.3c1.4,0,2.6-0.5,3.6-1.5c1-1,1.5-2.2,1.5-3.6l0-11.3C216.2,426.4,213.9,424.1,211.1,424.1z"/>
		</g>
		<g>
			<path class="st2" d="M211.1,433.6c-1.3,0-2.3-1-2.3-2.3l-0.1-19.4c0-1.3,1-2.3,2.3-2.3c0,0,0,0,0,0c1.3,0,2.3,1,2.3,2.3l0.1,19.4
				C213.4,432.6,212.4,433.6,211.1,433.6C211.1,433.6,211.1,433.6,211.1,433.6z"/>
		</g>
		<g>
			<path class="st2" d="M211,420.2c-5.4,0-9.7-4.4-9.8-9.7l0-11.3c0-2.6,1-5.1,2.8-6.9c1.8-1.8,4.3-2.9,6.9-2.9
				c5.4,0,9.8,4.4,9.8,9.7l0,11.2c0,2.6-1,5.1-2.8,6.9C216.1,419.1,213.7,420.2,211,420.2L211,420.2z M211,394.1
				c-1.4,0-2.6,0.5-3.6,1.5c-1,1-1.5,2.2-1.5,3.6l0,11.3c0,2.8,2.3,5.1,5.1,5.1v2.3l0-2.3c1.4,0,2.6-0.5,3.6-1.5
				c1-1,1.5-2.2,1.5-3.6l0-11.2C216.1,396.4,213.8,394.1,211,394.1z"/>
		</g>
		<g>
			<path class="st2" d="M211,403.6c-1.3,0-2.3-1-2.3-2.3l-0.1-19.4c0-1.3,1-2.3,2.3-2.3c0,0,0,0,0,0c1.3,0,2.3,1,2.3,2.3l0.1,19.4
				C213.4,402.5,212.3,403.6,211,403.6C211,403.6,211,403.6,211,403.6z"/>
		</g>
		<g>
			<path class="st2" d="M210.9,390.1c-5.4,0-9.7-4.4-9.8-9.7l0-11.3c0-5.4,4.3-9.8,9.7-9.8c5.4,0,9.8,4.4,9.8,9.7l0,11.3
				c0,2.6-1,5.1-2.8,6.9C216,389.1,213.6,390.1,210.9,390.1L210.9,390.1z M210.9,364.1c-2.8,0-5.1,2.3-5.1,5.1l0,11.3
				c0,2.8,2.3,5.1,5.1,5.1v2.3l0-2.3c1.4,0,2.6-0.5,3.6-1.5c1-1,1.5-2.2,1.5-3.6l0-11.3C216,366.3,213.7,364.1,210.9,364.1z"/>
		</g>
		<g>
			<path class="st2" d="M210.9,373.6c-1.3,0-2.3-1-2.3-2.3l-0.1-19.4c0-1.3,1-2.3,2.3-2.3c1.1-0.1,2.3,1,2.3,2.3l0.1,19.4
				C213.3,372.5,212.2,373.6,210.9,373.6C210.9,373.6,210.9,373.6,210.9,373.6z"/>
		</g>
	</g>
	<g>
		<g>
			<path class="st2" d="M233.2,483.9c-1.3,0-2.3-1-2.3-2.3l0-9.7c0-1.3,1-2.3,2.3-2.3c0,0,0,0,0,0c1.3,0,2.3,1,2.3,2.3l0,9.7
				C235.6,482.8,234.5,483.9,233.2,483.9C233.3,483.9,233.3,483.9,233.2,483.9z"/>
		</g>
		<g>
			<path class="st2" d="M233.2,480.1c-5.4,0-9.7-4.4-9.8-9.7l0-11.3c0-2.6,1-5.1,2.8-6.9c1.8-1.8,4.3-2.9,6.9-2.9
				c5.4,0,9.8,4.4,9.8,9.7l0,11.3c0,2.6-1,5.1-2.8,6.9C238.3,479.1,235.8,480.1,233.2,480.1L233.2,480.1z M233.2,454.1
				c-1.4,0-2.6,0.5-3.6,1.5c-1,1-1.5,2.2-1.5,3.6l0,11.3c0,2.8,2.3,5.1,5.1,5.1v2.3l0-2.3c1.4,0,2.6-0.5,3.6-1.5
				c1-1,1.5-2.2,1.5-3.6l0-11.3C238.2,456.3,236,454.1,233.2,454.1z"/>
		</g>
		<g>
			<path class="st2" d="M233.2,463.6c-1.3,0-2.3-1-2.3-2.3l-0.1-19.4c0-1.3,1-2.3,2.3-2.3c0,0,0,0,0,0c1.3,0,2.3,1,2.3,2.3l0.1,19.4
				C235.5,462.5,234.5,463.6,233.2,463.6C233.2,463.6,233.2,463.6,233.2,463.6z"/>
		</g>
		<g>
			<path class="st2" d="M233.1,450.1c-5.4,0-9.7-4.4-9.7-9.7l0-11.3c0-2.6,1-5.1,2.8-6.9c1.8-1.8,4.3-2.9,6.9-2.9
				c5.4,0,9.8,4.4,9.8,9.7l0,11.3c0,2.6-1,5.1-2.8,6.9C238.2,449.1,235.8,450.1,233.1,450.1L233.1,450.1z M233.1,424
				c-1.4,0-2.6,0.5-3.6,1.5c-1,1-1.5,2.2-1.5,3.6l0,11.3c0,2.8,2.3,5.1,5.1,5.1v2.3l0-2.3c1.4,0,2.6-0.5,3.6-1.5
				c1-1,1.5-2.2,1.5-3.6l0-11.3C238.2,426.3,235.9,424,233.1,424z"/>
		</g>
		<g>
			<path class="st2" d="M233.1,433.5c-1.3,0-2.3-1-2.3-2.3l-0.1-19.4c0-1.3,1-2.3,2.3-2.3c0,0,0,0,0,0c1.3,0,2.3,1,2.3,2.3l0.1,19.4
				C235.4,432.5,234.4,433.5,233.1,433.5C233.1,433.5,233.1,433.5,233.1,433.5z"/>
		</g>
		<g>
			<path class="st2" d="M233,420.1c-5.4,0-9.7-4.4-9.8-9.7l0-11.2c0-2.6,1-5.1,2.8-6.9c1.8-1.8,4.3-2.9,6.9-2.9
				c5.4,0,9.8,4.4,9.8,9.7l0,11.3c0,2.6-1,5.1-2.8,6.9C238.1,419.1,235.7,420.1,233,420.1L233,420.1z M233,394
				c-1.4,0-2.6,0.5-3.6,1.5c-1,1-1.5,2.2-1.5,3.6l0,11.2c0,2.8,2.3,5.1,5.1,5.1v2.3l0-2.3c1.4,0,2.6-0.5,3.6-1.5
				c1-1,1.5-2.2,1.5-3.6l0-11.3C238.1,396.3,235.8,394,233,394z"/>
		</g>
		<g>
			<path class="st2" d="M233,403.5c-1.3,0-2.3-1-2.3-2.3l-0.1-19.4c0-1.3,1-2.3,2.3-2.3c0,0,0,0,0,0c1.3,0,2.3,1,2.3,2.3l0.1,19.4
				C235.4,402.5,234.3,403.5,233,403.5C233,403.5,233,403.5,233,403.5z"/>
		</g>
		<g>
			<path class="st2" d="M233,390.1c-5.4,0-9.7-4.4-9.7-9.7l0-11.3c0-2.6,1-5.1,2.8-6.9c1.8-1.8,4.3-2.9,6.9-2.9
				c5.4,0,9.8,4.4,9.8,9.7l0,11.3c0,2.6-1,5.1-2.8,6.9C238,389,235.6,390.1,233,390.1L233,390.1z M232.9,364c-1.4,0-2.6,0.5-3.6,1.5
				c-1,1-1.5,2.2-1.5,3.6l0,11.3c0,2.8,2.3,5.1,5.1,5.1v2.3l0-2.3c1.4,0,2.6-0.5,3.6-1.5c1-1,1.5-2.2,1.5-3.6l0-11.3
				C238,366.3,235.7,364,232.9,364z"/>
		</g>
		<g>
			<path class="st2" d="M232.9,373.5c-1.3,0-2.3-1-2.3-2.3l-0.1-19.4c0-1.3,1-2.3,2.3-2.3c0,0,0,0,0,0c1.3,0,2.3,1,2.3,2.3l0.1,19.4
				C235.3,372.5,234.2,373.5,232.9,373.5C232.9,373.5,232.9,373.5,232.9,373.5z"/>
		</g>
	</g>
	<g>
		<g>
			<path class="st2" d="M299.3,483.7c-1.3,0-2.3-1-2.3-2.3l0-9.7c0-1.3,1-2.3,2.3-2.3c0,0,0,0,0,0c1.3,0,2.3,1,2.3,2.3l0,9.7
				C301.6,482.6,300.6,483.7,299.3,483.7C299.3,483.7,299.3,483.7,299.3,483.7z"/>
		</g>
		<g>
			<path class="st2" d="M299.2,479.9c-5.4,0-9.7-4.4-9.8-9.7l0-11.3c0-2.6,1-5.1,2.8-6.9c1.8-1.8,4.3-2.9,6.9-2.9
				c5.4,0,9.8,4.4,9.8,9.7l0,11.3C309,475.5,304.6,479.9,299.2,479.9L299.2,479.9z M299.2,453.9c-1.4,0-2.6,0.5-3.6,1.5
				c-1,1-1.5,2.2-1.5,3.6l0,11.3c0,2.8,2.3,5.1,5.1,5.1v2.3l0-2.3c2.8,0,5.1-2.3,5.1-5.1l0-11.3C304.3,456.1,302,453.9,299.2,453.9z
				"/>
		</g>
		<g>
			<path class="st2" d="M299.2,463.4c-1.3,0-2.3-1-2.3-2.3l-0.1-19.4c0-1.3,1-2.3,2.3-2.3c0,0,0,0,0,0c1.3,0,2.3,1,2.3,2.3l0.1,19.4
				C301.6,462.3,300.5,463.4,299.2,463.4C299.2,463.4,299.2,463.4,299.2,463.4z"/>
		</g>
		<g>
			<path class="st2" d="M299.2,449.9c-5.4,0-9.7-4.4-9.8-9.7l0-11.2c0-2.6,1-5.1,2.8-6.9c1.8-1.8,4.3-2.9,6.9-2.9
				c5.4,0,9.8,4.4,9.8,9.7l0,11.3c0,2.6-1,5.1-2.8,6.9C304.2,448.9,301.8,449.9,299.2,449.9L299.2,449.9z M299.1,423.8
				c-1.4,0-2.6,0.5-3.6,1.5c-1,1-1.5,2.2-1.5,3.6l0,11.2c0,2.8,2.3,5.1,5.1,5.1v2.3l0-2.3c1.4,0,2.6-0.5,3.6-1.5
				c1-1,1.5-2.2,1.5-3.6l0-11.3C304.2,426.1,301.9,423.8,299.1,423.8z"/>
		</g>
		<g>
			<path class="st2" d="M299.1,433.4c-1.3,0-2.3-1-2.3-2.3l-0.1-19.4c0-1.3,1-2.3,2.3-2.3c0,0,0,0,0,0c1.3,0,2.3,1,2.3,2.3l0.1,19.4
				C301.5,432.3,300.4,433.3,299.1,433.4C299.1,433.4,299.1,433.4,299.1,433.4z"/>
		</g>
		<g>
			<path class="st2" d="M299.1,419.9c-5.4,0-9.7-4.4-9.8-9.7l0-11.3c0-2.6,1-5.1,2.8-6.9c1.8-1.8,4.3-2.9,6.9-2.9
				c5.4,0,9.8,4.4,9.8,9.7l0,11.3C308.8,415.5,304.5,419.9,299.1,419.9L299.1,419.9z M299,393.8c-1.4,0-2.6,0.5-3.6,1.5
				c-1,1-1.5,2.2-1.5,3.6l0,11.3c0,2.8,2.3,5.1,5.1,5.1v2.3l0-2.3c2.8,0,5.1-2.3,5.1-5.1l0-11.3C304.1,396.1,301.8,393.8,299,393.8z
				"/>
		</g>
		<g>
			<path class="st2" d="M299,403.3c-1.3,0-2.3-1-2.3-2.3l-0.1-19.4c0-1.3,1-2.3,2.3-2.3c0,0,0,0,0,0c1.3,0,2.3,1,2.3,2.3l0.1,19.4
				C301.4,402.3,300.3,403.3,299,403.3C299,403.3,299,403.3,299,403.3z"/>
		</g>
		<g>
			<path class="st2" d="M299,389.9c-5.4,0-9.7-4.4-9.8-9.7l0-11.2c0-2.6,1-5.1,2.8-6.9c1.8-1.8,4.3-2.9,6.9-2.9
				c5.4,0,9.8,4.4,9.8,9.7l0,11.3c0,2.6-1,5.1-2.8,6.9C304.1,388.9,301.6,389.9,299,389.9L299,389.9z M298.9,363.8
				c-1.4,0-2.6,0.5-3.6,1.5c-1,1-1.5,2.2-1.5,3.6l0,11.2c0,2.8,2.3,5.1,5.1,5.1v2.3l0-2.3c1.4,0,2.6-0.5,3.6-1.5
				c1-1,1.5-2.2,1.5-3.6l0-11.3C304,366.1,301.7,363.8,298.9,363.8z"/>
		</g>
		<g>
			<path class="st2" d="M298.9,373.3c-1.3,0-2.3-1-2.3-2.3l-0.1-19.4c0-1.3,1-2.3,2.3-2.3c0,0,0,0,0,0c1.3,0,2.3,1,2.3,2.3l0.1,19.4
				C301.3,372.3,300.2,373.3,298.9,373.3C299,373.3,299,373.3,298.9,373.3z"/>
		</g>
	</g>
	<g>
		<g>
			<path class="st2" d="M255.3,483.8c-1.3,0-2.3-1-2.3-2.3l0-9.7c0-1.3,1-2.3,2.3-2.3c0,0,0,0,0,0c1.3,0,2.3,1,2.3,2.3l0,9.7
				C257.6,482.8,256.6,483.8,255.3,483.8C255.3,483.8,255.3,483.8,255.3,483.8z"/>
		</g>
		<g>
			<path class="st2" d="M255.2,480.1c-5.4,0-9.7-4.4-9.8-9.7l0-11.3c0-5.4,4.3-9.8,9.7-9.8c5.4,0,9.8,4.4,9.8,9.7l0,11.3
				c0,2.6-1,5.1-2.8,6.9C260.3,479,257.9,480.1,255.2,480.1L255.2,480.1z M255.2,454c-2.8,0-5.1,2.3-5.1,5.1l0,11.3
				c0,2.8,2.3,5.1,5.1,5.1v2.3l0-2.3c1.4,0,2.6-0.5,3.6-1.5c1-1,1.5-2.2,1.5-3.6l0-11.3C260.3,456.3,258,454,255.2,454z"/>
		</g>
		<g>
			<path class="st2" d="M255.2,463.5c-1.3,0-2.3-1-2.3-2.3l-0.1-19.4c0-1.3,1-2.3,2.3-2.3c0,0,0,0,0,0c1.3,0,2.3,1,2.3,2.3l0.1,19.4
				C257.5,462.4,256.5,463.5,255.2,463.5C255.2,463.5,255.2,463.5,255.2,463.5z"/>
		</g>
		<g>
			<path class="st2" d="M255.1,450c-5.4,0-9.7-4.4-9.8-9.7l0-11.3c0-5.4,4.3-9.8,9.7-9.8c5.4,0,9.8,4.4,9.8,9.7l0,11.2
				c0,2.6-1,5.1-2.8,6.9C260.2,449,257.8,450,255.1,450L255.1,450z M255.1,424c-2.8,0-5.1,2.3-5.1,5.1l0,11.3c0,2.8,2.3,5.1,5.1,5.1
				v2.3l0-2.3c1.4,0,2.6-0.5,3.6-1.5c1-1,1.5-2.2,1.5-3.6l0-11.2C260.2,426.2,257.9,424,255.1,424z"/>
		</g>
		<g>
			<path class="st2" d="M255.1,433.5c-1.3,0-2.3-1-2.3-2.3l-0.1-19.4c0-1.3,1-2.3,2.3-2.3c0,0,0,0,0,0c1.3,0,2.3,1,2.3,2.3l0.1,19.4
				C257.5,432.4,256.4,433.5,255.1,433.5C255.1,433.5,255.1,433.5,255.1,433.5z"/>
		</g>
		<g>
			<path class="st2" d="M255.1,420c-5.4,0-9.7-4.4-9.8-9.7l0-11.3c0-5.4,4.3-9.8,9.7-9.8c5.4,0,9.8,4.4,9.8,9.7l0,11.3
				C264.8,415.6,260.5,420,255.1,420L255.1,420z M255,394c-2.8,0-5.1,2.3-5.1,5.1l0,11.3c0,2.8,2.3,5.1,5.1,5.1v2.3l0-2.3
				c2.8,0,5.1-2.3,5.1-5.1l0-11.3C260.1,396.2,257.8,394,255,394z"/>
		</g>
		<g>
			<path class="st2" d="M255,403.5c-1.3,0-2.3-1-2.3-2.3l-0.1-19.4c0-1.3,1-2.3,2.3-2.3c0,0,0,0,0,0c1.3,0,2.3,1,2.3,2.3l0.1,19.4
				C257.4,402.4,256.3,403.5,255,403.5C255,403.5,255,403.5,255,403.5z"/>
		</g>
		<g>
			<path class="st2" d="M255,390c-5.4,0-9.7-4.4-9.8-9.7l0-11.3c0-2.6,1-5.1,2.8-6.9c1.8-1.8,4.3-2.9,6.9-2.9c5.4,0,9.8,4.4,9.8,9.7
				l0,11.2c0,2.6-1,5.1-2.8,6.9C260,389,257.6,390,255,390L255,390z M254.9,363.9c-1.4,0-2.6,0.5-3.6,1.5c-1,1-1.5,2.2-1.5,3.6
				l0,11.3c0,2.8,2.3,5.1,5.1,5.1v2.3l0-2.3c1.4,0,2.6-0.5,3.6-1.5c1-1,1.5-2.2,1.5-3.6l0-11.2C260,366.2,257.7,363.9,254.9,363.9z"
				/>
		</g>
		<g>
			<path class="st2" d="M254.9,373.4c-1.3,0-2.3-1-2.3-2.3l-0.1-19.4c0-1.3,1-2.3,2.3-2.3c0,0,0,0,0,0c1.3,0,2.3,1,2.3,2.3l0.1,19.4
				C257.3,372.4,256.2,373.4,254.9,373.4C254.9,373.4,254.9,373.4,254.9,373.4z"/>
		</g>
	</g>
	<g>
		<g>
			<path class="st2" d="M277.3,483.7c-1.3,0-2.3-1-2.3-2.3l0-9.7c0-1.3,1-2.3,2.3-2.3c0,0,0,0,0,0c1.3,0,2.3,1,2.3,2.3l0,9.7
				C279.6,482.7,278.6,483.7,277.3,483.7C277.3,483.7,277.3,483.7,277.3,483.7z"/>
		</g>
		<g>
			<path class="st2" d="M277.2,480c-5.4,0-9.7-4.4-9.8-9.7l0-11.3c0-2.6,1-5.1,2.8-6.9c1.8-1.8,4.3-2.9,6.9-2.9
				c5.4,0,9.8,4.4,9.8,9.7l0,11.3c0,2.6-1,5.1-2.8,6.9C282.3,479,279.9,480,277.2,480L277.2,480z M277.2,453.9
				c-1.4,0-2.6,0.5-3.6,1.5c-1,1-1.5,2.2-1.5,3.6l0,11.3c0,2.8,2.3,5.1,5.1,5.1v2.3l0-2.3c1.4,0,2.6-0.5,3.6-1.5
				c1-1,1.5-2.2,1.5-3.6l0-11.3C282.3,456.2,280,453.9,277.2,453.9z"/>
		</g>
		<g>
			<path class="st2" d="M277.2,463.4c-1.3,0-2.3-1-2.3-2.3l-0.1-19.4c0-1.3,1-2.3,2.3-2.3c0,0,0,0,0,0c1.3,0,2.3,1,2.3,2.3l0.1,19.4
				C279.6,462.4,278.5,463.4,277.2,463.4C277.2,463.4,277.2,463.4,277.2,463.4z"/>
		</g>
		<g>
			<path class="st2" d="M277.1,450c-5.4,0-9.7-4.4-9.8-9.7l0-11.3c0-2.6,1-5.1,2.8-6.9c1.8-1.8,4.3-2.9,6.9-2.9
				c5.4,0,9.8,4.4,9.8,9.7l0,11.3c0,2.6-1,5.1-2.8,6.9C282.2,449,279.8,450,277.1,450L277.1,450z M277.1,423.9
				c-1.4,0-2.6,0.5-3.6,1.5c-1,1-1.5,2.2-1.5,3.6l0,11.3c0,2.8,2.3,5.1,5.1,5.1v2.3l0-2.3c1.4,0,2.6-0.5,3.6-1.5
				c1-1,1.5-2.2,1.5-3.6l0-11.3C282.2,426.2,279.9,423.9,277.1,423.9z"/>
		</g>
		<g>
			<path class="st2" d="M277.1,433.4c-1.3,0-2.3-1-2.3-2.3l-0.1-19.4c0-1.3,1-2.3,2.3-2.3c0,0,0,0,0,0c1.3,0,2.3,1,2.3,2.3l0.1,19.4
				C279.5,432.4,278.4,433.4,277.1,433.4C277.1,433.4,277.1,433.4,277.1,433.4z"/>
		</g>
		<g>
			<path class="st2" d="M277.1,420c-5.4,0-9.7-4.4-9.7-9.7l0-11.3c0-2.6,1-5.1,2.8-6.9c1.8-1.8,4.3-2.9,6.9-2.9
				c5.4,0,9.8,4.4,9.8,9.7l0,11.3c0,2.6-1,5.1-2.8,6.9C282.1,418.9,279.7,420,277.1,420L277.1,420z M277,393.9
				c-1.4,0-2.6,0.5-3.6,1.5c-1,1-1.5,2.2-1.5,3.6l0,11.3c0,2.8,2.3,5.1,5.1,5.1v2.3l0-2.3c1.4,0,2.6-0.5,3.6-1.5
				c1-1,1.5-2.2,1.5-3.6l0-11.3C282.1,396.2,279.8,393.9,277,393.9z"/>
		</g>
		<g>
			<path class="st2" d="M277,403.4c-1.3,0-2.3-1-2.3-2.3l-0.1-19.4c0-1.3,1-2.3,2.3-2.3c0,0,0,0,0,0c1.3,0,2.3,1,2.3,2.3l0.1,19.4
				C279.4,402.3,278.3,403.4,277,403.4C277,403.4,277,403.4,277,403.4z"/>
		</g>
		<g>
			<path class="st2" d="M277,389.9c-5.4,0-9.7-4.4-9.8-9.7l0-11.3c0-2.6,1-5.1,2.8-6.9c1.8-1.8,4.3-2.9,6.9-2.9
				c5.4,0,9.8,4.4,9.8,9.7l0,11.3c0,2.6-1,5.1-2.8,6.9C282.1,388.9,279.6,389.9,277,389.9L277,389.9z M276.9,363.9
				c-1.4,0-2.6,0.5-3.6,1.5c-1,1-1.5,2.2-1.5,3.6l0,11.3c0,2.8,2.3,5.1,5.1,5.1v2.3l0-2.3c1.4,0,2.6-0.5,3.6-1.5
				c1-1,1.5-2.2,1.5-3.6l0-11.3C282,366.1,279.7,363.9,276.9,363.9z"/>
		</g>
		<g>
			<path class="st2" d="M276.9,373.4c-1.3,0-2.3-1-2.3-2.3l-0.1-19.4c0-1.3,1-2.3,2.3-2.3c0,0,0,0,0,0c1.3,0,2.3,1,2.3,2.3l0.1,19.4
				C279.3,372.3,278.2,373.4,276.9,373.4C276.9,373.4,276.9,373.4,276.9,373.4z"/>
		</g>
	</g>
	<g>
		<g>
			<path class="st2" d="M309.1,475l-107.8,0.3c-0.3,0-0.6,0.3-0.6,0.6l0,9.8c0,0.3,0.3,0.6,0.6,0.6l107.8-0.3c0.3,0,0.6-0.3,0.6-0.6
				l0-9.8C309.7,475.2,309.4,475,309.1,475z"/>
		</g>
		<g>
			<path class="st3" d="M306.8,485.9l-103,0.3c-1.6,0-2.9-1.3-2.9-2.9l0-2.9c0,1.6,1.3,2.9,2.9,2.9l103-0.3c1.6,0,2.9-1.3,2.9-2.9
				l0,2.9C309.7,484.6,308.4,485.9,306.8,485.9z"/>
		</g>
		<g>
			<path class="st4" d="M306.8,475l-103,0.3c-1.6,0-2.9,1.3-2.9,2.9l0,2.9c0-1.6,1.3-2.9,2.9-2.9l103-0.3c1.6,0,2.9,1.3,2.9,2.9
				l0-2.9C309.7,476.3,308.4,475,306.8,475z"/>
		</g>
	</g>
	<g>
		<g>
			<path class="st2" d="M308.9,414.1l-107.8,0.3c-0.3,0-0.6,0.3-0.6,0.6l0,9.8c0,0.3,0.3,0.6,0.6,0.6L309,425c0.3,0,0.6-0.3,0.6-0.6
				l0-9.8C309.5,414.3,309.3,414.1,308.9,414.1z"/>
		</g>
		<g>
			<path class="st3" d="M306.6,425l-103,0.3c-1.6,0-2.9-1.3-2.9-2.9l0-2.9c0,1.6,1.3,2.9,2.9,2.9l103-0.3c1.6,0,2.9-1.3,2.9-2.9
				l0,2.9C309.5,423.7,308.2,425,306.6,425z"/>
		</g>
		<g>
			<path class="st4" d="M306.6,414.1l-103,0.3c-1.6,0-2.9,1.3-2.9,2.9l0,2.9c0-1.6,1.3-2.9,2.9-2.9l103-0.3c1.6,0,2.9,1.3,2.9,2.9
				l0-2.9C309.5,415.4,308.2,414.1,306.6,414.1z"/>
		</g>
	</g>
	<g>
		
			<ellipse transform="matrix(0.5432 -0.8396 0.8396 0.5432 -92.0622 327.0892)" class="st1" cx="254.6" cy="248.2" rx="93" ry="93"/>
	</g>
	<g>
		<g>
			<path class="st2" d="M254.6,253.5c-3,0-5.4-2.4-5.4-5.3c0-3,2.4-5.4,5.3-5.4c3,0,5.4,2.4,5.4,5.3
				C259.9,251.1,257.6,253.5,254.6,253.5z M254.6,244.7c-1.9,0-3.5,1.6-3.5,3.5c0,1.9,1.6,3.5,3.5,3.5c1.9,0,3.5-1.6,3.5-3.5
				C258.1,246.2,256.5,244.7,254.6,244.7z"/>
		</g>
	</g>
	<g>
		<g>
			<path class="st2" d="M254.8,331.9c-46.2,0.1-83.9-37.3-84-83.5c-0.1-46.2,37.3-83.9,83.5-84c46.2-0.1,83.9,37.3,84,83.5
				C338.5,294.1,301,331.8,254.8,331.9z M254.3,167.8c-44.3,0.1-80.2,36.3-80.1,80.5c0.1,44.3,36.3,80.2,80.5,80.1
				c44.3-0.1,80.2-36.3,80.1-80.5C334.8,203.6,298.6,167.7,254.3,167.8z"/>
		</g>
	</g>
	<g>
		<path class="st2" d="M254.6,243.8c0,0-0.6-3.1-1-7.8c-0.4-4.7-0.8-10.9-0.8-17.2c0-6.2,0.3-12.5,0.7-17.2c0.4-4.7,1-7.8,1-7.8
			s0.6,3.1,1,7.8c0.4,4.7,0.8,10.9,0.8,17.2c0,6.2-0.3,12.5-0.7,17.2C255.1,240.7,254.6,243.8,254.6,243.8z"/>
	</g>
	<g>
		<path class="st2" d="M258.8,248.1c0,0,2.3-0.6,5.6-1c3.4-0.4,7.9-0.7,12.4-0.8c4.5,0,9,0.3,12.4,0.7c3.4,0.4,5.6,1,5.6,1
			s-2.3,0.6-5.6,1c-3.4,0.4-7.9,0.7-12.4,0.8c-4.5,0-9-0.3-12.4-0.7C261.1,248.7,258.8,248.1,258.8,248.1z"/>
	</g>
	<g>
		<g>
			<path class="st2" d="M254.9,359.8c-61.6,0.2-111.8-49.8-112-111.4c-0.2-61.6,49.8-111.8,111.4-112c61.6-0.2,111.8,49.8,112,111.4
				C366.4,309.4,316.5,359.7,254.9,359.8z M254.3,150.2c-54,0.2-97.8,44.2-97.7,98.2c0.2,54,44.2,97.8,98.2,97.7
				c54-0.2,97.8-44.2,97.7-98.2C352.4,193.9,308.3,150,254.3,150.2z"/>
		</g>
	</g>
	<g>
		<g>
			<path class="st2" d="M209.9,27c-1.3,0-2.3-1-2.3-2.3l0-9.7c0-1.3,1-2.3,2.3-2.3c0,0,0,0,0,0c1.3,0,2.3,1,2.3,2.3l0,9.7
				C212.3,26,211.2,27,209.9,27C209.9,27,209.9,27,209.9,27z"/>
		</g>
		<g>
			<path class="st2" d="M210,47.1c-5.4,0-9.7-4.4-9.8-9.7l0-11.2c0-2.6,1-5.1,2.8-6.9c1.8-1.8,4.3-2.9,6.9-2.9
				c5.4,0,9.8,4.4,9.8,9.7l0,11.3c0,2.6-1,5.1-2.8,6.9C215,46.1,212.6,47.1,210,47.1L210,47.1z M209.9,21.1c-1.4,0-2.6,0.5-3.6,1.5
				c-1,1-1.5,2.2-1.5,3.6l0,11.2c0,2.8,2.3,5.1,5.1,5.1v2.3l0-2.3c1.4,0,2.6-0.5,3.6-1.5c1-1,1.5-2.2,1.5-3.6l0-11.3
				C215,23.3,212.7,21.1,209.9,21.1z"/>
		</g>
		<g>
			<path class="st2" d="M210,57c-1.3,0-2.3-1-2.3-2.3l-0.1-19.4c0-1.3,1-2.3,2.3-2.3c0,0,0,0,0,0c1.3,0,2.3,1,2.3,2.3l0.1,19.4
				C212.4,56,211.3,57,210,57C210,57,210,57,210,57z"/>
		</g>
		<g>
			<path class="st2" d="M210,77.1c-5.4,0-9.7-4.4-9.8-9.7l0-11.3c0-2.6,1-5.1,2.8-6.9c1.8-1.8,4.3-2.9,6.9-2.9
				c5.4,0,9.8,4.4,9.8,9.7l0,11.3c0,2.6-1,5.1-2.8,6.9C215.1,76.1,212.7,77.1,210,77.1L210,77.1z M210,51.1c-1.4,0-2.6,0.5-3.6,1.5
				c-1,1-1.5,2.2-1.5,3.6l0,11.3c0,2.8,2.3,5.1,5.1,5.1v2.3l0-2.3c1.4,0,2.6-0.5,3.6-1.5c1-1,1.5-2.2,1.5-3.6l0-11.3
				C215.1,53.3,212.8,51.1,210,51.1z"/>
		</g>
		<g>
			<path class="st2" d="M210.1,87.1c-1.3,0-2.3-1-2.3-2.3l-0.1-19.4c0-1.3,1-2.3,2.3-2.3c0,0,0,0,0,0c1.3,0,2.3,1,2.3,2.3l0.1,19.4
				C212.4,86,211.6,87.2,210.1,87.1z"/>
		</g>
		<g>
			<path class="st2" d="M210.1,107.2c-5.4,0-9.7-4.4-9.8-9.7l0-11.2c0-2.6,1-5.1,2.8-6.9c1.8-1.8,4.3-2.9,6.9-2.9
				c5.4,0,9.8,4.4,9.8,9.7l0,11.3c0,2.6-1,5.1-2.8,6.9C215.2,106.1,212.8,107.2,210.1,107.2L210.1,107.2z M210.1,81.1
				c-1.4,0-2.6,0.5-3.6,1.5c-1,1-1.5,2.2-1.5,3.6l0,11.2c0,2.8,2.3,5.1,5.1,5.1v2.3l0-2.3c1.4,0,2.6-0.5,3.6-1.5
				c1-1,1.5-2.2,1.5-3.6l0-11.3C215.2,83.4,212.9,81.1,210.1,81.1z"/>
		</g>
		<g>
			<path class="st2" d="M210.2,117.1c-1.3,0-2.3-1-2.3-2.3l-0.1-19.4c0-1.3,1-2.3,2.3-2.3c0,0,0,0,0,0c1.3,0,2.3,1,2.3,2.3l0.1,19.4
				C212.5,116,211.6,117,210.2,117.1z"/>
		</g>
		<g>
			<path class="st2" d="M210.2,137.2c-5.4,0-9.7-4.4-9.7-9.7l0-11.3c0-2.6,1-5.1,2.8-6.9c1.8-1.8,4.3-2.9,6.9-2.9
				c5.4,0,9.8,4.4,9.8,9.7l0,11.3c0,2.6-1,5.1-2.8,6.9C215.3,136.2,212.8,137.2,210.2,137.2L210.2,137.2z M210.2,111.1
				c-1.4,0-2.6,0.5-3.6,1.5c-1,1-1.5,2.2-1.5,3.6l0,11.3c0,2.8,2.3,5.1,5.1,5.1v2.3l0-2.3c1.4,0,2.6-0.5,3.6-1.5
				c1-1,1.5-2.2,1.5-3.6l0-11.3C215.2,113.4,213,111.1,210.2,111.1z"/>
		</g>
		<g>
			<path class="st2" d="M210.3,147.1c-1.3,0-2.3-1-2.3-2.3l-0.1-19.4c0-1.3,1-2.3,2.3-2.3c0,0,0,0,0,0c1.3,0,2.3,1,2.3,2.3l0.1,19.4
				C212.6,146,211.4,147.1,210.3,147.1z"/>
		</g>
	</g>
	<g>
		<g>
			<path class="st2" d="M231.9,27c-1.3,0-2.3-1-2.3-2.3l0-9.7c0-1.3,1-2.3,2.3-2.3c0,0,0,0,0,0c1.3,0,2.3,1,2.3,2.3l0,9.7
				C234.3,25.9,233.2,27,231.9,27C231.9,27,231.9,27,231.9,27z"/>
		</g>
		<g>
			<path class="st2" d="M232,47.1c-5.4,0-9.7-4.4-9.8-9.7l0-11.3c0-2.6,1-5.1,2.8-6.9c1.8-1.8,4.3-2.9,6.9-2.9
				c5.4,0,9.8,4.4,9.8,9.7l0,11.3c0,2.6-1,5.1-2.8,6.9C237,46,234.6,47.1,232,47.1L232,47.1z M231.9,21c-1.4,0-2.6,0.5-3.6,1.5
				c-1,1-1.5,2.2-1.5,3.6l0,11.3c0,2.8,2.3,5.1,5.1,5.1v2.3l0-2.3c1.4,0,2.6-0.5,3.6-1.5c1-1,1.5-2.2,1.5-3.6l0-11.3
				C237,23.3,234.7,21,231.9,21z"/>
		</g>
		<g>
			<path class="st2" d="M232,57c-1.3,0-2.3-1-2.3-2.3l-0.1-19.4c0-1.3,1-2.3,2.3-2.3c0,0,0,0,0,0c1.3,0,2.3,1,2.3,2.3l0.1,19.4
				C234.4,55.9,233.3,57,232,57C232,57,232,57,232,57z"/>
		</g>
		<g>
			<path class="st2" d="M232.1,77.1c-5.4,0-9.7-4.4-9.8-9.7l0-11.3c0-2.6,1-5.1,2.8-6.9c1.8-1.8,4.3-2.9,6.9-2.9
				c5.4,0,9.8,4.4,9.8,9.7l0,11.2c0,2.6-1,5.1-2.8,6.9C237.1,76.1,234.7,77.1,232.1,77.1L232.1,77.1z M232,51
				c-1.4,0-2.6,0.5-3.6,1.5c-1,1-1.5,2.2-1.5,3.6l0,11.3c0,2.8,2.3,5.1,5.1,5.1v2.3l0-2.3c1.4,0,2.6-0.5,3.6-1.5
				c1-1,1.5-2.2,1.5-3.6l0-11.2C237.1,53.3,234.8,51,232,51z"/>
		</g>
		<g>
			<path class="st2" d="M232.1,87c-1.3,0-2.3-1-2.3-2.3l-0.1-19.4c0-1.3,1.2-2.4,2.3-2.3c1.3,0,2.3,1,2.3,2.3l0.1,19.4
				C234.4,85.9,233.4,87,232.1,87C232.1,87,232.1,87,232.1,87z"/>
		</g>
		<g>
			<path class="st2" d="M232.1,107.1c-5.4,0-9.7-4.4-9.8-9.7l0-11.3c0-5.4,4.3-9.8,9.7-9.8c5.4,0,9.8,4.4,9.8,9.7l0,11.3
				c0,2.6-1,5.1-2.8,6.9C237.2,106.1,234.8,107.1,232.1,107.1L232.1,107.1z M232.1,81c-2.8,0-5.1,2.3-5.1,5.1l0,11.3
				c0,2.8,2.3,5.1,5.1,5.1v2.3l0-2.3c1.4,0,2.6-0.5,3.6-1.5c1-1,1.5-2.2,1.5-3.6l0-11.3C237.2,83.3,234.9,81,232.1,81z"/>
		</g>
		<g>
			<path class="st2" d="M232.2,117c-1.3,0-2.3-1-2.3-2.3l-0.1-19.4c0-1.3,1-2.3,2.3-2.3c0,0,0,0,0,0c1.3,0,2.3,1,2.3,2.3l0.1,19.4
				C234.5,116,233.5,117,232.2,117C232.2,117,232.2,117,232.2,117z"/>
		</g>
		<g>
			<path class="st2" d="M232.2,137.1c-5.4,0-9.7-4.4-9.8-9.7l0-11.3c0-2.6,1-5.1,2.8-6.9c1.8-1.8,4.3-2.9,6.9-2.9
				c5.4,0,9.8,4.4,9.8,9.7l0,11.2c0,2.6-1,5.1-2.8,6.9C237.3,136.1,234.9,137.1,232.2,137.1L232.2,137.1z M232.2,111
				c-1.4,0-2.6,0.5-3.6,1.5c-1,1-1.5,2.2-1.5,3.6l0,11.3c0,2.8,2.3,5.1,5.1,5.1v2.3l0-2.3c1.4,0,2.6-0.5,3.6-1.5
				c1-1,1.5-2.2,1.5-3.6l0-11.2C237.3,113.3,235,111,232.2,111z"/>
		</g>
		<g>
			<path class="st2" d="M232.3,147c-1.3,0-2.3-1-2.3-2.3l-0.1-19.4c0-1.3,1-2.3,2.3-2.3c0,0,0,0,0,0c1.3,0,2.3,1,2.3,2.3l0.1,19.4
				C234.6,146,233.6,147,232.3,147C232.3,147,232.3,147,232.3,147z"/>
		</g>
	</g>
	<g>
		<g>
			<path class="st2" d="M298,26.8c-1.3,0-2.3-1-2.3-2.3l0-9.7c0-1.3,1-2.3,2.3-2.3c0,0,0,0,0,0c1.3,0,2.3,1,2.3,2.3l0,9.7
				C300.3,25.7,299.2,26.8,298,26.8C298,26.8,298,26.8,298,26.8z"/>
		</g>
		<g>
			<path class="st2" d="M298,46.9c-5.4,0-9.7-4.4-9.8-9.7l0-11.3c0-2.6,1-5.1,2.8-6.9c1.8-1.8,4.3-2.9,6.9-2.9
				c5.4,0,9.8,4.4,9.8,9.7l0,11.2c0,2.6-1,5.1-2.8,6.9C303.1,45.8,300.6,46.9,298,46.9L298,46.9z M298,20.8c-1.4,0-2.6,0.5-3.6,1.5
				c-1,1-1.5,2.2-1.5,3.6l0,11.3c0,2.8,2.3,5.1,5.1,5.1v2.3l0-2.3c1.4,0,2.6-0.5,3.6-1.5c1-1,1.5-2.2,1.5-3.6l0-11.2
				C303,23.1,300.7,20.8,298,20.8z"/>
		</g>
		<g>
			<path class="st2" d="M298,56.8c-1.3,0-2.3-1-2.3-2.3L295.6,35c0-1.3,1-2.3,2.3-2.3c0,0,0,0,0,0c1.3,0,2.3,1,2.3,2.3l0.1,19.4
				C300.4,55.7,299.3,56.8,298,56.8C298,56.8,298,56.8,298,56.8z"/>
		</g>
		<g>
			<path class="st2" d="M298.1,76.9c-5.4,0-9.7-4.4-9.7-9.7l0-11.3c0-2.6,1-5.1,2.8-6.9c1.8-1.8,4.3-2.9,6.9-2.9
				c5.4,0,9.8,4.4,9.8,9.7l0,11.3c0,2.6-1,5.1-2.8,6.9C303.2,75.9,300.7,76.9,298.1,76.9L298.1,76.9z M298,50.8
				c-1.4,0-2.6,0.5-3.6,1.5c-1,1-1.5,2.2-1.5,3.6l0,11.3c0,2.8,2.3,5.1,5.1,5.1v2.3l0-2.3c1.4,0,2.6-0.5,3.6-1.5
				c1-1,1.5-2.2,1.5-3.6l0-11.3C303.1,53.1,300.8,50.8,298,50.8z"/>
		</g>
		<g>
			<path class="st2" d="M298.1,86.8c-1.3,0-2.3-1-2.3-2.3L295.7,65c0-1.3,1-2.3,2.3-2.3c0,0,0,0,0,0c1.3,0,2.3,1,2.3,2.3l0.1,19.4
				C300.5,85.7,299.4,86.8,298.1,86.8C298.1,86.8,298.1,86.8,298.1,86.8z"/>
		</g>
		<g>
			<path class="st2" d="M298.2,106.9c-5.4,0-9.7-4.4-9.8-9.7l0-11.3c0-2.6,1-5.1,2.8-6.9c1.8-1.8,4.3-2.9,6.9-2.9
				c5.4,0,9.8,4.4,9.8,9.7l0,11.2c0,2.6-1,5.1-2.8,6.9C303.2,105.9,300.8,106.9,298.2,106.9L298.2,106.9z M298.1,80.8
				c-1.4,0-2.6,0.5-3.6,1.5c-1,1-1.5,2.2-1.5,3.6l0,11.3c0,2.8,2.3,5.1,5.1,5.1v2.3l0-2.3c1.4,0,2.6-0.5,3.6-1.5
				c1-1,1.5-2.2,1.5-3.6l0-11.2C303.2,83.1,300.9,80.8,298.1,80.8z"/>
		</g>
		<g>
			<path class="st2" d="M298.2,116.8c-1.3,0-2.3-1-2.3-2.3l-0.1-19.4c0-1.3,1-2.3,2.3-2.3c0,0,0,0,0,0c1.3,0,2.3,1,2.3,2.3l0.1,19.4
				C300.6,115.8,299.6,117,298.2,116.8z"/>
		</g>
		<g>
			<path class="st2" d="M298.2,136.9c-5.4,0-9.7-4.4-9.8-9.7l0-11.3c0-2.6,1-5.1,2.8-6.9c1.8-1.8,4.3-2.9,6.9-2.9
				c5.4,0,9.8,4.4,9.8,9.7l0,11.3c0,2.6-1,5.1-2.8,6.9C303.3,135.9,300.9,136.9,298.2,136.9L298.2,136.9z M298.2,110.9
				c-1.4,0-2.6,0.5-3.6,1.5c-1,1-1.5,2.2-1.5,3.6l0,11.3c0,2.8,2.3,5.1,5.1,5.1v2.3l0-2.3c1.4,0,2.6-0.5,3.6-1.5
				c1-1,1.5-2.2,1.5-3.6l0-11.3C303.3,113.1,301,110.9,298.2,110.9z"/>
		</g>
		<g>
			<path class="st2" d="M298.3,146.8c-1.3,0-2.3-1-2.3-2.3l-0.1-19.4c0-1.3,1-2.3,2.3-2.3c0,0,0,0,0,0c1.3,0,2.3,1,2.3,2.3l0.1,19.4
				C300.6,145.8,299.6,146.7,298.3,146.8z"/>
		</g>
	</g>
	<g>
		<g>
			<path class="st2" d="M253.9,26.9c-1.3,0-2.3-1-2.3-2.3l0-9.7c0-1.3,1-2.3,2.3-2.3c0,0,0,0,0,0c1.3,0,2.3,1,2.3,2.3l0,9.7
				C256.3,25.8,255.2,26.9,253.9,26.9C253.9,26.9,253.9,26.9,253.9,26.9z"/>
		</g>
		<g>
			<path class="st2" d="M254,47c-5.4,0-9.7-4.4-9.8-9.7l0-11.3c0-2.6,1-5.1,2.8-6.9c1.8-1.8,4.3-2.9,6.9-2.9c5.4,0,9.8,4.4,9.8,9.7
				l0,11.3c0,2.6-1,5.1-2.8,6.9C259.1,46,256.6,47,254,47L254,47z M253.9,20.9c-1.4,0-2.6,0.5-3.6,1.5c-1,1-1.5,2.2-1.5,3.6l0,11.3
				c0,2.8,2.3,5.1,5.1,5.1v2.3l0-2.3c1.4,0,2.6-0.5,3.6-1.5c1-1,1.5-2.2,1.5-3.6l0-11.3C259,23.2,256.7,20.9,253.9,20.9z"/>
		</g>
		<g>
			<path class="st2" d="M254,56.9c-1.3,0-2.3-1-2.3-2.3l-0.1-19.4c0-1.3,1-2.3,2.3-2.3c0,0,0,0,0,0c1.3,0,2.3,1,2.3,2.3l0.1,19.4
				C256.4,55.9,255.3,56.9,254,56.9C254,56.9,254,56.9,254,56.9z"/>
		</g>
		<g>
			<path class="st2" d="M254.1,77c-5.4,0-9.7-4.4-9.8-9.7l0-11.3c0-2.6,1-5.1,2.8-6.9c1.8-1.8,4.3-2.9,6.9-2.9
				c5.4,0,9.8,4.4,9.8,9.7l0,11.3c0,2.6-1,5.1-2.8,6.9C259.1,76,256.7,77,254.1,77L254.1,77z M254,50.9c-1.4,0-2.6,0.5-3.6,1.5
				c-1,1-1.5,2.2-1.5,3.6l0,11.3c0,2.8,2.3,5.1,5.1,5.1v2.3l0-2.3c1.4,0,2.6-0.5,3.6-1.5c1-1,1.5-2.2,1.5-3.6l0-11.3
				C259.1,53.2,256.8,50.9,254,50.9z"/>
		</g>
		<g>
			<path class="st2" d="M254.1,86.9c-1.3,0-2.3-1-2.3-2.3l-0.1-19.4c0-1.3,1.2-2.3,2.3-2.3c1.3,0,2.3,1,2.3,2.3l0.1,19.4
				C256.5,85.9,255.4,86.9,254.1,86.9C254.1,86.9,254.1,86.9,254.1,86.9z"/>
		</g>
		<g>
			<path class="st2" d="M254.1,107c-5.4,0-9.7-4.4-9.7-9.7l0-11.3c0-5.4,4.3-9.8,9.7-9.8c5.4,0,9.8,4.4,9.8,9.7l0,11.3
				c0,2.6-1,5.1-2.8,6.9C259.2,106,256.8,107,254.1,107L254.1,107z M254.1,81c-2.8,0-5.1,2.3-5.1,5.1l0,11.3c0,2.8,2.3,5.1,5.1,5.1
				v2.3l0-2.3c1.4,0,2.6-0.5,3.6-1.5c1-1,1.5-2.2,1.5-3.6l0-11.3C259.2,83.2,256.9,81,254.1,81z"/>
		</g>
		<g>
			<path class="st2" d="M254.2,116.9c-1.3,0-2.3-1-2.3-2.3l-0.1-19.4c0-1.3,1.1-2.5,2.3-2.3c1.3,0,2.3,1,2.3,2.3l0.1,19.4
				C256.5,115.9,255.5,116.9,254.2,116.9C254.2,116.9,254.2,116.9,254.2,116.9z"/>
		</g>
		<g>
			<path class="st2" d="M254.2,137.1c-5.4,0-9.7-4.4-9.8-9.7l0-11.3c0-2.6,1-5.1,2.8-6.9c1.8-1.8,4.3-2.9,6.9-2.9
				c5.4,0,9.8,4.4,9.8,9.7l0,11.3c0,2.6-1,5.1-2.8,6.9C259.3,136,256.9,137,254.2,137.1L254.2,137.1z M254.2,111
				c-1.4,0-2.6,0.5-3.6,1.5c-1,1-1.5,2.2-1.5,3.6l0,11.3c0,2.8,2.3,5.1,5.1,5.1v2.3l0-2.3c1.4,0,2.6-0.5,3.6-1.5
				c1-1,1.5-2.2,1.5-3.6l0-11.3C259.3,113.2,257,111,254.2,111z"/>
		</g>
		<g>
			<path class="st2" d="M254.3,147c-1.3,0-2.3-1-2.3-2.3l-0.1-19.4c0-1.3,1-2.3,2.3-2.3c0,0,0,0,0,0c1.3,0,2.3,1,2.3,2.3l0.1,19.4
				C256.6,145.9,255.5,147.1,254.3,147z"/>
		</g>
	</g>
	<g>
		<g>
			<path class="st2" d="M275.9,26.8c-1.3,0-2.3-1-2.3-2.3l0-9.7c0-1.3,1-2.3,2.3-2.3c0,0,0,0,0,0c1.3,0,2.3,1,2.3,2.3l0,9.7
				C278.3,25.8,277.2,26.8,275.9,26.8C275.9,26.8,275.9,26.8,275.9,26.8z"/>
		</g>
		<g>
			<path class="st2" d="M276,46.9c-5.4,0-9.7-4.4-9.8-9.7l0-11.3c0-2.6,1-5.1,2.8-6.9c1.8-1.8,4.3-2.9,6.9-2.9
				c5.4,0,9.8,4.4,9.8,9.7l0,11.3C285.8,42.5,281.4,46.9,276,46.9L276,46.9z M275.9,20.9c-1.4,0-2.6,0.5-3.6,1.5
				c-1,1-1.5,2.2-1.5,3.6l0,11.3c0,2.8,2.3,5.1,5.1,5.1v2.3l0-2.3c2.8,0,5.1-2.3,5.1-5.1l0-11.3C281,23.1,278.7,20.9,275.9,20.9z"/>
		</g>
		<g>
			<path class="st2" d="M276,56.9c-1.3,0-2.3-1-2.3-2.3l-0.1-19.4c0-1.3,1-2.3,2.3-2.3c0,0,0,0,0,0c1.3,0,2.3,1,2.3,2.3l0.1,19.4
				C278.4,55.8,277.3,56.8,276,56.9C276,56.9,276,56.9,276,56.9z"/>
		</g>
		<g>
			<path class="st2" d="M276.1,77c-5.4,0-9.7-4.4-9.8-9.7l0-11.2c0-2.6,1-5.1,2.8-6.9c1.8-1.8,4.3-2.9,6.9-2.9
				c5.4,0,9.8,4.4,9.8,9.7l0,11.3c0,2.6-1,5.1-2.8,6.9C281.1,75.9,278.7,76.9,276.1,77L276.1,77z M276,50.9c-1.4,0-2.6,0.5-3.6,1.5
				c-1,1-1.5,2.2-1.5,3.6l0,11.2c0,2.8,2.3,5.1,5.1,5.1v2.3l0-2.3c1.4,0,2.6-0.5,3.6-1.5c1-1,1.5-2.2,1.5-3.6l0-11.3
				C281.1,53.1,278.8,50.9,276,50.9z"/>
		</g>
		<g>
			<path class="st2" d="M276.1,86.9c-1.3,0-2.3-1-2.3-2.3l-0.1-19.4c0-1.3,1-2.3,2.3-2.3c0,0,0,0,0,0c1.3,0,2.3,1,2.3,2.3l0.1,19.4
				C278.5,85.8,277.4,86.9,276.1,86.9C276.1,86.9,276.1,86.9,276.1,86.9z"/>
		</g>
		<g>
			<path class="st2" d="M276.2,107c-5.4,0-9.7-4.4-9.8-9.7l0-11.3c0-2.6,1-5.1,2.8-6.9c1.8-1.8,4.3-2.9,6.9-2.9
				c5.4,0,9.8,4.4,9.8,9.7l0,11.3c0,2.6-1,5.1-2.8,6.9C281.2,105.9,278.8,107,276.2,107L276.2,107z M276.1,80.9
				c-1.4,0-2.6,0.5-3.6,1.5c-1,1-1.5,2.2-1.5,3.6l0,11.3c0,2.8,2.3,5.1,5.1,5.1v2.3l0-2.3c1.4,0,2.6-0.5,3.6-1.5
				c1-1,1.5-2.2,1.5-3.6l0-11.3C281.2,83.2,278.9,80.9,276.1,80.9z"/>
		</g>
		<g>
			<path class="st2" d="M276.2,116.9c-1.3,0-2.3-1-2.3-2.3l-0.1-19.4c0-1.3,1-2.3,2.3-2.3c0,0,0,0,0,0c1.3,0,2.3,1,2.3,2.3l0.1,19.4
				C278.5,115.8,277.6,117,276.2,116.9z"/>
		</g>
		<g>
			<path class="st2" d="M276.2,137c-5.4,0-9.7-4.4-9.8-9.7l0-11.2c0-2.6,1-5.1,2.8-6.9c1.8-1.8,4.3-2.9,6.9-2.9
				c5.4,0,9.8,4.4,9.8,9.7l0,11.3c0,2.6-1,5.1-2.8,6.9C281.3,136,278.9,137,276.2,137L276.2,137z M276.2,110.9
				c-1.4,0-2.6,0.5-3.6,1.5c-1,1-1.5,2.2-1.5,3.6l0,11.2c0,2.8,2.3,5.1,5.1,5.1v2.3l0-2.3c1.4,0,2.6-0.5,3.6-1.5
				c1-1,1.5-2.2,1.5-3.6l0-11.3C281.3,113.2,279,110.9,276.2,110.9z"/>
		</g>
		<g>
			<path class="st2" d="M276.3,146.9c-1.3,0-2.3-1-2.3-2.3l-0.1-19.4c0-1.3,1-2.3,2.3-2.3c0,0,0,0,0,0c1.3,0,2.3,1,2.3,2.3l0.1,19.4
				C278.6,145.9,277.6,146.7,276.3,146.9z"/>
		</g>
	</g>
	<g>
		<g>
			<path class="st2" d="M307.8,21L200,21.3c-0.3,0-0.6-0.2-0.6-0.6l0-9.8c0-0.3,0.2-0.6,0.6-0.6l107.8-0.3c0.3,0,0.6,0.2,0.6,0.6
				l0,9.8C308.4,20.8,308.1,21,307.8,21z"/>
		</g>
		<g>
			<path class="st3" d="M305.4,10.1l-103,0.3c-1.6,0-2.9,1.3-2.9,2.9l0,2.9c0-1.6,1.3-2.9,2.9-2.9l103-0.3c1.6,0,2.9,1.3,2.9,2.9
				l0-2.9C308.3,11.4,307,10.1,305.4,10.1z"/>
		</g>
		<g>
			<path class="st4" d="M305.4,21l-103,0.3c-1.6,0-2.9-1.3-2.9-2.9l0-2.9c0,1.6,1.3,2.9,2.9,2.9l103-0.3c1.6,0,2.9-1.3,2.9-2.9
				l0,2.9C308.4,19.7,307.1,21,305.4,21z"/>
		</g>
	</g>
	<g>
		<g>
			<path class="st2" d="M308,81.9l-107.8,0.3c-0.3,0-0.6-0.2-0.6-0.6l0-9.8c0-0.3,0.2-0.6,0.6-0.6L308,71c0.3,0,0.6,0.2,0.6,0.6
				l0,9.8C308.5,81.7,308.3,81.9,308,81.9z"/>
		</g>
		<g>
			<path class="st3" d="M305.6,71l-103,0.3c-1.6,0-2.9,1.3-2.9,2.9l0,2.9c0-1.6,1.3-2.9,2.9-2.9l103-0.3c1.6,0,2.9,1.3,2.9,2.9
				l0-2.9C308.5,72.3,307.2,71,305.6,71z"/>
		</g>
		<g>
			<path class="st4" d="M305.6,81.9l-103,0.3c-1.6,0-2.9-1.3-2.9-2.9l0-2.9c0,1.6,1.3,2.9,2.9,2.9l103-0.3c1.6,0,2.9-1.3,2.9-2.9
				l0,2.9C308.5,80.6,307.2,81.9,305.6,81.9z"/>
		</g>
	</g>
	<g>
		<path class="st2" d="M256.3,171.6l-3.9,0c-0.3,0-0.5-0.2-0.5-0.5l0-5.6l5,0l0,5.6C256.9,171.4,256.6,171.6,256.3,171.6z"/>
	</g>
	<g>
		<path class="st2" d="M256.8,324.7l-3.9,0c-0.3,0-0.5,0.2-0.5,0.5l0,5.6l5,0l0-5.6C257.3,324.9,257.1,324.7,256.8,324.7z"/>
	</g>
	<g>
		<path class="st2" d="M178.1,246.4l0,3.9c0,0.3-0.2,0.5-0.5,0.5l-5.6,0l0-5l5.6,0C177.8,245.9,178.1,246.1,178.1,246.4z"/>
	</g>
	<g>
		<path class="st2" d="M331.1,246l0,3.9c0,0.3,0.2,0.5,0.5,0.5l5.6,0l0-5l-5.6,0C331.3,245.4,331.1,245.7,331.1,246z"/>
	</g>
	<g>
		<path class="st2" d="M201.7,192.8l-2.8,2.8c-0.2,0.2-0.5,0.2-0.8,0l-3.9-3.9l3.5-3.5l3.9,3.9C201.9,192.3,201.9,192.6,201.7,192.8
			z"/>
	</g>
	<g>
		<path class="st2" d="M310.2,300.7l-2.8,2.8c-0.2,0.2-0.2,0.5,0,0.8l3.9,3.9l3.5-3.5l-3.9-3.9C310.8,300.5,310.4,300.5,310.2,300.7
			z"/>
	</g>
	<g>
		<path class="st2" d="M199.2,301l2.8,2.8c0.2,0.2,0.2,0.5,0,0.8l-3.9,3.9l-3.5-3.5l3.9-3.9C198.7,300.8,199,300.8,199.2,301z"/>
	</g>
	<g>
		<path class="st2" d="M307.1,192.5l2.8,2.8c0.2,0.2,0.5,0.2,0.8,0l3.9-3.9l-3.5-3.5l-3.9,3.9C306.9,192,306.9,192.3,307.1,192.5z"
			/>
	</g>
	<path class="st5" d="M381.4,258h-14.1c-0.1,0-0.2-0.1-0.2-0.2v-19.9c0-0.1,0.1-0.2,0.2-0.2h14.1c0.1,0,0.2,0.1,0.2,0.2v19.9
		C381.6,257.9,381.5,258,381.4,258z"/>
	<path class="st6" d="M380.7,239.9h-12.9c-0.1,0-0.2-0.1-0.2-0.2v-1.8c0-0.1,0.1-0.2,0.2-0.2h12.9c0.1,0,0.2,0.1,0.2,0.2v1.8
		C381,239.8,380.9,239.9,380.7,239.9z"/>
	<path class="st6" d="M380.7,242.9h-12.9c-0.1,0-0.2-0.1-0.2-0.2v-1.8c0-0.1,0.1-0.2,0.2-0.2h12.9c0.1,0,0.2,0.1,0.2,0.2v1.8
		C381,242.8,380.9,242.9,380.7,242.9z"/>
	<path class="st6" d="M380.7,245.9h-12.9c-0.1,0-0.2-0.1-0.2-0.2v-1.8c0-0.1,0.1-0.2,0.2-0.2h12.9c0.1,0,0.2,0.1,0.2,0.2v1.8
		C381,245.8,380.9,245.9,380.7,245.9z"/>
	<path class="st6" d="M380.7,248.9h-12.9c-0.1,0-0.2-0.1-0.2-0.2v-1.8c0-0.1,0.1-0.2,0.2-0.2h12.9c0.1,0,0.2,0.1,0.2,0.2v1.8
		C381,248.8,380.9,248.9,380.7,248.9z"/>
	<path class="st6" d="M380.7,252h-12.9c-0.1,0-0.2-0.1-0.2-0.2V250c0-0.1,0.1-0.2,0.2-0.2h12.9c0.1,0,0.2,0.1,0.2,0.2v1.8
		C381,251.9,380.9,252,380.7,252z"/>
	<path class="st6" d="M380.7,255h-12.9c-0.1,0-0.2-0.1-0.2-0.2V253c0-0.1,0.1-0.2,0.2-0.2h12.9c0.1,0,0.2,0.1,0.2,0.2v1.8
		C381,254.9,380.9,255,380.7,255z"/>
	<path class="st6" d="M380.7,258h-12.9c-0.1,0-0.2-0.1-0.2-0.2V256c0-0.1,0.1-0.2,0.2-0.2h12.9c0.1,0,0.2,0.1,0.2,0.2v1.8
		C381,257.9,380.9,258,380.7,258z"/>
</g>
</svg>
