<?xml version="1.0" encoding="utf-8"?>
<!-- Generator: Adobe Illustrator 24.0.2, SVG Export Plug-In . SVG Version: 6.00 Build 0)  -->
<svg version="1.1" id="Layer_1" xmlns="http://www.w3.org/2000/svg" xmlns:xlink="http://www.w3.org/1999/xlink" x="0px" y="0px"
	 viewBox="0 0 500 500" style="enable-background:new 0 0 500 500;" xml:space="preserve">
<style type="text/css">
	.st0{fill-rule:evenodd;clip-rule:evenodd;fill:#878795;}
	.st1{fill-rule:evenodd;clip-rule:evenodd;fill:#5A5A6C;}
	.st2{fill-rule:evenodd;clip-rule:evenodd;fill:#303139;}
	.st3{fill-rule:evenodd;clip-rule:evenodd;fill:#BDBDCA;}
</style>
<g>
	<path class="st0" d="M186.1,19c-2.2,9.3-6.1,31.7-6.9,53c-0.9,21.3,0,45.2,10,86.6c10,41.4,21,73.4,17.7,113.6
		c-3.3,40.2-1.7,70.7-1.7,108.6c0,37.9,4.9,94.6,4.9,98.9c0,4.3,3.2,3.6,22.2,3.2c19-0.4,23,3.2,23-5.4c0-8.6,0-103,0-130.1
		c0-27,0.4-62.3,1.2-78.2c0.8-15.9-0.4-48.3-0.4-67.7c0-19.5,1.6-59.5,1.6-63.5c2.5,24.8,4.4,44.1,5.2,61.4
		c0.8,17.3,3.6,48.6,3.6,74.2c0,25.6-2.4,91.5-2.4,114.6s0.4,85.7,0.4,90.8c0,5,3.2,4.7,21,4.7c17.8,0,25.8,1.1,25.8-4
		c0-5,2.8-69.5,4.4-105.9c1.6-36.4,0.8-66.7,1.2-94c0.4-27.4,1.6-73.1,12.5-122.1s12.9-85.4,10.5-97.3c-2.4-11.9-4.8-32.8-4.8-37.8
		s-6.1-4.3-17.8-4.3s-100.5,1.4-113.1,0.7C191.8,18.2,186.2,16.4,186.1,19z"/>
	<path class="st1" d="M257.2,151c0.2-6.7,0.4-11.6,0.4-12.9c0.9,8.8,1.7,16.9,2.4,24.5v-0.1c0-9.8,0.3-19.9,0.3-28.5
		c0-8.6,0-16.2,0.6-21.8c0.6-5.6,0.8-15.7,0.6-19.4c-0.3-3.7,0.4-37.4-2-59.2c0,0,0.1,23.2,0.4,36.4c0.3,13.3,0.6,22.3-2.8,21.4
		c-3.3-1-6.9-4.9-6.9-4.9s1.1,3.9,2.2,5.2c1.1,1.2,7.4,0.2,7.4,5.2c0,4.9-2.5,13.3-1.4,20.4c1.1,7.1-1.9,21.6-1.4,30.9
		C257.1,148.9,257.1,149.9,257.2,151z"/>
	<polygon class="st1" points="180.3,59.6 213,61.5 213,67.4 180.3,65.5 	"/>
	<polygon class="st0" points="181.9,60.8 211.3,62.5 211.3,66.2 181.9,64.5 	"/>
	<polygon class="st1" points="339,59.6 306.2,61.5 306.2,67.4 339,65.5 	"/>
	<polygon class="st0" points="337.3,60.8 307.9,62.5 307.9,66.2 337.3,64.5 	"/>
	<path class="st1" d="M183.3,33.8c0,0,21.5,1.5,27.8,0.7c6.3-0.7,39.9-2.2,46.5-1.7c6.6,0.5,18.2,0.7,36,0.2c17.9-0.5,41.8,1,41.8,1
		s-30.9,0.5-41.4,0.8c-10.5,0.2-31,0.2-37.6,0.2c-6.6,0-37.4,0.7-45.4,0.9C203.1,36.2,196.8,36.5,183.3,33.8z"/>
	<path class="st2" d="M203.5,21.4c-10.5,0-16.3,0.6-18.6,0.6c-2.3,0-3,6.4-0.5,6.4c2.6,0,14.9-0.6,19.6-0.6
		C208.6,27.8,207.4,21.6,203.5,21.4z"/>
	<path class="st1" d="M196.5,18.7c-1.8,1.7-5.4,9.7-5.4,14.1c0,4.4,0.2,7.4,0.2,8.6c0,1.1,0,2.6,2.2,2.3c2.2-0.2,4-0.9,3.8-3.5
		c-0.2-2.6-0.7-4.4-0.2-7.4c0.4-3,1.9-8.4,3.4-10.8c1.6-2.4,1.5-2.9,1.7-3.2C202.3,18.5,197.6,17.5,196.5,18.7z"/>
	<path class="st0" d="M196.5,18.7c-1.8,1.7-5.4,9.7-5.4,14.1c0,4.4,0.5,7.3,0.5,8.4c0,1.1-0.2,1.4,2,1.1c2.2-0.2,2.7,0.4,2.6-2.2
		c-0.2-2.6-0.6-4.4-0.2-7.4c0.4-3,2.1-8.7,3.7-11.1c1.6-2.4,1.9-2.7,2-2.9S197.6,17.5,196.5,18.7z"/>
	<path class="st2" d="M335.6,21.2c-3.7,0-47.6,0.6-61.3,0.6c-13.8,0-66.9-1-73.2-1c-6.3,0-7,0.6-7.2,3.5c-0.2,2.9,0.5,4,9.1,4
		c8.6,0,42-0.4,61.5-0.2c19.6,0.2,66,0.2,69.9,0.2S338.4,21.2,335.6,21.2z"/>
	<path class="st3" d="M260.6,21.4c4.3,0,7.8,1.6,7.8,3.5c0,2-3.5,3.5-7.8,3.5c-4.3,0-7.8-1.6-7.8-3.5
		C252.8,23,256.3,21.4,260.6,21.4L260.6,21.4z M260.6,19.4c-5.7,0-10.3,2.5-10.3,5.5c0,3,4.6,5.5,10.3,5.5c5.7,0,10.3-2.5,10.3-5.5
		C270.9,21.9,266.3,19.4,260.6,19.4z"/>
	<path class="st1" d="M320.7,19.8c0.9,0.9,1.7,5.9,1.7,8.3c0.1,2.4,0.3,7.6-0.6,8.8c-0.9,1.2-0.3,3.5,2.1,4.1
		c2.4,0.6,3.3-0.8,3.5-2.3c0.2-1.5,0.7-3.5,0.4-7.7c-0.3-4.2-0.7-9.1-1.5-10.6c-0.8-1.6-0.7-2-2.9-2
		C321.2,18.4,320.2,19.1,320.7,19.8z"/>
	<path class="st0" d="M321.6,19.5c0.9,0.9,2.1,6.2,2.2,8.6c0.1,2.4,0.5,7.3-0.4,8.5c-0.9,1.2-1.4,2.2,1,2.8c2.4,0.6,2.7,0.7,2.9-0.8
		c0.2-1.5,0.8-3.4,0.5-7.6c-0.3-4.2-0.7-9.1-1.5-10.6c-0.8-1.6-0.4-1.8-2.6-1.8C321.5,18.6,321.1,18.8,321.6,19.5z"/>
	<path class="st1" d="M312.1,331.9c-2-16.3-11.8-37.4-17.1-43.9c-5.3-6.5,0,9.4-5.7,5.1c-5.7-4.4-10.6-1.8,1.6,5.4
		c12.2,7.3,10.2,12.7,2.8,11.6C286.4,309.1,305.5,317.1,312.1,331.9z"/>
	<path class="st1" d="M302.7,267c8.9,9.4,18.3,41.4,11.4,33.4c-6.9-8-20.7-27.6-13-22.9C308.8,282.2,311.2,289.9,302.7,267z"/>
	<path class="st1" d="M270.7,347.7c7,8.4,11.2,23,5.2,14.9C269.8,354.4,264.4,334.7,270.7,347.7z"/>
	<path class="st1" d="M269.2,370.7c3.9,7.8,14.2,31.1,8.8,23.8s-2.1,16.2-0.3,29.5c1.8,13.3,1.5,23.5-2.4,7
		c-3.9-16.5-8.8-18.4-8.8-7.3c0,11.1-1.5,3.5-0.9-9.7C266.2,400.7,266.2,362.8,269.2,370.7z"/>
	<path class="st1" d="M251.5,343.7c-5.4,5.7-21.5,27.1-17.4,27.1C238.3,370.8,243.7,365.1,251.5,343.7z"/>
	<path class="st1" d="M213.8,297.4c-2.8,6.7-8.5,20.9-8.7,16.9C204.9,310.3,207.7,307.3,213.8,297.4z"/>
</g>
</svg>
