<?xml version="1.0" encoding="utf-8"?>
<!-- Generator: Adobe Illustrator 24.0.2, SVG Export Plug-In . SVG Version: 6.00 Build 0)  -->
<svg version="1.1" id="Layer_1" xmlns="http://www.w3.org/2000/svg" xmlns:xlink="http://www.w3.org/1999/xlink" x="0px" y="0px"
	 viewBox="0 0 500 500" style="enable-background:new 0 0 500 500;" xml:space="preserve">
<style type="text/css">
	.st0{fill:#C2CDCD;}
	.st1{fill:#CED8D7;}
	.st2{fill:#D7E0E0;}
	.st3{fill:#A5B7B8;}
	.st4{fill:#FFFFFF;}
	.st5{fill:#B3C1C2;}
	.st6{fill:#B3B3B3;}
</style>
<g>
	<path class="st0" d="M387.8,191.7L375,178c11.9-11.9,18.4-27.3,18.4-44.1c0-16.8-6.5-34.7-18.4-46.6c-24.5-24.5-67.7-24.2-92.2,0.3
		c-24.5,24.5-23.9,67.1,0.6,91.6l-10.4,12.3c-32.4-32.4-33.9-83.5-1.5-115.8c32.4-32.4,82.8-32.7,115.2-0.3
		c15.7,15.7,23.9,36.7,23.9,58.8C410.5,156.4,403.5,176,387.8,191.7z"/>
	<path class="st1" d="M376.4,180.2c12.6-12.6,19.6-29.4,19.6-47.3c0-17.9-7-34.7-19.6-47.3c-26.1-26.1-68.6-26.1-94.6,0
		c-26.1,26.1-26.1,68.6,0,94.6l-11.5,11.5c0,0,0,0,0.1,0.1l14.3-14.3c-24.5-24.5-24.5-64.4,0-88.9c24.5-24.5,64.4-24.5,88.9,0
		c11.9,11.9,18.4,27.7,18.4,44.4c0,16.8-6.5,32.6-18.4,44.4l14.3,14.3c0,0,0,0,0.1-0.1L376.4,180.2z"/>
	<path class="st2" d="M392.9,79.8c-31.7-37.9-88.5-39.8-122.6-5.6c-32.4,32.4-32.4,85.1,0,117.5l1.2-1.2l1.6-1.6
		c-19.7-21.6-25.9-51.2-18.7-77.8c3.7-13.5,11.1-25.8,21.6-35.2c0.2-0.2,0.4-0.3,0.6-0.5c30.6-26.9,77.4-26,107.1,1.9
		c16.2,15.2,25.1,35.9,25.1,58c0,20.7-7.9,40.2-22.2,55.1l1.2,1.2c17.2-17.2,25.9-40.6,24.1-65.2C410.6,109.4,403.9,93,392.9,79.8z"
		/>
	<path class="st3" d="M270.3,191.7l14.3-14.3c-5.7-5.7-10-12.2-13.1-19.1c-7-0.1-14.2,5-16.4,12.6C259,178.4,264,185.4,270.3,191.7z
		"/>
	<path class="st3" d="M403,170.9c-1.5-6.7-9-12.8-16.4-12.6c-3.1,7-7.5,13.5-13.1,19.1l14.3,14.3C394,185.5,399.1,178.5,403,170.9z"
		/>
	<path class="st4" d="M294.7,63.9c1.2,1.8-1.5,5.6-5.9,8.5c-4.4,2.9-9,3.7-10.2,1.9c-1.2-1.8,1.5-5.6,5.9-8.5
		C289,63,293.6,62.1,294.7,63.9z"/>
	<path class="st4" d="M306.8,59.2c0.6,1.4-0.6,3.2-2.5,4c-2,0.8-4,0.3-4.6-1.1c-0.6-1.4,0.6-3.2,2.5-4
		C304.2,57.2,306.2,57.7,306.8,59.2z"/>
	<path class="st0" d="M244.4,195.1l52.6,20.9c2.2,0.9,4.5-1,4-3.3l-10.8-55.5c-0.9-4.4-6.1-6.3-9.5-3.4l-37.9,31.4
		C239.4,187.9,240.3,193.4,244.4,195.1z"/>
	<path class="st5" d="M248.2,192.2c-1.6,1.3-1.2,3.8,0.7,4.5l48.2,19.2c1.9,0.7,4.4-1.1,4-3.1l-9.9-51.2c-0.4-2-2.7-2.8-4.3-1.5
		L248.2,192.2z"/>
	<path class="st1" d="M297.4,214.7c1.8,1.6,3.7,0.3,3.1-2.2c0,0-14-52-15-51.2l-18.3,15.1C265.3,178,297.4,214.7,297.4,214.7z"/>
	<path class="st4" d="M277.8,167.7c-0.8,0.7,21.9,45.8,21.4,44.3c0,0-15.8-48.9-17-47.9L277.8,167.7z"/>
	<path class="st1" d="M256.4,185.5c0.8-0.7,42.5,31.2,41.1,30.4l-46.9-22.1c-1.3-0.8-1.4-2.6-0.2-3.6L256.4,185.5z"/>
	<path class="st0" d="M413.6,195.1L361,215.9c-2.2,0.9-4.5-1-4-3.3l10.8-55.5c0.9-4.4,6.1-6.3,9.5-3.4l37.9,31.4
		C418.6,187.9,417.8,193.4,413.6,195.1z"/>
	<path class="st5" d="M409.9,192.2c1.6,1.3,1.2,3.8-0.7,4.5L361,215.9c-1.9,0.7-4.4-1.1-4-3.1l9.9-51.2c0.4-2,2.7-2.8,4.3-1.5
		L409.9,192.2z"/>
	<path class="st1" d="M391.2,182.7l-30.6,32c-1.8,1.6-3.7,0.3-3.1-2.2L372,164c0.4-1.2,1.9-1.7,2.8-0.9l16,13.3
		C392.8,178,392.9,180.9,391.2,182.7z"/>
	<path class="st4" d="M382.7,169.6c0.8,0.7,1,1.9,0.5,2.8l-23.6,40.4c-0.8,1.2-1.3,0.7-0.8-0.8l17.1-44.2c0.6-1.4,2.3-1.8,3.5-0.9
		L382.7,169.6z"/>
	<path class="st1" d="M404.2,187.3c-0.8-0.7-45.1,29.4-43.7,28.6l46.9-22.1c1.3-0.8,1.4-2.6,0.2-3.6L404.2,187.3z"/>
</g>
<g>
	<g>
		
			<rect x="62.8" y="160.7" transform="matrix(0.6875 -0.7262 0.7262 0.6875 -81.5358 146.8877)" class="st0" width="134.2" height="15"/>
		
			<rect x="58.1" y="161.2" transform="matrix(0.6875 -0.7262 0.7262 0.6875 -79.7928 142.1382)" class="st2" width="134.2" height="5.2"/>
		
			<rect x="68.5" y="171.8" transform="matrix(0.6875 -0.7262 0.7262 0.6875 -83.6902 152.7587)" class="st1" width="134.2" height="3.6"/>
	</g>
	<path class="st3" d="M176.8,132.8l6.3-6.7l-1.6-1.5l-1-1l-7.2-6.8l-2.7-2.5l-1.1-1l-6.3,6.7C168,122.2,174.6,129.3,176.8,132.8z"/>
	<path class="st3" d="M78.3,211.8l2.7,2.5l7.2,6.8l1,1l1.6,1.5l10.2-10.8c-4-1.9-11.3-8.2-13.6-12.9l-10.2,10.8L78.3,211.8z"/>
	<g>
		
			<ellipse transform="matrix(5.200617e-02 -0.9986 0.9986 5.200617e-02 78.2774 289.5067)" class="st0" cx="191.6" cy="103.5" rx="27.6" ry="27.6"/>
		
			<ellipse transform="matrix(5.366551e-02 -0.9986 0.9986 5.366551e-02 77.9685 289.3181)" class="st5" cx="191.6" cy="103.5" rx="22.3" ry="22.3"/>
		
			<ellipse transform="matrix(0.6875 -0.7262 0.7262 0.6875 -18.0676 165.5155)" class="st1" cx="183.3" cy="103.8" rx="16.9" ry="16.9"/>
		<path class="st1" d="M212,94.6c2.9,0.1,5.1,4,4.9,8.6c-0.2,4.6-2.8,8.3-5.7,8.1s-5.1-4-4.9-8.6C206.6,98.1,209.1,94.5,212,94.6z"
			/>
		<circle class="st4" cx="177.9" cy="103.9" r="8.3"/>
	</g>
	<g>
		
			<ellipse transform="matrix(1 -3.456280e-03 3.456280e-03 1 -0.7918 0.2524)" class="st0" cx="72.6" cy="229.2" rx="27.6" ry="27.6"/>
		
			<ellipse transform="matrix(0.9994 -3.447977e-02 3.447977e-02 0.9994 -7.8598 2.6406)" class="st5" cx="72.6" cy="229.2" rx="22.3" ry="22.3"/>
		
			<ellipse transform="matrix(0.6875 -0.7262 0.7262 0.6875 -146.5181 118.3782)" class="st1" cx="64.3" cy="229.4" rx="16.9" ry="16.9"/>
		<path class="st1" d="M93.1,220.3c2.9,0.1,5.1,4,4.9,8.6c-0.2,4.6-2.8,8.3-5.7,8.1s-5.1-4-4.9-8.6
			C87.6,223.8,90.1,220.2,93.1,220.3z"/>
		<circle class="st4" cx="58.9" cy="229.6" r="8.3"/>
	</g>
</g>
<g>
	<g>
		<rect x="172.1" y="404.6" class="st0" width="134.2" height="15"/>
		<rect x="172.1" y="403.1" class="st2" width="134.2" height="5.2"/>
		<rect x="172.1" y="418.2" class="st1" width="134.2" height="3.6"/>
	</g>
	<path class="st3" d="M297.1,421.8h9.2v-2.2v-1.4v-9.9v-3.7v-1.5h-9.2C298.8,408.1,298.2,417.8,297.1,421.8z"/>
	<path class="st3" d="M172.1,404.6v3.7v9.9v1.4v2.2h14.9c-1.4-4.2-1.8-13.8,0-18.7h-14.9V404.6z"/>
	<g>
		<path class="st0" d="M171.6,441.4L122,414.3c-2.1-1.1-2.1-4.1,0-5.2l49.7-27.1c3.9-2.1,8.7,0.7,8.7,5.2v49.2
			C180.3,440.7,175.6,443.6,171.6,441.4z"/>
		<path class="st5" d="M171.5,436.7c0,2-2.2,3.3-3.9,2.3L122,414.3c-1.8-1-2-4.1-0.2-5.1l45.7-25c1.8-1,3.9,0.3,3.9,2.3L171.5,436.7
			z"/>
		<path class="st1" d="M166.9,416.3l-44.1-3.1c-2.4-0.4-2.6-2.6-0.3-3.8l46.6-19.9c1.2-0.5,2.5,0.4,2.5,1.6V412
			C171.5,414.5,169.4,416.5,166.9,416.3z"/>
		<path class="st4" d="M171.5,401.4c0,1.1-0.8,2-1.8,2.2l-46.1,7.6c-1.5,0.1-1.4-0.6,0.1-1.1l45-15.1c1.4-0.5,2.9,0.6,2.9,2.1V401.4
			z"/>
		<path class="st1" d="M171.6,429.3c0-1.1-51.4-15.9-49.9-15.4l47,21.9c1.4,0.5,2.9-0.6,2.9-2.1V429.3z"/>
	</g>
	<g>
		<path class="st0" d="M309.8,441.4l49.7-27.1c2.1-1.1,2.1-4.1,0-5.2l-49.7-27.1c-3.9-2.1-8.7,0.7-8.7,5.2v49.2
			C301.1,440.7,305.9,443.6,309.8,441.4z"/>
		<path class="st5" d="M310,436.7c0,2,2.2,3.3,3.9,2.3l45.5-24.8c1.8-1,2-4.1,0.2-5.1l-45.7-25c-1.8-1-3.9,0.3-3.9,2.3L310,436.7z"
			/>
		<path class="st1" d="M314.6,416.3l44.1-3.1c2.4-0.4,2.6-2.6,0.3-3.8l-46.6-19.9c-1.2-0.5-2.5,0.4-2.5,1.6V412
			C310,414.5,312.1,416.5,314.6,416.3z"/>
		<path class="st4" d="M310,401.4c0,1.1,0.8,2,1.8,2.2l46.1,7.6c1.5,0.1,1.4-0.6-0.1-1.1l-45-15.1c-1.4-0.5-2.9,0.6-2.9,2.1V401.4z"
			/>
		<path class="st1" d="M309.8,429.3c0-1.1,51.4-15.9,49.9-15.4l-47,21.9c-1.4,0.5-2.9-0.6-2.9-2.1V429.3z"/>
	</g>
</g>
<g>
	<path class="st6" d="M155.3,279.3c12,7,12.1,26.2,1.1,34.5c-1.4,1-2.1,0-1.9-1.1c0.7-3.6,1.5-9.3,1.2-17c-0.3-7.1-1-12.2-2.2-15.2
		C153.1,279.5,153.5,278.2,155.3,279.3z"/>
	<path class="st0" d="M162.6,298.3v-3.2c-0.1-1-0.2-2-0.4-3c-0.2-1.3-2.5-2-2.9-3.2l-27.1-0.5v15l27.7-0.1c0.1-0.5,2.1-0.8,2.2-1.3
		C162.3,300.8,162.5,299.6,162.6,298.3z"/>
	<path class="st2" d="M158.4,286.9h-26.3v5.2h30c-0.2-1.1-0.5-2.2-0.9-3.2C160.9,287.7,159.7,286.9,158.4,286.9z"/>
	<path class="st1" d="M162,302h-29.8v3.6h27c1,0,2-0.7,2.3-1.7C161.6,303.4,161.8,302.7,162,302z"/>
	<path class="st3" d="M132.1,288.4v3.7v9.9v1.4v2.2H147c-1.4-4.2-1.8-13.8,0-18.7h-14.9V288.4z"/>
	<g>
		<circle class="st0" cx="115.6" cy="296.3" r="27.6"/>
		
			<ellipse transform="matrix(0.2128 -0.9771 0.9771 0.2128 -198.5539 346.154)" class="st5" cx="115.6" cy="296.3" rx="22.3" ry="22.3"/>
		<circle class="st1" cx="109.7" cy="290.4" r="16.9"/>
		<path class="st1" d="M136.1,305c1.9,2.2,0.6,6.5-2.9,9.5c-3.5,3-7.9,3.7-9.8,1.5c-1.9-2.2-0.6-6.5,2.9-9.5
			C129.8,303.4,134.2,302.8,136.1,305z"/>
		<circle class="st4" cx="105.8" cy="286.6" r="8.3"/>
	</g>
	<path class="st6" d="M177.3,317.1c-12,7-12.1,26.2-1.1,34.5c1.4,1,2.1,0,1.9-1.1c-0.7-3.6-1.5-9.3-1.2-17c0.3-7.1,1-12.2,2.2-15.2
		C179.5,317.3,179.1,316,177.3,317.1z"/>
	<path class="st0" d="M170,336.1v-3.2c0.1-1,0.2-2,0.4-3c0.2-1.3,2.5-2,2.9-3.2l27.1-0.5v15l-27.7-0.1c-0.1-0.5-2.1-0.8-2.2-1.3
		C170.3,338.6,170.1,337.4,170,336.1z"/>
	<path class="st2" d="M174.2,324.7h26.3v5.2h-30c0.2-1.1,0.5-2.2,0.9-3.2C171.7,325.5,172.9,324.7,174.2,324.7z"/>
	<path class="st1" d="M170.6,339.8h29.8v3.6h-27c-1,0-2-0.7-2.3-1.7C171,341.2,170.8,340.5,170.6,339.8z"/>
	<path class="st3" d="M200.5,326.2v3.7v9.9v1.4v2.2h-14.9c1.4-4.2,1.8-13.8,0-18.7h14.9V326.2z"/>
	<g>
		<circle class="st0" cx="217" cy="334.1" r="27.6"/>
		
			<ellipse transform="matrix(0.2284 -0.9736 0.9736 0.2284 -157.8053 469.1228)" class="st5" cx="217" cy="334.1" rx="22.3" ry="22.3"/>
		<circle class="st1" cx="211.1" cy="328.2" r="16.9"/>
		<path class="st1" d="M237.6,342.8c1.9,2.2,0.6,6.5-2.9,9.5c-3.5,3-7.9,3.7-9.8,1.5c-1.9-2.2-0.6-6.5,2.9-9.5
			C231.3,341.2,235.6,340.6,237.6,342.8z"/>
		<circle class="st4" cx="207.3" cy="324.4" r="8.3"/>
	</g>
</g>
<g>
	<path class="st6" d="M329.5,285.4c12,7,12.1,26.2,1.1,34.5c-1.4,1-2.1,0-1.9-1.1c0.7-3.6,1.5-9.3,1.2-17c-0.3-7.1-1-12.2-2.2-15.2
		C327.3,285.6,327.7,284.3,329.5,285.4z"/>
	<path class="st0" d="M336.8,304.4v-3.2c-0.1-1-0.2-2-0.4-3c-0.2-1.3-2.5-2-2.9-3.2l-27.1-0.5v15l27.7-0.1c0.1-0.5,2.1-0.8,2.2-1.3
		C336.5,306.9,336.7,305.7,336.8,304.4z"/>
	<path class="st2" d="M332.6,293.1h-26.3v5.2h30c-0.2-1.1-0.5-2.2-0.9-3.2C335.1,293.8,333.9,293.1,332.6,293.1z"/>
	<path class="st1" d="M336.2,308.1h-29.8v3.6h27c1,0,2-0.7,2.3-1.7C335.8,309.5,336,308.8,336.2,308.1z"/>
	<path class="st3" d="M306.3,294.6v3.7v9.9v1.4v2.2h14.9c-1.4-4.2-1.8-13.8,0-18.7h-14.9V294.6z"/>
	<g>
		<path class="st0" d="M306.3,332.2L256.7,305c-2.1-1.1-2.1-4.1,0-5.2l49.7-27.1c3.9-2.1,8.7,0.7,8.7,5.2V327
			C315,331.5,310.2,334.3,306.3,332.2z"/>
		<path class="st5" d="M306.1,327.5c0,2-2.2,3.3-3.9,2.3L256.7,305c-1.8-1-2-4.1-0.2-5.1l45.7-25c1.8-1,3.9,0.3,3.9,2.3L306.1,327.5
			z"/>
		<path class="st1" d="M301.5,307.1l-44.1-3.1c-2.4-0.4-2.6-2.6-0.3-3.8l46.6-19.9c1.2-0.5,2.5,0.4,2.5,1.6v20.8
			C306.1,305.2,304,307.2,301.5,307.1z"/>
		<path class="st4" d="M306.1,292.1c0,1.1-0.8,2-1.8,2.2l-46.1,7.6c-1.5,0.1-1.4-0.6,0.1-1.1l45-15.1c1.4-0.5,2.9,0.6,2.9,2.1V292.1
			z"/>
		<path class="st1" d="M306.3,320c0-1.1-51.4-15.9-49.9-15.4l47,21.9c1.4,0.5,2.9-0.6,2.9-2.1V320z"/>
	</g>
	<path class="st6" d="M363.4,296.7c-12,7-12.1,26.2-1.1,34.5c1.4,1,2.1,0,1.9-1.1c-0.7-3.6-1.5-9.3-1.2-17c0.3-7.1,1-12.2,2.2-15.2
		C365.6,296.9,365.2,295.7,363.4,296.7z"/>
	<path class="st0" d="M356.1,315.7v-3.2c0.1-1,0.2-2,0.4-3c0.2-1.3,2.5-2,2.9-3.2l27.1-0.5v15l-27.7-0.1c-0.1-0.5-2.1-0.8-2.2-1.3
		C356.4,318.3,356.2,317,356.1,315.7z"/>
	<path class="st2" d="M360.2,304.4h26.3v5.2h-30c0.2-1.1,0.5-2.2,0.9-3.2C357.8,305.2,359,304.4,360.2,304.4z"/>
	<path class="st1" d="M356.7,319.5h29.8v3.6h-27c-1,0-2-0.7-2.3-1.7C357,320.8,356.9,320.1,356.7,319.5z"/>
	<path class="st3" d="M386.5,305.9v3.7v9.9v1.4v2.2h-14.9c1.4-4.2,1.8-13.8,0-18.7h14.9V305.9z"/>
	<g>
		<path class="st0" d="M386.5,343.5l49.7-27.1c2.1-1.1,2.1-4.1,0-5.2L386.5,284c-3.9-2.1-8.7,0.7-8.7,5.2v49.2
			C377.8,342.8,382.6,345.6,386.5,343.5z"/>
		<path class="st5" d="M386.7,338.8c0,2,2.2,3.3,3.9,2.3l45.5-24.8c1.8-1,2-4.1,0.2-5.1l-45.7-25c-1.8-1-3.9,0.3-3.9,2.3
			L386.7,338.8z"/>
		<path class="st1" d="M391.3,318.4l44.1-3.1c2.4-0.4,2.6-2.6,0.3-3.8l-46.6-19.9c-1.2-0.5-2.5,0.4-2.5,1.6v20.8
			C386.7,316.6,388.8,318.5,391.3,318.4z"/>
		<path class="st4" d="M386.7,303.5c0,1.1,0.8,2,1.8,2.2l46.1,7.6c1.5,0.1,1.4-0.6-0.1-1.1l-45-15.1c-1.4-0.5-2.9,0.6-2.9,2.1V303.5
			z"/>
		<path class="st1" d="M386.6,331.3c0-1.1,51.4-15.9,49.9-15.4l-47,21.9c-1.4,0.5-2.9-0.6-2.9-2.1V331.3z"/>
	</g>
</g>
</svg>
