<?xml version="1.0" encoding="utf-8"?>
<!-- Generator: Adobe Illustrator 24.0.2, SVG Export Plug-In . SVG Version: 6.00 Build 0)  -->
<svg version="1.1" id="Layer_1" xmlns="http://www.w3.org/2000/svg" xmlns:xlink="http://www.w3.org/1999/xlink" x="0px" y="0px"
	 viewBox="0 0 500 500" style="enable-background:new 0 0 500 500;" xml:space="preserve">
<style type="text/css">
	.st0{fill:#A4432F;}
	.st1{fill:#D75227;}
	.st2{fill:#751116;}
	.st3{fill:#EA6247;}
	.st4{fill:#C14F27;}
</style>
<g id="XMLID_438_">
	<path id="XMLID_494_" class="st0" d="M209.4,4.6c0,0,40.9,11.8,94.8,0c0,0-3,83.1-47.5,83.1c-44.5,0-47.3-84.2-47.3-84.2"/>
	<path id="XMLID_557_" class="st0" d="M176.5,491.9c0,0,107.6-15.9,152.9-9.1l-4-60.5l-83.7-9.5L176.5,491.9z"/>
	<path id="XMLID_607_" class="st1" d="M382,346.9c0,5.4,0,8.4,0,8.4c-10.6,5.1-27.6-1.6-27.6-1.6c0.1-1.6,0.1-3.6-0.1-5.8
		c-0.8-48.4-20.6-232.9-20.6-232.9c-1.6,9.1-11.7,29.5-14.4,61.2c-2.6,31.6,16.5,59.7,22.9,108.1c6.4,48.4-12.7,198.4-12.7,198.4
		c-29.2-4.6-56.2-26.5-56.2-26.5c-60.1,38.3-96.7,35.7-96.7,35.7c-14.9-95.8-12.7-143.2-12.9-184.6c-0.2-41.5,25-97.9,25-118.3
		c0-20.4-7.8-73.5-7.8-73.5c-18.3,54-29.8,197.4-32.1,228.1c-0.3,3.8-0.4,5.9-0.4,5.9c-14.2,3.3-30.5,0-30.5,0
		c0.1-3,0.2-6.1,0.3-9.2C121.6,221.2,140.4,33,159.5,28c14.6-3.8,35.1-14.9,44.7-20.2c3.3-1.9,5.3-3.1,5.3-3.1
		c12.7,36.8,47.7,78.9,47.7,78.9c21.8-18.9,47-78.9,47-78.9c1.6,0.7,3.1,1.5,4.3,2.1c12.1,6.2,12.1,8.2,42.1,16.9
		C380.7,32.3,382.1,296.2,382,346.9z"/>
	<g id="XMLID_556_">
		<path class="st2" d="M159.5,28c4.1,14.4,8,28.9,11.7,43.5c1.8,7.3,3.6,14.6,5.3,21.9c1.7,7.3,3.2,14.7,4.3,22.1
			c-0.3-1.9-0.6-3.7-0.9-5.6c-0.4-1.8-0.7-3.7-1.1-5.5l-1.2-5.5l-1.2-5.5c-1.7-7.3-3.5-14.6-5.3-21.9c-1.8-7.3-3.7-14.5-5.6-21.8
			L159.5,28z"/>
	</g>
	<g id="XMLID_558_">
		<path class="st2" d="M353.3,25.2c-1.3,7.6-2.6,15.1-4.1,22.6c-1.4,7.5-3,15-4.5,22.5c-3.3,15-6.7,29.9-11,44.6
			c2.1-7.4,3.9-14.8,5.7-22.3c1.8-7.5,3.4-14.9,5-22.4c1.6-7.5,3.1-15,4.6-22.5C350.5,40.2,351.9,32.7,353.3,25.2z"/>
	</g>
	<g id="XMLID_559_">
		<path class="st2" d="M319.1,183.2c-4.7-3.5-9.3-7.2-13.8-11c-4.5-3.8-8.9-7.7-13.2-11.7c-4.2-4.1-8.4-8.2-12.3-12.6
			c-3.9-4.4-7.6-9-10.9-13.9c3.3,4.9,7.1,9.4,11,13.8c3.9,4.4,8.1,8.5,12.4,12.6c4.3,4.1,8.7,8,13.1,11.8
			C309.9,175.8,314.5,179.6,319.1,183.2z"/>
	</g>
	<g id="XMLID_560_">
		<path class="st2" d="M321.7,203.5c-8.9,0.7-17.8,0.9-26.7,0.7c-8.9-0.1-17.8-0.7-26.6-1.5c-8.9-0.8-17.7-2.1-26.4-3.8
			c-8.8-1.6-17.3-3.9-25.9-6.5l6.4,1.8l3.2,0.9l3.2,0.8l6.5,1.5l6.5,1.3c2.2,0.5,4.4,0.8,6.6,1.2c2.2,0.3,4.4,0.7,6.6,1l6.6,0.9
			c2.2,0.3,4.4,0.5,6.6,0.7c8.8,0.9,17.7,1.4,26.6,1.6l6.7,0.1c2.2,0,4.4,0,6.7-0.1C312.8,204,317.3,203.8,321.7,203.5z"/>
	</g>
	<g id="XMLID_561_">
		<path class="st2" d="M321.1,200.7c-2.7-0.1-5.4-0.8-7.9-1.5c-2.6-0.8-5.2-1.6-7.7-2.7c-2.5-1-5-2.1-7.4-3.3l-3.6-1.8l-3.6-1.9
			c2.4,1.2,4.9,2.4,7.3,3.5c2.5,1.1,4.9,2.2,7.4,3.2c2.5,1,5,1.9,7.6,2.7C315.8,199.8,318.4,200.5,321.1,200.7z"/>
	</g>
	<g id="XMLID_562_">
		<path class="st2" d="M320.4,196.7c-2.9-0.7-5.6-1.7-8.3-2.9c-1.3-0.6-2.7-1.2-4-1.9c-1.3-0.7-2.6-1.5-3.8-2.3
			c1.3,0.7,2.5,1.5,3.9,2.1c1.3,0.7,2.6,1.3,4,1.8c1.3,0.6,2.7,1.2,4.1,1.7C317.6,195.8,319,196.2,320.4,196.7z"/>
	</g>
	<g id="XMLID_565_">
		<path class="st2" d="M319.1,187.2c-8.7-4.1-17.2-8.5-25.7-13.1c-8.4-4.6-16.8-9.4-24.9-14.6c-8.1-5.2-16.1-10.5-23.7-16.4
			c-7.6-5.9-14.9-12.2-21.2-19.5l5,5.2c0.8,0.9,1.7,1.7,2.6,2.5l2.7,2.4c1.7,1.7,3.6,3.1,5.5,4.7l2.8,2.3c0.9,0.8,1.9,1.5,2.9,2.2
			c7.6,5.9,15.6,11.2,23.7,16.3c8.1,5.2,16.4,10,24.8,14.6c4.2,2.3,8.4,4.6,12.7,6.8C310.5,183,314.8,185.2,319.1,187.2z"/>
	</g>
	<g id="XMLID_568_">
		<path class="st2" d="M323.5,210.8c-8.4,7.7-18.2,13.8-28.3,19.1c-10.1,5.3-20.8,9.5-31.7,12.9l-8.3,2.3c-1.4,0.4-2.7,0.8-4.1,1.1
			l-4.2,0.9c-2.8,0.6-5.6,1.3-8.4,1.7l-8.5,1.3l-4.2,0.6l-4.3,0.4l-8.5,0.8c-1.4,0.2-2.8,0.2-4.3,0.2l-4.3,0.1l-8.6,0.3l8.6-0.3
			l4.3-0.2c1.4-0.1,2.9-0.1,4.3-0.3l8.5-0.8l4.3-0.4l4.2-0.6l8.5-1.3c2.8-0.5,5.6-1.2,8.4-1.8l4.2-0.9c1.4-0.3,2.8-0.7,4.1-1.1
			l8.2-2.3c10.9-3.4,21.5-7.6,31.7-12.9l3.8-2c1.3-0.7,2.5-1.4,3.7-2.1c1.2-0.7,2.5-1.4,3.7-2.2l3.6-2.3
			C314.7,218,319.3,214.6,323.5,210.8z"/>
	</g>
	<g id="XMLID_569_">
		<path class="st2" d="M325.4,217.4c-1.7,7.1-4.2,13.9-7.1,20.6c-2.9,6.7-6.3,13.2-10.2,19.3c-2,3.1-4,6.1-6.3,8.9
			c-2.2,2.9-4.6,5.7-7.1,8.3c-5,5.3-10.6,10-16.6,14.1c6-4.1,11.6-8.8,16.5-14.2c2.5-2.6,4.8-5.4,7-8.3c2.2-2.9,4.3-5.9,6.2-8.9
			c3.9-6.1,7.3-12.6,10.2-19.2c1.5-3.3,2.8-6.7,4-10.1C323.4,224.3,324.5,220.9,325.4,217.4z"/>
	</g>
	<g id="XMLID_570_">
		<path class="st2" d="M321.7,235.5c-2.4,9.8-6.2,19.2-10.7,28.2c-4.6,9-9.9,17.6-16.1,25.5c-6.1,8-13.1,15.3-20.6,22
			c-7.6,6.7-15.7,12.6-24.4,17.8c8.6-5.2,16.7-11.2,24.3-17.9c7.5-6.7,14.4-14.1,20.5-22.1c6.2-7.9,11.6-16.5,16.1-25.5
			c2.3-4.5,4.4-9.1,6.2-13.8C318.9,245.2,320.5,240.4,321.7,235.5z"/>
	</g>
	<g id="XMLID_571_">
		<path class="st2" d="M337.9,261c-0.7,8.7-1.8,17.3-3,25.9c-1.2,8.6-2.6,17.2-4.2,25.7c-1.6,8.5-3.4,17-5.4,25.5
			c-2,8.5-4.2,16.9-6.6,25.2c-2.5,8.3-5.1,16.6-8.2,24.7c-3,8.1-6.3,16.2-10,24.1c-0.9,2-1.9,3.9-2.8,5.9c-1,1.9-1.9,3.9-3,5.8
			l-3.1,5.7l-3.3,5.6c-4.6,7.4-9.6,14.5-15.2,21.1c5.6-6.6,10.6-13.8,15.2-21.1l3.3-5.6l3.1-5.7c1.1-1.9,2-3.9,3-5.8
			c1-1.9,1.9-3.9,2.8-5.9c3.7-7.9,6.9-15.9,9.9-24.1c3-8.1,5.6-16.4,8.1-24.8c2.5-8.3,4.7-16.7,6.7-25.2c2-8.4,3.8-16.9,5.4-25.5
			c1.6-8.5,3-17.1,4.3-25.7C336.1,278.3,337.2,269.7,337.9,261z"/>
	</g>
	<g id="XMLID_572_">
		<path class="st2" d="M188,195.2c1,1.4,2.1,2.8,3.3,4.1c0.6,0.7,1.2,1.3,1.8,1.9c0.6,0.6,1.3,1.2,1.9,1.8c2.6,2.3,5.5,4.4,8.6,6.1
			c0.8,0.4,1.5,0.9,2.3,1.2c0.8,0.4,1.6,0.8,2.4,1.1c1.6,0.6,3.3,1.3,5,1.7c3.4,1,6.9,1.4,10.4,1.7l-2.6-0.2
			c-0.9-0.1-1.8-0.1-2.6-0.3l-2.6-0.4c-0.9-0.1-1.7-0.4-2.6-0.6c-1.7-0.4-3.3-1.1-5-1.7c-0.8-0.3-1.6-0.7-2.4-1.1
			c-0.8-0.3-1.6-0.8-2.3-1.2c-3.1-1.7-5.9-3.8-8.5-6.2C192.3,200.8,189.9,198.1,188,195.2z"/>
	</g>
	<g id="XMLID_573_">
		<path class="st2" d="M186,205c0.7,3,2,5.8,3.5,8.5c1.6,2.6,3.5,5.1,5.7,7.2c0.5,0.5,1.1,1,1.7,1.5l0.9,0.8l0.9,0.7
			c0.6,0.5,1.2,0.9,1.9,1.4l2,1.2l1,0.6l1,0.5l2.1,1c1.4,0.6,2.8,1.2,4.3,1.8c-1.4-0.6-2.9-1-4.3-1.7l-2.1-1l-1-0.5l-1-0.6l-2-1.2
			c-0.6-0.4-1.2-0.9-1.9-1.4l-0.9-0.7l-0.9-0.8c-0.6-0.5-1.2-1-1.7-1.5c-2.2-2.2-4.1-4.6-5.7-7.3C187.8,210.9,186.6,208,186,205z"/>
	</g>
	<path id="XMLID_602_" class="st3" d="M308.5,6.8c-16.2,50.7-50.2,85.7-50.2,85.7c-15.8-12.2-44.6-59.1-54.1-84.7
		c3.3-1.9,5.3-3.1,5.3-3.1c12.7,36.8,47.7,78.9,47.7,78.9c21.8-18.9,47-78.9,47-78.9C305.8,5.4,307.3,6.1,308.5,6.8z"/>
	<path id="XMLID_855_" class="st4" d="M382,346.9c0,5.4,0,8.4,0,8.4c-10.6,5.1-27.6-1.6-27.6-1.6c0.1-1.6,0.1-3.6-0.1-5.8"/>
	<path id="XMLID_603_" class="st4" d="M148.7,343.6c-0.3,3.8-0.4,5.9-0.4,5.9c-14.2,3.3-30.5,0-30.5,0c0.1-3,0.2-6.1,0.3-9.2
		C126.7,342.7,139.7,345.6,148.7,343.6z"/>
</g>
</svg>
