<?xml version="1.0" encoding="utf-8"?>
<!-- Generator: Adobe Illustrator 24.0.2, SVG Export Plug-In . SVG Version: 6.00 Build 0)  -->
<svg version="1.1" id="Layer_1" xmlns="http://www.w3.org/2000/svg" xmlns:xlink="http://www.w3.org/1999/xlink" x="0px" y="0px"
	 viewBox="0 0 500 500" style="enable-background:new 0 0 500 500;" xml:space="preserve">
<style type="text/css">
	.st0{fill:#2D2C2B;}
	.st1{fill:#686663;}
	.st2{fill:#EDE3C3;}
	.st3{fill:#CCC3AA;}
	.st4{fill:#FFF4D4;}
	.st5{fill:#84827F;}
	.st6{fill:#565553;}
	.st7{fill:#637089;}
	.st8{opacity:0.37;fill:#FFFFFF;}
	.st9{opacity:0.45;fill:#FFFFFF;}
	.st10{fill:#424140;}
</style>
<path class="st0" d="M107.1,52.8C90.9,60.5,88.8,83,92,105.3c8,54.4,39.4,127.1,39.4,127.1l39-76c0,0-27.1-20.2-34.5-43.5
	c-7.4-23.2-16-51.8-2.4-62.8c13.6-11,14.4-14.6,14.4-14.6L107.1,52.8L107.1,52.8z"/>
<path class="st0" d="M406.4,46.9c16.6,6.8,20,29.1,18,51.5c-4.8,54.7-36.8,135.5-36.8,135.5L349,154c0,0,25.9-21.7,31.9-45.3
	c6-23.6,13-52.6-1.2-62.8c-14.2-10.2-15.2-13.7-15.2-13.7L406.4,46.9L406.4,46.9z"/>
<path class="st1" d="M160.3,136.3c0-1.6,2.5-28.9-6.9-45.1c-22.6-39-46.4-38.4-46.4-38.4l41-26.8c0,0,20.2,16.4,44.9,25.2
	c24.6,8.7,64,8.1,64,8.1l1.5,74.6L160.3,136.3z"/>
<path class="st1" d="M356.6,132.5c-0.1-1.6-3.6-28.8,5.1-45.4c21-39.9,44.8-40.3,44.8-40.3l-42-25.1c0,0-19.6,17.2-43.8,27
	c-24.3,9.7-63.6,10.5-63.6,10.5l1.5,74.8L356.6,132.5z"/>
<path class="st2" d="M348.7,119.9c-27.2-34.9-80.9-32.6-91.1-32.5c-11.2,0.3-65-1.7-91.9,33.5c-29.9,39.3-67.7,206.7-66.9,249
	c0.9,42.3,13.4,75.1,30.5,85.6c30.1,18.6,238.2,14.7,259.4-1.4c16.2-12.3,29.1-43.6,29.5-85.9C418.7,325.9,379,158.9,348.7,119.9z"
	/>
<path class="st1" d="M331.5,147.8c-22-29.6-73.8-35.5-74.3-35.5c-0.5,0-52.2,6.4-73.9,36.3c-24.2,33.3-54.8,175.2-54.1,211.2
	c0.7,35.9,10.9,63.7,24.7,72.6c24.4,15.8,193,12.5,210.2-1.1c13.1-10.4,23.6-37,23.9-72.9C388.3,322.4,356.1,180.8,331.5,147.8z"/>
<path class="st2" d="M316.9,174.4c-17.7-24.4-52-29.2-59.5-29.2c-10.4,0.1-41.8,5.3-59.2,29.8c-19.4,27.4-43.9,144.3-43.3,173.8
	c0.6,29.6,8.7,52.4,19.8,59.8c19.5,13,154.6,10.3,168.4-0.9c10.5-8.6,18.9-30.4,19.1-60C362.4,318.2,336.6,201.6,316.9,174.4z"/>
<path class="st3" d="M345.7,361.8c-2-15.3-19.7-54.8-36-66c-16.3-11.3-50.4-11.4-50.4-11.4s-34.1,0.5-50.3,11.9
	c-16.2,11.5-33.5,51.1-35.3,66.4s-3.4,30.4,0.2,34.4c3.6,4,86,1.8,86,1.8s82.4,1.3,86-2.7C349.4,392.2,347.7,377.1,345.7,361.8z"/>
<path class="st1" d="M179.7,203.7c1,0.7,22.2,10.5,22.2,10.5l0.1,18.5l-31,11.1L179.7,203.7z"/>
<path class="st1" d="M334.2,202.7c-1,0.7-22.1,10.7-22.1,10.7l0.1,18.5l31.2,10.7L334.2,202.7z"/>
<rect x="197.6" y="214.2" transform="matrix(1 -5.411479e-03 5.411479e-03 1 -1.2025 1.4165)" class="st1" width="127" height="17.5"/>
<path class="st4" d="M345.6,355c-2-15.3-19.7-54.8-36-66c-16.3-11.3-50.4-11.4-50.4-11.4s-34.1,0.5-50.3,11.9
	c-16.2,11.5-33.5,51.1-35.3,66.4c-1.8,15.4-3.4,30.4,0.2,34.4c3.6,4,86,1.8,86,1.8s82.4,1.3,86-2.7
	C349.3,385.4,347.6,370.3,345.6,355z"/>
<g>
	<path class="st5" d="M173.6,358.6c-0.1,0-0.2,0-0.3,0c-1.5-0.2-2.5-1.5-2.3-3c1.9-15.7,19.5-56.3,36.4-68.3
		c16.7-11.8,50.3-12.4,51.8-12.4c1.5,0,35.1,0.2,51.9,11.8c17,11.8,35.1,52.2,37.2,67.9c0.2,1.5-0.8,2.8-2.3,3
		c-1.5,0.2-2.8-0.8-3-2.3c-1.9-14.5-19.2-53.3-34.9-64.2c-15.4-10.7-48.5-10.9-48.9-10.9c-0.3,0-33.4,0.6-48.7,11.4
		c-15.5,11-32.5,50.1-34.2,64.6C176.1,357.6,175,358.6,173.6,358.6z"/>
</g>
<g>
	<path class="st0" d="M173.6,356.7C173.6,356.7,173.6,356.7,173.6,356.7c-0.5-0.1-0.8-0.4-0.8-0.9c1.8-15.4,19.1-55.3,35.6-67
		c16.2-11.5,49.3-12,50.7-12.1c1.4,0,34.5,0.2,50.8,11.5c16.7,11.5,34.4,51.2,36.4,66.6c0.1,0.4-0.2,0.8-0.7,0.9
		c-0.4,0.1-0.8-0.2-0.9-0.7c-2-15.2-19.4-54.2-35.7-65.5c-15.9-11-49.6-11.2-49.9-11.2c-0.3,0-34,0.6-49.8,11.8
		c-16.2,11.5-33.2,50.7-35,65.9C174.4,356.4,174,356.7,173.6,356.7z"/>
</g>
<rect x="171.6" y="348" transform="matrix(1 -5.413432e-03 5.413432e-03 1 -1.9274 1.422)" class="st1" width="180.3" height="17.5"/>
<g>
	<path d="M224.9,212.4c-0.1-0.1-0.2-0.3-0.4-0.3c-0.1,0-0.3,0.1-0.4,0.1c-1.4,0.7-2.9,1.2-4.4,1.3c-1.3,0.1-2.6,0-3.8,0.3
		c-1.2,0.4-2.3,1.4-2.2,2.7c0.1,0.8,0.6,1.4,1.2,1.8s1.4,0.6,2.2,0.8c3.3,0.6,6.8,0.2,9.9-1.2c0.7-0.3,1.3-0.7,1.8-1.2
		c0.6-0.8,1.1-2.6-0.1-3.1C227.3,213,225.9,213.6,224.9,212.4z"/>
	<path d="M225,234.5c-0.1,0.1-0.2,0.3-0.4,0.3c-0.1,0-0.3,0-0.4-0.1c-1.4-0.7-2.9-1.1-4.5-1.2c-1.3-0.1-2.6,0.1-3.8-0.3
		c-1.2-0.4-2.4-1.4-2.3-2.7c0.1-0.8,0.6-1.4,1.2-1.9c0.6-0.4,1.4-0.6,2.1-0.8c3.3-0.7,6.8-0.3,10,1.1c0.7,0.3,1.3,0.6,1.8,1.2
		c0.6,0.8,1.1,2.6-0.1,3.1C227.4,233.9,226,233.3,225,234.5z"/>
	<path class="st0" d="M228,212.5c-1.3,2.3-4.3,3.9-7.6,3.9c-3.4,0-6.3-1.6-7.7-3.8l-6.6,0l0.1,9.6l0,2.1l0.1,9.6l6.6,0
		c1.3-2.3,4.3-3.9,7.6-3.9c3.4,0,6.3,1.6,7.7,3.8l4.2,0l-0.1-9.6l0-2.1l-0.1-9.6L228,212.5z"/>
	<rect x="232.3" y="212.5" transform="matrix(1 -5.406934e-03 5.406934e-03 1 -1.203 1.2891)" width="11.1" height="21.3"/>
</g>
<g>
	<path d="M201.2,346.4c-0.1-0.1-0.2-0.3-0.4-0.3c-0.1,0-0.3,0.1-0.4,0.1c-1.4,0.7-2.9,1.2-4.4,1.3c-1.3,0.1-2.6,0-3.8,0.3
		c-1.2,0.4-2.3,1.4-2.2,2.7c0.1,0.8,0.6,1.4,1.2,1.8c0.6,0.4,1.4,0.6,2.2,0.8c3.3,0.6,6.8,0.2,9.9-1.2c0.7-0.3,1.3-0.7,1.8-1.2
		c0.6-0.8,1.1-2.6-0.1-3.1C203.6,347.1,202.2,347.6,201.2,346.4z"/>
	<path d="M201.3,368.6c-0.1,0.1-0.2,0.3-0.4,0.3c-0.1,0-0.3,0-0.4-0.1c-1.4-0.7-2.9-1.1-4.5-1.2c-1.3-0.1-2.6,0.1-3.8-0.3
		c-1.2-0.4-2.4-1.4-2.3-2.7c0.1-0.8,0.6-1.4,1.2-1.9c0.6-0.4,1.4-0.6,2.1-0.8c3.3-0.7,6.8-0.3,10,1.1c0.7,0.3,1.3,0.6,1.8,1.2
		c0.6,0.8,1.1,2.6-0.1,3.1C203.7,367.9,202.3,367.4,201.3,368.6z"/>
	<path class="st0" d="M204.3,346.6c-1.3,2.3-4.3,3.9-7.6,3.9c-3.4,0-6.3-1.6-7.7-3.8l-6.6,0l0.1,9.6l0,2.1l0.1,9.6l6.6,0
		c1.3-2.3,4.3-3.9,7.6-3.9c3.4,0,6.3,1.6,7.7,3.8l4.2,0l-0.1-9.6l0-2.1l-0.1-9.6L204.3,346.6z"/>
	<rect x="208.5" y="346.6" transform="matrix(1 -5.415945e-03 5.415945e-03 1 -1.9314 1.1646)" width="11.1" height="21.3"/>
</g>
<path class="st1" d="M79.6,351.5c-4.8,14.7-9.5,31.4-2.6,45.2c5.2,10.4,16,16.6,26.8,20.1c4,1.3,8.7,2.2,12.1-0.3
	c2.1-1.5,3.3-4.1,4.3-6.5c7.2-18.6,5.4-39.4,3.1-59.3c-1.2-10.7-2.5-21.3-3.9-31.9c-0.3-2.5-0.8-5.3-2.7-6.9
	c-1.4-1.1-3.2-1.4-4.9-1.6c-3.7-0.5-12.6-3.5-16-2.1c-4,1.6-4.5,7.5-5.8,11.5C86.6,330.2,83.1,340.9,79.6,351.5z"/>
<path class="st6" d="M123.4,350.7c-1.2-10.7-2.5-21.3-3.9-31.9c-0.3-2.5-0.8-5.3-2.7-6.9c-1.4-1.1-3.2-1.4-4.9-1.6
	c-3-0.4-9.5-2.5-13.6-2.5c-3.8,4.8-5.7,11.7-7.2,17.3c-3.1,11.7-3.4,23.8-6,35.6c3.6-16.1,9-31.8,16.1-46.7c-3.7,16.4-6,33.2-6.9,50
	c3.3-13.3,7.2-26.4,11.5-39.4c-0.2,10.7-0.5,21.3-0.7,32c2.5-8.7,4.7-17.5,6.6-26.3c1.4,10.2,2.2,20.5,2.4,30.8
	c0.1,8.1-0.2,16.5-3.6,23.9c-1.1,2.5-2.6,4.8-4.7,6.5c-3.4,2.7-7.9,3.5-12.3,3.7c-6.8,0.2-14.4-1.2-19-6.1c0.6,2.7,1.4,5.3,2.7,7.8
	c5.2,10.4,16,16.6,26.8,20.1c4,1.3,8.7,2.2,12.1-0.3c2.1-1.5,3.3-4.1,4.3-6.5C127.5,391.4,125.7,370.5,123.4,350.7z"/>
<path class="st1" d="M153.9,337.5c1,0.7,22.2,10.5,22.2,10.5l0.1,18.5l-31,11.1L153.9,337.5z"/>
<path class="st1" d="M361.3,336.2c-1,0.7-22.1,10.7-22.1,10.7l0.1,18.5l31.2,10.7L361.3,336.2z"/>
<path class="st7" d="M248.3,306.2l-4.9-28.5l-5.5,0.6l-3,28.2c-0.2,2,1.3,3.7,3.3,3.7l6.7,0C247.1,310.1,248.6,308.2,248.3,306.2z
	 M239.5,288.8l0-7.3l2,0l1.3,7.3L239.5,288.8z"/>
<path class="st8" d="M237.8,293.8c-0.2,2.3-0.4,4.6-0.6,6.9c-0.2,2-0.4,4,0,5.9c0.1,0.6,0.4,1.3,0.9,1.4c0.3,0.1,0.6,0,0.8-0.1
	c0.6-0.3,0.9-0.9,1.1-1.5c0.2-0.6,0.1-1.3,0.1-1.9c-0.1-2.1-0.1-4.2-0.2-6.3c0-1.3-0.1-2.6-0.1-3.9c0-0.5,0-0.9-0.3-1.3
	C238.9,292.2,237.9,293,237.8,293.8z"/>
<path class="st0" d="M91.7,313.5c0,0,4.3-0.3,12.8,1.1c8.2,1.3,14.9,3.1,14.9,3.1l0.5-7.1c0,0-8.3-1.6-14.3-2.3
	c-6.7-0.8-11.7-1-11.7-1L91.7,313.5z"/>
<path class="st1" d="M437.9,349c4.9,14.7,9.8,31.3,3.1,45.1c-5.1,10.4-15.8,16.8-26.6,20.4c-4,1.3-8.7,2.3-12.1-0.2
	c-2.1-1.5-3.4-4-4.3-6.5c-7.4-18.5-5.8-39.4-3.7-59.2c1.1-10.7,2.3-21.3,3.5-32c0.3-2.5,0.7-5.3,2.7-6.9c1.4-1.1,3.2-1.4,4.9-1.7
	c3.7-0.5,12.6-3.7,16-2.3c4,1.6,4.5,7.4,5.9,11.4C430.7,327.9,434.3,338.5,437.9,349z"/>
<path class="st6" d="M394.1,348.7c1.1-10.7,2.3-21.3,3.5-32c0.3-2.5,0.7-5.3,2.7-6.9c1.4-1.1,3.2-1.4,4.9-1.7
	c3-0.4,9.4-2.6,13.6-2.6c3.8,4.8,5.9,11.7,7.4,17.2c3.2,11.7,3.6,23.8,6.4,35.5c-3.7-16.1-9.3-31.7-16.6-46.6
	c3.9,16.4,6.4,33.1,7.5,49.9c-3.5-13.2-7.5-26.4-11.9-39.3c0.3,10.7,0.7,21.3,1,32c-2.6-8.7-4.9-17.4-6.9-26.3
	c-1.3,10.2-2,20.5-2,30.8c0,8.1,0.4,16.5,3.8,23.9c1.1,2.4,2.7,4.8,4.8,6.5c3.4,2.7,8,3.4,12.3,3.5c6.8,0.2,14.4-1.3,18.9-6.3
	c-0.5,2.7-1.4,5.3-2.6,7.9c-5.1,10.4-15.8,16.8-26.6,20.4c-4,1.3-8.7,2.3-12.1-0.2c-2.1-1.5-3.4-4-4.3-6.5
	C390.5,389.4,392.1,368.6,394.1,348.7z"/>
<path class="st0" d="M425.4,311.2c0,0-4.3-0.2-12.8,1.2c-8.2,1.4-14.9,3.3-14.9,3.3l-0.6-7.1c0,0,8.3-1.7,14.3-2.5
	c6.6-0.9,11.7-1.1,11.7-1.1L425.4,311.2z"/>
<path class="st0" d="M315.2,102c0,0-8.4-1.2-12.1-5.5c-3.6-4.3-2.6-18.8-8-22.6c-5.4-3.8-40.6-4.6-40.6-4.6s-35.2,1.2-40.5,5
	c-5.4,3.9-4.2,18.3-7.8,22.7c-3.6,4.4-12,5.6-12,5.6c-6.8,2-2.6,11.3,5.4,10c7.9-1.4,12.5-4.2,17-13.9c1.9-4.2,1.9-15.7,6-19.2
	c4.1-3.5,32-3.9,32-3.9s28,0,32.1,3.5c4.1,3.5,4.2,15,6.2,19.2c4.6,9.6,9.2,12.5,17.1,13.8C317.9,113.3,322,103.9,315.2,102z"/>
<path class="st9" d="M176.8,120c-8.7,8.5-15.7,18.8-20.5,29.9c-2.5,5.7-4.4,11.7-6.3,17.6c-2.3,7.2-4.6,14.4-7,21.5
	c-1.8,5.5-3.5,11-4.2,16.7c-0.4,3.5,0.3,8,3.7,8.9c3.7,1,6.6-3.2,8-6.7c4.9-12.4,7.5-25.6,11.7-38.3c4.3-12.7,10.5-25.2,20.8-33.6
	c3.4-2.7,7.2-5.2,9-9.1c1.6-3.6,0-9-3.8-10.7C184.2,114.3,179.5,117.2,176.8,120z"/>
<path class="st9" d="M239.4,157.5c-13.2,5.8-26.1,13.8-33.9,25.9c-1.5,2.4-2.8,4.9-3.2,7.7c-0.3,2.8,0.5,5.8,2.6,7.6
	c1.4,1.2,3.2,1.7,5,1.8c5.4,0.4,10.5-2.9,14.3-6.8c3.9-3.9,7-8.4,11.4-11.8c6.8-5.3,15.7-7,24.2-8.2c3.4-0.5,6.9-1,9.9-2.8
	c3-1.7,5.4-5,5-8.4c-0.9-7.5-11.1-8.6-16.9-9.1C251.5,152.9,245,155,239.4,157.5z"/>
<polygon class="st10" points="184.3,206 174.9,238.5 189.2,208.3 "/>
<polygon class="st10" points="330.8,204.4 338.6,231.3 327.6,206 "/>
<polygon class="st10" points="243.3,214.2 243.4,231.8 247.9,231.8 245.6,214.2 "/>
<polygon class="st10" points="219.7,348.2 219.8,365.7 227.4,365.7 222.4,348.2 "/>
<polygon class="st10" points="157.2,373.3 154.8,342.4 161.7,371.7 "/>
<polygon class="st10" points="359.8,372.5 362.1,347.7 354.9,370.8 "/>
</svg>
