<?xml version="1.0" encoding="utf-8"?>
<!-- Generator: Adobe Illustrator 24.0.2, SVG Export Plug-In . SVG Version: 6.00 Build 0)  -->
<svg version="1.1" id="Layer_1" xmlns="http://www.w3.org/2000/svg" xmlns:xlink="http://www.w3.org/1999/xlink" x="0px" y="0px"
	 viewBox="0 0 500 500" style="enable-background:new 0 0 500 500;" xml:space="preserve">
<style type="text/css">
	.st0{fill:#B6822E;}
	.st1{fill:#CFA168;}
	.st2{fill:#685252;}
	.st3{fill:#1C1C1C;}
	.st4{fill:#E5C71F;}
</style>
<g>
	<path class="st0" d="M257.9,125c0,0-2.1,8.2,17.6,14.4c19.7,6.2,34.9,9.5,39.2,25.6c4.4,16.1,6,36.5,6,36.5l21.2-14.9l-4.3-35.7
		c0,0,14.5-6.6,38.2-19.5c22.4-12.2,39.2-40.6,39.2-40.6l-19.6-9.1c-8.9,12.7-7.9,18.7-29.7,33.3c-19.9,13.4-40,14.1-60.2,11.6
		c-9.1-1.1-45.3-23.4-45.3-23.4L257.9,125z"/>
	<path class="st0" d="M85.4,322.8c0,0,4.4-15.9,9.9-26.6c8.1-15.6,37.4-12.8,37.4-12.8s-12.4,1.6-17.4,23.6
		c-1.8,7.9-3.3,15.2-3.3,15.2L85.4,322.8z"/>
	<polygon class="st0" points="178,320.5 149.5,274.5 173.9,260 206.7,314.3 	"/>
	<path class="st1" d="M58.7,332c0,0-1.9-15.3,68.4-12.6c54.9,2.1,106-10.5,126.8-43.4c20.9-33,51.6-78.6,97.1-97.8
		c45.5-19.2,70.1-14.8,76.2-7.5c6.1,7.3,2.1,17.2,2.1,17.2L259.5,375.1L69.2,344.7L58.7,332z"/>
	<path class="st2" d="M65.1,383.5c0,0,55.9,22.1,158.8,9.3c145-18.1,197.8-75.1,197.8-75.1l7.7-129.8c0,0-75,27.4-105.2,83.2
		c-30.1,55.8-72.2,77.5-135.8,81.8C113.6,358,58.7,332,58.7,332L65.1,383.5z"/>
	<path class="st3" d="M66.2,392.3c0,0,55.9,22.1,158.8,9.3c145-18.1,195.7-74.9,195.7-74.9l7.7-129.8c0,0-71.5,28.3-101.6,84.1
		c-30.1,55.8-73.7,76.3-137.3,80.6c-74.7,5.1-129.7-20.9-129.7-20.9L66.2,392.3z"/>
	<path class="st4" d="M215.3,358.9c-8.2,1.3-16.9,2.3-25.9,2.9c-6.7,0.5-13.3,0.7-19.6,0.7c-0.1-2.3-0.2-5.3-0.7-8.8
		c-1.4-11.9-5.6-29.4-17.4-42.4c-19.6-21.4-52.4-20.3-52.4-20.3s19.5-17.2,54.3-7.2c36.1,10.4,52.6,46.5,59.2,66.5
		C213.9,353.6,214.7,356.6,215.3,358.9z"/>
	<path class="st4" d="M283.2,332.7c-9.9,7.2-20.8,12.8-32.6,17.2l0,0c-1-2.2-2.3-5-4-8.3c-6.2-12-17.5-30.1-35.2-46.1
		c-29.5-26.7-61.9-21.1-61.9-21.1l23.2-17.1c0,0,27.6-2.6,56.6,14c19.6,11.2,38.8,37.8,49.2,53.7C280.4,328.1,282,330.7,283.2,332.7
		z"/>
	<path class="st4" d="M413.2,129.1c-9.6,14.9-20.4,19.4-20.4,19.4l6.7,53.4l1.1,9c-7.6,4.4-16.1,9.8-24.9,16.3
		c-0.4-2.8-0.9-6.1-1.4-9.6c-2.6-18.4-6.3-44.2-8-57.8c-2.7-21.6-34.1-35.1-65.5-36.7c-31.5-1.6-42.9,1.9-42.9,1.9l2.5-21.8
		c0,0,18.8-4,54.8-1.1c30.1,2.5,45.8,25.3,62.6,20.9c16.8-4.5,22.5-9.9,22.5-20.1c0-12.3-4.5-20.8-4.8-21.2l19.6,9.1
		C415.1,90.7,424.3,111.7,413.2,129.1z"/>
</g>
</svg>
