<?xml version="1.0" encoding="utf-8"?>
<!-- Generator: Adobe Illustrator 24.0.2, SVG Export Plug-In . SVG Version: 6.00 Build 0)  -->
<svg version="1.1" id="Layer_1" xmlns="http://www.w3.org/2000/svg" xmlns:xlink="http://www.w3.org/1999/xlink" x="0px" y="0px"
	 viewBox="0 0 500 500" style="enable-background:new 0 0 500 500;" xml:space="preserve">
<style type="text/css">
	.st0{fill-rule:evenodd;clip-rule:evenodd;fill:#6F7099;}
	.st1{fill-rule:evenodd;clip-rule:evenodd;fill:#4A4A6C;}
	.st2{fill-rule:evenodd;clip-rule:evenodd;fill:#E3E4F2;}
</style>
<g>
	<path class="st0" d="M264.6,142.8c-19.9-0.3-112.7-8-123-8.8c-10.3-0.8-9.2-3.4-11.1,6.5c-1.9,9.9-5.7,16-6.5,25.6
		c-0.8,9.6-11.8,56.9-13.4,71.1c-1.5,14.1-8.8,61.5-10.7,71.4c-1.9,9.9-7.6,11.5,3.8,13c11.5,1.5,58.4,18.7,85.2,27.5
		c26.7,8.8,30.2,15.3,41.3,9.2c11.1-6.1,18.7-6.1,30.6-1.5c11.8,4.6,2.3,13,30.9,3.4c28.7-9.6,92.8-33.6,107.7-35.9
		c14.9-2.3,18.7,0,15.7-9.9c-3.1-9.9-11.8-81-15.7-106.2c-3.8-25.2-11.1-60.7-11.1-66.9c0-6.1-1.5-8-12.2-6.5
		C365.4,136.3,300.1,143.2,264.6,142.8z"/>
	<path class="st1" d="M135.8,136.3c11.1,3.1,45.1,12.2,69.9,17.6c24.8,5.3,35.1,9.2,47.8,9.2c12.6,0,31.7,1.5,50.4-5
		c18.7-6.5,38.6-11.1,51.6-14.5c13-3.4,26.4-5.7,26.4-5.7s-21,0.4-39.7,3.4c-18.7,3.1-0.4,3.8-13.4,8c-13,4.2-35.5,11.8-49.3,11.8
		c-13.8,0-35.1-16.8-32.9-8.4c2.3,8.4-13,8.4-24.8,3.8c-11.8-4.6-13.4-10.7-35.1-14.9S156.1,136.3,135.8,136.3z"/>
	<path class="st1" d="M131.1,137c-0.2,0.9-0.4,2.1-0.7,3.4c-1.6,8.6-4.7,14.3-6,21.8c5.1,1.1,10.1,2.3,16,4.5c8,3.1-17.2-10.3-5-8
		c12.2,2.3-1.5-11.8,7.3-9.6C150.9,151.4,140.1,141.2,131.1,137L131.1,137z M123.9,166.6c11.4,1.9,33.5,8.3,47,11.3
		c15.7,3.4,30.2,7.6,30.2,7.6l-6.5-0.4c0,0,2.3,14.1-8.4,21.4c-10.7,7.3-50,8.4-56.2,5.7c-6.1-2.7-8,5.7-0.4,5.7
		c7.6,0,10.3,6.5,1.1,6.5c-9.2,0-2.3,6.9,2.7,12.6c5,5.7,10.3,47.4,4.2,30.9c-6.1-16.4-8.8-6.1-14.5-11.1c-5.7-5-7.6,3.4-6.9,12.2
		c0.8,8.8,0.4,32.1-1.1,40.1c-1.5,8-7.3,9.2-1.1,8.8c6.1-0.4,54.6,6.5,74.9,7.3c20.2,0.8,45.1,9.6,49.3,9.6c4.2,0,6.5-16,8-24.8
		c1.5-8.8,11.8-27.9,7.3-15.7c-4.6,12.2-11.1,34-9.9,38.6c1.1,4.6,6.5,12.6,6.5,3.4c0-9.2,4.6-27.5,7.3-29c2.7-1.5,9.6,7.6,9.6,14.5
		c0,6.9,1.1,10.3,7.3,11.5c6.1,1.1,0.4,3.8-3.1,7.6c-3.4,3.8-2.7,6.1,1.5,11.5c4.2,5.3,4.6,5.7,2.3,11.5c-0.1,0.2-0.2,0.3-0.3,0.5
		c-7.8,0.5-5.6-4.6-13.9-7.8c-11.8-4.6-19.5-4.6-30.6,1.5c-11.1,6.1-14.5-0.4-41.3-9.2c-26.7-8.8-73.7-26-85.2-27.5
		c-11.5-1.5-5.7-3.1-3.8-13c1.9-9.9,9.2-57.3,10.7-71.4C112.1,223.2,122.8,177.3,123.9,166.6z"/>
	<path class="st1" d="M134.3,172.6c13,1.5,36.7,5.7,49.7,10.7c13,5,7.2,19.5,0,22.5c-9.2,3.9-20-7.7-28.3-6.9
		c-8.8,0.9,6.6,12.2,1.5,12.6c-9.1,0.7-17.3,1.4-22.2,0.8c-11.1-1.5-10.3-5-8-7.6c2.3-2.7,8.8,2.3,6.5-6.1
		c-2.3-8.4,3.4-9.2-0.4-13.8c-3.8-4.6,4.2-5,0.4-7.3C129.7,175.2,130.1,170.3,134.3,172.6z"/>
	<path class="st1" d="M127.8,182.1c-1.9,6.9-7.6,20.6-9.9,33.6c-2.3,13-7.3,30.2-4.6,32.5c2.7,2.3-1.5,7.6-1.9,13.8
		c-0.4,6.1-3.8,45.1-6.9,50c-3.1,5,2.3,10.3,3.8,2.7c1.5-7.6,5-35.5,5.3-45.8c0.4-10.3,2.7-11.8,5-16.4c2.3-4.6,2.3-18.3,2.3-26
		C120.9,218.8,117.9,218,127.8,182.1z"/>
	<path class="st1" d="M206.5,155c-1.5,6.1-4.2,30.8-5.3,33.6c-1.2,2.8-2,3.6,1.5,4.3c3.5,0.8,4.6,1.1,4.9-0.5
		c0.3-1.6,0.6,3.8-5.1,1.7c-5.7-2.1-3.6-2.4-2.1-8.1C202,180.5,203.4,168,206.5,155z"/>
	<path class="st1" d="M210.4,186.8c0,0,23.2,4.9,29.8,5.7c6.6,0.8,9.9,1.9,10.6-3.9c0.6-5.8,0.9-11.5,0.3-16.1
		c-0.6-4.6,1.3-10.4,1.3-5.8c0,4.6,2.2,22.6,2.7,25.3c0.5,2.7,1.4,6.8,1.3,17.4c-0.2,10.6,0,40.2,0,49.4c0,9.3,0.8,26.2,0.3,27.8
		c-0.5,1.6-1.6-22.8-1.6-36.2c0-13.5,0.8-12.7-7.1-14c-7.9-1.3-30.4-11.9-37.6-18c-7.1-6.1-11.4-16.7-1.6-12.4
		c9.8,4.2,38.9,23.3,43.1,25.7c4.2,2.4,4.8-5.6,2.6-11.6c-2.1-6.1-0.3-13-2.9-16.9C248.9,198.9,249.2,196.5,210.4,186.8z"/>
	<path class="st1" d="M175.1,221.1c11.3,4.9,41.2,25,20.1,17.6C174.1,231.3,156.5,212.3,175.1,221.1z"/>
	<path class="st1" d="M262.8,282c0,0-4.6,13,0.4,16.9c4.9,3.9,18.7,17.6,21.8,25C288.2,331.4,287.1,305.6,262.8,282z"/>
	<path class="st1" d="M264.6,269c8.1,0.4,32-1.1,39.4-5.3C311.4,259.5,297.3,280.3,264.6,269z"/>
	<path class="st1" d="M304.4,158.1c0,0,4.9,29.2,4.9,32.8c0,3.5,2.1,4.9,9.5,2.1c7.4-2.8-6.7,4.6-8.1-2.5
		C309.3,183.4,307.9,167.6,304.4,158.1z"/>
	<path class="st1" d="M323.7,199.6c0,0,3.2,15.5,24.3,19.4c21.1,3.9,40.1,0,40.1,0S336.8,225,323.7,199.6z"/>
	<path class="st1" d="M336.4,200.7c9.9,6.3,37.7,14.4,46.1,12.7C391,211.6,368.8,213.4,336.4,200.7z"/>
	<path class="st1" d="M258.1,191.2c0,0,30.2-2.8,50.8-6.7l0.4,1.5C292.9,188.8,275.4,190.9,258.1,191.2L258.1,191.2z M316.7,183
		c18.5-3.7,37.3-7.8,49.7-11.6c14-4.2,25.1-7.1,25.1-7.1s-32.7,12.2-74.3,20.2L316.7,183z"/>
	<path class="st1" d="M264.7,186.5c4,0,7.2-3.2,7.2-7.2c0-4-3.2-7.2-7.2-7.2c-4,0-7.2,3.2-7.2,7.2
		C257.6,183.3,260.8,186.5,264.7,186.5z"/>
	<path class="st1" d="M277.8,164.1c5-0.9,10.4,0.5,7.8,5.5c-2.6,5,1.7,7.8-1.9,8.8c-3.6,0.9,2.4,4.7,0.2,8.1
		c-2.1,3.3-0.2,5.2,3.6,5.2c3.8,0-2.8,3.6-10.2,3.1c-7.3-0.5-5.9,2.1-1.7,4c4.3,1.9,5,6.4-1.4,3.3c-6.4-3.1-12.3-6.4-9.2-2.8
		c3.1,3.6,0.7,3.8-3.6,0.5c-4.3-3.3-4.3,6.4,0.2,6.9c4.5,0.5,25.1,9.2,15.2,7.3c-10-1.9-16.8-4.7-15.6-2.4c1.2,2.4,10.2,11.9,4.3,10
		c-5.9-1.9-7.6-2.4-7.6-9.7c0-7.3-3.1-17.3,0.2-17.8c3.3-0.5,10.7,0.2,8.3-1.4c-2.4-1.7,0.7-2.6,1.7-9.2c0.9-6.6-5,2.4-9-3.6
		c-4-5.9-6.2-16.4-2.1-12.1c4,4.3,13.5,10.7,13.5,5.7C270.4,168.4,263.1,163.9,277.8,164.1z"/>
	<path class="st1" d="M340.6,152.8c1.2,5.2,5,10.4,5,14c0,3.6,3.3,13.3-0.7,13.5c-4,0.2-20.4,8.3-13.7,7.1c6.6-1.2,15.2-7.1,21.6,0
		c6.4,7.1,6.6,1.4,3.3-2.6c-3.3-4,15.9-7.3,21.8-8.5c5.9-1.2,18.3-5.2,4.3-3.1c-14,2.1-30.1,10.2-32,2.6
		C348.2,168.2,347,161.8,340.6,152.8z"/>
	<path class="st1" d="M222.7,164.9c9.1,1,15.3,10.4,15.3,14.5c0,4.2-14.3-10.4-20.7-12.1C210.8,165.6,213,163.9,222.7,164.9z"/>
	<path class="st1" d="M158.1,151.5c11.3,3.2,30.1,8.6,31.3,11.8c1.2,3.2-7.9,0.7-20.5,0.2C156.3,163.1,151.9,150.3,158.1,151.5z"/>
	<path class="st1" d="M243.8,340.1c-6.4,3.7-14.6,4.6-8.6,8.7c6.1,4.1,8.4,7.5,7.8,1.2C242.6,343.8,242.9,345.1,243.8,340.1z"/>
	<path class="st1" d="M285.1,362.2c1.9-0.6,4.1-1.3,6.6-2.1c28.7-9.6,92.8-33.6,107.7-35.9l0.5-0.1c-23.8-1.3-84.3-2.4-119.9,10.6
		c-4.6,3.4-9.8,6.6-6.4,10.5c3.4,3.9,5,6.1,4.8,9.8C278.2,358,278.7,361.5,285.1,362.2z"/>
	<path class="st2" d="M265.5,173.1c3.2,0,5.8,2.6,5.8,5.8c0,3.2-2.6,5.8-5.8,5.8c-3.2,0-5.8-2.6-5.8-5.8
		C259.8,175.7,262.3,173.1,265.5,173.1z"/>
</g>
</svg>
