<?xml version="1.0" encoding="utf-8"?>
<!-- Generator: Adobe Illustrator 24.0.2, SVG Export Plug-In . SVG Version: 6.00 Build 0)  -->
<svg version="1.1" id="Layer_1" xmlns="http://www.w3.org/2000/svg" xmlns:xlink="http://www.w3.org/1999/xlink" x="0px" y="0px"
	 viewBox="0 0 500 500" style="enable-background:new 0 0 500 500;" xml:space="preserve">
<style type="text/css">
	.st0{fill:#54371F;}
	.st1{fill:#93673E;}
	.st2{opacity:0.31;fill:#54371F;}
	.st3{fill:#C6867B;}
	.st4{fill:#A36962;}
	.st5{fill:#EDABA2;}
	.st6{fill:#FFB96C;}
	.st7{fill:#422811;}
	.st8{opacity:0.36;fill:#352920;}
	.st9{fill:#190D05;}
	.st10{fill:#FFCD9C;}
	.st11{fill:#FFC397;}
	.st12{fill:#EDB183;}
	.st13{fill:#5E3C25;}
	.st14{fill:#754E2F;}
	.st15{fill:#281A10;}
</style>
<g>
	<path class="st0" d="M256.3,179.5c25.6,0,46.5,21.7,47.6,48.9h18.9c-1.1-37.7-30.5-67.9-66.6-67.9c-36.1,0-65.5,30.2-66.6,67.9
		h18.9C209.7,201.2,230.7,179.5,256.3,179.5z"/>
	<path class="st1" d="M400.3,409.8c-2.4,7.6-9.5,12.7-17.5,12.7H122.5c-8.3,0-15.6-5.6-17.7-13.6c-2-7.7-2.7-17.1-2.5-27.5
		c1.3-51.5,26.3-126.5,26.3-126.5h254.2C382.8,254.9,414.4,364.9,400.3,409.8z"/>
	<path class="st2" d="M400.3,409.8c-2.4,7.6-9.5,12.7-17.5,12.7H122.5c-8.3,0-15.6-5.6-17.7-13.6c-2-7.7-2.7-17.1-2.5-27.5
		c53.5,13.5,213.3,12,227.2-11.5c12.2-20.7,1-84.3-5.4-115h58.7C382.8,254.9,414.4,364.9,400.3,409.8z"/>
	<path class="st2" d="M382.8,254.9h-5.2c6.7,25.2,27.5,109.7,15.5,147.7c-2.4,7.6-9.5,12.7-17.5,12.7H115.3c-3.2,0-6.2-0.8-8.9-2.3
		c3.2,5.8,9.3,9.5,16.1,9.5h260.3c8,0,15.1-5.1,17.5-12.7C414.4,364.9,382.8,254.9,382.8,254.9z"/>
	<path class="st3" d="M387.7,227.8v81.5l-53.7,22.9c-49.1,21-106.2,21-155.3,0L125,309.3v-81.5H387.7z"/>
	<path class="st4" d="M258.8,342.9c-1,0-1.9,0-2.9,0h-0.4c-0.1,0-0.2,0.1-0.2,0.2c0,0.1,0.1,0.2,0.2,0.2h0.4c1,0,1.9,0,2.9,0
		c0.1,0,0.2-0.1,0.2-0.2C259,343,258.9,343,258.8,342.9z M252.1,342.9c-1.1,0-2.2-0.1-3.3-0.1c-0.1,0-0.2,0.1-0.2,0.2
		c0,0.1,0.1,0.2,0.2,0.2c1.1,0,2.2,0.1,3.3,0.1c0,0,0,0,0,0c0.1,0,0.2-0.1,0.2-0.2C252.4,343,252.3,342.9,252.1,342.9z M265.4,342.7
		c-1.1,0.1-2.2,0.1-3.3,0.1c-0.1,0-0.2,0.1-0.2,0.2c0,0.1,0.1,0.2,0.2,0.2c0,0,0,0,0,0c1.1,0,2.2-0.1,3.3-0.1c0.1,0,0.2-0.1,0.2-0.2
		C265.6,342.8,265.5,342.7,265.4,342.7z M245.5,342.7c-1.1-0.1-2.2-0.1-3.3-0.2c-0.1,0-0.2,0.1-0.3,0.2c0,0.1,0.1,0.2,0.2,0.3
		c1.1,0.1,2.2,0.1,3.3,0.2c0,0,0,0,0,0c0.1,0,0.2-0.1,0.2-0.2C245.8,342.8,245.7,342.7,245.5,342.7z M272,342.3
		c-1.1,0.1-2.2,0.2-3.3,0.3c-0.1,0-0.2,0.1-0.2,0.3c0,0.1,0.1,0.2,0.2,0.2h0c1.1-0.1,2.2-0.2,3.3-0.3c0.1,0,0.2-0.1,0.2-0.3
		C272.2,342.3,272.1,342.3,272,342.3z M238.9,342.2c-1.1-0.1-2.2-0.2-3.3-0.3c-0.1,0-0.2,0.1-0.3,0.2c0,0.1,0.1,0.2,0.2,0.3
		c1.1,0.1,2.2,0.2,3.3,0.3h0c0.1,0,0.2-0.1,0.2-0.2C239.2,342.3,239.1,342.2,238.9,342.2z M278.6,341.6c-1.1,0.1-2.2,0.3-3.3,0.4
		c-0.1,0-0.2,0.1-0.2,0.3c0,0.1,0.1,0.2,0.2,0.2h0c1.1-0.1,2.2-0.2,3.3-0.4c0.1,0,0.2-0.1,0.2-0.3
		C278.8,341.6,278.7,341.5,278.6,341.6z M232.4,341.5c-1.1-0.1-2.2-0.3-3.3-0.4c-0.1,0-0.2,0.1-0.3,0.2c0,0.1,0.1,0.3,0.2,0.3
		c1.1,0.2,2.2,0.3,3.3,0.4h0c0.1,0,0.2-0.1,0.2-0.2C232.6,341.6,232.5,341.5,232.4,341.5z M285.1,340.6c-1.1,0.2-2.2,0.3-3.3,0.5
		c-0.1,0-0.2,0.1-0.2,0.3c0,0.1,0.1,0.2,0.2,0.2c0,0,0,0,0,0c1.1-0.2,2.2-0.3,3.3-0.5c0.1,0,0.2-0.1,0.2-0.3
		C285.4,340.7,285.2,340.6,285.1,340.6z M225.8,340.5c-1.1-0.2-2.2-0.4-3.3-0.6c-0.1,0-0.3,0.1-0.3,0.2c0,0.1,0.1,0.3,0.2,0.3
		c1.1,0.2,2.2,0.4,3.3,0.6c0,0,0,0,0,0c0.1,0,0.2-0.1,0.2-0.2C226,340.7,225.9,340.5,225.8,340.5z M291.6,339.5
		c-1.1,0.2-2.2,0.4-3.3,0.6c-0.1,0-0.2,0.1-0.2,0.3c0,0.1,0.1,0.2,0.2,0.2c0,0,0,0,0,0c1.1-0.2,2.2-0.4,3.3-0.6
		c0.1,0,0.2-0.1,0.2-0.3C291.9,339.5,291.8,339.5,291.6,339.5z M219.3,339.3c-1.1-0.2-2.2-0.4-3.2-0.7c-0.1,0-0.3,0.1-0.3,0.2
		c0,0.1,0.1,0.3,0.2,0.3c1.1,0.2,2.2,0.5,3.2,0.7c0,0,0,0,0,0c0.1,0,0.2-0.1,0.2-0.2C219.5,339.5,219.4,339.4,219.3,339.3z
		 M298.4,338.3c0-0.1-0.2-0.2-0.3-0.2c-1.1,0.3-2.1,0.5-3.2,0.7c-0.1,0-0.2,0.2-0.2,0.3c0,0.1,0.1,0.2,0.2,0.2c0,0,0,0,0,0
		c1.1-0.2,2.2-0.5,3.2-0.7C298.3,338.5,298.4,338.4,298.4,338.3z M212.8,337.9c-1.1-0.3-2.1-0.5-3.2-0.8c-0.1,0-0.3,0-0.3,0.2
		c0,0.1,0,0.3,0.2,0.3c1.1,0.3,2.1,0.5,3.2,0.8c0,0,0,0,0.1,0c0.1,0,0.2-0.1,0.2-0.2C213,338.1,213,337.9,212.8,337.9z M304.8,336.6
		c0-0.1-0.2-0.2-0.3-0.2c-1.1,0.3-2.1,0.6-3.2,0.8c-0.1,0-0.2,0.2-0.2,0.3c0,0.1,0.1,0.2,0.2,0.2c0,0,0,0,0.1,0
		c1.1-0.3,2.1-0.6,3.2-0.8C304.8,336.9,304.9,336.8,304.8,336.6z M206.4,336.3c-1.1-0.3-2.1-0.6-3.2-0.9c-0.1,0-0.3,0-0.3,0.2
		c0,0.1,0,0.3,0.2,0.3c1.1,0.3,2.1,0.6,3.2,0.9c0,0,0,0,0.1,0c0.1,0,0.2-0.1,0.2-0.2C206.6,336.4,206.6,336.3,206.4,336.3z
		 M311.2,334.8c0-0.1-0.2-0.2-0.3-0.2c-1.1,0.3-2.1,0.6-3.2,1c-0.1,0-0.2,0.2-0.2,0.3c0,0.1,0.1,0.2,0.2,0.2c0,0,0,0,0.1,0
		c1.1-0.3,2.1-0.6,3.2-1C311.1,335,311.2,334.9,311.2,334.8z M200.1,334.4c-1.1-0.3-2.1-0.7-3.1-1c-0.1,0-0.3,0-0.3,0.1
		c0,0.1,0,0.3,0.1,0.3c1.1,0.4,2.1,0.7,3.2,1c0,0,0,0,0.1,0c0.1,0,0.2-0.1,0.2-0.2C200.3,334.6,200.2,334.4,200.1,334.4z
		 M317.5,332.7c0-0.1-0.2-0.2-0.3-0.1c-1,0.4-2.1,0.7-3.1,1.1c-0.1,0-0.2,0.2-0.2,0.3c0,0.1,0.1,0.2,0.2,0.2c0,0,0,0,0.1,0
		c1-0.4,2.1-0.7,3.1-1.1C317.4,332.9,317.5,332.8,317.5,332.7z M193.8,332.3c-1-0.4-2.1-0.8-3.1-1.1c-0.1,0-0.3,0-0.3,0.1
		c0,0.1,0,0.3,0.1,0.3c1,0.4,2.1,0.8,3.1,1.1c0,0,0.1,0,0.1,0c0.1,0,0.2-0.1,0.2-0.2C194,332.5,193.9,332.3,193.8,332.3z
		 M323.7,330.4c0-0.1-0.2-0.2-0.3-0.1c-1,0.4-2.1,0.8-3.1,1.2c-0.1,0-0.2,0.2-0.1,0.3c0,0.1,0.1,0.2,0.2,0.2c0,0,0.1,0,0.1,0
		c1-0.4,2.1-0.8,3.1-1.2C323.7,330.6,323.7,330.5,323.7,330.4z M187.6,329.9c-1-0.4-2-0.8-3.1-1.2c-0.1-0.1-0.3,0-0.3,0.1
		c-0.1,0.1,0,0.3,0.1,0.3c1,0.4,2,0.8,3.1,1.3c0,0,0.1,0,0.1,0c0.1,0,0.2-0.1,0.2-0.2C187.8,330.1,187.7,330,187.6,329.9z
		 M329.8,327.8c0-0.1-0.2-0.2-0.3-0.1c-1,0.4-2,0.9-3,1.3c-0.1,0.1-0.2,0.2-0.1,0.3c0,0.1,0.1,0.1,0.2,0.1c0,0,0.1,0,0.1,0
		c1-0.4,2-0.9,3.1-1.3C329.8,328.1,329.8,327.9,329.8,327.8z M181.5,327.4l-3-1.3c-0.1-0.1-0.3,0-0.3,0.1c-0.1,0.1,0,0.3,0.1,0.3
		l3,1.3c0,0,0.1,0,0.1,0c0.1,0,0.2-0.1,0.2-0.1C181.7,327.6,181.6,327.4,181.5,327.4z M335.9,325.1c0-0.1-0.2-0.2-0.3-0.1l-3,1.3
		c-0.1,0.1-0.2,0.2-0.1,0.3c0,0.1,0.1,0.1,0.2,0.1c0,0,0.1,0,0.1,0l3-1.3C335.9,325.4,335.9,325.2,335.9,325.1z M175.5,324.7l-3-1.3
		c-0.1-0.1-0.3,0-0.3,0.1c-0.1,0.1,0,0.3,0.1,0.3l3,1.3c0,0,0.1,0,0.1,0c0.1,0,0.2,0,0.2-0.1C175.6,324.9,175.6,324.7,175.5,324.7z
		 M341.9,322.4c-0.1-0.1-0.2-0.2-0.3-0.1l-3,1.3c-0.1,0-0.2,0.2-0.1,0.3c0,0.1,0.1,0.1,0.2,0.1c0,0,0.1,0,0.1,0l3-1.3
		C341.9,322.7,342,322.6,341.9,322.4z M169.4,322l-3-1.3c-0.1-0.1-0.3,0-0.3,0.1c-0.1,0.1,0,0.3,0.1,0.3l3,1.3c0,0,0.1,0,0.1,0
		c0.1,0,0.2,0,0.2-0.1C169.6,322.2,169.5,322.1,169.4,322z M348,319.8c-0.1-0.1-0.2-0.2-0.3-0.1l-3,1.3c-0.1,0.1-0.2,0.2-0.1,0.3
		c0,0.1,0.1,0.1,0.2,0.1c0,0,0.1,0,0.1,0l3-1.3C348,320,348,319.9,348,319.8z M163.3,319.3l-3-1.3c-0.1-0.1-0.3,0-0.3,0.1
		c-0.1,0.1,0,0.3,0.1,0.3l3,1.3c0,0,0.1,0,0.1,0c0.1,0,0.2-0.1,0.2-0.1C163.5,319.5,163.5,319.4,163.3,319.3z M354,317.1
		c-0.1-0.1-0.2-0.2-0.3-0.1l-3,1.3c-0.1,0.1-0.2,0.2-0.1,0.3c0,0.1,0.1,0.1,0.2,0.1c0,0,0.1,0,0.1,0l3-1.3
		C354,317.3,354.1,317.2,354,317.1z M157.3,316.6l-3-1.3c-0.1-0.1-0.3,0-0.3,0.1c-0.1,0.1,0,0.3,0.1,0.3l3,1.3c0,0,0.1,0,0.1,0
		c0.1,0,0.2-0.1,0.2-0.1C157.5,316.8,157.4,316.7,157.3,316.6z M360.1,314.4c0-0.1-0.2-0.2-0.3-0.1l-3,1.3c-0.1,0.1-0.2,0.2-0.1,0.3
		c0,0.1,0.1,0.1,0.2,0.1c0,0,0.1,0,0.1,0l3-1.3C360.1,314.6,360.1,314.5,360.1,314.4z M151.2,313.9l-3-1.3c-0.1-0.1-0.3,0-0.3,0.1
		c-0.1,0.1,0,0.3,0.1,0.3l3,1.3c0,0,0.1,0,0.1,0c0.1,0,0.2-0.1,0.2-0.1C151.4,314.1,151.3,314,151.2,313.9z M366.1,311.7
		c0-0.1-0.2-0.2-0.3-0.1l-3,1.3c-0.1,0.1-0.2,0.2-0.1,0.3c0,0.1,0.1,0.1,0.2,0.1c0,0,0.1,0,0.1,0l3-1.3
		C366.1,312,366.2,311.8,366.1,311.7z M145.2,311.3l-3-1.3c-0.1,0-0.3,0-0.3,0.1c-0.1,0.1,0,0.3,0.1,0.3l3,1.3c0,0,0.1,0,0.1,0
		c0.1,0,0.2-0.1,0.2-0.1C145.3,311.4,145.3,311.3,145.2,311.3z M372.2,309c-0.1-0.1-0.2-0.2-0.3-0.1l-3,1.3
		c-0.1,0.1-0.2,0.2-0.1,0.3c0,0.1,0.1,0.1,0.2,0.1c0,0,0.1,0,0.1,0l3-1.3C372.2,309.3,372.3,309.1,372.2,309z M139.1,308.6l-3-1.3
		c-0.1,0-0.3,0-0.3,0.1c-0.1,0.1,0,0.3,0.1,0.3l3,1.3c0,0,0.1,0,0.1,0c0.1,0,0.2-0.1,0.2-0.1C139.3,308.8,139.2,308.6,139.1,308.6z
		 M378.3,306.3c-0.1-0.1-0.2-0.2-0.3-0.1l-3,1.3c-0.1,0-0.2,0.2-0.1,0.3c0,0.1,0.1,0.1,0.2,0.1c0,0,0.1,0,0.1,0l3-1.3
		C378.3,306.6,378.3,306.4,378.3,306.3z M133.1,305.9l-3-1.3c-0.1-0.1-0.3,0-0.3,0.1c-0.1,0.1,0,0.3,0.1,0.3l3,1.3c0,0,0.1,0,0.1,0
		c0.1,0,0.2,0,0.2-0.1C133.2,306.1,133.2,305.9,133.1,305.9z M382.3,302.3c-0.1,0-0.2,0.1-0.2,0.2v1.9l-1,0.5
		c-0.1,0.1-0.2,0.2-0.1,0.3c0,0.1,0.1,0.1,0.2,0.1c0,0,0.1,0,0.1,0l1.3-0.6v-2.2C382.5,302.4,382.4,302.3,382.3,302.3z M129.5,298.2
		c-0.1,0-0.2,0.1-0.2,0.2v3.3c0,0.1,0.1,0.2,0.2,0.2c0.1,0,0.2-0.1,0.2-0.2v-3.3C129.7,298.3,129.6,298.2,129.5,298.2z M382.3,295.7
		c-0.1,0-0.2,0.1-0.2,0.2v3.3c0,0.1,0.1,0.2,0.2,0.2c0.1,0,0.2-0.1,0.2-0.2v-3.3C382.5,295.8,382.4,295.7,382.3,295.7z M129.5,291.6
		c-0.1,0-0.2,0.1-0.2,0.2v3.3c0,0.1,0.1,0.2,0.2,0.2c0.1,0,0.2-0.1,0.2-0.2v-3.3C129.7,291.7,129.6,291.6,129.5,291.6z M382.3,289
		c-0.1,0-0.2,0.1-0.2,0.2v3.3c0,0.1,0.1,0.2,0.2,0.2c0.1,0,0.2-0.1,0.2-0.2v-3.3C382.5,289.1,382.4,289,382.3,289z M129.5,284.9
		c-0.1,0-0.2,0.1-0.2,0.2v3.3c0,0.1,0.1,0.2,0.2,0.2c0.1,0,0.2-0.1,0.2-0.2v-3.3C129.7,285,129.6,284.9,129.5,284.9z M382.3,282.4
		c-0.1,0-0.2,0.1-0.2,0.2v3.3c0,0.1,0.1,0.2,0.2,0.2c0.1,0,0.2-0.1,0.2-0.2v-3.3C382.5,282.5,382.4,282.4,382.3,282.4z M129.5,278.3
		c-0.1,0-0.2,0.1-0.2,0.2v3.3c0,0.1,0.1,0.2,0.2,0.2c0.1,0,0.2-0.1,0.2-0.2v-3.3C129.7,278.4,129.6,278.3,129.5,278.3z M382.3,275.8
		c-0.1,0-0.2,0.1-0.2,0.2v3.3c0,0.1,0.1,0.2,0.2,0.2c0.1,0,0.2-0.1,0.2-0.2V276C382.5,275.9,382.4,275.8,382.3,275.8z M129.5,271.7
		c-0.1,0-0.2,0.1-0.2,0.2v3.3c0,0.1,0.1,0.2,0.2,0.2c0.1,0,0.2-0.1,0.2-0.2v-3.3C129.7,271.8,129.6,271.7,129.5,271.7z M382.3,269.2
		c-0.1,0-0.2,0.1-0.2,0.2v3.3c0,0.1,0.1,0.2,0.2,0.2c0.1,0,0.2-0.1,0.2-0.2v-3.3C382.5,269.3,382.4,269.2,382.3,269.2z M129.5,265
		c-0.1,0-0.2,0.1-0.2,0.2v3.3c0,0.1,0.1,0.2,0.2,0.2c0.1,0,0.2-0.1,0.2-0.2v-3.3C129.7,265.2,129.6,265,129.5,265z M382.3,262.5
		c-0.1,0-0.2,0.1-0.2,0.2v3.3c0,0.1,0.1,0.2,0.2,0.2c0.1,0,0.2-0.1,0.2-0.2v-3.3C382.5,262.6,382.4,262.5,382.3,262.5z M129.5,258.4
		c-0.1,0-0.2,0.1-0.2,0.2v3.3c0,0.1,0.1,0.2,0.2,0.2c0.1,0,0.2-0.1,0.2-0.2v-3.3C129.7,258.5,129.6,258.4,129.5,258.4z M382.3,255.9
		c-0.1,0-0.2,0.1-0.2,0.2v3.3c0,0.1,0.1,0.2,0.2,0.2c0.1,0,0.2-0.1,0.2-0.2v-3.3C382.5,256,382.4,255.9,382.3,255.9z M129.5,251.8
		c-0.1,0-0.2,0.1-0.2,0.2v3.3c0,0.1,0.1,0.2,0.2,0.2c0.1,0,0.2-0.1,0.2-0.2V252C129.7,251.9,129.6,251.8,129.5,251.8z M382.3,249.3
		c-0.1,0-0.2,0.1-0.2,0.2v3.3c0,0.1,0.1,0.2,0.2,0.2c0.1,0,0.2-0.1,0.2-0.2v-3.3C382.5,249.4,382.4,249.3,382.3,249.3z M129.5,245.2
		c-0.1,0-0.2,0.1-0.2,0.2v3.3c0,0.1,0.1,0.2,0.2,0.2c0.1,0,0.2-0.1,0.2-0.2v-3.3C129.7,245.3,129.6,245.2,129.5,245.2z M382.3,242.6
		c-0.1,0-0.2,0.1-0.2,0.2v3.3c0,0.1,0.1,0.2,0.2,0.2c0.1,0,0.2-0.1,0.2-0.2v-3.3C382.5,242.8,382.4,242.6,382.3,242.6z M129.5,238.5
		c-0.1,0-0.2,0.1-0.2,0.2v3.3c0,0.1,0.1,0.2,0.2,0.2c0.1,0,0.2-0.1,0.2-0.2v-3.3C129.7,238.6,129.6,238.5,129.5,238.5z M382.3,236
		c-0.1,0-0.2,0.1-0.2,0.2v3.3c0,0.1,0.1,0.2,0.2,0.2c0.1,0,0.2-0.1,0.2-0.2v-3.3C382.5,236.1,382.4,236,382.3,236z M129.5,231.9
		c-0.1,0-0.2,0.1-0.2,0.2v3.3c0,0.1,0.1,0.2,0.2,0.2c0.1,0,0.2-0.1,0.2-0.2v-3.3C129.7,232,129.6,231.9,129.5,231.9z M382.3,229.4
		c-0.1,0-0.2,0.1-0.2,0.2v3.3c0,0.1,0.1,0.2,0.2,0.2c0.1,0,0.2-0.1,0.2-0.2v-3.3C382.5,229.5,382.4,229.4,382.3,229.4z M129.2,227.8
		v1.1c0,0.1,0.1,0.2,0.2,0.2c0.1,0,0.2-0.1,0.2-0.2v-1.1H129.2z"/>
	<path class="st5" d="M365,227.8v61.3l-44.2,22.4c-41,20.7-87.9,20.7-128.9,0l-44.2-22.4v-61.3h-4.3v63.6l46.4,23.5
		c20.6,10.5,43.7,16,66.5,16s45.9-5.5,66.5-16l46.4-23.5v-63.6H365z"/>
	<path class="st6" d="M277.6,275.3h-56.7c-6.6,0-11.9-5.3-11.9-11.9l0,0c0-6.6,5.3-11.9,11.9-11.9h56.7c6.6,0,11.9,5.3,11.9,11.9
		l0,0C289.5,270,284.1,275.3,277.6,275.3z"/>
	<path class="st4" d="M282,277.9h-3.3c-0.1,0-0.2-0.1-0.2-0.2c0-0.1,0.1-0.2,0.2-0.2h3.3c0.9,0,1.7-0.1,2.6-0.3c0.1,0,0.3,0,0.3,0.2
		c0,0.1,0,0.3-0.2,0.3C283.8,277.8,282.9,277.9,282,277.9z M275.4,277.9h-3.3c-0.1,0-0.2-0.1-0.2-0.2c0-0.1,0.1-0.2,0.2-0.2h3.3
		c0.1,0,0.2,0.1,0.2,0.2C275.6,277.8,275.5,277.9,275.4,277.9z M268.7,277.9h-3.3c-0.1,0-0.2-0.1-0.2-0.2c0-0.1,0.1-0.2,0.2-0.2h3.3
		c0.1,0,0.2,0.1,0.2,0.2C269,277.8,268.9,277.9,268.7,277.9z M262.1,277.9h-3.3c-0.1,0-0.2-0.1-0.2-0.2c0-0.1,0.1-0.2,0.2-0.2h3.3
		c0.1,0,0.2,0.1,0.2,0.2C262.4,277.8,262.2,277.9,262.1,277.9z M255.5,277.9h-3.3c-0.1,0-0.2-0.1-0.2-0.2c0-0.1,0.1-0.2,0.2-0.2h3.3
		c0.1,0,0.2,0.1,0.2,0.2C255.7,277.8,255.6,277.9,255.5,277.9z M248.9,277.9h-3.3c-0.1,0-0.2-0.1-0.2-0.2c0-0.1,0.1-0.2,0.2-0.2h3.3
		c0.1,0,0.2,0.1,0.2,0.2C249.1,277.8,249,277.9,248.9,277.9z M242.2,277.9h-3.3c-0.1,0-0.2-0.1-0.2-0.2c0-0.1,0.1-0.2,0.2-0.2h3.3
		c0.1,0,0.2,0.1,0.2,0.2C242.5,277.8,242.4,277.9,242.2,277.9z M235.6,277.9h-3.3c-0.1,0-0.2-0.1-0.2-0.2c0-0.1,0.1-0.2,0.2-0.2h3.3
		c0.1,0,0.2,0.1,0.2,0.2C235.8,277.8,235.7,277.9,235.6,277.9z M229,277.9h-3.3c-0.1,0-0.2-0.1-0.2-0.2c0-0.1,0.1-0.2,0.2-0.2h3.3
		c0.1,0,0.2,0.1,0.2,0.2C229.2,277.8,229.1,277.9,229,277.9z M222.4,277.9H219c-0.1,0-0.2-0.1-0.2-0.2c0-0.1,0.1-0.2,0.2-0.2h3.3
		c0.1,0,0.2,0.1,0.2,0.2C222.6,277.8,222.5,277.9,222.4,277.9z M215.7,277.8C215.7,277.8,215.7,277.8,215.7,277.8
		c-1.1-0.1-2.3-0.3-3.3-0.7c-0.1,0-0.2-0.2-0.1-0.3c0-0.1,0.2-0.2,0.3-0.1c1,0.4,2.1,0.6,3.2,0.7c0.1,0,0.2,0.1,0.2,0.3
		C216,277.7,215.8,277.8,215.7,277.8z M287.7,276.4c-0.1,0-0.2,0-0.2-0.1c-0.1-0.1,0-0.3,0.1-0.3c0.9-0.5,1.8-1.2,2.6-1.9
		c0.1-0.1,0.2-0.1,0.3,0c0.1,0.1,0.1,0.2,0,0.3c-0.8,0.8-1.7,1.5-2.7,2C287.8,276.4,287.8,276.4,287.7,276.4z M209.6,275.6
		c0,0-0.1,0-0.1,0c-0.9-0.7-1.7-1.5-2.4-2.3c-0.1-0.1-0.1-0.3,0-0.3c0.1-0.1,0.3-0.1,0.3,0c0.7,0.9,1.4,1.6,2.3,2.3
		c0.1,0.1,0.1,0.2,0,0.3C209.7,275.5,209.7,275.6,209.6,275.6z M292.4,271.8c0,0-0.1,0-0.1,0c-0.1-0.1-0.2-0.2-0.1-0.3
		c0.5-0.9,0.9-2,1.2-3c0-0.1,0.2-0.2,0.3-0.2c0.1,0,0.2,0.2,0.2,0.3c-0.3,1.1-0.7,2.2-1.2,3.1C292.5,271.8,292.4,271.8,292.4,271.8z
		 M205.6,270.4c-0.1,0-0.2-0.1-0.2-0.1c-0.4-1-0.7-2.1-0.8-3.3c0-0.1,0.1-0.2,0.2-0.3c0.1,0,0.2,0.1,0.3,0.2
		c0.1,1.1,0.4,2.1,0.8,3.1C205.9,270.2,205.8,270.3,205.6,270.4C205.6,270.4,205.6,270.4,205.6,270.4z M293.9,265.4
		c-0.1,0-0.2-0.1-0.2-0.2v-3.3c0-0.1,0.1-0.2,0.2-0.2c0.1,0,0.2,0.1,0.2,0.2v3.3C294.1,265.3,294,265.4,293.9,265.4z M204.7,263.9
		c-0.1,0-0.2-0.1-0.2-0.2v-2.5c0-0.3,0-0.5,0-0.8c0-0.1,0.1-0.2,0.3-0.2c0.1,0,0.2,0.1,0.2,0.3c0,0.3,0,0.5,0,0.8v2.5
		C205,263.8,204.9,263.9,204.7,263.9z M293.6,258.8c-0.1,0-0.2-0.1-0.2-0.2c-0.2-1.1-0.6-2.1-1.1-3c-0.1-0.1,0-0.3,0.1-0.3
		c0.1-0.1,0.3,0,0.3,0.1c0.5,1,0.9,2.1,1.2,3.2C293.9,258.7,293.8,258.8,293.6,258.8C293.7,258.8,293.6,258.8,293.6,258.8z
		 M205.4,257.3C205.4,257.3,205.4,257.3,205.4,257.3c-0.2-0.1-0.3-0.2-0.2-0.3c0.4-1.1,0.9-2.1,1.6-3c0.1-0.1,0.2-0.1,0.3-0.1
		c0.1,0.1,0.1,0.2,0.1,0.3c-0.6,0.9-1.1,1.8-1.5,2.9C205.6,257.3,205.5,257.3,205.4,257.3z M290.5,253.1c-0.1,0-0.1,0-0.2-0.1
		c-0.8-0.8-1.6-1.4-2.6-2c-0.1-0.1-0.2-0.2-0.1-0.3c0.1-0.1,0.2-0.2,0.3-0.1c1,0.6,1.9,1.3,2.7,2.1c0.1,0.1,0.1,0.2,0,0.3
		C290.6,253,290.6,253.1,290.5,253.1z M209.3,252c-0.1,0-0.1,0-0.2-0.1c-0.1-0.1-0.1-0.3,0-0.3c0.9-0.7,1.9-1.3,2.9-1.7
		c0.1,0,0.3,0,0.3,0.1c0,0.1,0,0.3-0.1,0.3c-1,0.4-1.9,1-2.8,1.6C209.4,252,209.3,252,209.3,252z M284.9,249.8
		C284.8,249.8,284.8,249.8,284.9,249.8c-1-0.2-1.9-0.3-2.9-0.3h-0.4c-0.1,0-0.2-0.1-0.2-0.2c0-0.1,0.1-0.2,0.2-0.2h0.4
		c1,0,2,0.1,2.9,0.4c0.1,0,0.2,0.2,0.2,0.3C285.1,249.7,285,249.8,284.9,249.8z M215.3,249.5c-0.1,0-0.2-0.1-0.2-0.2
		c0-0.1,0.1-0.2,0.2-0.3c0.4,0,0.9-0.1,1.4-0.1h2c0.1,0,0.2,0.1,0.2,0.2c0,0.1-0.1,0.2-0.2,0.2h-2
		C216.2,249.5,215.8,249.5,215.3,249.5C215.3,249.5,215.3,249.5,215.3,249.5z M278.3,249.5H275c-0.1,0-0.2-0.1-0.2-0.2
		c0-0.1,0.1-0.2,0.2-0.2h3.3c0.1,0,0.2,0.1,0.2,0.2C278.5,249.3,278.4,249.5,278.3,249.5z M271.6,249.5h-3.3c-0.1,0-0.2-0.1-0.2-0.2
		c0-0.1,0.1-0.2,0.2-0.2h3.3c0.1,0,0.2,0.1,0.2,0.2C271.9,249.3,271.8,249.5,271.6,249.5z M265,249.5h-3.3c-0.1,0-0.2-0.1-0.2-0.2
		c0-0.1,0.1-0.2,0.2-0.2h3.3c0.1,0,0.2,0.1,0.2,0.2C265.2,249.3,265.1,249.5,265,249.5z M258.4,249.5h-3.3c-0.1,0-0.2-0.1-0.2-0.2
		c0-0.1,0.1-0.2,0.2-0.2h3.3c0.1,0,0.2,0.1,0.2,0.2C258.6,249.3,258.5,249.5,258.4,249.5z M251.8,249.5h-3.3c-0.1,0-0.2-0.1-0.2-0.2
		c0-0.1,0.1-0.2,0.2-0.2h3.3c0.1,0,0.2,0.1,0.2,0.2C252,249.3,251.9,249.5,251.8,249.5z M245.1,249.5h-3.3c-0.1,0-0.2-0.1-0.2-0.2
		c0-0.1,0.1-0.2,0.2-0.2h3.3c0.1,0,0.2,0.1,0.2,0.2C245.4,249.3,245.3,249.5,245.1,249.5z M238.5,249.5h-3.3c-0.1,0-0.2-0.1-0.2-0.2
		c0-0.1,0.1-0.2,0.2-0.2h3.3c0.1,0,0.2,0.1,0.2,0.2C238.7,249.3,238.6,249.5,238.5,249.5z M231.9,249.5h-3.3c-0.1,0-0.2-0.1-0.2-0.2
		c0-0.1,0.1-0.2,0.2-0.2h3.3c0.1,0,0.2,0.1,0.2,0.2C232.1,249.3,232,249.5,231.9,249.5z M225.2,249.5h-3.3c-0.1,0-0.2-0.1-0.2-0.2
		c0-0.1,0.1-0.2,0.2-0.2h3.3c0.1,0,0.2,0.1,0.2,0.2C225.5,249.3,225.4,249.5,225.2,249.5z"/>
	<path class="st7" d="M170.6,355.4c0,1.2-0.6,2.2-1.3,2.2c-0.7,0-1.3-1-1.3-2.2c0-1.2,0.6-2.2,1.3-2.2
		C170,353.2,170.6,354.2,170.6,355.4z"/>
	<g>
		<path class="st8" d="M171.5,397.2L171.5,397.2c-5.7,0-10.3-4.6-10.3-10.3V227.8h20.6v159.1C181.8,392.6,177.2,397.2,171.5,397.2z"
			/>
		<path class="st0" d="M169.4,394.4L169.4,394.4c-5.7,0-10.3-4.6-10.3-10.3v-98.9h20.6v98.9C179.7,389.8,175.1,394.4,169.4,394.4z"
			/>
		<path class="st9" d="M161.1,285.8c-0.1,0-0.2,0.1-0.2,0.2v3.3c0,0.1,0.1,0.2,0.2,0.2c0.1,0,0.2-0.1,0.2-0.2V286
			C161.4,285.9,161.2,285.8,161.1,285.8z M177.8,287.1c-0.1,0-0.2,0.1-0.2,0.2v3.3c0,0.1,0.1,0.2,0.2,0.2c0.1,0,0.2-0.1,0.2-0.2
			v-3.3C178,287.2,177.9,287.1,177.8,287.1z M161.1,292.4c-0.1,0-0.2,0.1-0.2,0.2v3.3c0,0.1,0.1,0.2,0.2,0.2c0.1,0,0.2-0.1,0.2-0.2
			v-3.3C161.4,292.5,161.2,292.4,161.1,292.4z M177.8,293.8c-0.1,0-0.2,0.1-0.2,0.2v3.3c0,0.1,0.1,0.2,0.2,0.2
			c0.1,0,0.2-0.1,0.2-0.2V294C178,293.9,177.9,293.8,177.8,293.8z M161.1,299c-0.1,0-0.2,0.1-0.2,0.2v3.3c0,0.1,0.1,0.2,0.2,0.2
			c0.1,0,0.2-0.1,0.2-0.2v-3.3C161.4,299.1,161.2,299,161.1,299z M177.8,300.4c-0.1,0-0.2,0.1-0.2,0.2v3.3c0,0.1,0.1,0.2,0.2,0.2
			c0.1,0,0.2-0.1,0.2-0.2v-3.3C178,300.5,177.9,300.4,177.8,300.4z M161.1,305.6c-0.1,0-0.2,0.1-0.2,0.2v3.3c0,0.1,0.1,0.2,0.2,0.2
			c0.1,0,0.2-0.1,0.2-0.2v-3.3C161.4,305.7,161.2,305.6,161.1,305.6z M177.8,307c-0.1,0-0.2,0.1-0.2,0.2v3.3c0,0.1,0.1,0.2,0.2,0.2
			c0.1,0,0.2-0.1,0.2-0.2v-3.3C178,307.1,177.9,307,177.8,307z M161.1,312.3c-0.1,0-0.2,0.1-0.2,0.2v3.3c0,0.1,0.1,0.2,0.2,0.2
			c0.1,0,0.2-0.1,0.2-0.2v-3.3C161.4,312.4,161.2,312.3,161.1,312.3z M177.8,313.7c-0.1,0-0.2,0.1-0.2,0.2v3.3
			c0,0.1,0.1,0.2,0.2,0.2c0.1,0,0.2-0.1,0.2-0.2v-3.3C178,313.8,177.9,313.7,177.8,313.7z M161.1,318.9c-0.1,0-0.2,0.1-0.2,0.2v3.3
			c0,0.1,0.1,0.2,0.2,0.2c0.1,0,0.2-0.1,0.2-0.2v-3.3C161.4,319,161.2,318.9,161.1,318.9z M177.8,320.3c-0.1,0-0.2,0.1-0.2,0.2v3.3
			c0,0.1,0.1,0.2,0.2,0.2c0.1,0,0.2-0.1,0.2-0.2v-3.3C178,320.4,177.9,320.3,177.8,320.3z M161.1,325.5c-0.1,0-0.2,0.1-0.2,0.2v3.3
			c0,0.1,0.1,0.2,0.2,0.2c0.1,0,0.2-0.1,0.2-0.2v-3.3C161.4,325.6,161.2,325.5,161.1,325.5z M177.8,326.9c-0.1,0-0.2,0.1-0.2,0.2
			v3.3c0,0.1,0.1,0.2,0.2,0.2c0.1,0,0.2-0.1,0.2-0.2v-3.3C178,327,177.9,326.9,177.8,326.9z M161.1,332.1c-0.1,0-0.2,0.1-0.2,0.2
			v3.3c0,0.1,0.1,0.2,0.2,0.2c0.1,0,0.2-0.1,0.2-0.2v-3.3C161.4,332.3,161.2,332.1,161.1,332.1z M177.8,333.5
			c-0.1,0-0.2,0.1-0.2,0.2v3.3c0,0.1,0.1,0.2,0.2,0.2c0.1,0,0.2-0.1,0.2-0.2v-3.3C178,333.6,177.9,333.5,177.8,333.5z M161.1,338.8
			c-0.1,0-0.2,0.1-0.2,0.2v3.3c0,0.1,0.1,0.2,0.2,0.2c0.1,0,0.2-0.1,0.2-0.2V339C161.4,338.9,161.2,338.8,161.1,338.8z M177.8,340.2
			c-0.1,0-0.2,0.1-0.2,0.2v3.3c0,0.1,0.1,0.2,0.2,0.2c0.1,0,0.2-0.1,0.2-0.2v-3.3C178,340.3,177.9,340.2,177.8,340.2z M161.1,345.4
			c-0.1,0-0.2,0.1-0.2,0.2v3.3c0,0.1,0.1,0.2,0.2,0.2c0.1,0,0.2-0.1,0.2-0.2v-3.3C161.4,345.5,161.2,345.4,161.1,345.4z
			 M177.8,346.8c-0.1,0-0.2,0.1-0.2,0.2v3.3c0,0.1,0.1,0.2,0.2,0.2c0.1,0,0.2-0.1,0.2-0.2V347C178,346.9,177.9,346.8,177.8,346.8z
			 M161.1,352c-0.1,0-0.2,0.1-0.2,0.2v3.3c0,0.1,0.1,0.2,0.2,0.2c0.1,0,0.2-0.1,0.2-0.2v-3.3C161.4,352.1,161.2,352,161.1,352z
			 M177.8,353.4c-0.1,0-0.2,0.1-0.2,0.2v3.3c0,0.1,0.1,0.2,0.2,0.2c0.1,0,0.2-0.1,0.2-0.2v-3.3C178,353.5,177.9,353.4,177.8,353.4z
			 M161.1,358.7c-0.1,0-0.2,0.1-0.2,0.2v3.3c0,0.1,0.1,0.2,0.2,0.2c0.1,0,0.2-0.1,0.2-0.2v-3.3C161.4,358.8,161.2,358.7,161.1,358.7
			z M177.8,360c-0.1,0-0.2,0.1-0.2,0.2v3.3c0,0.1,0.1,0.2,0.2,0.2c0.1,0,0.2-0.1,0.2-0.2v-3.3C178,360.1,177.9,360,177.8,360z
			 M161.1,365.3c-0.1,0-0.2,0.1-0.2,0.2v3.3c0,0.1,0.1,0.2,0.2,0.2c0.1,0,0.2-0.1,0.2-0.2v-3.3C161.4,365.4,161.2,365.3,161.1,365.3
			z M177.8,366.7c-0.1,0-0.2,0.1-0.2,0.2v3.3c0,0.1,0.1,0.2,0.2,0.2c0.1,0,0.2-0.1,0.2-0.2v-3.3C178,366.8,177.9,366.7,177.8,366.7z
			 M161.1,371.9c-0.1,0-0.2,0.1-0.2,0.2v3.3c0,0.1,0.1,0.2,0.2,0.2c0.1,0,0.2-0.1,0.2-0.2v-3.3C161.4,372,161.2,371.9,161.1,371.9z
			 M177.8,373.3c-0.1,0-0.2,0.1-0.2,0.2v3.3c0,0.1,0.1,0.2,0.2,0.2c0.1,0,0.2-0.1,0.2-0.2v-3.3C178,373.4,177.9,373.3,177.8,373.3z
			 M161.1,378.5c-0.1,0-0.2,0.1-0.2,0.2v3.3c0,0.1,0.1,0.2,0.2,0.2c0.1,0,0.2-0.1,0.2-0.2v-3.3C161.4,378.6,161.2,378.5,161.1,378.5
			z M177.8,379.9c-0.1,0-0.2,0.1-0.2,0.2v2.1c0,0.4,0,0.8-0.1,1.2c0,0.1,0.1,0.3,0.2,0.3c0,0,0,0,0,0c0.1,0,0.2-0.1,0.2-0.2
			c0.1-0.4,0.1-0.8,0.1-1.3v-2.1C178,380,177.9,379.9,177.8,379.9z M163.7,387.9c-0.8-0.8-1.3-1.7-1.8-2.7c0-0.1-0.2-0.2-0.3-0.1
			c-0.1,0-0.2,0.2-0.1,0.3c0.4,1.1,1,2,1.9,2.8c0,0,0.1,0.1,0.2,0.1c0.1,0,0.1,0,0.2-0.1C163.8,388.2,163.8,388,163.7,387.9z
			 M176.7,386.4c-0.1-0.1-0.3,0-0.3,0.1c-0.6,0.9-1.3,1.7-2.2,2.4c-0.1,0.1-0.1,0.2-0.1,0.3c0,0.1,0.1,0.1,0.2,0.1c0,0,0.1,0,0.1,0
			c0.9-0.7,1.7-1.5,2.3-2.5C176.9,386.6,176.8,386.4,176.7,386.4z M171.6,390.3c0-0.1-0.2-0.2-0.3-0.2c-1.7,0.4-3.4,0.2-5-0.4
			c-0.1,0-0.3,0-0.3,0.1c-0.1,0.1,0,0.3,0.1,0.3c1.1,0.4,2.2,0.7,3.3,0.7c0.7,0,1.3-0.1,2-0.2C171.6,390.6,171.6,390.4,171.6,390.3z
			"/>
		<rect x="159.1" y="223" class="st0" width="20.6" height="52.3"/>
		<path class="st6" d="M183.4,345.4v20.1h-28v-20.1H183.4L183.4,345.4z M186.3,342.6h-33.6v25.8h33.6V342.6L186.3,342.6z"/>
		<path class="st7" d="M170.6,331.9c0,1.2-0.6,2.2-1.3,2.2c-0.7,0-1.3-1-1.3-2.2c0-1.2,0.6-2.2,1.3-2.2
			C170,329.7,170.6,330.7,170.6,331.9z"/>
		<path class="st7" d="M170.6,318.3c0,1.2-0.6,2.2-1.3,2.2c-0.7,0-1.3-1-1.3-2.2c0-1.2,0.6-2.2,1.3-2.2
			C170,316.1,170.6,317.1,170.6,318.3z"/>
		<path class="st7" d="M170.6,306.1c0,1.2-0.6,2.2-1.3,2.2c-0.7,0-1.3-1-1.3-2.2c0-1.2,0.6-2.2,1.3-2.2
			C170,303.9,170.6,304.9,170.6,306.1z"/>
		<rect x="168.2" y="343.6" class="st10" width="2.2" height="12.4"/>
		<path class="st9" d="M177.8,270.5c-0.1,0-0.2,0.1-0.2,0.2v3.2c0,0.1,0.1,0.2,0.2,0.2c0.1,0,0.2-0.1,0.2-0.2v-3.2
			C178,270.6,177.9,270.5,177.8,270.5z M161.1,269.2c-0.1,0-0.2,0.1-0.2,0.2v3.2c0,0.1,0.1,0.2,0.2,0.2c0.1,0,0.2-0.1,0.2-0.2v-3.2
			C161.3,269.3,161.2,269.2,161.1,269.2z M177.8,264c-0.1,0-0.2,0.1-0.2,0.2v3.2c0,0.1,0.1,0.2,0.2,0.2c0.1,0,0.2-0.1,0.2-0.2v-3.2
			C178,264.1,177.9,264,177.8,264z M161.1,262.7c-0.1,0-0.2,0.1-0.2,0.2v3.2c0,0.1,0.1,0.2,0.2,0.2c0.1,0,0.2-0.1,0.2-0.2v-3.2
			C161.3,262.8,161.2,262.7,161.1,262.7z M177.8,257.6c-0.1,0-0.2,0.1-0.2,0.2v3.2c0,0.1,0.1,0.2,0.2,0.2c0.1,0,0.2-0.1,0.2-0.2
			v-3.2C178,257.7,177.9,257.6,177.8,257.6z M161.1,256.2c-0.1,0-0.2,0.1-0.2,0.2v3.2c0,0.1,0.1,0.2,0.2,0.2c0.1,0,0.2-0.1,0.2-0.2
			v-3.2C161.3,256.3,161.2,256.2,161.1,256.2z M177.8,251.1c-0.1,0-0.2,0.1-0.2,0.2v3.2c0,0.1,0.1,0.2,0.2,0.2
			c0.1,0,0.2-0.1,0.2-0.2v-3.2C178,251.2,177.9,251.1,177.8,251.1z M161.1,249.7c-0.1,0-0.2,0.1-0.2,0.2v3.2c0,0.1,0.1,0.2,0.2,0.2
			c0.1,0,0.2-0.1,0.2-0.2V250C161.3,249.8,161.2,249.7,161.1,249.7z M177.8,244.6c-0.1,0-0.2,0.1-0.2,0.2v3.2c0,0.1,0.1,0.2,0.2,0.2
			c0.1,0,0.2-0.1,0.2-0.2v-3.2C178,244.7,177.9,244.6,177.8,244.6z M161.1,243.2c-0.1,0-0.2,0.1-0.2,0.2v3.2c0,0.1,0.1,0.2,0.2,0.2
			c0.1,0,0.2-0.1,0.2-0.2v-3.2C161.3,243.3,161.2,243.2,161.1,243.2z M177.8,238.1c-0.1,0-0.2,0.1-0.2,0.2v3.2
			c0,0.1,0.1,0.2,0.2,0.2c0.1,0,0.2-0.1,0.2-0.2v-3.2C178,238.2,177.9,238.1,177.8,238.1z M161.1,236.8c-0.1,0-0.2,0.1-0.2,0.2v3.2
			c0,0.1,0.1,0.2,0.2,0.2c0.1,0,0.2-0.1,0.2-0.2V237C161.3,236.9,161.2,236.8,161.1,236.8z M177.8,231.6c-0.1,0-0.2,0.1-0.2,0.2v3.2
			c0,0.1,0.1,0.2,0.2,0.2c0.1,0,0.2-0.1,0.2-0.2v-3.2C178,231.7,177.9,231.6,177.8,231.6z M161.1,230.3c-0.1,0-0.2,0.1-0.2,0.2v3.2
			c0,0.1,0.1,0.2,0.2,0.2c0.1,0,0.2-0.1,0.2-0.2v-3.2C161.3,230.4,161.2,230.3,161.1,230.3z M177.8,225.1c-0.1,0-0.2,0.1-0.2,0.2
			v3.2c0,0.1,0.1,0.2,0.2,0.2c0.1,0,0.2-0.1,0.2-0.2v-3.2C178,225.2,177.9,225.1,177.8,225.1z M161.1,223.8c-0.1,0-0.2,0.1-0.2,0.2
			v3.2c0,0.1,0.1,0.2,0.2,0.2c0.1,0,0.2-0.1,0.2-0.2V224C161.3,223.9,161.2,223.8,161.1,223.8z"/>
		<path class="st11" d="M184.5,367h-30.7v-23.6h10.3c0.1,0,0.2,0.1,0.2,0.2c0,0.1-0.1,0.2-0.2,0.2h-9.9v22.7h30.2
			c0.1,0,0.2,0.1,0.2,0.2S184.7,367,184.5,367z"/>
		<rect x="153.9" y="274.2" class="st3" width="35.3" height="10.9"/>
	</g>
	<g>
		<path class="st8" d="M346.6,397.2L346.6,397.2c-5.7,0-10.3-4.6-10.3-10.3V227.8h20.6v159.1C356.9,392.6,352.3,397.2,346.6,397.2z"
			/>
		<path class="st0" d="M344.6,394.4L344.6,394.4c-5.7,0-10.3-4.6-10.3-10.3v-98.9h20.6v98.9C354.9,389.8,350.2,394.4,344.6,394.4z"
			/>
		<path class="st9" d="M336.3,285.8c-0.1,0-0.2,0.1-0.2,0.2v3.3c0,0.1,0.1,0.2,0.2,0.2c0.1,0,0.2-0.1,0.2-0.2V286
			C336.5,285.9,336.4,285.8,336.3,285.8z M353,287.1c-0.1,0-0.2,0.1-0.2,0.2v3.3c0,0.1,0.1,0.2,0.2,0.2c0.1,0,0.2-0.1,0.2-0.2v-3.3
			C353.2,287.2,353.1,287.1,353,287.1z M336.3,292.4c-0.1,0-0.2,0.1-0.2,0.2v3.3c0,0.1,0.1,0.2,0.2,0.2c0.1,0,0.2-0.1,0.2-0.2v-3.3
			C336.5,292.5,336.4,292.4,336.3,292.4z M353,293.8c-0.1,0-0.2,0.1-0.2,0.2v3.3c0,0.1,0.1,0.2,0.2,0.2c0.1,0,0.2-0.1,0.2-0.2V294
			C353.2,293.9,353.1,293.8,353,293.8z M336.3,299c-0.1,0-0.2,0.1-0.2,0.2v3.3c0,0.1,0.1,0.2,0.2,0.2c0.1,0,0.2-0.1,0.2-0.2v-3.3
			C336.5,299.1,336.4,299,336.3,299z M353,300.4c-0.1,0-0.2,0.1-0.2,0.2v3.3c0,0.1,0.1,0.2,0.2,0.2c0.1,0,0.2-0.1,0.2-0.2v-3.3
			C353.2,300.5,353.1,300.4,353,300.4z M336.3,305.6c-0.1,0-0.2,0.1-0.2,0.2v3.3c0,0.1,0.1,0.2,0.2,0.2c0.1,0,0.2-0.1,0.2-0.2v-3.3
			C336.5,305.7,336.4,305.6,336.3,305.6z M353,307c-0.1,0-0.2,0.1-0.2,0.2v3.3c0,0.1,0.1,0.2,0.2,0.2c0.1,0,0.2-0.1,0.2-0.2v-3.3
			C353.2,307.1,353.1,307,353,307z M336.3,312.3c-0.1,0-0.2,0.1-0.2,0.2v3.3c0,0.1,0.1,0.2,0.2,0.2c0.1,0,0.2-0.1,0.2-0.2v-3.3
			C336.5,312.4,336.4,312.3,336.3,312.3z M353,313.7c-0.1,0-0.2,0.1-0.2,0.2v3.3c0,0.1,0.1,0.2,0.2,0.2c0.1,0,0.2-0.1,0.2-0.2v-3.3
			C353.2,313.8,353.1,313.7,353,313.7z M336.3,318.9c-0.1,0-0.2,0.1-0.2,0.2v3.3c0,0.1,0.1,0.2,0.2,0.2c0.1,0,0.2-0.1,0.2-0.2v-3.3
			C336.5,319,336.4,318.9,336.3,318.9z M353,320.3c-0.1,0-0.2,0.1-0.2,0.2v3.3c0,0.1,0.1,0.2,0.2,0.2c0.1,0,0.2-0.1,0.2-0.2v-3.3
			C353.2,320.4,353.1,320.3,353,320.3z M336.3,325.5c-0.1,0-0.2,0.1-0.2,0.2v3.3c0,0.1,0.1,0.2,0.2,0.2c0.1,0,0.2-0.1,0.2-0.2v-3.3
			C336.5,325.6,336.4,325.5,336.3,325.5z M353,326.9c-0.1,0-0.2,0.1-0.2,0.2v3.3c0,0.1,0.1,0.2,0.2,0.2c0.1,0,0.2-0.1,0.2-0.2v-3.3
			C353.2,327,353.1,326.9,353,326.9z M336.3,332.1c-0.1,0-0.2,0.1-0.2,0.2v3.3c0,0.1,0.1,0.2,0.2,0.2c0.1,0,0.2-0.1,0.2-0.2v-3.3
			C336.5,332.3,336.4,332.1,336.3,332.1z M353,333.5c-0.1,0-0.2,0.1-0.2,0.2v3.3c0,0.1,0.1,0.2,0.2,0.2c0.1,0,0.2-0.1,0.2-0.2v-3.3
			C353.2,333.6,353.1,333.5,353,333.5z M336.3,338.8c-0.1,0-0.2,0.1-0.2,0.2v3.3c0,0.1,0.1,0.2,0.2,0.2c0.1,0,0.2-0.1,0.2-0.2V339
			C336.5,338.9,336.4,338.8,336.3,338.8z M353,340.2c-0.1,0-0.2,0.1-0.2,0.2v3.3c0,0.1,0.1,0.2,0.2,0.2c0.1,0,0.2-0.1,0.2-0.2v-3.3
			C353.2,340.3,353.1,340.2,353,340.2z M336.3,345.4c-0.1,0-0.2,0.1-0.2,0.2v3.3c0,0.1,0.1,0.2,0.2,0.2c0.1,0,0.2-0.1,0.2-0.2v-3.3
			C336.5,345.5,336.4,345.4,336.3,345.4z M353,346.8c-0.1,0-0.2,0.1-0.2,0.2v3.3c0,0.1,0.1,0.2,0.2,0.2c0.1,0,0.2-0.1,0.2-0.2V347
			C353.2,346.9,353.1,346.8,353,346.8z M336.3,352c-0.1,0-0.2,0.1-0.2,0.2v3.3c0,0.1,0.1,0.2,0.2,0.2c0.1,0,0.2-0.1,0.2-0.2v-3.3
			C336.5,352.1,336.4,352,336.3,352z M353,353.4c-0.1,0-0.2,0.1-0.2,0.2v3.3c0,0.1,0.1,0.2,0.2,0.2c0.1,0,0.2-0.1,0.2-0.2v-3.3
			C353.2,353.5,353.1,353.4,353,353.4z M336.3,358.7c-0.1,0-0.2,0.1-0.2,0.2v3.3c0,0.1,0.1,0.2,0.2,0.2c0.1,0,0.2-0.1,0.2-0.2v-3.3
			C336.5,358.8,336.4,358.7,336.3,358.7z M353,360c-0.1,0-0.2,0.1-0.2,0.2v3.3c0,0.1,0.1,0.2,0.2,0.2c0.1,0,0.2-0.1,0.2-0.2v-3.3
			C353.2,360.1,353.1,360,353,360z M336.3,365.3c-0.1,0-0.2,0.1-0.2,0.2v3.3c0,0.1,0.1,0.2,0.2,0.2c0.1,0,0.2-0.1,0.2-0.2v-3.3
			C336.5,365.4,336.4,365.3,336.3,365.3z M353,366.7c-0.1,0-0.2,0.1-0.2,0.2v3.3c0,0.1,0.1,0.2,0.2,0.2c0.1,0,0.2-0.1,0.2-0.2v-3.3
			C353.2,366.8,353.1,366.7,353,366.7z M336.3,371.9c-0.1,0-0.2,0.1-0.2,0.2v3.3c0,0.1,0.1,0.2,0.2,0.2c0.1,0,0.2-0.1,0.2-0.2v-3.3
			C336.5,372,336.4,371.9,336.3,371.9z M353,373.3c-0.1,0-0.2,0.1-0.2,0.2v3.3c0,0.1,0.1,0.2,0.2,0.2c0.1,0,0.2-0.1,0.2-0.2v-3.3
			C353.2,373.4,353.1,373.3,353,373.3z M336.3,378.5c-0.1,0-0.2,0.1-0.2,0.2v3.3c0,0.1,0.1,0.2,0.2,0.2c0.1,0,0.2-0.1,0.2-0.2v-3.3
			C336.5,378.6,336.4,378.5,336.3,378.5z M353,379.9c-0.1,0-0.2,0.1-0.2,0.2v2.1c0,0.4,0,0.8-0.1,1.2c0,0.1,0.1,0.3,0.2,0.3
			c0,0,0,0,0,0c0.1,0,0.2-0.1,0.2-0.2c0.1-0.4,0.1-0.8,0.1-1.3v-2.1C353.2,380,353.1,379.9,353,379.9z M338.8,387.9
			c-0.8-0.8-1.3-1.7-1.8-2.7c0-0.1-0.2-0.2-0.3-0.1c-0.1,0-0.2,0.2-0.1,0.3c0.4,1.1,1,2,1.9,2.8c0,0,0.1,0.1,0.2,0.1
			c0.1,0,0.1,0,0.2-0.1C338.9,388.2,338.9,388,338.8,387.9z M351.9,386.4c-0.1-0.1-0.3,0-0.3,0.1c-0.6,0.9-1.3,1.7-2.2,2.4
			c-0.1,0.1-0.1,0.2-0.1,0.3c0,0.1,0.1,0.1,0.2,0.1c0,0,0.1,0,0.1,0c0.9-0.7,1.7-1.5,2.3-2.5C352,386.6,352,386.4,351.9,386.4z
			 M346.8,390.3c0-0.1-0.2-0.2-0.3-0.2c-1.6,0.4-3.4,0.2-5-0.4c-0.1,0-0.3,0-0.3,0.1c-0.1,0.1,0,0.3,0.1,0.3
			c1.1,0.4,2.2,0.7,3.3,0.7c0.7,0,1.3-0.1,2-0.2C346.7,390.6,346.8,390.4,346.8,390.3z"/>
		<rect x="334.3" y="223" class="st0" width="20.6" height="52.3"/>
		<path class="st6" d="M358.6,345.4v20.1h-27.9v-20.1H358.6L358.6,345.4z M361.4,342.6h-33.6v25.8h33.6V342.6L361.4,342.6z"/>
		<path class="st7" d="M345.7,331.9c0,1.2-0.6,2.2-1.3,2.2c-0.7,0-1.3-1-1.3-2.2c0-1.2,0.6-2.2,1.3-2.2
			C345.2,329.7,345.7,330.7,345.7,331.9z"/>
		<path class="st7" d="M345.7,318.3c0,1.2-0.6,2.2-1.3,2.2c-0.7,0-1.3-1-1.3-2.2c0-1.2,0.6-2.2,1.3-2.2
			C345.2,316.1,345.7,317.1,345.7,318.3z"/>
		<path class="st7" d="M345.7,306.1c0,1.2-0.6,2.2-1.3,2.2c-0.7,0-1.3-1-1.3-2.2c0-1.2,0.6-2.2,1.3-2.2
			C345.2,303.9,345.7,304.9,345.7,306.1z"/>
		<rect x="343.3" y="343.6" class="st10" width="2.2" height="12.4"/>
		<path class="st9" d="M352.9,270.5c-0.1,0-0.2,0.1-0.2,0.2v3.2c0,0.1,0.1,0.2,0.2,0.2s0.2-0.1,0.2-0.2v-3.2
			C353.1,270.6,353,270.5,352.9,270.5z M336.2,269.2c-0.1,0-0.2,0.1-0.2,0.2v3.2c0,0.1,0.1,0.2,0.2,0.2c0.1,0,0.2-0.1,0.2-0.2v-3.2
			C336.5,269.3,336.3,269.2,336.2,269.2z M352.9,264c-0.1,0-0.2,0.1-0.2,0.2v3.2c0,0.1,0.1,0.2,0.2,0.2s0.2-0.1,0.2-0.2v-3.2
			C353.1,264.1,353,264,352.9,264z M336.2,262.7c-0.1,0-0.2,0.1-0.2,0.2v3.2c0,0.1,0.1,0.2,0.2,0.2c0.1,0,0.2-0.1,0.2-0.2v-3.2
			C336.5,262.8,336.3,262.7,336.2,262.7z M352.9,257.6c-0.1,0-0.2,0.1-0.2,0.2v3.2c0,0.1,0.1,0.2,0.2,0.2s0.2-0.1,0.2-0.2v-3.2
			C353.1,257.7,353,257.6,352.9,257.6z M336.2,256.2c-0.1,0-0.2,0.1-0.2,0.2v3.2c0,0.1,0.1,0.2,0.2,0.2c0.1,0,0.2-0.1,0.2-0.2v-3.2
			C336.5,256.3,336.3,256.2,336.2,256.2z M352.9,251.1c-0.1,0-0.2,0.1-0.2,0.2v3.2c0,0.1,0.1,0.2,0.2,0.2s0.2-0.1,0.2-0.2v-3.2
			C353.1,251.2,353,251.1,352.9,251.1z M336.2,249.7c-0.1,0-0.2,0.1-0.2,0.2v3.2c0,0.1,0.1,0.2,0.2,0.2c0.1,0,0.2-0.1,0.2-0.2V250
			C336.5,249.8,336.3,249.7,336.2,249.7z M352.9,244.6c-0.1,0-0.2,0.1-0.2,0.2v3.2c0,0.1,0.1,0.2,0.2,0.2s0.2-0.1,0.2-0.2v-3.2
			C353.1,244.7,353,244.6,352.9,244.6z M336.2,243.2c-0.1,0-0.2,0.1-0.2,0.2v3.2c0,0.1,0.1,0.2,0.2,0.2c0.1,0,0.2-0.1,0.2-0.2v-3.2
			C336.5,243.3,336.3,243.2,336.2,243.2z M352.9,238.1c-0.1,0-0.2,0.1-0.2,0.2v3.2c0,0.1,0.1,0.2,0.2,0.2s0.2-0.1,0.2-0.2v-3.2
			C353.1,238.2,353,238.1,352.9,238.1z M336.2,236.8c-0.1,0-0.2,0.1-0.2,0.2v3.2c0,0.1,0.1,0.2,0.2,0.2c0.1,0,0.2-0.1,0.2-0.2V237
			C336.5,236.9,336.3,236.8,336.2,236.8z M352.9,231.6c-0.1,0-0.2,0.1-0.2,0.2v3.2c0,0.1,0.1,0.2,0.2,0.2s0.2-0.1,0.2-0.2v-3.2
			C353.1,231.7,353,231.6,352.9,231.6z M336.2,230.3c-0.1,0-0.2,0.1-0.2,0.2v3.2c0,0.1,0.1,0.2,0.2,0.2c0.1,0,0.2-0.1,0.2-0.2v-3.2
			C336.5,230.4,336.3,230.3,336.2,230.3z M352.9,225.1c-0.1,0-0.2,0.1-0.2,0.2v3.2c0,0.1,0.1,0.2,0.2,0.2s0.2-0.1,0.2-0.2v-3.2
			C353.1,225.2,353,225.1,352.9,225.1z M336.2,223.8c-0.1,0-0.2,0.1-0.2,0.2v3.2c0,0.1,0.1,0.2,0.2,0.2c0.1,0,0.2-0.1,0.2-0.2V224
			C336.5,223.9,336.3,223.8,336.2,223.8z"/>
		<path class="st11" d="M359.7,367H329v-23.6h10.3c0.1,0,0.2,0.1,0.2,0.2c0,0.1-0.1,0.2-0.2,0.2h-9.9v22.7h30.2
			c0.1,0,0.2,0.1,0.2,0.2S359.8,367,359.7,367z"/>
		<rect x="329" y="274.2" class="st3" width="35.3" height="10.9"/>
	</g>
	<path class="st10" d="M277.2,256.4c0,0-48.8-1.8-56.1,0c-8.1,2-4.5,13.3-3.1,13.1c1.4-0.2,4.3-8.8,9-9
		C231.7,260.2,277.2,256.4,277.2,256.4z"/>
	<g>
		<path class="st12" d="M128.2,190.2v29.6h23.6v-29.6H128.2z M147.5,215.5h-15v-21.1h15V215.5z"/>
		<polygon class="st0" points="146.3,227.8 133.7,227.8 132.4,214 147.5,214 		"/>
	</g>
	<g>
		<path class="st12" d="M361.9,190.2v29.6h23.6v-29.6H361.9z M381.2,215.5h-15v-21.1h15V215.5z"/>
		<polygon class="st0" points="380.1,227.8 367.6,227.8 366.2,214 381.2,214 		"/>
	</g>
	<path class="st13" d="M317.3,51.5c8,17.1,15.9,34.2,24.5,51.1c8.2,16.2,16.5,33,27,47.8c4.2,6,9.6,11.4,16.5,13.9
		c12.5,4.6,25.5-1.1,35.6-9.5c17.2-14.4,17.4-30-2.3-45.2c-18.9-14.6-40-26.3-61.1-37.4C339,62.5,325.6,55.9,317.3,51.5
		c0,0,29.2,10.4,48.5,19.1c16.3,7.4,32.1,15.7,47.4,24.9c7.3,4.4,14.6,9.1,20.3,15.5c11.4,12.7,12.8,27.1,2.2,41.8
		c-10.9,15.1-32.4,26.7-51.2,20.7c-10.8-3.4-19.1-12.4-25-22.2c-9.1-15-16.4-31.5-23.2-47.6C329.1,86.7,322.9,69.2,317.3,51.5z"/>
	<polygon class="st14" points="147,196.7 132.4,196.3 317.3,51.5 381,196.5 367.2,196.6 313.3,66.7 	"/>
	<path class="st15" d="M139.9,194.7c-0.1,0-0.1,0-0.2-0.1c-0.1-0.1-0.1-0.3,0-0.3l2.6-2c0.1-0.1,0.3-0.1,0.3,0s0.1,0.3,0,0.3l-2.6,2
		C140,194.7,140,194.7,139.9,194.7z M145.2,190.7c-0.1,0-0.1,0-0.2-0.1c-0.1-0.1-0.1-0.3,0-0.3l2.6-2c0.1-0.1,0.3-0.1,0.3,0
		c0.1,0.1,0.1,0.3,0,0.3l-2.6,2C145.3,190.6,145.2,190.7,145.2,190.7z M373.2,189.1c-0.1,0-0.2-0.1-0.2-0.1l-1.3-3.1
		c-0.1-0.1,0-0.3,0.1-0.3c0.1-0.1,0.3,0,0.3,0.1l1.3,3.1C373.4,188.9,373.4,189,373.2,189.1C373.2,189.1,373.2,189.1,373.2,189.1z
		 M150.4,186.6c-0.1,0-0.1,0-0.2-0.1c-0.1-0.1-0.1-0.3,0-0.3l2.6-2c0.1-0.1,0.3-0.1,0.3,0c0.1,0.1,0.1,0.3,0,0.3l-2.6,2
		C150.5,186.6,150.5,186.6,150.4,186.6z M370.6,183c-0.1,0-0.2-0.1-0.2-0.1l-1.3-3.1c-0.1-0.1,0-0.3,0.1-0.3c0.1-0.1,0.3,0,0.3,0.1
		l1.3,3.1C370.9,182.8,370.8,182.9,370.6,183C370.7,183,370.6,183,370.6,183z M155.7,182.5c-0.1,0-0.1,0-0.2-0.1
		c-0.1-0.1-0.1-0.3,0-0.3l2.6-2c0.1-0.1,0.3-0.1,0.3,0c0.1,0.1,0.1,0.3,0,0.3l-2.6,2C155.8,182.5,155.7,182.5,155.7,182.5z
		 M160.9,178.5c-0.1,0-0.1,0-0.2-0.1c-0.1-0.1-0.1-0.2,0-0.3l2.6-2c0.1-0.1,0.3-0.1,0.3,0c0.1,0.1,0.1,0.2,0,0.3l-2.6,2
		C161,178.4,160.9,178.5,160.9,178.5z M368,176.9c-0.1,0-0.2-0.1-0.2-0.1l-1.3-3.1c-0.1-0.1,0-0.3,0.1-0.3c0.1-0.1,0.3,0,0.3,0.1
		l1.3,3.1C368.3,176.6,368.2,176.8,368,176.9C368.1,176.9,368,176.9,368,176.9z M166.1,174.4c-0.1,0-0.1,0-0.2-0.1
		c-0.1-0.1-0.1-0.3,0-0.3l2.6-2c0.1-0.1,0.3-0.1,0.3,0c0.1,0.1,0.1,0.3,0,0.3l-2.6,2C166.2,174.4,166.2,174.4,166.1,174.4z
		 M365.4,170.8c-0.1,0-0.2-0.1-0.2-0.1l-1.3-3.1c-0.1-0.1,0-0.3,0.1-0.3c0.1-0.1,0.3,0,0.3,0.1l1.3,3.1
		C365.7,170.5,365.6,170.7,365.4,170.8C365.5,170.7,365.5,170.8,365.4,170.8z M171.4,170.3c-0.1,0-0.1,0-0.2-0.1
		c-0.1-0.1-0.1-0.3,0-0.3l2.6-2c0.1-0.1,0.3-0.1,0.3,0c0.1,0.1,0.1,0.2,0,0.3l-2.6,2C171.5,170.3,171.4,170.3,171.4,170.3z
		 M176.6,166.3c-0.1,0-0.1,0-0.2-0.1c-0.1-0.1-0.1-0.3,0-0.3l2.6-2c0.1-0.1,0.3-0.1,0.3,0c0.1,0.1,0.1,0.3,0,0.3l-2.6,2
		C176.7,166.3,176.6,166.3,176.6,166.3z M362.8,164.7c-0.1,0-0.2-0.1-0.2-0.1l-1.3-3.1c-0.1-0.1,0-0.3,0.1-0.3
		c0.1-0.1,0.3,0,0.3,0.1l1.3,3.1C363.1,164.4,363.1,164.6,362.8,164.7C362.9,164.6,362.9,164.7,362.8,164.7z M181.8,162.2
		c-0.1,0-0.1,0-0.2-0.1c-0.1-0.1-0.1-0.3,0-0.3l2.6-2c0.1-0.1,0.3-0.1,0.3,0c0.1,0.1,0.1,0.3,0,0.3l-2.6,2
		C181.9,162.2,181.9,162.2,181.8,162.2z M360.3,158.5c-0.1,0-0.2-0.1-0.2-0.1l-1.3-3.1c0-0.1,0-0.3,0.1-0.3c0.1-0.1,0.3,0,0.3,0.1
		l1.3,3.1C360.5,158.3,360.5,158.5,360.3,158.5C360.3,158.5,360.3,158.5,360.3,158.5z M187.1,158.2c-0.1,0-0.1,0-0.2-0.1
		c-0.1-0.1-0.1-0.3,0-0.3l2.6-2c0.1-0.1,0.3-0.1,0.3,0c0.1,0.1,0.1,0.3,0,0.3l-2.6,2C187.2,158.1,187.1,158.2,187.1,158.2z
		 M192.3,154.1c-0.1,0-0.1,0-0.2-0.1c-0.1-0.1-0.1-0.3,0-0.3l2.6-2c0.1-0.1,0.3-0.1,0.3,0c0.1,0.1,0.1,0.3,0,0.3l-2.6,2
		C192.4,154.1,192.4,154.1,192.3,154.1z M357.7,152.4c-0.1,0-0.2-0.1-0.2-0.1l-1.3-3.1c0-0.1,0-0.3,0.1-0.3c0.1,0,0.3,0,0.3,0.1
		l1.3,3.1C357.9,152.2,357.9,152.4,357.7,152.4C357.7,152.4,357.7,152.4,357.7,152.4z M197.5,150c-0.1,0-0.1,0-0.2-0.1
		c-0.1-0.1-0.1-0.2,0-0.3l2.6-2c0.1-0.1,0.3-0.1,0.3,0c0.1,0.1,0.1,0.3,0,0.3l-2.6,2C197.6,150,197.6,150,197.5,150z M355.1,146.3
		c-0.1,0-0.2-0.1-0.2-0.1l-1.3-3.1c-0.1-0.1,0-0.3,0.1-0.3c0.1-0.1,0.3,0,0.3,0.1l1.3,3.1C355.4,146.1,355.3,146.3,355.1,146.3
		C355.1,146.3,355.1,146.3,355.1,146.3z M202.8,146c-0.1,0-0.1,0-0.2-0.1c-0.1-0.1-0.1-0.3,0-0.3l2.6-2c0.1-0.1,0.3-0.1,0.3,0
		c0.1,0.1,0.1,0.3,0,0.3l-2.6,2C202.9,145.9,202.8,146,202.8,146z M208,141.9c-0.1,0-0.1,0-0.2-0.1c-0.1-0.1-0.1-0.2,0-0.3l2.6-2
		c0.1-0.1,0.3-0.1,0.3,0c0.1,0.1,0.1,0.2,0,0.3l-2.6,2C208.1,141.9,208.1,141.9,208,141.9z M352.5,140.2c-0.1,0-0.2-0.1-0.2-0.1
		L351,137c-0.1-0.1,0-0.3,0.1-0.3c0.1-0.1,0.3,0,0.3,0.1l1.3,3.1C352.8,140,352.7,140.2,352.5,140.2
		C352.6,140.2,352.5,140.2,352.5,140.2z M213.2,137.8c-0.1,0-0.1,0-0.2-0.1c-0.1-0.1-0.1-0.3,0-0.3l2.6-2c0.1-0.1,0.3-0.1,0.3,0
		c0.1,0.1,0.1,0.3,0,0.3l-2.6,2C213.3,137.8,213.3,137.8,213.2,137.8z M349.9,134.1c-0.1,0-0.2-0.1-0.2-0.1l-1.3-3.1
		c-0.1-0.1,0-0.3,0.1-0.3c0.1-0.1,0.3,0,0.3,0.1l1.3,3.1C350.2,133.9,350.1,134.1,349.9,134.1C350,134.1,349.9,134.1,349.9,134.1z
		 M218.5,133.8c-0.1,0-0.1,0-0.2-0.1c-0.1-0.1-0.1-0.3,0-0.3l2.6-2c0.1-0.1,0.3-0.1,0.3,0c0.1,0.1,0.1,0.2,0,0.3l-2.6,2
		C218.6,133.8,218.5,133.8,218.5,133.8z M223.7,129.7c-0.1,0-0.1,0-0.2-0.1c-0.1-0.1-0.1-0.3,0-0.3l2.6-2c0.1-0.1,0.3-0.1,0.3,0
		c0.1,0.1,0.1,0.3,0,0.3l-2.6,2C223.8,129.7,223.8,129.7,223.7,129.7z M347.3,128c-0.1,0-0.2-0.1-0.2-0.1l-1.3-3.1
		c0-0.1,0-0.3,0.1-0.3c0.1-0.1,0.3,0,0.3,0.1l1.3,3.1C347.6,127.8,347.5,128,347.3,128C347.4,128,347.4,128,347.3,128z M228.9,125.6
		c-0.1,0-0.1,0-0.2-0.1c-0.1-0.1-0.1-0.3,0-0.3l2.6-2c0.1-0.1,0.3-0.1,0.3,0c0.1,0.1,0.1,0.3,0,0.3l-2.6,2
		C229.1,125.6,229,125.6,228.9,125.6z M344.8,121.9c-0.1,0-0.2-0.1-0.2-0.1l-1.3-3.1c-0.1-0.1,0-0.3,0.1-0.3c0.1,0,0.3,0,0.3,0.1
		l1.3,3.1C345,121.7,345,121.9,344.8,121.9C344.8,121.9,344.8,121.9,344.8,121.9z M234.2,121.6c-0.1,0-0.1,0-0.2-0.1
		c-0.1-0.1-0.1-0.3,0-0.3l2.6-2c0.1-0.1,0.3-0.1,0.3,0c0.1,0.1,0.1,0.3,0,0.3l-2.6,2C234.3,121.6,234.2,121.6,234.2,121.6z
		 M239.4,117.5c-0.1,0-0.1,0-0.2-0.1c-0.1-0.1-0.1-0.3,0-0.3l2.6-2c0.1-0.1,0.3-0.1,0.3,0c0.1,0.1,0.1,0.2,0,0.3l-2.6,2
		C239.5,117.5,239.5,117.5,239.4,117.5z M342.2,115.8c-0.1,0-0.2-0.1-0.2-0.1l-1.3-3.1c0-0.1,0-0.3,0.1-0.3c0.1-0.1,0.3,0,0.3,0.1
		l1.3,3.1C342.4,115.6,342.4,115.8,342.2,115.8C342.2,115.8,342.2,115.8,342.2,115.8z M244.7,113.5c-0.1,0-0.1,0-0.2-0.1
		c-0.1-0.1-0.1-0.3,0-0.3l2.6-2c0.1-0.1,0.3-0.1,0.3,0c0.1,0.1,0.1,0.3,0,0.3l-2.6,2C244.8,113.4,244.7,113.5,244.7,113.5z
		 M339.6,109.7c-0.1,0-0.2-0.1-0.2-0.1l-1.3-3.1c0-0.1,0-0.3,0.1-0.3c0.1,0,0.3,0,0.3,0.1l1.3,3.1
		C339.9,109.5,339.8,109.7,339.6,109.7C339.6,109.7,339.6,109.7,339.6,109.7z M249.9,109.4c-0.1,0-0.1,0-0.2-0.1
		c-0.1-0.1-0.1-0.3,0-0.3l2.6-2c0.1-0.1,0.3-0.1,0.3,0c0.1,0.1,0.1,0.3,0,0.3l-2.6,2C250,109.4,249.9,109.4,249.9,109.4z
		 M255.1,105.3c-0.1,0-0.1,0-0.2-0.1c-0.1-0.1-0.1-0.2,0-0.3l2.6-2c0.1-0.1,0.3-0.1,0.3,0c0.1,0.1,0.1,0.3,0,0.3l-2.6,2
		C255.2,105.3,255.2,105.3,255.1,105.3z M337,103.6c-0.1,0-0.2-0.1-0.2-0.1l-1.3-3.1c0-0.1,0-0.3,0.1-0.3c0.1-0.1,0.3,0,0.3,0.1
		l1.3,3.1C337.3,103.4,337.2,103.6,337,103.6C337.1,103.6,337,103.6,337,103.6z M260.4,101.3c-0.1,0-0.1,0-0.2-0.1
		c-0.1-0.1-0.1-0.3,0-0.3l2.6-2c0.1-0.1,0.3-0.1,0.3,0c0.1,0.1,0.1,0.3,0,0.3l-2.6,2C260.5,101.3,260.4,101.3,260.4,101.3z
		 M334.4,97.5c-0.1,0-0.2-0.1-0.2-0.1l-1.3-3.1c-0.1-0.1,0-0.3,0.1-0.3c0.1,0,0.3,0,0.3,0.1l1.3,3.1
		C334.7,97.3,334.6,97.5,334.4,97.5C334.5,97.5,334.4,97.5,334.4,97.5z M265.6,97.2c-0.1,0-0.1,0-0.2-0.1c-0.1-0.1-0.1-0.3,0-0.3
		l2.6-2c0.1-0.1,0.3-0.1,0.3,0c0.1,0.1,0.1,0.3,0,0.3l-2.6,2C265.7,97.2,265.7,97.2,265.6,97.2z M270.8,93.1c-0.1,0-0.1,0-0.2-0.1
		c-0.1-0.1-0.1-0.3,0-0.3l2.6-2c0.1-0.1,0.3-0.1,0.3,0c0.1,0.1,0.1,0.3,0,0.3l-2.6,2C270.9,93.1,270.9,93.1,270.8,93.1z M331.8,91.4
		c-0.1,0-0.2-0.1-0.2-0.1l-1.3-3.1c-0.1-0.1,0-0.3,0.1-0.3c0.1-0.1,0.3,0,0.3,0.1l1.3,3.1C332.1,91.2,332,91.4,331.8,91.4
		C331.9,91.4,331.9,91.4,331.8,91.4z M276.1,89.1c-0.1,0-0.1,0-0.2-0.1c-0.1-0.1-0.1-0.2,0-0.3l2.6-2c0.1-0.1,0.3-0.1,0.3,0
		c0.1,0.1,0.1,0.2,0,0.3l-2.6,2C276.2,89.1,276.1,89.1,276.1,89.1z M329.2,85.3c-0.1,0-0.2-0.1-0.2-0.1l-1.3-3.1
		c0-0.1,0-0.3,0.1-0.3c0.1,0,0.3,0,0.3,0.1l1.3,3.1C329.5,85.1,329.5,85.2,329.2,85.3C329.3,85.3,329.3,85.3,329.2,85.3z M281.3,85
		c-0.1,0-0.1,0-0.2-0.1c-0.1-0.1-0.1-0.3,0-0.3l2.6-2c0.1-0.1,0.3-0.1,0.3,0c0.1,0.1,0.1,0.3,0,0.3l-2.6,2
		C281.4,85,281.4,85,281.3,85z M286.5,80.9c-0.1,0-0.1,0-0.2-0.1c-0.1-0.1-0.1-0.3,0-0.3l2.6-2c0.1-0.1,0.3-0.1,0.3,0
		c0.1,0.1,0.1,0.2,0,0.3l-2.6,2C286.6,80.9,286.6,80.9,286.5,80.9z M326.7,79.2c-0.1,0-0.2-0.1-0.2-0.1l-1.3-3.1
		c-0.1-0.1,0-0.3,0.1-0.3c0.1-0.1,0.3,0,0.3,0.1l1.3,3.1C326.9,79,326.9,79.1,326.7,79.2C326.7,79.2,326.7,79.2,326.7,79.2z
		 M291.8,76.9c-0.1,0-0.1,0-0.2-0.1c-0.1-0.1-0.1-0.3,0-0.3l2.6-2c0.1-0.1,0.3-0.1,0.3,0c0.1,0.1,0.1,0.3,0,0.3l-2.6,2
		C291.9,76.9,291.8,76.9,291.8,76.9z M324.1,73.1c-0.1,0-0.2-0.1-0.2-0.1l-1.3-3.1c0-0.1,0-0.3,0.1-0.3c0.1-0.1,0.3,0,0.3,0.1
		l1.3,3.1C324.3,72.9,324.3,73,324.1,73.1C324.1,73.1,324.1,73.1,324.1,73.1z M297,72.8c-0.1,0-0.1,0-0.2-0.1
		c-0.1-0.1-0.1-0.3,0-0.3l2.6-2c0.1-0.1,0.3-0.1,0.3,0c0.1,0.1,0.1,0.3,0,0.3l-2.6,2C297.1,72.8,297.1,72.8,297,72.8z M302.2,68.8
		c-0.1,0-0.1,0-0.2-0.1c-0.1-0.1-0.1-0.3,0-0.3l2.6-2c0.1-0.1,0.3-0.1,0.3,0c0.1,0.1,0.1,0.3,0,0.3l-2.6,2
		C302.4,68.7,302.3,68.8,302.2,68.8z M321.5,67c-0.1,0-0.2-0.1-0.2-0.1l-1.3-3.1c0-0.1,0-0.3,0.1-0.3c0.1,0,0.3,0,0.3,0.1l1.3,3.1
		C321.8,66.8,321.7,66.9,321.5,67C321.6,67,321.5,67,321.5,67z M307.5,64.7c-0.1,0-0.1,0-0.2-0.1c-0.1-0.1-0.1-0.3,0-0.3l2.6-2
		c0.1-0.1,0.3-0.1,0.3,0c0.1,0.1,0.1,0.3,0,0.3l-2.6,2C307.6,64.7,307.5,64.7,307.5,64.7z M318.9,60.9c-0.1,0-0.2-0.1-0.2-0.1
		l-1.3-3.1c0-0.1,0-0.3,0.1-0.3c0.1-0.1,0.3,0,0.3,0.1l1.3,3.1C319.2,60.7,319.1,60.8,318.9,60.9C319,60.9,318.9,60.9,318.9,60.9z
		 M312.7,60.6c-0.1,0-0.1,0-0.2-0.1c-0.1-0.1-0.1-0.2,0-0.3l2.6-2c0.1-0.1,0.3-0.1,0.3,0c0.1,0.1,0.1,0.3,0,0.3l-2.6,2
		C312.8,60.6,312.8,60.6,312.7,60.6z"/>
	<g>
		<path class="st4" d="M172.6,276.2c0-0.1-0.1-0.2-0.2-0.2h-3.3c-0.1,0-0.2,0.1-0.2,0.2c0,0.1,0.1,0.2,0.2,0.2h3.3
			C172.5,276.4,172.6,276.3,172.6,276.2z"/>
		<path class="st4" d="M166,276.2c0-0.1-0.1-0.2-0.2-0.2h-3.3c-0.1,0-0.2,0.1-0.2,0.2c0,0.1,0.1,0.2,0.2,0.2h3.3
			C165.9,276.4,166,276.3,166,276.2z"/>
		<path class="st4" d="M159.4,276.2c0-0.1-0.1-0.2-0.2-0.2h-3.3c-0.1,0-0.2,0.1-0.2,0.2c0,0.1,0.1,0.2,0.2,0.2h3.3
			C159.3,276.4,159.4,276.3,159.4,276.2z"/>
		<path class="st4" d="M179.3,276.2c0-0.1-0.1-0.2-0.2-0.2h-3.3c-0.1,0-0.2,0.1-0.2,0.2c0,0.1,0.1,0.2,0.2,0.2h3.3
			C179.1,276.4,179.3,276.3,179.3,276.2z"/>
		<path class="st4" d="M183.3,275.9h-0.9c-0.1,0-0.2,0.1-0.2,0.2c0,0.1,0.1,0.2,0.2,0.2h0.9c0.1,0,0.2-0.1,0.2-0.2
			C183.5,276,183.4,275.9,183.3,275.9z"/>
	</g>
	<g>
		<path class="st4" d="M172.6,283.4c0-0.1-0.1-0.2-0.2-0.2h-3.3c-0.1,0-0.2,0.1-0.2,0.2s0.1,0.2,0.2,0.2h3.3
			C172.5,283.7,172.6,283.6,172.6,283.4z"/>
		<path class="st4" d="M166,283.4c0-0.1-0.1-0.2-0.2-0.2h-3.3c-0.1,0-0.2,0.1-0.2,0.2s0.1,0.2,0.2,0.2h3.3
			C165.9,283.7,166,283.6,166,283.4z"/>
		<path class="st4" d="M159.4,283.4c0-0.1-0.1-0.2-0.2-0.2h-3.3c-0.1,0-0.2,0.1-0.2,0.2s0.1,0.2,0.2,0.2h3.3
			C159.3,283.7,159.4,283.6,159.4,283.4z"/>
		<path class="st4" d="M179.3,283.4c0-0.1-0.1-0.2-0.2-0.2h-3.3c-0.1,0-0.2,0.1-0.2,0.2s0.1,0.2,0.2,0.2h3.3
			C179.1,283.7,179.3,283.6,179.3,283.4z"/>
		<path class="st4" d="M183.3,283.2h-0.9c-0.1,0-0.2,0.1-0.2,0.2s0.1,0.2,0.2,0.2h0.9c0.1,0,0.2-0.1,0.2-0.2
			S183.4,283.2,183.3,283.2z"/>
	</g>
	<g>
		<path class="st4" d="M347.5,276.2c0-0.1-0.1-0.2-0.2-0.2H344c-0.1,0-0.2,0.1-0.2,0.2c0,0.1,0.1,0.2,0.2,0.2h3.3
			C347.4,276.4,347.5,276.3,347.5,276.2z"/>
		<path class="st4" d="M340.9,276.2c0-0.1-0.1-0.2-0.2-0.2h-3.3c-0.1,0-0.2,0.1-0.2,0.2c0,0.1,0.1,0.2,0.2,0.2h3.3
			C340.8,276.4,340.9,276.3,340.9,276.2z"/>
		<path class="st4" d="M334.3,276.2c0-0.1-0.1-0.2-0.2-0.2h-3.3c-0.1,0-0.2,0.1-0.2,0.2c0,0.1,0.1,0.2,0.2,0.2h3.3
			C334.1,276.4,334.3,276.3,334.3,276.2z"/>
		<path class="st4" d="M354.1,276.2c0-0.1-0.1-0.2-0.2-0.2h-3.3c-0.1,0-0.2,0.1-0.2,0.2c0,0.1,0.1,0.2,0.2,0.2h3.3
			C354,276.4,354.1,276.3,354.1,276.2z"/>
		<path class="st4" d="M358.2,275.9h-0.9c-0.1,0-0.2,0.1-0.2,0.2c0,0.1,0.1,0.2,0.2,0.2h0.9c0.1,0,0.2-0.1,0.2-0.2
			C358.4,276,358.3,275.9,358.2,275.9z"/>
	</g>
	<g>
		<path class="st4" d="M347.5,283.4c0-0.1-0.1-0.2-0.2-0.2H344c-0.1,0-0.2,0.1-0.2,0.2s0.1,0.2,0.2,0.2h3.3
			C347.4,283.7,347.5,283.6,347.5,283.4z"/>
		<path class="st4" d="M340.9,283.4c0-0.1-0.1-0.2-0.2-0.2h-3.3c-0.1,0-0.2,0.1-0.2,0.2s0.1,0.2,0.2,0.2h3.3
			C340.8,283.7,340.9,283.6,340.9,283.4z"/>
		<path class="st4" d="M334.3,283.4c0-0.1-0.1-0.2-0.2-0.2h-3.3c-0.1,0-0.2,0.1-0.2,0.2s0.1,0.2,0.2,0.2h3.3
			C334.1,283.7,334.3,283.6,334.3,283.4z"/>
		<path class="st4" d="M354.1,283.4c0-0.1-0.1-0.2-0.2-0.2h-3.3c-0.1,0-0.2,0.1-0.2,0.2s0.1,0.2,0.2,0.2h3.3
			C354,283.7,354.1,283.6,354.1,283.4z"/>
		<path class="st4" d="M358.2,283.2h-0.9c-0.1,0-0.2,0.1-0.2,0.2s0.1,0.2,0.2,0.2h0.9c0.1,0,0.2-0.1,0.2-0.2
			S358.3,283.2,358.2,283.2z"/>
	</g>
</g>
</svg>
