<?xml version="1.0" encoding="utf-8"?>
<!-- Generator: Adobe Illustrator 24.0.2, SVG Export Plug-In . SVG Version: 6.00 Build 0)  -->
<svg version="1.1" id="Layer_1" xmlns="http://www.w3.org/2000/svg" xmlns:xlink="http://www.w3.org/1999/xlink" x="0px" y="0px"
	 viewBox="0 0 500 500" style="enable-background:new 0 0 500 500;" xml:space="preserve">
<style type="text/css">
	.st0{fill:#231502;}
	.st1{fill:#4F1832;}
	.st2{opacity:0.24;fill:#BC558B;}
	.st3{opacity:0.21;fill:#2D041B;}
	.st4{fill:#3A0D25;}
	.st5{opacity:0.5;fill:#210515;}
	.st6{opacity:7.000000e-02;fill:#FFA9E2;}
	.st7{fill:#0F0C23;}
</style>
<g>
	<g>
		<path class="st0" d="M375.1,452.7c0,1.5-2.1,2.8-4.7,2.9c-2.6,0.1-4.8-1.1-4.9-2.6c0-1.5,2.1-2.8,4.7-2.9
			C372.9,450.1,375.1,451.2,375.1,452.7z"/>
		<path class="st0" d="M357.5,453.9c0,1.5-2.1,2.8-4.7,2.9c-2.6,0.1-4.8-1.1-4.9-2.6c0-1.5,2.1-2.8,4.7-2.9
			C355.3,451.3,357.4,452.4,357.5,453.9z"/>
		<path class="st0" d="M339.9,455.1c0,1.5-2.1,2.8-4.7,2.9c-2.6,0.1-4.8-1.1-4.9-2.6c0-1.5,2.1-2.8,4.7-2.9
			C337.6,452.5,339.8,453.6,339.9,455.1z"/>
		<path class="st0" d="M322.7,456.3c0,1.5-2.1,2.8-4.7,2.9c-2.6,0.1-4.8-1.1-4.9-2.6c0-1.5,2.1-2.8,4.7-2.9
			C320.4,453.7,322.6,454.8,322.7,456.3z"/>
		<path class="st0" d="M304.6,456.3c0,1.5-2.1,2.8-4.7,2.9c-2.6,0.1-4.8-1.1-4.9-2.6c0-1.5,2.1-2.8,4.7-2.9
			C302.4,453.7,304.6,454.8,304.6,456.3z"/>
	</g>
	<path class="st1" d="M375.4,427.6c0,0-55.4,5.8-68.6,6.3c-9.5,0.3-33.2-15-52.5-28.4c-7.5-5.1-14.3-10-19.3-13.5
		c-7.5-5.2-19-11.1-30.7-16.3c-16.9-7.5-34.3-13.4-41.2-13.4c-11.6,0-7.4-11.1-7.4-11.1s23.1-52.7,19.8-77.9
		c-1.7-13-12.5-62.8-20.9-116.2c-0.4-2.4-0.8-4.9-1.1-7.3c-5.1-33.6-9.1-68.1-9.2-95.2v-0.5c0-11.2,0.7-21.2,2.2-29.4h152.9
		c0,0,0,0.2-0.1,0.7c-0.7,7-6.1,65.1-11.2,124.4c-0.2,2.4-0.4,4.9-0.6,7.3c-4.8,56-9.1,111.4-8.8,124.3c0.1,4.6,0.8,10.4,1.8,16.8
		c5.5,33,22.5,83.7,42.6,88.7c24,5.9,30.8,9.6,44,16.6C380.4,410.5,375.4,427.6,375.4,427.6z"/>
	<path class="st2" d="M243,307.8c-5.4,10.9-15.9-0.2-16.9,15.4c-1,15.6-32.4,17.3-21.9,52.4c-16.9-7.5-34.3-13.4-41.2-13.4
		c-11.6,0-7.4-11.1-7.4-11.1s23.1-52.7,19.8-77.9c-1.7-13-12.5-62.8-20.9-116.2c-0.4-2.4-0.8-4.9-1.1-7.3
		c-5.1-33.6-9.1-68.1-9.2-95.2v-0.5c0-11.2,0.7-21.2,2.2-29.4h44.8c0.2,7.6,0.4,16,0.7,25.3c4.4,166-9.9,115.1,15,167
		c25,51.8,40.5,57.3,36.1,69c-4.4,11.7-22.6-1.2-21.2,5.7C223.3,298.6,248.4,296.9,243,307.8z"/>
	<path class="st3" d="M299.4,24.7c0,0,0,0.2-0.1,0.7c-0.7,7-6.1,65.1-11.2,124.4c-0.2,2.4-0.4,4.9-0.6,7.3c0,0-133.7-4.9-134-7.3
		c-5.1-33.6-9.1-68.1-9.2-95.2v-0.5c0.1-11.2,0.7-21.2,2.2-29.4H299.4z"/>
	<path class="st4" d="M299.4,24.7c0,0-5.8,61.8-11.3,125.1H153.5c-7.3-47.8-12.3-97.2-6.9-125.1H299.4z"/>
	<path class="st5" d="M299.4,24.7c0,0-5.8,61.8-11.3,125.1h-130c44.4-23.5,75.7-86.9,91.2-125.1H299.4z"/>
	<path class="st4" d="M375.4,427.6c0,0-55.4,5.8-68.6,6.3c-9.5,0.3-33.2-15-52.5-28.4c8.8-1.6,25.8-5.9,26.3-15
		c0.7-12.2-19.9-38.3-20.3-67.3c-0.4-28.7,19.8-25.1,20.3-25c5.5,33,22.5,83.7,42.6,88.7c24,5.9,30.8,9.6,44,16.6
		C380.4,410.5,375.4,427.6,375.4,427.6z"/>
	<path class="st0" d="M375.4,427.6c0,0-71.6,5.5-83.7,0.5c-12.2-5.1-64.3-45.8-81.6-53.9c-17.3-8.1-56.9-17.9-56.9-17.9l4.4,98.9
		h-0.1v3.9h45.2v-2.9v-1v-66.9c18.9,4.2,81.6,65.1,90.8,67.9c9.3,2.9,83.4-4.1,83.4-4.1l1.6-24.1L375.4,427.6z"/>
	<path class="st6" d="M158.1,37.7c0,0-2.2,86.2,3.4,90.4C167,132.4,167.5,27.4,158.1,37.7z"/>
	<path class="st7" d="M265.5,408.1l-0.3-0.5c0.1-0.1,0.7-0.9,2.5-1.9l0.3,0.6c-1.8,1-2.3,1.7-2.3,1.7L265.5,408.1z M272.1,404.4
		l-0.2-0.6c1.3-0.5,2.7-0.9,4.3-1.4l0.2,0.6C274.8,403.5,273.4,403.9,272.1,404.4z M280.6,401.7l-0.3-0.6c1.4-0.6,2.6-1.5,3.5-2.5
		l0.5,0.4C283.4,400.1,282.1,401,280.6,401.7z M286.5,395l-0.6-0.2c0.3-1,0.5-2.2,0.5-3.3c0-0.3,0-0.7,0-1l0.6-0.1
		c0,0.3,0,0.7,0,1.1C287,392.7,286.9,393.9,286.5,395z M285,386.4c-0.5-1.4-1.1-2.8-1.6-4.2l0.6-0.2c0.5,1.4,1,2.8,1.6,4.2
		L285,386.4z M281.8,378c-0.5-1.4-1-2.8-1.5-4.2l0.6-0.2c0.5,1.4,1,2.8,1.5,4.2L281.8,378z M278.8,369.5c-0.5-1.4-1-2.9-1.5-4.2
		l0.6-0.2c0.5,1.4,1,2.8,1.5,4.2L278.8,369.5z M275.8,361.1c-0.5-1.5-1-2.9-1.4-4.2l0.6-0.2c0.5,1.4,0.9,2.8,1.4,4.2L275.8,361.1z
		 M273,352.6c-0.5-1.5-0.9-2.9-1.3-4.3l0.6-0.2c0.4,1.4,0.9,2.8,1.3,4.3L273,352.6z M270.4,344c-0.4-1.5-0.9-2.9-1.2-4.3l0.6-0.2
		c0.4,1.4,0.8,2.8,1.2,4.3L270.4,344z M268,335.4c-0.4-1.5-0.7-3-1-4.4l0.6-0.1c0.3,1.4,0.6,2.8,1,4.3L268,335.4z M266.1,326.6
		c-0.3-1.6-0.5-3.1-0.6-4.4l0.6-0.1c0.1,1.4,0.4,2.8,0.6,4.4L266.1,326.6z M265.2,317.7l0-0.4c0-1.4,0.1-2.7,0.3-4.1l0.6,0.1
		c-0.2,1.4-0.2,2.7-0.2,4.1l0,0.4L265.2,317.7z M267.1,309.1l-0.6-0.3c0.7-1.3,1.8-2.4,3.1-3.3l0.4,0.5
		C268.8,306.8,267.8,307.9,267.1,309.1z M274,304l-0.2-0.6c2.4-0.8,4.3-1.1,4.4-1.1l0.1,0.6C278.3,303,276.3,303.2,274,304z"/>
</g>
</svg>
