<svg id="Capa_1" enable-background="new 0 0 512 512" height="512" viewBox="0 0 512 512" width="512" xmlns="http://www.w3.org/2000/svg"><g><g><path d="m75 136c-8.291 0-15-6.709-15-15v-30c0-8.291 6.709-15 15-15s15 6.709 15 15v30c0 8.291-6.709 15-15 15z" fill="#4d5e80"/></g><g><g><path d="m467 106h-114.699l-25.801-25.501c-2.7-2.999-6.6-4.499-10.5-4.499h-120c-3.9 0-7.8 1.5-10.499 4.499l-25.802 25.501h-114.699c-24.901 0-45 20.099-45 45v240c0 24.899 20.099 45 45 45h422c24.901 0 45-20.101 45-45v-240c0-24.901-20.099-45-45-45z" fill="#ffa6b5"/></g></g><path d="m512 151v240c0 24.899-20.099 45-45 45h-211v-360h60c3.9 0 7.8 1.5 10.499 4.499l25.802 25.501h114.699c24.901 0 45 20.099 45 45z" fill="#ff80aa"/><g><path d="m436 196h-30c-8.291 0-15-6.709-15-15s6.709-15 15-15h30c8.291 0 15 6.709 15 15s-6.709 15-15 15z" fill="#3d4566"/></g><path d="m256 166c-57.9 0-105 47.1-105 105s47.1 105 105 105 105-47.1 105-105-47.1-105-105-105z" fill="#4d5e80"/><path d="m361 271c0 57.9-47.1 105-105 105v-210c57.9 0 105 47.1 105 105z" fill="#3d4566"/><circle cx="256" cy="271" fill="#d7dce6" r="75"/><path d="m331 271c0 41.4-33.6 75-75 75v-150c41.4 0 75 33.6 75 75z" fill="#b8bfcc"/><circle cx="256" cy="271" fill="#f3f5f9" r="15"/><path d="m271 271c0 8.399-6.599 15-15 15v-30c8.401 0 15 6.599 15 15z" fill="#d7dce6"/></g></svg>