<?xml version="1.0" encoding="utf-8"?>
<!-- Generator: Adobe Illustrator 24.0.2, SVG Export Plug-In . SVG Version: 6.00 Build 0)  -->
<svg version="1.1" id="Layer_1" xmlns="http://www.w3.org/2000/svg" xmlns:xlink="http://www.w3.org/1999/xlink" x="0px" y="0px"
	 viewBox="0 0 500 500" style="enable-background:new 0 0 500 500;" xml:space="preserve">
<style type="text/css">
	.st0{fill:#5B1A23;}
	.st1{fill:#851C1E;}
	.st2{fill:#AF741E;}
	.st3{fill:#590A0E;}
	.st4{fill:#7C5209;}
	.st5{fill:#771D2A;}
	.st6{opacity:0.35;fill:#56121C;}
	.st7{fill:#91292E;}
	.st8{opacity:0.4;fill:#510B0F;}
	.st9{fill:#9B343E;}
	.st10{opacity:0.32;fill:#B77685;}
	.st11{opacity:0.25;fill:#D35F75;}
	.st12{fill:#3D0E16;}
	.st13{fill:#B26406;}
	.st14{fill:#F7A143;}
	.st15{opacity:0.28;fill:#B26406;}
	.st16{opacity:0.26;fill:#0C0804;}
</style>
<g>
	<path class="st0" d="M200.8,143.1c0-12,8.3-21.8,18.5-21.8h72.4c10.2,0,18.5,9.8,18.5,21.8v11.5H327v-11.5
		c0-23-15.8-41.7-35.3-41.7h-72.4c-19.5,0-35.3,18.7-35.3,41.7v11.5h16.8V143.1z"/>
	<path class="st1" d="M425.8,169.7v210.2c0,9-8.1,16.4-18.1,16.4H114.3c-10,0-18.1-7.3-18.1-16.4V169.7H425.8z"/>
	<g>
		<g>
			<path class="st2" d="M436.9,143.6v22c0,4.2,3.5,7.7,7.7,7.7h6.1c4.2,0,7.7-3.5,7.7-7.7v-22c0-4.2-3.5-7.7-7.7-7.7h-6.1
				C440.3,135.9,436.9,139.3,436.9,143.6z M450.7,139.4c2.3,0,4.2,1.9,4.2,4.2v22c0,2.3-1.9,4.2-4.2,4.2h-6.1
				c-2.3,0-4.2-1.9-4.2-4.2v-22c0-2.3,1.9-4.2,4.2-4.2H450.7z"/>
			<rect x="425.8" y="142.9" class="st3" width="16.6" height="19.9"/>
			<rect x="445.3" y="165.7" class="st4" width="6" height="29.3"/>
			<rect x="443" y="186.8" class="st4" width="10.6" height="4"/>
			<path class="st2" d="M457.8,207.8h-20.3c-3.2,0-5.9-2.6-5.9-5.9v-4.6c0-3.2,2.6-5.9,5.9-5.9h20.3c3.2,0,5.9,2.6,5.9,5.9v4.6
				C463.6,205.2,461,207.8,457.8,207.8z M437.5,195c-1.3,0-2.4,1.1-2.4,2.4v4.6c0,1.3,1.1,2.4,2.4,2.4h20.3c1.3,0,2.4-1.1,2.4-2.4
				v-4.6c0-1.3-1.1-2.4-2.4-2.4H437.5z"/>
			<path class="st5" d="M394.8,352.5H226.8v-17.4h167.9c23.2,0,42.3-18.8,42.7-42l1.5-93.6l17.4,0.3l-1.5,93.6
				c-0.3,15.9-6.6,30.7-17.9,41.8C425.6,346.4,410.6,352.5,394.8,352.5z"/>
		</g>
		<g>
			<path class="st2" d="M73.7,135.9h-6.1c-4.2,0-7.7,3.5-7.7,7.7v22c0,4.2,3.5,7.7,7.7,7.7h6.1c4.2,0,7.7-3.5,7.7-7.7v-22
				C81.3,139.3,77.9,135.9,73.7,135.9z M73.7,139.4c2.3,0,4.2,1.9,4.2,4.2v22c0,2.3-1.9,4.2-4.2,4.2h-6.1c-2.3,0-4.2-1.9-4.2-4.2
				v-22c0-2.3,1.9-4.2,4.2-4.2H73.7z"/>
			
				<rect x="75.9" y="142.9" transform="matrix(-1 -1.224647e-16 1.224647e-16 -1 168.3394 305.5894)" class="st3" width="16.6" height="19.9"/>
			
				<rect x="66.9" y="165.7" transform="matrix(-1 -1.224647e-16 1.224647e-16 -1 139.8339 360.7085)" class="st4" width="6" height="29.3"/>
			
				<rect x="64.6" y="186.8" transform="matrix(-1 -1.224647e-16 1.224647e-16 -1 139.8338 377.5901)" class="st4" width="10.6" height="4"/>
			<path class="st2" d="M54.6,202v-4.6c0-3.2,2.6-5.9,5.9-5.9h20.3c3.2,0,5.9,2.6,5.9,5.9v4.6c0,3.2-2.6,5.9-5.9,5.9H60.5
				C57.2,207.8,54.6,205.2,54.6,202z M60.5,195c-1.3,0-2.4,1.1-2.4,2.4v4.6c0,1.3,1.1,2.4,2.4,2.4h20.3c1.3,0,2.4-1.1,2.4-2.4v-4.6
				c0-1.3-1.1-2.4-2.4-2.4H60.5z"/>
			<path class="st5" d="M123.4,352.5h167.9v-17.4H123.4c-23.2,0-42.3-18.8-42.7-42l-1.5-93.6l-17.4,0.3l1.5,93.6
				c0.3,15.9,6.6,30.7,17.9,41.8C92.6,346.4,107.6,352.5,123.4,352.5z"/>
		</g>
		<path class="st1" d="M421.5,169.7v206.2c0,8.9-7.9,16.1-17.6,16.1H118.1c-9.7,0-17.6-7.2-17.6-16.1V169.7H421.5z"/>
		<path class="st0" d="M398.2,392.5h-6c-0.3,0-0.5-0.2-0.5-0.5c0-0.3,0.2-0.5,0.5-0.5h6c0.3,0,0.5,0.2,0.5,0.5
			C398.7,392.3,398.5,392.5,398.2,392.5z M386.3,392.5h-6c-0.3,0-0.5-0.2-0.5-0.5c0-0.3,0.2-0.5,0.5-0.5h6c0.3,0,0.5,0.2,0.5,0.5
			C386.8,392.3,386.6,392.5,386.3,392.5z M374.4,392.5h-6c-0.3,0-0.5-0.2-0.5-0.5c0-0.3,0.2-0.5,0.5-0.5h6c0.3,0,0.5,0.2,0.5,0.5
			C374.9,392.3,374.6,392.5,374.4,392.5z M362.5,392.5h-6c-0.3,0-0.5-0.2-0.5-0.5c0-0.3,0.2-0.5,0.5-0.5h6c0.3,0,0.5,0.2,0.5,0.5
			C363,392.3,362.7,392.5,362.5,392.5z M350.5,392.5h-6c-0.3,0-0.5-0.2-0.5-0.5c0-0.3,0.2-0.5,0.5-0.5h6c0.3,0,0.5,0.2,0.5,0.5
			C351,392.3,350.8,392.5,350.5,392.5z M338.6,392.5h-6c-0.3,0-0.5-0.2-0.5-0.5c0-0.3,0.2-0.5,0.5-0.5h6c0.3,0,0.5,0.2,0.5,0.5
			C339.1,392.3,338.9,392.5,338.6,392.5z M326.7,392.5h-6c-0.3,0-0.5-0.2-0.5-0.5c0-0.3,0.2-0.5,0.5-0.5h6c0.3,0,0.5,0.2,0.5,0.5
			C327.2,392.3,327,392.5,326.7,392.5z M314.8,392.5h-6c-0.3,0-0.5-0.2-0.5-0.5c0-0.3,0.2-0.5,0.5-0.5h6c0.3,0,0.5,0.2,0.5,0.5
			C315.3,392.3,315.1,392.5,314.8,392.5z M302.9,392.5h-6c-0.3,0-0.5-0.2-0.5-0.5c0-0.3,0.2-0.5,0.5-0.5h6c0.3,0,0.5,0.2,0.5,0.5
			C303.4,392.3,303.1,392.5,302.9,392.5z M291,392.5h-6c-0.3,0-0.5-0.2-0.5-0.5c0-0.3,0.2-0.5,0.5-0.5h6c0.3,0,0.5,0.2,0.5,0.5
			C291.4,392.3,291.2,392.5,291,392.5z M279,392.5h-6c-0.3,0-0.5-0.2-0.5-0.5c0-0.3,0.2-0.5,0.5-0.5h6c0.3,0,0.5,0.2,0.5,0.5
			C279.5,392.3,279.3,392.5,279,392.5z M267.1,392.5h-6c-0.3,0-0.5-0.2-0.5-0.5c0-0.3,0.2-0.5,0.5-0.5h6c0.3,0,0.5,0.2,0.5,0.5
			C267.6,392.3,267.4,392.5,267.1,392.5z M255.2,392.5h-6c-0.3,0-0.5-0.2-0.5-0.5c0-0.3,0.2-0.5,0.5-0.5h6c0.3,0,0.5,0.2,0.5,0.5
			C255.7,392.3,255.5,392.5,255.2,392.5z M243.3,392.5h-6c-0.3,0-0.5-0.2-0.5-0.5c0-0.3,0.2-0.5,0.5-0.5h6c0.3,0,0.5,0.2,0.5,0.5
			C243.8,392.3,243.6,392.5,243.3,392.5z M231.4,392.5h-6c-0.3,0-0.5-0.2-0.5-0.5c0-0.3,0.2-0.5,0.5-0.5h6c0.3,0,0.5,0.2,0.5,0.5
			C231.9,392.3,231.6,392.5,231.4,392.5z M219.4,392.5h-6c-0.3,0-0.5-0.2-0.5-0.5c0-0.3,0.2-0.5,0.5-0.5h6c0.3,0,0.5,0.2,0.5,0.5
			C219.9,392.3,219.7,392.5,219.4,392.5z M207.5,392.5h-6c-0.3,0-0.5-0.2-0.5-0.5c0-0.3,0.2-0.5,0.5-0.5h6c0.3,0,0.5,0.2,0.5,0.5
			C208,392.3,207.8,392.5,207.5,392.5z M195.6,392.5h-6c-0.3,0-0.5-0.2-0.5-0.5c0-0.3,0.2-0.5,0.5-0.5h6c0.3,0,0.5,0.2,0.5,0.5
			C196.1,392.3,195.9,392.5,195.6,392.5z M183.7,392.5h-6c-0.3,0-0.5-0.2-0.5-0.5c0-0.3,0.2-0.5,0.5-0.5h6c0.3,0,0.5,0.2,0.5,0.5
			C184.2,392.3,184,392.5,183.7,392.5z M171.8,392.5h-6c-0.3,0-0.5-0.2-0.5-0.5c0-0.3,0.2-0.5,0.5-0.5h6c0.3,0,0.5,0.2,0.5,0.5
			C172.3,392.3,172,392.5,171.8,392.5z M159.9,392.5h-6c-0.3,0-0.5-0.2-0.5-0.5c0-0.3,0.2-0.5,0.5-0.5h6c0.3,0,0.5,0.2,0.5,0.5
			C160.4,392.3,160.1,392.5,159.9,392.5z M147.9,392.5h-6c-0.3,0-0.5-0.2-0.5-0.5c0-0.3,0.2-0.5,0.5-0.5h6c0.3,0,0.5,0.2,0.5,0.5
			C148.4,392.3,148.2,392.5,147.9,392.5z M136,392.5h-6c-0.3,0-0.5-0.2-0.5-0.5c0-0.3,0.2-0.5,0.5-0.5h6c0.3,0,0.5,0.2,0.5,0.5
			C136.5,392.3,136.3,392.5,136,392.5z M124.1,392.5h-6c-0.3,0-0.5-0.2-0.5-0.5c0-0.3,0.2-0.5,0.5-0.5h6c0.3,0,0.5,0.2,0.5,0.5
			C124.6,392.3,124.4,392.5,124.1,392.5z M404.2,392.5c-0.3,0-0.5-0.2-0.5-0.5c0-0.3,0.2-0.5,0.5-0.5c2,0,3.9-0.4,5.7-1
			c0.3-0.1,0.5,0.1,0.6,0.3c0.1,0.3-0.1,0.5-0.3,0.6C408.3,392.1,406.2,392.4,404.2,392.5C404.2,392.5,404.2,392.5,404.2,392.5z
			 M112.3,391.6c0,0-0.1,0-0.2,0c-2-0.6-3.8-1.6-5.4-2.8c-0.2-0.2-0.3-0.5-0.1-0.7c0.2-0.2,0.5-0.3,0.7-0.1c1.5,1.1,3.3,2,5.1,2.6
			c0.3,0.1,0.4,0.4,0.3,0.6C112.7,391.4,112.5,391.6,112.3,391.6z M415.2,388.7c-0.1,0-0.3-0.1-0.4-0.2c-0.2-0.2-0.1-0.5,0.1-0.7
			c1.6-1.2,2.9-2.6,3.9-4.3c0.1-0.2,0.4-0.3,0.7-0.2c0.2,0.1,0.3,0.5,0.2,0.7c-1.1,1.7-2.4,3.2-4.1,4.5
			C415.5,388.6,415.4,388.7,415.2,388.7z M102.9,384.6c-0.2,0-0.3-0.1-0.4-0.2c-1.1-1.8-1.9-3.7-2.3-5.7c-0.1-0.3,0.1-0.5,0.4-0.6
			c0.3,0,0.5,0.1,0.6,0.4c0.3,1.9,1.1,3.7,2.1,5.3c0.2,0.2,0.1,0.5-0.1,0.7C103.1,384.5,103,384.6,102.9,384.6z M421.3,378.7
			C421.3,378.7,421.3,378.7,421.3,378.7c-0.3,0-0.5-0.3-0.5-0.6c0.1-0.7,0.2-1.5,0.2-2.3v-3.6c0-0.3,0.2-0.5,0.5-0.5
			c0.3,0,0.5,0.2,0.5,0.5v3.6c0,0.8-0.1,1.6-0.2,2.4C421.8,378.6,421.5,378.7,421.3,378.7z M100.5,373.1c-0.3,0-0.5-0.2-0.5-0.5v-6
			c0-0.3,0.2-0.5,0.5-0.5c0.3,0,0.5,0.2,0.5,0.5v6C101,372.9,100.8,373.1,100.5,373.1z M421.5,366.8c-0.3,0-0.5-0.2-0.5-0.5v-6
			c0-0.3,0.2-0.5,0.5-0.5c0.3,0,0.5,0.2,0.5,0.5v6C422,366.6,421.8,366.8,421.5,366.8z M100.5,361.2c-0.3,0-0.5-0.2-0.5-0.5v-6
			c0-0.3,0.2-0.5,0.5-0.5c0.3,0,0.5,0.2,0.5,0.5v6C101,361,100.8,361.2,100.5,361.2z M421.5,354.9c-0.3,0-0.5-0.2-0.5-0.5v-6
			c0-0.3,0.2-0.5,0.5-0.5c0.3,0,0.5,0.2,0.5,0.5v6C422,354.7,421.8,354.9,421.5,354.9z M100.5,349.3c-0.3,0-0.5-0.2-0.5-0.5v-6
			c0-0.3,0.2-0.5,0.5-0.5c0.3,0,0.5,0.2,0.5,0.5v6C101,349.1,100.8,349.3,100.5,349.3z M421.5,343c-0.3,0-0.5-0.2-0.5-0.5v-6
			c0-0.3,0.2-0.5,0.5-0.5c0.3,0,0.5,0.2,0.5,0.5v6C422,342.8,421.8,343,421.5,343z M100.5,337.4c-0.3,0-0.5-0.2-0.5-0.5v-6
			c0-0.3,0.2-0.5,0.5-0.5c0.3,0,0.5,0.2,0.5,0.5v6C101,337.2,100.8,337.4,100.5,337.4z M421.5,331.1c-0.3,0-0.5-0.2-0.5-0.5v-6
			c0-0.3,0.2-0.5,0.5-0.5c0.3,0,0.5,0.2,0.5,0.5v6C422,330.9,421.8,331.1,421.5,331.1z M100.5,325.5c-0.3,0-0.5-0.2-0.5-0.5v-6
			c0-0.3,0.2-0.5,0.5-0.5c0.3,0,0.5,0.2,0.5,0.5v6C101,325.2,100.8,325.5,100.5,325.5z M421.5,319.2c-0.3,0-0.5-0.2-0.5-0.5v-6
			c0-0.3,0.2-0.5,0.5-0.5c0.3,0,0.5,0.2,0.5,0.5v6C422,318.9,421.8,319.2,421.5,319.2z M100.5,313.5c-0.3,0-0.5-0.2-0.5-0.5v-6
			c0-0.3,0.2-0.5,0.5-0.5c0.3,0,0.5,0.2,0.5,0.5v6C101,313.3,100.8,313.5,100.5,313.5z M421.5,307.3c-0.3,0-0.5-0.2-0.5-0.5v-6
			c0-0.3,0.2-0.5,0.5-0.5c0.3,0,0.5,0.2,0.5,0.5v6C422,307,421.8,307.3,421.5,307.3z M100.5,301.6c-0.3,0-0.5-0.2-0.5-0.5v-6
			c0-0.3,0.2-0.5,0.5-0.5c0.3,0,0.5,0.2,0.5,0.5v6C101,301.4,100.8,301.6,100.5,301.6z M421.5,295.3c-0.3,0-0.5-0.2-0.5-0.5v-6
			c0-0.3,0.2-0.5,0.5-0.5c0.3,0,0.5,0.2,0.5,0.5v6C422,295.1,421.8,295.3,421.5,295.3z M100.5,289.7c-0.3,0-0.5-0.2-0.5-0.5v-6
			c0-0.3,0.2-0.5,0.5-0.5c0.3,0,0.5,0.2,0.5,0.5v6C101,289.5,100.8,289.7,100.5,289.7z M421.5,283.4c-0.3,0-0.5-0.2-0.5-0.5v-6
			c0-0.3,0.2-0.5,0.5-0.5c0.3,0,0.5,0.2,0.5,0.5v6C422,283.2,421.8,283.4,421.5,283.4z M100.5,277.8c-0.3,0-0.5-0.2-0.5-0.5v-6
			c0-0.3,0.2-0.5,0.5-0.5c0.3,0,0.5,0.2,0.5,0.5v6C101,277.6,100.8,277.8,100.5,277.8z M421.5,271.5c-0.3,0-0.5-0.2-0.5-0.5v-6
			c0-0.3,0.2-0.5,0.5-0.5c0.3,0,0.5,0.2,0.5,0.5v6C422,271.3,421.8,271.5,421.5,271.5z M100.5,265.9c-0.3,0-0.5-0.2-0.5-0.5v-6
			c0-0.3,0.2-0.5,0.5-0.5c0.3,0,0.5,0.2,0.5,0.5v6C101,265.6,100.8,265.9,100.5,265.9z M421.5,259.6c-0.3,0-0.5-0.2-0.5-0.5v-6
			c0-0.3,0.2-0.5,0.5-0.5c0.3,0,0.5,0.2,0.5,0.5v6C422,259.4,421.8,259.6,421.5,259.6z M100.5,253.9c-0.3,0-0.5-0.2-0.5-0.5v-6
			c0-0.3,0.2-0.5,0.5-0.5c0.3,0,0.5,0.2,0.5,0.5v6C101,253.7,100.8,253.9,100.5,253.9z M421.5,247.7c-0.3,0-0.5-0.2-0.5-0.5v-6
			c0-0.3,0.2-0.5,0.5-0.5c0.3,0,0.5,0.2,0.5,0.5v6C422,247.4,421.8,247.7,421.5,247.7z M100.5,242c-0.3,0-0.5-0.2-0.5-0.5v-6
			c0-0.3,0.2-0.5,0.5-0.5c0.3,0,0.5,0.2,0.5,0.5v6C101,241.8,100.8,242,100.5,242z M421.5,235.7c-0.3,0-0.5-0.2-0.5-0.5v-6
			c0-0.3,0.2-0.5,0.5-0.5c0.3,0,0.5,0.2,0.5,0.5v6C422,235.5,421.8,235.7,421.5,235.7z M100.5,230.1c-0.3,0-0.5-0.2-0.5-0.5v-6
			c0-0.3,0.2-0.5,0.5-0.5c0.3,0,0.5,0.2,0.5,0.5v6C101,229.9,100.8,230.1,100.5,230.1z M421.5,223.8c-0.3,0-0.5-0.2-0.5-0.5v-6
			c0-0.3,0.2-0.5,0.5-0.5c0.3,0,0.5,0.2,0.5,0.5v6C422,223.6,421.8,223.8,421.5,223.8z M100.5,218.2c-0.3,0-0.5-0.2-0.5-0.5v-6
			c0-0.3,0.2-0.5,0.5-0.5c0.3,0,0.5,0.2,0.5,0.5v6C101,218,100.8,218.2,100.5,218.2z M421.5,211.9c-0.3,0-0.5-0.2-0.5-0.5v-6
			c0-0.3,0.2-0.5,0.5-0.5c0.3,0,0.5,0.2,0.5,0.5v6C422,211.7,421.8,211.9,421.5,211.9z M100.5,206.3c-0.3,0-0.5-0.2-0.5-0.5v-6
			c0-0.3,0.2-0.5,0.5-0.5c0.3,0,0.5,0.2,0.5,0.5v6C101,206.1,100.8,206.3,100.5,206.3z M421.5,200c-0.3,0-0.5-0.2-0.5-0.5v-6
			c0-0.3,0.2-0.5,0.5-0.5c0.3,0,0.5,0.2,0.5,0.5v6C422,199.8,421.8,200,421.5,200z M100.5,194.4c-0.3,0-0.5-0.2-0.5-0.5v-6
			c0-0.3,0.2-0.5,0.5-0.5c0.3,0,0.5,0.2,0.5,0.5v6C101,194.1,100.8,194.4,100.5,194.4z M421.5,188.1c-0.3,0-0.5-0.2-0.5-0.5v-6
			c0-0.3,0.2-0.5,0.5-0.5c0.3,0,0.5,0.2,0.5,0.5v6C422,187.9,421.8,188.1,421.5,188.1z M100.5,182.4c-0.3,0-0.5-0.2-0.5-0.5v-6
			c0-0.3,0.2-0.5,0.5-0.5c0.3,0,0.5,0.2,0.5,0.5v6C101,182.2,100.8,182.4,100.5,182.4z M421.5,176.2c-0.3,0-0.5-0.2-0.5-0.5v-6
			c0-0.3,0.2-0.5,0.5-0.5c0.3,0,0.5,0.2,0.5,0.5v6C422,175.9,421.8,176.2,421.5,176.2z M100.5,170.5c-0.3,0-0.5-0.2-0.5-0.5v-0.8
			h6.1c0.3,0,0.5,0.2,0.5,0.5c0,0.3-0.2,0.5-0.5,0.5H101C100.9,170.4,100.7,170.5,100.5,170.5z M416,170.2h-6
			c-0.3,0-0.5-0.2-0.5-0.5c0-0.3,0.2-0.5,0.5-0.5h6c0.3,0,0.5,0.2,0.5,0.5C416.5,170,416.3,170.2,416,170.2z M404.1,170.2h-6
			c-0.3,0-0.5-0.2-0.5-0.5c0-0.3,0.2-0.5,0.5-0.5h6c0.3,0,0.5,0.2,0.5,0.5C404.6,170,404.3,170.2,404.1,170.2z M392.1,170.2h-6
			c-0.3,0-0.5-0.2-0.5-0.5c0-0.3,0.2-0.5,0.5-0.5h6c0.3,0,0.5,0.2,0.5,0.5C392.6,170,392.4,170.2,392.1,170.2z M380.2,170.2h-6
			c-0.3,0-0.5-0.2-0.5-0.5c0-0.3,0.2-0.5,0.5-0.5h6c0.3,0,0.5,0.2,0.5,0.5C380.7,170,380.5,170.2,380.2,170.2z M368.3,170.2h-6
			c-0.3,0-0.5-0.2-0.5-0.5c0-0.3,0.2-0.5,0.5-0.5h6c0.3,0,0.5,0.2,0.5,0.5C368.8,170,368.6,170.2,368.3,170.2z M356.4,170.2h-6
			c-0.3,0-0.5-0.2-0.5-0.5c0-0.3,0.2-0.5,0.5-0.5h6c0.3,0,0.5,0.2,0.5,0.5C356.9,170,356.7,170.2,356.4,170.2z M344.5,170.2h-6
			c-0.3,0-0.5-0.2-0.5-0.5c0-0.3,0.2-0.5,0.5-0.5h6c0.3,0,0.5,0.2,0.5,0.5C345,170,344.7,170.2,344.5,170.2z M332.6,170.2h-6
			c-0.3,0-0.5-0.2-0.5-0.5c0-0.3,0.2-0.5,0.5-0.5h6c0.3,0,0.5,0.2,0.5,0.5C333.1,170,332.8,170.2,332.6,170.2z M320.6,170.2h-6
			c-0.3,0-0.5-0.2-0.5-0.5c0-0.3,0.2-0.5,0.5-0.5h6c0.3,0,0.5,0.2,0.5,0.5C321.1,170,320.9,170.2,320.6,170.2z M308.7,170.2h-6
			c-0.3,0-0.5-0.2-0.5-0.5c0-0.3,0.2-0.5,0.5-0.5h6c0.3,0,0.5,0.2,0.5,0.5C309.2,170,309,170.2,308.7,170.2z M296.8,170.2h-6
			c-0.3,0-0.5-0.2-0.5-0.5c0-0.3,0.2-0.5,0.5-0.5h6c0.3,0,0.5,0.2,0.5,0.5C297.3,170,297.1,170.2,296.8,170.2z M284.9,170.2h-6
			c-0.3,0-0.5-0.2-0.5-0.5c0-0.3,0.2-0.5,0.5-0.5h6c0.3,0,0.5,0.2,0.5,0.5C285.4,170,285.2,170.2,284.9,170.2z M273,170.2h-6
			c-0.3,0-0.5-0.2-0.5-0.5c0-0.3,0.2-0.5,0.5-0.5h6c0.3,0,0.5,0.2,0.5,0.5C273.5,170,273.2,170.2,273,170.2z M261.1,170.2h-6
			c-0.3,0-0.5-0.2-0.5-0.5c0-0.3,0.2-0.5,0.5-0.5h6c0.3,0,0.5,0.2,0.5,0.5C261.5,170,261.3,170.2,261.1,170.2z M249.1,170.2h-6
			c-0.3,0-0.5-0.2-0.5-0.5c0-0.3,0.2-0.5,0.5-0.5h6c0.3,0,0.5,0.2,0.5,0.5C249.6,170,249.4,170.2,249.1,170.2z M237.2,170.2h-6
			c-0.3,0-0.5-0.2-0.5-0.5c0-0.3,0.2-0.5,0.5-0.5h6c0.3,0,0.5,0.2,0.5,0.5C237.7,170,237.5,170.2,237.2,170.2z M225.3,170.2h-6
			c-0.3,0-0.5-0.2-0.5-0.5c0-0.3,0.2-0.5,0.5-0.5h6c0.3,0,0.5,0.2,0.5,0.5C225.8,170,225.6,170.2,225.3,170.2z M213.4,170.2h-6
			c-0.3,0-0.5-0.2-0.5-0.5c0-0.3,0.2-0.5,0.5-0.5h6c0.3,0,0.5,0.2,0.5,0.5C213.9,170,213.7,170.2,213.4,170.2z M201.5,170.2h-6
			c-0.3,0-0.5-0.2-0.5-0.5c0-0.3,0.2-0.5,0.5-0.5h6c0.3,0,0.5,0.2,0.5,0.5C202,170,201.7,170.2,201.5,170.2z M189.5,170.2h-6
			c-0.3,0-0.5-0.2-0.5-0.5c0-0.3,0.2-0.5,0.5-0.5h6c0.3,0,0.5,0.2,0.5,0.5C190,170,189.8,170.2,189.5,170.2z M177.6,170.2h-6
			c-0.3,0-0.5-0.2-0.5-0.5c0-0.3,0.2-0.5,0.5-0.5h6c0.3,0,0.5,0.2,0.5,0.5C178.1,170,177.9,170.2,177.6,170.2z M165.7,170.2h-6
			c-0.3,0-0.5-0.2-0.5-0.5c0-0.3,0.2-0.5,0.5-0.5h6c0.3,0,0.5,0.2,0.5,0.5C166.2,170,166,170.2,165.7,170.2z M153.8,170.2h-6
			c-0.3,0-0.5-0.2-0.5-0.5c0-0.3,0.2-0.5,0.5-0.5h6c0.3,0,0.5,0.2,0.5,0.5C154.3,170,154.1,170.2,153.8,170.2z M141.9,170.2h-6
			c-0.3,0-0.5-0.2-0.5-0.5c0-0.3,0.2-0.5,0.5-0.5h6c0.3,0,0.5,0.2,0.5,0.5C142.4,170,142.1,170.2,141.9,170.2z M130,170.2h-6
			c-0.3,0-0.5-0.2-0.5-0.5c0-0.3,0.2-0.5,0.5-0.5h6c0.3,0,0.5,0.2,0.5,0.5C130.5,170,130.2,170.2,130,170.2z M118,170.2h-6
			c-0.3,0-0.5-0.2-0.5-0.5c0-0.3,0.2-0.5,0.5-0.5h6c0.3,0,0.5,0.2,0.5,0.5C118.5,170,118.3,170.2,118,170.2z"/>
	</g>
	<path class="st6" d="M392,381.5H134.1c-3.7,0-6.6-3-6.6-6.6V239.5h271.1v135.4C398.6,378.6,395.7,381.5,392,381.5z"/>
	<path class="st7" d="M386.2,375.4H134c-3.6,0-6.5-2.9-6.5-6.5V239.5h265.2v129.4C392.7,372.5,389.8,375.4,386.2,375.4z"/>
	<g>
		<path class="st7" d="M382.9,372.1H137.3c-3.5,0-6.3-2.8-6.3-6.3V239.5h258.2v126.3C389.2,369.3,386.4,372.1,382.9,372.1z"/>
		<path class="st0" d="M358.4,372.6h-6c-0.3,0-0.5-0.2-0.5-0.5c0-0.3,0.2-0.5,0.5-0.5h6c1.5,0,2.9-0.1,4.4-0.3
			c0.3,0,0.5,0.1,0.6,0.4c0,0.3-0.2,0.5-0.4,0.6C361.5,372.5,359.9,372.6,358.4,372.6z M346.5,372.6h-6c-0.3,0-0.5-0.2-0.5-0.5
			c0-0.3,0.2-0.5,0.5-0.5h6c0.3,0,0.5,0.2,0.5,0.5C347,372.4,346.8,372.6,346.5,372.6z M334.6,372.6h-6c-0.3,0-0.5-0.2-0.5-0.5
			c0-0.3,0.2-0.5,0.5-0.5h6c0.3,0,0.5,0.2,0.5,0.5C335.1,372.4,334.9,372.6,334.6,372.6z M322.7,372.6h-6c-0.3,0-0.5-0.2-0.5-0.5
			c0-0.3,0.2-0.5,0.5-0.5h6c0.3,0,0.5,0.2,0.5,0.5C323.2,372.4,322.9,372.6,322.7,372.6z M310.8,372.6h-6c-0.3,0-0.5-0.2-0.5-0.5
			c0-0.3,0.2-0.5,0.5-0.5h6c0.3,0,0.5,0.2,0.5,0.5C311.3,372.4,311,372.6,310.8,372.6z M298.8,372.6h-6c-0.3,0-0.5-0.2-0.5-0.5
			c0-0.3,0.2-0.5,0.5-0.5h6c0.3,0,0.5,0.2,0.5,0.5C299.3,372.4,299.1,372.6,298.8,372.6z M286.9,372.6h-6c-0.3,0-0.5-0.2-0.5-0.5
			c0-0.3,0.2-0.5,0.5-0.5h6c0.3,0,0.5,0.2,0.5,0.5C287.4,372.4,287.2,372.6,286.9,372.6z M275,372.6h-6c-0.3,0-0.5-0.2-0.5-0.5
			c0-0.3,0.2-0.5,0.5-0.5h6c0.3,0,0.5,0.2,0.5,0.5C275.5,372.4,275.3,372.6,275,372.6z M263.1,372.6h-6c-0.3,0-0.5-0.2-0.5-0.5
			c0-0.3,0.2-0.5,0.5-0.5h6c0.3,0,0.5,0.2,0.5,0.5C263.6,372.4,263.4,372.6,263.1,372.6z M251.2,372.6h-6c-0.3,0-0.5-0.2-0.5-0.5
			c0-0.3,0.2-0.5,0.5-0.5h6c0.3,0,0.5,0.2,0.5,0.5C251.7,372.4,251.4,372.6,251.2,372.6z M239.2,372.6h-6c-0.3,0-0.5-0.2-0.5-0.5
			c0-0.3,0.2-0.5,0.5-0.5h6c0.3,0,0.5,0.2,0.5,0.5C239.7,372.4,239.5,372.6,239.2,372.6z M227.3,372.6h-6c-0.3,0-0.5-0.2-0.5-0.5
			c0-0.3,0.2-0.5,0.5-0.5h6c0.3,0,0.5,0.2,0.5,0.5C227.8,372.4,227.6,372.6,227.3,372.6z M215.4,372.6h-6c-0.3,0-0.5-0.2-0.5-0.5
			c0-0.3,0.2-0.5,0.5-0.5h6c0.3,0,0.5,0.2,0.5,0.5C215.9,372.4,215.7,372.6,215.4,372.6z M203.5,372.6h-6c-0.3,0-0.5-0.2-0.5-0.5
			c0-0.3,0.2-0.5,0.5-0.5h6c0.3,0,0.5,0.2,0.5,0.5C204,372.4,203.8,372.6,203.5,372.6z M191.6,372.6h-6c-0.3,0-0.5-0.2-0.5-0.5
			c0-0.3,0.2-0.5,0.5-0.5h6c0.3,0,0.5,0.2,0.5,0.5C192.1,372.4,191.8,372.6,191.6,372.6z M179.7,372.6h-6c-0.3,0-0.5-0.2-0.5-0.5
			c0-0.3,0.2-0.5,0.5-0.5h6c0.3,0,0.5,0.2,0.5,0.5C180.2,372.4,179.9,372.6,179.7,372.6z M167.7,372.6h-6c-0.3,0-0.5-0.2-0.5-0.5
			c0-0.3,0.2-0.5,0.5-0.5h6c0.3,0,0.5,0.2,0.5,0.5C168.2,372.4,168,372.6,167.7,372.6z M155.9,372C155.8,372,155.8,372,155.9,372
			c-2.1-0.4-4-1-5.9-1.7c-0.3-0.1-0.4-0.4-0.3-0.6c0.1-0.3,0.4-0.4,0.6-0.3c1.8,0.7,3.7,1.3,5.6,1.7c0.3,0.1,0.4,0.3,0.4,0.6
			C156.3,371.9,156.1,372,155.9,372z M368.6,370.9c-0.2,0-0.4-0.1-0.5-0.3c-0.1-0.3,0-0.5,0.3-0.6c1.8-0.6,3.6-1.5,5.3-2.5
			c0.2-0.1,0.5-0.1,0.7,0.2c0.1,0.2,0.1,0.5-0.2,0.7c-1.7,1-3.6,1.9-5.5,2.5C368.8,370.9,368.7,370.9,368.6,370.9z M144.9,367.6
			c-0.1,0-0.2,0-0.3-0.1c-1.7-1.1-3.3-2.4-4.7-3.8c-0.2-0.2-0.2-0.5,0-0.7c0.2-0.2,0.5-0.2,0.7,0c1.4,1.4,2.9,2.6,4.6,3.7
			c0.2,0.2,0.3,0.5,0.1,0.7C145.2,367.5,145.1,367.6,144.9,367.6z M378.8,364.9c-0.1,0-0.3-0.1-0.4-0.2c-0.2-0.2-0.2-0.5,0-0.7
			c1.5-1.3,2.8-2.7,4-4.3c0.2-0.2,0.5-0.3,0.7-0.1c0.2,0.2,0.3,0.5,0.1,0.7c-1.2,1.6-2.6,3.1-4.1,4.4
			C379.1,364.8,379,364.9,378.8,364.9z M136.4,359.3c-0.2,0-0.3-0.1-0.4-0.2c-1.1-1.7-2.1-3.4-2.9-5.3c-0.1-0.3,0-0.5,0.3-0.7
			c0.3-0.1,0.5,0,0.7,0.3c0.8,1.8,1.7,3.5,2.8,5.1c0.2,0.2,0.1,0.5-0.1,0.7C136.6,359.3,136.5,359.3,136.4,359.3z M386,355.5
			c-0.1,0-0.2,0-0.2-0.1c-0.2-0.1-0.3-0.4-0.2-0.7c0.9-1.8,1.6-3.6,2.1-5.5c0.1-0.3,0.3-0.4,0.6-0.4c0.3,0.1,0.4,0.3,0.4,0.6
			c-0.5,1.9-1.2,3.8-2.1,5.7C386.4,355.4,386.2,355.5,386,355.5z M131.7,348.4c-0.2,0-0.4-0.2-0.5-0.4c-0.4-2-0.7-4-0.7-6
			c0-0.3,0.2-0.5,0.5-0.5c0.3,0,0.5,0.2,0.5,0.5c0,2,0.3,3.9,0.7,5.8c0.1,0.3-0.1,0.5-0.4,0.6C131.8,348.4,131.7,348.4,131.7,348.4z
			 M389.1,344C389.1,344,389.1,344,389.1,344c-0.3,0-0.5-0.3-0.5-0.5c0-0.7,0.1-1.4,0.1-2.2v-3.7c0-0.3,0.2-0.5,0.5-0.5
			c0.3,0,0.5,0.2,0.5,0.5v3.7c0,0.7,0,1.5-0.1,2.2C389.6,343.8,389.4,344,389.1,344z M131,336.6c-0.3,0-0.5-0.2-0.5-0.5v-6
			c0-0.3,0.2-0.5,0.5-0.5c0.3,0,0.5,0.2,0.5,0.5v6C131.5,336.3,131.3,336.6,131,336.6z M389.2,332.1c-0.3,0-0.5-0.2-0.5-0.5v-6
			c0-0.3,0.2-0.5,0.5-0.5c0.3,0,0.5,0.2,0.5,0.5v6C389.7,331.9,389.5,332.1,389.2,332.1z M131,324.7c-0.3,0-0.5-0.2-0.5-0.5v-6
			c0-0.3,0.2-0.5,0.5-0.5c0.3,0,0.5,0.2,0.5,0.5v6C131.5,324.4,131.3,324.7,131,324.7z M389.2,320.2c-0.3,0-0.5-0.2-0.5-0.5v-6
			c0-0.3,0.2-0.5,0.5-0.5c0.3,0,0.5,0.2,0.5,0.5v6C389.7,320,389.5,320.2,389.2,320.2z M131,312.7c-0.3,0-0.5-0.2-0.5-0.5v-6
			c0-0.3,0.2-0.5,0.5-0.5c0.3,0,0.5,0.2,0.5,0.5v6C131.5,312.5,131.3,312.7,131,312.7z M389.2,308.3c-0.3,0-0.5-0.2-0.5-0.5v-6
			c0-0.3,0.2-0.5,0.5-0.5c0.3,0,0.5,0.2,0.5,0.5v6C389.7,308.1,389.5,308.3,389.2,308.3z M131,300.8c-0.3,0-0.5-0.2-0.5-0.5v-6
			c0-0.3,0.2-0.5,0.5-0.5c0.3,0,0.5,0.2,0.5,0.5v6C131.5,300.6,131.3,300.8,131,300.8z M389.2,296.4c-0.3,0-0.5-0.2-0.5-0.5v-6
			c0-0.3,0.2-0.5,0.5-0.5c0.3,0,0.5,0.2,0.5,0.5v6C389.7,296.1,389.5,296.4,389.2,296.4z M131,288.9c-0.3,0-0.5-0.2-0.5-0.5v-6
			c0-0.3,0.2-0.5,0.5-0.5c0.3,0,0.5,0.2,0.5,0.5v6C131.5,288.7,131.3,288.9,131,288.9z M389.2,284.4c-0.3,0-0.5-0.2-0.5-0.5v-6
			c0-0.3,0.2-0.5,0.5-0.5c0.3,0,0.5,0.2,0.5,0.5v6C389.7,284.2,389.5,284.4,389.2,284.4z M131,277c-0.3,0-0.5-0.2-0.5-0.5v-6
			c0-0.3,0.2-0.5,0.5-0.5c0.3,0,0.5,0.2,0.5,0.5v6C131.5,276.8,131.3,277,131,277z M389.2,272.5c-0.3,0-0.5-0.2-0.5-0.5v-6
			c0-0.3,0.2-0.5,0.5-0.5c0.3,0,0.5,0.2,0.5,0.5v6C389.7,272.3,389.5,272.5,389.2,272.5z M131,265.1c-0.3,0-0.5-0.2-0.5-0.5v-6
			c0-0.3,0.2-0.5,0.5-0.5c0.3,0,0.5,0.2,0.5,0.5v6C131.5,264.8,131.3,265.1,131,265.1z M389.2,260.6c-0.3,0-0.5-0.2-0.5-0.5v-6
			c0-0.3,0.2-0.5,0.5-0.5c0.3,0,0.5,0.2,0.5,0.5v6C389.7,260.4,389.5,260.6,389.2,260.6z M131,253.1c-0.3,0-0.5-0.2-0.5-0.5v-6
			c0-0.3,0.2-0.5,0.5-0.5c0.3,0,0.5,0.2,0.5,0.5v6C131.5,252.9,131.3,253.1,131,253.1z M389.2,248.7c-0.3,0-0.5-0.2-0.5-0.5v-6
			c0-0.3,0.2-0.5,0.5-0.5c0.3,0,0.5,0.2,0.5,0.5v6C389.7,248.5,389.5,248.7,389.2,248.7z M131,241.2c-0.3,0-0.5-0.2-0.5-0.5V239h5.2
			c0.3,0,0.5,0.2,0.5,0.5c0,0.3-0.2,0.5-0.5,0.5h-4.2v0.7C131.5,241,131.3,241.2,131,241.2z M386,240h-6c-0.3,0-0.5-0.2-0.5-0.5
			c0-0.3,0.2-0.5,0.5-0.5h6c0.3,0,0.5,0.2,0.5,0.5C386.5,239.8,386.3,240,386,240z M374.1,240h-6c-0.3,0-0.5-0.2-0.5-0.5
			c0-0.3,0.2-0.5,0.5-0.5h6c0.3,0,0.5,0.2,0.5,0.5C374.6,239.8,374.3,240,374.1,240z M362.2,240h-6c-0.3,0-0.5-0.2-0.5-0.5
			c0-0.3,0.2-0.5,0.5-0.5h6c0.3,0,0.5,0.2,0.5,0.5C362.7,239.8,362.4,240,362.2,240z M350.2,240h-6c-0.3,0-0.5-0.2-0.5-0.5
			c0-0.3,0.2-0.5,0.5-0.5h6c0.3,0,0.5,0.2,0.5,0.5C350.7,239.8,350.5,240,350.2,240z M338.3,240h-6c-0.3,0-0.5-0.2-0.5-0.5
			c0-0.3,0.2-0.5,0.5-0.5h6c0.3,0,0.5,0.2,0.5,0.5C338.8,239.8,338.6,240,338.3,240z M326.4,240h-6c-0.3,0-0.5-0.2-0.5-0.5
			c0-0.3,0.2-0.5,0.5-0.5h6c0.3,0,0.5,0.2,0.5,0.5C326.9,239.8,326.7,240,326.4,240z M314.5,240h-6c-0.3,0-0.5-0.2-0.5-0.5
			c0-0.3,0.2-0.5,0.5-0.5h6c0.3,0,0.5,0.2,0.5,0.5C315,239.8,314.8,240,314.5,240z M302.6,240h-6c-0.3,0-0.5-0.2-0.5-0.5
			c0-0.3,0.2-0.5,0.5-0.5h6c0.3,0,0.5,0.2,0.5,0.5C303.1,239.8,302.8,240,302.6,240z M290.6,240h-6c-0.3,0-0.5-0.2-0.5-0.5
			c0-0.3,0.2-0.5,0.5-0.5h6c0.3,0,0.5,0.2,0.5,0.5C291.1,239.8,290.9,240,290.6,240z M278.7,240h-6c-0.3,0-0.5-0.2-0.5-0.5
			c0-0.3,0.2-0.5,0.5-0.5h6c0.3,0,0.5,0.2,0.5,0.5C279.2,239.8,279,240,278.7,240z M266.8,240h-6c-0.3,0-0.5-0.2-0.5-0.5
			c0-0.3,0.2-0.5,0.5-0.5h6c0.3,0,0.5,0.2,0.5,0.5C267.3,239.8,267.1,240,266.8,240z M254.9,240h-6c-0.3,0-0.5-0.2-0.5-0.5
			c0-0.3,0.2-0.5,0.5-0.5h6c0.3,0,0.5,0.2,0.5,0.5C255.4,239.8,255.2,240,254.9,240z M243,240h-6c-0.3,0-0.5-0.2-0.5-0.5
			c0-0.3,0.2-0.5,0.5-0.5h6c0.3,0,0.5,0.2,0.5,0.5C243.5,239.8,243.3,240,243,240z M231.1,240h-6c-0.3,0-0.5-0.2-0.5-0.5
			c0-0.3,0.2-0.5,0.5-0.5h6c0.3,0,0.5,0.2,0.5,0.5C231.6,239.8,231.3,240,231.1,240z M219.1,240h-6c-0.3,0-0.5-0.2-0.5-0.5
			c0-0.3,0.2-0.5,0.5-0.5h6c0.3,0,0.5,0.2,0.5,0.5C219.6,239.8,219.4,240,219.1,240z M207.2,240h-6c-0.3,0-0.5-0.2-0.5-0.5
			c0-0.3,0.2-0.5,0.5-0.5h6c0.3,0,0.5,0.2,0.5,0.5C207.7,239.8,207.5,240,207.2,240z M195.3,240h-6c-0.3,0-0.5-0.2-0.5-0.5
			c0-0.3,0.2-0.5,0.5-0.5h6c0.3,0,0.5,0.2,0.5,0.5C195.8,239.8,195.6,240,195.3,240z M183.4,240h-6c-0.3,0-0.5-0.2-0.5-0.5
			c0-0.3,0.2-0.5,0.5-0.5h6c0.3,0,0.5,0.2,0.5,0.5C183.9,239.8,183.7,240,183.4,240z M171.5,240h-6c-0.3,0-0.5-0.2-0.5-0.5
			c0-0.3,0.2-0.5,0.5-0.5h6c0.3,0,0.5,0.2,0.5,0.5C172,239.8,171.7,240,171.5,240z M159.6,240h-6c-0.3,0-0.5-0.2-0.5-0.5
			c0-0.3,0.2-0.5,0.5-0.5h6c0.3,0,0.5,0.2,0.5,0.5C160.1,239.8,159.8,240,159.6,240z M147.6,240h-6c-0.3,0-0.5-0.2-0.5-0.5
			c0-0.3,0.2-0.5,0.5-0.5h6c0.3,0,0.5,0.2,0.5,0.5C148.1,239.8,147.9,240,147.6,240z"/>
	</g>
	<path class="st6" d="M425.8,169.7v144.1c-1.1,0.2-2.2,0.3-3.3,0.3H105.7c-3.5,0-6.7-0.9-9.4-2.4V169.7H425.8z"/>
	<path class="st8" d="M425.8,169.7v210.2c0,9-8.1,16.4-18.1,16.4H114.3c-10,0-18.1-7.3-18.1-16.4V370c29.9,0.9,92.7,0.3,153-16.3
		c58.3-16.1,92.8-122.4,108.2-184H425.8z"/>
	<path class="st9" d="M418.8,302.4H101.9c-10.2,0-18.4-7.6-18.1-16.9l4.5-145.9h344.1l4.5,145.9C437.1,294.8,429,302.4,418.8,302.4z
		"/>
	<path class="st9" d="M418.8,302.4H101.9c-10.2,0-18.4-7.6-18.1-16.9l4.5-145.9h344.1l4.5,145.9C437.1,294.8,429,302.4,418.8,302.4z
		"/>
	<path class="st5" d="M418.8,302.4H101.9c-10.2,0-18.4-7.6-18.1-16.9l4.5-145.9h344.1l4.5,145.9C437.1,294.8,429,302.4,418.8,302.4z
		"/>
	<path class="st10" d="M391.1,280.8H119.9c-8.7,0-15.7-6.6-15.5-14.6l3.8-126.6h294.5l3.8,126.6
		C406.8,274.2,399.8,280.8,391.1,280.8z"/>
	<path class="st11" d="M402.8,139.6c0,0-6.6,33.9-29,46.8c-22.3,12.9-61.6,33.3-104.8,17.9c-43.2-15.4-60.1-2-100-15.4
		c-39.9-13.4-60.8-49.3-60.8-49.3H402.8z"/>
	<path class="st0" d="M92.6,144c-0.3,0-0.5,0.2-0.5,0.5l-0.2,6c0,0.3,0.2,0.5,0.5,0.5h0c0.3,0,0.5-0.2,0.5-0.5l0.2-6
		C93.1,144.2,92.9,144,92.6,144z M427.2,149.2c0-0.3-0.2-0.5-0.5-0.5c-0.3,0-0.5,0.2-0.5,0.5l0.2,6c0,0.3,0.2,0.5,0.5,0.5h0
		c0.3,0,0.5-0.2,0.5-0.5L427.2,149.2z M92.3,155.9c-0.3,0-0.5,0.2-0.5,0.5l-0.2,6c0,0.3,0.2,0.5,0.5,0.5h0c0.3,0,0.5-0.2,0.5-0.5
		l0.2-6C92.8,156.2,92.5,155.9,92.3,155.9z M427.6,161.2c0-0.3-0.2-0.5-0.5-0.5c-0.3,0-0.5,0.2-0.5,0.5l0.2,6c0,0.3,0.2,0.5,0.5,0.5
		h0c0.3,0,0.5-0.2,0.5-0.5L427.6,161.2z M91.9,167.8c-0.3,0-0.5,0.2-0.5,0.5l-0.2,6c0,0.3,0.2,0.5,0.5,0.5h0c0.3,0,0.5-0.2,0.5-0.5
		l0.2-6C92.4,168.1,92.2,167.8,91.9,167.8z M427.9,173.1c0-0.3-0.2-0.5-0.5-0.5h0c-0.3,0-0.5,0.2-0.5,0.5l0.2,6
		c0,0.3,0.2,0.5,0.5,0.5h0c0.3,0,0.5-0.2,0.5-0.5L427.9,173.1z M91.6,179.7c-0.3,0-0.5,0.2-0.5,0.5l-0.2,6c0,0.3,0.2,0.5,0.5,0.5h0
		c0.3,0,0.5-0.2,0.5-0.5l0.2-6C92.1,180,91.9,179.8,91.6,179.7z M428.2,185c0-0.3-0.2-0.5-0.5-0.5c-0.3,0-0.5,0.2-0.5,0.5l0.2,6
		c0,0.3,0.2,0.5,0.5,0.5h0c0.3,0,0.5-0.2,0.5-0.5L428.2,185z M91.3,191.7c-0.3,0-0.5,0.2-0.5,0.5l-0.2,6c0,0.3,0.2,0.5,0.5,0.5h0
		c0.3,0,0.5-0.2,0.5-0.5l0.2-6C91.8,191.9,91.6,191.7,91.3,191.7z M428.6,196.9c0-0.3-0.2-0.5-0.5-0.5c-0.3,0-0.5,0.2-0.5,0.5l0.2,6
		c0,0.3,0.2,0.5,0.5,0.5h0c0.3,0,0.5-0.2,0.5-0.5L428.6,196.9z M90.9,203.6c-0.3,0-0.5,0.2-0.5,0.5l-0.2,6c0,0.3,0.2,0.5,0.5,0.5h0
		c0.3,0,0.5-0.2,0.5-0.5l0.2-6C91.4,203.8,91.2,203.6,90.9,203.6z M428.9,208.8c0-0.3-0.2-0.5-0.5-0.5c-0.3,0-0.5,0.2-0.5,0.5l0.2,6
		c0,0.3,0.2,0.5,0.5,0.5h0c0.3,0,0.5-0.2,0.5-0.5L428.9,208.8z M90.6,215.5c-0.3,0-0.5,0.2-0.5,0.5l-0.2,6c0,0.3,0.2,0.5,0.5,0.5h0
		c0.3,0,0.5-0.2,0.5-0.5l0.2-6C91.1,215.7,90.9,215.5,90.6,215.5z M429.2,220.7c0-0.3-0.2-0.5-0.5-0.5c-0.3,0-0.5,0.2-0.5,0.5l0.2,6
		c0,0.3,0.2,0.5,0.5,0.5h0c0.3,0,0.5-0.2,0.5-0.5L429.2,220.7z M90.3,227.4c-0.3,0-0.5,0.2-0.5,0.5l-0.2,6c0,0.3,0.2,0.5,0.5,0.5h0
		c0.3,0,0.5-0.2,0.5-0.5l0.2-6C90.8,227.6,90.6,227.4,90.3,227.4z M429.6,232.6c0-0.3-0.2-0.5-0.5-0.5c-0.3,0-0.5,0.2-0.5,0.5l0.2,6
		c0,0.3,0.2,0.5,0.5,0.5h0c0.3,0,0.5-0.2,0.5-0.5L429.6,232.6z M90,239.3c-0.3,0-0.5,0.2-0.5,0.5l-0.2,6c0,0.3,0.2,0.5,0.5,0.5h0
		c0.3,0,0.5-0.2,0.5-0.5l0.2-6C90.4,239.5,90.2,239.3,90,239.3z M429.9,244.5c0-0.3-0.2-0.5-0.5-0.5c-0.3,0-0.5,0.2-0.5,0.5l0.2,6
		c0,0.3,0.2,0.5,0.5,0.5h0c0.3,0,0.5-0.2,0.5-0.5L429.9,244.5z M89.6,251.2c-0.3,0-0.5,0.2-0.5,0.5l-0.2,6c0,0.3,0.2,0.5,0.5,0.5h0
		c0.3,0,0.5-0.2,0.5-0.5l0.2-6C90.1,251.5,89.9,251.2,89.6,251.2z M430.2,256.5c0-0.3-0.2-0.5-0.5-0.5c-0.3,0-0.5,0.2-0.5,0.5l0.2,6
		c0,0.3,0.2,0.5,0.5,0.5h0c0.3,0,0.5-0.2,0.5-0.5L430.2,256.5z M89.3,263.1c-0.3,0-0.5,0.2-0.5,0.5l-0.2,6c0,0.3,0.2,0.5,0.5,0.5h0
		c0.3,0,0.5-0.2,0.5-0.5l0.2-6C89.8,263.4,89.6,263.1,89.3,263.1z M430.6,268.4c0-0.3-0.2-0.5-0.5-0.5c-0.3,0-0.5,0.2-0.5,0.5l0.2,6
		c0,0.3,0.2,0.5,0.5,0.5h0c0.3,0,0.5-0.2,0.5-0.5L430.6,268.4z M89.4,275.6c0-0.3-0.2-0.5-0.5-0.5c-0.3,0-0.5,0.2-0.5,0.5l-0.1,5.1
		c0,0.2,0,0.3,0,0.5c0,0.1,0,0.2,0,0.3c0,0.3,0.2,0.5,0.5,0.5h0c0.3,0,0.5-0.2,0.5-0.5c0-0.1,0-0.2,0-0.3c0-0.2,0-0.3,0-0.5
		L89.4,275.6z M430.9,280.7l0-0.4c0-0.3-0.2-0.5-0.5-0.5c-0.3,0-0.5,0.2-0.5,0.5l0,0.4c0,0.2,0,0.3,0,0.5c0,1.7-0.2,3.3-0.7,4.9
		c-0.1,0.3,0.1,0.5,0.3,0.6c0,0,0.1,0,0.1,0c0.2,0,0.4-0.1,0.5-0.4c0.5-1.7,0.8-3.4,0.8-5.2C430.9,281,430.9,280.8,430.9,280.7z
		 M93.3,292.1c-1.3-1.5-2.2-3.1-2.9-5c-0.1-0.3-0.4-0.4-0.6-0.3c-0.3,0.1-0.4,0.4-0.3,0.6c0.7,1.9,1.8,3.7,3.1,5.2
		c0.1,0.1,0.2,0.2,0.4,0.2c0.1,0,0.2,0,0.3-0.1C93.5,292.6,93.5,292.3,93.3,292.1z M427.3,291.1c-0.2-0.2-0.5-0.1-0.7,0.1
		c-1.2,1.6-2.6,2.9-4.2,4c-0.2,0.2-0.3,0.5-0.1,0.7c0.1,0.1,0.3,0.2,0.4,0.2c0.1,0,0.2,0,0.3-0.1c1.7-1.2,3.2-2.6,4.4-4.2
		C427.6,291.6,427.5,291.2,427.3,291.1z M103.1,297.8c-1.9-0.4-3.7-1-5.4-2c-0.2-0.1-0.5-0.1-0.7,0.2c-0.1,0.2-0.1,0.5,0.2,0.7
		c1.8,1,3.7,1.7,5.7,2.1c0,0,0.1,0,0.1,0c0.2,0,0.4-0.2,0.5-0.4C103.6,298.1,103.4,297.9,103.1,297.8z M115,298.1h-6
		c-0.3,0-0.5,0.2-0.5,0.5c0,0.3,0.2,0.5,0.5,0.5h6c0.3,0,0.5-0.2,0.5-0.5C115.4,298.3,115.2,298.1,115,298.1z M126.9,298.1h-6
		c-0.3,0-0.5,0.2-0.5,0.5c0,0.3,0.2,0.5,0.5,0.5h6c0.3,0,0.5-0.2,0.5-0.5C127.4,298.3,127.1,298.1,126.9,298.1z M138.8,298.1h-6
		c-0.3,0-0.5,0.2-0.5,0.5c0,0.3,0.2,0.5,0.5,0.5h6c0.3,0,0.5-0.2,0.5-0.5C139.3,298.3,139.1,298.1,138.8,298.1z M150.7,298.1h-6
		c-0.3,0-0.5,0.2-0.5,0.5c0,0.3,0.2,0.5,0.5,0.5h6c0.3,0,0.5-0.2,0.5-0.5C151.2,298.3,151,298.1,150.7,298.1z M162.6,298.1h-6
		c-0.3,0-0.5,0.2-0.5,0.5c0,0.3,0.2,0.5,0.5,0.5h6c0.3,0,0.5-0.2,0.5-0.5C163.1,298.3,162.9,298.1,162.6,298.1z M174.5,298.1h-6
		c-0.3,0-0.5,0.2-0.5,0.5c0,0.3,0.2,0.5,0.5,0.5h6c0.3,0,0.5-0.2,0.5-0.5C175,298.3,174.8,298.1,174.5,298.1z M186.5,298.1h-6
		c-0.3,0-0.5,0.2-0.5,0.5c0,0.3,0.2,0.5,0.5,0.5h6c0.3,0,0.5-0.2,0.5-0.5C187,298.3,186.7,298.1,186.5,298.1z M198.4,298.1h-6
		c-0.3,0-0.5,0.2-0.5,0.5c0,0.3,0.2,0.5,0.5,0.5h6c0.3,0,0.5-0.2,0.5-0.5C198.9,298.3,198.6,298.1,198.4,298.1z M210.3,298.1h-6
		c-0.3,0-0.5,0.2-0.5,0.5c0,0.3,0.2,0.5,0.5,0.5h6c0.3,0,0.5-0.2,0.5-0.5C210.8,298.3,210.6,298.1,210.3,298.1z M222.2,298.1h-6
		c-0.3,0-0.5,0.2-0.5,0.5c0,0.3,0.2,0.5,0.5,0.5h6c0.3,0,0.5-0.2,0.5-0.5C222.7,298.3,222.5,298.1,222.2,298.1z M234.1,298.1h-6
		c-0.3,0-0.5,0.2-0.5,0.5c0,0.3,0.2,0.5,0.5,0.5h6c0.3,0,0.5-0.2,0.5-0.5C234.6,298.3,234.4,298.1,234.1,298.1z M246,298.1h-6
		c-0.3,0-0.5,0.2-0.5,0.5c0,0.3,0.2,0.5,0.5,0.5h6c0.3,0,0.5-0.2,0.5-0.5C246.5,298.3,246.3,298.1,246,298.1z M258,298.1h-6
		c-0.3,0-0.5,0.2-0.5,0.5c0,0.3,0.2,0.5,0.5,0.5h6c0.3,0,0.5-0.2,0.5-0.5C258.5,298.3,258.2,298.1,258,298.1z M269.9,298.1h-6
		c-0.3,0-0.5,0.2-0.5,0.5c0,0.3,0.2,0.5,0.5,0.5h6c0.3,0,0.5-0.2,0.5-0.5C270.4,298.3,270.2,298.1,269.9,298.1z M281.8,298.1h-6
		c-0.3,0-0.5,0.2-0.5,0.5c0,0.3,0.2,0.5,0.5,0.5h6c0.3,0,0.5-0.2,0.5-0.5C282.3,298.3,282.1,298.1,281.8,298.1z M293.7,298.1h-6
		c-0.3,0-0.5,0.2-0.5,0.5c0,0.3,0.2,0.5,0.5,0.5h6c0.3,0,0.5-0.2,0.5-0.5C294.2,298.3,294,298.1,293.7,298.1z M305.6,298.1h-6
		c-0.3,0-0.5,0.2-0.5,0.5c0,0.3,0.2,0.5,0.5,0.5h6c0.3,0,0.5-0.2,0.5-0.5C306.1,298.3,305.9,298.1,305.6,298.1z M317.6,298.1h-6
		c-0.3,0-0.5,0.2-0.5,0.5c0,0.3,0.2,0.5,0.5,0.5h6c0.3,0,0.5-0.2,0.5-0.5C318,298.3,317.8,298.1,317.6,298.1z M329.5,298.1h-6
		c-0.3,0-0.5,0.2-0.5,0.5c0,0.3,0.2,0.5,0.5,0.5h6c0.3,0,0.5-0.2,0.5-0.5C330,298.3,329.7,298.1,329.5,298.1z M341.4,298.1h-6
		c-0.3,0-0.5,0.2-0.5,0.5c0,0.3,0.2,0.5,0.5,0.5h6c0.3,0,0.5-0.2,0.5-0.5C341.9,298.3,341.7,298.1,341.4,298.1z M353.3,298.1h-6
		c-0.3,0-0.5,0.2-0.5,0.5c0,0.3,0.2,0.5,0.5,0.5h6c0.3,0,0.5-0.2,0.5-0.5C353.8,298.3,353.6,298.1,353.3,298.1z M365.2,298.1h-6
		c-0.3,0-0.5,0.2-0.5,0.5c0,0.3,0.2,0.5,0.5,0.5h6c0.3,0,0.5-0.2,0.5-0.5C365.7,298.3,365.5,298.1,365.2,298.1z M377.1,298.1h-6
		c-0.3,0-0.5,0.2-0.5,0.5c0,0.3,0.2,0.5,0.5,0.5h6c0.3,0,0.5-0.2,0.5-0.5C377.6,298.3,377.4,298.1,377.1,298.1z M389.1,298.1h-6
		c-0.3,0-0.5,0.2-0.5,0.5c0,0.3,0.2,0.5,0.5,0.5h6c0.3,0,0.5-0.2,0.5-0.5C389.6,298.3,389.3,298.1,389.1,298.1z M401,298.1h-6
		c-0.3,0-0.5,0.2-0.5,0.5c0,0.3,0.2,0.5,0.5,0.5h6c0.3,0,0.5-0.2,0.5-0.5C401.5,298.3,401.3,298.1,401,298.1z M417.8,297.9
		c-0.1-0.3-0.3-0.4-0.6-0.4c-1.4,0.4-2.9,0.5-4.3,0.5h-6c-0.3,0-0.5,0.2-0.5,0.5c0,0.3,0.2,0.5,0.5,0.5h6c1.5,0,3.1-0.2,4.6-0.6
		C417.7,298.4,417.9,298.2,417.8,297.9z"/>
	<rect x="149.1" y="326.9" class="st9" width="31" height="7.2"/>
	<g>
		<path class="st9" d="M188.6,337.6c0,16.6-10.1,30.1-22.6,30.1c-12.5,0-22.6-13.5-22.6-30.1c0-16.6,10.1-30.1,22.6-30.1
			C178.5,307.4,188.6,320.9,188.6,337.6z"/>
		<path class="st0" d="M165.9,363.9c-2,0-4.1-0.4-6-1.2l0.4-0.9c1.8,0.8,3.7,1.2,5.6,1.2L165.9,363.9z M171.9,362.7l-0.4-0.9
			c1.7-0.7,3.4-1.8,4.9-3.1l0.7,0.7C175.5,360.9,173.8,362,171.9,362.7z M154.8,359.4c-1.5-1.3-2.8-2.9-3.9-4.6l0.8-0.5
			c1.1,1.7,2.4,3.2,3.7,4.4L154.8,359.4z M181,354.8l-0.8-0.5c1-1.6,1.9-3.3,2.6-5.2l0.9,0.4C183,351.4,182.1,353.2,181,354.8z
			 M148.2,349.3c-0.7-1.9-1.2-3.8-1.6-5.8l1-0.2c0.3,2,0.9,3.9,1.5,5.7L148.2,349.3z M185.3,343.6l-1-0.2c0.3-1.9,0.5-3.9,0.5-5.8h1
			C185.9,339.6,185.7,341.6,185.3,343.6z M147.1,337.5l-1,0c0-2,0.2-4.1,0.5-6l1,0.2C147.3,333.5,147.1,335.5,147.1,337.5z
			 M184.4,331.9c-0.3-2-0.8-3.9-1.5-5.7l0.9-0.3c0.7,1.9,1.2,3.8,1.6,5.8L184.4,331.9z M149.2,326l-0.9-0.4c0.7-1.9,1.7-3.7,2.8-5.4
			l0.8,0.5C150.8,322.4,149.9,324.1,149.2,326z M180.3,321c-1.1-1.7-2.3-3.2-3.7-4.5l0.7-0.7c1.4,1.3,2.8,2.9,3.9,4.7L180.3,321z
			 M155.7,316.4l-0.7-0.7c1.6-1.4,3.3-2.5,5.2-3.2l0.4,0.9C158.8,314,157.2,315,155.7,316.4z M171.8,313.4c-1.8-0.8-3.7-1.2-5.6-1.2
			l0-1c2,0,4.1,0.5,6,1.3L171.8,313.4z"/>
		<path class="st0" d="M165.6,193.2c0,0-25.9,22.8-25.9,51.5c0,9.8,7.6,19.5,9.3,27.3c1.6,7.2,2.8,14.5,3.4,21.8
			c0.4,4.9,0.7,9.7,0.7,14.6v36.1l12.4,16l12.4-15.6v-36.4c0-4.9,0.2-9.8,0.7-14.6c0.7-7.3,1.8-14.6,3.4-21.8
			c1.8-7.8,7.4-17.5,7.4-27.3C189.5,216,165.6,193.2,165.6,193.2z"/>
		<path class="st12" d="M165.5,356.3l-1-1.3l0.8-0.6l0.2,0.3l2.7-3.4l0.8,0.6L165.5,356.3z M160.8,350.3l-3.7-4.7l0.8-0.6l3.7,4.7
			L160.8,350.3z M172.7,347.3l-0.8-0.6l3.7-4.6l0.4,0.3l0.5,0v0.2l-0.1,0.2L172.7,347.3z M155.4,340.3h-1v-6h1V340.3z M176.6,336.3
			h-1v-6h1V336.3z M155.4,328.4h-1v-6h1V328.4z M176.6,324.4h-1v-6h1V324.4z M155.4,316.5h-1v-6h1V316.5z M176.6,312.5h-1v-6l1,0
			L176.6,312.5z M154.4,304.6c0-2-0.1-4-0.2-5.9l1,0c0.1,2,0.2,4,0.2,6L154.4,304.6z M176.7,300.6l-1,0c0.1-2,0.2-4,0.3-6l1,0.1
			C176.9,296.7,176.8,298.7,176.7,300.6z M153.8,292.7c-0.2-2-0.4-4-0.6-5.9l1-0.1c0.2,2,0.4,4,0.6,5.9L153.8,292.7z M177.5,288.8
			l-1-0.1c0.2-2,0.5-4,0.7-5.9l1,0.1C178,284.8,177.8,286.8,177.5,288.8z M152.4,280.9c-0.3-1.9-0.6-3.9-1-5.9l1-0.2
			c0.4,2,0.7,3.9,1,5.9L152.4,280.9z M179.2,277l-1-0.2c0.3-1.6,0.6-3.1,0.9-4.7c0.1-0.4,0.2-0.8,0.3-1.2l1,0.2
			c-0.1,0.4-0.2,0.8-0.2,1.1C179.7,273.9,179.4,275.4,179.2,277z M150.1,269.3c-0.6-1.8-1.4-3.8-2.1-5.5l0.9-0.4
			c0.7,1.7,1.5,3.7,2.2,5.6L150.1,269.3z M181.9,265.5l-0.9-0.3c0.2-0.6,0.4-1.2,0.6-1.9c0.4-1.2,0.8-2.5,1.2-3.8l0.9,0.3
			c-0.4,1.3-0.8,2.6-1.2,3.8C182.4,264.2,182.1,264.9,181.9,265.5z M145.7,258.2c-0.8-2.2-1.4-4-1.9-5.7l1-0.2
			c0.4,1.7,1,3.5,1.8,5.6L145.7,258.2z M185.4,254l-1-0.2c0.5-2.1,0.8-4,0.9-5.8l1,0.1C186.2,249.9,185.9,251.9,185.4,254z
			 M142.9,246.5c0-0.2,0-0.4,0-0.6c0-1.8,0.1-3.6,0.3-5.4l1,0.1c-0.2,1.8-0.3,3.6-0.3,5.3c0,0.2,0,0.4,0,0.6L142.9,246.5z
			 M185.2,242.1c-0.1-1.9-0.4-3.9-0.7-5.9l1-0.2c0.3,2,0.6,4,0.7,6L185.2,242.1z M145.1,234.8l-1-0.2c0.4-1.9,1-3.9,1.6-5.8l0.9,0.3
			C146.1,231,145.6,232.9,145.1,234.8z M183.3,230.5c-0.5-1.9-1.1-3.8-1.8-5.6l0.9-0.3c0.7,1.9,1.3,3.8,1.8,5.7L183.3,230.5z
			 M148.9,223.6l-0.9-0.4c0.8-1.8,1.7-3.6,2.7-5.4l0.9,0.5C150.6,220.1,149.7,221.8,148.9,223.6z M179.2,219.4
			c-0.8-1.8-1.8-3.5-2.8-5.2l0.9-0.5c1,1.7,1.9,3.5,2.8,5.3L179.2,219.4z M154.7,213.3l-0.8-0.6c1.1-1.6,2.3-3.3,3.6-4.8l0.8,0.6
			C157,210.1,155.8,211.7,154.7,213.3z M173.2,209.2c-1.1-1.6-2.3-3.2-3.5-4.7l0.8-0.6c1.2,1.5,2.4,3.1,3.6,4.8L173.2,209.2z
			 M162.1,204.1l-0.7-0.7c2.5-2.7,4.3-4.1,4.3-4.2l0.1-0.1c0.3-0.1,0.5,0.1,0.6,0.2l-0.4,0.4l0.2,0.3
			C166.3,200,164.6,201.4,162.1,204.1z"/>
		<path class="st13" d="M144.3,280.8l3.3,36.2h35.8l3.4-36.2H144.3z M180.2,313.5h-29.4l-2.7-29.2H183L180.2,313.5z"/>
		<path class="st0" d="M153.2,308.5v36.1l12.4,16l12.4-15.6v-36.4c0-4.9,0.2-9.8,0.7-14.6h-26.2C153,298.7,153.2,303.6,153.2,308.5z
			"/>
		<path class="st12" d="M168.6,293.8c0,4.3-1.4,7.7-3.1,7.7c-1.7,0-3.1-3.4-3.1-7.7c0-4.2,1.4-7.7,3.1-7.7
			C167.2,286.1,168.6,289.6,168.6,293.8z"/>
		<path class="st12" d="M169.1,244.2c0,4.3-1.4,7.7-3.1,7.7c-1.7,0-3.1-3.4-3.1-7.7c0-4.3,1.4-7.7,3.1-7.7
			C167.7,236.5,169.1,239.9,169.1,244.2z"/>
		<polygon class="st13" points="167.6,274.9 163.5,274.9 163.5,295.9 167.6,295.9 167.6,274.9 		"/>
		<polygon class="st14" points="165.5,274.9 163.5,274.9 163.5,295.9 165.5,295.9 165.5,274.9 		"/>
		<rect x="157.1" y="303.8" class="st15" width="17.9" height="19.1"/>
		<polygon class="st14" points="162.5,283 146.1,283 149.6,317 147.6,317 144.3,280.8 162.5,280.8 		"/>
	</g>
	<g>
		<path class="st16" d="M369.6,319.8l3.5-37h-6.6c0.5-3,1.1-6,1.8-9c1.8-8,7.7-17.9,7.7-27.9c0-29.4-24.9-52.7-24.9-52.7
			s-26.9,23.3-26.9,52.7c0,10,7.9,19.9,9.7,27.9c0.7,3,1.3,6,1.8,9h-6.8l3.4,37h2c-3.9,5.5-6.3,12.9-6.3,21
			c0,17,10.5,30.8,23.5,30.8c13,0,23.5-13.8,23.5-30.8c0-8.1-2.4-15.5-6.3-21H369.6z M369.1,286.4l-2.8,29.9h-0.7
			c-0.5-0.5-1.1-1-1.7-1.5V311c0-5,0.2-10,0.7-15c0.3-3.3,0.7-6.5,1.2-9.7H369.1z M335.6,316.2l-2.8-29.9h3.4
			c0.5,3.2,0.9,6.5,1.2,9.7c0.5,5,0.7,10,0.7,15v4.4c-0.3,0.3-0.6,0.5-0.8,0.8H335.6z"/>
		<g>
			<ellipse class="st9" cx="350.4" cy="337.6" rx="22.6" ry="30.1"/>
			<path class="st0" d="M350.3,363.9c-2,0-4.1-0.4-6-1.2l0.4-0.9c1.8,0.8,3.7,1.2,5.6,1.2L350.3,363.9z M356.3,362.7l-0.4-0.9
				c1.7-0.7,3.4-1.8,4.9-3.1l0.7,0.7C359.9,360.9,358.1,362,356.3,362.7z M339.2,359.4c-1.5-1.3-2.8-2.9-3.9-4.6l0.8-0.5
				c1.1,1.7,2.4,3.2,3.7,4.4L339.2,359.4z M365.4,354.8l-0.8-0.5c1-1.6,1.9-3.3,2.6-5.2l0.9,0.4
				C367.4,351.4,366.5,353.2,365.4,354.8z M332.6,349.3c-0.7-1.9-1.2-3.8-1.6-5.8l1-0.2c0.3,2,0.8,3.9,1.5,5.7L332.6,349.3z
				 M369.7,343.6l-1-0.2c0.3-1.9,0.5-3.9,0.5-5.8h1C370.2,339.6,370.1,341.6,369.7,343.6z M331.5,337.5l-1,0c0-2,0.2-4.1,0.5-6
				l1,0.2C331.7,333.5,331.5,335.5,331.5,337.5z M368.8,331.9c-0.3-2-0.8-3.9-1.5-5.7l0.9-0.3c0.7,1.9,1.2,3.8,1.6,5.8L368.8,331.9z
				 M333.6,326l-0.9-0.4c0.7-1.9,1.7-3.7,2.8-5.4l0.8,0.5C335.2,322.4,334.3,324.1,333.6,326z M364.7,321c-1.1-1.7-2.3-3.2-3.7-4.5
				l0.7-0.7c1.4,1.3,2.8,2.9,3.9,4.7L364.7,321z M340,316.4l-0.7-0.7c1.6-1.4,3.3-2.5,5.2-3.2l0.4,0.9
				C343.2,314,341.6,315,340,316.4z M356.1,313.4c-1.8-0.8-3.7-1.2-5.6-1.2l0-1c2,0,4.1,0.5,6,1.3L356.1,313.4z"/>
			<path class="st0" d="M350,193.2c0,0-25.9,22.8-25.9,51.5c0,9.8,7.6,19.5,9.3,27.3c1.6,7.2,2.8,14.5,3.4,21.8
				c0.4,4.9,0.7,9.7,0.7,14.6v36.1l12.4,16l12.4-15.6v-36.4c0-4.9,0.2-9.8,0.7-14.6c0.7-7.3,1.8-14.6,3.4-21.8
				c1.7-7.8,7.4-17.5,7.4-27.3C373.9,216,350,193.2,350,193.2z"/>
			<path class="st12" d="M349.9,356.3l-1-1.3l0.8-0.6l0.2,0.3l2.7-3.4l0.8,0.6L349.9,356.3z M345.2,350.3l-3.7-4.7l0.8-0.6l3.7,4.7
				L345.2,350.3z M357.1,347.3l-0.8-0.6l3.7-4.6l0.4,0.3l0.5,0v0.2l-0.1,0.2L357.1,347.3z M339.8,340.3h-1v-6h1V340.3z M360.9,336.3
				h-1v-6h1V336.3z M339.8,328.4h-1v-6h1V328.4z M360.9,324.4h-1v-6h1V324.4z M339.8,316.5h-1v-6h1V316.5z M360.9,312.5h-1l0-6l1,0
				V312.5z M338.7,304.6c0-2-0.1-4-0.2-5.9l1,0c0.1,2,0.2,4,0.2,6L338.7,304.6z M361.1,300.6l-1,0c0.1-2,0.2-4,0.3-6l1,0.1
				C361.2,296.7,361.1,298.7,361.1,300.6z M338.1,292.7c-0.2-2-0.4-4-0.6-5.9l1-0.1c0.2,2,0.4,4,0.6,5.9L338.1,292.7z M361.9,288.8
				l-1-0.1c0.2-2,0.5-4,0.7-5.9l1,0.1C362.4,284.8,362.1,286.8,361.9,288.8z M336.8,280.9c-0.3-1.9-0.6-3.9-1-5.9l1-0.2
				c0.4,2,0.7,3.9,1,5.9L336.8,280.9z M363.6,277l-1-0.2c0.3-1.6,0.6-3.1,0.9-4.7c0.1-0.4,0.2-0.8,0.3-1.2l1,0.2
				c-0.1,0.4-0.2,0.8-0.2,1.1C364.1,273.9,363.8,275.4,363.6,277z M334.5,269.3c-0.6-1.8-1.4-3.8-2.1-5.5l0.9-0.4
				c0.7,1.7,1.5,3.7,2.2,5.6L334.5,269.3z M366.3,265.5l-0.9-0.3c0.2-0.6,0.4-1.2,0.6-1.9c0.4-1.2,0.8-2.5,1.2-3.8l0.9,0.3
				c-0.4,1.3-0.8,2.6-1.2,3.8C366.7,264.2,366.5,264.9,366.3,265.5z M330.1,258.2c-0.8-2.2-1.4-4-1.9-5.7l1-0.2
				c0.4,1.7,1,3.5,1.8,5.6L330.1,258.2z M369.8,254l-1-0.2c0.5-2.1,0.8-4,0.9-5.8l1,0.1C370.5,249.9,370.2,251.9,369.8,254z
				 M327.3,246.5c0-0.2,0-0.4,0-0.6c0-1.8,0.1-3.6,0.3-5.4l1,0.1c-0.2,1.8-0.3,3.6-0.3,5.3c0,0.2,0,0.4,0,0.6L327.3,246.5z
				 M369.6,242.1c-0.1-1.9-0.4-3.9-0.7-5.9l1-0.2c0.3,2,0.6,4,0.7,6L369.6,242.1z M329.5,234.8l-1-0.2c0.4-1.9,1-3.9,1.6-5.8
				l0.9,0.3C330.5,231,329.9,232.9,329.5,234.8z M367.7,230.5c-0.5-1.9-1.1-3.8-1.8-5.6l0.9-0.3c0.7,1.9,1.3,3.8,1.8,5.7
				L367.7,230.5z M333.3,223.6l-0.9-0.4c0.8-1.8,1.7-3.6,2.7-5.4l0.9,0.5C335,220.1,334.1,221.8,333.3,223.6z M363.5,219.4
				c-0.8-1.8-1.8-3.5-2.8-5.2l0.9-0.5c1,1.7,1.9,3.5,2.8,5.3L363.5,219.4z M339.1,213.3l-0.8-0.6c1.1-1.6,2.3-3.3,3.6-4.8l0.8,0.6
				C341.3,210.1,340.2,211.7,339.1,213.3z M357.6,209.2c-1.1-1.6-2.3-3.2-3.5-4.7l0.8-0.6c1.2,1.5,2.5,3.1,3.6,4.8L357.6,209.2z
				 M346.5,204.1l-0.7-0.7c2.5-2.7,4.3-4.1,4.3-4.2l0.1-0.1c0.3-0.1,0.5,0.1,0.6,0.2l-0.4,0.4l0.2,0.3
				C350.7,200,348.9,201.4,346.5,204.1z"/>
			<path class="st13" d="M328.7,280.8L332,317h35.8l3.4-36.2H328.7z M364.6,313.5h-29.4l-2.7-29.2h34.8L364.6,313.5z"/>
			<path class="st0" d="M337.6,308.5v36.1l12.4,16l12.4-15.6v-36.4c0-4.9,0.2-9.8,0.7-14.6h-26.2
				C337.3,298.7,337.6,303.6,337.6,308.5z"/>
			<path class="st12" d="M353,293.8c0,4.3-1.4,7.7-3.1,7.7c-1.7,0-3.1-3.4-3.1-7.7c0-4.2,1.4-7.7,3.1-7.7
				C351.6,286.1,353,289.6,353,293.8z"/>
			<path class="st12" d="M353.4,244.2c0,4.3-1.4,7.7-3.1,7.7s-3.1-3.4-3.1-7.7c0-4.3,1.4-7.7,3.1-7.7S353.4,239.9,353.4,244.2z"/>
			<polygon class="st13" points="352,274.9 347.9,274.9 347.9,295.9 352,295.9 352,274.9 			"/>
			<polygon class="st14" points="349.9,274.9 347.9,274.9 347.9,295.9 349.9,295.9 349.9,274.9 			"/>
			<rect x="341.4" y="303.8" class="st15" width="17.9" height="19.1"/>
			<polygon class="st14" points="346.9,283 330.5,283 334,317 332,317 328.7,280.8 346.9,280.8 			"/>
		</g>
	</g>
</g>
</svg>
