<?xml version="1.0" encoding="utf-8"?>
<!-- Generator: Adobe Illustrator 24.0.2, SVG Export Plug-In . SVG Version: 6.00 Build 0)  -->
<svg version="1.1" id="Layer_1" xmlns="http://www.w3.org/2000/svg" xmlns:xlink="http://www.w3.org/1999/xlink" x="0px" y="0px"
	 viewBox="0 0 500 500" style="enable-background:new 0 0 500 500;" xml:space="preserve">
<style type="text/css">
	.st0{fill:#F3D2BC;}
	.st1{fill:#836E63;}
	.st2{fill:#584A43;}
	.st3{fill:#E2BDA9;}
	.st4{fill:#7E695F;}
	.st5{fill:#403631;}
	.st6{fill:#F7CAAE;}
	.st7{fill:#4A3E37;}
	.st8{fill:#6F5D53;}
</style>
<g>
	<path class="st0" d="M251,138.7V419h-0.1c0,9.5-7.2,17.2-16.4,17.9c-1.4,0-2.7-0.1-4.1-0.2c-28.7-1.5-67.8-10.5-92.7-28.9
		c13.1-50.5,28.6-125.3,6.2-181.6c-5.1,24.4-6.9,55.5-9.3,66.2c-5.3,19.7-13.9,38-15.9,57.8c-3.4,31.6-13.3,79.5-33.9,82.7
		c-1.8,0.3-3.7,0.2-5.7-0.2c-16-3.6-38.1-2.1-47.3-14.3c-3.4-4.4-5.1-10.6-4.2-19.5c2.1-26.6,22.6-97.5,29-124.7
		c7.6-32.3,14.6-51.2,23.8-78.9c4-12.1,7.5-25.5,10.6-38.2c3.7-12.1,14.4-43.1,21.3-58.4c0,0,0-0.1,0.1-0.1
		c1.5-4.7,4.2-8.8,7.6-12.2c2.8-2.8,6-5.1,9.6-6.7l7.2-2.2l47.9-14.8l8-2.5l14.7-4.5l0.1,0c-0.1,1-0.2,2.1-0.3,3.1V59
		c0,0.1,0,0.2,0,0.2c0,0.8,0,1.7,0,2.5c0,0.4,0,0.8,0,1.2c0,27.5,12.8,50.8,30.5,58.8c0.5,0.3,1,0.5,1.5,0.7c0,0,0,0,0,0L251,138.7z
		"/>
	<path class="st1" d="M83.8,432.7l-5.8,25l-54-12.4l6.3-27.2c9.3,12.2,31.6,10.7,47.8,14.3C80.1,432.9,82,433,83.8,432.7z"/>
	<path class="st0" d="M473.9,421.7c-9.8,11.1-31.3,9.7-47.1,13.2c-2.4,0.5-4.7,0.5-6.8,0c-20.1-4.7-29.9-51.4-33.2-82.4
		c-2.1-19.8-10.7-38.1-16.1-57.7c-2.3-9.7-3.9-36.2-8.1-59.3c-17.4,55-8.6,123.9,3.2,171.5c-25,18.2-64.5,27.3-93.5,28.8
		c-1.7,0.1-3.3,0.2-4.9,0.2c0,0-0.9,0-0.9,0c-8.6-0.9-15.3-8.2-15.3-17H251V138.2l12.2-16.2h0c0.1,0,0.2-0.1,0.3-0.1
		c0.4-0.2,0.8-0.3,1.3-0.6c0,0,0,0,0.1,0c17-7.7,29.5-29.1,30.7-54.8c0-0.6,0.1-1.2,0.1-1.9c0-0.7,0-1.4,0-2.1c0-0.5,0-0.9,0-1.3
		c0-2.1-0.1-4.2-0.3-6.2l0.1,0l14.8,4.6l8.1,2.5l48,14.9l8.4,2.6c3.4,1.6,6.4,3.7,9,6.3c3.1,3.1,5.6,6.8,7.2,10.9c0,0,0,0,0,0
		c6.9,14,19.8,49.7,23.9,62.7c3.2,12.7,8.7,25.1,12.5,37.3c8.8,28.1,18.3,50.1,23.1,77.9c4.7,27.5,26.4,99.7,28.6,126.2
		C480,410.7,477.9,417.2,473.9,421.7z"/>
	<path class="st1" d="M479.2,445.3l-53.9,12.4l-5.1-22.2c2.2,0.5,4.4,0.5,6.8,0c15.7-3.5,37.2-2.2,46.9-13.3L479.2,445.3z"/>
	<path class="st2" d="M295.9,61C295.9,61,295.9,61,295.9,61c-31.3,8.8-59.7,8.6-89,0.1c0-0.5,0-0.9,0-1.4c0-0.4,0-0.7,0-1.1
		c0-0.1,0-0.2,0-0.2v-0.2c0-0.2,0-0.5,0-0.8c0-0.7,0-1.4,0.1-2c0-0.1,0-0.2,0-0.3c0-0.7,0.1-1.4,0.2-2c0.2-2.7,0.6-5.4,1.1-8
		c0.1-0.5,0.2-1,0.3-1.6c0.6-2.7,1.3-5.3,2.1-7.9c26.9,9.7,52,10,81,0c2,6,3.3,12.5,3.7,19.2C295.9,56.8,295.9,58.9,295.9,61z"/>
	<path class="st3" d="M251.6,138.4l-22-8.2c1.2-0.5,2.2-1,3.2-1.7c0.5-0.3,0.9-0.6,1.3-1c0.1-0.1,0.1-0.1,0.1-0.1
		c0.4-0.3,0.7-0.6,1-1c0.1-0.1,0.2-0.2,0.2-0.3c0.3-0.3,0.5-0.6,0.7-0.9c0.3-0.4,0.6-0.8,0.7-1.2c0.1-0.2,0.2-0.4,0.3-0.6
		c0.1-0.2,0.2-0.4,0.3-0.7c0.1-0.4,0.2-0.7,0.3-1.1c0.1-0.3,0.2-0.7,0.2-1.1l1.3,1.8L251.6,138.4z"/>
	<path class="st3" d="M273.7,130l-22,8.2l12.2-16.2h0l1.3-1.8c0,0.4,0.1,0.8,0.2,1.1c0.8,3.8,3.7,6.7,7.7,8.4
		C273.2,129.8,273.4,129.9,273.7,130z"/>
	<path class="st4" d="M266.5,164.7c0,2.1-1.7,3.9-3.9,3.9c-2.2,0-3.9-1.7-3.9-3.9c0-2.2,1.8-3.9,3.9-3.9
		C264.8,160.8,266.5,162.5,266.5,164.7z"/>
	<path class="st5" d="M266.5,206.3c0,2.2-1.7,3.9-3.9,3.9c-2.2,0-3.9-1.7-3.9-3.9c0-2.1,1.8-3.9,3.9-3.9
		C264.8,202.4,266.5,204.2,266.5,206.3z"/>
	<path class="st5" d="M266.5,248c0,2.2-1.7,3.9-3.9,3.9c-2.2,0-3.9-1.7-3.9-3.9c0-2.2,1.8-3.9,3.9-3.9
		C264.8,244,266.5,245.8,266.5,248z"/>
	<path class="st5" d="M266.5,289.6c0,2.1-1.7,3.9-3.9,3.9c-2.2,0-3.9-1.7-3.9-3.9c0-2.2,1.8-3.9,3.9-3.9
		C264.8,285.7,266.5,287.4,266.5,289.6z"/>
	<path class="st5" d="M266.5,331.2c0,2.1-1.7,3.9-3.9,3.9c-2.2,0-3.9-1.8-3.9-3.9c0-2.2,1.8-3.9,3.9-3.9
		C264.8,327.3,266.5,329,266.5,331.2z"/>
	<path class="st5" d="M266.5,372.8c0,2.1-1.7,3.9-3.9,3.9c-2.2,0-3.9-1.8-3.9-3.9c0-2.2,1.8-3.9,3.9-3.9
		C264.8,368.9,266.5,370.7,266.5,372.8z"/>
	<path class="st6" d="M296.1,62.5c0,0.7,0,1.4,0,2.1c0,0.6,0,1.2-0.1,1.9c-1.5,25.3-13.9,46.3-30.8,53.8c0,0.4,0.1,0.7,0.2,1.1
		c0,0,0,0-0.1,0c-0.1-0.3-0.2-0.7-0.2-1.1l-1.3,1.8h0l-12.2,16.2L239.4,122l-1.3-1.8c-17.9-8-30.9-31.3-30.9-58.9
		c29.3,8.5,57.7,8.6,88.9-0.1C296.1,61.6,296.1,62.1,296.1,62.5z"/>
	<g>
		<path class="st5" d="M251.8,207.2c-4.9-3.1-11.9-5.2-17.9-5.1c0.5-3,1.2-5.9,2.3-8.9c1.9-6,3.3-12.2,2.6-18.4
			c-1-7.9-5.2-16.9-4.3-24.8c0.4-3.1,1.9-5.3,3.7-7.1h4.9c2.2,0,4.3-0.8,5.8-2.2c0.9,0.4,1.8,0.6,2.8,0.6c0.2,0,0.5,0,0.7,0
			c-1.8,2.6-3.9,4.9-5,7.9c-0.6,1.7-1,3.6-1,5.5c-0.1,3.1,0.5,6.2,1.5,9c2.6,6,6.4,11.4,7.9,17.9C257.4,189.4,255,199,251.8,207.2z"
			/>
		<path class="st7" d="M284.3,189c-5.5,3.5-12.4,4.7-19,4.1c0.5-1.6,1-3.3,1.1-5c0.5-6-0.7-11.9-4.5-16.7
			c-3.3-4.1-12.3-10.1-15.6-16.7c0.1-1.9,0.4-3.8,1-5.5c1-3,3.2-5.3,5-7.9c0.7-0.1,1.5-0.3,2.1-0.5c1.5,1.4,3.5,2.2,5.8,2.2h0.1
			c-4.1,10.2,4,15,11.4,21.7c3.8,3.6,6.9,7.6,8.8,12.4C281.9,180.3,283.4,184.6,284.3,189z"/>
		<path class="st2" d="M294,126v17h-33.4c-2.2,0-4.2-0.8-5.7-2.2c-0.4-0.4-0.7-0.7-1-1.1c-1.1-1.4-1.7-3.2-1.7-5.1
			c0-2.5,1.1-4.7,2.8-6.3c1.5-1.4,3.5-2.2,5.7-2.2H294z"/>
		<path class="st2" d="M250.9,134.5c0,2.5-1.1,4.7-2.8,6.3c-1.5,1.4-3.5,2.2-5.7,2.2H209v-17h33.4c2.2,0,4.2,0.8,5.7,2.2
			C249.9,129.8,250.9,132,250.9,134.5z"/>
		<path class="st8" d="M258.6,134.5c0,2.8-1.7,5.2-4.1,6.3c-0.7,0.3-1.4,0.5-2.1,0.6c-0.2,0-0.5,0-0.7,0c-1,0-1.9-0.2-2.8-0.6
			c-2.4-1.1-4.1-3.5-4.1-6.3s1.7-5.3,4.1-6.3c0.9-0.4,1.8-0.6,2.8-0.6c1,0,1.9,0.2,2.8,0.6C256.9,129.3,258.6,131.7,258.6,134.5z"/>
	</g>
	<path class="st1" d="M238.3,120.9c0,0.4-0.1,0.8-0.2,1.1c-0.1,0.4-0.2,0.8-0.3,1.1c-0.1,0.2-0.1,0.5-0.3,0.7
		c-0.1,0.2-0.2,0.4-0.3,0.6c-0.2,0.5-0.4,0.9-0.7,1.3c-0.2,0.4-0.5,0.7-0.7,1c-0.1,0.1-0.1,0.2-0.2,0.3c-0.3,0.4-0.6,0.7-1,1
		c0,0-0.1,0.1-0.1,0.1c-0.4,0.4-0.9,0.7-1.3,1c-1,0.7-2.1,1.2-3.2,1.7c-8.4,3.5-21.1,2.4-28-3.3c-8.4-7.8-15.9-20.2-18.5-30.5
		c-2.9-11.3-2.7-23.9,0.8-34.9v0c0.3-0.8,0.5-1.6,0.8-2.4c0.3-0.8,0.6-1.6,0.9-2.3c0.3-0.7,0.6-1.4,1-2.1c0.5-0.9,0.9-1.7,1.3-2.5
		c0.4-0.6,0.8-1.3,1.2-1.9c0.1-0.1,0.1-0.2,0.2-0.3c0.4-0.6,0.8-1.2,1.3-1.8c0.5-0.6,1-1.3,1.5-1.9c0.5-0.6,1.1-1.2,1.6-1.8
		c0.6-0.6,1.1-1.2,1.7-1.7c0.7-0.7,1.4-1.3,2.2-1.9c1.1-0.8,2.2-1.6,3.5-2.4c0.4-0.2,0.9-0.5,1.3-0.7c0.4-0.2,0.9-0.5,1.3-0.7
		c1.2-0.6,2.4-1.1,3.6-1.4c0.5-0.2,1.1-0.4,1.6-0.5c0.6-0.2,1.2-0.3,1.9-0.5c-0.8,2.6-1.5,5.2-2.1,8c-0.1,0.5-0.2,1.1-0.3,1.6
		c-0.5,2.6-0.9,5.4-1.1,8.1c-0.1,0.7-0.1,1.4-0.2,2.1c0,0.1,0,0.2,0,0.3c-0.1,0.7-0.1,1.4-0.1,2.1c0,0.2,0,0.5,0,0.8v0.2
		c0,0.1,0,0.2,0,0.2c0,0.4,0,0.7,0,1.1c0,0.5,0,0.9,0,1.4C206.9,89.1,220.1,112.8,238.3,120.9z"/>
	<path class="st1" d="M319.4,96.8c-2.5,10.2-9.9,22.3-18.2,30.1c-7,5.8-19.9,6.8-28.3,3c-3.9-1.8-6.8-4.6-7.6-8.4
		c-0.1-0.3-0.2-0.7-0.2-1.1c16.8-7.5,29.3-28.5,30.8-53.8c0-0.6,0.1-1.2,0.1-1.9c0-1.1,0.1-2.2,0.1-3.3v-0.1c0-2.1-0.1-4.2-0.2-6.2
		c-0.5-6.8-1.8-13.3-3.7-19.2c13.7,3.2,22.4,13.6,26.5,26.3C322.1,73,322.3,85.5,319.4,96.8z"/>
</g>
</svg>
