<?xml version="1.0" encoding="utf-8"?>
<!-- Generator: Adobe Illustrator 24.0.2, SVG Export Plug-In . SVG Version: 6.00 Build 0)  -->
<svg version="1.1" id="Layer_1" xmlns="http://www.w3.org/2000/svg" xmlns:xlink="http://www.w3.org/1999/xlink" x="0px" y="0px"
	 viewBox="0 0 500 500" style="enable-background:new 0 0 500 500;" xml:space="preserve">
<style type="text/css">
	.st0{fill:#F9AD87;}
	.st1{fill:#D64327;}
	.st2{fill:#874627;}
	.st3{fill:#F15B22;}
	.st4{fill:none;stroke:#A2A2A1;stroke-width:1.4035;stroke-miterlimit:10;}
	.st5{fill:#414141;}
	.st6{fill:#A2A2A1;}
	.st7{fill:#F47625;}
</style>
<g>
	<path class="st0" d="M300.1,199.2c-4.1-12.1-6.2-15.6-13.8-40.5h-72.2c-7.6,25-9.7,28.4-13.8,40.5c-3.7,10.9-6.1,21-7.7,30.2h54.4
		h0.2h5.9h1.2h53.4C306.3,220.2,303.8,210.2,300.1,199.2z"/>
	<path class="st1" d="M250.3,236.3C250.3,236.3,250.3,236.3,250.3,236.3c-0.1,0.7-0.2,1.5-0.3,2.2c0,0,3.3,82.3,9.4,117.9
		c6.2,35.5,0.7,63,7.1,89.3c3.6,14.8,7.2,30.8,9.8,34.6c1,1.5,22.1,2.5,29.6,1.4c0,0,1.6-103,2-125.1c0.4-22.1,9.7-87.8,10.4-108.9
		c0.1-3.6,0.1-7.3-0.1-11.3H250.3z"/>
	<polygon class="st2" points="249.7,236.3 250.3,236.3 250.3,236.3 250.3,236.3 	"/>
	<g>
		<path class="st1" d="M288,155.9C288,155.9,288,156,288,155.9c0,0.1-0.1,0.1-0.1,0.2c0,0.3,0,0.7-0.1,1.2c0,0,0,0,0,0
			c0,0.3-0.1,0.6-0.1,0.9c0,0,0,0,0,0c0,0.3-0.1,0.7-0.1,1c0,0,0,0.1,0,0.1c0,0.4-0.1,0.8-0.1,1.2c0,0,0,0.1,0,0.1
			c-0.1,0.4-0.1,0.9-0.2,1.3c0,0.1,0,0.1,0,0.2c-0.1,0.5-0.1,0.9-0.2,1.4c0,0.1,0,0.1,0,0.2c-0.1,0.5-0.2,1-0.3,1.6
			c0,0.1,0,0.2,0,0.3c-0.1,0.5-0.2,1.1-0.3,1.7c0,0.1,0,0.2-0.1,0.3c-0.1,0.6-0.2,1.2-0.4,1.8c0,0.1,0,0.2-0.1,0.3
			c-0.1,0.6-0.3,1.3-0.4,1.9c0,0.1,0,0.2-0.1,0.3c-0.2,0.7-0.3,1.4-0.5,2.1c0,0.1-0.1,0.2-0.1,0.3c-0.2,0.7-0.4,1.4-0.6,2.2
			c0,0.1-0.1,0.2-0.1,0.3c-0.2,0.8-0.4,1.5-0.7,2.3c0,0.1,0,0.2-0.1,0.2c-0.2,0.8-0.5,1.6-0.8,2.5c0,0.1,0,0.1-0.1,0.2
			c-0.3,0.9-0.6,1.7-0.9,2.6c0,0,0,0.1,0,0.1c-0.3,0.9-0.6,1.8-1,2.7c0,0,0,0.1,0,0.1c-0.3,0.9-0.7,1.8-1,2.8c0,0.1-0.1,0.1-0.1,0.2
			c-0.4,0.9-0.7,1.8-1.1,2.8c0,0.1-0.1,0.2-0.1,0.3c-0.4,0.9-0.8,1.8-1.2,2.8c-0.1,0.1-0.1,0.2-0.2,0.4c-0.4,0.9-0.8,1.8-1.3,2.8
			c-0.1,0.1-0.1,0.3-0.2,0.4c-0.4,0.9-0.9,1.9-1.4,2.8c-0.1,0.1-0.1,0.3-0.2,0.4c-0.5,0.9-1,1.9-1.5,2.8c-0.1,0.1-0.2,0.3-0.2,0.4
			c-0.5,0.9-1,1.9-1.6,2.8c-0.1,0.2-0.2,0.3-0.3,0.5c-0.6,1-1.1,1.9-1.7,2.9c-0.1,0.1-0.2,0.3-0.3,0.4c-0.6,1-1.2,1.9-1.8,2.9
			c-0.1,0.1-0.2,0.3-0.3,0.4c-0.6,1-1.3,2-2,2.9c-0.1,0.1-0.2,0.3-0.3,0.4c-0.7,1-1.4,2-2.1,3c-0.1,0.1-0.2,0.2-0.3,0.4
			c-0.8,1-1.5,2-2.3,3c-0.1,0.1-0.2,0.2-0.2,0.3c-0.8,1-1.7,2-2.5,3.1c-0.1,0.1-0.1,0.2-0.2,0.2c-0.9,1-1.8,2.1-2.7,3.1
			c0,0-0.1,0.1-0.1,0.1c-1,1.1-2,2.1-3,3.2c0,0-0.1,0.1-0.2,0.2h68c0-0.1,0-0.1,0-0.2c-1.1-19.6-7.6-44.7-30.2-80.4c0,0,0,0-0.1,0.1
			C287.9,155.8,287.9,155.9,288,155.9C288,155.9,288,155.9,288,155.9z"/>
		<path class="st3" d="M287.8,155.9c-12.2,0.2-71.9,0.4-75.6,0.4c-0.1-0.2-0.2-0.2-0.2-0.2c0,0,0,0,0,0
			c-22.6,35.7-29,60.5-30.2,79.9c0,0.1,0,0.1,0,0.2h68h0.6c0,0,0,0,0,0c0.1-0.1,0.1-0.1,0.2-0.2c1-1.1,2-2.1,3-3.2
			c0,0,0.1-0.1,0.1-0.1c0.9-1,1.9-2.1,2.7-3.1c0.1-0.1,0.1-0.2,0.2-0.2c0.9-1,1.7-2,2.5-3.1c0.1-0.1,0.2-0.2,0.2-0.3
			c0.8-1,1.6-2,2.3-3c0.1-0.1,0.2-0.2,0.3-0.4c0.7-1,1.5-2,2.1-3c0.1-0.1,0.2-0.3,0.3-0.4c0.7-1,1.3-2,2-2.9
			c0.1-0.1,0.2-0.3,0.3-0.4c0.6-1,1.2-1.9,1.8-2.9c0.1-0.1,0.2-0.3,0.3-0.4c0.6-1,1.2-1.9,1.7-2.9c0.1-0.2,0.2-0.3,0.3-0.5
			c0.5-1,1.1-1.9,1.6-2.8c0.1-0.1,0.2-0.3,0.2-0.4c0.5-0.9,1-1.9,1.5-2.8c0.1-0.1,0.1-0.3,0.2-0.4c0.5-0.9,1.5-3.1,1.6-3.2
			c0.4-0.9,1.4-3,1.4-3.1c0.4-0.9,1.3-3,1.3-3.1c0.4-0.9,0.8-1.9,1.1-2.8c0-0.1,0.1-0.1,0.1-0.2c0.4-0.9,0.7-1.9,1-2.8
			c0,0,0-0.1,0-0.1c0.3-0.9,0.7-1.8,1-2.7c0,0,0-0.1,0-0.1c0.3-0.9,0.6-1.8,0.9-2.6c0-0.1,0-0.1,0.1-0.2c0.3-0.8,0.5-1.7,0.8-2.5
			c0-0.1,0-0.2,0.1-0.2c0.2-0.8,0.4-1.6,0.7-2.3c0-0.1,0.1-0.2,0.1-0.3c0.2-0.7,0.4-1.5,0.6-2.2c0-0.1,0.1-0.2,0.1-0.3
			c0.2-0.7,0.3-1.4,0.5-2.1c0-0.1,0-0.2,0.1-0.3c0.2-0.7,0.3-1.3,0.4-1.9c0-0.1,0-0.2,0.1-0.3c0.1-0.6,0.3-1.2,0.4-1.8
			c0-0.1,0-0.2,0.1-0.3c0.1-0.6,0.2-1.1,0.3-1.7c0-0.1,0-0.2,0-0.3c0.1-0.5,0.2-1.1,0.3-1.6c0-0.1,0-0.2,0-0.2
			c0.1-0.5,0.2-1,0.2-1.4c0-0.1,0-0.1,0-0.2c0.1-0.5,0.1-0.9,0.2-1.3c0,0,0-0.1,0-0.1c0.1-0.4,0.1-0.8,0.1-1.2c0,0,0-0.1,0-0.1
			c0-0.4,0.1-0.7,0.1-1c0,0,0,0,0,0c0-0.3,0.1-0.6,0.1-0.9c0,0,0,0,0,0c0-0.5,0.1-1,0.1-1.2c0,0,0,0,0,0c0-0.1,0-0.1,0-0.2
			c0-0.1,0-0.1,0-0.2C287.9,155.8,287.9,155.9,287.8,155.9z"/>
	</g>
	<path class="st3" d="M181.8,236.3c-0.2,4-0.2,7.8-0.1,11.3c0.8,21.1,10,86.8,10.4,108.9c0.4,22.1,2,125.1,2,125.1
		c7.6,1.1,28.6,0.1,29.6-1.4c2.6-3.8,6.2-19.7,9.8-34.6c6.3-26.3,0.9-53.8,7.1-89.3c6.2-35.5,9.4-117.9,9.4-117.9
		c-0.1-0.7-0.3-2.2-0.3-2.2H181.8z"/>
	<path class="st2" d="M264.1,219.7c0.1-0.1,0.2-0.3,0.3-0.4C264.2,219.5,264.1,219.6,264.1,219.7z"/>
	<path class="st2" d="M281.8,184.8C281.8,184.7,281.8,184.7,281.8,184.8C281.8,184.7,281.8,184.7,281.8,184.8z"/>
	<path class="st2" d="M287.5,160.7c0,0,0-0.1,0-0.1C287.5,160.6,287.5,160.7,287.5,160.7z"/>
	<path class="st2" d="M287.6,159.4C287.6,159.4,287.6,159.4,287.6,159.4C287.6,159.4,287.6,159.4,287.6,159.4z"/>
	<path class="st2" d="M287.3,162.2c0-0.1,0-0.1,0-0.2C287.3,162.1,287.3,162.2,287.3,162.2z"/>
	<path class="st2" d="M259.1,226.4c0.1-0.1,0.2-0.2,0.2-0.3C259.2,226.2,259.1,226.3,259.1,226.4z"/>
	<path class="st2" d="M287,163.9c0-0.1,0-0.2,0-0.2C287,163.7,287,163.8,287,163.9z"/>
	<path class="st2" d="M266.3,216.4c0.1-0.1,0.2-0.3,0.3-0.4C266.5,216.1,266.4,216.2,266.3,216.4z"/>
	<path class="st2" d="M250.3,236.3C250.3,236.3,250.3,236.3,250.3,236.3L250.3,236.3c0.1-0.1,0.2-0.2,0.2-0.2
		C250.4,236.1,250.4,236.2,250.3,236.3z"/>
	<path class="st2" d="M287.8,158.3C287.8,158.3,287.8,158.3,287.8,158.3C287.8,158.3,287.8,158.3,287.8,158.3z"/>
	<path class="st2" d="M268.5,213.1c0.1-0.1,0.2-0.3,0.3-0.4C268.6,212.8,268.6,212.9,268.5,213.1z"/>
	<polygon class="st2" points="250.3,236.3 250.3,236.3 250.3,236.3 	"/>
	<path class="st2" d="M288,155.9C288,155.9,288,155.9,288,155.9c-0.1,0.1-0.1,0.1-0.1,0.2C288,156.1,288,156,288,155.9
		C288,156,288,155.9,288,155.9z"/>
	<path class="st2" d="M256.3,229.6c0.1-0.1,0.1-0.2,0.2-0.2C256.5,229.5,256.4,229.6,256.3,229.6z"/>
	<path class="st2" d="M287.8,157.3C287.8,157.3,287.8,157.3,287.8,157.3C287.8,157.3,287.8,157.3,287.8,157.3z"/>
	<path class="st2" d="M253.5,232.9c0,0,0.1-0.1,0.1-0.1C253.6,232.8,253.5,232.8,253.5,232.9z"/>
	<path class="st2" d="M261.6,223c0.1-0.1,0.2-0.2,0.3-0.4C261.8,222.8,261.7,222.9,261.6,223z"/>
	<path class="st2" d="M283.5,179.4c0-0.1,0-0.2,0.1-0.2C283.5,179.2,283.5,179.3,283.5,179.4z"/>
	<path class="st2" d="M284.2,176.8c0-0.1,0.1-0.2,0.1-0.3C284.2,176.7,284.2,176.7,284.2,176.8z"/>
	<path class="st2" d="M278.4,193.7c0-0.1,0.1-0.2,0.1-0.3C278.5,193.5,278.5,193.6,278.4,193.7z"/>
	<path class="st2" d="M277.1,196.8c0.1-0.1,0.1-0.2,0.2-0.4C277.2,196.5,277.1,196.7,277.1,196.8z"/>
	<path class="st2" d="M284.8,174.4c0-0.1,0.1-0.2,0.1-0.3C284.9,174.2,284.9,174.3,284.8,174.4z"/>
	<path class="st2" d="M279.7,190.6c0-0.1,0.1-0.1,0.1-0.2C279.7,190.5,279.7,190.5,279.7,190.6z"/>
	<path class="st2" d="M280.8,187.6c0,0,0-0.1,0-0.1C280.8,187.5,280.8,187.6,280.8,187.6z"/>
	<path class="st2" d="M282.7,182.1c0-0.1,0-0.1,0.1-0.2C282.7,181.9,282.7,182,282.7,182.1z"/>
	<path class="st2" d="M285.9,169.8c0-0.1,0-0.2,0.1-0.3C286,169.6,285.9,169.7,285.9,169.8z"/>
	<path class="st2" d="M275.6,200c0.1-0.1,0.1-0.3,0.2-0.4C275.7,199.7,275.7,199.8,275.6,200z"/>
	<path class="st2" d="M272.3,206.4c0.1-0.1,0.2-0.3,0.2-0.4C272.5,206.2,272.4,206.3,272.3,206.4z"/>
	<path class="st2" d="M270.4,209.7c0.1-0.2,0.2-0.3,0.3-0.5C270.6,209.4,270.5,209.6,270.4,209.7z"/>
	<path class="st2" d="M286.3,167.7c0-0.1,0-0.2,0.1-0.3C286.4,167.5,286.4,167.6,286.3,167.7z"/>
	<path class="st2" d="M285.4,172c0-0.1,0-0.2,0.1-0.3C285.5,171.8,285.4,171.9,285.4,172z"/>
	<path class="st2" d="M274,203.2c0.1-0.1,0.1-0.3,0.2-0.4C274.2,202.9,274.1,203,274,203.2z"/>
	<path class="st2" d="M286.7,165.7c0-0.1,0-0.2,0-0.3C286.7,165.5,286.7,165.6,286.7,165.7z"/>
	<path class="st3" d="M212.9,158.2c0,0-15.6,5.3-4.1-74.8c0,0,61.1,1.4,80.3,0c0,0,17.8,75.3-0.3,74.3L212.9,158.2z"/>
	<path class="st4" d="M293.7,81.4l-16.9-1.1c-0.3,1.9,1.4,3.5,5.2,4.2l-0.4,3.4c-0.1,0.6,0.6,1.2,1.4,1.2l2.4,0.2
		c0.9,0.1,1.7-0.4,1.7-1l0.4-3.4C294.1,84.7,293.7,81.4,293.7,81.4z"/>
	<ellipse class="st5" cx="284.4" cy="88" rx="3.5" ry="2.4"/>
	<path class="st3" d="M278.3,81.9l13.2,0.8c0.5,0,0.9-0.2,1-0.5c1-4.3,4.4-32.4,11-44.7c0.2-0.4-0.1-0.7-0.6-0.9l-12.2-2.4
		c-0.5-0.1-1.1,0.1-1.2,0.5c-1.3,3.7-7.2,20.5-12.1,46.4C277.4,81.5,277.8,81.8,278.3,81.9z"/>
	<g>
		<polygon class="st6" points="294,81.4 293.5,81.3 293.7,79.8 277.4,78.6 277.2,80.3 276.6,80.3 276.9,78.2 294.3,79.4 		"/>
	</g>
	<path class="st4" d="M204.2,80.8l16.9-1.1c0.3,1.9-1.4,3.5-5.2,4.2l0.4,3.4c0.1,0.6-0.6,1.2-1.4,1.2l-2.4,0.2
		c-0.9,0.1-1.7-0.4-1.7-1l-0.4-3.4C203.9,84.1,204.2,80.8,204.2,80.8z"/>
	<ellipse class="st5" cx="213.6" cy="87.4" rx="3.5" ry="2.4"/>
	<path class="st3" d="M219.6,81.2L206.4,82c-0.5,0-0.9-0.2-1-0.5c-1-4.3-4.4-32.4-11-44.7c-0.2-0.4,0.1-0.7,0.6-0.9l12.2-2.4
		c0.5-0.1,1.1,0.1,1.2,0.5c1.3,3.7,7.2,20.5,12.1,46.4C220.6,80.9,220.2,81.2,219.6,81.2z"/>
	<g>
		<polygon class="st6" points="204,80.8 204.5,80.7 204.3,79.2 220.6,78 220.8,79.7 221.4,79.7 221.1,77.6 203.7,78.8 		"/>
	</g>
	<path class="st1" d="M210.9,157.9c0,0,33.1,4.1,78-0.2c0,0,4-0.7,5.1-2.8c0,0-4.5,1.9-14.7,2.4c-24.3,1.2-68.3,1.3-71-2.2
		C208.3,155.1,208.7,156.8,210.9,157.9z"/>
	<g>
		<path class="st7" d="M215.3,163.8c-1.6-5.5-0.1-10.6,0-10.8l6.3,0.9l-3.2-0.5l3.2,0.5c0,0-1.3,4.5,0,9L215.3,163.8z"/>
	</g>
	<g>
		<path class="st7" d="M285.9,164.1l-6.4-0.4c0.5-3.5-0.8-9.4-0.8-9.5l6.4-0.7C285.1,153.8,286.5,160,285.9,164.1z"/>
	</g>
	<path class="st1" d="M233.5,115.9c0,0-4.7,10.7-1.2,17.1c0,0,20.9,3.9,38.6,0.8c0,0,1.2-8-2.2-18.7L233.5,115.9z"/>
	<path class="st7" d="M232.1,114.9c0,0-3.5,11.5,0,17.9c0,0,19.7,3.1,37.4,0c0,0,2.6-7.1-0.8-17.9H232.1z"/>
</g>
</svg>
