<?xml version="1.0" encoding="utf-8"?>
<!-- Generator: Adobe Illustrator 24.0.2, SVG Export Plug-In . SVG Version: 6.00 Build 0)  -->
<svg version="1.1" id="Layer_1" xmlns="http://www.w3.org/2000/svg" xmlns:xlink="http://www.w3.org/1999/xlink" x="0px" y="0px"
	 viewBox="0 0 500 500" style="enable-background:new 0 0 500 500;" xml:space="preserve">
<style type="text/css">
	.st0{fill:#17176C;}
	.st1{fill:#1C1C85;}
	.st2{fill:#2424AA;}
	.st3{fill:#3D6A9D;}
	.st4{fill:#4283BA;}
</style>
<g>
	<path class="st0" d="M431.1,173.8l-0.6,5.5l-19.1,172.2l-1.1,10.1c0,0-35.3,2-86,33.2c-50.7,31.2-82.8,37.2-159.2,37.3
		c-67.3,0.1-78.5-23.2-78.5-23.2l-0.9-9.1l-6-29.6L430.8,174L431.1,173.8z"/>
	<path class="st1" d="M430.8,174l-0.3,5.3l-19.1,172.2c-16.8,7.7-50.9,11.3-87,33.5c-50.7,31.2-82.8,37.2-159.2,37.3
		c-46.3,0.1-69.5-13.9-79.5-22.5l-6-29.6L430.8,174z"/>
	<path class="st2" d="M432.6,158.7c-0.5,31.1-13.1,44.2-36.7,63.4c-23.5,19.2-47.7,65.6-76.5,115.5c-20.8,36.2-45.3,49.6-99.2,55.4
		c-73.6,7.9-140.5-19.6-140.5-19.6l0.3-17.2c0.1-6.9,2.7-13.5,7-18.6c2.3-2.7,5.2-5,8.5-6.8l60.2-36.8c0,0,0.4,0.1,1.1,0.1
		c4.3,0.4,20.6,1.3,36.4-9.5c18.5-12.6,45.6-49.1,92.2-112c44.7-60.3,77.2-85.5,99-97.5c3.4-1.8,7.1-2.1,10.5-1.1
		c3.2,1,6,3.1,7.8,6.2C413.3,98.7,432.9,135.9,432.6,158.7z"/>
	<path class="st3" d="M129.9,377.4c0,0-16.5-2.1-30.4-5.9c-8.1-2.2-12.9-4.3-15.5-5.7c-0.2-0.1-0.4-0.2-0.6-0.3l0.1-8.2
		c0.1-6.1,1.6-12.8,6.5-16.2c3.2-2.2,8.2-2.3,14-1.8c14,1.2,20.6,9.3,23.6,17.6C131.3,366.9,129.9,377.4,129.9,377.4z"/>
	<path class="st3" d="M394.9,74.1c-0.1,8.7-9.2,23.6-20.4,48c-4.8,10.5-12.4,26.5-21.4,44.6c-23.1,46.3-55.8,107-76.7,128.7
		c-13.5,14-30.1,20.8-49.2,21.3c-11.5,0.3-23.8-1.6-37-5.5c-20.1-6-29.3-12.5-33.5-17c4.3,0.4,20.6,1.3,36.4-9.5
		c18.5-12.6,45.6-49.1,92.2-112c44.7-60.3,77.2-85.5,99-97.5C387.8,73.3,391.5,73,394.9,74.1z"/>
	<path class="st4" d="M353.1,166.7c-23.1,46.3-55.8,107-76.7,128.7c-13.5,14-30.1,20.8-49.2,21.3c21.5-19.3,40.3-49.6,75.9-103.4
		C320.7,186.8,338.5,172.3,353.1,166.7z"/>
	<path class="st4" d="M129.9,377.4c0,0-16.5-2.1-30.4-5.9c-8.1-2.2-12.9-4.3-15.5-5.7l43.6-8.9C131.3,366.9,129.9,377.4,129.9,377.4
		z"/>
</g>
</svg>
