<?xml version="1.0" encoding="utf-8"?>
<!-- Generator: Adobe Illustrator 24.0.2, SVG Export Plug-In . SVG Version: 6.00 Build 0)  -->
<svg version="1.1" id="Layer_1" xmlns="http://www.w3.org/2000/svg" xmlns:xlink="http://www.w3.org/1999/xlink" x="0px" y="0px"
	 viewBox="0 0 500 500" style="enable-background:new 0 0 500 500;" xml:space="preserve">
<style type="text/css">
	.st0{fill-rule:evenodd;clip-rule:evenodd;fill:#4F5179;}
	.st1{fill-rule:evenodd;clip-rule:evenodd;fill:#33344F;}
</style>
<g>
	<path class="st0" d="M209.3,15.8l-2.4,1.2c0,0,2.5,21.1,3,28.2c0.5,7.1,2.2,21.9,0.7,26c-1.5,4-15.3,21.8-19.6,23.1s-3.7,4-3.9,9.1
		c-0.2,5.1-1.5,21-1.8,31.8c-0.4,10.8,2,35.3,2.9,41.3c0.9,5.9,5.5,12,3.9,14.9c-1.6,3-7.5,23-7.8,29.1c-0.3,6.2-4.4,57.6-4,83.6
		c0.5,26-1.5,91.2-2.8,114.1c-1.3,22.9-1.8,60.2-2.1,65.2c-0.3,5-3.4,5.5,1,6c4.4,0.5,40.7,3.9,45.9,5c5.2,1,3.6-2.1,4.2-6.3
		c0.5-4.2,6-61.8,7.6-76.4c1.6-14.6,4.2-55,5-69.1c0.8-14.1,3.6-37.8,4.7-33.9c1,3.9,5.2,23.7,7.3,33.6c2.1,9.9,11.5,58.1,12.3,72.5
		c0.8,14.3,9.4,66.2,9.4,71.9c0,5.7-0.8,7.6,5.5,5.5c6.3-2.1,33.1-3.9,39.1-3.9c6,0,6-0.3,5.2-7c-0.8-6.8-3.1-57.1-3.1-70.9
		c0-13.8-1.3-76.6-1.3-100.9c0-24.2-3.7-79-7.8-94.9c-4.2-15.9-7.3-19-6.5-28.4c0.8-9.4,6-43,6.5-55.8c0.5-12.8-1.6-28.7-2.6-33.6
		c-1-5-7.3-9.1-12.2-16.3c-4.9-7.1-7-9.1-6.5-21.8c0.4-12.8,1-26.1,1.5-31.1c0.5-5,1.5-12.1,1.5-12.1l-2.6-0.5c0,0-2,7.4-2.6,13.5
		c-0.6,6.1-1.2,6.5-2.6,16.5c-1.4,9.9-4.8,25.6-5.3,29.3c-0.6,3.6-1,4.6-1,4.6s-10.9,11.6-28.6,12.9C230.7,93,220,77.4,220,77.4
		s-4.3-24.4-6.2-35.9C212,30.1,210.2,22.5,209.3,15.8L209.3,15.8z M213.9,55.8c0.4,5,2.2,18.2,2.2,18.2l-2.5-2.1
		c0,0,0.7-3.5,0.7-5.6S213.9,55.8,213.9,55.8L213.9,55.8z M286.4,48.4c0,0-1.6,15.2-1.2,17.7c0.4,2.5,0.8,4.9,0.8,4.9l-3.6,3.5
		C282.4,74.5,284.9,56.1,286.4,48.4z"/>
	<path class="st1" d="M220,77.4c0,0-4.3-24.4-6.2-35.9c-1.8-11.5-3.6-19-4.5-25.8l4.6,40.1c0.4,4.9,2.1,17.4,2.2,18.2l0,0l0,0
		L220,77.4z"/>
	<path class="st1" d="M289.3,15c0,0-1.6,7.4-2.6,13.5c-1.1,6.1-1.1,8.2-2.8,17.2c-1.6,9-4.6,24.9-5.2,28.5c-0.6,3.6-1,4.6-1,4.6
		l4.6-4.3c0,0,2.5-18.4,4-26.1L289.3,15z"/>
	<path class="st1" d="M191.8,186.5c-1.1-0.1-1.9,8.2-0.9,8.9c45.2,19.7,90.2,8.9,113.1-0.4c1.1-0.3,0.5-10.2-0.4-9.9
		C254.2,206.5,211.6,193.8,191.8,186.5z"/>
	<path class="st1" d="M215.8,80.6c2.8,17,3.1,109.5,2.8,112.3C218.3,195.7,225.7,128.8,215.8,80.6z"/>
	<path class="st1" d="M235.5,96.7c0,0,3.7,18.8,3.7,25.3C239.3,128.5,242.3,111.8,235.5,96.7z"/>
	<path class="st1" d="M246.3,97.9c0,0,4.3,33.3,3.4,51.2c-0.9,17.9-6.5,39.5-5.6,43.2c0.9,3.7,2.7,6.5,1.9,3.1
		c-0.8-3.4,0.4-12.3,3.2-6.5c2.8,5.7,4.6,8.9,4.6,8.9s-1-6.9-3.6-9.9c-2.6-3-4.6,0-3-6.9c1.6-6.9,5.9-36.5,7.1-48.9
		c1.2-12.5,1.8-25.4,0.2-30.1c-1.6-4.8-0.6,0.6-0.2,6.9C254.8,115.2,254.4,130.7,246.3,97.9z"/>
	<path class="st1" d="M277.6,82.5c0,0-6.1,9.5-9.3,9.5c-3.2,0-4.4,7.7-5.5,5.2c-1.2-2.6-0.6,2.6-1.2,6.9c-0.6,4.4,2.4-3.2,6.1-7.7
		c3.8-4.6,10.9-13.1,9.9-10.3c-1,2.8-6.9,52.5-6.9,64c0,11.5,1.2,35.3,1.4,39.8c0.2,4.6,0.6,5.7,0.8-5.7c0.2-11.5,1.6-55.5,3.6-69.3
		C278.4,100.9,280.7,78.7,277.6,82.5z"/>
	<path class="st1" d="M285.7,76.8c0,0-1.6,13.7-1.6,20s2.2-17.8,2.8-14.5c0.6,3.4,5,14.3,4,9.5C289.9,87.1,287.9,83.1,285.7,76.8z"
		/>
	<path class="st1" d="M188,124.5c-0.4,5.5,2.8,34.9,5.5,42.8c2.8,7.9,3.2,19.6,3.2,19.6s-0.4-13.5-2.2-21
		C192.8,158.4,189.8,141.8,188,124.5z"/>
	<path class="st1" d="M212.8,179c0,0-2.4,12.1,0.8,15.3C216.7,197.4,211.8,190.9,212.8,179z"/>
	<path class="st1" d="M303.1,162c-1,4-8.7,23.2-11.7,26.9C288.5,192.7,299.4,184.2,303.1,162z"/>
	<path class="st1" d="M200.4,203.8c-1.2,3.1-13,28.2-15.4,32C182.6,239.6,196.3,221.8,200.4,203.8z"/>
	<path class="st1" d="M216.2,202.6c0,5,1.2,20.9,0.5,28.9C216,239.6,214.8,212.6,216.2,202.6z"/>
	<path class="st1" d="M225.3,203.6c0,0,6.9,28.7,6.4,37.2C231.2,249.3,227.2,216.4,225.3,203.6z"/>
	<path class="st1" d="M270.3,202.8c0,0,2.6,17.3,0.5,29.6C268.7,244.8,270.8,214.7,270.3,202.8z"/>
	<path class="st1" d="M265.6,213.3c0,6.6,1.2,65.5,1.7,77.1C267.7,302,261.3,233.7,265.6,213.3z"/>
	<path class="st1" d="M292.6,198.8c1.4,3.3,10.4,16.8,9.7,29.4c-0.7,12.6,1.4,24.9,3.6,30.6c2.1,5.7-0.5,10.2-0.5,10.2
		s0.7-3.8-2.4-12.3C300,248.1,304,228.2,292.6,198.8z"/>
	<path class="st0" d="M192,187.3c-1.1-0.1-1.9,5.8-0.9,6.5c45.2,19.7,90,8.7,112.9-0.6c1.1-0.3,0.7-7.3-0.2-7.1
		C254.4,209.2,211.8,195.6,192,187.3z"/>
	<path class="st1" d="M241.5,199.6c1.6,3,4.7,17.2,5.3,26.5c0.6,9.3,0.1,30.1-0.1,33c-0.2,2.9,6.6,4.9,6.7,1.8
		c0.1-3,1.3-28.6,1.6-37.3c0.3-8.7-5-20.9-7.1-24C245.9,196.6,240.8,196.7,241.5,199.6z"/>
	<path class="st0" d="M242.5,198.6c1.6,3,4.7,17.2,5.3,26.5c0.6,9.3-0.2,30.1-0.4,33c-0.2,2.9,4.6,4.5,4.7,1.4
		c0.1-3,0.7-24-0.1-32.4c-0.8-8.4-3-24.3-4-27.4C246.9,196.6,241.7,197.3,242.5,198.6z"/>
	<path class="st1" d="M247.8,198.4c4.3,3.4,9.4,10.8,9.2,17.9c-0.2,7.2-2.4,19.4-1.6,26.4c0.8,7,2.9,17.2,2.5,20.2
		c-0.4,3-6.3,6-6.3,2.3s-1.3-24.7-1.6-27.9c-0.3-3.1,0.4-8.9,1.7-14.5c1.2-5.6,2.6-5.4,0.5-9.7c-2.1-4.3-3.3-4.7-5.1-7
		c-0.8-1-3.6-6.2-3.6-7.4C243.4,197.2,246.5,198.2,247.8,198.4z"/>
	<path class="st0" d="M246,197.7c4.3,3.4,10.4,11.5,10.2,18.7c-0.2,7.2-2.4,19.4-1.6,26.4c0.8,7,2.7,16.9,2.3,19.9
		c-0.4,3-4.9,3.1-4.9-0.6s-0.9-21.6-1.2-24.7c-0.3-3.1,0.3-8.9,1.5-14.5c1.2-5.6,2.7-6,0.6-10.2c-2.1-4.3-6.7-10.1-8.6-12.5
		C242.6,197.9,243.5,197.3,246,197.7z"/>
</g>
</svg>
