<?xml version="1.0" encoding="utf-8"?>
<!-- Generator: Adobe Illustrator 24.0.2, SVG Export Plug-In . SVG Version: 6.00 Build 0)  -->
<svg version="1.1" id="Capa_1" xmlns="http://www.w3.org/2000/svg" xmlns:xlink="http://www.w3.org/1999/xlink" x="0px" y="0px"
	 viewBox="0 0 512 512" style="enable-background:new 0 0 512 512;" xml:space="preserve">
<style type="text/css">
	.st0{fill:#F8C0CD;}
	.st1{fill:#F4A8BD;}
</style>
<path class="st0" d="M353.1,55c-30.3,0-58.3,9.9-80.9,26.6c-9.1,6.8-21.3,6.8-30.4,0C219.2,64.9,191.2,55,160.9,55
	C85.7,55,24.8,116,24.8,191.1c0,99.5,111.5,218.2,217.5,273c9.2,4.8,20.2,4.8,29.4,0c106-54.9,217.5-173.6,217.5-273
	C489.2,116,428.3,55,353.1,55z"/>
<path class="st1" d="M143.9,182.4c0-47.9,19.2-91.2,50.4-122.8c-10.7-2.7-21.8-4.6-33.3-4.6C85.7,55,24.8,116,24.8,191.1
	c0,99.5,111.5,218.2,217.5,273c9.2,4.8,20.2,4.8,29.4,0c9.4-4.9,18.8-10.4,28.2-16.2C212.5,371.2,143.9,270.9,143.9,182.4z"/>
</svg>
