<?xml version="1.0" encoding="utf-8"?>
<!-- Generator: Adobe Illustrator 24.0.2, SVG Export Plug-In . SVG Version: 6.00 Build 0)  -->
<svg version="1.1" id="Layer_1" xmlns="http://www.w3.org/2000/svg" xmlns:xlink="http://www.w3.org/1999/xlink" x="0px" y="0px"
	 viewBox="0 0 500 500" style="enable-background:new 0 0 500 500;" xml:space="preserve">
<style type="text/css">
	.st0{fill:#264E5A;}
	.st1{fill:#0E6378;}
	.st2{fill:#0F5561;}
	.st3{fill:#0682A2;}
	.st4{fill:#398EB1;}
	.st5{fill:#115B73;}
	.st6{fill:#0492B5;}
	.st7{fill:#0F4756;}
	.st8{fill:#F5F3B5;}
	.st9{fill:#F5F8DF;}
	.st10{fill:#3DA6C0;}
</style>
<g>
	<polygon class="st0" points="183.6,61.8 179.4,61 181.3,65.1 	"/>
	<polygon class="st0" points="319.9,63.8 323.4,63 323.4,67.9 321,67.9 	"/>
	<path class="st1" d="M266.7,464.3l-19.3-237.7l-0.4,4.8l-19,233.9C241.4,465.4,254.4,465,266.7,464.3z"/>
	<path class="st2" d="M266.7,464.3l-19.3-237.7L228,465.4C241.4,465.4,254.4,465,266.7,464.3z"/>
	<path class="st3" d="M266.7,478.4c54-3.2,94.2-12.6,94.2-12.6s-10.2-69.8-16.8-232.7C337.7,70.3,306,24.7,306,24.7
		c-67.9,27-114.2,0-114.2,0s-11.1,35.8-15.1,54.9c-4.4,21-54.9,386.2-54.9,386.2c34.6,9.9,71.7,13.4,106.3,13.6l19.4-252.8
		L266.7,478.4z"/>
	<g>
		<path class="st4" d="M317,49.5C317,49.5,317,49.5,317,49.5c-6.1-17.7-11-24.9-10.9-24.7c0,0,0-0.1,0-0.1c-67.9,27-114.2,0-114.2,0
			s-3.9,12.5-7.9,26.7C200.6,57.3,250.2,70.5,317,49.5z"/>
	</g>
	<g>
		<path class="st5" d="M183.9,51.4c5.4,1.7,10.8,3.1,16.4,4.2c2.7,0.6,5.5,1.1,8.3,1.6c2.8,0.4,5.6,0.9,8.3,1.2
			c11.2,1.4,22.4,1.9,33.6,1.6c11.2-0.2,22.4-1.5,33.5-3.2l8.3-1.4l8.2-1.8l4.1-0.9l4.1-1.1l8.2-2.1c-10.7,3.5-21.6,6.7-32.7,8.6
			c-11.1,2-22.4,3.3-33.7,3.6c-11.3,0.2-22.7-0.4-33.9-2C205.5,58.1,194.5,55.4,183.9,51.4z"/>
	</g>
	<g>
		<path class="st4" d="M317,49.5C317,49.5,317,49.5,317,49.5c-6.1-17.7-11-24.9-10.9-24.7c0,0,0-0.1,0-0.1
			c-71.9,23.8-114.2,0-114.2,0s-3.9,12.5-7.9,26.7C200.6,57.3,250.2,70.5,317,49.5z"/>
	</g>
	<path class="st6" d="M191.8,24.7c0,0-11.1,35.8-15.1,54.9c-4.4,21-54.9,386.2-54.9,386.2c19.4,5.6,39.7,9.1,59.9,11.2
		c-5.9-80,31.5-254.7,22.7-306c-7.3-42.1-1.3-110.7,1.9-140.8C197.1,27.3,191.8,24.7,191.8,24.7z"/>
	<g>
		<path class="st5" d="M183.9,51.4c5.4,1.7,10.8,3.1,16.4,4.2c2.7,0.6,5.5,1.1,8.3,1.6c2.8,0.4,5.6,0.9,8.3,1.2
			c11.2,1.4,22.4,1.9,33.6,1.6c11.2-0.2,22.4-1.5,33.5-3.2l8.3-1.4l8.2-1.8l4.1-0.9l4.1-1.1l8.2-2.1c-10.7,3.5-21.6,6.7-32.7,8.6
			c-11.1,2-22.4,3.3-33.7,3.6c-11.3,0.2-22.7-0.4-33.9-2C205.5,58.1,194.5,55.4,183.9,51.4z"/>
	</g>
	<path class="st5" d="M176.7,79.6c0,0.1,0,0.2-0.1,0.4l34.7,19.8l8.6-15.1L179.4,61C177.7,67.2,177.7,74.7,176.7,79.6z"/>
	<path class="st7" d="M216.8,82.8L209,96.5l-32.1-18.3c-0.1,0.4-0.1,0.9-0.2,1.3c0,0.1,0,0.2-0.1,0.4l34.7,19.8l8.6-15.1L216.8,82.8
		z"/>
	<path class="st5" d="M323.4,63l-36.5,21.8l8.9,14.9l30.3-18.2C325.7,74.9,324.9,68.2,323.4,63z"/>
	<path class="st7" d="M297.4,96.6l-8-13.3l-2.5,1.5l8.9,14.9l30.3-18.2c0-0.7-0.1-1.3-0.1-2L297.4,96.6z"/>
	<path class="st6" d="M294.6,211.3l10.8,263.6c14.1-1.7,26.1-3.5,35.4-5.2L294.6,211.3z"/>
	<path class="st5" d="M268.2,476.7c-0.6-9.3-4-64.4-18.4-250.8c0-0.2-3.1-109.5-4.7-165c-0.3-10.3-0.5-18.7-0.7-24.3h-0.4l-0.4,20.8
		c0,1.1,0,2.3,0,3.5c-0.2,41.6,1.4,165,1.4,165.3c3.5,55.4,15.9,199.8,20.7,254.8c0,0,66.8-6.9,95.3-15.2
		C361,465.8,287.9,477.5,268.2,476.7z"/>
	<g>
		<g>
			<g>
				<path class="st2" d="M267.1,64.7c-0.2,0-0.4-0.2-0.4-0.4c-0.1-0.9-0.3-1.8-0.4-2.6c0-0.2,0.1-0.5,0.4-0.5c0.2,0,0.5,0.1,0.5,0.4
					c0.1,0.8,0.2,1.7,0.4,2.6C267.6,64.5,267.4,64.7,267.1,64.7C267.1,64.7,267.1,64.7,267.1,64.7z"/>
			</g>
			<g>
				<path class="st2" d="M305.7,464.7c-0.2,0-0.4-0.1-0.4-0.4c-0.3-1.7-0.6-3.4-0.9-5.1c0-0.2,0.1-0.5,0.3-0.5
					c0.2,0,0.5,0.1,0.5,0.4c0.3,1.7,0.6,3.4,0.9,5.1C306.1,464.4,306,464.6,305.7,464.7C305.7,464.7,305.7,464.7,305.7,464.7z
					 M303.8,454.5c-0.2,0-0.4-0.1-0.4-0.4c-0.3-1.7-0.6-3.4-0.9-5.1c0-0.2,0.1-0.5,0.4-0.5c0.2,0,0.5,0.1,0.5,0.4
					c0.3,1.7,0.6,3.4,0.9,5.1C304.3,454.2,304.1,454.5,303.8,454.5C303.9,454.5,303.8,454.5,303.8,454.5z M302.1,444.3
					c-0.2,0-0.4-0.2-0.4-0.4c-0.3-1.7-0.5-3.4-0.8-5.1c0-0.2,0.1-0.5,0.4-0.5c0.2,0,0.5,0.1,0.5,0.4c0.3,1.7,0.5,3.4,0.8,5.1
					C302.6,444.1,302.4,444.3,302.1,444.3C302.2,444.3,302.1,444.3,302.1,444.3z M300.5,434.1c-0.2,0-0.4-0.2-0.4-0.4
					c-0.3-1.7-0.5-3.4-0.8-5.1c0-0.2,0.1-0.5,0.4-0.5c0.2,0,0.5,0.1,0.5,0.4c0.2,1.7,0.5,3.4,0.8,5.1
					C301,433.9,300.8,434.1,300.5,434.1C300.6,434.1,300.5,434.1,300.5,434.1z M299,423.9c-0.2,0-0.4-0.2-0.4-0.4
					c-0.2-1.7-0.5-3.4-0.7-5.1c0-0.2,0.1-0.5,0.4-0.5c0.2,0,0.5,0.1,0.5,0.4c0.2,1.7,0.5,3.4,0.7,5.1
					C299.5,423.6,299.3,423.8,299,423.9C299.1,423.9,299,423.9,299,423.9z M297.6,413.6c-0.2,0-0.4-0.2-0.4-0.4
					c-0.2-1.7-0.4-3.4-0.7-5.1c0-0.2,0.1-0.5,0.4-0.5c0.2,0,0.5,0.1,0.5,0.4c0.2,1.7,0.4,3.4,0.7,5.1
					C298.1,413.4,297.9,413.6,297.6,413.6C297.7,413.6,297.7,413.6,297.6,413.6z M296.3,403.3c-0.2,0-0.4-0.2-0.4-0.4
					c-0.2-1.7-0.4-3.4-0.6-5.1c0-0.2,0.1-0.5,0.4-0.5c0.2,0,0.5,0.1,0.5,0.4c0.2,1.7,0.4,3.4,0.6,5.1
					C296.8,403.1,296.6,403.3,296.3,403.3C296.4,403.3,296.4,403.3,296.3,403.3z M295.1,393.1c-0.2,0-0.4-0.2-0.4-0.4
					c-0.2-1.7-0.4-3.4-0.6-5.1c0-0.2,0.1-0.5,0.4-0.5c0.2,0,0.5,0.1,0.5,0.4c0.2,1.7,0.4,3.4,0.6,5.1
					C295.6,392.8,295.4,393,295.1,393.1C295.2,393.1,295.1,393.1,295.1,393.1z M294,382.8c-0.2,0-0.4-0.2-0.4-0.4
					c-0.2-1.7-0.4-3.4-0.5-5.1c0-0.2,0.1-0.5,0.4-0.5c0.2,0,0.5,0.1,0.5,0.4c0.2,1.7,0.4,3.4,0.5,5.1
					C294.4,382.5,294.3,382.7,294,382.8C294,382.8,294,382.8,294,382.8z M292.9,372.5c-0.2,0-0.4-0.2-0.4-0.4
					c-0.2-1.7-0.3-3.4-0.5-5.1c0-0.2,0.2-0.5,0.4-0.5c0.2,0,0.5,0.2,0.5,0.4c0.2,1.7,0.3,3.4,0.5,5.1
					C293.4,372.2,293.2,372.5,292.9,372.5C292.9,372.5,292.9,372.5,292.9,372.5z M291.9,362.2c-0.2,0-0.4-0.2-0.4-0.4
					c-0.2-1.7-0.3-3.4-0.5-5.1c0-0.2,0.2-0.5,0.4-0.5c0.2,0,0.4,0.2,0.5,0.4c0.2,1.7,0.3,3.4,0.5,5.1
					C292.4,361.9,292.2,362.2,291.9,362.2C291.9,362.2,291.9,362.2,291.9,362.2z M291,351.9c-0.2,0-0.4-0.2-0.4-0.4
					c-0.2-1.7-0.3-3.4-0.5-5.1c0-0.2,0.2-0.4,0.4-0.5c0.2,0,0.4,0.2,0.5,0.4c0.2,1.7,0.3,3.4,0.5,5.1
					C291.4,351.7,291.2,351.9,291,351.9C291,351.9,291,351.9,291,351.9z M290,341.6c-0.2,0-0.4-0.2-0.4-0.4l-0.4-5.1
					c0-0.2,0.2-0.4,0.4-0.5c0.2,0,0.4,0.2,0.5,0.4l0.4,5.1C290.5,341.4,290.3,341.6,290,341.6C290.1,341.6,290.1,341.6,290,341.6z
					 M289.2,331.3c-0.2,0-0.4-0.2-0.4-0.4l-0.4-5.1c0-0.2,0.2-0.4,0.4-0.5c0.2,0,0.4,0.2,0.5,0.4l0.4,5.1
					C289.6,331.1,289.5,331.3,289.2,331.3C289.2,331.3,289.2,331.3,289.2,331.3z M288.4,321c-0.2,0-0.4-0.2-0.4-0.4l-0.4-5.1
					c0-0.2,0.2-0.4,0.4-0.5c0.2,0,0.4,0.2,0.5,0.4l0.4,5.1C288.8,320.8,288.6,321,288.4,321C288.4,321,288.4,321,288.4,321z
					 M287.6,310.7c-0.2,0-0.4-0.2-0.4-0.4l-0.4-5.1c0-0.2,0.2-0.4,0.4-0.5c0.2,0,0.4,0.2,0.5,0.4l0.4,5.1
					C288,310.5,287.9,310.7,287.6,310.7C287.6,310.7,287.6,310.7,287.6,310.7z M286.8,300.4c-0.2,0-0.4-0.2-0.4-0.4l-0.4-5.1
					c0-0.2,0.2-0.4,0.4-0.5c0.2,0,0.4,0.2,0.5,0.4l0.4,5.1C287.3,300.2,287.1,300.4,286.8,300.4
					C286.9,300.4,286.8,300.4,286.8,300.4z M286.1,290.1c-0.2,0-0.4-0.2-0.4-0.4l-0.4-5.1c0-0.2,0.2-0.4,0.4-0.5
					c0.2,0,0.4,0.2,0.5,0.4l0.4,5.1C286.5,289.9,286.4,290.1,286.1,290.1C286.1,290.1,286.1,290.1,286.1,290.1z M285.4,279.9
					c-0.2,0-0.4-0.2-0.4-0.4l-0.4-5.1c0-0.2,0.2-0.4,0.4-0.5c0.3,0,0.4,0.2,0.5,0.4l0.4,5.1C285.8,279.6,285.6,279.8,285.4,279.9
					C285.4,279.9,285.4,279.9,285.4,279.9z M284.7,269.6c-0.2,0-0.4-0.2-0.4-0.4l-0.4-5.1c0-0.2,0.2-0.4,0.4-0.5
					c0.3,0,0.4,0.2,0.5,0.4l0.4,5.1C285.1,269.3,284.9,269.6,284.7,269.6C284.7,269.6,284.7,269.6,284.7,269.6z M284,259.3
					c-0.2,0-0.4-0.2-0.4-0.4l-0.4-5.1c0-0.2,0.2-0.4,0.4-0.5c0.2,0,0.4,0.2,0.5,0.4l0.4,5.1C284.4,259.1,284.2,259.3,284,259.3
					C284,259.3,284,259.3,284,259.3z M283.2,249c-0.2,0-0.4-0.2-0.4-0.4l-0.4-5.1c0-0.2,0.2-0.4,0.4-0.5c0.3,0,0.4,0.2,0.5,0.4
					l0.4,5.1C283.7,248.8,283.5,249,283.2,249C283.3,249,283.2,249,283.2,249z M282.5,238.7c-0.2,0-0.4-0.2-0.4-0.4l-0.4-5.2
					c0-0.2,0.2-0.4,0.4-0.5c0.2,0,0.4,0.2,0.5,0.4l0.4,5.2C283,238.5,282.8,238.7,282.5,238.7C282.5,238.7,282.5,238.7,282.5,238.7z
					 M281.8,228.4c-0.2,0-0.4-0.2-0.4-0.4l-0.4-5.1c0-0.2,0.2-0.4,0.4-0.5c0.2,0,0.4,0.2,0.5,0.4l0.4,5.2
					C282.2,228.2,282.1,228.4,281.8,228.4C281.8,228.4,281.8,228.4,281.8,228.4z M281,218.1c-0.2,0-0.4-0.2-0.4-0.4l-0.4-5.2
					c0-0.2,0.2-0.4,0.4-0.5c0.2,0,0.4,0.2,0.5,0.4l0.4,5.2C281.5,217.9,281.3,218.1,281,218.1C281,218.1,281,218.1,281,218.1z
					 M280.2,207.8c-0.2,0-0.4-0.2-0.4-0.4c-0.1-1.7-0.3-3.4-0.4-5.1c0-0.2,0.2-0.4,0.4-0.5c0.2,0,0.4,0.2,0.5,0.4
					c0.1,1.7,0.3,3.4,0.4,5.1C280.7,207.6,280.5,207.8,280.2,207.8C280.3,207.8,280.3,207.8,280.2,207.8z M279.4,197.6
					c-0.2,0-0.4-0.2-0.4-0.4c-0.1-1.7-0.3-3.4-0.4-5.2c0-0.2,0.2-0.4,0.4-0.5c0.2,0,0.4,0.2,0.5,0.4c0.1,1.7,0.3,3.4,0.4,5.2
					C279.9,197.3,279.7,197.5,279.4,197.6C279.4,197.6,279.4,197.6,279.4,197.6z M278.7,187.2c-0.2,0-0.4-0.2-0.4-0.4
					c-0.1-1.7-0.2-3.4-0.4-5.2c0-0.2,0.2-0.4,0.4-0.5c0.2,0,0.4,0.2,0.5,0.4c0.1,1.7,0.2,3.4,0.4,5.2
					C279.1,187,278.9,187.2,278.7,187.2C278.7,187.2,278.7,187.2,278.7,187.2z M277.9,176.9c-0.2,0-0.4-0.2-0.4-0.4l-0.3-5.2
					c0-0.2,0.2-0.4,0.4-0.5c0.2,0,0.4,0.2,0.5,0.4l0.3,5.2C278.4,176.7,278.2,176.9,277.9,176.9C278,176.9,278,176.9,277.9,176.9z
					 M277.3,166.6c-0.2,0-0.4-0.2-0.4-0.4l-0.3-5.2c0-0.2,0.2-0.4,0.4-0.5c0.2,0,0.4,0.2,0.5,0.4l0.3,5.2
					C277.7,166.4,277.5,166.6,277.3,166.6C277.3,166.6,277.3,166.6,277.3,166.6z M276.6,156.3c-0.2,0-0.4-0.2-0.4-0.4
					c-0.1-1.7-0.2-3.4-0.4-5.2c0-0.2,0.2-0.4,0.4-0.5c0.2,0,0.4,0.2,0.5,0.4c0.1,1.7,0.2,3.4,0.4,5.2
					C277,156.1,276.8,156.3,276.6,156.3C276.6,156.3,276.6,156.3,276.6,156.3z M275.8,146c-0.2,0-0.4-0.2-0.4-0.4
					c-0.1-1.7-0.3-3.4-0.4-5.1c0-0.2,0.2-0.4,0.4-0.5c0.2,0,0.4,0.2,0.5,0.4c0.1,1.7,0.3,3.4,0.4,5.1
					C276.3,145.8,276.1,146,275.8,146C275.8,146,275.8,146,275.8,146z M275.1,135.7c-0.2,0-0.4-0.2-0.4-0.4
					c-0.1-1.4-0.2-3.1-0.4-5.1c0-0.2,0.2-0.4,0.4-0.5c0.2,0,0.4,0.2,0.5,0.4c0.2,2,0.3,3.8,0.4,5.2
					C275.5,135.5,275.4,135.7,275.1,135.7C275.1,135.7,275.1,135.7,275.1,135.7z M274.3,125.4c-0.2,0-0.4-0.2-0.4-0.4
					c-0.2-1.6-0.3-3.3-0.5-5.1c0-0.2,0.1-0.5,0.4-0.5c0.2,0,0.5,0.1,0.5,0.4c0.2,1.8,0.3,3.5,0.5,5.1
					C274.7,125.2,274.6,125.4,274.3,125.4C274.3,125.4,274.3,125.4,274.3,125.4z M273.2,115.1c-0.2,0-0.4-0.2-0.4-0.4
					c-0.2-1.7-0.4-3.4-0.5-5.1c0-0.2,0.1-0.5,0.4-0.5c0.2,0,0.5,0.1,0.5,0.4c0.2,1.7,0.4,3.5,0.5,5.1
					C273.7,114.9,273.5,115.1,273.2,115.1C273.3,115.1,273.3,115.1,273.2,115.1z M272.1,104.9c-0.2,0-0.4-0.2-0.4-0.4
					c-0.2-1.7-0.4-3.4-0.6-5.1c0-0.2,0.1-0.5,0.4-0.5c0.2,0,0.5,0.1,0.5,0.4c0.2,1.7,0.4,3.4,0.6,5.1
					C272.6,104.6,272.4,104.8,272.1,104.9C272.2,104.9,272.2,104.9,272.1,104.9z M271,94.6c-0.2,0-0.4-0.2-0.4-0.4
					c-0.2-1.7-0.4-3.4-0.6-5.1c0-0.2,0.1-0.5,0.4-0.5c0.2,0,0.5,0.1,0.5,0.4c0.2,1.7,0.4,3.4,0.6,5.1
					C271.4,94.3,271.3,94.6,271,94.6C271,94.6,271,94.6,271,94.6z M269.7,84.3c-0.2,0-0.4-0.2-0.4-0.4c-0.2-1.7-0.4-3.5-0.6-5.1
					c0-0.2,0.1-0.5,0.4-0.5c0.2,0,0.5,0.1,0.5,0.4c0.2,1.7,0.4,3.4,0.6,5.1C270.2,84.1,270,84.3,269.7,84.3
					C269.8,84.3,269.8,84.3,269.7,84.3z M268.5,74.1c-0.2,0-0.4-0.2-0.4-0.4c-0.2-1.8-0.5-3.5-0.7-5.1c0-0.2,0.1-0.5,0.4-0.5
					c0.2,0,0.5,0.1,0.5,0.4c0.2,1.6,0.4,3.3,0.7,5.1C268.9,73.8,268.8,74,268.5,74.1C268.5,74.1,268.5,74.1,268.5,74.1z"/>
			</g>
			<g>
				<path class="st2" d="M307.1,472.2c-0.2,0-0.4-0.1-0.4-0.4l-0.5-2.6c0-0.2,0.1-0.5,0.3-0.5c0.2-0.1,0.5,0.1,0.5,0.3l0.5,2.5
					C307.6,471.9,307.4,472.1,307.1,472.2C307.1,472.2,307.1,472.2,307.1,472.2z"/>
			</g>
		</g>
		<g>
			<g>
				<path class="st2" d="M269.8,64.4c-0.2,0-0.4-0.2-0.4-0.4l-0.3-2.6c0-0.2,0.1-0.5,0.4-0.5c0.2-0.1,0.5,0.1,0.5,0.4l0.3,2.6
					C270.2,64.2,270,64.4,269.8,64.4C269.8,64.4,269.8,64.4,269.8,64.4z"/>
			</g>
			<g>
				<path class="st2" d="M310.3,463.5c-0.2,0-0.4-0.2-0.4-0.4c-0.3-1.7-0.5-3.4-0.8-5.1c0-0.2,0.1-0.5,0.4-0.5
					c0.2,0,0.5,0.1,0.5,0.4c0.3,1.7,0.5,3.4,0.8,5.1C310.8,463.2,310.6,463.4,310.3,463.5C310.4,463.5,310.4,463.5,310.3,463.5z
					 M308.8,453.3c-0.2,0-0.4-0.2-0.4-0.4c-0.2-1.7-0.5-3.4-0.7-5.1c0-0.2,0.1-0.5,0.4-0.5c0.2,0,0.5,0.1,0.5,0.4
					c0.2,1.7,0.5,3.4,0.7,5.1C309.3,453,309.1,453.2,308.8,453.3C308.8,453.3,308.8,453.3,308.8,453.3z M307.4,443.1
					c-0.2,0-0.4-0.2-0.4-0.4c-0.2-1.7-0.4-3.4-0.7-5.1c0-0.2,0.1-0.5,0.4-0.5c0.2,0,0.5,0.1,0.5,0.4c0.2,1.7,0.4,3.4,0.7,5.1
					C307.9,442.8,307.7,443,307.4,443.1C307.4,443.1,307.4,443.1,307.4,443.1z M306.1,432.8c-0.2,0-0.4-0.2-0.4-0.4
					c-0.2-1.7-0.4-3.4-0.6-5.1c0-0.2,0.1-0.5,0.4-0.5c0.2,0,0.5,0.1,0.5,0.4c0.2,1.7,0.4,3.4,0.6,5.1
					C306.6,432.6,306.4,432.8,306.1,432.8C306.1,432.8,306.1,432.8,306.1,432.8z M304.9,422.6c-0.2,0-0.4-0.2-0.4-0.4
					c-0.2-1.7-0.4-3.4-0.6-5.1c0-0.2,0.1-0.5,0.4-0.5c0.2,0,0.5,0.1,0.5,0.4c0.2,1.7,0.4,3.4,0.6,5.1
					C305.3,422.3,305.2,422.5,304.9,422.6C304.9,422.6,304.9,422.6,304.9,422.6z M303.7,412.3c-0.2,0-0.4-0.2-0.4-0.4l-0.6-5.1
					c0-0.2,0.1-0.5,0.4-0.5c0.2,0,0.5,0.1,0.5,0.4l0.6,5.1C304.2,412.1,304,412.3,303.7,412.3C303.7,412.3,303.7,412.3,303.7,412.3z
					 M302.6,402.1c-0.2,0-0.4-0.2-0.4-0.4l-0.6-5.1c0-0.2,0.1-0.5,0.4-0.5c0.2,0,0.5,0.1,0.5,0.4l0.6,5.1
					C303,401.8,302.8,402,302.6,402.1C302.6,402.1,302.6,402.1,302.6,402.1z M301.4,391.8c-0.2,0-0.4-0.2-0.4-0.4l-0.6-5.1
					c0-0.2,0.1-0.5,0.4-0.5c0.2,0,0.5,0.1,0.5,0.4l0.6,5.1C301.9,391.6,301.7,391.8,301.4,391.8
					C301.4,391.8,301.4,391.8,301.4,391.8z M300.2,381.6c-0.2,0-0.4-0.2-0.4-0.4c-0.2-1.7-0.4-3.4-0.6-5.1c0-0.2,0.1-0.5,0.4-0.5
					c0.2,0,0.5,0.1,0.5,0.4c0.2,1.7,0.4,3.4,0.6,5.1C300.7,381.3,300.5,381.5,300.2,381.6C300.3,381.6,300.3,381.6,300.2,381.6z
					 M299,371.3c-0.2,0-0.4-0.2-0.4-0.4c-0.2-1.7-0.4-3.4-0.6-5.1c0-0.2,0.1-0.5,0.4-0.5c0.2,0,0.5,0.1,0.5,0.4
					c0.2,1.7,0.4,3.4,0.6,5.1C299.5,371.1,299.3,371.3,299,371.3C299.1,371.3,299.1,371.3,299,371.3z M297.9,361.1
					c-0.2,0-0.4-0.2-0.4-0.4c-0.2-1.7-0.4-3.4-0.6-5.1c0-0.2,0.1-0.5,0.4-0.5c0.2-0.1,0.5,0.1,0.5,0.4c0.2,1.7,0.4,3.4,0.6,5.1
					C298.3,360.8,298.2,361.1,297.9,361.1C297.9,361.1,297.9,361.1,297.9,361.1z M296.7,350.8c-0.2,0-0.4-0.2-0.4-0.4
					c-0.2-1.7-0.4-3.4-0.5-5.1c0-0.2,0.1-0.5,0.4-0.5c0.2,0,0.5,0.1,0.5,0.4c0.2,1.7,0.4,3.4,0.5,5.1
					C297.2,350.6,297,350.8,296.7,350.8C296.8,350.8,296.8,350.8,296.7,350.8z M295.7,340.6c-0.2,0-0.4-0.2-0.4-0.4
					c-0.2-1.7-0.4-3.4-0.5-5.1c0-0.2,0.1-0.5,0.4-0.5c0.2,0,0.5,0.1,0.5,0.4c0.2,1.7,0.3,3.4,0.5,5.1
					C296.1,340.3,295.9,340.6,295.7,340.6C295.7,340.6,295.7,340.6,295.7,340.6z M294.6,330.3c-0.2,0-0.4-0.2-0.4-0.4l-0.5-5.1
					c0-0.2,0.2-0.5,0.4-0.5c0.2,0,0.5,0.2,0.5,0.4l0.5,5.1C295.1,330.1,294.9,330.3,294.6,330.3
					C294.6,330.3,294.6,330.3,294.6,330.3z M293.6,320.1c-0.2,0-0.4-0.2-0.4-0.4l-0.5-5.1c0-0.2,0.2-0.5,0.4-0.5
					c0.2,0,0.4,0.2,0.5,0.4l0.5,5.1C294.1,319.8,293.9,320,293.6,320.1C293.6,320.1,293.6,320.1,293.6,320.1z M292.6,309.8
					c-0.2,0-0.4-0.2-0.4-0.4l-0.5-5.1c0-0.2,0.2-0.4,0.4-0.5c0.2,0,0.5,0.2,0.5,0.4l0.5,5.1C293.1,309.6,292.9,309.8,292.6,309.8
					C292.7,309.8,292.7,309.8,292.6,309.8z M291.7,299.5c-0.2,0-0.4-0.2-0.4-0.4l-0.5-5.1c0-0.2,0.2-0.4,0.4-0.5
					c0.2,0,0.4,0.2,0.5,0.4l0.5,5.1C292.1,299.3,292,299.5,291.7,299.5C291.7,299.5,291.7,299.5,291.7,299.5z M290.8,289.3
					c-0.2,0-0.4-0.2-0.4-0.4l-0.4-5.1c0-0.2,0.2-0.4,0.4-0.5c0.2,0,0.4,0.2,0.5,0.4l0.4,5.1C291.2,289,291.1,289.2,290.8,289.3
					C290.8,289.3,290.8,289.3,290.8,289.3z M289.9,279c-0.2,0-0.4-0.2-0.4-0.4l-0.4-5.1c0-0.2,0.2-0.4,0.4-0.5
					c0.2,0,0.4,0.2,0.5,0.4l0.4,5.1C290.3,278.7,290.2,279,289.9,279C289.9,279,289.9,279,289.9,279z M289,268.7
					c-0.2,0-0.4-0.2-0.4-0.4l-0.4-5.1c0-0.2,0.2-0.4,0.4-0.5c0.2,0,0.4,0.2,0.5,0.4l0.4,5.1C289.5,268.5,289.3,268.7,289,268.7
					C289.1,268.7,289,268.7,289,268.7z M288.2,258.4c-0.2,0-0.4-0.2-0.4-0.4l-0.4-5.1c0-0.2,0.2-0.4,0.4-0.5c0.2,0,0.4,0.2,0.5,0.4
					l0.4,5.1C288.6,258.2,288.5,258.4,288.2,258.4C288.2,258.4,288.2,258.4,288.2,258.4z M287.4,248.1c-0.2,0-0.4-0.2-0.4-0.4
					l-0.4-5.1c0-0.2,0.2-0.4,0.4-0.5c0.2,0,0.4,0.2,0.5,0.4l0.4,5.1C287.8,247.9,287.6,248.1,287.4,248.1
					C287.4,248.1,287.4,248.1,287.4,248.1z M286.5,237.9c-0.2,0-0.4-0.2-0.4-0.4l-0.4-5.1c0-0.2,0.2-0.4,0.4-0.5
					c0.2,0,0.4,0.2,0.5,0.4l0.4,5.1C287,237.6,286.8,237.8,286.5,237.9C286.6,237.9,286.5,237.9,286.5,237.9z M285.7,227.6
					c-0.2,0-0.4-0.2-0.4-0.4l-0.4-5.1c0-0.2,0.2-0.4,0.4-0.5c0.2,0,0.4,0.2,0.5,0.4l0.4,5.1C286.2,227.4,286,227.6,285.7,227.6
					C285.7,227.6,285.7,227.6,285.7,227.6z M284.9,217.3c-0.2,0-0.4-0.2-0.4-0.4l-0.4-5.1c0-0.2,0.2-0.4,0.4-0.5
					c0.2,0,0.4,0.2,0.5,0.4l0.4,5.2C285.4,217.1,285.2,217.3,284.9,217.3C284.9,217.3,284.9,217.3,284.9,217.3z M284.1,207
					c-0.2,0-0.4-0.2-0.4-0.4l-0.4-5.1c0-0.2,0.2-0.4,0.4-0.5c0.2,0,0.4,0.2,0.5,0.4l0.4,5.2C284.5,206.8,284.4,207,284.1,207
					C284.1,207,284.1,207,284.1,207z M283.2,196.7c-0.2,0-0.4-0.2-0.4-0.4l-0.4-5.1c0-0.2,0.2-0.4,0.4-0.5c0.2,0,0.4,0.2,0.5,0.4
					l0.4,5.1C283.7,196.5,283.5,196.7,283.2,196.7C283.2,196.7,283.2,196.7,283.2,196.7z M282.3,186.4c-0.2,0-0.4-0.2-0.4-0.4
					l-0.5-5.1c0-0.2,0.2-0.4,0.4-0.5c0.2,0,0.4,0.2,0.5,0.4l0.5,5.1C282.8,186.2,282.6,186.4,282.3,186.4
					C282.3,186.4,282.3,186.4,282.3,186.4z M281.4,176.1c-0.2,0-0.4-0.2-0.4-0.4l-0.5-5.1c0-0.2,0.2-0.5,0.4-0.5
					c0.2,0,0.4,0.2,0.5,0.4l0.5,5.1C281.8,175.9,281.6,176.1,281.4,176.1C281.4,176.1,281.4,176.1,281.4,176.1z M280.4,165.9
					c-0.2,0-0.4-0.2-0.4-0.4l-0.5-5.1c0-0.2,0.2-0.5,0.4-0.5c0.2,0,0.5,0.2,0.5,0.4l0.5,5.1C280.8,165.6,280.7,165.8,280.4,165.9
					C280.4,165.9,280.4,165.9,280.4,165.9z M279.4,155.6c-0.2,0-0.4-0.2-0.4-0.4l-0.5-5.1c0-0.2,0.2-0.5,0.4-0.5
					c0.2,0,0.5,0.2,0.5,0.4l0.5,5.1C279.9,155.3,279.7,155.6,279.4,155.6C279.4,155.6,279.4,155.6,279.4,155.6z M278.4,145.3
					c-0.2,0-0.4-0.2-0.4-0.4l-0.5-5.1c0-0.2,0.1-0.5,0.4-0.5c0.2,0,0.5,0.1,0.5,0.4l0.5,5.1C278.8,145.1,278.7,145.3,278.4,145.3
					C278.4,145.3,278.4,145.3,278.4,145.3z M277.4,135.1c-0.2,0-0.4-0.2-0.4-0.4l-0.5-5.1c0-0.2,0.1-0.5,0.4-0.5
					c0.2,0,0.5,0.1,0.5,0.4l0.5,5.1C277.8,134.8,277.6,135,277.4,135.1C277.4,135.1,277.4,135.1,277.4,135.1z M276.3,124.8
					c-0.2,0-0.4-0.2-0.4-0.4l-0.5-5.1c0-0.2,0.1-0.5,0.4-0.5c0.2,0,0.5,0.1,0.5,0.4l0.5,5.1C276.8,124.6,276.6,124.8,276.3,124.8
					C276.3,124.8,276.3,124.8,276.3,124.8z M275.2,114.5c-0.2,0-0.4-0.2-0.4-0.4l-0.5-5.1c0-0.2,0.1-0.5,0.4-0.5
					c0.2,0,0.5,0.1,0.5,0.4l0.5,5.1C275.7,114.3,275.5,114.5,275.2,114.5C275.3,114.5,275.3,114.5,275.2,114.5z M274.2,104.3
					c-0.2,0-0.4-0.2-0.4-0.4l-0.5-5.1c0-0.2,0.1-0.5,0.4-0.5c0.2,0,0.5,0.1,0.5,0.4l0.5,5.1C274.6,104.1,274.4,104.3,274.2,104.3
					C274.2,104.3,274.2,104.3,274.2,104.3z M273.1,94.1c-0.2,0-0.4-0.2-0.4-0.4l-0.5-5.1c0-0.2,0.1-0.5,0.4-0.5
					c0.2,0,0.5,0.1,0.5,0.4l0.5,5.1C273.5,93.8,273.4,94,273.1,94.1C273.1,94.1,273.1,94.1,273.1,94.1z M272,83.8
					c-0.2,0-0.4-0.2-0.4-0.4l-0.6-5.1c0-0.2,0.1-0.5,0.4-0.5c0.2,0,0.5,0.1,0.5,0.4l0.6,5.1C272.4,83.6,272.3,83.8,272,83.8
					C272,83.8,272,83.8,272,83.8z M270.9,73.6c-0.2,0-0.4-0.2-0.4-0.4l-0.6-5.1c0-0.2,0.1-0.5,0.4-0.5c0.2,0,0.5,0.1,0.5,0.4
					l0.6,5.1C271.3,73.3,271.1,73.6,270.9,73.6C270.9,73.6,270.9,73.6,270.9,73.6z"/>
			</g>
			<g>
				<path class="st2" d="M311.6,471.1c-0.2,0-0.4-0.1-0.4-0.4c-0.1-0.8-0.3-1.7-0.4-2.6c0-0.2,0.1-0.5,0.4-0.5
					c0.2,0,0.5,0.1,0.5,0.4c0.1,0.9,0.3,1.7,0.4,2.6C312.1,470.8,311.9,471,311.6,471.1C311.7,471.1,311.6,471.1,311.6,471.1z"/>
			</g>
		</g>
	</g>
	<g>
		<g>
			<g>
				<path class="st2" d="M224,64.6c0.1-0.9,0.2-1.8,0.3-2.6c0.1-0.6,0.9-0.5,0.9,0.1c-0.1,0.8-0.2,1.7-0.3,2.6
					C224.8,65.2,224,65.1,224,64.6z"/>
			</g>
			<g>
				<path class="st2" d="M193.6,465.3c0.3-1.7,0.6-3.4,0.8-5.1c0.1-0.6,0.9-0.4,0.9,0.1c-0.3,1.7-0.6,3.4-0.8,5.1
					C194.3,466,193.5,465.8,193.6,465.3z M195.2,455.1c0.3-1.7,0.5-3.4,0.8-5.1c0.1-0.6,0.9-0.4,0.9,0.1c-0.3,1.7-0.5,3.4-0.8,5.1
					C196,455.8,195.1,455.6,195.2,455.1z M196.7,444.9c0.2-1.7,0.5-3.4,0.7-5.1c0.1-0.6,0.9-0.5,0.9,0.1c-0.2,1.7-0.5,3.4-0.7,5.1
					C197.5,445.6,196.6,445.4,196.7,444.9z M198.1,434.6c0.2-1.7,0.4-3.4,0.7-5.1c0.1-0.6,0.9-0.5,0.9,0.1c-0.2,1.7-0.4,3.4-0.7,5.1
					C198.9,435.3,198,435.2,198.1,434.6z M199.4,424.4c0.2-1.7,0.4-3.4,0.6-5.1c0.1-0.6,0.9-0.5,0.9,0.1c-0.2,1.7-0.4,3.4-0.6,5.1
					C200.2,425,199.3,424.9,199.4,424.4z M201,414.6C201,414.6,201,414.6,201,414.6c-0.3,0-0.5-0.2-0.4-0.5c0.2-1.7,0.4-3.4,0.6-5.1
					c0-0.2,0.3-0.4,0.5-0.4c0.2,0,0.4,0.2,0.4,0.5c-0.2,1.7-0.4,3.4-0.6,5.1C201.4,414.4,201.2,414.6,201,414.6z M202.1,404.3
					C202.1,404.3,202.1,404.3,202.1,404.3c-0.3,0-0.5-0.2-0.4-0.5c0.2-1.7,0.3-3.4,0.5-5.1c0-0.2,0.2-0.4,0.5-0.4
					c0.2,0,0.4,0.2,0.4,0.5c-0.2,1.7-0.3,3.4-0.5,5.2C202.5,404.1,202.3,404.3,202.1,404.3z M203.1,394
					C203.1,394,203.1,394,203.1,394c-0.3,0-0.5-0.2-0.4-0.5c0.2-1.7,0.3-3.4,0.5-5.2c0.1-0.6,0.9-0.5,0.9,0.1
					c-0.2,1.7-0.3,3.4-0.5,5.2C203.5,393.8,203.3,394,203.1,394z M204,383.6C204,383.6,204,383.6,204,383.6c-0.3,0-0.5-0.2-0.4-0.5
					c0.1-1.7,0.3-3.4,0.4-5.2c0-0.6,0.9-0.5,0.9,0.1c-0.1,1.7-0.3,3.4-0.4,5.2C204.5,383.5,204.3,383.6,204,383.6z M204.9,373.3
					C204.9,373.3,204.9,373.3,204.9,373.3c-0.3,0-0.5-0.2-0.4-0.5c0.1-1.7,0.3-3.4,0.4-5.2c0-0.6,0.9-0.5,0.9,0.1
					c-0.1,1.7-0.3,3.4-0.4,5.2C205.3,373.2,205.1,373.3,204.9,373.3z M205.7,363C205.7,363,205.7,363,205.7,363
					c-0.3,0-0.5-0.2-0.4-0.5c0.1-1.7,0.3-3.4,0.4-5.2c0-0.6,0.9-0.5,0.9,0.1c-0.1,1.7-0.3,3.4-0.4,5.2
					C206.1,362.9,205.9,363,205.7,363z M206.5,352.7C206.5,352.7,206.4,352.7,206.5,352.7c-0.3,0-0.4-0.2-0.4-0.5
					c0.1-1.7,0.2-3.4,0.4-5.2c0-0.6,0.9-0.5,0.9,0.1c-0.1,1.7-0.2,3.4-0.4,5.2C206.9,352.5,206.7,352.7,206.5,352.7z M207.2,342.4
					C207.2,342.4,207.1,342.4,207.2,342.4c-0.3,0-0.4-0.2-0.4-0.5l0.3-5.2c0-0.6,0.9-0.5,0.9,0.1l-0.3,5.2
					C207.6,342.2,207.4,342.4,207.2,342.4z M207.8,332.1C207.8,332.1,207.8,332.1,207.8,332.1c-0.3,0-0.4-0.2-0.4-0.5
					c0.4-4.9,0-5.6,0.8-5.6c0.2,0,0.4,0.2,0.4,0.5l-0.3,5.2C208.2,331.9,208,332.1,207.8,332.1z M208.4,321.8
					C208.4,321.8,208.4,321.8,208.4,321.8c-0.3,0-0.4-0.2-0.4-0.5l0.3-5.2c0-0.5,0.9-0.5,0.9,0l-0.3,5.2
					C208.9,321.6,208.7,321.8,208.4,321.8z M209,311.5C209,311.5,209,311.5,209,311.5c-0.3,0-0.4-0.2-0.4-0.5l0.3-5.2
					c0-0.5,0.9-0.6,0.9,0l-0.3,5.2C209.4,311.3,209.2,311.5,209,311.5z M209.6,301.2C209.6,301.2,209.6,301.2,209.6,301.2
					c-0.3,0-0.4-0.2-0.4-0.5l0.3-5.1c0-0.6,0.9-0.5,0.9,0l-0.3,5.2C210,301,209.8,301.2,209.6,301.2z M210.1,290.9
					C210.1,290.9,210.1,290.9,210.1,290.9c-0.3,0-0.4-0.2-0.4-0.5l0.3-5.1c0-0.6,0.9-0.5,0.9,0l-0.3,5.1
					C210.5,290.7,210.3,290.9,210.1,290.9z M210.6,280.6C210.6,280.6,210.6,280.6,210.6,280.6c-0.3,0-0.4-0.2-0.4-0.5l0.3-5.1
					c0-0.5,0.9-0.6,0.9,0l-0.3,5.1C211,280.4,210.9,280.6,210.6,280.6z M211.1,270.3C211.1,270.3,211.1,270.3,211.1,270.3
					c-0.3,0-0.4-0.2-0.4-0.5l0.3-5.1c0-0.6,0.9-0.5,0.9,0l-0.3,5.1C211.6,270.1,211.4,270.3,211.1,270.3z M211.6,260
					C211.6,260,211.6,260,211.6,260c-0.3,0-0.4-0.2-0.4-0.5l0.3-5.1c0-0.6,0.9-0.5,0.9,0l-0.3,5.1C212.1,259.8,211.9,260,211.6,260z
					 M212.2,249.7C212.1,249.7,212.1,249.7,212.2,249.7c-0.3,0-0.4-0.2-0.4-0.5l0.3-5.1c0-0.6,0.9-0.5,0.9,0l-0.3,5.1
					C212.6,249.5,212.4,249.7,212.2,249.7z M212.7,239.4C212.7,239.4,212.7,239.4,212.7,239.4c-0.3,0-0.4-0.2-0.4-0.5l0.3-5.2
					c0-0.6,0.9-0.5,0.9,0l-0.3,5.2C213.1,239.2,212.9,239.4,212.7,239.4z M213.2,229.1C213.2,229.1,213.2,229.1,213.2,229.1
					c-0.3,0-0.4-0.2-0.4-0.5l0.3-5.2c0-0.5,0.9-0.5,0.9,0l-0.3,5.2C213.6,228.9,213.4,229.1,213.2,229.1z M213.8,218.8
					C213.8,218.8,213.7,218.8,213.8,218.8c-0.3,0-0.4-0.2-0.4-0.5l0.3-5.2c0-0.6,0.9-0.5,0.9,0.1l-0.3,5.2
					C214.2,218.6,214,218.8,213.8,218.8z M214.3,208.5C214.3,208.5,214.3,208.5,214.3,208.5c-0.3,0-0.4-0.2-0.4-0.5
					c0.1-1.7,0.2-3.4,0.3-5.2c0-0.6,0.9-0.5,0.9,0.1c-0.1,1.7-0.2,3.4-0.3,5.2C214.8,208.3,214.6,208.5,214.3,208.5z M215,198.2
					C215,198.2,214.9,198.2,215,198.2c-0.3,0-0.4-0.2-0.4-0.5c0.1-1.7,0.2-3.4,0.3-5.2c0-0.5,0.9-0.5,0.9,0
					c-0.1,1.7-0.2,3.5-0.3,5.2C215.4,198,215.2,198.2,215,198.2z M215.5,187.9C215.5,187.9,215.5,187.9,215.5,187.9
					c-0.3,0-0.4-0.2-0.4-0.5c0.1-1.7,0.2-3.4,0.3-5.2c0-0.5,0.9-0.5,0.9,0c-0.1,1.7-0.2,3.4-0.3,5.2
					C215.9,187.7,215.8,187.9,215.5,187.9z M216,177.5C216,177.5,216,177.5,216,177.5c-0.3,0-0.4-0.2-0.4-0.5l0.2-5.2
					c0-0.5,0.9-0.5,0.9,0l-0.2,5.2C216.5,177.4,216.3,177.5,216,177.5z M216.5,167.2C216.5,167.2,216.5,167.2,216.5,167.2
					c-0.3,0-0.4-0.2-0.4-0.5l0.2-5.2c0-0.6,0.9-0.5,0.9,0l-0.2,5.2C216.9,167,216.7,167.2,216.5,167.2z M217,156.9
					C217,156.9,217,156.9,217,156.9c-0.3,0-0.4-0.2-0.4-0.5c0.1-1.7,0.2-3.4,0.3-5.2c0-0.5,0.9-0.6,0.9,0c-0.1,1.7-0.2,3.4-0.3,5.2
					C217.4,156.7,217.2,156.9,217,156.9z M217.6,146.6C217.6,146.6,217.5,146.6,217.6,146.6c-0.3,0-0.4-0.2-0.4-0.5
					c0.1-1.7,0.2-3.4,0.3-5.2c0-0.5,0.9-0.5,0.9,0.1c-0.1,1.7-0.2,3.4-0.3,5.1C218,146.4,217.8,146.6,217.6,146.6z M218.1,136.3
					C218.1,136.3,218.1,136.3,218.1,136.3c-0.3,0-0.4-0.2-0.4-0.4c0.1-1.4,0.1-3.2,0.3-5.2c0-0.6,0.9-0.5,0.9,0.1
					c-0.1,2-0.2,3.8-0.3,5.2C218.5,136.1,218.3,136.3,218.1,136.3z M218.7,126C218.7,126,218.7,126,218.7,126
					c-0.3,0-0.5-0.2-0.4-0.5c0.1-1.6,0.3-3.4,0.4-5.2c0-0.6,0.9-0.5,0.9,0.1c-0.1,1.8-0.3,3.5-0.4,5.2
					C219.1,125.8,218.9,126,218.7,126z M219.5,115.7C219.5,115.7,219.5,115.7,219.5,115.7c-0.3,0-0.5-0.2-0.4-0.5
					c0.1-1.7,0.3-3.4,0.4-5.2c0.1-0.6,0.9-0.5,0.9,0.1c-0.2,1.8-0.3,3.5-0.4,5.1C219.9,115.5,219.7,115.7,219.5,115.7z M220.4,105.4
					C220.4,105.4,220.4,105.4,220.4,105.4c-0.3,0-0.5-0.2-0.4-0.5c0.2-1.7,0.3-3.4,0.5-5.1c0.1-0.6,0.9-0.5,0.9,0.1
					c-0.2,1.7-0.3,3.4-0.5,5.1C220.8,105.2,220.6,105.4,220.4,105.4z M221.4,95.1C221.4,95.1,221.4,95.1,221.4,95.1
					c-0.3,0-0.5-0.2-0.4-0.5c0.2-1.7,0.3-3.4,0.5-5.1c0.1-0.6,0.9-0.5,0.9,0.1c-0.2,1.7-0.3,3.4-0.5,5.1
					C221.8,94.9,221.6,95.1,221.4,95.1z M222.4,84.8C222.4,84.8,222.4,84.8,222.4,84.8c-0.3,0-0.5-0.2-0.4-0.5
					c0.2-1.7,0.4-3.5,0.5-5.1c0.1-0.6,0.9-0.5,0.9,0.1c-0.2,1.7-0.4,3.4-0.5,5.1C222.8,84.6,222.6,84.8,222.4,84.8z M223.5,74.5
					C223.5,74.5,223.5,74.5,223.5,74.5c-0.3,0-0.5-0.2-0.4-0.5c0.2-1.8,0.4-3.5,0.6-5.1c0.1-0.6,0.9-0.5,0.9,0.1
					c-0.2,1.6-0.4,3.3-0.6,5.1C223.9,74.3,223.7,74.5,223.5,74.5z"/>
			</g>
			<g>
				<path class="st2" d="M192.6,473.3c-0.2,0-0.4-0.3-0.4-0.5l0.4-2.6c0.1-0.6,1-0.4,0.9,0.1l-0.4,2.6
					C193.1,473.2,192.8,473.3,192.6,473.3z"/>
			</g>
		</g>
		<g>
			<g>
				<path class="st2" d="M221.9,64.4C221.8,64.4,221.8,64.4,221.9,64.4c-0.3,0-0.5-0.2-0.4-0.5l0.2-2.6c0.1-0.6,0.9-0.5,0.9,0.1
					l-0.2,2.6C222.3,64.2,222.1,64.4,221.9,64.4z"/>
			</g>
			<g>
				<path class="st2" d="M188.9,464.2c0.2-1.7,0.5-3.4,0.7-5.1c0.1-0.6,0.9-0.5,0.9,0.1c-0.2,1.7-0.5,3.4-0.7,5.1
					C189.6,464.9,188.8,464.7,188.9,464.2z M190.2,454c0.2-1.7,0.4-3.4,0.6-5.1c0.1-0.6,0.9-0.5,0.9,0.1c-0.2,1.7-0.4,3.4-0.6,5.1
					C191,454.6,190.1,454.5,190.2,454z M191.8,444.2C191.8,444.2,191.8,444.2,191.8,444.2c-0.3,0-0.5-0.2-0.4-0.5
					c0.2-1.7,0.4-3.4,0.6-5.1c0.1-0.6,0.9-0.5,0.9,0.1c-0.2,1.7-0.4,3.4-0.6,5.1C192.2,444,192,444.2,191.8,444.2z M192.9,433.9
					C192.9,433.9,192.9,433.9,192.9,433.9c-0.3,0-0.5-0.2-0.4-0.5c0.2-1.7,0.3-3.4,0.5-5.1c0.1-0.6,0.9-0.5,0.9,0.1
					c-0.2,1.7-0.3,3.4-0.5,5.1C193.3,433.8,193.1,433.9,192.9,433.9z M193.9,423.7C193.9,423.7,193.9,423.7,193.9,423.7
					c-0.3,0-0.5-0.2-0.4-0.5c0.2-1.7,0.3-3.4,0.5-5.1c0.1-0.6,0.9-0.5,0.9,0.1c-0.2,1.7-0.3,3.4-0.5,5.1
					C194.3,423.5,194.2,423.7,193.9,423.7z M194.9,413.4C194.9,413.4,194.9,413.4,194.9,413.4c-0.3,0-0.5-0.2-0.4-0.5l0.5-5.1
					c0.1-0.6,0.9-0.5,0.9,0.1l-0.5,5.1C195.3,413.2,195.1,413.4,194.9,413.4z M195.9,403.1C195.8,403.1,195.8,403.1,195.9,403.1
					c-0.3,0-0.5-0.2-0.4-0.5l0.5-5.1c0-0.2,0.2-0.4,0.5-0.4c0.2,0,0.4,0.2,0.4,0.5l-0.5,5.1C196.3,403,196.1,403.1,195.9,403.1z
					 M196.8,392.9C196.8,392.9,196.8,392.9,196.8,392.9c-0.3,0-0.5-0.2-0.4-0.5l0.5-5.1c0.1-0.6,0.9-0.5,0.9,0.1l-0.5,5.1
					C197.2,392.7,197,392.9,196.8,392.9z M197.8,382.6C197.7,382.6,197.7,382.6,197.8,382.6c-0.3,0-0.5-0.2-0.4-0.5
					c0.2-1.7,0.3-3.5,0.5-5.1c0.1-0.6,0.9-0.5,0.9,0.1c-0.2,1.7-0.3,3.4-0.5,5.1C198.2,382.4,198,382.6,197.8,382.6z M198.8,372.3
					C198.7,372.3,198.7,372.3,198.8,372.3c-0.3,0-0.5-0.2-0.4-0.5c0.2-1.7,0.3-3.4,0.5-5.1c0.1-0.6,0.9-0.5,0.9,0.1
					c-0.2,1.7-0.3,3.4-0.5,5.1C199.2,372.2,199,372.3,198.8,372.3z M199.7,362.1C199.7,362.1,199.7,362.1,199.7,362.1
					c-0.3,0-0.5-0.2-0.4-0.5c0.2-1.7,0.3-3.4,0.5-5.1c0.1-0.6,0.9-0.5,0.9,0.1c-0.2,1.7-0.3,3.4-0.5,5.1
					C200.1,361.9,199.9,362.1,199.7,362.1z M200.7,351.8C200.6,351.8,200.6,351.8,200.7,351.8c-0.3,0-0.5-0.2-0.4-0.5l0.4-5.1
					c0.1-0.6,0.9-0.5,0.9,0.1l-0.4,5.1C201.1,351.6,200.9,351.8,200.7,351.8z M201.5,341.5C201.5,341.5,201.5,341.5,201.5,341.5
					c-0.3,0-0.5-0.2-0.4-0.5l0.4-5.1c0-0.6,0.9-0.5,0.9,0.1l-0.4,5.1C201.9,341.3,201.8,341.5,201.5,341.5z M202.4,331.2
					C202.4,331.2,202.4,331.2,202.4,331.2c-0.3,0-0.5-0.2-0.4-0.5l0.4-5.1c0-0.2,0.2-0.4,0.5-0.4c0.2,0,0.4,0.2,0.4,0.5l-0.4,5.1
					C202.8,331.1,202.6,331.2,202.4,331.2z M203.2,320.9C203.2,320.9,203.2,320.9,203.2,320.9c-0.3,0-0.5-0.2-0.4-0.5l0.4-5.1
					c0-0.6,0.9-0.5,0.9,0.1l-0.4,5.1C203.6,320.8,203.4,320.9,203.2,320.9z M204,310.7C203.9,310.7,203.9,310.7,204,310.7
					c-0.3,0-0.5-0.2-0.4-0.5l0.4-5.1c0-0.6,0.9-0.5,0.9,0.1l-0.4,5.1C204.4,310.5,204.2,310.7,204,310.7z M204.7,300.4
					C204.7,300.4,204.7,300.4,204.7,300.4c-0.3,0-0.5-0.2-0.4-0.5l0.4-5.1c0-0.6,0.9-0.5,0.9,0.1l-0.4,5.1
					C205.1,300.2,204.9,300.4,204.7,300.4z M205.4,290.1C205.4,290.1,205.4,290.1,205.4,290.1c-0.3,0-0.4-0.2-0.4-0.5l0.3-5.1
					c0-0.6,0.9-0.5,0.9,0.1l-0.3,5.1C205.8,289.9,205.6,290.1,205.4,290.1z M206.1,279.8C206.1,279.8,206.1,279.8,206.1,279.8
					c-0.3,0-0.4-0.2-0.4-0.5l0.3-5.1c0-0.6,0.9-0.5,0.9,0.1l-0.3,5.1C206.5,279.6,206.3,279.8,206.1,279.8z M206.8,269.5
					C206.7,269.5,206.7,269.5,206.8,269.5c-0.3,0-0.4-0.2-0.4-0.5l0.3-5.1c0-0.6,0.9-0.5,0.9,0.1l-0.3,5.1
					C207.2,269.3,207,269.5,206.8,269.5z M207.4,259.2C207.4,259.2,207.4,259.2,207.4,259.2c-0.3,0-0.4-0.2-0.4-0.5l0.3-5.1
					c0-0.5,0.9-0.5,0.9,0.1l-0.3,5.1C207.8,259,207.6,259.2,207.4,259.2z M208,248.9C208,248.9,208,248.9,208,248.9
					c-0.3,0-0.4-0.2-0.4-0.5l0.3-5.1c0-0.6,0.9-0.5,0.9,0.1l-0.3,5.1C208.4,248.7,208.3,248.9,208,248.9z M208.6,238.6
					C208.6,238.6,208.6,238.6,208.6,238.6c-0.3,0-0.4-0.2-0.4-0.5l0.3-5.1c0-0.6,0.9-0.5,0.9,0.1l-0.3,5.1
					C209.1,238.5,208.9,238.6,208.6,238.6z M209.3,228.3C209.2,228.3,209.2,228.3,209.3,228.3c-0.3,0-0.4-0.2-0.4-0.5l0.3-5.1
					c0-0.6,0.9-0.5,0.9,0.1l-0.3,5.1C209.7,228.2,209.5,228.3,209.3,228.3z M209.9,218C209.8,218,209.8,218,209.9,218
					c-0.3,0-0.4-0.2-0.4-0.5c0.1-1.7,0.2-3.4,0.3-5.2c0-0.6,0.9-0.5,0.9,0.1c-0.1,1.7-0.2,3.4-0.3,5.2
					C210.3,217.9,210.1,218,209.9,218z M210.5,207.7C210.5,207.7,210.5,207.7,210.5,207.7c-0.3,0-0.4-0.2-0.4-0.5l0.3-5.2
					c0-0.6,0.9-0.5,0.9,0.1l-0.3,5.2C210.9,207.6,210.7,207.7,210.5,207.7z M211.2,197.4C211.2,197.4,211.1,197.4,211.2,197.4
					c-0.3,0-0.4-0.2-0.4-0.5l0.3-5.2c0-0.6,0.9-0.5,0.9,0.1l-0.3,5.2C211.6,197.2,211.4,197.4,211.2,197.4z M211.9,187.1
					C211.9,187.1,211.8,187.1,211.9,187.1c-0.3,0-0.4-0.2-0.4-0.5l0.4-5.2c0-0.6,0.9-0.5,0.9,0.1l-0.4,5.2
					C212.3,186.9,212.1,187.1,211.9,187.1z M212.6,176.8C212.6,176.8,212.6,176.8,212.6,176.8c-0.3,0-0.5-0.2-0.4-0.5l0.4-5.1
					c0-0.6,0.9-0.5,0.9,0.1l-0.4,5.1C213,176.6,212.8,176.8,212.6,176.8z M213.4,166.5C213.4,166.5,213.3,166.5,213.4,166.5
					c-0.3,0-0.5-0.2-0.4-0.5l0.4-5.1c0-0.6,0.9-0.5,0.9,0.1l-0.4,5.1C213.8,166.3,213.6,166.5,213.4,166.5z M214.2,156.2
					C214.1,156.2,214.1,156.2,214.2,156.2c-0.3,0-0.5-0.2-0.4-0.5l0.4-5.1c0-0.6,0.9-0.5,0.9,0.1l-0.4,5.1
					C214.6,156.1,214.4,156.2,214.2,156.2z M215,145.9C215,145.9,214.9,145.9,215,145.9c-0.3,0-0.5-0.2-0.4-0.5l0.4-5.1
					c0-0.6,0.9-0.5,0.9,0.1l-0.4,5.1C215.4,145.8,215.2,145.9,215,145.9z M215.8,135.7C215.8,135.7,215.8,135.7,215.8,135.7
					c-0.3,0-0.5-0.2-0.4-0.5l0.4-5.1c0-0.6,0.9-0.5,0.9,0.1l-0.4,5.1C216.2,135.5,216,135.7,215.8,135.7z M216.6,125.4
					C216.6,125.4,216.6,125.4,216.6,125.4c-0.3,0-0.5-0.2-0.4-0.5l0.4-5.1c0-0.6,0.9-0.5,0.9,0.1l-0.4,5.1
					C217.1,125.2,216.9,125.4,216.6,125.4z M217.5,115.1C217.5,115.1,217.5,115.1,217.5,115.1c-0.3,0-0.5-0.2-0.4-0.5l0.4-5.1
					c0.1-0.6,0.9-0.5,0.9,0.1l-0.4,5.1C217.9,114.9,217.7,115.1,217.5,115.1z M218.4,104.8C218.4,104.8,218.4,104.8,218.4,104.8
					c-0.3,0-0.5-0.2-0.4-0.5l0.4-5.1c0-0.6,0.9-0.5,0.9,0.1l-0.4,5.1C218.8,104.7,218.6,104.8,218.4,104.8z M219.3,94.6
					C219.3,94.6,219.2,94.6,219.3,94.6c-0.3,0-0.5-0.2-0.4-0.5l0.4-5.1c0.1-0.6,0.9-0.5,0.9,0.1l-0.4,5.1
					C219.7,94.4,219.5,94.6,219.3,94.6z M220.2,84.3C220.2,84.3,220.1,84.3,220.2,84.3c-0.3,0-0.5-0.2-0.4-0.5l0.5-5.1
					c0.1-0.6,0.9-0.5,0.9,0.1l-0.5,5.1C220.6,84.2,220.4,84.3,220.2,84.3z M221.1,74.1C221.1,74.1,221.1,74.1,221.1,74.1
					c-0.3,0-0.5-0.2-0.4-0.5l0.5-5.1c0.1-0.6,0.9-0.5,0.9,0.1l-0.5,5.1C221.5,73.9,221.3,74.1,221.1,74.1z"/>
			</g>
			<g>
				<path class="st2" d="M188.1,472.3c-0.2,0-0.4-0.3-0.4-0.5c0.1-0.8,0.3-1.7,0.4-2.6c0.1-0.6,0.9-0.4,0.9,0.1
					c-0.1,0.9-0.3,1.7-0.4,2.6C188.5,472.1,188.3,472.3,188.1,472.3z"/>
			</g>
		</g>
	</g>
	<g>
		<circle class="st8" cx="251.5" cy="47.5" r="6.5"/>
		<path class="st9" d="M253,46.7c0,2.1-1.7,3.8-3.8,3.8c-2.1,0-3.8-1.7-3.8-3.8c0-2.1,1.7-3.8,3.8-3.8C251.3,42.8,253,44.5,253,46.7
			z"/>
	</g>
	<g>
		<circle class="st8" cx="252.5" cy="83" r="4"/>
		<path class="st9" d="M253.5,82.5c0,1.3-1.1,2.4-2.4,2.4s-2.4-1.1-2.4-2.4c0-1.3,1.1-2.4,2.4-2.4S253.5,81.2,253.5,82.5z"/>
	</g>
	<g>
		<circle class="st8" cx="253.5" cy="111.5" r="4"/>
		<path class="st9" d="M254.4,111c0,1.3-1.1,2.4-2.4,2.4c-1.3,0-2.4-1.1-2.4-2.4c0-1.3,1.1-2.4,2.4-2.4
			C253.3,108.6,254.4,109.7,254.4,111z"/>
	</g>
	<g>
		<circle class="st8" cx="254.4" cy="143.6" r="4"/>
		<circle class="st9" cx="252.9" cy="143.1" r="2.4"/>
	</g>
	<g>
		<circle class="st8" cx="255.3" cy="179.2" r="4"/>
		<path class="st9" d="M256.2,178.6c0,1.3-1.1,2.4-2.4,2.4c-1.3,0-2.4-1.1-2.4-2.4c0-1.3,1.1-2.4,2.4-2.4
			C255.1,176.3,256.2,177.3,256.2,178.6z"/>
	</g>
	<g>
		<circle class="st8" cx="255.3" cy="217.8" r="4"/>
		<path class="st9" d="M256.2,217.3c0,1.3-1.1,2.4-2.4,2.4c-1.3,0-2.4-1.1-2.4-2.4c0-1.3,1.1-2.4,2.4-2.4
			C255.1,214.9,256.2,216,256.2,217.3z"/>
	</g>
	<g>
		<path class="st10" d="M198,55.9c0,0-4.7-1.2-4.8-1.4c0,0,11.3-24.3,11.8-25l5.2,1.6C210,31.3,200.7,48.5,198,55.9z"/>
	</g>
	<g>
		<path class="st10" d="M291.5,56.7L282.2,31l5.1-1.3l9.9,25.6C296.9,55.5,291.5,56.7,291.5,56.7z"/>
	</g>
	<path class="st5" d="M235.3,362.7l-4.6,58.3l-4.1,56.9c-33.3-0.6-72.6-3.6-104.9-12.1c33.2,10.7,72.8,13.9,107.6,15.2
		c1.6-22.1,9.1-101.7,16.6-237.4C246,243.6,239.2,311.1,235.3,362.7z"/>
</g>
</svg>
