<?xml version="1.0" encoding="utf-8"?>
<!-- Generator: Adobe Illustrator 24.0.2, SVG Export Plug-In . SVG Version: 6.00 Build 0)  -->
<svg version="1.1" id="Layer_1" xmlns="http://www.w3.org/2000/svg" xmlns:xlink="http://www.w3.org/1999/xlink" x="0px" y="0px"
	 viewBox="0 0 500 500" style="enable-background:new 0 0 500 500;" xml:space="preserve">
<style type="text/css">
	.st0{fill:#F79F92;}
	.st1{opacity:0.3;fill:#F79F92;}
	.st2{fill:#FFE2C0;}
	.st3{opacity:0.5;fill:#F79F92;}
	.st4{opacity:0.5;}
	.st5{opacity:0.8;fill:#FFE2C0;}
</style>
<g>
	<g>
		<path class="st0" d="M151.9,38.8c0,0,21.8,102.6,21.2,116.2l10-5.4L159.9,37.2L151.9,38.8z"/>
		<path class="st1" d="M151.9,38.8c0,0,21.8,102.6,21.2,116.2l10-5.4L159.9,37.2L151.9,38.8z"/>
		<path class="st0" d="M140,147.1c4.7-20.6,11.9-108.3,11.9-108.3l7.9-1.6c0,0-9.8,77.6,0,105.8L140,147.1z"/>
		<path class="st0" d="M343.9,38.8c0,0-21.8,102.6-21.2,116.2l-10-5.4L336,37.2L343.9,38.8z"/>
		<path class="st1" d="M343.9,38.8c0,0-21.8,102.6-21.2,116.2l-10-5.4L336,37.2L343.9,38.8z"/>
		<path class="st0" d="M355.8,147.1c-4.7-20.6-11.9-108.3-11.9-108.3l-7.9-1.6c0,0,9.8,77.6,0,105.8L355.8,147.1z"/>
		<g>
			<path class="st2" d="M124.2,196.2c0,0-13.4,7.7-15.8,8.7l7.9,37.9c0,0,7.5-0.5,11.8,0c4.3,0.5,11.2,4.4,17.7,6.7
				C152.4,251.8,124.2,196.2,124.2,196.2z"/>
			<path class="st0" d="M124.2,196.2c0,0-13.4,7.7-15.8,8.7l1,4.8h0l17.6-7.8C125.3,198.4,124.2,196.2,124.2,196.2z"/>
			<path class="st0" d="M116.3,242.8c0,0,7.5-0.5,11.8,0c4.3,0.5,11.2,4.4,17.7,6.7c2.3,0.8,0.3-5.6-3.3-14.2
				c-8.9-2.1-20.8-1.4-27.9-0.7L116.3,242.8z"/>
			<path class="st3" d="M145.2,242.3c0.1,0.9-0.2,1.1-1,0.8c-6.6-2.3-13-3-17.3-3.5c-3.6-0.4-9.4-0.1-11.2,0l0.7,3.1
				c0,0,7.5-0.5,11.8,0c4.3,0.5,11.2,4.4,17.7,6.7C147.4,250.1,146.9,247.1,145.2,242.3z"/>
			<path class="st0" d="M140,147.1c-4.8,5.6-16.6,27.6-15.8,53.5c0.9,29.5,14.9,43.2,21.6,48.9c6.7,5.8,53.6,7.4,69.7-3.2
				c16.1-10.5,22.8-14.4,32.4-14.4v-26.4c0,0-17.7-30.8-56.2-48.8C165.8,144.7,144.9,141.4,140,147.1z"/>
			<g class="st4">
				<path class="st5" d="M182.4,159c-1.5,0-2.7,1.2-2.7,2.7c0,1.5,1.2,2.7,2.7,2.7c1.5,0,2.7-1.2,2.7-2.7
					C185.1,160.2,183.9,159,182.4,159z"/>
				<circle class="st5" cx="190.1" cy="228.1" r="2.7"/>
				<circle class="st5" cx="201.5" cy="180.6" r="2.7"/>
				<path class="st5" d="M202.2,164.4c0.8,0,1.5-0.4,2-0.9c-1.5-0.9-3-1.8-4.5-2.6c-0.1,0.3-0.2,0.5-0.2,0.8
					C199.5,163.1,200.7,164.4,202.2,164.4z"/>
				<path class="st5" d="M199.5,234.8c-1.5,0-2.7,1.2-2.7,2.7c0,1.5,1.2,2.7,2.7,2.7c1.5,0,2.7-1.2,2.7-2.7
					C202.2,236,200.9,234.8,199.5,234.8z"/>
				<path class="st5" d="M189.4,244.3c-1.5,0-2.7,1.2-2.7,2.7c0,1.5,1.2,2.7,2.7,2.7c1.5,0,2.7-1.2,2.7-2.7
					C192.1,245.5,190.9,244.3,189.4,244.3z"/>
				<path class="st5" d="M200.8,196.9c-1.5,0-2.7,1.2-2.7,2.7c0,1.5,1.2,2.7,2.7,2.7c1.5,0,2.7-1.2,2.7-2.7
					C203.5,198.1,202.3,196.9,200.8,196.9z"/>
				
					<ellipse transform="matrix(0.9872 -0.1597 0.1597 0.9872 -27.6546 36.183)" class="st5" cx="211.3" cy="190.1" rx="2.7" ry="2.7"/>
				<path class="st5" d="M181.1,196.9c-1.5,0-2.7,1.2-2.7,2.7c0,1.5,1.2,2.7,2.7,2.7c1.5,0,2.7-1.2,2.7-2.7
					C183.8,198.1,182.5,196.9,181.1,196.9z"/>
				
					<ellipse transform="matrix(0.9872 -0.1597 0.1597 0.9872 -32.5823 31.6062)" class="st5" cx="180.4" cy="218.5" rx="2.7" ry="2.7"/>
				
					<ellipse transform="matrix(0.9872 -0.1597 0.1597 0.9872 -26.5099 31.339)" class="st5" cx="181.7" cy="180.6" rx="2.7" ry="2.7"/>
				<path class="st5" d="M190.8,206.4c-1.5,0-2.7,1.2-2.7,2.7c0,1.5,1.2,2.7,2.7,2.7c1.5,0,2.7-1.2,2.7-2.7
					C193.5,207.6,192.3,206.4,190.8,206.4z"/>
				<circle class="st5" cx="191.5" cy="190.1" r="2.7"/>
				<circle class="st5" cx="192.2" cy="171.2" r="2.7"/>
				<path class="st5" d="M200.1,215.8c-1.5,0-2.7,1.2-2.7,2.7c0,1.5,1.2,2.7,2.7,2.7c1.5,0,2.7-1.2,2.7-2.7
					C202.8,217,201.6,215.8,200.1,215.8z"/>
				<path class="st5" d="M131.5,206.4c-1.5,0-2.7,1.2-2.7,2.7c0,1.5,1.2,2.7,2.7,2.7s2.7-1.2,2.7-2.7
					C134.2,207.6,133,206.4,131.5,206.4z"/>
				<circle class="st5" cx="142.2" cy="180.6" r="2.7"/>
				<circle class="st5" cx="132.2" cy="190.1" r="2.7"/>
				<path class="st5" d="M141.5,196.9c-1.5,0-2.7,1.2-2.7,2.7c0,1.5,1.2,2.7,2.7,2.7c1.5,0,2.7-1.2,2.7-2.7
					C144.2,198.1,143,196.9,141.5,196.9z"/>
				
					<ellipse transform="matrix(0.9872 -0.1597 0.1597 0.9872 -33.7276 36.4496)" class="st5" cx="209.9" cy="228.1" rx="2.7" ry="2.7"/>
				<path class="st5" d="M140.1,234.8c-1.5,0-2.7,1.2-2.7,2.7c0,1.5,1.2,2.7,2.7,2.7c1.5,0,2.7-1.2,2.7-2.7
					C142.8,236,141.6,234.8,140.1,234.8z"/>
				<path class="st5" d="M140.8,215.8c-1.5,0-2.7,1.2-2.7,2.7c0,1.5,1.2,2.7,2.7,2.7s2.7-1.2,2.7-2.7
					C143.5,217,142.3,215.8,140.8,215.8z"/>
				<path class="st5" d="M209.3,171.2c0,1.5,1.2,2.7,2.7,2.7c1.5,0,2.7-1.2,2.7-2.7c0-0.3-0.1-0.6-0.2-0.8c-0.8-0.6-1.7-1.3-2.6-1.9
					C210.5,168.5,209.3,169.7,209.3,171.2z"/>
				<circle class="st5" cx="132.9" cy="171.2" r="2.7"/>
				<path class="st5" d="M142.9,159c-1.5,0-2.7,1.2-2.7,2.7c0,1.5,1.2,2.7,2.7,2.7c1.5,0,2.7-1.2,2.7-2.7
					C145.6,160.2,144.4,159,142.9,159z"/>
				<path class="st5" d="M210.6,206.4c-1.5,0-2.7,1.2-2.7,2.7c0,1.5,1.2,2.7,2.7,2.7c1.5,0,2.7-1.2,2.7-2.7
					C213.3,207.6,212.1,206.4,210.6,206.4z"/>
				<path class="st5" d="M143.6,145.4c0.7,0,1.3-0.3,1.8-0.7c-0.9,0.1-1.7,0.3-2.5,0.6C143.1,145.3,143.3,145.4,143.6,145.4z"/>
				<path class="st5" d="M124.2,198.6c0,0.6,0,1.2,0,1.9c0.1-0.3,0.2-0.6,0.2-0.9C124.4,199.2,124.3,198.9,124.2,198.6z"/>
				<path class="st5" d="M133.5,228.1c0-1.5-1.2-2.7-2.7-2.7c-0.7,0-1.2,0.3-1.7,0.6c0.6,1.6,1.3,3.2,2,4.7
					C132.4,230.5,133.5,229.4,133.5,228.1z"/>
				<path class="st5" d="M136.1,153.1c-0.2,0.3-0.3,0.6-0.5,0.9C135.8,153.7,136,153.4,136.1,153.1z"/>
				<path class="st5" d="M179.7,234.8c-1.5,0-2.7,1.2-2.7,2.7c0,1.5,1.2,2.7,2.7,2.7c1.5,0,2.7-1.2,2.7-2.7
					C182.4,236,181.2,234.8,179.7,234.8z"/>
				<circle class="st5" cx="239.7" cy="218.5" r="2.7"/>
				<path class="st5" d="M247.9,210.5v-2.9c-0.3,0.4-0.5,0.9-0.5,1.4C247.5,209.6,247.7,210.1,247.9,210.5z"/>
				<path class="st5" d="M240.4,196.9c-1.5,0-2.7,1.2-2.7,2.7c0,1.5,1.2,2.7,2.7,2.7c1.5,0,2.7-1.2,2.7-2.7
					C243.1,198.1,241.9,196.9,240.4,196.9z"/>
				<path class="st5" d="M246.8,228.1c0,0.9,0.5,1.7,1.2,2.2v-4.3C247.2,226.4,246.8,227.2,246.8,228.1z"/>
				<path class="st5" d="M149.9,249.7c1.5,0,2.7-1.2,2.7-2.7c0-1.5-1.2-2.7-2.7-2.7c-1.5,0-2.7,1.2-2.7,2.7
					C147.2,248.5,148.4,249.7,149.9,249.7z"/>
				<path class="st5" d="M179,253.8c-0.4,0-0.8,0.1-1.1,0.3c0.7,0,1.4,0,2.1-0.1C179.7,253.8,179.3,253.8,179,253.8z"/>
				<path class="st5" d="M209.2,244.3c-1.5,0-2.7,1.2-2.7,2.7c0,1.3,0.9,2.3,2.1,2.6c1-0.3,2-0.7,2.9-1.1c0.3-0.4,0.5-0.9,0.5-1.4
					C211.9,245.5,210.7,244.3,209.2,244.3z"/>
				<circle class="st5" cx="229.7" cy="228.1" r="2.7"/>
				<circle class="st5" cx="170.4" cy="228.1" r="2.7"/>
				<path class="st5" d="M219.2,240.2c1.5,0,2.7-1.2,2.7-2.7c0-1.5-1.2-2.7-2.7-2.7c-1.5,0-2.7,1.2-2.7,2.7
					C216.5,239,217.7,240.2,219.2,240.2z"/>
				<path class="st5" d="M219.9,215.8c-1.5,0-2.7,1.2-2.7,2.7c0,1.5,1.2,2.7,2.7,2.7c1.5,0,2.7-1.2,2.7-2.7
					C222.6,217,221.4,215.8,219.9,215.8z"/>
				<circle class="st5" cx="231.1" cy="190.1" r="2.7"/>
				
					<ellipse transform="matrix(0.3851 -0.9229 0.9229 0.3851 -117.8856 279.2003)" class="st5" cx="150.6" cy="228.1" rx="2.7" ry="2.7"/>
				<path class="st5" d="M220.6,196.9c-1.5,0-2.7,1.2-2.7,2.7c0,1.5,1.2,2.7,2.7,2.7c1.5,0,2.7-1.2,2.7-2.7
					C223.3,198.1,222.1,196.9,220.6,196.9z"/>
				<path class="st5" d="M230.4,206.4c-1.5,0-2.7,1.2-2.7,2.7c0,1.5,1.2,2.7,2.7,2.7c1.5,0,2.7-1.2,2.7-2.7
					C233.1,207.6,231.9,206.4,230.4,206.4z"/>
				<path class="st5" d="M221.3,177.9c-1.5,0-2.7,1.2-2.7,2.7c0,1.5,1.2,2.7,2.7,2.7c1.5,0,2.7-1.2,2.7-2.7
					C224,179.1,222.8,177.9,221.3,177.9z"/>
				<circle class="st5" cx="173.1" cy="152.2" r="2.7"/>
				<circle class="st5" cx="160.6" cy="218.5" r="2.7"/>
				<circle class="st5" cx="172.4" cy="171.2" r="2.7"/>
				<path class="st5" d="M159.9,234.8c-1.5,0-2.7,1.2-2.7,2.7c0,1.5,1.2,2.7,2.7,2.7c1.5,0,2.7-1.2,2.7-2.7
					C162.6,236,161.4,234.8,159.9,234.8z"/>
				<path class="st5" d="M151.3,211.8c1.5,0,2.7-1.2,2.7-2.7c0-1.5-1.2-2.7-2.7-2.7c-1.5,0-2.7,1.2-2.7,2.7
					C148.6,210.6,149.8,211.8,151.3,211.8z"/>
				<path class="st5" d="M171,206.4c-1.5,0-2.7,1.2-2.7,2.7c0,1.5,1.2,2.7,2.7,2.7s2.7-1.2,2.7-2.7
					C173.7,207.6,172.5,206.4,171,206.4z"/>
				<circle class="st5" cx="171.7" cy="190.1" r="2.7"/>
				<path class="st5" d="M169.7,244.3c-1.5,0-2.7,1.2-2.7,2.7c0,1.5,1.2,2.7,2.7,2.7s2.7-1.2,2.7-2.7
					C172.4,245.5,171.2,244.3,169.7,244.3z"/>
				<path class="st5" d="M161.3,196.9c-1.5,0-2.7,1.2-2.7,2.7c0,1.5,1.2,2.7,2.7,2.7c1.5,0,2.7-1.2,2.7-2.7
					C164,198.1,162.8,196.9,161.3,196.9z"/>
				<path class="st5" d="M153.3,149.5c-1.5,0-2.7,1.2-2.7,2.7c0,1.5,1.2,2.7,2.7,2.7c1.5,0,2.7-1.2,2.7-2.7
					C156,150.7,154.8,149.5,153.3,149.5z"/>
				<ellipse transform="matrix(0.987 -0.1607 0.1607 0.987 -28.58 26.8875)" class="st5" cx="151.9" cy="190.1" rx="2.7" ry="2.7"/>
				
					<ellipse transform="matrix(0.3851 -0.9229 0.9229 0.3851 -64.1267 246.1342)" class="st5" cx="152.6" cy="171.2" rx="2.7" ry="2.7"/>
				<path class="st5" d="M162.6,159c-1.5,0-2.7,1.2-2.7,2.7c0,1.5,1.2,2.7,2.7,2.7c1.5,0,2.7-1.2,2.7-2.7
					C165.3,160.2,164.1,159,162.6,159z"/>
				<circle class="st5" cx="162" cy="180.6" r="2.7"/>
			</g>
			<path class="st3" d="M148.6,244c-6.5-5.6-20.1-18.9-21-47.6c-0.7-23.6,9.3-43.8,14.4-50.8c-0.8,0.4-1.6,0.9-2,1.4
				c-4.8,5.6-16.6,27.6-15.8,53.5c0.9,29.5,14.9,43.2,21.6,48.9c6.7,5.8,53.6,7.4,69.7-3.2c16.1-10.5,22.8-14.4,32.4-14.4v-5
				c-9.3,0-15.9,3.7-31.5,14S155.1,249.6,148.6,244z"/>
			<path class="st2" d="M200.5,153.8c-25-13.9-55.6-12.4-60.4-6.7c-1.2,1.4-2.8,4-4.5,7.5c0,0,80.4-5.8,112.4,77.4v-26.4
				C247.9,205.6,241.7,176.8,200.5,153.8z"/>
		</g>
		<g>
			<path class="st2" d="M371.7,196.2c0,0,13.4,7.7,15.8,8.7l-7.9,37.9c0,0-7.5-0.5-11.8,0c-4.3,0.5-11.2,4.4-17.7,6.7
				C343.5,251.8,371.7,196.2,371.7,196.2z"/>
			<path class="st0" d="M371.7,196.2c0,0,13.4,7.7,15.8,8.7l-1,4.8l0,0l-17.6-7.8C370.6,198.4,371.7,196.2,371.7,196.2z"/>
			<path class="st0" d="M379.6,242.8c0,0-7.5-0.5-11.8,0c-4.3,0.5-11.2,4.4-17.7,6.7c-2.3,0.8-0.3-5.6,3.3-14.2
				c8.9-2.1,20.8-1.4,27.9-0.7L379.6,242.8z"/>
			<path class="st3" d="M350.6,242.3c-0.1,0.9,0.2,1.1,1,0.8c6.6-2.3,13-3,17.3-3.5c3.6-0.4,9.4-0.1,11.2,0l-0.7,3.1
				c0,0-7.5-0.5-11.8,0c-4.3,0.5-11.2,4.4-17.7,6.7C348.5,250.1,349,247.1,350.6,242.3z"/>
			<path class="st0" d="M355.8,147.1c4.8,5.6,16.6,27.6,15.8,53.5c-0.9,29.5-14.9,43.2-21.6,48.9c-6.7,5.8-53.6,7.4-69.7-3.2
				c-16.1-10.5-22.8-14.4-32.4-14.4v-26.4c0,0,17.7-30.8,56.2-48.8C330.1,144.7,351,141.4,355.8,147.1z"/>
			<g class="st4">
				<path class="st5" d="M313.4,159c1.5,0,2.7,1.2,2.7,2.7c0,1.5-1.2,2.7-2.7,2.7c-1.5,0-2.7-1.2-2.7-2.7
					C310.7,160.2,311.9,159,313.4,159z"/>
				<circle class="st5" cx="305.7" cy="228.1" r="2.7"/>
				<circle class="st5" cx="294.4" cy="180.6" r="2.7"/>
				<path class="st5" d="M293.7,164.4c-0.8,0-1.5-0.4-2-0.9c1.5-0.9,3-1.8,4.5-2.6c0.1,0.3,0.2,0.5,0.2,0.8
					C296.4,163.1,295.2,164.4,293.7,164.4z"/>
				<path class="st5" d="M296.4,234.8c1.5,0,2.7,1.2,2.7,2.7c0,1.5-1.2,2.7-2.7,2.7c-1.5,0-2.7-1.2-2.7-2.7
					C293.7,236,294.9,234.8,296.4,234.8z"/>
				<path class="st5" d="M306.4,244.3c1.5,0,2.7,1.2,2.7,2.7c0,1.5-1.2,2.7-2.7,2.7c-1.5,0-2.7-1.2-2.7-2.7
					C303.7,245.5,304.9,244.3,306.4,244.3z"/>
				<path class="st5" d="M295,196.9c1.5,0,2.7,1.2,2.7,2.7c0,1.5-1.2,2.7-2.7,2.7s-2.7-1.2-2.7-2.7
					C292.3,198.1,293.5,196.9,295,196.9z"/>
				<circle class="st5" cx="284.6" cy="190.1" r="2.7"/>
				<path class="st5" d="M314.8,196.9c1.5,0,2.7,1.2,2.7,2.7c0,1.5-1.2,2.7-2.7,2.7c-1.5,0-2.7-1.2-2.7-2.7
					C312.1,198.1,313.3,196.9,314.8,196.9z"/>
				<circle class="st5" cx="315.5" cy="218.5" r="2.7"/>
				<circle class="st5" cx="314.1" cy="180.6" r="2.7"/>
				<path class="st5" d="M305,206.4c1.5,0,2.7,1.2,2.7,2.7c0,1.5-1.2,2.7-2.7,2.7c-1.5,0-2.7-1.2-2.7-2.7
					C302.4,207.6,303.6,206.4,305,206.4z"/>
				<path class="st5" d="M304.4,187.4c1.5,0,2.7,1.2,2.7,2.7c0,1.5-1.2,2.7-2.7,2.7c-1.5,0-2.7-1.2-2.7-2.7
					C301.7,188.7,302.9,187.4,304.4,187.4z"/>
				<circle class="st5" cx="303.7" cy="171.2" r="2.7"/>
				<circle class="st5" cx="295.7" cy="218.5" r="2.7"/>
				<path class="st5" d="M364.4,206.4c1.5,0,2.7,1.2,2.7,2.7c0,1.5-1.2,2.7-2.7,2.7c-1.5,0-2.7-1.2-2.7-2.7
					C361.7,207.6,362.9,206.4,364.4,206.4z"/>
				
					<ellipse transform="matrix(0.9247 -0.3807 0.3807 0.9247 -42.1265 148.2453)" class="st5" cx="353.7" cy="180.6" rx="2.7" ry="2.7"/>
				<circle class="st5" cx="363.7" cy="190.1" r="2.7"/>
				<path class="st5" d="M354.4,196.9c1.5,0,2.7,1.2,2.7,2.7c0,1.5-1.2,2.7-2.7,2.7c-1.5,0-2.7-1.2-2.7-2.7
					C351.7,198.1,352.9,196.9,354.4,196.9z"/>
				<path class="st5" d="M286,225.4c1.5,0,2.7,1.2,2.7,2.7c0,1.5-1.2,2.7-2.7,2.7c-1.5,0-2.7-1.2-2.7-2.7
					C283.3,226.6,284.5,225.4,286,225.4z"/>
				<path class="st5" d="M355.7,234.8c1.5,0,2.7,1.2,2.7,2.7c0,1.5-1.2,2.7-2.7,2.7c-1.5,0-2.7-1.2-2.7-2.7
					C353.1,236,354.3,234.8,355.7,234.8z"/>
				<path class="st5" d="M355.1,215.8c1.5,0,2.7,1.2,2.7,2.7c0,1.5-1.2,2.7-2.7,2.7c-1.5,0-2.7-1.2-2.7-2.7
					C352.4,217,353.6,215.8,355.1,215.8z"/>
				<path class="st5" d="M286.6,171.2c0,1.5-1.2,2.7-2.7,2.7c-1.5,0-2.7-1.2-2.7-2.7c0-0.3,0.1-0.6,0.2-0.8c0.8-0.6,1.7-1.3,2.6-1.9
					C285.4,168.5,286.6,169.7,286.6,171.2z"/>
				<circle class="st5" cx="363" cy="171.2" r="2.7"/>
				<path class="st5" d="M353,159c1.5,0,2.7,1.2,2.7,2.7c0,1.5-1.2,2.7-2.7,2.7c-1.5,0-2.7-1.2-2.7-2.7
					C350.3,160.2,351.5,159,353,159z"/>
				<path class="st5" d="M285.3,206.4c1.5,0,2.7,1.2,2.7,2.7c0,1.5-1.2,2.7-2.7,2.7c-1.5,0-2.7-1.2-2.7-2.7
					C282.6,207.6,283.8,206.4,285.3,206.4z"/>
				<path class="st5" d="M352.3,145.4c-0.7,0-1.3-0.3-1.8-0.7c0.9,0.1,1.7,0.3,2.5,0.6C352.7,145.3,352.5,145.4,352.3,145.4z"/>
				<path class="st5" d="M371.6,198.6c0,0.6,0,1.2,0,1.9c-0.1-0.3-0.2-0.6-0.2-0.9C371.5,199.2,371.5,198.9,371.6,198.6z"/>
				<path class="st5" d="M362.4,228.1c0-1.5,1.2-2.7,2.7-2.7c0.7,0,1.2,0.3,1.7,0.6c-0.6,1.6-1.3,3.2-2,4.7
					C363.4,230.5,362.4,229.4,362.4,228.1z"/>
				<path class="st5" d="M359.8,153.1c0.2,0.3,0.3,0.6,0.5,0.9C360.1,153.7,359.9,153.4,359.8,153.1z"/>
				<path class="st5" d="M316.2,234.8c1.5,0,2.7,1.2,2.7,2.7c0,1.5-1.2,2.7-2.7,2.7c-1.5,0-2.7-1.2-2.7-2.7
					C313.5,236,314.7,234.8,316.2,234.8z"/>
				<path class="st5" d="M256.2,215.8c1.5,0,2.7,1.2,2.7,2.7c0,1.5-1.2,2.7-2.7,2.7c-1.5,0-2.7-1.2-2.7-2.7
					C253.5,217,254.7,215.8,256.2,215.8z"/>
				<path class="st5" d="M247.9,210.5v-2.9c0.3,0.4,0.5,0.9,0.5,1.4C248.4,209.6,248.2,210.1,247.9,210.5z"/>
				<path class="st5" d="M255.5,196.9c1.5,0,2.7,1.2,2.7,2.7c0,1.5-1.2,2.7-2.7,2.7c-1.5,0-2.7-1.2-2.7-2.7
					C252.8,198.1,254,196.9,255.5,196.9z"/>
				<path class="st5" d="M249.1,228.1c0,0.9-0.5,1.7-1.2,2.2v-4.3C248.6,226.4,249.1,227.2,249.1,228.1z"/>
				<path class="st5" d="M346,249.7c-1.5,0-2.7-1.2-2.7-2.7c0-1.5,1.2-2.7,2.7-2.7s2.7,1.2,2.7,2.7
					C348.7,248.5,347.5,249.7,346,249.7z"/>
				<path class="st5" d="M316.9,253.8c0.4,0,0.8,0.1,1.1,0.3c-0.7,0-1.4,0-2.1-0.1C316.2,253.8,316.5,253.8,316.9,253.8z"/>
				<path class="st5" d="M286.6,244.3c1.5,0,2.7,1.2,2.7,2.7c0,1.3-0.9,2.3-2.1,2.6c-1-0.3-1.9-0.7-2.9-1.1
					c-0.3-0.4-0.5-0.9-0.5-1.4C283.9,245.5,285.2,244.3,286.6,244.3z"/>
				<circle class="st5" cx="266.2" cy="228.1" r="2.7"/>
				
					<ellipse transform="matrix(0.9247 -0.3806 0.3806 0.9247 -62.306 141.0741)" class="st5" cx="325.5" cy="228.1" rx="2.7" ry="2.7"/>
				<path class="st5" d="M276.6,240.2c-1.5,0-2.7-1.2-2.7-2.7c0-1.5,1.2-2.7,2.7-2.7c1.5,0,2.7,1.2,2.7,2.7
					C279.3,239,278.1,240.2,276.6,240.2z"/>
				<path class="st5" d="M275.9,215.8c1.5,0,2.7,1.2,2.7,2.7c0,1.5-1.2,2.7-2.7,2.7c-1.5,0-2.7-1.2-2.7-2.7
					C273.2,217,274.5,215.8,275.9,215.8z"/>
				<circle class="st5" cx="264.8" cy="190.1" r="2.7"/>
				<circle class="st5" cx="345.3" cy="228.1" r="2.7"/>
				<path class="st5" d="M275.3,196.9c1.5,0,2.7,1.2,2.7,2.7c0,1.5-1.2,2.7-2.7,2.7s-2.7-1.2-2.7-2.7
					C272.6,198.1,273.8,196.9,275.3,196.9z"/>
				<path class="st5" d="M265.5,206.4c1.5,0,2.7,1.2,2.7,2.7c0,1.5-1.2,2.7-2.7,2.7c-1.5,0-2.7-1.2-2.7-2.7
					C262.8,207.6,264,206.4,265.5,206.4z"/>
				<circle class="st5" cx="274.6" cy="180.6" r="2.7"/>
				<path class="st5" d="M322.8,149.5c1.5,0,2.7,1.2,2.7,2.7c0,1.5-1.2,2.7-2.7,2.7c-1.5,0-2.7-1.2-2.7-2.7
					C320.1,150.7,321.3,149.5,322.8,149.5z"/>
				<circle class="st5" cx="335.3" cy="218.5" r="2.7"/>
				<path class="st5" d="M323.5,168.5c1.5,0,2.7,1.2,2.7,2.7c0,1.5-1.2,2.7-2.7,2.7c-1.5,0-2.7-1.2-2.7-2.7
					C320.8,169.7,322,168.5,323.5,168.5z"/>
				<path class="st5" d="M336,234.8c1.5,0,2.7,1.2,2.7,2.7c0,1.5-1.2,2.7-2.7,2.7c-1.5,0-2.7-1.2-2.7-2.7
					C333.3,236,334.5,234.8,336,234.8z"/>
				<path class="st5" d="M344.6,211.8c-1.5,0-2.7-1.2-2.7-2.7c0-1.5,1.2-2.7,2.7-2.7c1.5,0,2.7,1.2,2.7,2.7
					C347.3,210.6,346.1,211.8,344.6,211.8z"/>
				<path class="st5" d="M324.8,206.4c1.5,0,2.7,1.2,2.7,2.7c0,1.5-1.2,2.7-2.7,2.7c-1.5,0-2.7-1.2-2.7-2.7
					C322.1,207.6,323.3,206.4,324.8,206.4z"/>
				<path class="st5" d="M324.1,187.4c1.5,0,2.7,1.2,2.7,2.7c0,1.5-1.2,2.7-2.7,2.7c-1.5,0-2.7-1.2-2.7-2.7
					C321.4,188.7,322.7,187.4,324.1,187.4z"/>
				<path class="st5" d="M326.2,244.3c1.5,0,2.7,1.2,2.7,2.7c0,1.5-1.2,2.7-2.7,2.7c-1.5,0-2.7-1.2-2.7-2.7
					C323.5,245.5,324.7,244.3,326.2,244.3z"/>
				<path class="st5" d="M334.6,196.9c1.5,0,2.7,1.2,2.7,2.7c0,1.5-1.2,2.7-2.7,2.7s-2.7-1.2-2.7-2.7
					C331.9,198.1,333.1,196.9,334.6,196.9z"/>
				<circle class="st5" cx="342.5" cy="152.2" r="2.7"/>
				<circle class="st5" cx="343.9" cy="190.1" r="2.7"/>
				<circle class="st5" cx="343.2" cy="171.2" r="2.7"/>
				<path class="st5" d="M333.2,159c1.5,0,2.7,1.2,2.7,2.7c0,1.5-1.2,2.7-2.7,2.7c-1.5,0-2.7-1.2-2.7-2.7
					C330.5,160.2,331.7,159,333.2,159z"/>
				<circle class="st5" cx="333.9" cy="180.6" r="2.7"/>
			</g>
			<path class="st3" d="M347.3,244c6.5-5.6,20.1-18.9,21-47.6c0.7-23.6-9.3-43.8-14.4-50.8c0.8,0.4,1.6,0.9,2,1.4
				c4.8,5.6,16.6,27.6,15.8,53.5c-0.9,29.5-14.9,43.2-21.6,48.9c-6.7,5.8-53.6,7.4-69.7-3.2c-16.1-10.5-22.8-14.4-32.4-14.4v-5
				c9.3,0,15.9,3.7,31.5,14S340.7,249.6,347.3,244z"/>
			<path class="st2" d="M295.4,153.8c25-13.9,55.6-12.4,60.4-6.7c1.2,1.4,2.8,4,4.5,7.5c0,0-80.4-5.8-112.4,77.4v-26.4
				C247.9,205.6,254.2,176.8,295.4,153.8z"/>
		</g>
		<g>
			<path class="st2" d="M241.3,240.1l-1.5-1.4c-0.5-0.5-0.6-1.4,0-1.9l15.2-16.4c0.5-0.5,1.4-0.6,1.9,0l2.5,2.4
				c0.5,0.5,0.6,1.4,0,1.9l-16.2,15.4C242.7,240.6,241.8,240.6,241.3,240.1z"/>
			<path class="st2" d="M255,240.1l1.5-1.4c0.5-0.5,0.6-1.4,0-1.9l-15.2-16.4c-0.5-0.5-1.4-0.6-1.9,0l-2.5,2.4
				c-0.5,0.5-0.6,1.4,0,1.9l16.2,15.4C253.6,240.6,254.5,240.6,255,240.1z"/>
		</g>
		<g class="st4">
			<path class="st2" d="M241.3,240.1l-1.5-1.4c-0.5-0.5-0.6-1.4,0-1.9l15.2-16.4c0.5-0.5,1.4-0.6,1.9,0l2.5,2.4
				c0.5,0.5,0.6,1.4,0,1.9l-16.2,15.4C242.7,240.6,241.8,240.6,241.3,240.1z"/>
			<path class="st2" d="M255,240.1l1.5-1.4c0.5-0.5,0.6-1.4,0-1.9l-15.2-16.4c-0.5-0.5-1.4-0.6-1.9,0l-2.5,2.4
				c-0.5,0.5-0.6,1.4,0,1.9l16.2,15.4C253.6,240.6,254.5,240.6,255,240.1z"/>
		</g>
	</g>
	<g>
		<path class="st0" d="M132.3,379.3c0,0,17.1-65.9,28-89.6c0,0,53.1,9.4,88.8,9.4v87.4L145,370.6L132.3,379.3z"/>
		<path class="st0" d="M365.9,379.3c0,0-17.1-65.9-28-89.6c0,0-53.1,9.4-88.8,9.4v87.4l104.1-15.9L365.9,379.3z"/>
		<path class="st0" d="M361.2,362.4l0.1,0l-6.2-14.9l-106.1,15.6l-106-15.6l-6.2,14.9l0.1,0c-3.7,8.8-5.5,18.6-6.4,30.5
			c0,0,73.7,6,103.4,86.4c0,0,11.3,2.5,15.2,2.5c3.8,0,15.2-2.5,15.2-2.5c29.7-80.4,103.4-86.4,103.4-86.4
			C366.7,381,364.9,371.3,361.2,362.4z"/>
		<path class="st3" d="M264.3,479.4c29.7-80.4,103.4-86.4,103.4-86.4c-0.2-2.5-0.5-4.9-0.7-7.2c-12.6,1.5-43.4,12.3-64.3,29.8
			c-23.4,19.7-37.1,39.9-44.7,65.1C261.3,480,264.3,479.4,264.3,479.4z"/>
		<path class="st3" d="M233.9,479.4c-29.7-80.4-103.4-86.4-103.4-86.4c0.2-2.5,0.5-4.9,0.7-7.2c12.6,1.5,43.4,12.3,64.3,29.8
			c23.4,19.7,37.1,39.9,44.7,65.1C236.9,480,233.9,479.4,233.9,479.4z"/>
		<path class="st2" d="M343.3,303.1c-1.9-5.2-3.7-9.8-5.3-13.4c0,0-53.1,9.4-88.8,9.4c-35.7,0-88.8-9.4-88.8-9.4
			c-1.6,3.6-3.4,8.2-5.3,13.4c0,0,24.6,14,94.3,14C319.1,317.1,343.2,303.1,343.3,303.1z"/>
		<g class="st4">
			<path class="st2" d="M268.8,306.2c0.1,0,0.1,0,0.2,0c0.1,0,0.1,0,0.2,0c1.2,0,2.3-1,2.3-2.3c0-1.2-1-2.3-2.3-2.3
				c-0.1,0-0.1,0-0.2,0c-0.1,0-0.1,0-0.2,0c-1.2,0-2.3,1-2.3,2.3C266.5,305.2,267.5,306.2,268.8,306.2z"/>
			<path class="st2" d="M266.3,381c-0.1,0-0.1,0-0.2,0c-0.1,0-0.1,0-0.2,0c-1.2,0-2.3,1-2.3,2.3c0,1.2,1,2.3,2.3,2.3
				c0.1,0,0.1,0,0.2,0c0.1,0,0.1,0,0.2,0c1.2,0,2.3-1,2.3-2.3C268.5,382,267.5,381,266.3,381z"/>
			<path class="st2" d="M272,456.9c1.2,0,2.3-1,2.3-2.3c0-1.2-1-2.3-2.3-2.3c-1.2,0-2.3,1-2.3,2.3
				C269.8,455.9,270.8,456.9,272,456.9z"/>
			<path class="st2" d="M268,333.4c-0.1,0-0.1,0-0.2,0c-0.1,0-0.1,0-0.2,0c-1.2,0-2.3,1-2.3,2.3c0,1.2,1,2.3,2.3,2.3
				c0.1,0,0.1,0,0.2,0c0.1,0,0.1,0,0.2,0c1.2,0,2.3-1,2.3-2.3C270.2,334.4,269.2,333.4,268,333.4z"/>
			<path class="st2" d="M267.4,349.2c-0.1,0-0.1,0-0.2,0c-0.1,0-0.1,0-0.2,0c-1.2,0-2.3,1-2.3,2.3c0,1.2,1,2.3,2.3,2.3
				c0.1,0,0.1,0,0.2,0c0.1,0,0.1,0,0.2,0c1.2,0,2.3-1,2.3-2.3C269.7,350.3,268.7,349.2,267.4,349.2z"/>
			<path class="st2" d="M272.6,436.5c-1.2,0-2.3,1-2.3,2.3c0,1.2,1,2.3,2.3,2.3c1.2,0,2.3-1,2.3-2.3
				C274.9,437.5,273.9,436.5,272.6,436.5z"/>
			<path class="st2" d="M268.2,322c0.1,0,0.1,0,0.2,0c0.1,0,0.1,0,0.2,0c1.2,0,2.3-1,2.3-2.3c0-1.2-1-2.3-2.3-2.3
				c-0.1,0-0.1,0-0.2,0c-0.1,0-0.1,0-0.2,0c-1.2,0-2.3,1-2.3,2.3C265.9,321,267,322,268.2,322z"/>
			<path class="st2" d="M275.2,357.1c-0.1,0-0.1,0-0.2,0c-0.1,0-0.1,0-0.2,0c-1.2,0-2.3,1-2.3,2.3c0,1.2,1,2.3,2.3,2.3
				c0.1,0,0.1,0,0.2,0c0.1,0,0.1,0,0.2,0c1.2,0,2.3-1,2.3-2.3C277.5,358.1,276.5,357.1,275.2,357.1z"/>
			<path class="st2" d="M273.2,420.6c-1.2,0-2.3,1-2.3,2.3c0,1.2,1,2.3,2.3,2.3c1.2,0,2.3-1,2.3-2.3
				C275.4,421.6,274.4,420.6,273.2,420.6z"/>
			<path class="st2" d="M274.6,373c-0.1,0-0.1,0-0.2,0c-0.1,0-0.1,0-0.2,0c-1.2,0-2.3,1-2.3,2.3c0,1.2,1,2.3,2.3,2.3
				c0.1,0,0.1,0,0.2,0c0.1,0,0.1,0,0.2,0c1.2,0,2.3-1,2.3-2.3C276.9,374,275.9,373,274.6,373z"/>
			<path class="st2" d="M275.8,341.3c-0.1,0-0.1,0-0.2,0c-0.1,0-0.1,0-0.2,0c-1.2,0-2.3,1-2.3,2.3c0,1.2,1,2.3,2.3,2.3
				c0.1,0,0.1,0,0.2,0c0.1,0,0.1,0,0.2,0c1.2,0,2.3-1,2.3-2.3C278,342.3,277,341.3,275.8,341.3z"/>
			<path class="st2" d="M273.8,404.8c-1.2,0-2.3,1-2.3,2.3c0,1.2,1,2.3,2.3,2.3c1.2,0,2.3-1,2.3-2.3
				C276,405.8,275,404.8,273.8,404.8z"/>
			<path class="st2" d="M274.1,388.8c-0.1,0-0.1,0-0.2,0c-0.1,0-0.1,0-0.2,0c-1.2,0-2.3,1-2.3,2.3c0,1.2,1,2.3,2.3,2.3
				c0.1,0,0.1,0,0.2,0c0.1,0,0.1,0,0.2,0c1.2,0,2.3-1,2.3-2.3C276.3,389.8,275.3,388.8,274.1,388.8z"/>
			<path class="st2" d="M266.8,365.1c-0.1,0-0.1,0-0.2,0c-0.1,0-0.1,0-0.2,0c-1.2,0-2.3,1-2.3,2.3c0,1.2,1,2.3,2.3,2.3
				c0.1,0,0.1,0,0.2,0c0.1,0,0.1,0,0.2,0c1.2,0,2.3-1,2.3-2.3C269.1,366.1,268.1,365.1,266.8,365.1z"/>
			<path class="st2" d="M258.7,357.1c-0.1,0-0.1,0-0.2,0c-0.1,0-0.1,0-0.2,0c-1.2,0-2.3,1-2.3,2.3c0,1.2,1,2.3,2.3,2.3
				c0.1,0,0.1,0,0.2,0c0.1,0,0.1,0,0.2,0c1.2,0,2.3-1,2.3-2.3C260.9,358.1,259.9,357.1,258.7,357.1z"/>
			<path class="st2" d="M267.9,399.1c0-1.2-1-2.3-2.3-2.3c0,0,0,0-0.1,0c0,0,0,0-0.1,0c0,0-0.1,0-0.1,0c0,0-0.1,0-0.1,0
				c-1.2,0-2.3,1-2.3,2.3c0,1.2,1,2.3,2.3,2.3c0,0,0.1,0,0.1,0c0,0,0.1,0,0.1,0c0,0,0,0,0.1,0c0,0,0,0,0.1,0
				C266.9,401.3,267.9,400.3,267.9,399.1z"/>
			<path class="st2" d="M259.2,341.3c-0.1,0-0.1,0-0.2,0c-0.1,0-0.1,0-0.2,0c-1.2,0-2.3,1-2.3,2.3c0,1.2,1,2.3,2.3,2.3
				c0.1,0,0.1,0,0.2,0c0.1,0,0.1,0,0.2,0c1.2,0,2.3-1,2.3-2.3C261.5,342.3,260.5,341.3,259.2,341.3z"/>
			<path class="st2" d="M258.1,373c-0.1,0-0.1,0-0.2,0c-0.1,0-0.1,0-0.2,0c-1.2,0-2.3,1-2.3,2.3c0,1.2,1,2.3,2.3,2.3
				c0.1,0,0.1,0,0.2,0c0.1,0,0.1,0,0.2,0c1.2,0,2.3-1,2.3-2.3C260.4,374,259.3,373,258.1,373z"/>
			<path class="st2" d="M256.6,420.6c-1.2,0-2.3,1-2.3,2.3c0,1.2,1,2.3,2.3,2.3c1.2,0,2.3-1,2.3-2.3
				C258.9,421.6,257.9,420.6,256.6,420.6z"/>
			<path class="st2" d="M257.5,388.8c-0.1,0-0.1,0-0.2,0c-0.1,0-0.1,0-0.2,0c-1.2,0-2.3,1-2.3,2.3c0,1.2,1,2.3,2.3,2.3
				c0.1,0,0.1,0,0.2,0c0.1,0,0.1,0,0.2,0c1.2,0,2.3-1,2.3-2.3C259.8,389.8,258.8,388.8,257.5,388.8z"/>
			<path class="st2" d="M257.2,404.8c-1.2,0-2.3,1-2.3,2.3c0,1.2,1,2.3,2.3,2.3c1.2,0,2.3-1,2.3-2.3
				C259.5,405.8,258.5,404.8,257.2,404.8z"/>
			<path class="st2" d="M259.5,329.9c0.1,0,0.1,0,0.2,0c0.1,0,0.1,0,0.2,0c1.2,0,2.3-1,2.3-2.3c0-1.2-1-2.3-2.3-2.3
				c-0.1,0-0.1,0-0.2,0c-0.1,0-0.1,0-0.2,0c-1.2,0-2.3,1-2.3,2.3C257.2,328.9,258.2,329.9,259.5,329.9z"/>
			<path class="st2" d="M264.4,428.5c-1.2,0-2.3,1-2.3,2.3c0,1.2,1,2.3,2.3,2.3c1.2,0,2.3-1,2.3-2.3
				C266.7,429.5,265.7,428.5,264.4,428.5z"/>
			<path class="st2" d="M276.4,325.4c-0.1,0-0.1,0-0.2,0c-0.1,0-0.1,0-0.2,0c-1.2,0-2.3,1-2.3,2.3c0,1.2,1,2.3,2.3,2.3
				c0.1,0,0.1,0,0.2,0c0.1,0,0.1,0,0.2,0c1.2,0,2.3-1,2.3-2.3C278.6,326.4,277.6,325.4,276.4,325.4z"/>
			<path class="st2" d="M265,412.7c-1.2,0-2.3,1-2.3,2.3c0,1.2,1,2.3,2.3,2.3c1.2,0,2.3-1,2.3-2.3
				C267.3,413.7,266.3,412.7,265,412.7z"/>
			<path class="st2" d="M263.9,444.4c-1.2,0-2.3,1-2.3,2.3c0,1.2,1,2.3,2.3,2.3c1.2,0,2.3-1,2.3-2.3
				C266.1,445.4,265.1,444.4,263.9,444.4z"/>
			<path class="st2" d="M263.3,464.8c1.2,0,2.3-1,2.3-2.3c0-1.2-1-2.3-2.3-2.3c-1.2,0-2.3,1-2.3,2.3
				C261,463.7,262,464.8,263.3,464.8z"/>
			<path class="st2" d="M260,314.1c0.1,0,0.1,0,0.2,0c0.1,0,0.1,0,0.2,0c1.2,0,2.3-1,2.3-2.3c0-1.2-1-2.3-2.3-2.3
				c-0.1,0-0.1,0-0.2,0c-0.1,0-0.1,0-0.2,0c-1.2,0-2.3,1-2.3,2.3C257.8,313.1,258.8,314.1,260,314.1z"/>
			<path class="st2" d="M277.2,298.2c0.1,0,0.1,0,0.2,0c0.1,0,0.1,0,0.2,0c0.6,0,1.2-0.3,1.6-0.7c-1.1,0.1-2.2,0.2-3.2,0.3
				C276.3,298,276.7,298.2,277.2,298.2z"/>
			<path class="st2" d="M251.4,337.9c1.2,0,2.3-1,2.3-2.3c0-1.2-1-2.3-2.3-2.3s-2.3,1-2.3,2.3C249.2,336.9,250.2,337.9,251.4,337.9z
				"/>
			<path class="st2" d="M250.9,353.8c1.2,0,2.3-1,2.3-2.3c0-1.2-1-2.3-2.3-2.3c-1.2,0-2.3,1-2.3,2.3
				C248.6,352.7,249.6,353.8,250.9,353.8z"/>
			<path class="st2" d="M252.6,306.2c1.2,0,2.3-1,2.3-2.3c0-1.2-1-2.3-2.3-2.3c-1.2,0-2.3,1-2.3,2.3
				C250.3,305.2,251.3,306.2,252.6,306.2z"/>
			<path class="st2" d="M293.5,309.6c-0.1,0-0.1,0-0.2,0c-0.1,0-0.1,0-0.2,0c-1.2,0-2.3,1-2.3,2.3c0,1.2,1,2.3,2.3,2.3
				c0.1,0,0.1,0,0.2,0c0.1,0,0.1,0,0.2,0c1.2,0,2.3-1,2.3-2.3C295.7,310.6,294.7,309.6,293.5,309.6z"/>
			<path class="st2" d="M292.3,341.3c-0.1,0-0.1,0-0.2,0c-0.1,0-0.1,0-0.2,0c-1.2,0-2.3,1-2.3,2.3c0,1.2,1,2.3,2.3,2.3
				c0.1,0,0.1,0,0.2,0c0.1,0,0.1,0,0.2,0c1.2,0,2.3-1,2.3-2.3C294.6,342.3,293.6,341.3,292.3,341.3z"/>
			<path class="st2" d="M242.1,357.1c-1.2,0-2.3,1-2.3,2.3c0,1.2,1,2.3,2.3,2.3c1.2,0,2.3-1,2.3-2.3
				C244.4,358.1,243.4,357.1,242.1,357.1z"/>
			<path class="st2" d="M292.9,325.4c-0.1,0-0.1,0-0.2,0c-0.1,0-0.1,0-0.2,0c-1.2,0-2.3,1-2.3,2.3c0,1.2,1,2.3,2.3,2.3
				c0.1,0,0.1,0,0.2,0c0.1,0,0.1,0,0.2,0c1.2,0,2.3-1,2.3-2.3C295.2,326.4,294.2,325.4,292.9,325.4z"/>
			<path class="st2" d="M246.2,480.6c1.2,0,2.3-1,2.3-2.3c0-1.2-1-2.3-2.3-2.3c-1.2,0-2.3,1-2.3,2.3
				C243.9,479.6,244.9,480.6,246.2,480.6z"/>
			<path class="st2" d="M291.8,357.1c-0.1,0-0.1,0-0.2,0c-0.1,0-0.1,0-0.2,0c-1.2,0-2.3,1-2.3,2.3c0,1.2,1,2.3,2.3,2.3
				c0.1,0,0.1,0,0.2,0c0.1,0,0.1,0,0.2,0c1.2,0,2.3-1,2.3-2.3C294,358.1,293,357.1,291.8,357.1z"/>
			<path class="st2" d="M235.5,322c1.2,0,2.3-1,2.3-2.3c0-1.2-1-2.3-2.3-2.3c-1.2,0-2.3,1-2.3,2.3C233.2,321,234.2,322,235.5,322z"
				/>
			<path class="st2" d="M233.7,365.1c-1.2,0-2.3,1-2.3,2.3c0,1.2,1,2.3,2.3,2.3c1.2,0,2.3-1,2.3-2.3
				C236,366.1,235,365.1,233.7,365.1z"/>
			<path class="st2" d="M234.3,349.2c-1.2,0-2.3,1-2.3,2.3c0,1.2,1,2.3,2.3,2.3c1.2,0,2.3-1,2.3-2.3
				C236.6,350.3,235.6,349.2,234.3,349.2z"/>
			<path class="st2" d="M276.9,309.6c-0.1,0-0.1,0-0.2,0c-0.1,0-0.1,0-0.2,0c-1.2,0-2.3,1-2.3,2.3c0,1.2,1,2.3,2.3,2.3
				c0.1,0,0.1,0,0.2,0c0.1,0,0.1,0,0.2,0c1.2,0,2.3-1,2.3-2.3C279.2,310.6,278.2,309.6,276.9,309.6z"/>
			<path class="st2" d="M232.6,396.8C232.6,396.8,232.6,396.8,232.6,396.8c-0.1,0-0.1,0-0.1,0c-1.2,0-2.3,1-2.3,2.3
				c0,1.2,1,2.3,2.3,2.3c0,0,0,0,0.1,0c0,0,0,0,0,0c1.2,0,2.3-1,2.3-2.3C234.9,397.8,233.8,396.8,232.6,396.8z"/>
			<path class="st2" d="M233.2,381c-1.2,0-2.3,1-2.3,2.3c0,1.2,1,2.3,2.3,2.3c1.2,0,2.3-1,2.3-2.3C235.4,382,234.4,381,233.2,381z"
				/>
			<path class="st2" d="M284,349.2c-0.1,0-0.1,0-0.2,0c-0.1,0-0.1,0-0.2,0c-1.2,0-2.3,1-2.3,2.3c0,1.2,1,2.3,2.3,2.3
				c0.1,0,0.1,0,0.2,0c0.1,0,0.1,0,0.2,0c1.2,0,2.3-1,2.3-2.3C286.2,350.3,285.2,349.2,284,349.2z"/>
			<path class="st2" d="M283.4,365.1c-0.1,0-0.1,0-0.2,0c-0.1,0-0.1,0-0.2,0c-1.2,0-2.3,1-2.3,2.3c0,1.2,1,2.3,2.3,2.3
				c0.1,0,0.1,0,0.2,0c0.1,0,0.1,0,0.2,0c1.2,0,2.3-1,2.3-2.3C285.6,366.1,284.6,365.1,283.4,365.1z"/>
			<path class="st2" d="M284.5,399.1c0-1.2-1-2.3-2.3-2.3c0,0,0,0-0.1,0c0,0,0,0-0.1,0c0,0-0.1,0-0.1,0c0,0-0.1,0-0.1,0
				c-1.2,0-2.3,1-2.3,2.3c0,1.2,1,2.3,2.3,2.3c0,0,0.1,0,0.1,0c0,0,0.1,0,0.1,0c0,0,0,0,0.1,0c0,0,0,0,0.1,0
				C283.5,401.3,284.5,400.3,284.5,399.1z"/>
			<path class="st2" d="M291.2,373c-0.1,0-0.1,0-0.2,0c-0.1,0-0.1,0-0.2,0c-1.2,0-2.3,1-2.3,2.3c0,1.2,1,2.3,2.3,2.3
				c0.1,0,0.1,0,0.2,0c0.1,0,0.1,0,0.2,0c1.2,0,2.3-1,2.3-2.3C293.4,374,292.4,373,291.2,373z"/>
			<path class="st2" d="M281.6,412.7c-1.2,0-2.3,1-2.3,2.3c0,1.2,1,2.3,2.3,2.3c1.2,0,2.3-1,2.3-2.3
				C283.8,413.7,282.8,412.7,281.6,412.7z"/>
			<path class="st2" d="M281,433c1.2,0,2.3-1,2.3-2.3c0-1.2-1-2.3-2.3-2.3c-1.2,0-2.3,1-2.3,2.3C278.7,432,279.7,433,281,433z"/>
			<path class="st2" d="M282.8,381c-0.1,0-0.1,0-0.2,0c-0.1,0-0.1,0-0.2,0c-1.2,0-2.3,1-2.3,2.3c0,1.2,1,2.3,2.3,2.3
				c0.1,0,0.1,0,0.2,0c0.1,0,0.1,0,0.2,0c1.2,0,2.3-1,2.3-2.3C285.1,382,284.1,381,282.8,381z"/>
			<path class="st2" d="M289.7,425.2c1.2,0,2.3-1,2.3-2.3c0-1.2-1-2.3-2.3-2.3c-1.2,0-2.3,1-2.3,2.3
				C287.5,424.1,288.5,425.2,289.7,425.2z"/>
			<path class="st2" d="M284.5,333.4c-0.1,0-0.1,0-0.2,0c-0.1,0-0.1,0-0.2,0c-1.2,0-2.3,1-2.3,2.3c0,1.2,1,2.3,2.3,2.3
				c0.1,0,0.1,0,0.2,0c0.1,0,0.1,0,0.2,0c1.2,0,2.3-1,2.3-2.3C286.8,334.4,285.8,333.4,284.5,333.4z"/>
			<path class="st2" d="M290.6,388.8c-0.1,0-0.1,0-0.2,0c-0.1,0-0.1,0-0.2,0c-1.2,0-2.3,1-2.3,2.3c0,1.2,1,2.3,2.3,2.3
				c0.1,0,0.1,0,0.2,0c0.1,0,0.1,0,0.2,0c1.2,0,2.3-1,2.3-2.3C292.9,389.8,291.9,388.8,290.6,388.8z"/>
			<path class="st2" d="M290.3,404.8c-1.2,0-2.3,1-2.3,2.3c0,1.2,1,2.3,2.3,2.3c1.2,0,2.3-1,2.3-2.3
				C292.6,405.8,291.5,404.8,290.3,404.8z"/>
			<path class="st2" d="M285.7,301.7c-0.1,0-0.1,0-0.2,0c-0.1,0-0.1,0-0.2,0c-1.2,0-2.3,1-2.3,2.3c0,1.2,1,2.3,2.3,2.3
				c0.1,0,0.1,0,0.2,0c0.1,0,0.1,0,0.2,0c1.2,0,2.3-1,2.3-2.3C287.9,302.7,286.9,301.7,285.7,301.7z"/>
			<path class="st2" d="M285.1,317.5c-0.1,0-0.1,0-0.2,0c-0.1,0-0.1,0-0.2,0c-1.2,0-2.3,1-2.3,2.3c0,1.2,1,2.3,2.3,2.3
				c0.1,0,0.1,0,0.2,0c0.1,0,0.1,0,0.2,0c1.2,0,2.3-1,2.3-2.3C287.4,318.5,286.4,317.5,285.1,317.5z"/>
			<path class="st2" d="M326.2,309.6c-1.2,0-2.3,1-2.3,2.3c0,1.2,1,2.3,2.3,2.3c1.2,0,2.3-1,2.3-2.3
				C328.5,310.6,327.5,309.6,326.2,309.6z"/>
			<path class="st2" d="M334.4,317.5c-1.2,0-2.3,1-2.3,2.3c0,1.2,1,2.3,2.3,2.3c1.2,0,2.3-1,2.3-2.3
				C336.6,318.5,335.6,317.5,334.4,317.5z"/>
			<path class="st2" d="M340.5,377.5c1.2,0,2.3-1,2.3-2.3c0-1.2-1-2.3-2.3-2.3c-1.2,0-2.3,1-2.3,2.3
				C338.2,376.5,339.2,377.5,340.5,377.5z"/>
			<path class="st2" d="M332.7,365.1c-1.2,0-2.3,1-2.3,2.3c0,1.2,1,2.3,2.3,2.3c1.2,0,2.3-1,2.3-2.3
				C334.9,366.1,333.9,365.1,332.7,365.1z"/>
			<path class="st2" d="M333.2,349.2c-1.2,0-2.3,1-2.3,2.3c0,1.2,1,2.3,2.3,2.3c1.2,0,2.3-1,2.3-2.3
				C335.5,350.3,334.5,349.2,333.2,349.2z"/>
			<path class="st2" d="M339.9,393.4c1.2,0,2.3-1,2.3-2.3c0-1.2-1-2.3-2.3-2.3c-1.2,0-2.3,1-2.3,2.3
				C337.6,392.3,338.6,393.4,339.9,393.4z"/>
			<path class="st2" d="M332.1,381c-1.2,0-2.3,1-2.3,2.3c0,1.2,1,2.3,2.3,2.3c1.2,0,2.3-1,2.3-2.3C334.3,382,333.3,381,332.1,381z"
				/>
			<path class="st2" d="M331.8,396.8c0,0-0.1,0-0.1,0c0,0-0.1,0-0.1,0c-1.2,0-2.3,1-2.3,2.3c0,1.2,1,2.3,2.3,2.3c0,0,0.1,0,0.1,0
				c0,0,0.1,0,0.1,0c1.2,0,2.3-1,2.3-2.3C334,397.8,333,396.8,331.8,396.8z"/>
			<path class="st2" d="M333.8,333.4c-1.2,0-2.3,1-2.3,2.3c0,1.2,1,2.3,2.3,2.3c1.2,0,2.3-1,2.3-2.3
				C336.1,334.4,335,333.4,333.8,333.4z"/>
			<path class="st2" d="M325.1,341.3c-1.2,0-2.3,1-2.3,2.3c0,1.2,1,2.3,2.3,2.3c1.2,0,2.3-1,2.3-2.3
				C327.3,342.3,326.3,341.3,325.1,341.3z"/>
			<path class="st2" d="M324.5,357.1c-1.2,0-2.3,1-2.3,2.3c0,1.2,1,2.3,2.3,2.3c1.2,0,2.3-1,2.3-2.3
				C326.7,358.1,325.7,357.1,324.5,357.1z"/>
			<path class="st2" d="M325.6,325.4c-1.2,0-2.3,1-2.3,2.3c0,1.2,1,2.3,2.3,2.3c1.2,0,2.3-1,2.3-2.3
				C327.9,326.4,326.9,325.4,325.6,325.4z"/>
			<path class="st2" d="M323.3,388.8c-1.2,0-2.3,1-2.3,2.3c0,1.2,1,2.3,2.3,2.3c1.2,0,2.3-1,2.3-2.3
				C325.6,389.8,324.6,388.8,323.3,388.8z"/>
			<path class="st2" d="M236.1,306.2c1.2,0,2.3-1,2.3-2.3c0-1.2-1-2.3-2.3-2.3c-1.2,0-2.3,1-2.3,2.3
				C233.8,305.2,234.8,306.2,236.1,306.2z"/>
			<path class="st2" d="M323.9,373c-1.2,0-2.3,1-2.3,2.3c0,1.2,1,2.3,2.3,2.3c1.2,0,2.3-1,2.3-2.3C326.2,374,325.2,373,323.9,373z"
				/>
			<path class="st2" d="M335,301.7c-1.2,0-2.3,1-2.3,2.3c0,1.2,1,2.3,2.3,2.3c1.2,0,2.3-1,2.3-2.3
				C337.2,302.7,336.2,301.7,335,301.7z"/>
			<path class="st2" d="M356.4,345c-0.2-0.6-0.3-1.1-0.5-1.7c0,0.1-0.1,0.2-0.1,0.3C355.9,344.1,356.1,344.6,356.4,345z"/>
			<path class="st2" d="M349.2,365.1c-1.2,0-2.3,1-2.3,2.3c0,1.2,1,2.3,2.3,2.3c1.2,0,2.3-1,2.3-2.3
				C351.5,366.1,350.4,365.1,349.2,365.1z"/>
			<path class="st2" d="M357.6,357.1c-1.2,0-2.3,1-2.3,2.3c0,1.2,1,2.3,2.3,2.3c1.2,0,2.3-1,2.3-2.3
				C359.8,358.1,358.8,357.1,357.6,357.1z"/>
			<path class="st2" d="M348.6,381c-1.2,0-2.3,1-2.3,2.3c0,1.2,1,2.3,2.3,2.3c1.2,0,2.3-1,2.3-2.3C350.9,382,349.9,381,348.6,381z"
				/>
			<path class="st2" d="M342.8,309.6c-1.2,0-2.3,1-2.3,2.3c0,1.2,1,2.3,2.3,2.3c1.2,0,2.3-1,2.3-2.3
				C345,310.6,344,309.6,342.8,309.6z"/>
			<path class="st2" d="M357,373c-1.2,0-2.3,1-2.3,2.3c0,1.2,1,2.3,2.3,2.3c1.2,0,2.3-1,2.3-2.3C359.3,374,358.2,373,357,373z"/>
			<path class="st2" d="M356.4,388.8c-1.2,0-2.3,1-2.3,2.3c0,1.2,1,2.3,2.3,2.3c1.2,0,2.3-1,2.3-2.3
				C358.7,389.8,357.7,388.8,356.4,388.8z"/>
			<path class="st2" d="M341,357.1c-1.2,0-2.3,1-2.3,2.3c0,1.2,1,2.3,2.3,2.3c1.2,0,2.3-1,2.3-2.3
				C343.3,358.1,342.3,357.1,341,357.1z"/>
			<path class="st2" d="M349.8,349.2c-1.2,0-2.3,1-2.3,2.3c0,1.2,1,2.3,2.3,2.3c1.2,0,2.3-1,2.3-2.3
				C352,350.3,351,349.2,349.8,349.2z"/>
			<path class="st2" d="M341.6,341.3c-1.2,0-2.3,1-2.3,2.3c0,1.2,1,2.3,2.3,2.3c1.2,0,2.3-1,2.3-2.3
				C343.9,342.3,342.9,341.3,341.6,341.3z"/>
			<path class="st2" d="M342.2,325.4c-1.2,0-2.3,1-2.3,2.3c0,1.2,1,2.3,2.3,2.3c1.2,0,2.3-1,2.3-2.3
				C344.4,326.4,343.4,325.4,342.2,325.4z"/>
			<path class="st2" d="M350.3,333.4c-1.2,0-2.3,1-2.3,2.3c0,1.2,1,2.3,2.3,2.3c1.2,0,2.3-1,2.3-2.3
				C352.6,334.4,351.6,333.4,350.3,333.4z"/>
			<path class="st2" d="M349.4,321.4c-0.2-0.7-0.4-1.3-0.6-2c0,0.1-0.1,0.2-0.1,0.4C348.7,320.4,348.9,321,349.4,321.4z"/>
			<path class="st2" d="M326.8,293.7c-1.2,0-2.3,1-2.3,2.3c0,1.2,1,2.3,2.3,2.3c1.2,0,2.3-1,2.3-2.3
				C329,294.7,328,293.7,326.8,293.7z"/>
			<path class="st2" d="M299.4,381c-0.1,0-0.1,0-0.2,0c-0.1,0-0.1,0-0.2,0c-1.2,0-2.3,1-2.3,2.3c0,1.2,1,2.3,2.3,2.3
				c0.1,0,0.1,0,0.2,0c0.1,0,0.1,0,0.2,0c1.2,0,2.3-1,2.3-2.3C301.6,382,300.6,381,299.4,381z"/>
			<path class="st2" d="M309.1,325.4c-1.2,0-2.3,1-2.3,2.3c0,1.2,1,2.3,2.3,2.3c1.2,0,2.3-1,2.3-2.3
				C311.3,326.4,310.3,325.4,309.1,325.4z"/>
			<path class="st2" d="M300.5,349.2c-0.1,0-0.1,0-0.2,0c-0.1,0-0.1,0-0.2,0c-1.2,0-2.3,1-2.3,2.3c0,1.2,1,2.3,2.3,2.3
				c0.1,0,0.1,0,0.2,0c0.1,0,0.1,0,0.2,0c1.2,0,2.3-1,2.3-2.3C302.8,350.3,301.7,349.2,300.5,349.2z"/>
			<path class="st2" d="M299.9,365.1c-0.1,0-0.1,0-0.2,0c-0.1,0-0.1,0-0.2,0c-1.2,0-2.3,1-2.3,2.3c0,1.2,1,2.3,2.3,2.3
				c0.1,0,0.1,0,0.2,0c0.1,0,0.1,0,0.2,0c1.2,0,2.3-1,2.3-2.3C302.2,366.1,301.2,365.1,299.9,365.1z"/>
			<path class="st2" d="M309.7,309.6c-1.2,0-2.3,1-2.3,2.3c0,1.2,1,2.3,2.3,2.3c1.2,0,2.3-1,2.3-2.3
				C311.9,310.6,310.9,309.6,309.7,309.6z"/>
			<path class="st2" d="M301,399.1c0-1.2-1-2.3-2.3-2.3c0,0,0,0-0.1,0s0,0-0.1,0c0,0-0.1,0-0.1,0c0,0-0.1,0-0.1,0
				c-1.2,0-2.3,1-2.3,2.3c0,1.2,1,2.3,2.3,2.3c0,0,0.1,0,0.1,0c0,0,0.1,0,0.1,0c0,0,0,0,0.1,0s0,0,0.1,0
				C300,401.3,301,400.3,301,399.1z"/>
			<path class="st2" d="M295.8,414.9c0,1.2,1,2.3,2.3,2.3c1.2,0,2.3-1,2.3-2.3c0-1.2-1-2.3-2.3-2.3
				C296.9,412.7,295.8,413.7,295.8,414.9z"/>
			<path class="st2" d="M301.1,333.4c-0.1,0-0.1,0-0.2,0c-0.1,0-0.1,0-0.2,0c-1.2,0-2.3,1-2.3,2.3c0,1.2,1,2.3,2.3,2.3
				c0.1,0,0.1,0,0.2,0c0.1,0,0.1,0,0.2,0c1.2,0,2.3-1,2.3-2.3C303.3,334.4,302.3,333.4,301.1,333.4z"/>
			<path class="st2" d="M255.5,452.4c-1.2,0-2.3,1-2.3,2.3c0,1.2,1,2.3,2.3,2.3c1.2,0,2.3-1,2.3-2.3
				C257.7,453.4,256.7,452.4,255.5,452.4z"/>
			<path class="st2" d="M254.9,468.2c-1.2,0-2.3,1-2.3,2.3c0,1.2,1,2.3,2.3,2.3c1.2,0,2.3-1,2.3-2.3
				C257.2,469.2,256.2,468.2,254.9,468.2z"/>
			<path class="st2" d="M256.1,436.5c-1.2,0-2.3,1-2.3,2.3c0,1.2,1,2.3,2.3,2.3c1.2,0,2.3-1,2.3-2.3
				C258.3,437.5,257.3,436.5,256.1,436.5z"/>
			<path class="st2" d="M301.7,317.5c-0.1,0-0.1,0-0.2,0c-0.1,0-0.1,0-0.2,0c-1.2,0-2.3,1-2.3,2.3c0,1.2,1,2.3,2.3,2.3
				c0.1,0,0.1,0,0.2,0c0.1,0,0.1,0,0.2,0c1.2,0,2.3-1,2.3-2.3C303.9,318.5,302.9,317.5,301.7,317.5z"/>
			<path class="st2" d="M293.7,298.2c0.1,0,0.1,0,0.2,0c0.1,0,0.1,0,0.2,0c1.2,0,2.3-1,2.3-2.3c0-0.1,0-0.2,0-0.2
				c-1.6,0.2-3.2,0.4-4.8,0.5C291.7,297.4,292.6,298.2,293.7,298.2z"/>
			<path class="st2" d="M302.2,301.7c-0.1,0-0.1,0-0.2,0c-0.1,0-0.1,0-0.2,0c-1.2,0-2.3,1-2.3,2.3c0,1.2,1,2.3,2.3,2.3
				c0.1,0,0.1,0,0.2,0c0.1,0,0.1,0,0.2,0c1.2,0,2.3-1,2.3-2.3C304.5,302.7,303.5,301.7,302.2,301.7z"/>
			<path class="st2" d="M317.3,333.4c-1.2,0-2.3,1-2.3,2.3c0,1.2,1,2.3,2.3,2.3c1.2,0,2.3-1,2.3-2.3
				C319.5,334.4,318.5,333.4,317.3,333.4z"/>
			<path class="st2" d="M316.7,349.2c-1.2,0-2.3,1-2.3,2.3c0,1.2,1,2.3,2.3,2.3c1.2,0,2.3-1,2.3-2.3
				C318.9,350.3,317.9,349.2,316.7,349.2z"/>
			<path class="st2" d="M316.1,365.1c-1.2,0-2.3,1-2.3,2.3c0,1.2,1,2.3,2.3,2.3c1.2,0,2.3-1,2.3-2.3
				C318.4,366.1,317.4,365.1,316.1,365.1z"/>
			<path class="st2" d="M252,322c1.2,0,2.3-1,2.3-2.3c0-1.2-1-2.3-2.3-2.3c-1.2,0-2.3,1-2.3,2.3C249.8,321,250.8,322,252,322z"/>
			<path class="st2" d="M315.2,396.8c0,0-0.1,0-0.1,0c0,0-0.1,0-0.1,0c-1.2,0-2.3,1-2.3,2.3c0,1.2,1,2.3,2.3,2.3c0,0,0.1,0,0.1,0
				c0,0,0.1,0,0.1,0c1.2,0,2.3-1,2.3-2.3C317.5,397.8,316.5,396.8,315.2,396.8z"/>
			<path class="st2" d="M308.5,341.3c-1.2,0-2.3,1-2.3,2.3c0,1.2,1,2.3,2.3,2.3c1.2,0,2.3-1,2.3-2.3
				C310.8,342.3,309.8,341.3,308.5,341.3z"/>
			<path class="st2" d="M315.5,381c-1.2,0-2.3,1-2.3,2.3c0,1.2,1,2.3,2.3,2.3c1.2,0,2.3-1,2.3-2.3C317.8,382,316.8,381,315.5,381z"
				/>
			<path class="st2" d="M317.8,317.5c-1.2,0-2.3,1-2.3,2.3c0,1.2,1,2.3,2.3,2.3c1.2,0,2.3-1,2.3-2.3
				C320.1,318.5,319.1,317.5,317.8,317.5z"/>
			<path class="st2" d="M307.4,373c-1.2,0-2.3,1-2.3,2.3c0,1.2,1,2.3,2.3,2.3c1.2,0,2.3-1,2.3-2.3C309.6,374,308.6,373,307.4,373z"
				/>
			<path class="st2" d="M309,391.1c0-1.2-1-2.3-2.3-2.3c-1.2,0-2.3,1-2.3,2.3c0,1.2,1,2.3,2.3,2.3C308,393.4,309,392.3,309,391.1z"
				/>
			<path class="st2" d="M307.9,357.1c-1.2,0-2.3,1-2.3,2.3c0,1.2,1,2.3,2.3,2.3c1.2,0,2.3-1,2.3-2.3
				C310.2,358.1,309.2,357.1,307.9,357.1z"/>
			<path class="st2" d="M306.8,409.3c1.2,0,2.3-1,2.3-2.3c0-1.2-1-2.3-2.3-2.3c-1.2,0-2.3,1-2.3,2.3
				C304.6,408.3,305.6,409.3,306.8,409.3z"/>
			<path class="st2" d="M318.4,301.7c-1.2,0-2.3,1-2.3,2.3c0,1.2,1,2.3,2.3,2.3c1.2,0,2.3-1,2.3-2.3
				C320.7,302.7,319.7,301.7,318.4,301.7z"/>
			<path class="st2" d="M308,296c0,1.2,1,2.3,2.3,2.3c1.2,0,2.3-1,2.3-2.3c0-1-0.7-1.8-1.6-2.1c-0.6,0.1-1.3,0.2-1.9,0.3
				C308.4,294.5,308,295.2,308,296z"/>
			<path class="st2" d="M224.7,454.6c0-1.2-1-2.3-2.3-2.3c-0.5,0-0.9,0.2-1.3,0.5c0.8,1.2,1.5,2.5,2.2,3.8
				C224.1,456.3,224.7,455.5,224.7,454.6z"/>
			<path class="st2" d="M177.7,309.6c-1.2,0-2.3,1-2.3,2.3c0,1.2,1,2.3,2.3,2.3c1.2,0,2.3-1,2.3-2.3
				C179.9,310.6,178.9,309.6,177.7,309.6z"/>
			<path class="st2" d="M167.6,365.1c-1.2,0-2.3,1-2.3,2.3c0,1.2,1,2.3,2.3,2.3c1.2,0,2.3-1,2.3-2.3
				C169.8,366.1,168.8,365.1,167.6,365.1z"/>
			<path class="st2" d="M168.7,333.4c-1.2,0-2.3,1-2.3,2.3c0,1.2,1,2.3,2.3,2.3c1.2,0,2.3-1,2.3-2.3
				C171,334.4,170,333.4,168.7,333.4z"/>
			<path class="st2" d="M167,381c-1.2,0-2.3,1-2.3,2.3c0,1.2,1,2.3,2.3,2.3c1.2,0,2.3-1,2.3-2.3C169.3,382,168.2,381,167,381z"/>
			<path class="st2" d="M178.3,293.7c-1.2,0-2.3,1-2.3,2.3c0,1.2,1,2.3,2.3,2.3c1.2,0,2.3-1,2.3-2.3
				C180.5,294.7,179.5,293.7,178.3,293.7z"/>
			<path class="st2" d="M193.6,325.4c-1.2,0-2.3,1-2.3,2.3c0,1.2,1,2.3,2.3,2.3c1.2,0,2.3-1,2.3-2.3
				C195.9,326.4,194.9,325.4,193.6,325.4z"/>
			<path class="st2" d="M166.4,396.8C166.4,396.8,166.4,396.8,166.4,396.8c-0.1,0-0.1,0-0.1,0c-1.2,0-2.3,1-2.3,2.3
				c0,1.2,1,2.3,2.3,2.3c0,0,0,0,0,0c0,0,0,0,0.1,0c1.2,0,2.3-1,2.3-2.3C168.7,397.8,167.7,396.8,166.4,396.8z"/>
			<path class="st2" d="M168.2,349.2c-1.2,0-2.3,1-2.3,2.3c0,1.2,1,2.3,2.3,2.3c1.2,0,2.3-1,2.3-2.3
				C170.4,350.3,169.4,349.2,168.2,349.2z"/>
			<path class="st2" d="M159.4,357.1c-1.2,0-2.3,1-2.3,2.3c0,1.2,1,2.3,2.3,2.3c1.2,0,2.3-1,2.3-2.3
				C161.7,358.1,160.6,357.1,159.4,357.1z"/>
			<path class="st2" d="M158.3,388.8c-1.2,0-2.3,1-2.3,2.3c0,1.2,1,2.3,2.3,2.3c1.2,0,2.3-1,2.3-2.3
				C160.5,389.8,159.5,388.8,158.3,388.8z"/>
			<path class="st2" d="M160,341.3c-1.2,0-2.3,1-2.3,2.3c0,1.2,1,2.3,2.3,2.3c1.2,0,2.3-1,2.3-2.3
				C162.2,342.3,161.2,341.3,160,341.3z"/>
			<path class="st2" d="M159.4,296c0,1.2,1,2.3,2.3,2.3c1.2,0,2.3-1,2.3-2.3c0-1.2-1-2.3-2.3-2.3C160.5,293.7,159.4,294.7,159.4,296
				z"/>
			<path class="st2" d="M158.8,373c-1.2,0-2.3,1-2.3,2.3c0,1.2,1,2.3,2.3,2.3c1.2,0,2.3-1,2.3-2.3C161.1,374,160.1,373,158.8,373z"
				/>
			<path class="st2" d="M169.9,301.7c-1.2,0-2.3,1-2.3,2.3c0,1.2,1,2.3,2.3,2.3c1.2,0,2.3-1,2.3-2.3
				C172.1,302.7,171.1,301.7,169.9,301.7z"/>
			<path class="st2" d="M176.5,341.3c-1.2,0-2.3,1-2.3,2.3c0,1.2,1,2.3,2.3,2.3c1.2,0,2.3-1,2.3-2.3
				C178.8,342.3,177.8,341.3,176.5,341.3z"/>
			<path class="st2" d="M184.1,365.1c-1.2,0-2.3,1-2.3,2.3c0,1.2,1,2.3,2.3,2.3c1.2,0,2.3-1,2.3-2.3
				C186.4,366.1,185.4,365.1,184.1,365.1z"/>
			<path class="st2" d="M183,396.8C183,396.8,182.9,396.8,183,396.8c-0.1,0-0.1,0-0.1,0c-1.2,0-2.3,1-2.3,2.3c0,1.2,1,2.3,2.3,2.3
				c0,0,0,0,0,0c0,0,0,0,0.1,0c1.2,0,2.3-1,2.3-2.3C185.2,397.8,184.2,396.8,183,396.8z"/>
			<path class="st2" d="M185.3,333.4c-1.2,0-2.3,1-2.3,2.3c0,1.2,1,2.3,2.3,2.3c1.2,0,2.3-1,2.3-2.3
				C187.5,334.4,186.5,333.4,185.3,333.4z"/>
			<path class="st2" d="M184.7,349.2c-1.2,0-2.3,1-2.3,2.3c0,1.2,1,2.3,2.3,2.3c1.2,0,2.3-1,2.3-2.3
				C186.9,350.3,185.9,349.2,184.7,349.2z"/>
			<circle class="st2" cx="183.5" cy="383.2" r="2.3"/>
			<path class="st2" d="M194.2,309.6c-1.2,0-2.3,1-2.3,2.3c0,1.2,1,2.3,2.3,2.3c1.2,0,2.3-1,2.3-2.3
				C196.5,310.6,195.5,309.6,194.2,309.6z"/>
			<path class="st2" d="M175.4,373c-1.2,0-2.3,1-2.3,2.3c0,1.2,1,2.3,2.3,2.3c1.2,0,2.3-1,2.3-2.3C177.6,374,176.6,373,175.4,373z"
				/>
			<path class="st2" d="M185.8,317.5c-1.2,0-2.3,1-2.3,2.3c0,1.2,1,2.3,2.3,2.3c1.2,0,2.3-1,2.3-2.3
				C188.1,318.5,187.1,317.5,185.8,317.5z"/>
			<path class="st2" d="M160.6,325.4c-1.2,0-2.3,1-2.3,2.3c0,1.2,1,2.3,2.3,2.3c1.2,0,2.3-1,2.3-2.3
				C162.8,326.4,161.8,325.4,160.6,325.4z"/>
			<path class="st2" d="M174.8,388.8c-1.2,0-2.3,1-2.3,2.3c0,1.2,1,2.3,2.3,2.3c1.2,0,2.3-1,2.3-2.3
				C177.1,389.8,176,388.8,174.8,388.8z"/>
			<path class="st2" d="M175.9,357.1c-1.2,0-2.3,1-2.3,2.3c0,1.2,1,2.3,2.3,2.3c1.2,0,2.3-1,2.3-2.3
				C178.2,358.1,177.2,357.1,175.9,357.1z"/>
			<path class="st2" d="M186.4,301.7c-1.2,0-2.3,1-2.3,2.3c0,1.2,1,2.3,2.3,2.3c1.2,0,2.3-1,2.3-2.3
				C188.7,302.7,187.7,301.7,186.4,301.7z"/>
			<path class="st2" d="M177.1,325.4c-1.2,0-2.3,1-2.3,2.3c0,1.2,1,2.3,2.3,2.3c1.2,0,2.3-1,2.3-2.3
				C179.4,326.4,178.3,325.4,177.1,325.4z"/>
			<path class="st2" d="M169.3,317.5c-1.2,0-2.3,1-2.3,2.3c0,1.2,1,2.3,2.3,2.3c1.2,0,2.3-1,2.3-2.3
				C171.6,318.5,170.5,317.5,169.3,317.5z"/>
			<path class="st2" d="M246.7,460.2c-1.2,0-2.3,1-2.3,2.3c0,1.2,1,2.3,2.3,2.3c1.2,0,2.3-1,2.3-2.3
				C249,461.3,248,460.2,246.7,460.2z"/>
			<path class="st2" d="M161.1,309.6c-1.2,0-2.3,1-2.3,2.3c0,1.2,1,2.3,2.3,2.3c1.2,0,2.3-1,2.3-2.3
				C163.4,310.6,162.4,309.6,161.1,309.6z"/>
			<path class="st2" d="M231.9,412.7c-1.2,0-2.3,1-2.3,2.3c0,1.2,1,2.3,2.3,2.3c1.2,0,2.3-1,2.3-2.3
				C234.2,413.7,233.2,412.7,231.9,412.7z"/>
			<path class="st2" d="M176.7,407c0-1.2-1-2.3-2.3-2.3c-1.1,0-2,0.8-2.2,1.9c1.2,0.7,2.4,1.3,3.7,2
				C176.5,408.3,176.7,407.7,176.7,407z"/>
			<path class="st2" d="M182.5,412.7c0.6,0.4,1.2,0.8,1.8,1.2C183.9,413.2,183.3,412.8,182.5,412.7z"/>
			<path class="st2" d="M231.3,428.5c-1.2,0-2.3,1-2.3,2.3c0,1.2,1,2.3,2.3,2.3c1.2,0,2.3-1,2.3-2.3
				C233.6,429.5,232.6,428.5,231.3,428.5z"/>
			<path class="st2" d="M198.8,412.7c-1.2,0-2.3,1-2.3,2.3c0,1.2,1,2.3,2.3,2.3c1.2,0,2.3-1,2.3-2.3
				C201.1,413.7,200.1,412.7,198.8,412.7z"/>
			<path class="st2" d="M247.3,444.4c-1.2,0-2.3,1-2.3,2.3c0,1.2,1,2.3,2.3,2.3c1.2,0,2.3-1,2.3-2.3
				C249.6,445.4,248.6,444.4,247.3,444.4z"/>
			<path class="st2" d="M348,396.8c-0.8,0-1.5,0.5-1.9,1.1c1-0.3,1.9-0.6,2.8-0.9C348.7,396.9,348.4,396.8,348,396.8z"/>
			<path class="st2" d="M323.4,404.8c-1.2,0-2.3,1-2.3,2.3c0,0.7,0.4,1.4,0.9,1.8c1.2-0.7,2.4-1.3,3.6-2
				C325.5,405.7,324.6,404.8,323.4,404.8z"/>
			<path class="st2" d="M366.2,381.3c-0.3-0.2-0.7-0.3-1.1-0.3c-1.2,0-2.3,1-2.3,2.3c0,1.2,1,2.3,2.3,2.3c0.7,0,1.2-0.3,1.6-0.7
				C366.7,383.5,366.4,382.4,366.2,381.3z"/>
			<path class="st2" d="M312.4,414.9C312.4,415,312.4,415,312.4,414.9c1.1-0.7,2.1-1.4,3.1-2.1c-0.3-0.1-0.6-0.2-0.9-0.2
				C313.4,412.7,312.4,413.7,312.4,414.9z"/>
			<path class="st2" d="M280.4,444.4c-1.2,0-2.3,1-2.3,2.3c0,1,0.7,1.8,1.6,2.1c0.8-1.2,1.6-2.4,2.4-3.5
				C281.7,444.7,281.1,444.4,280.4,444.4z"/>
			<path class="st2" d="M286.9,438.8c0,0.1,0,0.1,0,0.2c0.6-0.8,1.3-1.6,1.9-2.4C287.8,436.7,286.9,437.6,286.9,438.8z"/>
			<path class="st2" d="M262.7,476.1c-1.2,0-2.3,1-2.3,2.3c0,0.7,0.3,1.2,0.7,1.7c1.8-0.4,3.1-0.7,3.1-0.7c0.2-0.5,0.4-1,0.6-1.5
				C264.7,476.9,263.8,476.1,262.7,476.1z"/>
			<circle class="st2" cx="150.5" cy="383.2" r="2.3"/>
			<path class="st2" d="M151.6,349.2c-1.2,0-2.3,1-2.3,2.3c0,1.2,1,2.3,2.3,2.3c1.2,0,2.3-1,2.3-2.3
				C153.9,350.3,152.9,349.2,151.6,349.2z"/>
			<path class="st2" d="M152.2,333.4c-1.2,0-2.3,1-2.3,2.3c0,1.2,1,2.3,2.3,2.3c1.2,0,2.3-1,2.3-2.3
				C154.4,334.4,153.4,333.4,152.2,333.4z"/>
			<path class="st2" d="M152.8,317.5c-1.2,0-2.3,1-2.3,2.3c0,1.2,1,2.3,2.3,2.3c1.2,0,2.3-1,2.3-2.3
				C155,318.5,154,317.5,152.8,317.5z"/>
			<path class="st2" d="M151,365.1c-1.2,0-2.3,1-2.3,2.3c0,1.2,1,2.3,2.3,2.3c1.2,0,2.3-1,2.3-2.3
				C153.3,366.1,152.3,365.1,151,365.1z"/>
			<path class="st2" d="M155.6,303.9c0-0.5-0.2-0.9-0.5-1.3c-0.4,1.1-0.8,2.2-1.2,3.4C154.9,305.8,155.6,305,155.6,303.9z"/>
			<path class="st2" d="M133.9,385.5c1.2,0,2.3-1,2.3-2.3c0-1.2-1-2.3-2.3-2.3c-1.1,0-2,0.8-2.2,1.9c0,0.1-0.1,0.3-0.1,0.4
				C131.7,384.5,132.7,385.5,133.9,385.5z"/>
			<path class="st2" d="M136.7,367.4c0-0.7-0.3-1.3-0.8-1.7c-0.5,1.3-0.9,2.6-1.3,4C135.8,369.5,136.7,368.6,136.7,367.4z"/>
			<path class="st2" d="M143.4,345.8c1.2,0,2.3-1,2.3-2.3c0-1.2-1-2.3-2.3-2.3c-0.2,0-0.4,0.1-0.6,0.1c-0.4,1.2-0.7,2.4-1,3.6
				C142.2,345.5,142.8,345.8,143.4,345.8z"/>
			<path class="st2" d="M149.9,396.8c-0.3,0-0.5,0.1-0.8,0.2c0.8,0.3,1.7,0.5,2.6,0.8C151.3,397.2,150.6,396.8,149.9,396.8z"/>
			<path class="st2" d="M142.9,357.1c-1.2,0-2.3,1-2.3,2.3c0,1.2,1,2.3,2.3,2.3c1.2,0,2.3-1,2.3-2.3
				C145.1,358.1,144.1,357.1,142.9,357.1z"/>
			<path class="st2" d="M142.3,373c-1.2,0-2.3,1-2.3,2.3c0,1.2,1,2.3,2.3,2.3c1.2,0,2.3-1,2.3-2.3C144.5,374,143.5,373,142.3,373z"
				/>
			<path class="st2" d="M141.7,388.8c-1.2,0-2.3,1-2.3,2.3c0,1.2,1,2.3,2.3,2.3c1.2,0,2.3-1,2.3-2.3
				C144,389.8,143,388.8,141.7,388.8z"/>
			<path class="st2" d="M241,388.8c-1.2,0-2.3,1-2.3,2.3c0,1.2,1,2.3,2.3,2.3c1.2,0,2.3-1,2.3-2.3
				C243.2,389.8,242.2,388.8,241,388.8z"/>
			<path class="st2" d="M201.2,349.2c-1.2,0-2.3,1-2.3,2.3c0,1.2,1,2.3,2.3,2.3c1.2,0,2.3-1,2.3-2.3
				C203.5,350.3,202.5,349.2,201.2,349.2z"/>
			<path class="st2" d="M200.7,365.1c-1.2,0-2.3,1-2.3,2.3c0,1.2,1,2.3,2.3,2.3c1.2,0,2.3-1,2.3-2.3
				C202.9,366.1,201.9,365.1,200.7,365.1z"/>
			<path class="st2" d="M201.8,333.4c-1.2,0-2.3,1-2.3,2.3c0,1.2,1,2.3,2.3,2.3c1.2,0,2.3-1,2.3-2.3
				C204.1,334.4,203.1,333.4,201.8,333.4z"/>
			<path class="st2" d="M249.7,381c-1.2,0-2.3,1-2.3,2.3c0,1.2,1,2.3,2.3,2.3c1.2,0,2.3-1,2.3-2.3C252,382,251,381,249.7,381z"/>
			<path class="st2" d="M250.3,365.1c-1.2,0-2.3,1-2.3,2.3c0,1.2,1,2.3,2.3,2.3c1.2,0,2.3-1,2.3-2.3
				C252.6,366.1,251.5,365.1,250.3,365.1z"/>
			<circle class="st2" cx="200.1" cy="383.2" r="2.3"/>
			<path class="st2" d="M199.5,396.8C199.5,396.8,199.5,396.8,199.5,396.8c-0.1,0-0.1,0-0.1,0c-1.2,0-2.3,1-2.3,2.3
				c0,1.2,1,2.3,2.3,2.3c0,0,0,0,0,0c0,0,0,0,0.1,0c1.2,0,2.3-1,2.3-2.3C201.8,397.8,200.8,396.8,199.5,396.8z"/>
			<path class="st2" d="M202.4,317.5c-1.2,0-2.3,1-2.3,2.3c0,1.2,1,2.3,2.3,2.3c1.2,0,2.3-1,2.3-2.3
				C204.6,318.5,203.6,317.5,202.4,317.5z"/>
			<path class="st2" d="M208.5,373c-1.2,0-2.3,1-2.3,2.3c0,1.2,1,2.3,2.3,2.3c1.2,0,2.3-1,2.3-2.3C210.7,374,209.7,373,208.5,373z"
				/>
			<path class="st2" d="M203,301.7c-1.2,0-2.3,1-2.3,2.3c0,1.2,1,2.3,2.3,2.3c1.2,0,2.3-1,2.3-2.3
				C205.2,302.7,204.2,301.7,203,301.7z"/>
			<path class="st2" d="M209,357.1c-1.2,0-2.3,1-2.3,2.3c0,1.2,1,2.3,2.3,2.3c1.2,0,2.3-1,2.3-2.3
				C211.3,358.1,210.3,357.1,209,357.1z"/>
			<path class="st2" d="M207.9,388.8c-1.2,0-2.3,1-2.3,2.3c0,1.2,1,2.3,2.3,2.3c1.2,0,2.3-1,2.3-2.3
				C210.1,389.8,209.1,388.8,207.9,388.8z"/>
			<path class="st2" d="M207.6,404.8c-1.2,0-2.3,1-2.3,2.3c0,1.2,1,2.3,2.3,2.3c1.2,0,2.3-1,2.3-2.3
				C209.8,405.8,208.8,404.8,207.6,404.8z"/>
			<path class="st2" d="M207,425.2c1.2,0,2.3-1,2.3-2.3c0-1.2-1-2.3-2.3-2.3c-1.2,0-2.3,1-2.3,2.3
				C204.7,424.1,205.8,425.2,207,425.2z"/>
			<path class="st2" d="M239.5,436.5c-1.2,0-2.3,1-2.3,2.3c0,1.2,1,2.3,2.3,2.3c1.2,0,2.3-1,2.3-2.3
				C241.8,437.5,240.8,436.5,239.5,436.5z"/>
			<path class="st2" d="M240.1,420.6c-1.2,0-2.3,1-2.3,2.3c0,1.2,1,2.3,2.3,2.3c1.2,0,2.3-1,2.3-2.3
				C242.3,421.6,241.3,420.6,240.1,420.6z"/>
			<path class="st2" d="M240.7,404.8c-1.2,0-2.3,1-2.3,2.3c0,1.2,1,2.3,2.3,2.3c1.2,0,2.3-1,2.3-2.3
				C242.9,405.8,241.9,404.8,240.7,404.8z"/>
			<path class="st2" d="M209.6,341.3c-1.2,0-2.3,1-2.3,2.3c0,1.2,1,2.3,2.3,2.3c1.2,0,2.3-1,2.3-2.3
				C211.9,342.3,210.9,341.3,209.6,341.3z"/>
			<path class="st2" d="M238.9,452.4c-1.2,0-2.3,1-2.3,2.3c0,1.2,1,2.3,2.3,2.3c1.2,0,2.3-1,2.3-2.3
				C241.2,453.4,240.2,452.4,238.9,452.4z"/>
			<path class="st2" d="M234.9,337.9c1.2,0,2.3-1,2.3-2.3c0-1.2-1-2.3-2.3-2.3c-1.2,0-2.3,1-2.3,2.3
				C232.6,336.9,233.7,337.9,234.9,337.9z"/>
			<path class="st2" d="M238.4,472.7c1.2,0,2.3-1,2.3-2.3c0-1.2-1-2.3-2.3-2.3c-1.2,0-2.3,1-2.3,2.3
				C236.1,471.7,237.1,472.7,238.4,472.7z"/>
			<path class="st2" d="M241.5,373c-1.2,0-2.3,1-2.3,2.3c0,1.2,1,2.3,2.3,2.3c1.2,0,2.3-1,2.3-2.3C243.8,374,242.8,373,241.5,373z"
				/>
			<path class="st2" d="M247.9,433c1.2,0,2.3-1,2.3-2.3c0-1.2-1-2.3-2.3-2.3c-1.2,0-2.3,1-2.3,2.3C245.6,432,246.6,433,247.9,433z"
				/>
			<path class="st2" d="M248.5,412.7c-1.2,0-2.3,1-2.3,2.3c0,1.2,1,2.3,2.3,2.3c1.2,0,2.3-1,2.3-2.3
				C250.7,413.7,249.7,412.7,248.5,412.7z"/>
			<path class="st2" d="M243.9,309.6c-1.2,0-2.3,1-2.3,2.3c0,1.2,1,2.3,2.3,2.3c1.2,0,2.3-1,2.3-2.3
				C246.1,310.6,245.1,309.6,243.9,309.6z"/>
			<path class="st2" d="M243.3,325.4c-1.2,0-2.3,1-2.3,2.3c0,1.2,1,2.3,2.3,2.3c1.2,0,2.3-1,2.3-2.3
				C245.5,326.4,244.5,325.4,243.3,325.4z"/>
			<path class="st2" d="M251.4,399.1c0-1.2-1-2.3-2.3-2.3c0,0,0,0,0,0c0,0,0,0-0.1,0c-1.2,0-2.3,1-2.3,2.3c0,1.2,1,2.3,2.3,2.3
				c0,0,0,0,0.1,0c0,0,0,0,0,0C250.4,401.3,251.4,400.3,251.4,399.1z"/>
			<path class="st2" d="M242.7,341.3c-1.2,0-2.3,1-2.3,2.3c0,1.2,1,2.3,2.3,2.3c1.2,0,2.3-1,2.3-2.3
				C245,342.3,243.9,341.3,242.7,341.3z"/>
			<path class="st2" d="M210.2,325.4c-1.2,0-2.3,1-2.3,2.3c0,1.2,1,2.3,2.3,2.3c1.2,0,2.3-1,2.3-2.3
				C212.4,326.4,211.4,325.4,210.2,325.4z"/>
			<path class="st2" d="M224.4,388.8c-1.2,0-2.3,1-2.3,2.3c0,1.2,1,2.3,2.3,2.3c1.2,0,2.3-1,2.3-2.3
				C226.7,389.8,225.7,388.8,224.4,388.8z"/>
			<path class="st2" d="M230.2,464.8c1.2,0,2.3-1,2.3-2.3c0-1.2-1-2.3-2.3-2.3c-1.2,0-2.3,1-2.3,2.3
				C227.9,463.7,229,464.8,230.2,464.8z"/>
			<path class="st2" d="M226.7,325.4c-1.2,0-2.3,1-2.3,2.3c0,1.2,1,2.3,2.3,2.3c1.2,0,2.3-1,2.3-2.3
				C229,326.4,228,325.4,226.7,325.4z"/>
			<path class="st2" d="M225,373c-1.2,0-2.3,1-2.3,2.3c0,1.2,1,2.3,2.3,2.3c1.2,0,2.3-1,2.3-2.3C227.3,374,226.3,373,225,373z"/>
			<path class="st2" d="M226.2,341.3c-1.2,0-2.3,1-2.3,2.3c0,1.2,1,2.3,2.3,2.3c1.2,0,2.3-1,2.3-2.3
				C228.4,342.3,227.4,341.3,226.2,341.3z"/>
			<path class="st2" d="M227.3,309.6c-1.2,0-2.3,1-2.3,2.3c0,1.2,1,2.3,2.3,2.3c1.2,0,2.3-1,2.3-2.3
				C229.6,310.6,228.6,309.6,227.3,309.6z"/>
			<path class="st2" d="M225.6,357.1c-1.2,0-2.3,1-2.3,2.3c0,1.2,1,2.3,2.3,2.3c1.2,0,2.3-1,2.3-2.3
				C227.8,358.1,226.8,357.1,225.6,357.1z"/>
			<path class="st2" d="M193.1,341.3c-1.2,0-2.3,1-2.3,2.3c0,1.2,1,2.3,2.3,2.3c1.2,0,2.3-1,2.3-2.3
				C195.3,342.3,194.3,341.3,193.1,341.3z"/>
			<path class="st2" d="M211.3,298.2c0.9,0,1.6-0.5,2-1.2c-1.4-0.1-2.8-0.3-4.1-0.4C209.5,297.5,210.3,298.2,211.3,298.2z"/>
			<path class="st2" d="M191,404.8c-1.2,0-2.3,1-2.3,2.3c0,1.2,1,2.3,2.3,2.3c1.2,0,2.3-1,2.3-2.3
				C193.3,405.8,192.3,404.8,191,404.8z"/>
			<path class="st2" d="M192.5,357.1c-1.2,0-2.3,1-2.3,2.3c0,1.2,1,2.3,2.3,2.3c1.2,0,2.3-1,2.3-2.3
				C194.7,358.1,193.7,357.1,192.5,357.1z"/>
			<path class="st2" d="M191.9,373c-1.2,0-2.3,1-2.3,2.3c0,1.2,1,2.3,2.3,2.3c1.2,0,2.3-1,2.3-2.3C194.2,374,193.2,373,191.9,373z"
				/>
			<path class="st2" d="M191.3,388.8c-1.2,0-2.3,1-2.3,2.3c0,1.2,1,2.3,2.3,2.3c1.2,0,2.3-1,2.3-2.3
				C193.6,389.8,192.6,388.8,191.3,388.8z"/>
			<path class="st2" d="M192.5,296c0,1.2,1,2.3,2.3,2.3c1.2,0,2.3-1,2.3-2.3c0-0.3-0.1-0.6-0.2-0.9c-1.3-0.2-2.6-0.3-3.8-0.5
				C192.7,295,192.5,295.4,192.5,296z"/>
			<path class="st2" d="M230.8,444.4c-1.2,0-2.3,1-2.3,2.3c0,1.2,1,2.3,2.3,2.3c1.2,0,2.3-1,2.3-2.3
				C233,445.4,232,444.4,230.8,444.4z"/>
			<path class="st2" d="M218.3,399.1c0-1.2-1-2.3-2.3-2.3c0,0,0,0,0,0c0,0,0,0-0.1,0c-1.2,0-2.3,1-2.3,2.3c0,1.2,1,2.3,2.3,2.3
				c0,0,0,0,0.1,0c0,0,0,0,0,0C217.3,401.3,218.3,400.3,218.3,399.1z"/>
			<path class="st2" d="M216.6,381c-1.2,0-2.3,1-2.3,2.3c0,1.2,1,2.3,2.3,2.3c1.2,0,2.3-1,2.3-2.3C218.9,382,217.9,381,216.6,381z"
				/>
			<path class="st2" d="M215.4,412.7c-1.2,0-2.3,1-2.3,2.3c0,1.2,1,2.3,2.3,2.3c1.2,0,2.3-1,2.3-2.3
				C217.6,413.7,216.6,412.7,215.4,412.7z"/>
			<path class="st2" d="M217.2,365.1c-1.2,0-2.3,1-2.3,2.3c0,1.2,1,2.3,2.3,2.3c1.2,0,2.3-1,2.3-2.3
				C219.5,366.1,218.5,365.1,217.2,365.1z"/>
			<path class="st2" d="M214.8,433c1.2,0,2.3-1,2.3-2.3c0-1.2-1-2.3-2.3-2.3c-1.2,0-2.3,1-2.3,2.3C212.5,432,213.6,433,214.8,433z"
				/>
			<path class="st2" d="M210.8,309.6c-1.2,0-2.3,1-2.3,2.3c0,1.2,1,2.3,2.3,2.3c1.2,0,2.3-1,2.3-2.3
				C213,310.6,212,309.6,210.8,309.6z"/>
			<path class="st2" d="M223,441c1.2,0,2.3-1,2.3-2.3c0-1.2-1-2.3-2.3-2.3c-1.2,0-2.3,1-2.3,2.3C220.7,440,221.7,441,223,441z"/>
			<path class="st2" d="M219.5,306.2c1.2,0,2.3-1,2.3-2.3c0-1.2-1-2.3-2.3-2.3c-1.2,0-2.3,1-2.3,2.3
				C217.3,305.2,218.3,306.2,219.5,306.2z"/>
			<path class="st2" d="M224.1,404.8c-1.2,0-2.3,1-2.3,2.3c0,1.2,1,2.3,2.3,2.3c1.2,0,2.3-1,2.3-2.3
				C226.4,405.8,225.4,404.8,224.1,404.8z"/>
			<path class="st2" d="M223.5,420.6c-1.2,0-2.3,1-2.3,2.3c0,1.2,1,2.3,2.3,2.3c1.2,0,2.3-1,2.3-2.3
				C225.8,421.6,224.8,420.6,223.5,420.6z"/>
			<path class="st2" d="M217.8,349.2c-1.2,0-2.3,1-2.3,2.3c0,1.2,1,2.3,2.3,2.3c1.2,0,2.3-1,2.3-2.3
				C220,350.3,219,349.2,217.8,349.2z"/>
			<path class="st2" d="M218.4,333.4c-1.2,0-2.3,1-2.3,2.3c0,1.2,1,2.3,2.3,2.3c1.2,0,2.3-1,2.3-2.3
				C220.6,334.4,219.6,333.4,218.4,333.4z"/>
			<path class="st2" d="M218.9,317.5c-1.2,0-2.3,1-2.3,2.3c0,1.2,1,2.3,2.3,2.3c1.2,0,2.3-1,2.3-2.3
				C221.2,318.5,220.2,317.5,218.9,317.5z"/>
		</g>
		<g>
			<path class="st2" d="M242.2,310.8l-1.5-1.4c-0.5-0.5-0.6-1.4,0-1.9l15.2-16.4c0.5-0.5,1.4-0.6,1.9,0l2.5,2.4
				c0.5,0.5,0.6,1.4,0,1.9l-16.2,15.4C243.7,311.3,242.8,311.3,242.2,310.8z"/>
			<path class="st2" d="M256,310.8l1.5-1.4c0.5-0.5,0.6-1.4,0-1.9l-15.2-16.4c-0.5-0.5-1.4-0.6-1.9,0l-2.5,2.4
				c-0.5,0.5-0.6,1.4,0,1.9l16.2,15.4C254.6,311.3,255.4,311.3,256,310.8z"/>
		</g>
		<g class="st4">
			<path class="st2" d="M242.2,310.8l-1.5-1.4c-0.5-0.5-0.6-1.4,0-1.9l15.2-16.4c0.5-0.5,1.4-0.6,1.9,0l2.5,2.4
				c0.5,0.5,0.6,1.4,0,1.9l-16.2,15.4C243.7,311.3,242.8,311.3,242.2,310.8z"/>
			<path class="st2" d="M256,310.8l1.5-1.4c0.5-0.5,0.6-1.4,0-1.9l-15.2-16.4c-0.5-0.5-1.4-0.6-1.9,0l-2.5,2.4
				c-0.5,0.5-0.6,1.4,0,1.9l16.2,15.4C254.6,311.3,255.4,311.3,256,310.8z"/>
		</g>
	</g>
</g>
</svg>
