<?xml version="1.0" encoding="utf-8"?>
<!-- Generator: Adobe Illustrator 24.0.2, SVG Export Plug-In . SVG Version: 6.00 Build 0)  -->
<svg version="1.1" id="Layer_1" xmlns="http://www.w3.org/2000/svg" xmlns:xlink="http://www.w3.org/1999/xlink" x="0px" y="0px"
	 viewBox="0 0 500 500" style="enable-background:new 0 0 500 500;" xml:space="preserve">
<style type="text/css">
	.st0{fill:#171724;}
	.st1{fill:#312E49;}
	.st2{fill:#B76C2E;}
	.st3{fill:none;stroke:#6B6766;stroke-width:0.2573;stroke-miterlimit:10;}
	.st4{fill:#D27636;}
	.st5{fill:none;stroke:#6B6766;stroke-width:0.5146;stroke-linecap:round;stroke-miterlimit:10;}
	.st6{fill:#6B6766;}
	.st7{fill:#47301A;}
	.st8{fill:#B27842;}
	.st9{opacity:0.3;fill:#644829;}
	.st10{fill:#DC873E;}
	.st11{fill:none;stroke:#9A9291;stroke-width:1.0292;stroke-linecap:round;stroke-miterlimit:10;}
</style>
<g id="XMLID_64_">
	<g id="XMLID_130_">
		<path id="XMLID_133_" class="st0" d="M174.1,52.6c0,0-13.5-8.1-3.1-11.8c0,0,25.9-1.9,38.1-14.6c0,0,2.8,4-0.9,7.4
			c0,0-15.2,10.8-25.1,10.6C174.5,44,170.3,46.8,174.1,52.6z"/>
		<path id="XMLID_142_" class="st0" d="M357.6,48c0,0,13.4-8.4,2.9-11.9c0,0-25.9-1.5-38.3-14c0,0-2.7,4.1,1,7.4
			c0,0,15.4,10.5,25.3,10.2C357,39.4,361.3,42.2,357.6,48z"/>
		<g id="XMLID_135_">
			<path class="st1" d="M162.7,59.6c4.4,12.7,8.1,25.7,11.2,38.8c3.1,13.1,5.5,26.4,6.8,39.8c0.7,6.7,1,13.5,0.9,20.2l-0.1,2.5
				l-0.1,2.5c-0.1,1.7-0.2,3.4-0.3,5l-0.7,10.1c-0.9,13.4-1.6,26.9-2.4,40.3l-4.6,80.7l-4.7,80.6l1.9-40.3l2-40.3
				c1.4-26.9,2.9-53.8,4.4-80.7c0.8-13.4,1.6-26.9,2.5-40.3c0.4-6.7,1.1-13.4,1.2-20.1c0.1-6.7-0.1-13.4-0.7-20.1
				c-1.2-13.4-3.5-26.7-6.5-39.8C170.4,85.4,166.9,72.4,162.7,59.6z"/>
		</g>
		<g id="XMLID_134_">
			<path id="XMLID_159_" class="st2" d="M247.8,189.3v9.8c0,0-3.4,1.2-8.7,2.1c-4.2,0.9-9.7,1.8-15.6,2c-13.1,0.4-13.1-20.5,0-20.5
				c6.7,0,12.9,1.7,17.3,3.4C245.2,187.7,247.8,189.3,247.8,189.3z"/>
			<path id="XMLID_157_" class="st2" d="M247.8,189.3v9.8c0,0-3.4,1.2-8.7,2.1c-8.5-6.8-3.5-12.1,1.7-15.1
				C245.2,187.7,247.8,189.3,247.8,189.3z"/>
			<path id="XMLID_136_" class="st3" d="M255.2,194.3c0,4.1-3.3,7.4-7.4,7.4c-4.1,0-7.4-3.3-7.4-7.4c0-4.1,3.3-7.4,7.4-7.4
				C251.9,186.9,255.2,190.2,255.2,194.3z"/>
			<path id="XMLID_137_" class="st4" d="M247.8,189.2c0,0-4.1-1.3-6.8-1c-4.7,0.4-6.1,10,0,12c2.6,0.9,6.8-1.2,6.8-1.2V189.2z"/>
			<path id="XMLID_151_" class="st2" d="M287.1,189.7v9.8c0,0,3.4,1.2,8.7,2.1c4.2,0.9,9.7,1.8,15.6,2c13.1,0.4,13.1-20.5,0-20.5
				c-6.7,0-12.9,1.7-17.3,3.4C289.8,188.1,287.1,189.7,287.1,189.7z"/>
			<path id="XMLID_150_" class="st2" d="M287.1,189.7v9.8c0,0,3.4,1.2,8.7,2.1c8.5-6.8,3.5-12.1-1.7-15.1
				C289.8,188.1,287.1,189.7,287.1,189.7z"/>
			<path id="XMLID_147_" class="st3" d="M279.8,194.7c0,4.1,3.3,7.4,7.4,7.4s7.4-3.3,7.4-7.4c0-4.1-3.3-7.4-7.4-7.4
				S279.8,190.6,279.8,194.7z"/>
			<path id="XMLID_140_" class="st4" d="M287.2,189.6c0,0,4.1-1.3,6.8-1c4.7,0.4,6.1,10,0,12c-2.6,0.8-6.8-1.2-6.8-1.2V189.6z"/>
			<line id="XMLID_146_" class="st5" x1="253.6" y1="194.3" x2="281.3" y2="194.3"/>
			<path id="XMLID_141_" class="st6" d="M245.6,194.1c0,1.8-1.5,3.2-3.2,3.2c-1.8,0-3.2-1.5-3.2-3.2c0-1.8,1.5-3.2,3.2-3.2
				C244.1,190.9,245.6,192.3,245.6,194.1z"/>
			<path id="XMLID_144_" class="st6" d="M295.9,194.7c0,1.8-1.5,3.2-3.2,3.2c-1.8,0-3.2-1.5-3.2-3.2c0-1.8,1.5-3.2,3.2-3.2
				C294.4,191.5,295.9,192.9,295.9,194.7z"/>
		</g>
		<g id="XMLID_143_">
			<path id="XMLID_183_" class="st2" d="M247.8,126.3v9.8c0,0-3.4,1.2-8.7,2.1c-4.2,0.9-9.7,1.8-15.6,2c-13.1,0.4-13.1-20.5,0-20.5
				c6.7,0,12.9,1.7,17.3,3.4C245.1,124.8,247.8,126.3,247.8,126.3z"/>
			<path id="XMLID_182_" class="st2" d="M247.8,126.3v9.8c0,0-3.4,1.2-8.7,2.1c-8.5-6.8-3.5-12.1,1.7-15.1
				C245.1,124.8,247.8,126.3,247.8,126.3z"/>
			<path id="XMLID_179_" class="st3" d="M255.2,131.4c0,4.1-3.3,7.4-7.4,7.4c-4.1,0-7.4-3.3-7.4-7.4c0-4.1,3.3-7.4,7.4-7.4
				C251.8,124,255.2,127.3,255.2,131.4z"/>
			<path id="XMLID_178_" class="st4" d="M247.7,126.3c0,0-4.1-1.3-6.8-1c-4.7,0.4-6.1,10,0,12c2.6,0.9,6.8-1.2,6.8-1.2V126.3z"/>
			<path id="XMLID_177_" class="st2" d="M287.1,126.7v9.8c0,0,3.4,1.2,8.7,2.1c4.2,0.9,9.7,1.8,15.6,2c13.1,0.4,13.1-20.5,0-20.5
				c-6.7,0-12.9,1.7-17.3,3.4C289.7,125.2,287.1,126.7,287.1,126.7z"/>
			<path id="XMLID_176_" class="st2" d="M287.1,126.7v9.8c0,0,3.4,1.2,8.7,2.1c8.5-6.8,3.5-12.1-1.7-15.1
				C289.7,125.2,287.1,126.7,287.1,126.7z"/>
			<path id="XMLID_166_" class="st3" d="M279.7,131.8c0,4.1,3.3,7.4,7.4,7.4c4.1,0,7.4-3.3,7.4-7.4c0-4.1-3.3-7.4-7.4-7.4
				C283,124.4,279.7,127.7,279.7,131.8z"/>
			<path id="XMLID_160_" class="st4" d="M287.1,126.7c0,0,4.1-1.3,6.8-1c4.7,0.4,6.1,10,0,12c-2.6,0.9-6.8-1.2-6.8-1.2V126.7z"/>
			<line id="XMLID_149_" class="st5" x1="253.6" y1="131.3" x2="281.3" y2="131.3"/>
			<path id="XMLID_148_" class="st6" d="M245.5,131.1c0,1.8-1.5,3.2-3.2,3.2c-1.8,0-3.2-1.5-3.2-3.2c0-1.8,1.5-3.2,3.2-3.2
				C244.1,127.9,245.5,129.3,245.5,131.1z"/>
			<path id="XMLID_145_" class="st6" d="M295.8,131.8c0,1.8-1.5,3.2-3.2,3.2c-1.8,0-3.2-1.5-3.2-3.2c0-1.8,1.4-3.2,3.2-3.2
				C294.4,128.5,295.8,130,295.8,131.8z"/>
		</g>
		<g id="XMLID_168_">
			<path id="XMLID_199_" class="st2" d="M247.8,70.9v9.8c0,0-3.4,1.2-8.7,2.1c-4.2,0.9-9.7,1.8-15.6,2c-13.1,0.4-13.1-20.5,0-20.5
				c6.7,0,12.9,1.7,17.3,3.4C245.1,69.4,247.8,70.9,247.8,70.9z"/>
			<path id="XMLID_198_" class="st2" d="M247.8,70.9v9.8c0,0-3.4,1.2-8.7,2.1c-8.5-6.8-3.5-12.1,1.7-15.1
				C245.1,69.4,247.8,70.9,247.8,70.9z"/>
			<path id="XMLID_195_" class="st3" d="M255.2,76c0,4.1-3.3,7.4-7.4,7.4c-4.1,0-7.4-3.3-7.4-7.4c0-4.1,3.3-7.4,7.4-7.4
				C251.8,68.6,255.2,71.9,255.2,76z"/>
			<path id="XMLID_194_" class="st4" d="M247.7,70.9c0,0-4.1-1.3-6.8-1c-4.7,0.4-6.1,10,0,12c2.6,0.9,6.8-1.2,6.8-1.2V70.9z"/>
			<path id="XMLID_193_" class="st2" d="M287.1,71.4v9.8c0,0,3.4,1.2,8.7,2.1c4.2,0.9,9.7,1.8,15.6,2c13.1,0.4,13.1-20.5,0-20.5
				c-6.7,0-12.9,1.7-17.3,3.4C289.7,69.8,287.1,71.4,287.1,71.4z"/>
			<path id="XMLID_192_" class="st2" d="M287.1,71.4v9.8c0,0,3.4,1.2,8.7,2.1c8.5-6.8,3.5-12.1-1.7-15.1
				C289.7,69.8,287.1,71.4,287.1,71.4z"/>
			<path id="XMLID_185_" class="st3" d="M279.7,76.4c0,4.1,3.3,7.4,7.4,7.4c4.1,0,7.4-3.3,7.4-7.4c0-4.1-3.3-7.4-7.4-7.4
				C283,69,279.7,72.3,279.7,76.4z"/>
			<path id="XMLID_184_" class="st4" d="M287.1,71.3c0,0,4.1-1.3,6.8-1c4.7,0.4,6.1,10,0,12c-2.6,0.9-6.8-1.2-6.8-1.2V71.3z"/>
			<line id="XMLID_181_" class="st5" x1="253.6" y1="76" x2="281.3" y2="76"/>
			<path id="XMLID_180_" class="st6" d="M245.5,75.7c0,1.8-1.5,3.2-3.2,3.2c-1.8,0-3.2-1.5-3.2-3.2c0-1.8,1.5-3.2,3.2-3.2
				C244.1,72.5,245.5,74,245.5,75.7z"/>
			<path id="XMLID_174_" class="st6" d="M295.8,76.4c0,1.8-1.5,3.2-3.2,3.2c-1.8,0-3.2-1.5-3.2-3.2c0-1.8,1.4-3.2,3.2-3.2
				C294.4,73.1,295.8,74.6,295.8,76.4z"/>
		</g>
	</g>
	<path id="XMLID_804_" class="st7" d="M172.3,43.5c0,0-13.5-8.1-3.1-11.8c0,0,25.9-1.9,38.1-14.6c0,0,2.8,4-0.9,7.4
		c0,0-15.2,10.8-25.1,10.6C172.7,34.9,168.4,37.8,172.3,43.5z"/>
	<path id="XMLID_801_" class="st7" d="M355.8,38.9c0,0,13.4-8.3,2.9-11.9c0,0-25.9-1.5-38.3-14c0,0-2.7,4.1,1,7.4
		c0,0,15.4,10.5,25.3,10.2C355.2,30.4,359.5,33.1,355.8,38.9z"/>
	<path id="XMLID_798_" class="st8" d="M354.5,363.2c2.6,27.4,5.9,114,5.9,114c-14.6,10.4-45.8,10.5-66.9,9.1
		c-12.3-0.7-21.1-2-21.1-2l-13.1-445c7-0.1,13-0.9,18-2.2c24.3-6,28.6-22.4,28.6-22.4s30.8,13.8,47.5,18.6
		c17.1,4.9,17.4,25.1,17.4,25.1c17.6,111,24.1,308.9,24.1,308.9C370.8,378,354.5,363.2,354.5,363.2z"/>
	<path id="XMLID_797_" class="st9" d="M293.5,486.2c-12.3-0.7-21.1-2-21.1-2l-13.1-445c7-0.1,13-0.9,18-2.2L293.5,486.2z"/>
	<path id="XMLID_794_" class="st8" d="M222.8,14.6c0,0-25.4,16.4-52.1,26.2c0,0-14.3,4.5-18,31.2c0,0-24.3,147.8-24,303.9
		c0,0,14.3,7.1,38-4.6c0,0-2,94.3-3.3,107.8c0,0,64.8,13.9,120.5,4.9L270.2,32.5C270.2,32.5,238,36.3,222.8,14.6z"/>
	<g id="XMLID_791_">
		<path class="st1" d="M362.6,39.2c-4.3,12.9-7.8,26.1-10.8,39.3c-2.9,13.3-5.3,26.7-6.4,40.2c-0.6,6.8-0.8,13.6-0.6,20.3
			c0.2,6.8,0.9,13.6,1.2,20.4c0.8,13.6,1.5,27.2,2.2,40.8c1.2,27.2,2.4,54.4,3.5,81.5l1.5,40.8l1.4,40.8l-3.7-81.5l-3.7-81.5
			c-0.6-13.6-1.3-27.2-2.1-40.7c-0.3-6.8-1-13.5-1.2-20.4c-0.2-6.8,0.1-13.6,0.8-20.4c1.3-13.6,3.7-27,6.7-40.3
			C354.5,65.1,358.2,52,362.6,39.2z"/>
	</g>
	<g id="XMLID_788_">
		<path class="st1" d="M160.9,50.5c4.4,12.7,8.1,25.7,11.2,38.8c3.1,13.1,5.5,26.4,6.8,39.8c0.7,6.7,1,13.5,0.9,20.2l-0.1,2.5
			l-0.1,2.5c-0.1,1.7-0.2,3.4-0.3,5l-0.7,10.1c-0.9,13.4-1.6,26.9-2.4,40.3l-4.6,80.7l-4.7,80.6l1.9-40.3l2-40.3
			c1.4-26.9,2.9-53.8,4.4-80.7c0.8-13.4,1.6-26.9,2.5-40.3c0.4-6.7,1.1-13.4,1.2-20.1c0.1-6.7-0.1-13.4-0.7-20.1
			c-1.2-13.4-3.5-26.7-6.5-39.8C168.6,76.3,165.1,63.3,160.9,50.5z"/>
	</g>
	<path id="XMLID_787_" class="st10" d="M246,180.2v9.8c0,0-3.4,1.2-8.7,2.1c-4.2,0.9-9.7,1.8-15.6,2c-13.1,0.4-13.1-20.5,0-20.5
		c6.7,0,12.9,1.7,17.3,3.4C243.3,178.6,246,180.2,246,180.2z"/>
	<path id="XMLID_786_" class="st2" d="M246,180.2v9.8c0,0-3.4,1.2-8.7,2.1c-8.5-6.8-3.5-12.1,1.7-15.1
		C243.3,178.6,246,180.2,246,180.2z"/>
	<path id="XMLID_783_" class="st11" d="M253.4,185.3c0,4.1-3.3,7.4-7.4,7.4c-4.1,0-7.4-3.3-7.4-7.4c0-4.1,3.3-7.4,7.4-7.4
		C250,177.8,253.4,181.2,253.4,185.3z"/>
	<path id="XMLID_782_" class="st4" d="M245.9,180.2c0,0-4.1-1.3-6.8-1c-4.7,0.4-6.1,10,0,12c2.6,0.9,6.8-1.2,6.8-1.2V180.2z"/>
	<path id="XMLID_781_" class="st10" d="M285.3,180.6v9.8c0,0,3.4,1.2,8.7,2.1c4.2,0.9,9.7,1.8,15.6,2c13.1,0.4,13.1-20.5,0-20.5
		c-6.7,0-12.9,1.7-17.3,3.4C287.9,179,285.3,180.6,285.3,180.6z"/>
	<path id="XMLID_780_" class="st2" d="M285.3,180.6v9.8c0,0,3.4,1.2,8.7,2.1c8.5-6.8,3.5-12.1-1.7-15.1
		C287.9,179,285.3,180.6,285.3,180.6z"/>
	<path id="XMLID_777_" class="st11" d="M277.9,185.7c0,4.1,3.3,7.4,7.4,7.4c4.1,0,7.4-3.3,7.4-7.4c0-4.1-3.3-7.4-7.4-7.4
		C281.2,178.3,277.9,181.6,277.9,185.7z"/>
	<path id="XMLID_776_" class="st4" d="M285.3,180.6c0,0,4.1-1.3,6.8-1c4.7,0.4,6.1,10,0,12c-2.6,0.9-6.8-1.2-6.8-1.2V180.6z"/>
	<line id="XMLID_775_" class="st11" x1="251.8" y1="185.2" x2="279.5" y2="185.2"/>
	<path id="XMLID_774_" class="st6" d="M243.7,185c0,1.8-1.5,3.2-3.2,3.2c-1.8,0-3.2-1.4-3.2-3.2c0-1.8,1.5-3.2,3.2-3.2
		C242.3,181.8,243.7,183.2,243.7,185z"/>
	<path id="XMLID_773_" class="st6" d="M294,185.6c0,1.8-1.4,3.2-3.2,3.2c-1.8,0-3.2-1.5-3.2-3.2c0-1.8,1.5-3.2,3.2-3.2
		C292.6,182.4,294,183.8,294,185.6z"/>
	<path id="XMLID_771_" class="st10" d="M245.9,117.3v9.8c0,0-3.4,1.2-8.7,2.1c-4.2,0.9-9.7,1.8-15.6,2c-13.1,0.4-13.1-20.5,0-20.5
		c6.7,0,12.9,1.7,17.3,3.4C243.3,115.7,245.9,117.3,245.9,117.3z"/>
	<path id="XMLID_770_" class="st2" d="M245.9,117.3v9.8c0,0-3.4,1.2-8.7,2.1c-8.5-6.8-3.5-12.1,1.7-15.1
		C243.3,115.7,245.9,117.3,245.9,117.3z"/>
	<path id="XMLID_767_" class="st11" d="M253.3,122.3c0,4.1-3.3,7.4-7.4,7.4c-4.1,0-7.4-3.3-7.4-7.4c0-4.1,3.3-7.4,7.4-7.4
		C250,114.9,253.3,118.2,253.3,122.3z"/>
	<path id="XMLID_766_" class="st4" d="M245.9,117.2c0,0-4.1-1.3-6.8-1c-4.7,0.4-6.1,10,0,12c2.6,0.9,6.8-1.2,6.8-1.2V117.2z"/>
	<path id="XMLID_765_" class="st10" d="M285.3,117.7v9.8c0,0,3.4,1.2,8.7,2.1c4.2,0.9,9.7,1.8,15.6,2c13.1,0.4,13.1-20.5,0-20.5
		c-6.7,0-12.9,1.7-17.3,3.4C287.9,116.1,285.3,117.7,285.3,117.7z"/>
	<path id="XMLID_764_" class="st2" d="M285.3,117.7v9.8c0,0,3.4,1.2,8.7,2.1c8.5-6.8,3.5-12.1-1.7-15.1
		C287.9,116.1,285.3,117.7,285.3,117.7z"/>
	<path id="XMLID_761_" class="st11" d="M277.9,122.7c0,4.1,3.3,7.4,7.4,7.4c4.1,0,7.4-3.3,7.4-7.4c0-4.1-3.3-7.4-7.4-7.4
		C281.2,115.3,277.9,118.6,277.9,122.7z"/>
	<path id="XMLID_760_" class="st4" d="M285.3,117.6c0,0,4.1-1.3,6.8-1c4.7,0.4,6.1,10,0,12c-2.6,0.9-6.8-1.2-6.8-1.2V117.6z"/>
	<line id="XMLID_759_" class="st11" x1="251.7" y1="122.3" x2="279.4" y2="122.3"/>
	<path id="XMLID_758_" class="st6" d="M243.7,122.1c0,1.8-1.5,3.2-3.2,3.2c-1.8,0-3.2-1.4-3.2-3.2c0-1.8,1.5-3.2,3.2-3.2
		C242.2,118.8,243.7,120.3,243.7,122.1z"/>
	<path id="XMLID_757_" class="st6" d="M294,122.7c0,1.8-1.5,3.2-3.2,3.2c-1.8,0-3.2-1.5-3.2-3.2c0-1.8,1.5-3.2,3.2-3.2
		C292.6,119.4,294,120.9,294,122.7z"/>
	<path id="XMLID_755_" class="st10" d="M245.9,61.9v9.8c0,0-3.4,1.2-8.7,2.1c-4.2,0.9-9.7,1.8-15.6,2c-13.1,0.4-13.1-20.5,0-20.5
		c6.7,0,12.9,1.7,17.3,3.4C243.3,60.3,245.9,61.9,245.9,61.9z"/>
	<path id="XMLID_754_" class="st2" d="M245.9,61.9v9.8c0,0-3.4,1.2-8.7,2.1c-8.5-6.8-3.5-12.1,1.7-15.1
		C243.3,60.3,245.9,61.9,245.9,61.9z"/>
	<path id="XMLID_751_" class="st11" d="M253.3,66.9c0,4.1-3.3,7.4-7.4,7.4c-4.1,0-7.4-3.3-7.4-7.4c0-4.1,3.3-7.4,7.4-7.4
		C250,59.5,253.3,62.8,253.3,66.9z"/>
	<path id="XMLID_750_" class="st4" d="M245.9,61.8c0,0-4.1-1.3-6.8-1c-4.7,0.4-6.1,10,0,12c2.6,0.9,6.8-1.2,6.8-1.2V61.8z"/>
	<path id="XMLID_749_" class="st10" d="M285.3,62.3v9.8c0,0,3.4,1.2,8.7,2.1c4.2,0.9,9.7,1.8,15.6,2c13.1,0.4,13.1-20.5,0-20.5
		c-6.7,0-12.9,1.7-17.3,3.4C287.9,60.7,285.3,62.3,285.3,62.3z"/>
	<path id="XMLID_748_" class="st2" d="M285.3,62.3v9.8c0,0,3.4,1.2,8.7,2.1c8.5-6.8,3.5-12.1-1.7-15.1
		C287.9,60.7,285.3,62.3,285.3,62.3z"/>
	<path id="XMLID_432_" class="st11" d="M277.9,67.3c0,4.1,3.3,7.4,7.4,7.4c4.1,0,7.4-3.3,7.4-7.4c0-4.1-3.3-7.4-7.4-7.4
		C281.2,59.9,277.9,63.2,277.9,67.3z"/>
	<path id="XMLID_102_" class="st4" d="M285.3,62.2c0,0,4.1-1.3,6.8-1c4.7,0.4,6.1,10,0,12c-2.6,0.9-6.8-1.2-6.8-1.2V62.2z"/>
	<line id="XMLID_82_" class="st11" x1="251.7" y1="66.9" x2="279.4" y2="66.9"/>
	<path id="XMLID_74_" class="st6" d="M243.7,66.7c0,1.8-1.5,3.2-3.2,3.2c-1.8,0-3.2-1.4-3.2-3.2c0-1.8,1.5-3.2,3.2-3.2
		C242.2,63.4,243.7,64.9,243.7,66.7z"/>
	<path id="XMLID_68_" class="st6" d="M294,67.3c0,1.8-1.5,3.2-3.2,3.2c-1.8,0-3.2-1.5-3.2-3.2c0-1.8,1.5-3.2,3.2-3.2
		C292.6,64,294,65.5,294,67.3z"/>
</g>
</svg>
