<?xml version="1.0" encoding="utf-8"?>
<!-- Generator: Adobe Illustrator 24.0.2, SVG Export Plug-In . SVG Version: 6.00 Build 0)  -->
<svg version="1.1" id="Layer_1" xmlns="http://www.w3.org/2000/svg" xmlns:xlink="http://www.w3.org/1999/xlink" x="0px" y="0px"
	 viewBox="0 0 500 500" style="enable-background:new 0 0 500 500;" xml:space="preserve">
<style type="text/css">
	.st0{fill:#C73916;}
	.st1{fill:#99351B;}
	.st2{fill:#A55530;}
	.st3{fill:#AA5D37;}
	.st4{fill:#F7552B;}
	.st5{fill:#B43E20;}
	.st6{fill:#D59F71;}
	.st7{fill:#F7937A;}
</style>
<g>
	<g>
		<polygon class="st0" points="379,373.8 394.2,144.7 433.2,120.9 404.1,373.8 		"/>
		<polygon class="st1" points="352.8,361.1 379,373.8 393.4,153.2 343.7,193.9 		"/>
		<polygon class="st2" points="352.8,371.6 352.8,361.1 379,373.8 378.3,385.5 		"/>
		<polygon class="st3" points="404.1,373.8 403.5,385.5 378.3,385.5 379,373.8 		"/>
		<path class="st4" d="M433.2,120.9c0,0-19.2,15.6-47.9,56.7c-17.6,25.2-30.3,56.9-41.5,93.4c-4.3,14.1-8.4,28.8-12.4,44.2
			c0,0,0,0,0,0c-0.2,0.7-0.4,1.5-0.6,2.2c-2.3,9-4.7,18.1-7.1,27.5c-17.2,68.1-55.8,58.3-120.6,55.8c-64.8-2.5-106.4-6.7-106.4-6.7
			s-13.9-54-16.9-74.4c-0.1-0.8-0.2-1.5-0.3-2.2c-0.2-1.8,4.7-3.9,13.2-6.2c1.6-0.4,3.3-0.9,5.1-1.4c19.2-5,50.9-11.5,82-21.1
			c21.6-6.7,42.8-14.8,59.5-25c10.6-6.5,18.9-15.3,25.9-25.7c24.9-36.6,35.7-91.9,82.4-133.5c37.7-33.5,72.3-21.3,84.9-12.2
			C435.6,94.7,433.2,120.9,433.2,120.9z"/>
		<path class="st0" d="M330.7,317.5c-2.3,9-4.7,18.1-7.1,27.5c-17.2,68.1-55.8,57.6-120.6,59.5c-66.3,1.9-106.4-10.4-106.4-10.4
			s-13.9-54-16.9-74.4c4.5,1.5,58.7,18.8,136.4,19.6c81.2,0.8,88.6-2.5,104.2-13.1C324.2,323.5,327.7,320.5,330.7,317.5z"/>
		<path class="st5" d="M96.7,310.1c0,0,12.5-20.4,21.1-32.8c8.6-12.5,19.6-21.2,19.6-21.2l46.5-6.8l25.8,32.4L96.7,310.1z"/>
		<path class="st6" d="M431.4,91.1c3.7,2.9-0.3,12.4-7.4,20.3c-8,8.9-22.8,24.6-37.7,42.4c-18,21.5-36.2,58.3-42.6,78.3
			c-11.6,36.5-16.8,65.3-37,80.3c-20.2,15-142.6,12.5-169.3,9c-26.6-3.4-43.2-3.7-40.8-9.4c0.3-0.6,0.6-1.4,1-2.2
			c19.2-5,50.9-11.5,82-21.1c21.6-6.7,42.8-14.8,59.5-25c10.6-6.5,18.9-15.3,25.9-25.7c24.9-36.6,35.7-91.9,82.4-133.5
			C385.2,71,418.4,83.9,431.4,91.1z"/>
		<path class="st4" d="M343.7,271c-4.3,14.1-8.4,28.8-12.4,44.2c0,0,0,0,0,0c-5.8,6.7-12.7,12.8-20.8,16.8
			c-28.9,14.4-119.4,6.3-119.4,6.3s6.9-21.4-8-49.1c-2.2-4.2-5-8.4-8.3-12.8c-3.6-4.8-7.8-8.4-12.1-10.9
			c-13.7-8.3-28.3-6.7-28.3-6.7l38.2-35.6c0,0,6.5,0,16.8,0.7c11.4,0.8,27.4,2.4,44.1,5.8c5.8,1.2,11.7,2.6,17.6,4.3
			c4.8,1.4,9.5,2.8,13.9,4.1C306.9,251,331.6,263.7,343.7,271z"/>
	</g>
	<path class="st7" d="M233.6,229.6l-50.5,59.7c-2.2-4.2-5-8.4-8.3-12.8c-3.6-4.8-7.8-8.4-12.1-10.9l26.7-41.7
		C200.9,224.6,216.9,226.2,233.6,229.6z"/>
</g>
</svg>
