<?xml version="1.0" encoding="utf-8"?>
<!-- Generator: Adobe Illustrator 24.0.2, SVG Export Plug-In . SVG Version: 6.00 Build 0)  -->
<svg version="1.1" id="Layer_1" xmlns="http://www.w3.org/2000/svg" xmlns:xlink="http://www.w3.org/1999/xlink" x="0px" y="0px"
	 viewBox="0 0 500 500" style="enable-background:new 0 0 500 500;" xml:space="preserve">
<style type="text/css">
	.st0{fill:#428364;}
	.st1{fill:#396E52;}
	.st2{fill:#3A7154;}
	.st3{fill:#398855;}
	.st4{fill:#2C5F42;}
	.st5{fill:#499161;}
	.st6{fill:#3F5C46;}
	.st7{fill:#234D36;}
	.st8{opacity:0.43;fill:#396E52;}
	.st9{fill:#3C805A;}
	.st10{fill:#377353;}
	.st11{fill:#376C50;}
	.st12{fill:#AB9157;}
</style>
<g>
	<path class="st0" d="M121.8,52.5c-5.5,1.3-48.3,388.1-48.3,388.1s1.5-7.7,36.9,5.8c35.5,13.6,110.3,20,110.3,20
		s21.3-174.6,32.1-185.4l46.4,185.4c0,0,149.5-32.8,154.2-32.8L376.4,56.8c0,0-107.5,25.5-126.2,25.5S142.3,47.6,121.8,52.5z"/>
	<path class="st1" d="M121.8,52.5c-5.5,1.3-48.3,388.1-48.3,388.1s1.5-7.7,36.9,5.8c14.4,5.5,35.4,9.9,55.2,13.1
		c4.1-63.6,5.2-106.4-12.1-189.8c-11.8-56.9,6.8-137.4,23.3-207C153.1,55.8,130.8,50.3,121.8,52.5z"/>
	<path class="st2" d="M376.4,56.8c0,0-31.7,7.5-63.7,14.4c7.7,39.6,25.8,112.8,56.9,126.9c17.2,7.8,29.3,10.1,37.8,10L376.4,56.8z"
		/>
	<path class="st3" d="M428.9,274.4c3.7,7.1,8.1,16.5,12.2,27c8.9,23.1,10.2,93.5,6.2,102.3c-3.9,8.8-57.3,13.5-73,7.7
		c-9.8-3.6-12.1-85.5-12.7-124.7c-0.2-11.6,8.6-14.5,20.2-15.5C412.9,268.3,423.5,263.9,428.9,274.4z"/>
	<path class="st4" d="M394.4,399.2c-10.7-3.9-12.4-92.9-12.7-125.4c0,0-20.2-0.1-20.1,9.6c0.5,37.7,2.7,124.3,12.7,128
		c15.7,5.8,69.1,1.1,73-7.7c0.4-0.9,0.8-2.5,1-4.7C430.3,402.3,404.5,403,394.4,399.2z"/>
	<path class="st5" d="M451.9,319c-1.3-9-0.9-14.7-2.5-20.2c-8.2-27.9-31.1-36.8-31.1-36.8l-42.7,3c-8.1,0.7-14.2,7.5-14.1,15.5
		c0.1,10.7,0.3,26.3,1,43.1L451.9,319z"/>
	<path class="st6" d="M94.7,433.7c0,0-21.2-1.6-21.2,6.9c0,8.5,113.7,29,147.3,25.8C220.8,466.4,114.3,433.7,94.7,433.7z"/>
	<path class="st2" d="M346.2,456.1c-16.3-39.7-34.4-88.6-44.4-122.9c-7.5-25.5-40-102.7-48.9-52.2l46.4,185.4
		C299.3,466.4,320,461.8,346.2,456.1z"/>
	<path class="st0" d="M341.3,79.4c0,0,40.4,96.4,60.8,103.4h6l9.6,76.4l-51.5,6.9L312.7,86.3L341.3,79.4z"/>
	<path class="st7" d="M341.3,79.4c18.3,37.7,45,95.9,60.9,103.1l-0.1,0l6,0.3c-0.3,0-6.5,0.3-6.1,0.3l0,0
		C381,175,349.1,100.4,341.3,79.4z"/>
	<path class="st2" d="M121.8,52.5c-1.9,0.5-8.6,49.3-16.3,112.1c20.6,5.8,43.1,9.1,47.7-1.6c6.3-14.7,13.1-70.8,16.5-102.4
		C148.7,54.8,129.9,50.6,121.8,52.5z"/>
	<path class="st0" d="M156.2,79.4c0,0-53,93.9-62.6,93.9l0.8,82.9l59,17.7l27.1-188.1L156.2,79.4z"/>
	<path class="st8" d="M136.7,112.8c-16.2,27-37.4,60.4-43.1,60.4l0.8,82.9l49.6,5.9C139.3,218.1,137.4,161.9,136.7,112.8z"/>
	<path class="st7" d="M156.2,79.4c-13.1,26.3-52.8,93.4-62.6,93.9c6.5-1,31.5-44,47.6-69.8C142.8,101,135.6,112.4,156.2,79.4z"/>
	<path class="st3" d="M94.5,256.1c0,0-11.5,17.4-21,40.2c-9.5,22.8-3.7,93.4,0,102.4c3.7,9,47.9,15.3,63.6,9.5
		c9.7-3.5,14.7-93.9,16.3-130c0.4-8.3-5.7-15.5-14-16.6L94.5,256.1z"/>
	<path class="st4" d="M136,261.2c-1.6,35.7-6.6,127.2-16.4,130.7c-10.3,3.7-32.6,2.4-47.9-1.5c0.6,4,1.2,6.9,1.8,8.3
		c3.7,9,47.9,15.3,63.6,9.5c9.7-3.5,14.7-94,16.3-130.1c0.4-8.3-5.7-15.5-13.9-16.5L136,261.2z"/>
	<path class="st4" d="M118.9,33.3l-1.2,38.9c0,0,114.7,25.2,149.8,18.7V60.1C267.5,60.1,169.5,58.6,118.9,33.3z"/>
	<path class="st9" d="M242.2,79.4L242.2,79.4c0,11.7,10.3,20.7,21.9,19l117.4-16.5l-2.1-43.3c0,0-31.4,13.4-120.2,21.7
		C249.4,61.2,242.2,69.6,242.2,79.4z"/>
	<path class="st10" d="M242.2,105.6c4.1,61-0.3,125.3,6.6,139.7c5,9.3,16.7,11.9,27.1,10.8c-16.6,5.4-31.1-2.5-33.9-13.8
		c-6.2-19.1-5-72-3.8-93.2C238.9,134.6,240.1,120,242.2,105.6z"/>
	<circle class="st7" cx="261.1" cy="77.7" r="8.3"/>
	<g>
		<polygon class="st11" points="171.6,90.4 157.2,87.6 165.7,44.4 180,47.6 		"/>
	</g>
	<g>
		<polygon class="st11" points="309.2,100.1 299.1,52 313.6,49.9 323.6,97.1 		"/>
	</g>
	<g>
		<path class="st2" d="M75.9,305.2c1.5,6.3,2.6,16.2-1.4,22.5c-2.5,3.9-6.7,6-12.9,6.6l0.9,9.8c9.3-0.9,16.1-4.6,20.3-11.1
			c5.5-8.7,4.6-20.2,3.1-27.7H75.9z"/>
	</g>
	<rect x="73.6" y="319" class="st12" width="17.4" height="4.9"/>
	<g>
		<path class="st5" d="M418.3,313l12.1-2.1c1,5.5,5.2,20.8,13.1,25.2c1.7,1,4.5,2,9.2,0.1l0.7,12.6
			C432.2,357.3,422.2,335.3,418.3,313z"/>
	</g>
	<rect x="416.7" y="327.9" class="st12" width="25.1" height="3.9"/>
	<path class="st5" d="M151.3,318.3c0.9-16,1.8-33,2.3-43.7c0.3-6.3-4.3-12.6-10.5-13.3l-48.5-6.1c0,0-19.8,2.4-26.5,41.2
		c-0.7,3.9-1.1,8.5-1.9,14.2L151.3,318.3z"/>
</g>
</svg>
