<?xml version="1.0" encoding="utf-8"?>
<!-- Generator: Adobe Illustrator 24.0.2, SVG Export Plug-In . SVG Version: 6.00 Build 0)  -->
<svg version="1.1" id="Layer_1" xmlns="http://www.w3.org/2000/svg" xmlns:xlink="http://www.w3.org/1999/xlink" x="0px" y="0px"
	 viewBox="0 0 500 500" style="enable-background:new 0 0 500 500;" xml:space="preserve">
<style type="text/css">
	.st0{fill:#E2D6CF;}
	.st1{fill:#F8B249;}
	.st2{fill:#F4E8E2;}
	.st3{fill:#FFF7F3;}
	.st4{fill:#FFFFFF;}
	.st5{fill:#FCC85E;}
	.st6{fill:#FFDE76;}
	.st7{fill:#ED9622;}
	.st8{fill:#FFEFA3;}
	.st9{fill:#B1B2B1;}
	.st10{fill:#E9E9E9;}
	.st11{fill:#E0E0DF;}
	.st12{fill:#CCCBCA;}
	.st13{opacity:0.58;fill:#E9E9E9;}
	.st14{opacity:0.58;fill:#FFFFFF;}
	.st15{fill:#6A9BC7;}
	.st16{fill:#C6D9EF;}
	.st17{fill:#A9C6E1;}
	.st18{fill:#91B8D6;}
	.st19{opacity:0.56;fill:#C6D9EF;}
	.st20{opacity:0.56;fill:#91B8D6;}
</style>
<g>
	<path class="st0" d="M172.5,460.2c4,7.4,11,13.1,18.8,15.4c7.8,2.3,16.5,1.2,23.7-2.9c10.8-6.3,17.4-19.8,16-32.7
		c-1.4-12.9-10.8-24.5-22.7-28c-11.9-3.5-25.6,1.2-33.2,11.5C167.4,433.7,166.4,448.9,172.5,460.2z"/>
	<path class="st1" d="M228.5,433.1c1.2,7.7,0.8,15.4,0.3,23.2c4.9-1.6,8.4-6.8,8.1-12.2C236.7,438.8,233.5,434.2,228.5,433.1z"/>
	<path class="st1" d="M171.6,458.9c-4.2-0.3-7-3.1-9.1-7.4c-2.1-4.3-2.2-9.9-0.4-14.4c1.9-4.5,5.7-7.8,9.8-8.6
		C171.2,438.8,170.3,448.9,171.6,458.9z"/>
	<path class="st0" d="M334.3,427.4c-4-7.4-11-13.1-18.8-15.4c-7.8-2.3-16.5-1.2-23.7,2.9c-10.8,6.3-17.4,19.8-16,32.7
		c1.4,12.9,10.8,24.5,22.7,28c11.9,3.5,25.6-1.2,33.2-11.5C339.4,453.9,340.4,438.7,334.3,427.4z"/>
	<path class="st1" d="M278.3,454.5c-1.2-7.7-0.8-15.4-0.3-23.2c-4.9,1.6-8.4,6.8-8.1,12.2C270.1,448.8,273.3,453.5,278.3,454.5z"/>
	<path class="st1" d="M335.2,428.7c4.2,0.3,7,3.1,9.1,7.4c2.1,4.3,2.2,9.9,0.4,14.4c-1.9,4.5-5.7,7.8-9.8,8.6
		C335.6,448.9,336.5,438.8,335.2,428.7z"/>
	<path class="st1" d="M45.4,401.1c0,37.3,126.1,49.2,126.1,49.2l-0.7-13.9c0,0-118.2-16.9-119.7-36.3c-1.8-24.4,142.3-26.8,203-26.9
		c60.7,0.1,204.9,2.6,203,26.9c-1.5,19.4-119.7,36.3-119.7,36.3l-0.7,13.9c0,0,126.1-11.9,126.1-49.2c0-35.6-102.9-47.3-208.7-47.3
		S45.4,365.5,45.4,401.1z"/>
	<path class="st2" d="M203.8,472.7c6-0.2,12.3-2.2,16.1-7.1c3.8-4.9,4.4-12.1,2.7-18.2c-1.7-6.1-5.5-11.4-9.7-16
		c-4.4-5-9.7-9.6-16.1-10.9c-9.3-2-19.3,4.1-23,13.3c-3.8,9.1-1.6,20.4,4.6,27.9C184.6,469.2,194.4,473,203.8,472.7z"/>
	<path class="st2" d="M327.3,462c2.6-4.6,2.5-10.4,1.4-15.6c-2.1-10.1-8.3-19.6-17.2-23.9c-9-4.2-20.7-2.3-26.9,5.8
		c-5.7,7.4-5.8,18.7-1.2,27c4.6,8.3,13.2,13.5,22.2,15C313.6,471.7,323.1,469.5,327.3,462z"/>
	<path class="st3" d="M184.7,465.4c3.9,3.4,8.8,5.6,13.9,5.6c5.1,0,10.2-2.5,13.1-6.9c3.5-5.2,3.4-12.3,1.7-18.5
		c-2.1-7.6-6.4-14.5-12.1-19.5c-3.1-2.7-6.9-5-10.9-4.7c-4.2,0.3-7.8,3.5-10.2,7.2c-3.7,5.6-5.3,12.6-4.4,19.3
		C176.4,454.7,179.7,461.1,184.7,465.4z"/>
	<path class="st3" d="M292.6,425.5c-7.3,5.6-11,15.8-9.3,25.1c1.7,9.3,8.5,17.3,17.1,20.2c6.1,2.1,13.4,1.4,18-3.3
		c4.5-4.6,5.3-12,4.3-18.6c-1.2-7.7-4.6-15-9.6-20.7c-2.6-3-5.8-5.6-9.7-6.2C299.7,421.5,295.8,423.1,292.6,425.5z"/>
	<path class="st4" d="M290,462.8c1.7,3.7,4.4,6.9,7.6,9.2c2.1,1.5,5,2.6,7,0.9c1.8-1.5,1.6-4.4,1-6.7c-1-3.5-2.8-6.8-5.1-9.5
		c-1.3-1.6-2.8-3.1-4.7-3.8c-1.9-0.7-4.2-0.5-5.6,0.9C288,456.1,288.7,459.9,290,462.8z"/>
	<path class="st4" d="M291.7,430.7c1.1,3.2,3.2,6,5.8,7.9c1.1,0.7,2.4,1.3,3.6,0.8c1.5-0.7,1.7-2.9,1.5-4.6c-0.6-3.5-2.4-6.7-5-8.9
		c-1.3-1.1-3.1-2-4.6-1.2C291,425.7,291,428.6,291.7,430.7z"/>
	<path class="st4" d="M328.9,453.1c2.4-0.6,4.2-3.1,4.6-5.8c0.4-2.6-0.2-5.3-1.1-7.8c-1.2-3.4-3-6.7-5.1-9.6
		c-1.1-1.5-2.4-2.9-4.1-3.4c-2.5-0.6-5.1,1.2-6.3,3.6c-1.1,2.4-1,5.3-0.5,8c0.7,3.6,2.1,7,4,10C322.3,451.2,325.5,454,328.9,453.1z"
		/>
	<path class="st4" d="M181.6,457.4c0.6,4.3,3.2,8.3,6.8,10.5c2.4,1.4,5.6,2,7.8,0.2c2.3-2.1,2.1-5.9,1.4-9c-0.7-3.2-1.8-6.5-4-8.9
		c-2.2-2.3-5.9-3.5-8.6-1.9C182,450,181.1,454,181.6,457.4z"/>
	<path class="st4" d="M184.6,428.1c0.4,3.9,2.6,7.5,5.9,9.3c1.2,0.7,2.8,1.2,4.1,0.6c2.2-1,2.5-4.1,2-6.5c-0.5-2.6-1.4-5.1-2.8-7.4
		c-0.9-1.5-2.1-3-3.8-3.3c-1.7-0.3-3.4,0.7-4.4,2.2C184.7,424.5,184.5,426.4,184.6,428.1z"/>
	<path class="st4" d="M217.7,425c-1.5-1.2-3.4-2.2-5.3-1.9c-2.2,0.4-3.8,2.5-4.2,4.8c-0.4,2.3,0.1,4.6,0.9,6.8
		c1.9,5.3,5.3,10,9.6,13.4c1.1,0.8,2.3,1.6,3.6,1.3c1.8-0.4,2.7-2.6,3-4.5C226.3,437.5,223.3,429.5,217.7,425z"/>
	<path class="st5" d="M164.8,437.4c-1.3,1.8-1.3,4.8-1.1,6.9c0.1,1.5,0.4,3,0.9,4.5c0.1,0.6,0.3,1.2,0.4,1.5c0.9,2,2.2,3.7,3.5,5.4
		c0.9,1.2,1.8,0.6,2-0.7c0.5-3.3,0.2-6.7-0.6-9.9c-0.6-2.4-1.7-7.1-4.3-8C165.3,437,165,437.1,164.8,437.4z"/>
	<path class="st5" d="M231.8,441.6c-0.6,1.9-1.5,3.9-1.5,5.9c0,1.3,0.2,2.5,0.9,3.6c0,0.1,0.1,0.1,0.1,0.2c0.4,1.2,1,2.1,1.7,1.4
		c1-0.9,1.7-1.8,2-3.2c0.4-2,0.2-3.9-0.4-5.9C234.5,442.9,232.5,439.4,231.8,441.6z"/>
	<path class="st5" d="M271.6,442.2c0,1.5,0.2,3.5,1,5c0.6,1.7,1.6,3.1,3.3,3.8c0.6,0.3,1-0.7,1-1.2c0.1-2.6-0.1-5.1-0.7-7.6
		c-0.3-1.3-1-3.8-2.6-3.7C272,438.5,271.6,440.9,271.6,442.2z"/>
	<path class="st5" d="M338,439.1c-0.5,3.4-1.2,6.8-1.5,10.3c-0.1,1.4,0.3,2.9,1,4c0.2,0.3,0.5,0.7,0.9,0.9c0.3,0.3,0.6,0.4,0.9,0.3
		c0,0,0,0,0,0c0.1,0,0.1-0.1,0.2-0.1c4.3-3.3,3.5-10.3,1.3-14.8C340.2,438.5,338.4,436.5,338,439.1z"/>
	<path class="st5" d="M455.2,404.7c-14.1,14.1-31,20.2-49.6,24.9c-9.6,2.4-19.3,4.5-29.1,6.4c-9.8,1.8-19.8,2.1-29.5,4.1
		c-1.6,0.3-0.1,5.6,1.4,5.7c9.2,0.4,18.5-1.8,27.5-3.4c10.6-1.9,21-4.4,31.5-7c17.9-4.4,37.1-11.4,50-25.8
		C458.4,408.3,456.5,403.4,455.2,404.7z"/>
	<path class="st5" d="M455.3,404.5c0,1.5,2.3,4.6,2.3,1.7C457.6,404.7,455.3,401.5,455.3,404.5z"/>
	<path class="st5" d="M53.5,413.4c14.3,10,30.1,17.3,46.4,22.8c17,5.8,36.2,10.4,54.2,10.1c2.2,0,0.6-5.9-1.1-6.1
		c-17-2.1-33.3-4-49.8-9.1c-17.5-5.4-33.9-13.6-49.9-22.8C51.2,407.2,52.4,412.6,53.5,413.4z"/>
	<path class="st5" d="M254.4,359.5c-24.2,0.2-48.5,1.1-72.7,2.8c-24.4,1.7-50.3,2.2-74.2,8.6c-1.4,0.4-0.1,5.4,1.2,5.4
		c23.3,0.2,46.9-3.9,70.1-5.6c25.6-1.8,51.3-2.8,76.9-3c25-0.2,49.9,0.4,74.8,1.6c24.8,1.3,49.6,4.1,74.5,5.1c1.9,0.1,0.5-5.5-1-5.8
		c-24.7-4.6-49.9-6-74.9-7.4C304.3,359.8,279.4,359.3,254.4,359.5z"/>
	<path class="st6" d="M165.3,442.9c-1.9,0-1.3,2.8-0.6,4.6c0,0.1,0,0.1,0.1,0.2c0.1,0.2,0.2,0.4,0.2,0.6c0,0.1,0.1,0.1,0.1,0.2
		c0.1,0.1,0.1,0.2,0.2,0.3c0.1,0.2,0.3,0.5,0.5,0.7c0.3,0.5,0.6,0.9,1.1,1.3c0.5,0.5,1.3,1.1,2,1.2c1,0,1.2-1,1.2-2
		c0.3-1.5-0.4-3.3-1.3-4.4C167.9,444.1,166.8,442.9,165.3,442.9z"/>
	<path class="st6" d="M71.3,423.4c14.5,6.4,29.9,11.1,45.2,14.7c2,0.5,0.7-5.7-1.2-6.2c-15-4.1-29.9-8.9-44.9-13.1
		C68.9,418.4,70.1,422.9,71.3,423.4z"/>
	<path class="st6" d="M420.2,422c-19.6,6.2-38.7,12.9-58.7,17.9c-1.4,0.4,0,5.1,1.5,4.9c19.9-2.3,40.9-7.4,59-16.7
		C423.8,427.2,422,421.4,420.2,422z"/>
	<path class="st6" d="M271.4,442.2c0,1.6,0.2,3.1,0.9,4.5c0.5,1.1,1.3,2.5,2.6,2.6c0,0,0.1,0,0.1,0c0.3,0.3,0.7,0.5,1.1,0.6
		c0.7,0.2,1-0.7,1.1-1.3c0.2-2.1-0.6-4.4-1.9-6.1c-0.7-0.9-1.7-1.7-2.8-1.7C271.8,440.8,271.5,441.4,271.4,442.2z"/>
	<path class="st6" d="M341.4,444.6c-1.7,0.9-3,2.4-3.2,4.4c-0.1,1.4,0.3,3,1.1,4.2c0.5,0.8,1.3,1.7,2.1,1c0.4-0.3,0.6-1,1-1.4
		c0.2-0.2,0.4-0.4,0.6-0.6c0.2-0.2,0.5-0.4,0.7-0.5c1.2-0.8,0.8-2.9,0.4-4.1c-0.3-0.8-0.6-1.7-1.2-2.4
		C342.5,444.9,341.9,444.3,341.4,444.6z"/>
	<path class="st6" d="M230.2,446.4c-0.4,1.2,0,2.8,0.5,3.9c0.3,0.7,1.1,2.2,2,1.9c0.4-0.1,0.7-0.6,1.1-0.9c0.2-0.2,0.5-0.3,0.8-0.5
		c0.1,0,0.2-0.1,0.3-0.2c0,0,0,0,0,0c0,0,0,0,0,0c1-1.1-0.3-5.6-1.8-5.9C232,444.5,230.6,445.3,230.2,446.4z"/>
	<path class="st6" d="M144.7,369.8c-1.3,0.2-0.1,4.7,1.4,4.6c28.3-3.1,57-5.2,85.4-6.7c28.3-1.6,56.7-1.2,85-2
		c1.3,0,0.1-5.1-1.3-5.2C258.7,355.5,200.6,360.5,144.7,369.8z"/>
	<path class="st6" d="M369.1,366.4c-1.4,0.2,0.1,4.3,1.1,4.6c8.1,2.4,16.8,2.8,25.1,4.1c8.2,1.2,16.3,3.2,24.5,3.9
		c2.2,0.2,0.4-5.6-1.1-6.1c-8-2.6-16.4-3.7-24.7-4.9C385.9,366.8,377.2,365.1,369.1,366.4z"/>
	<path class="st6" d="M418.7,375.3c0,2.3,3.4,7,3.4,2.5C422.1,375.5,418.7,370.8,418.7,375.3z"/>
	<path class="st7" d="M51,398.1c-0.1,0.1,0.1,0.8,0.3,0.6c7.8-8.7,16.5-14.4,27.6-16.9c0.5-0.1,0-1.5-0.5-1.5
		C67.1,380.8,56.4,387.6,51,398.1z"/>
	<path class="st7" d="M436.7,380.9c5.9,3.9,19.5,8.8,19.1,17.8c0,0.4,0.7,2,0.9,1c0.6-3.9-1.2-7.9-4-10.5c-4.4-4.1-10.3-7.7-16.1-9
		C436.3,380.2,436.5,380.9,436.7,380.9z"/>
	<path class="st8" d="M165.3,441.6c0.1,0.7,0.4,1.4,0.5,2.2c0.2,1,0.1,2,0,3c0,0.4,0.5,2.6,1.2,1.9c0.9-0.9,0.8-2.8,0.7-4
		c-0.2-1.4-0.6-3.4-1.8-4.2C165.2,440,165.2,441.2,165.3,441.6z"/>
	<path class="st8" d="M233.1,441.7c-0.2,1.3,0.2,2.7,0,4c-0.1,0.9-0.7,2.3-0.2,3.1c0.1,0.2,0.2,0.4,0.4,0.6c0.1,0.2,0.7,0.9,0.9,0.5
		c1.3-2.2,1.4-6,0-8.2C233.8,441.1,233.2,440.8,233.1,441.7z"/>
	<path class="st8" d="M273.6,438c-0.6,0.8-0.4,2-0.3,3c0.1,1.4,0.3,2.8,0.7,4.2c0.1,0.5,1.4,2.1,1.4,0.7c0-2.2,0.1-4.6-0.5-6.7
		C274.8,438.9,274.1,437.4,273.6,438z"/>
	<path class="st8" d="M340.3,439.8c0,1.4,0.6,2.8,0.5,4.2c0,1.7-0.5,3.3-0.6,5c0,0.2,0.1,0.8,0.4,0.8c1.9-0.2,2.1-3,2.2-4.6
		c0.1-1.9-0.3-4.9-1.9-6.1C340.4,438.7,340.3,439.4,340.3,439.8z"/>
	<path class="st8" d="M388.8,434.9c-7,1.7-14.3,2.6-21.2,4.7c-0.7,0.2,0,2.6,0.6,2.6c12.9,0.2,28.6-3.4,40.1-9.5
		c0.7-0.3,0-2.4-0.7-2.3C401.3,431.4,395.1,433.4,388.8,434.9z"/>
	<path class="st8" d="M457.8,406.3c-1.7,1.5-3.3,3.1-4.9,4.8c-1.9,1.9-3.8,3.7-5.3,6c-0.1,0.2,0,0.9,0.3,0.8
		c4.3-1.4,8.3-5.7,10.8-9.5C459.1,407.8,458.5,405.7,457.8,406.3z"/>
	<path class="st8" d="M244.4,366c-0.3,0.1,0,0.8,0.2,0.8c7.6,1.7,15.6,1.3,23.3,1.5c8.5,0.2,17.1,0.3,25.6,0.5
		c16.1,0.3,32.6,1.3,48.6,0c0.4,0,0-1.3-0.3-1.3c-16.1-1.8-32.7-1.4-48.9-1.7c-8.5-0.2-17.1-0.3-25.6-0.4
		C259.8,365.2,251.8,364.4,244.4,366z"/>
	<path class="st8" d="M348.7,368.6C348.7,368.6,348.8,368.7,348.7,368.6C348.8,368.6,348.7,368.5,348.7,368.6z"/>
	<path class="st8" d="M137.1,371.7c-0.2,0.1,0,0.8,0.2,0.8c7.8,0.2,15.6-0.8,23.4-1.2c9.3-0.5,18.7-0.3,28.1-0.3
		c0.7,0,0.2-2-0.4-2.1C172,367.2,153.1,366.8,137.1,371.7z"/>
	<path class="st8" d="M90.4,431.5c12.2,7.8,29.7,10.9,43.7,12c0.8,0.1,0.2-2.2-0.4-2.3c-7.4-1.7-14.8-3.2-22.1-5
		c-7-1.7-14.1-5-21.3-5.3C90.1,430.8,90.3,431.4,90.4,431.5z"/>
	<path class="st7" d="M160.8,438.6c-0.4,3.3,0,6.4,0.7,9.6c0.1,0.3,0.4,0.6,0.4,0.1c-0.4-2.8-0.3-5.8-0.2-8.7
		C161.7,439.2,160.9,437.6,160.8,438.6z"/>
	<path class="st7" d="M344.5,438.2c0.4,3.1,1.5,6.4,1.3,9.5c0,0.2,0.4,1,0.4,0.5c0.1-1.9,0.4-3.5,0.2-5.4c-0.2-1.7-0.5-3.4-1.2-5
		C344.9,437.1,344.4,437.3,344.5,438.2z"/>
</g>
<g>
	<path class="st1" d="M210,288.4c-16.5,13.4-26.8,34.2-27.4,55.5c-1,33.5,23.7,66.1,56.3,74.2c32.6,8.1,69.6-9.1,84.5-39.1
		c14.9-30.1,6-69.9-20.2-90.9C276.9,267.1,236.1,267.2,210,288.4z"/>
	<path class="st7" d="M219.8,300.3c-12.9,10.5-20.9,26.8-21.4,43.4c-0.8,26.2,18.5,51.7,43.9,58.1c25.4,6.3,54.3-7.1,65.9-30.6
		c11.6-23.5,4.7-54.7-15.8-71.1C272,283.6,240.1,283.8,219.8,300.3z"/>
	<path class="st0" d="M222.2,303.6c-12.2,9.9-19.7,25.2-20.2,40.9c-0.7,24.7,17.5,48.7,41.5,54.7c24,6,51.3-6.7,62.3-28.8
		c11-22.2,4.4-51.6-14.9-67C271.6,287.9,241.4,288,222.2,303.6z"/>
	<path class="st1" d="M191.8,356.2c-0.7-2.9-2.6-4.8-4.6-6.9c-0.7-0.7-1.2-1.5-1.6-2.3c0.2-0.3,0.4-0.5,0.5-0.8
		c1.7-4.5,2.8-9.2,2.4-14c-0.1-1.6-3.3-1.3-6-0.2c-0.9-0.4-2-0.5-3.4-0.1c-4.5,1.3-7.2,3.6-8.9,8c-3.9,10.4,1.6,20.8,13.1,21.1
		C185.5,361.1,192.6,359.5,191.8,356.2z"/>
	<path class="st1" d="M341.7,340.1c-1.6-6.7-7.6-9.3-13.6-6.5c-0.5,0.2-2.7,1.6-1.5,2.4c0.7,0.5,1.4,1.1,1.9,1.8
		c-3.2,1-6.3,3.2-4.6,4.4c4.8,3.5,6.2,10.3,3,15.4c-1,1.6,0.4,2.4,1.9,2.5c2.6,0.2,5.7-1,7.7-2.8
		C341.3,352.8,343.2,346.7,341.7,340.1z"/>
	<path class="st1" d="M183.2,346.1c-22.3-4.5-36.4-21-49-38.6c-12.5-17.4-22.5-36.5-30.6-56.3c-8.2-19.9-13.3-40.7-16.4-61.9
		c-1.7-11.8-2-23.8-2.3-35.7c-0.2-10.4,1.7-21.5-0.8-31.7c-0.2-0.9-2.4,0.2-2.6,0.8c-7.3,19.4-3.5,44.7-0.4,64.7
		c3.7,23.8,10,47,18.7,69.5c8.7,22.2,20.6,43.2,34.8,62.4c11,14.9,25.5,28.3,44.6,30.1C180.5,349.4,185.6,346.6,183.2,346.1z"/>
	<path class="st1" d="M444.8,127.5c-0.7-1.2-4.4,0-4.5,1.4c0,0,0,0,0,0c-3.6,10-1.9,22-2.1,32.7c-0.3,10.7-1.3,21.3-2.6,31.9
		c-2.4,20.6-7.2,40.9-13.6,60.6c-6.2,18.9-15.1,36.7-27.2,52.3c-15.9,20.5-37.3,30.9-62.1,35.1c-1.3,0.2-7.1,3.6-3.2,3.8
		c40,2,73.6-33.7,90.5-66.7c11.1-21.6,17.6-45.6,22.4-69.4c2.7-13.5,4.3-27.2,5.3-40.9C448.4,156.5,451.2,137.9,444.8,127.5z"/>
	<path class="st2" d="M301.4,335.7c-2-18.4-17.3-34.3-35.4-37.8c-18.2-3.4-37.8,5.4-47.9,20.9c-10.1,15.5-10.4,36.6-1.4,52.8
		c4.1,7.3,10.1,13.8,17.8,17.1c8.9,3.8,19.3,3,28.5,0c12-3.9,22.9-11.4,30-21.7C299.3,357.9,302.6,346.6,301.4,335.7z"/>
	<path class="st3" d="M296.5,328.7c-0.9-8-6.5-14.9-13.5-18.9c-7-3.9-15.2-5.1-23.3-5c-9.3,0.1-18.7,2-26.8,6.6
		c-8.1,4.6-14.6,12.3-16.8,21.3c-2.2,9,0.5,19.4,7.6,25.3c5.6,4.7,13.1,6.3,20.4,6.8c15.9,1.1,32.9-3.2,43.9-14.8
		C293.5,344.4,297.3,336.6,296.5,328.7z"/>
	<path class="st4" d="M222.2,342.7c6,0.4,12-1.2,17.4-3.6c3.8-1.7,7.6-3.9,10.2-7.2c1.1-1.5,2-3.2,2-5c-0.1-2.5-1.9-4.7-4-6.1
		c-4.3-2.9-9.8-3.4-14.8-2.4c-5,1-9.7,3.5-14,6.3c-2,1.3-4,2.7-5.4,4.5c-1.5,1.9-2.3,4.3-1.9,6.6
		C212.5,340.3,217.7,342.4,222.2,342.7z"/>
	<path class="st4" d="M276.5,320.7c-2.6,1.3-5,3.6-5.2,6.6c-0.1,2.9,2.1,5.4,4.7,6.6c2.6,1.1,5.6,1,8.5,0.6c2.4-0.3,4.8-0.9,6.7-2.3
		c2-1.4,3.4-3.7,3.1-6.1c-0.3-2.9-3.1-5.1-5.9-6.1C284.6,318.6,280.2,318.9,276.5,320.7z"/>
	<path class="st4" d="M284,360.7c-7.3,2.5-13.3,7.9-20.5,10.9c-4.4,1.8-9.2,2.8-13,5.4c-3.9,2.7-6.6,8-4.4,12.2
		c1.2,2.3,3.7,3.7,6.3,4.2c2.6,0.5,5.2,0.2,7.8-0.2c13.6-2,28-7.5,35.1-19.3c2-3.3,3.2-7.6,1.2-10.8
		C294,359.2,288.3,359.2,284,360.7z"/>
	<path class="st5" d="M183.7,337.5c-0.8-1.2-3.9-0.4-4.9,0c-2,0.7-4.2,1.6-5.1,3.7c-1,2.3-1.1,4.8-0.2,7.1c0,0.1,0.1,0.1,0.1,0.1
		c-0.5,2.5,0,5.1,1.2,7.3c1.7,3.1,8.4-0.1,9.4-2.5C186.3,348.9,186.6,341.7,183.7,337.5z"/>
	<path class="st5" d="M341.4,338.7c-0.4-1.9-1.8-2.2-3.4-2.5c-1.6-0.3-5.4,0.7-5.8,2.6c-0.1,0.5-0.1,1,0,1.4
		c-2.2,4.1-3,8.9-2.1,13.6c0.5,2.9,7.9-0.2,8.7-1.7c1.6-2.9,2.5-5.9,2.8-9.2C341.7,341.5,341.7,340.1,341.4,338.7z"/>
	<path class="st5" d="M285.9,284.2c-24.8-17.1-61.4-3.5-80.5,15.8c-10.4,10.5-18.4,24.8-18,39.9c0.5,17.9,3.4,35.3,16.4,48.4
		c1.5,1.5,8.1-1.1,6.5-3c-16.7-19.1-17.5-52.1-4.7-72.9c6.4-10.5,15.9-19,26.8-24.4c14.9-7.4,29.6-3.9,44.4,1.3
		C278.9,289.9,289.1,286.4,285.9,284.2z"/>
	<path class="st5" d="M318.5,315.8c-1.6-2.6-10.3,0.3-9.1,3c5,11,9.5,20.6,8.3,32.9c-1.1,11.1-5.9,23.2-11.3,32.8
		c-14.3,25.4-42.3,25.7-67.9,22.1c-1.1-0.2-8.7,2.4-6.2,4c10.7,6.8,26.1,4.6,38,3c13.5-1.9,26.5-7.5,36.6-16.7
		c9.6-8.8,14.7-21.8,18.3-33.9C330.6,344.9,328.3,331.7,318.5,315.8z"/>
	<path class="st6" d="M182.8,342.2c-0.2-1.7-0.3-2.8-1.6-4c-1.5-1.4-4.9,0.2-6.2,1.2c-1.8,1.6-3,3.3-3.3,5.7
		c-0.3,2.1-0.1,3.9,1.4,5.4c1.2,1.2,4,0.5,5.3,0c1.5-0.5,3.7-1.5,4.3-3.2C183.3,345.7,183,344,182.8,342.2z"/>
	<path class="st6" d="M341.2,339.9c0.4-0.8,0-1.9-0.7-2.5c-2.2-1.9-6-1.1-8,0.8c-1.2,1.1-2.6,2.9-2.3,4.6c0.3,1.7,3.8,1.2,4.8,1
		c1.6-0.3,3.4-0.9,4.8-2.1c0,0,0.1-0.1,0.1-0.1c0.1-0.1,0.2-0.2,0.3-0.3c0.2-0.2,0.3-0.3,0.5-0.5c0,0,0-0.1,0.1-0.1
		C340.9,340.5,341,340.2,341.2,339.9z"/>
	<path class="st6" d="M261.3,279.3c-18.2-1.6-35.9,5.7-50.1,16.5c-11.3,8.5-29.7,31-22.4,46.1c1.1,2.3,7.3,0.1,7.7-2
		c6.4-31.9,27.5-52.2,60.2-55.5C258.5,284.2,266.7,279.8,261.3,279.3z"/>
	<path class="st6" d="M244.9,405.3c-6.7,0.2-12.9-2.6-18.9-5.3c-1.5-0.7-8.2,1.4-6.3,3.4c5.4,5.8,13.4,8,21.1,7.6
		c2.4-0.1,5.5-1.1,7-3.2C249.4,405.7,246.4,405.2,244.9,405.3z"/>
	<path class="st6" d="M308.2,378.1c-5.3,6.1-9.3,12.9-15.3,18.5c-5.6,5.1-15.4,12-23.3,11.8c-1.6-0.1-6.1,0.7-5.7,3.1
		c0.1,0.5,0.1,1,0.2,1.5c0.2,1.2,2.5,1.2,3.2,1.1c10.7-0.6,21.4-6.2,30-12.3c7.6-5.4,18.7-15.1,20-24.9
		C317.8,373,309.3,376.8,308.2,378.1z"/>
	<path class="st6" d="M313.4,307.3c-0.6-2-1.8-3.6-3.2-5.2c-1.5-1.6-3.4-2.8-5-4.4c-1.5-1.5-8.2,0.9-6.6,3.1c1,1.4,1.6,3.4,2.4,4.9
		c1,1.8,2.1,3.5,3.5,5.1C306.2,312.6,314.3,310.1,313.4,307.3z"/>
	<path class="st8" d="M180.2,341.6c-1.1,0.1-2.1,0.2-3.1,0.4c-1.5,0.3-3,0.9-4.1,1.9c-0.9,0.8-1.3,2.1,0.1,2.6
		c2.9,1.1,6.2,0.4,8.8-1.1C184,344.1,185.2,341.2,180.2,341.6z"/>
	<path class="st8" d="M222.2,288.9c-8.5,2.7-17.6,9.2-22.6,16.7c-1,1.5,0.3,2.4,1.7,2.5c2.4,0.2,5.6-0.7,7.4-2.4
		c2.8-2.8,5.6-5.6,8.7-8.2c2.8-2.3,6.1-4.1,9-6.3C229.9,288.5,223.7,288.4,222.2,288.9z"/>
	<path class="st8" d="M285.5,405.3c-4.8,1.6-9.5,3.7-14.5,4.2c-3.5,0.3-12.7,0.7-15.8-1.5c-2.2-1.6-6.9,0.1-8.3,2.2
		c-0.1,0.2-0.3,0.4-0.4,0.6c-0.3,0.4-0.4,0.8-0.3,1.3c3,5,15.3,3.8,20.3,3.8c8-0.1,16-3.6,22.9-7.3
		C294.3,405.9,288.4,404.4,285.5,405.3z"/>
	<path class="st8" d="M313.9,308c-1.5-1.2-7.4,0.3-6.9,2.7c1,4.7,3.4,9,5.1,13.5c1.8,4.6,3.2,9.2,4.9,13.8c1.2,3.1,9.6,0,9.5-3.1
		C326,325.3,321.7,314,313.9,308z"/>
	<path class="st8" d="M339.7,342.5c-0.2-0.9-0.9-1.3-1.6-1.6c-1-0.5-2.5-0.1-3.4,0.2c-0.9,0.3-1.7,0.7-2.4,1.3c0,0,0,0,0,0
		c-1.2,1.2-2.3,2.9-1.4,4.6c0.7,1.3,2.7,1,3.8,0.8c1.8-0.4,4.2-1.2,4.9-3.1C339.8,344,339.8,343.3,339.7,342.5z"/>
	<path class="st7" d="M185.7,336.8c0-0.3-1.1,0-1.1,0.3c0.1,7.3,0.4,14.7,0.7,22c0,0.1,0.5,0,0.5-0.1
		C185.8,351.6,185.9,344.2,185.7,336.8z"/>
	<path class="st7" d="M170.6,342.8c-0.4,1.6-1.2,3.3-1.1,5c0,0.5,1.4,0,1.5-0.4c0.4-1.6,0.3-3.2,0.7-4.8
		C171.8,342.2,170.7,342.4,170.6,342.8z"/>
	<path class="st7" d="M329.5,335.6c0-0.3-0.9,0-0.9,0.3c0.3,8.1-0.2,16.3,0.5,24.3c0,0.3,0.8,0,0.9-0.2
		C331.3,352,330.6,343.6,329.5,335.6z"/>
	<path class="st5" d="M144.9,324.6c-7.9-12.5-18.8-23.1-27-35.5c-9.1-13.8-14.5-28.8-19.2-44.5c-10.3-34.5-16.6-69.9-16.1-106
		c0-0.5-1.4-0.2-1.4,0.3c-4.6,34.7,3.4,69.3,13.5,102.3c9.4,30.7,24.1,62.5,48.9,84C143.8,325.3,145.1,324.9,144.9,324.6z"/>
	<path class="st5" d="M445.5,137.9c0-1-3.3,0-3.5,0.9c-5.6,34.9-5.3,70.7-14.7,105c-4.7,17.1-14.9,34-23.8,49.1
		c-9.8,16.8-23.9,28.8-39.3,40.1c-1.3,1,0.8,0.9,1.5,0.5c29.6-18.1,46.7-47.3,61.4-78.3c8.4-17.6,10.2-38,12.9-57.1
		C442.8,178.5,446.1,157.9,445.5,137.9z"/>
	<path class="st6" d="M97.8,238c-5.2-15.5-7.2-31.8-12.3-47.2c-0.1-0.4-1.4,0-1.4,0.4c0.6,14.6,5.7,29.4,10,43.3
		c4.8,15.6,10.8,30.8,18.3,45.3c0.2,0.4,1.6-0.1,1.4-0.5C108,265.7,102.5,252,97.8,238z"/>
	<path class="st6" d="M442.5,177c-0.1-0.9-2.9,0-3,0.8c-2.9,20.8-5.6,41.2-10.7,61.6c-5.2,21-16,38.7-26,57.5
		c-0.4,0.8,1.5,0.3,1.8-0.1c11.9-16.6,21.2-34.2,27.1-53.9C437.6,223,445.1,197.9,442.5,177z"/>
	<path class="st8" d="M437.8,212.4c-0.2-0.4-0.8-0.1-1.1,0c-0.1,0-0.2,0.1-0.2,0.1c-0.2,0.1-0.5,0.3-0.5,0.5c0,0.1,0,0.1,0.1,0.2
		c0.1,0.2,0.3,0.2,0.7,0.2c-1.2,2-3,6.9-2.9,6.7c-0.8,2.8-1.7,5.6-2.6,8.4c-1.7,5.4-4.1,10.5-6,15.7c-0.5,1.3,3.4,0.2,3.9-0.5
		c3.4-5.1,5.6-10.4,7.4-16.3C437.8,223.3,440,216.6,437.8,212.4z"/>
	<path class="st8" d="M93.3,219.5c-1.5-5.8-2.4-11.9-5.3-17.1c-0.3-0.5-1.6-0.1-1.7,0.4c-1.3,11.2,3.2,25.3,8.1,35.3
		c0.4,0.7,2.5,0,2.4-0.8C96.1,231.2,94.8,225.4,93.3,219.5z"/>
	<path class="st7" d="M342.7,340.2c-0.1-0.4-1.4,0-1.4,0.4c0.1,0.9,0.1,1.9,0.1,2.8c0,0.5,1.8,0.1,1.8-0.5
		C343.2,342,343.1,341.1,342.7,340.2z"/>
</g>
<g>
	<path class="st1" d="M314.9,173.6c-6.8-6.3-15.9-10-25.2-10.1c-17.4-0.3-34,12.9-37.5,29.7s6.6,35.3,22.7,41.7
		c16.1,6.5,36.4,0.1,45.8-14.3S327.5,185.4,314.9,173.6z"/>
	<path class="st1" d="M296.3,155.8c-2-2.8-5.2-3-8.3-2.4c-3.1,0.6-6.2,2.8-7.6,5.6c-1.3,2.5-1.7,7,0.4,9.1c0.8,0.8,3-0.4,3.3-1.2
		c0.7-1.9,0.4-3.9,0.7-5.8c0.2-1.2,0.6-2.3,1.3-3.3c0.6-1,0.8-1.2,1.6-0.9c1.6,0.5,2.5,2.3,3,3.8c0.7,2,0,4.4,1.6,5.9
		c1.1,1,3.9-0.4,4.6-1.4C298.9,162.5,298.2,158.4,296.3,155.8z"/>
	<path class="st1" d="M291.6,143.9c-0.3-0.1-0.6-0.2-1-0.4c-1.2-0.5-3.1,0.4-4,1.2c-0.8,0.7-1.7,1.4-1.7,2.5l0.2,4
		c0.1,2.4-0.1,6.4,2.2,7.6c0.7,0.4,2,0,2.5-0.6c3-3.3,2.4-9.1,2.6-13.3C292.5,144.3,292.2,144.1,291.6,143.9z"/>
	<path class="st1" d="M297.5,45.1c-5.6-1.2-11.9-1.7-17.3,0.4c-4.8,31.8-3.5,67.7,2.2,100.3c4,1.1,8.2,1.1,12.2,0
		C300.7,112.7,302.4,78.5,297.5,45.1z"/>
	<g>
		<g>
			<path class="st7" d="M261.6,184.3c-4.1,7.2-5.1,16.3-3,24.4c2.9,11.5,12.1,20.8,22.9,23.1c9.1,2,18.7-0.8,26.6-6.1
				c8.2-5.5,12.5-14.5,12.1-25c-0.3-7.1-2-14.8-6.7-19.9c-7.1-7.8-16.3-11.9-26.4-11.8C277,169.3,266.9,174.9,261.6,184.3z"/>
			<path class="st9" d="M263.7,185.5c-3.8,6.7-4.7,15.1-2.8,22.6c2.7,10.6,11.2,19.2,21.2,21.4c8.4,1.8,17.3-0.7,24.6-5.6
				c7.6-5.1,11.5-13.4,11.2-23.1c-0.2-6.6-1.9-13.7-6.2-18.4c-6.6-7.2-15.1-11-24.4-10.9C277.9,171.7,268.6,176.9,263.7,185.5z"/>
			<path class="st10" d="M282.9,192.3c-4.4,2.7-6.1,9.5-3.4,13.9c2.7,4.4,9,6.2,13.6,3.9c4.6-2.4,6.9-8.5,4.8-13.3
				C295.9,192,289.2,188.5,282.9,192.3z"/>
			<path class="st11" d="M282.1,190.2c-3.1-3.4-6.9-7.6-10-11c-6.5,4.7-10.5,12.8-10.4,20.8c4.8,0.4,9.7,0.4,14.3,0.4
				C276.4,196,279,192.5,282.1,190.2z"/>
			<path class="st11" d="M296,190.2c2.5-3,5.9-7.6,9-11c6.5,4.7,10.5,12.8,10.4,20.8c-4.8,0.4-9.3,0.4-14.3,0.4
				C300.8,196,299.2,193.3,296,190.2z"/>
			<path class="st11" d="M275.2,177.5c2.8,3.8,6.5,9.5,8.5,11.8c3.5-1.6,6.6-2,10.5,0.3c2.3-3.8,7.1-9.6,8.4-11.8
				C293.8,173.2,283.4,172.9,275.2,177.5z"/>
			<path class="st12" d="M295.1,212.1c3.1,3.4,6.9,7.6,10,11c6.5-4.7,10.5-12.8,10.4-20.8c-4.8-0.4-10.2-0.1-14.4-0.1
				C300.8,206.5,298.2,209.8,295.1,212.1z"/>
			<path class="st11" d="M281.6,211.7c-3,3.6-5.8,8-8.8,11.2c-6.5-4.7-11.3-12.6-11.2-20.7c4.8-0.4,9.7,0.1,14.4,0
				C276.4,206.7,278.2,209.4,281.6,211.7z"/>
			<path class="st12" d="M302,224.8c-2.8-3.8-6.5-9.5-8.5-11.8c-3.5,1.6-6.6,2-10.5-0.3c-2.3,3.8-7.1,9.6-8.4,11.8
				C283.4,229.1,293.8,229.4,302,224.8z"/>
			<path class="st4" d="M280.2,198.7c3.3-1.9,6.5-3.8,9.8-5.7c0.9-0.5,1.8-1,2.7-0.9c0.6,0,1.1,0.3,1.6,0.5c1.5,0.8,2.7,2.1,3.5,3.6
				c-6.4,2.6-12.7,5.2-19.1,7.7c-0.5-1.2-0.9-2.5-0.4-3.6C278.7,199.5,279.5,199.1,280.2,198.7z"/>
			<path class="st4" d="M279.9,207.2c1.4,1.3,3,2.4,4.7,3.2c4.9-3.3,9.6-6.9,14.1-10.9c-0.1-0.5-0.2-0.9-0.3-1.4
				C292.1,200.9,285.9,203.9,279.9,207.2z"/>
			<path class="st13" d="M273,212c12.9-7.4,25.9-14.9,38.8-22.3c-4.6-6.6-12.1-11.2-20.1-12s-16.4,2.3-21.6,8.4
				c-5.2,6.1-7.1,15-4.3,22.6c0.8,2.1,2.4,4.4,4.6,4.3C271.4,212.9,272.2,212.4,273,212z"/>
			<path class="st13" d="M305.6,214.5c1.1-1.8,1.9-3.9,1.4-5.9c-0.4-2-2.6-3.8-4.6-3.1c-1,0.3-1.7,1.1-2.5,1.8
				c-5.1,4.7-12.9,4.7-19.2,7.5c-2.2,1-4.5,2.8-4.4,5.2c0.2,2.4,2.8,3.9,5.1,4.5C290.6,226.8,300.9,222.5,305.6,214.5z"/>
			<path class="st14" d="M275.1,185.1c-5,5.7-7.4,13.6-6.4,21.2c0.6,4.5,3.1,9.3,7.5,10.4c3.7,0.9,7.5-1.3,10.3-3.9
				c4.7-4.4,7.9-10.4,8.9-16.7c0.5-3.1,0.5-6.3-0.5-9.3c-1-3-3.3-5.6-6.2-6.6C283.9,178.3,278.5,181.2,275.1,185.1z"/>
		</g>
	</g>
	<path class="st1" d="M291.6,167.7c-0.2-1-0.7-1.7-1.7-2c-0.6-0.2-1.5,0.2-2,0.6c-1.7,1.5-2.2,3.9-1.5,6.1c0.2,0.8,1.7,0.5,2.3,0.4
		c1-0.2,2.6-0.8,2.9-1.9C291.7,169.7,291.8,168.8,291.6,167.7z"/>
	<path class="st1" d="M264,198.7c0.2-0.9-2.1-1-2.5-1.1c-1.7-0.1-3.5,0.1-5.1,0.7c-0.8,0.3-2.2,0.9-2.1,2c0.1,1,1.8,1.2,2.6,1.3
		c1.9,0.3,3.7,0,5.3-0.8c0.5-0.2,0.9-0.5,1.2-0.8c0.1-0.1,0.3-0.3,0.4-0.4C264,199.3,264.1,199,264,198.7z"/>
	<path class="st1" d="M292.8,231.2c-0.6-1-1.1-1.8-2.2-2.3c-0.8-0.3-2.3,0.3-2.8,1c-0.7,1-0.7,1.9-0.7,3c0,1.1,0.2,2,1.2,2.6
		c1.2,0.7,3.8-0.1,4.5-1.3C293.3,233.1,293.5,232.2,292.8,231.2z"/>
	<path class="st7" d="M379.7,60.6c-0.2,2.5,0.1,4.5,0.8,6.9c-10,0.7-20.1,0.9-30.1,0.7c0.3-1.6,0.8-4.8,1-6.4
		C361,60.9,370,60.6,379.7,60.6z"/>
	<path class="st1" d="M322.9,198c-1.2-0.5-2.9-0.1-4.2,0.2c-0.7,0.1-1.5,0.5-2.1,0.9c-0.3,0.2-1.3,1-1,1.5c0.5,0.9,1.3,1.3,2.3,1.3
		c1.5,0.1,3.1-0.5,4.4-1.3C323.3,199.9,324.5,198.6,322.9,198z"/>
	<path class="st7" d="M408.5,220.6c-8.7,14.4-27.6,20.7-42.5,14.3c-8.1-3.5-14.5-10.5-18.2-18.8h0c-3.2-7.1-4.4-15.2-2.9-22.9
		c1.1-5.6,3.5-10.8,6.9-15.2c6.7-8.9,17.2-14.7,27.9-14.5c8.6,0.1,17.2,3.8,23.4,10.1C414.9,185.4,417.3,206.2,408.5,220.6z"/>
	<path class="st1" d="M408.5,173.6c-6.3-6.3-14.8-10-23.4-10.1c-16.1-0.3-31.6,12.9-34.8,29.7c-3.2,16.8,6.1,35.3,21.1,41.7
		c14.9,6.5,33.8,0.1,42.6-14.3C422.7,206.2,420.3,185.4,408.5,173.6z"/>
	<path class="st1" d="M391.8,155.8c-2-2.8-5.2-3-8.3-2.4c-3.1,0.6-6.2,2.8-7.6,5.6c-1.3,2.5-1.7,7,0.4,9.1c0.8,0.8,3-0.4,3.3-1.2
		c0.7-1.9,0.4-3.9,0.7-5.8c0.2-1.2,0.6-2.3,1.3-3.3c0.6-1,0.8-1.2,1.6-0.9c1.6,0.5,2.5,2.3,3,3.8c0.7,2,0,4.4,1.6,5.9
		c1.1,1,3.9-0.4,4.6-1.4C394.4,162.5,393.7,158.4,391.8,155.8z"/>
	<path class="st1" d="M387.1,143.9c-0.3-0.1-0.6-0.2-1-0.4c-1.2-0.5-3.1,0.4-4,1.2c-0.8,0.7-1.7,1.4-1.7,2.5l0.2,4
		c0.1,2.4-0.1,6.4,2.2,7.6c0.7,0.4,2,0,2.5-0.6c3-3.3,2.4-9.1,2.6-13.3C388,144.3,387.7,144.1,387.1,143.9z"/>
	<path class="st1" d="M393.1,45.1c-5.6-1.2-11.9-1.7-17.3,0.4c-2.2,31.1-1.1,67,2.2,100.3c4,1.1,8.2,1.1,12.2,0
		C396.2,112.7,397.9,78.5,393.1,45.1z"/>
	<g>
		<g>
			<path class="st7" d="M359.2,183.9c-3.8,7.2-4.7,16.3-2.8,24.4c2.7,11.5,11.3,20.8,21.3,23.1c8.5,2,17.4-0.8,24.7-6.1
				c7.6-5.5,11.6-14.5,11.2-25c-0.3-7.1-1.9-14.8-6.2-19.9c-6.6-7.8-15.1-11.9-24.5-11.8C373.6,168.9,364.2,174.5,359.2,183.9z"/>
			<path class="st9" d="M360.1,185.1c-3.6,6.7-4.5,15.1-2.6,22.6c2.6,10.6,10.7,19.2,20.1,21.4c8,1.8,16.4-0.7,23.4-5.6
				c7.2-5.1,10.9-13.4,10.6-23.1c-0.2-6.6-1.8-13.7-5.9-18.4c-6.3-7.2-14.3-11-23.2-10.9C373.6,171.3,364.7,176.5,360.1,185.1z"/>
			<path class="st10" d="M378.4,191.8c-4.2,2.7-5.8,9.5-3.2,13.9c2.6,4.4,8.6,6.2,13,3.9c4.4-2.4,6.5-8.5,4.6-13.3
				C390.7,191.5,384.3,188.1,378.4,191.8z"/>
			<path class="st11" d="M377.6,189.8c-3-3.4-6.6-7.6-9.5-11c-6.2,4.7-10,12.8-9.9,20.8c4.5,0.4,9.2,0.4,13.6,0.4
				C372.2,195.6,374.7,192,377.6,189.8z"/>
			<path class="st11" d="M390.8,189.8c2.4-3,5.6-7.6,8.6-11c6.2,4.7,10,12.8,9.9,20.8c-4.5,0.4-8.9,0.4-13.6,0.4
				C395.4,195.6,393.8,192.9,390.8,189.8z"/>
			<path class="st11" d="M371.1,177.1c2.6,3.8,6.2,9.5,8.1,11.8c3.3-1.6,6.2-2,9.9,0.3c2.2-3.8,6.7-9.6,8-11.8
				C388.7,172.8,378.8,172.4,371.1,177.1z"/>
			<path class="st12" d="M389.9,211.7c3,3.4,6.6,7.6,9.5,11c6.2-4.7,10-12.8,9.9-20.8c-4.5-0.4-9.7-0.1-13.6-0.1
				C395.4,206.1,392.9,209.4,389.9,211.7z"/>
			<path class="st11" d="M377.2,211.3c-2.8,3.6-5.5,8-8.3,11.2c-6.2-4.7-10.7-12.6-10.6-20.7c4.5-0.4,9.2,0.1,13.6,0
				C372.2,206.2,373.9,209,377.2,211.3z"/>
			<path class="st12" d="M396.5,224.4c-2.6-3.8-6.2-9.5-8.1-11.8c-3.3,1.6-6.2,2-9.9-0.3c-2.2,3.8-6.7,9.6-8,11.8
				C378.8,228.7,388.7,229,396.5,224.4z"/>
			<path class="st4" d="M375.8,198.2c3.1-1.9,6.2-3.8,9.3-5.7c0.8-0.5,1.7-1,2.6-0.9c0.5,0,1.1,0.3,1.5,0.5c1.4,0.8,2.6,2.1,3.3,3.6
				c-6,2.6-12.1,5.2-18.1,7.7c-0.5-1.2-0.9-2.5-0.3-3.6C374.4,199.1,375.1,198.7,375.8,198.2z"/>
			<path class="st4" d="M375.5,206.8c1.3,1.3,2.8,2.4,4.4,3.2c4.7-3.3,9.1-6.9,13.4-10.9c-0.1-0.5-0.2-0.9-0.3-1.4
				C387.1,200.5,381.2,203.5,375.5,206.8z"/>
			<path class="st13" d="M369,211.5c12.3-7.4,24.6-14.9,36.9-22.3c-4.4-6.6-11.5-11.2-19.1-12c-7.6-0.8-15.5,2.3-20.5,8.4
				c-5,6.1-6.7,15-4.1,22.6c0.7,2.1,2.3,4.4,4.4,4.3C367.4,212.5,368.2,212,369,211.5z"/>
			<path class="st13" d="M400,214.1c1-1.8,1.8-3.9,1.4-5.9c-0.4-2-2.5-3.8-4.4-3.1c-0.9,0.3-1.6,1.1-2.3,1.8
				c-4.8,4.7-12.2,4.7-18.2,7.5c-2.1,1-4.3,2.8-4.2,5.2c0.2,2.4,2.6,3.9,4.9,4.5C385.6,226.3,395.4,222.1,400,214.1z"/>
			<path class="st14" d="M370.9,184.7c-4.8,5.7-7.1,13.6-6,21.2c0.6,4.5,2.9,9.3,7.1,10.4c3.5,0.9,7.1-1.3,9.8-3.9
				c4.4-4.4,7.5-10.4,8.5-16.7c0.5-3.1,0.5-6.3-0.5-9.3s-3.1-5.6-5.9-6.6C379.3,177.9,374.2,180.8,370.9,184.7z"/>
		</g>
	</g>
	<path class="st1" d="M386.9,167.7c-0.2-1-0.7-1.7-1.6-2c-0.6-0.2-1.4,0.2-1.8,0.6c-1.5,1.5-2,3.9-1.4,6.1c0.2,0.8,1.6,0.5,2.1,0.4
		c0.9-0.2,2.4-0.8,2.7-1.9C387.1,169.7,387.1,168.8,386.9,167.7z"/>
	<path class="st1" d="M361.3,198.7c0.2-0.9-1.9-1-2.4-1.1c-1.6-0.1-3.2,0.1-4.7,0.7c-0.7,0.3-2,0.9-1.9,2c0.1,1,1.7,1.2,2.4,1.3
		c1.7,0.3,3.4,0,5-0.8c0.4-0.2,0.8-0.5,1.2-0.8c0.1-0.1,0.2-0.3,0.4-0.4C361.3,199.3,361.4,199,361.3,198.7z"/>
	<path class="st1" d="M388.1,231.2c-0.6-1-1-1.8-2.1-2.3c-0.8-0.3-2.1,0.3-2.6,1c-0.6,1-0.6,1.9-0.7,3c0,1.1,0.1,2,1.1,2.6
		c1.1,0.7,3.5-0.1,4.1-1.3C388.5,233.1,388.7,232.2,388.1,231.2z"/>
	<path class="st1" d="M416,198c-1.2-0.5-2.7-0.1-3.9,0.2c-0.7,0.1-1.4,0.5-1.9,0.9c-0.3,0.2-1.2,1-0.9,1.5c0.5,0.9,1.2,1.3,2.2,1.3
		c1.4,0.1,2.9-0.5,4.1-1.3C416.3,199.9,417.4,198.6,416,198z"/>
	<path class="st1" d="M380.9,144c0.1-1.9,0.2-8.1,0.3-10c-6.4,6.3-21.9,5.5-23.2,4.2c-1.7-1.5-1.1-53.6-1.6-76.1
		c-0.1-4.8-6.7-16-15.9-18.1c-2.2-0.5-6.1,1.3-7.1,3.3c-1.3,2.6,7.6,12.8,9,15.4c1.8,3.3,1.4,75.6,5.2,78.9
		C354,147.2,374,146.1,380.9,144z"/>
	<path class="st5" d="M289.7,152.1c-0.2-1.3-0.2-2.7-0.6-3.9c-0.2-0.6-1.2-0.4-1.9,0c0,0-0.1,0-0.3,0.1c-0.2,0.1-0.4,0.3-0.5,0.6
		c-0.4,0.9-0.5,1.7-0.6,2.7c-0.1,1.4-0.1,3.5,1.2,4.3c0.7,0.4,2.1,0,2.5-0.6C290.1,154.1,289.9,153.2,289.7,152.1z"/>
	<path class="st5" d="M283.8,156.9c-1.1,0.9-1.9,1.7-2.5,3c-0.5,1.2-0.6,2.4,0.1,3.5c0.4,0.6,2,0.1,2.1-0.6c0.3-1,0.4-2.1,0.6-3.1
		c0.1-0.5,0.2-0.9,0.3-1.4c0.1-0.4,0.1-1.1,0.3-1.5C284.8,156.5,283.9,156.8,283.8,156.9z"/>
	<path class="st5" d="M292.6,155.1c-0.3,0-0.7,0.1-0.8,0.4c-0.5,1.1,0.3,2.3,0.7,3.3c0.5,1.2,0.9,2.3,1.8,3.3
		c0.5,0.6,2.3-0.2,2.5-0.8C297.6,158.7,295.3,155.4,292.6,155.1z"/>
	<path class="st5" d="M289.2,169.2c0-0.4-0.5-1.1-0.3-1.5c0.1-0.3-0.8-0.1-0.9,0.2c-0.2,0.5-0.9,1.1-1.2,1.6c-0.4,0.5-0.7,1-0.8,1.6
		c0,0.3,0.1,0.4,0.3,0.5c1,0.4,2.4-0.2,2.8-1.1C289.3,169.9,289.3,169.6,289.2,169.2z"/>
	<path class="st5" d="M260.4,198.8c-0.9,0.1-1.7,0.4-2.4,0.8c-0.5,0.3-0.7,0.8,0,1c1.1,0.2,3.2,0.1,3.9-0.9
		C262.5,198.8,260.8,198.7,260.4,198.8z"/>
	<path class="st5" d="M291.1,231.1c-0.1-0.5-0.4-1-0.8-1.4c-0.4-0.4-1.5,0-1.8,0.5c-0.5,0.9-0.9,2.3,0,3.1c0.5,0.5,2-0.1,2.3-0.6
		C291.2,232.1,291.2,231.7,291.1,231.1z"/>
	<path class="st5" d="M320.3,198.7c-1,0-2.3,0.3-3,1c-0.1,0.1-0.3,0.3-0.2,0.5c0,0,0,0,0,0c0.1,0.2,0.4,0.3,0.6,0.3
		c0.8,0.1,1.5,0,2.3-0.2c0.5-0.1,1.3-0.5,1.4-1.1C321.5,198.7,320.7,198.7,320.3,198.7z"/>
	<path class="st5" d="M358.7,198.7c-0.6-0.1-1.2,0.1-1.8,0.2c-0.1,0-0.2,0.1-0.3,0.1c-0.5,0.2-0.6,0.2-0.3,0.1
		c-0.1,0-0.2,0.1-0.3,0.1c-0.1,0.1-0.3,0.2-0.4,0.3c-0.2,0.2-0.7,0.5-0.6,0.9c0.1,0.4,0.7,0.4,1,0.3c1,0,1.9-0.3,2.8-0.8
		C359.3,199.5,359.6,198.8,358.7,198.7z"/>
	<path class="st5" d="M385.4,169.8c0-0.2,0-0.4-0.1-0.7c-0.1-0.3-0.7-0.5-0.5-0.9c0-0.1-0.3,0-0.4,0c-0.2,0.4-0.5,0.5-0.9,0.8
		c-0.4,0.3-0.7,0.7-1,1.1c-0.4,0.6-0.7,1.5,0,2c0.7,0.5,2-0.1,2.4-0.6C385.3,171.1,385.5,170.5,385.4,169.8z"/>
	<path class="st5" d="M379.5,157.8c-1.3,0.7-5.4,4.3-2.7,5.5c0.7,0.3,2.1-0.2,2.4-0.8c0.5-0.8,0.5-1.7,0.8-2.6
		c0.2-0.7,1-1.2,1.1-1.9C381.2,157.2,379.8,157.6,379.5,157.8z"/>
	<path class="st5" d="M392.2,158.6c-0.5-0.9-1-1.9-1.9-2.6c-0.6-0.4-2.4,0-2.5,0.8c-0.2,0.9,0.1,1.8,0.4,2.7
		c0.4,1.1,0.7,1.9,1.9,2.4c0.6,0.2,2-0.1,2.4-0.8C392.9,160.2,392.7,159.6,392.2,158.6z"/>
	<path class="st5" d="M385.8,150.3c-0.1-0.8-0.3-2.8-1.6-2c-1.6,1-1.9,2.4-2.2,4.2c-0.3,1.5-0.3,3.4,0.9,4.5c0.5,0.5,2-0.1,2.3-0.6
		C386.1,154.6,386,152.3,385.8,150.3z"/>
	<path class="st5" d="M413.9,198.8c-1.2,0.1-2.4,0.5-3.4,1.2c-0.3,0.2-0.5,0.8,0,0.9c1.1,0.3,2.4,0,3.4-0.5c0.4-0.2,1-0.5,1.1-1
		C415.2,198.8,414.3,198.8,413.9,198.8z"/>
	<path class="st5" d="M386.6,231.1c-0.1-0.7-0.8-1.3-1.5-0.9c-0.9,0.6-1.3,1.2-1.6,2.2c-0.2,1,0.2,1.9,1.1,2.3
		c0.6,0.2,1.8-0.1,2.1-0.7C387.2,233,386.8,232,386.6,231.1z"/>
	<path class="st5" d="M290.7,142.6c2.7-31.3,2.5-62.8-0.4-94.1c-2.7-0.2-5.4-0.3-8.1-0.5c-1.5,31.6-0.2,63.4,3.8,94.8
		C287.7,142.7,289.2,142.7,290.7,142.6z"/>
	<path class="st5" d="M389,48.2c-2.8-0.3-5.7-0.6-8.5-0.9c-3.5,31.7-3.4,63.8,0.2,95.5c2.1-0.1,4.2-0.2,6.4-0.3
		C390.4,111.2,391.1,79.6,389,48.2z"/>
	<path class="st1" d="M372.6,65.2c0.1-1,0.1-2.1,0.2-3.1c-4.9-0.1-9.9,0.2-14.8,0.8c-0.1,1.1-0.1,2.1-0.2,3.2
		C362.8,65.8,367.7,65.5,372.6,65.2z"/>
	<path class="st5" d="M341.4,46.1c-1.2-0.5-3-0.7-3.7,0.4c-0.7,1.1,0.1,2.5,0.9,3.6c1.3,1.7,2.7,3.3,4.1,4.9
		c1.4,1.6,2.8,3.1,4.5,4.3c1.7,1.2,3.8,2,5.9,1.8c0.6-2-0.5-4-1.6-5.7C348.9,51.6,345.7,47.9,341.4,46.1z"/>
	<path class="st5" d="M345.9,64.5c0.4,25.1,2,50.1,4.6,75c1.3,0,2.6,0,3.9,0c-1.6-24.9-1.7-49.9-0.3-74.8
		C351.3,64.7,348.6,64.6,345.9,64.5z"/>
	<path class="st5" d="M376.7,138c-2.5,0.8-4.9,1.9-7.5,2.5c-3.4,0.7-6.8,0.4-10.1-0.3c-0.7-0.1-3.5,1.3-2.2,1.6
		c6.4,1.8,15.8,1.5,21-3.2C378.8,137.9,377.1,137.9,376.7,138z"/>
	<path class="st5" d="M284.4,165.7c-10.6,0.4-20.7,9.2-26.3,17.5c-6.9,10.1-8.5,28.3,1.6,36.9c0.2,0.2,1.3-0.1,1.2-0.5
		c-1.2-4.4-3.1-8.5-4-13.1c-1.2-6-0.2-12.3,1.8-18c4.2-12.4,15-17,25.8-22.1C285,166.3,285.2,165.7,284.4,165.7z"/>
	<path class="st5" d="M319.8,213.8c-3.7,5.7-7,10.8-12.7,14.8c-6.8,4.9-14.5,4.8-22.3,6.1c-0.1,0-0.6,0.2-0.3,0.3
		c6.6,3.4,16.9-1,22.9-4.1c6.7-3.6,13.5-10.2,15.8-17.6C323.5,212.2,320.2,213.2,319.8,213.8z"/>
	<path class="st5" d="M317.7,179.4c-2.7-3.5-6-5-9.7-7c-0.2-0.1-0.9,0.2-0.7,0.3c2.4,1.5,4.5,4.4,6.3,6.6c2.4,3,3.8,6.4,5.5,9.8
		c0.5,0.9,3.3,0,3.1-1C321.6,184.8,319.7,182,317.7,179.4z"/>
	<path class="st5" d="M380.2,165.4c-16.9,2.2-34.4,23.5-28.7,40.6c0.3,0.8,2.6,0,2.7-0.7c1.1-8.2,1.3-15.2,5.4-22.7
		c4.6-8.4,12.4-12.3,20.6-16.3C380.8,166,381.2,165.2,380.2,165.4z"/>
	<path class="st5" d="M369,228.7c-1.9-2.2-4.2-4.1-6.2-6.2c-2.2-2.5-3.8-6-6.7-7.7c-0.2-0.1-0.8,0-0.8,0.3c-0.6,3.1,1.9,6,3.8,8.3
		c2.2,2.7,4.9,5.1,8.1,6.5C367.5,229.9,369.5,229.4,369,228.7z"/>
	<path class="st5" d="M418,202.4c-0.2-0.5-1.4,0.1-1.6,0.4c-2.4,6.5-3.6,12.7-7.7,18.5c-4.5,6.4-11.2,9-18.2,11.6
		c-0.8,0.3-2,1.5-0.3,1.4C403.7,233.4,422.2,217.2,418,202.4z"/>
	<path class="st5" d="M412.3,181.8c-0.8-2.3-2.9-4-4.5-5.7c-1.9-1.8-3.9-3.4-6.2-4.5c-0.2-0.1-1.5,0.2-1.3,0.6
		c1.2,1.7,2.7,3.2,4.2,4.7c1.8,1.9,3.4,4.2,5.6,5.7C410.5,183,412.6,182.6,412.3,181.8z"/>
	<path class="st1" d="M352.6,214.7c-1.2,0.3-3.6,1.1-4.8,1.4h0c-3.2-7.1-4.4-15.2-2.9-22.9c1.1-5.6,3.5-10.8,6.9-15.2
		c1.6,0.5,3.2,0.9,4.8,1.4c-4,4.8-5.9,10.9-6.4,17.1C349.6,202.6,350.8,208.5,352.6,214.7z"/>
	<path class="st6" d="M286,93.5c-0.6-14.6,0.1-29.1-0.4-43.7c0-0.9-3.1-0.1-3.2,0.8c-1.6,13.6-1.2,27.6-0.7,41.3
		c0.5,14.2,0.8,29.7,4.5,43.4c0.2,0.8,2.7,0,2.7-0.7C288.8,121,286.6,107.2,286,93.5z"/>
	<path class="st6" d="M382.3,71.2c0.3-6.5,1.9-13.5,0.8-20c-0.1-0.7-1.8,0.1-2,0.5c-4.4,12.1-3.6,27.7-3.8,40.5
		c-0.2,13.1-0.7,27.6,2.2,40.4c0.2,0.8,2.8,0,2.8-0.7c0.7-13.4-1-27-0.8-40.5C381.7,84.7,381.9,77.9,382.3,71.2z"/>
	<path class="st6" d="M346.6,56.2c-1-2.1-2.2-4-3.6-5.8c-1.5-1.9-2.7-4.2-5.1-5c-0.2-0.1-0.9,0.1-0.9,0.4c-0.5,2.2,1.4,4.2,2.5,6
		c1.3,2,2.6,3.9,4.3,5.6C344.3,57.8,347,57,346.6,56.2z"/>
	<path class="st6" d="M350.3,91.8c-0.3-8.1-0.1-17.3-3-25c-0.1-0.3-1,0-1,0.3c-1,6.6,0,13.5,0.3,20.2c0.4,8.4,0.4,16.9,1.1,25.3
		c0.1,0.8,2.6,0.1,2.7-0.7C350.8,105.2,350.6,98.5,350.3,91.8z"/>
	<path class="st6" d="M384.2,147.6c-0.1-0.3-0.8,0-0.9,0.2c-1.3,2.4-1.8,5.5-0.6,8c0.3,0.7,2.2,0,2.2-0.6
		C385,152.8,384.9,149.9,384.2,147.6z"/>
	<path class="st6" d="M379.1,158c-0.2-0.2-0.5,0-0.7,0c-1.5,0.7-2.9,2.4-2.6,4.1c0.1,0.7,1.9-0.1,2.1-0.4c0.4-0.7,0.8-1.3,1.1-2.1
		C379.2,159.2,379.6,158.5,379.1,158z"/>
	<path class="st6" d="M373.5,167.7c-9.6,3.4-20.1,13.3-20.4,24.1c0,0.7,1.5,0.1,1.7-0.3c2.1-4.7,3.9-9.4,7-13.6
		c3.1-4.2,7.5-7.3,12-9.9C374.4,167.8,373.8,167.6,373.5,167.7z"/>
	<path class="st6" d="M385.2,167.4c-0.2-0.8-2.6,0-2.7,0.7c-0.1,0.9-0.1,1.8,0.5,2.5c0.5,0.6,2-0.2,2.2-0.7
		C385.6,169,385.4,168.2,385.2,167.4z"/>
	<path class="st6" d="M412.9,182.3c-1.3-2.4-3.3-4-5.2-5.9c-0.2-0.2-1.2,0.1-0.9,0.4c3.2,3.9,4.7,9.6,6.3,14.3
		c0.3,0.7,2.3,0,2.3-0.7C415.2,187.4,414.3,184.8,412.9,182.3z"/>
	<path class="st6" d="M415.4,198.7c-0.9-0.8-3.4,0.1-3.9,1c-0.3,0.6,0.5,0.5,0.9,0.5c0.7-0.1,1.5-0.2,2.2-0.5
		C414.7,199.6,415.8,199.1,415.4,198.7z"/>
	<path class="st6" d="M411.5,218.1c-1.8,1.9-3.2,4-5,5.8c-1.8,1.8-3.8,3.4-5.9,4.6c-1.1,0.6,0.5,0.8,1,0.5c2.4-1.2,4.7-2.6,6.6-4.5
		c1.8-1.7,3.9-4,4.3-6.6C412.5,217.7,411.6,218,411.5,218.1z"/>
	<path class="st6" d="M385.4,230.3c0-0.4-1.5,0-1.6,0.4c-0.1,0.6-0.3,1.2-0.4,1.7c-0.1,0.6-0.1,1.2,0,1.8c0.1,0.6,1.8,0,1.9-0.5
		c0.1-0.5,0.3-1.1,0.2-1.6C385.6,231.5,385.4,230.9,385.4,230.3z"/>
	<path class="st6" d="M279.4,167.7c-3.9,0.9-7.4,3-10.5,5.4c-3.5,2.7-8,6.5-9.5,10.8c-0.3,0.8,1.8,0.1,2-0.1c2.7-3,5-6.2,8-8.9
		c3.1-2.8,6.8-4.5,10.2-6.7C280,167.8,279.7,167.6,279.4,167.7z"/>
	<path class="st6" d="M283.3,157.9c-0.5,0.7-1.1,1.4-1.5,2.2c-0.3,0.6-1.1,1.4-0.5,2c0.3,0.4,1.3,0,1.6-0.2c1.4-0.9,1.7-2.6,2-4.2
		C285,157,283.5,157.6,283.3,157.9z"/>
	<path class="st6" d="M287.7,150.6c-0.6,1.2-0.9,2.3-0.4,3.6c0.2,0.5,1.7,0,1.7-0.4c0-0.5,0.1-1.1,0.1-1.6c0-0.6,0-1.2,0.1-1.8
		C289.3,149.8,287.9,150.3,287.7,150.6z"/>
	<path class="st6" d="M293.1,158.9c-0.2-0.5-1.7,0-1.6,0.5c0.1,0.9,0.2,1.6,0.5,2.4c0.2,0.5,1.7,0,1.6-0.5
		C293.6,160.5,293.4,159.7,293.1,158.9z"/>
	<path class="st6" d="M288.9,167.5c-0.2-0.7-1.9,0-2,0.5c-0.2,1-0.9,2.7-0.3,3.6c0.5,0.7,2.2,0.1,2.5-0.5
		C289.6,170,289.2,168.7,288.9,167.5z"/>
	<path class="st6" d="M315.7,177.9c-0.2-0.2-1.2,0.1-1,0.4c1.8,3,3.3,6.4,4.5,9.7c1.5,3.8,1.8,7.9,3,11.7c0.2,0.5,1.6,0,1.7-0.4
		C325.5,191.3,321.2,183.3,315.7,177.9z"/>
	<path class="st6" d="M320,199.1c-0.9,0-1.9,0.4-2.7,0.8c-0.5,0.3-0.3,0.6,0.2,0.6c0.9,0,1.9-0.3,2.7-0.8
		C320.7,199.4,320.5,199.1,320,199.1z"/>
	<path class="st6" d="M315.5,222.8c-6.6,4.6-13,7.6-20.5,10.4c-0.3,0.1-0.8,0.6-0.1,0.6c7.9-0.8,16.5-5.2,22.1-10.7
		C317.8,222.3,315.9,222.6,315.5,222.8z"/>
	<path class="st6" d="M268.3,226.7c-6.7-7.5-10.9-15.8-11.6-25.9c0-0.4-1.5,0-1.6,0.4c-0.4,10.1,3.5,20,11.6,26.3
		C267.1,227.8,268.8,227.2,268.3,226.7z"/>
	<path class="st8" d="M286.4,68.3c0-2.2-0.1-4.3-0.3-6.5c0-0.2-0.2-0.3-0.4-0.3c-0.1-0.7-0.2-1.4-0.3-2.1c-0.1-0.7-2.3,0-2.4,0.6
		c-2.6,15.2-0.8,32.4,1.1,47.7c0.1,1,3.6,0.1,3.5-1.1C287,94,287.4,80.9,286.4,68.3z"/>
	<path class="st8" d="M295.2,70.1c-1.7-0.4-3.3-0.2-5-0.1c-2,0.1-4,0.2-5.9,0.7c-0.2,0-1.3,0.6-0.7,0.8c1.5,0.5,3.1,0.3,4.6,0.3
		c2,0,3.9,0,5.9-0.4C294.3,71.2,296.2,70.3,295.2,70.1z"/>
	<path class="st8" d="M380.8,87.6c0.1-10.6,1.5-21.2,1-31.8c0-0.4-1.2,0-1.2,0.3c-2.4,10.4-2.5,21.4-2.7,32
		c-0.3,10.6-0.1,21.3,1.3,31.9c0.1,0.5,1.8,0,1.8-0.5C381,108.9,380.6,98.3,380.8,87.6z"/>
	<path class="st8" d="M388.2,67.3c-1.1,0.1-2.3,0.3-3.4,0.5c-1.3,0.1-2.6,0.1-3.9,0.3c-0.1,0-0.9,0.4-0.6,0.5
		c0.9,0.5,2.1,0.5,3.1,0.5c1.6,0,3.1-0.2,4.6-0.7C388.6,68.1,389.5,67.1,388.2,67.3z"/>
	<path class="st8" d="M349.2,63.3c-1.7-2.9-3.9-5.4-5.8-8.2c-1.7-2.5-3.4-5.1-5.2-7.7c-0.2-0.2-1.1,0.1-1,0.4
		c1.8,5.9,5.5,12.1,10.3,16.1C347.8,64.3,349.5,63.8,349.2,63.3z"/>
	<path class="st8" d="M354.8,62.2c-2.3,0-4.5,0.4-6.8,0.6c-0.5,0.1-1.7,0.9-0.6,0.8c2.3-0.1,4.6-0.2,7-0.6
		C355,63,355.9,62.2,354.8,62.2z"/>
	<path class="st8" d="M347.2,64.2c0-0.3-0.9,0-0.9,0.2c0,12.7,0,25.6,1.1,38.2c0,0.4,1.2,0,1.3-0.3
		C349.9,89.9,349.2,76.5,347.2,64.2z"/>
	<path class="st8" d="M380.5,158.4c-0.2-0.3-0.9,0-1.1,0.1c-0.6,0.5-1,1.1-1.4,1.7c-0.3,0.5-0.7,0.9-0.3,1.5
		c0.4,0.5,1.6-0.1,1.9-0.4C380.4,160.7,381,159.3,380.5,158.4z"/>
	<path class="st8" d="M388.1,158.8c-0.2-0.2-1.1,0-1,0.4c0,0.4,0,0.7,0.1,1.1c0.1,0.3,0.4,0.5,0.7,0.7c0.4,0.3,1.8,0,1.7-0.7
		C389.6,159.3,388.8,159.2,388.1,158.8z"/>
	<path class="st8" d="M284,159c-0.8,0.8-2.3,1.4-2.1,2.8c0.1,0.6,1.7-0.1,1.8-0.4c0.2-0.3,0.5-0.7,0.6-1.1c0.1-0.4,0.1-0.9,0.5-1.2
		C285.3,158.6,284.2,158.8,284,159z"/>
	<path class="st8" d="M276.9,170.7c-5.9,0.6-13.2,4.4-15.5,10.2c-0.3,0.7,1.8,0,2-0.3c4-4.4,7.6-7.6,13.3-9.4
		C277.1,171.1,277.5,170.6,276.9,170.7z"/>
	<path class="st8" d="M314.5,177.7c-1.8-2.9-4.3-4.9-7.4-6.3c-0.3-0.2-1.8,0.4-1.4,0.7c2.5,1.9,4.8,4,7,6.3
		C313.1,178.8,314.8,178.2,314.5,177.7z"/>
	<path class="st8" d="M317.3,217.9c-2.4,2.3-4.3,4.9-6.8,7.1c-2.5,2.2-5.3,3.9-8.1,5.6c-0.8,0.5,0.2,0.8,0.7,0.6
		c3.4-1.3,6.4-3.2,9.2-5.4c2.6-2,5.8-4.9,7-8C319.5,217,317.5,217.7,317.3,217.9z"/>
	<path class="st8" d="M281.1,233.5c-6.6-1.6-12.5-4.7-17-9.8c-0.2-0.3-1.4,0.2-1.2,0.5c3.9,6,9.8,9.7,17,10.3
		C280.3,234.4,281.9,233.6,281.1,233.5z"/>
	<path class="st8" d="M355.9,185.7c0.1-0.3-0.9-0.1-1,0.2c-3.3,8.1-4.4,16.8-2.3,25.3c0.1,0.5,1.5,0,1.5-0.5
		C353,202.2,353.3,193.9,355.9,185.7z"/>
	<path class="st8" d="M379.9,233.4c-4.3-1.6-8.5-3.3-12.4-5.9c-0.4-0.3-1.9,0.3-1.5,0.7c3.5,3.2,7.7,5.4,12.4,6.3
		C378.9,234.5,380.8,233.7,379.9,233.4z"/>
	<path class="st8" d="M410.4,213.6c-4.2,7.2-8.6,12.8-16.5,16.2c-0.9,0.4-0.3,0.8,0.4,0.6c7.5-2.3,15.9-8.8,17.2-17
		C411.7,213,410.5,213.4,410.4,213.6z"/>
	<path class="st8" d="M411.2,183.3c-0.3-0.5-1.8,0.1-1.6,0.5c2,3.3,3.2,7.1,3.5,10.9c0,0.4,1.3,0,1.3-0.4
		C414.4,190.3,413.3,186.7,411.2,183.3z"/>
</g>
<g>
	<g>
		<path class="st15" d="M129,82c4.6-6.5,9.9-13.6,14.5-20.1c11.7-2.7,29.1-1.8,32.5-0.2c0,0,12.4,15,16.3,20.7
			c-5.9,6.6-11.4,13.9-17.7,21.2c-2,2.3-3.5,5.4-6.4,6.2c-3.7,1-7.6-1.7-11.3-0.7c-1.5,0.4-2.9,1.3-4.3,1c-0.8-0.2-1.5-0.8-2.2-1.3
			c-8.4-7.1-14.7-13.8-22.3-23.6L129,82z"/>
		<path class="st16" d="M174.7,61.9c-10-1.2-20.4-1.2-30.4,0c1.7,1.3,3.4,2.6,5.1,3.9c6.4,0.2,14,0.1,20.1,0
			C171.6,64.4,172.7,63.5,174.7,61.9z"/>
		<path class="st17" d="M131.6,80c0.1,0.8,8.2,4.9,12.9,5.1c2.3-4.8,4-12.4,5.2-17.5c0,0-4.1-1.9-6-3.4
			C139.5,68.9,131.6,80,131.6,80z"/>
		<path class="st17" d="M147.2,85.7c8.1,1.4,16.4,1.2,24.6,0.1c0.2-5.2-1.2-13.8-2.1-19c-7.2-0.1-19.2,0.7-18.9,0.7
			C149.8,72.3,148.2,81,147.2,85.7z"/>
		<path class="st17" d="M173.9,84.8c5.4-1.1,10-2.7,14.2-6c-4-5.1-7.6-10.5-12.6-14.9l-4.4,2.7C170.9,67.2,173.5,81,173.9,84.8z"/>
		<path class="st18" d="M147.2,87.9c1.5,5.8,4.1,13.8,6.2,19.4c4.8,0.6,9.7,0.5,14.5-0.3c0.9-5.7,3-13.8,3.9-19.5
			C165.1,89.1,154.1,87.8,147.2,87.9L147.2,87.9z"/>
		<path class="st18" d="M173.5,87c-0.5,0.7-3.1,14.9-3.9,20c7.8-6.9,14.9-17.1,19.7-26.4C184.9,82.4,173.5,87,173.5,87z"/>
		<path class="st18" d="M145.2,87.6c0,0-10.8-3.8-14.5-5.2c6.1,8.5,12.9,18.8,20.7,25.7C149.6,102.3,145.2,87.6,145.2,87.6z"/>
		<path class="st19" d="M159.8,81.8c4.1-1.4,8.1-3.5,10.9-6.8c2.8-3.3,4.4-7.8,3.5-12.1c-9.4-2.6-18.8-2.5-28.2-0.3
			c-4,6-8,12.1-12.1,18.1C142.1,84.2,151.4,84.6,159.8,81.8z"/>
		<path class="st20" d="M136.6,88.8c4.2,6.6,9.3,12.7,15.3,18c4.7,0.4,9.4,0.3,14-0.3c4.4-4.9,7.6-10.8,9.2-17
			c-13.9,0.3-27.8-1-41.3-3.9L136.6,88.8z"/>
		<path class="st19" d="M151.6,64.1c-0.6,0.6-0.8,1.5-1,2.3c-1.3,6.3-2.5,12.6-3.8,18.9c5.6,1.3,11.5,1.2,17-0.3
			c-0.1-7.1-0.3-14.2-0.4-21.2c-2.8-0.1-5.6-0.3-8.4-0.4C153.8,63.3,152.4,63.2,151.6,64.1z"/>
		<path class="st19" d="M136.5,81.6c1.9,1.3,4.2,2.1,6.5,2.1c2-6.8,4-13.7,6-20.5c-0.5,0-1-0.1-1.5-0.1c0.1-0.1,0.2-0.3,0.2-0.4
			C143.7,68.8,139.9,75.1,136.5,81.6z"/>
	</g>
	<path class="st1" d="M214,128.1c-7.6-10.1-18.3-17.9-30.2-22.1c-23.5-8.4-51.7-1.7-69,16.3c-17.3,18-22.8,46.4-13.4,69.6
		c9.3,23.2,33,39.8,57.9,40.8c24.5,1,49.1-13.2,60.4-35C231.1,175.9,228.8,147.7,214,128.1z M206.2,190.6
		c-8.7,16.7-27.5,27.5-46.3,26.8c-19.1-0.8-37.2-13.5-44.3-31.2c-7.1-17.7-2.9-39.5,10.3-53.2c13.2-13.8,34.8-18.9,52.8-12.5
		c9.1,3.2,17.3,9.2,23.1,16.9C213.1,152.3,214.9,173.9,206.2,190.6z"/>
	<path class="st1" d="M150.2,104c-5.4-8-12-15.7-19.5-21.6c-1-1.7-6.9,1.2-6,2.4c1.4,1.9,2.8,3.7,4.2,5.6c1.2,2.6,3.6,5.1,5,7
		c2.5,3.5,5.2,6.9,8,10.2C143.5,109.4,151.5,106,150.2,104z"/>
	<path class="st1" d="M169.1,104c5.4-8,12-15.7,19.5-21.6c1-1.7,6.9,1.2,6,2.4c-1.4,1.9-2.8,3.7-4.2,5.6c-1.2,2.6-3.6,5.1-5,7
		c-2.5,3.5-5.2,6.9-8,10.2C175.8,109.4,167.8,106,169.1,104z"/>
	<path class="st1" d="M163.7,91.9c-0.3-4.3,0-10.1-3-13.4c-0.9-1-3.9,0.5-4.2,1.5c-0.8,2.1-0.7,4.2-0.5,6.3
		c-1.5,6.3-0.5,13.7,0.6,19.9c0.4,2.1,7.4-0.2,7.5-2.2C164.1,100,164,95.9,163.7,91.9z"/>
	<path class="st5" d="M170.2,106.7c-25.1-3.4-50.3,12.1-62.5,33.3c-13.3,23.2-9.4,54,9,73.3c1.4,1.4,7.5-0.8,6.1-2.8
		c-12.7-17.7-17.4-38.9-11.2-60.1c3.1-10.7,9.8-20.2,18.1-27.5c10.3-9.1,23.1-11.5,36.4-11.6C168,111.2,174.8,107.4,170.2,106.7z"/>
	<path class="st5" d="M212.8,130.4c-1.1-1.3-6.9,0.6-6.1,2.4c4,9.7,7.8,18.3,8.7,28.9c1,11.5-1.8,23.2-7,33.3
		c-4.9,9.5-12.9,16.9-22,22.3c-10.3,6.2-21.1,6.7-32.7,7.2c-0.9,0-6.7,2.8-3.9,3.5c21.1,4.8,45.2-8.4,58.8-23.6
		C225.5,185.7,229.6,150.5,212.8,130.4z"/>
	<path class="st5" d="M144.6,100.1c-2.3-4.9-6.5-9.2-10.4-13c-1.4-1.4-7.3,1.1-5.7,2.7c3.9,3.9,6.9,8.4,10.4,12.6
		C139.9,103.5,145.3,101.7,144.6,100.1z"/>
	<path class="st5" d="M162.3,81.4c0-1.7-6.4-0.2-6.4,1.7c0,4.4,0,8.8,0.3,13.1c0.1,1.7,6,0.2,6-1.6
		C162.5,90.2,162.4,85.8,162.3,81.4z"/>
	<path class="st5" d="M188.7,87c-1.4-0.1-3.2,0.4-4.2,1.4c-3.9,3.9-7.5,8-11.1,12.1c-0.7,0.8,0.3,1.4,1,1.5c1.4,0.1,3.4-0.4,4.4-1.4
		c3.7-3.9,7.5-7.9,10.9-12.1C190.4,87.7,189.4,87.1,188.7,87z"/>
	<path class="st6" d="M150.9,108.1c-22,4.2-45.2,24.2-47.7,47.3c-0.3,2.5,5.8,0.4,6.4-1.3c7.9-20.8,19.8-35.3,41.4-42.7
		C154,110.4,155.1,107.3,150.9,108.1z"/>
	<path class="st6" d="M223,172.1c-0.2-2.2-6.6,0.1-7,1.8c-2.7,10.5-4.5,19.8-10.8,29c-7.8,11.3-19.2,16.3-31.8,20.1
		c-2,0.6-4.6,3.7-0.8,3.4C197.2,223.9,225.7,198.5,223,172.1z"/>
	<path class="st6" d="M219.5,146.5c-1-3.5-2.1-6.8-3.3-10.2c-0.7-2-7.2,0.1-6.5,2.1c1.1,3.4,2.4,6.7,3.8,10.1
		C214.2,150.3,220.1,148.4,219.5,146.5z"/>
	<path class="st6" d="M131.8,213.2c-7.3-5.7-13.4-12.6-18.9-20.1c-1-1.4-6.9,0.7-6.1,2.4c4.2,8.6,10.9,15.4,19.1,20.4
		C127.5,216.9,133.5,214.6,131.8,213.2z"/>
	<path class="st6" d="M143.3,100.6c-1.2-2.2-2.9-4-4.4-5.9c-1.9-2.4-3.8-5-6.2-6.9c-0.6-0.5-3.3,0.1-3,1.2c0.7,2.4,2.3,4.3,3.8,6.3
		c1.8,2.5,3.9,4.9,6.4,6.7C140.5,102.4,143.8,101.7,143.3,100.6z"/>
	<path class="st6" d="M160.7,82.9c0-0.9-3.3-0.1-3.4,0.9c-0.3,5.5-0.5,10.9,0,16.4c0.1,0.9,3.2,0.1,3.2-0.8
		C161,93.9,161,88.4,160.7,82.9z"/>
	<path class="st6" d="M184.9,89.2c-4.5,3-8,7.2-10.9,11.8c-0.8,1.2,2.5,0.6,3-0.2c2.9-4.2,6.6-7.5,10.1-11.1
		C188.3,88.3,185.4,88.8,184.9,89.2z"/>
	<path class="st8" d="M140.3,94c0-0.4-0.6-1.2-0.9-1.5c-0.7-0.9-1.2-1.8-2.3-2.3c-1-0.4-3.6,0.3-3.8,1.5c-0.2,0.9,0.3,1.7,0.7,2.5
		c0.2,0.4,0.4,0.8,0.7,1.2c0.4,0.6,0.8,0.9,1.4,1.2c0.7,0.4,1.6,0.3,2.4,0c0.5-0.2,1.9-0.7,1.9-1.4C140.4,94.9,140.4,94.5,140.3,94z
		"/>
	<path class="st8" d="M162.2,90.9c-0.1-0.8-0.4-1.6-0.8-2.3c-0.4-0.6-2-0.2-2.5,0c-0.8,0.3-1.7,0.7-2,1.5c-0.3,0.7-0.3,1.5-0.3,2.3
		c0,0.3,0,0.7,0,1c0,0.3,0.5,0.8,0.7,1c0.4,0.4,1.4,0.3,1.9,0.2c0.8-0.2,2.1-0.6,2.5-1.4c0.2-0.3,0.3-0.7,0.5-1
		C162.3,91.8,162.2,91.3,162.2,90.9z"/>
	<path class="st8" d="M185.1,91.2c-0.3-0.9-1.6-0.6-2.6-0.2c0.2-0.1,0.1-0.1-0.5,0.2c-0.4,0.2-1,0.5-1.3,0.8c-0.5,0.4-1,0.9-1.4,1.4
		c-0.6,0.8-1.5,1.6-0.8,2.6c0.5,0.7,2.5,0.1,3-0.2c1.1-0.6,2-1.2,2.7-2.2C184.7,93,185.4,91.9,185.1,91.2z"/>
	<path class="st8" d="M145.8,110c-13.6,2-29.7,14.3-34.6,27.2c-0.6,1.5,3.9,0.1,4.4-0.6c3.9-5.1,7.6-10,12.4-14.2
		c5.6-4.8,11.9-7.1,18.4-10.2C148.7,111.1,148.1,109.6,145.8,110z"/>
	<path class="st8" d="M165,108.1c-1.6-0.6-3.3-0.2-5,0c-1.9,0.2-4,0.4-5.7,1.4c-0.2,0.1-0.8,0.5-0.6,0.9c0.6,1.1,2.6,0.7,3.6,0.7
		c2.1-0.1,4.2-0.1,6.2-0.8C164,110.1,166.6,108.7,165,108.1z"/>
	<path class="st8" d="M210,130.7c-1.2-2.6-3.4-4.6-5.5-6.5c-2.4-2.1-5-4.2-8.3-4.6c-0.6-0.1-2.3,0.3-2.2,1.2
		c0.3,2.1,3.2,3.9,4.7,5.2c2.2,2.1,4.1,4.6,6.4,6.5C206.1,133.4,210.6,132.2,210,130.7z"/>
	<path class="st8" d="M218.3,144.5c-0.6-0.8-3.8,0.2-3.9,1.3c-0.1,3.6,0.8,7.1,1.2,10.7c0.5,4.5-0.3,9.1,0.2,13.6
		c0.2,1.6,4.4-0.3,4.8-1.3C223.4,161.9,222.9,150.6,218.3,144.5z"/>
	<path class="st8" d="M190.6,217.7c-3.9,1.7-7.4,3.8-11.4,5.1c-5,1.7-10.2,1.5-15.4,1.8c-1.3,0.1-6,2.4-2.8,3.1
		c9.8,2,25.7-1.6,32.8-8.9C195.7,216.8,191.5,217.3,190.6,217.7z"/>
	<path class="st8" d="M138.7,217.3c-1.5-1.6-4-2.2-5.8-3.3c-2.2-1.3-4-3.1-6.2-4.4c-0.7-0.5-3.6,0.1-3.3,1.3
		c1.1,5.1,7.8,8.5,12.5,8.5C136.5,219.4,139.8,218.3,138.7,217.3z"/>
	<path class="st7" d="M146.7,104c-1.5,0.1-3,0.3-4.6,0.5c-0.5,0.1-1.1,0.3-1.3,0.7c-0.4,0.5,0.4,0.6,0.7,0.6c1.5-0.1,3-0.3,4.5-0.5
		c0.5-0.1,1.1-0.3,1.4-0.7C147.8,104.1,147,104,146.7,104z"/>
	<path class="st7" d="M163.3,101.9c-0.8-0.3-1.7-0.2-2.5-0.2c-1.1,0-2.2,0.2-3.3,0.2c-0.7,0-1.6,0.3-2,0.9c-0.4,0.6,0.4,0.7,0.8,0.7
		c1.9,0,3.8,0.3,5.6-0.2C162.2,103.3,164.4,102.4,163.3,101.9z"/>
	<path class="st7" d="M179,103.7c-1.4-0.6-2.9-0.8-4.3-1.2c-0.6-0.2-1.4,0-1.9,0.4c-0.3,0.2-0.8,0.8-0.2,1c0.6,0.2,1.2,0.6,1.8,0.8
		c0.7,0.3,1.4,0.5,2.1,0.7c0.8,0.2,1.7-0.1,2.4-0.5C179.1,104.7,179.7,104,179,103.7z"/>
</g>
</svg>
