<?xml version="1.0" encoding="utf-8"?>
<!-- Generator: Adobe Illustrator 24.0.2, SVG Export Plug-In . SVG Version: 6.00 Build 0)  -->
<svg version="1.1" id="Layer_1" xmlns="http://www.w3.org/2000/svg" xmlns:xlink="http://www.w3.org/1999/xlink" x="0px" y="0px"
	 viewBox="0 0 500 500" style="enable-background:new 0 0 500 500;" xml:space="preserve">
<style type="text/css">
	.st0{fill:#2A3D2A;}
	.st1{opacity:0.29;fill:#142114;}
	.st2{fill:#394939;}
	.st3{fill:#4D594D;}
	.st4{fill:#93673E;}
	.st5{opacity:0.45;fill:#363F36;}
	.st6{fill:#BC875B;}
	.st7{fill:#D38D5E;}
	.st8{fill:#7F4B24;}
	.st9{fill:#F9B88C;}
	.st10{fill:#633E25;}
	.st11{fill:#FCB37C;}
</style>
<g>
	<rect x="89.4" y="174.4" class="st0" width="330.7" height="186.6"/>
	<path class="st1" d="M420.1,174.4v166.7c0,0-82.3-44.2-160.9-55.7S89.4,316.6,89.4,316.6V174.4H420.1z"/>
	<path class="st2" d="M411.6,307.3l-13.3-5c-43.7-16.5-88.4-25.4-133.1-26.6c-10.7-0.3-21.4-0.1-32,0.4
		c-41,2.2-81.9,10.8-121.9,25.9l-14.8,5.6c-10.9,4.1-21.3-8.6-20.4-24.8l6.9-122.6h340.5l8.5,121.8
		C433.1,298.4,422.6,311.5,411.6,307.3z"/>
	<path class="st3" d="M98,173.3c0,0-19.6,117-4.9,117.9c14.7,0.8,81.8-29.2,99-33.4c17.2-4.2,10.9-83.4,10.9-83.4
		S114,168.6,98,173.3z"/>
	<path class="st3" d="M98,173.3c0,0-19.6,117-4.9,117.9c14.7,0.8,81.8-29.2,99-33.4c17.2-4.2,10.9-83.4,10.9-83.4
		S114,168.6,98,173.3z"/>
	<path class="st3" d="M391,173.3c0,0,19.6,117,4.9,117.9c-14.7,0.8-81.8-29.2-99-33.4c-17.2-4.2-10.9-83.4-10.9-83.4
		S374.9,168.6,391,173.3z"/>
	<path class="st3" d="M260.1,159.7L260.1,159.7L260.1,159.7c-0.3-1.9-2.7-5.6-16-5.6h0c0,0,0,0,0,0c-13.3,0-15.7,3.4-16,5.2h0v0
		c-0.1,0.6,0,1,0,1v141h32V160.7C260.1,160.7,260.2,160.3,260.1,159.7z"/>
	<rect x="217.7" y="222.9" class="st4" width="12.1" height="21.1"/>
	<rect x="256.5" y="222.9" class="st4" width="12.1" height="21.1"/>
	<path class="st1" d="M265,289.5c-0.5-33.7-1.9-129-1.9-129.3h-30v129.3h-5.4v18.7c0,10.3,18.7,19.8,18.7,19.8s18.7-9.4,18.7-19.8
		v-18.7H265z"/>
	<path class="st3" d="M260.1,159.7L260.1,159.7L260.1,159.7c-0.3-1.9-2.7-5.6-16-5.6h0c0,0,0,0,0,0c-13.3,0-15.7,3.4-16,5.2h0v0
		c-0.1,0.6,0,1,0,1v141h32V160.7C260.1,160.7,260.2,160.3,260.1,159.7z"/>
	<path class="st5" d="M260.1,159.7L260.1,159.7L260.1,159.7c-0.3-1.9-2.7-5.6-16-5.6h0c0,0,0,0,0,0c-1.2,0-2.4,0-3.4,0.1
		c10.4,0.6,12.4,3.8,12.7,5.5l0,0v0c0.1,0.6,0,1.1,0,1.1v140.4h6.7V160.7C260.1,160.7,260.2,160.3,260.1,159.7z"/>
	<path class="st4" d="M243.9,325.3c0,0-18.7-9.4-18.7-19.8v-18.7h37.5v18.7C262.6,315.9,243.9,325.3,243.9,325.3z"/>
	<path class="st6" d="M226.4,288.4v17.3c0,0,4.9,10.5,13.3,13.8c0,0,4.5-2.5,8.5-6.4c4-3.9,5-6.5,5-6.5v-18.1H226.4z"/>
	<path class="st7" d="M233.8,291.8c0,1.3-1.1,2.4-2.4,2.4c-1.3,0-2.4-1.1-2.4-2.4c0-1.3,1.1-2.4,2.4-2.4
		C232.7,289.4,233.8,290.5,233.8,291.8z"/>
	<g>
		<circle class="st8" cx="231.4" cy="291.8" r="2.6"/>
		<path class="st7" d="M233.8,291.8c0,1.3-1.1,2.4-2.4,2.4c-1.3,0-2.4-1.1-2.4-2.4c0-1.3,1.1-2.4,2.4-2.4
			C232.7,289.4,233.8,290.5,233.8,291.8z"/>
		<path class="st9" d="M229.5,292.4c0-1.3,1.1-2.4,2.4-2.4c0.6,0,1.2,0.3,1.7,0.7c-0.4-0.8-1.2-1.3-2.1-1.3c-1.3,0-2.4,1.1-2.4,2.4
			c0,0.7,0.3,1.3,0.7,1.7C229.6,293.2,229.5,292.8,229.5,292.4z"/>
		<path class="st10" d="M231.4,290.3c-0.2,0-0.3,0.1-0.3,0.3v2.7c0,0.2,0.1,0.3,0.3,0.3c0.2,0,0.3-0.1,0.3-0.3v-2.7
			C231.7,290.4,231.6,290.3,231.4,290.3z"/>
		<path class="st10" d="M229.8,291.9c0-0.2,0.1-0.3,0.3-0.3h2.7c0.2,0,0.3,0.1,0.3,0.3c0,0.2-0.1,0.3-0.3,0.3h-2.7
			C229.9,292.2,229.8,292,229.8,291.9z"/>
	</g>
	<g>
		<path class="st8" d="M259.2,291.9c0,1.5-1.2,2.6-2.6,2.6c-1.5,0-2.6-1.2-2.6-2.6c0-1.5,1.2-2.6,2.6-2.6
			C258.1,289.2,259.2,290.4,259.2,291.9z"/>
		<path class="st7" d="M259,291.9c0,1.3-1.1,2.4-2.4,2.4c-1.3,0-2.4-1.1-2.4-2.4c0-1.3,1.1-2.4,2.4-2.4
			C257.9,289.5,259,290.6,259,291.9z"/>
		<path class="st9" d="M254.7,292.5c0-1.3,1.1-2.4,2.4-2.4c0.6,0,1.2,0.3,1.7,0.7c-0.4-0.8-1.2-1.3-2.1-1.3c-1.3,0-2.4,1.1-2.4,2.4
			c0,0.7,0.3,1.3,0.7,1.7C254.8,293.3,254.7,292.9,254.7,292.5z"/>
		<path class="st10" d="M256.6,290.4c-0.2,0-0.3,0.1-0.3,0.3v2.7c0,0.2,0.1,0.3,0.3,0.3c0.2,0,0.3-0.1,0.3-0.3v-2.7
			C256.9,290.5,256.7,290.4,256.6,290.4z"/>
		<path class="st10" d="M255,292c0-0.2,0.1-0.3,0.3-0.3h2.7c0.2,0,0.3,0.1,0.3,0.3c0,0.2-0.1,0.3-0.3,0.3h-2.7
			C255.1,292.3,255,292.1,255,292z"/>
	</g>
	<path class="st6" d="M258.5,238.2h-29.3c-2.3,0-4.1-1.8-4.1-4.1l0,0c0-2.3,1.8-4.1,4.1-4.1h29.3c2.3,0,4.1,1.8,4.1,4.1l0,0
		C262.6,236.4,260.8,238.2,258.5,238.2z"/>
	<path class="st11" d="M252.7,236.6h-23.8c-1.4,0-2.5-1.1-2.5-2.5l0,0c0-1.4,1.1-2.5,2.5-2.5h23.8c1.4,0,2.5,1.1,2.5,2.5l0,0
		C255.1,235.5,254,236.6,252.7,236.6z"/>
</g>
</svg>
