<?xml version="1.0" encoding="utf-8"?>
<!-- Generator: Adobe Illustrator 24.0.2, SVG Export Plug-In . SVG Version: 6.00 Build 0)  -->
<svg version="1.1" id="Layer_1" xmlns="http://www.w3.org/2000/svg" xmlns:xlink="http://www.w3.org/1999/xlink" x="0px" y="0px"
	 viewBox="0 0 500 500" style="enable-background:new 0 0 500 500;" xml:space="preserve">
<style type="text/css">
	.st0{fill:#E24938;}
	.st1{fill:#D13D2F;}
	.st2{fill:#EF5448;}
	.st3{fill:#C6332C;}
	.st4{fill:#E5A320;}
	.st5{fill:#F2B42A;}
	.st6{fill:#FFCD4D;}
</style>
<g>
	<g>
		<path class="st0" d="M378.2,387L65.7,278.9c-1.5-0.5-2.3-2.2-1.8-3.7l55.6-160.8c0.5-1.5,2.2-2.3,3.7-1.8l312.5,108.1
			c1.5,0.5,2.3,2.2,1.8,3.7l-55.6,160.8C381.4,386.8,379.8,387.6,378.2,387z"/>
	</g>
	<g>
		<path class="st1" d="M431.3,219.1l-303.5-105c-4-1.4-8.4,0.8-9.9,5l-31.7,96.4l128.7,106.9c4.2,3.5,9.4,5.3,14.8,5.2l173.3-3.3
			l32.9-95.2C437.4,225,435.3,220.5,431.3,219.1z"/>
	</g>
	<g>
		<path class="st0" d="M406.5,309.7l-174.1-9.2L91.2,200.7c-3-2.2-4.3-6.2-3-9.8l26.1-75.5c2.4-7,9.9-10.8,16.8-8.5l302.1,104.5
			c6.8,2.4,10.4,10,7.9,17L415,303.9C413.7,307.6,410.2,309.9,406.5,309.7z"/>
	</g>
	<g>
		<path class="st2" d="M388.2,202.6c-14.5-5-250.5-89.2-257-91.4c-6.5-2.3-11.5,2.7-13.3,8c-1.8,5.2-15.5,40-16.3,47.2
			c-0.9,7.2,39.4,62.3,168.8,78.5C343.4,254,408.6,209.6,388.2,202.6z"/>
	</g>
	<g>
		<path class="st2" d="M408.6,209.6c-12.5-0.6-30,20.7-33.5,28.7c-7.4,16.7,35.9,18.3,50.4,4.8c7-6.6,11.1-18,9-23.7
			C432.4,213.6,414.2,209.8,408.6,209.6z"/>
	</g>
	<g>
		<path class="st2" d="M320.4,361.2c6.2,3.1,47.7,17.3,52.3,18.1c4.6,0.8,7.6-3.2,11.8-15.2c4.1-12,1.9-19.5-5.2-20.3
			C372.2,343,299.6,350.6,320.4,361.2z"/>
	</g>
	<g>
		<path class="st2" d="M86.6,240c-5.8,2.2-17,30.2-13.4,34c3.6,3.8,45.2,19.8,49.1,17.8C126.3,289.8,97,236,86.6,240z"/>
	</g>
	<g>
		<path class="st3" d="M134.8,232.4l94.6,66c1.9,1.4,4.2,2.1,6.6,2.3l116.9,6.4l-104.1,3.3c-13.3,0.4-26.3-4.1-36.5-12.7
			L134.8,232.4z"/>
	</g>
	<g>
		<path class="st3" d="M141.2,226.3c-0.7,0-1.2-0.5-1.3-1.2l-0.6-5.3c-0.1-0.7,0.4-1.4,1.2-1.5c0.7-0.1,1.4,0.4,1.5,1.2l0.6,5.3
			c0.1,0.7-0.4,1.4-1.2,1.5C141.3,226.3,141.2,226.3,141.2,226.3z M139.9,215.7c-0.7,0-1.2-0.5-1.3-1.2l-0.6-5.3
			c-0.1-0.7,0.4-1.4,1.2-1.5c0.7-0.1,1.4,0.4,1.5,1.2l0.6,5.3c0.1,0.7-0.4,1.4-1.2,1.5C140,215.7,139.9,215.7,139.9,215.7z
			 M138.6,205.2c-0.7,0-1.2-0.5-1.3-1.2l-0.6-5.3c-0.1-0.7,0.4-1.4,1.2-1.5c0.7-0.1,1.4,0.4,1.5,1.2l0.6,5.3
			c0.1,0.7-0.4,1.4-1.2,1.5C138.7,205.2,138.7,205.2,138.6,205.2z M137.3,194.6c-0.7,0-1.2-0.5-1.3-1.2l-0.6-5.3
			c-0.1-0.7,0.4-1.4,1.2-1.5c0.7-0.1,1.4,0.4,1.5,1.2l0.6,5.3c0.1,0.7-0.4,1.4-1.2,1.5C137.4,194.6,137.4,194.6,137.3,194.6z
			 M136.1,184.1c-0.7,0-1.2-0.5-1.3-1.2l-0.6-5.3c-0.1-0.7,0.4-1.4,1.2-1.5c0.7-0.1,1.4,0.4,1.5,1.2l0.6,5.3
			c0.1,0.7-0.4,1.4-1.2,1.5C136.2,184,136.1,184.1,136.1,184.1z M134.8,173.5c-0.7,0-1.2-0.5-1.3-1.2l-0.6-5.3
			c-0.1-0.7,0.4-1.4,1.2-1.5c0.7-0.1,1.4,0.4,1.5,1.2l0.6,5.3c0.1,0.7-0.4,1.4-1.2,1.5C134.9,173.5,134.8,173.5,134.8,173.5z
			 M133.5,162.9c-0.7,0-1.2-0.5-1.3-1.2l-0.6-5.3c-0.1-0.7,0.4-1.4,1.2-1.5c0.7-0.1,1.4,0.4,1.5,1.2l0.6,5.3
			c0.1,0.7-0.4,1.4-1.2,1.5C133.6,162.9,133.6,162.9,133.5,162.9z M132.2,152.4c-0.7,0-1.2-0.5-1.3-1.2l-0.6-5.3
			c-0.1-0.7,0.4-1.4,1.2-1.5c0.7-0.1,1.4,0.4,1.5,1.2l0.6,5.3c0.1,0.7-0.4,1.4-1.2,1.5C132.3,152.4,132.3,152.4,132.2,152.4z
			 M130.9,141.8c-0.7,0-1.2-0.5-1.3-1.2l-0.6-5.3c-0.1-0.7,0.4-1.4,1.2-1.5c0.7-0.1,1.4,0.4,1.5,1.2l0.6,5.3
			c0.1,0.7-0.4,1.4-1.2,1.5C131.1,141.8,131,141.8,130.9,141.8z M129.7,131.3c-0.7,0-1.2-0.5-1.3-1.2l-0.6-5.3
			c-0.1-0.7,0.4-1.4,1.2-1.5c0.7-0.1,1.4,0.4,1.5,1.2l0.6,5.3c0.1,0.7-0.4,1.4-1.2,1.5C129.8,131.3,129.7,131.3,129.7,131.3z
			 M128.4,120.7c-0.7,0-1.2-0.5-1.3-1.2l-0.6-5.3c-0.1-0.7,0.4-1.4,1.2-1.5c0.7-0.1,1.4,0.4,1.5,1.2l0.6,5.3
			c0.1,0.7-0.4,1.4-1.2,1.5C128.5,120.7,128.4,120.7,128.4,120.7z"/>
	</g>
	<g>
		<path class="st3" d="M393,301.1c-0.7,0-1.2-0.5-1.3-1.2l-0.7-5.3c-0.1-0.7,0.4-1.4,1.2-1.5c0.7-0.1,1.4,0.4,1.5,1.2l0.7,5.3
			c0.1,0.7-0.4,1.4-1.2,1.5C393.1,301.1,393.1,301.1,393,301.1z M391.7,290.5c-0.7,0-1.2-0.5-1.3-1.2l-0.7-5.3
			c-0.1-0.7,0.4-1.4,1.2-1.5c0.7-0.1,1.4,0.4,1.5,1.2l0.7,5.3c0.1,0.7-0.4,1.4-1.2,1.5C391.8,290.5,391.8,290.5,391.7,290.5z
			 M390.4,280c-0.7,0-1.2-0.5-1.3-1.2l-0.7-5.3c-0.1-0.7,0.4-1.4,1.2-1.5c0.7-0.1,1.4,0.4,1.5,1.2l0.7,5.3c0.1,0.7-0.4,1.4-1.2,1.5
			C390.5,280,390.4,280,390.4,280z M389.1,269.4c-0.7,0-1.2-0.5-1.3-1.2l-0.7-5.3c-0.1-0.7,0.4-1.4,1.2-1.5c0.7-0.1,1.4,0.4,1.5,1.2
			l0.7,5.3c0.1,0.7-0.4,1.4-1.2,1.5C389.2,269.4,389.1,269.4,389.1,269.4z M387.8,258.9c-0.7,0-1.2-0.5-1.3-1.2l-0.7-5.3
			c-0.1-0.7,0.4-1.4,1.2-1.5c0.7-0.1,1.4,0.4,1.5,1.2l0.7,5.3c0.1,0.7-0.4,1.4-1.2,1.5C387.9,258.9,387.8,258.9,387.8,258.9z
			 M386.5,248.3c-0.7,0-1.2-0.5-1.3-1.2l-0.7-5.3c-0.1-0.7,0.4-1.4,1.2-1.5c0.7-0.1,1.4,0.4,1.5,1.2l0.7,5.3
			c0.1,0.7-0.4,1.4-1.2,1.5C386.6,248.3,386.5,248.3,386.5,248.3z M385.2,237.8c-0.7,0-1.2-0.5-1.3-1.2l-0.7-5.3
			c-0.1-0.7,0.4-1.4,1.2-1.5c0.7-0.1,1.4,0.4,1.5,1.2l0.7,5.3c0.1,0.7-0.4,1.4-1.2,1.5C385.3,237.8,385.2,237.8,385.2,237.8z
			 M383.8,227.2c-0.7,0-1.2-0.5-1.3-1.2l-0.7-5.3c-0.1-0.7,0.4-1.4,1.2-1.5c0.7-0.1,1.4,0.4,1.5,1.2l0.7,5.3
			c0.1,0.7-0.4,1.4-1.2,1.5C384,227.2,383.9,227.2,383.8,227.2z M382.5,216.7c-0.7,0-1.2-0.5-1.3-1.2l-0.7-5.3
			c-0.1-0.7,0.4-1.4,1.2-1.5c0.7-0.1,1.4,0.4,1.5,1.2l0.7,5.3c0.1,0.7-0.4,1.4-1.2,1.5C382.6,216.7,382.6,216.7,382.5,216.7z
			 M381.2,206.1c-0.7,0-1.2-0.5-1.3-1.2l-0.7-5.3c-0.1-0.7,0.4-1.4,1.2-1.5c0.7-0.1,1.4,0.4,1.5,1.2l0.7,5.3
			c0.1,0.7-0.4,1.4-1.2,1.5C381.3,206.1,381.3,206.1,381.2,206.1z"/>
	</g>
	<g>
		<path class="st3" d="M204.8,275.8c-0.7,0-1.2-0.5-1.3-1.2L203,271c-0.1-0.7,0.4-1.4,1.2-1.5c0.7-0.1,1.4,0.4,1.5,1.2l0.4,3.6
			c0.1,0.7-0.4,1.4-1.2,1.5C204.9,275.8,204.9,275.8,204.8,275.8z M203.7,266.9c-0.7,0-1.2-0.5-1.3-1.2l-0.7-5.3
			c-0.1-0.7,0.4-1.4,1.2-1.5c0.7-0.1,1.4,0.4,1.5,1.2l0.7,5.3c0.1,0.7-0.4,1.4-1.2,1.5C203.8,266.9,203.8,266.9,203.7,266.9z
			 M202.4,256.3c-0.7,0-1.2-0.5-1.3-1.2l-0.7-5.3c-0.1-0.7,0.4-1.4,1.2-1.5c0.7-0.1,1.4,0.4,1.5,1.2l0.6,5.3
			c0.1,0.7-0.4,1.4-1.2,1.5C202.5,256.3,202.5,256.3,202.4,256.3z M201.1,245.8c-0.7,0-1.2-0.5-1.3-1.2l-0.7-5.3
			c-0.1-0.7,0.4-1.4,1.2-1.5c0.7-0.1,1.4,0.4,1.5,1.2l0.7,5.3c0.1,0.7-0.4,1.4-1.2,1.5C201.2,245.8,201.2,245.8,201.1,245.8z
			 M199.8,235.2c-0.7,0-1.2-0.5-1.3-1.2l-0.7-5.3c-0.1-0.7,0.4-1.4,1.2-1.5c0.7-0.1,1.4,0.4,1.5,1.2l0.7,5.3
			c0.1,0.7-0.4,1.4-1.2,1.5C199.9,235.2,199.9,235.2,199.8,235.2z M198.5,224.7c-0.7,0-1.2-0.5-1.3-1.2l-0.7-5.3
			c-0.1-0.7,0.4-1.4,1.2-1.5c0.7-0.1,1.4,0.4,1.5,1.2l0.7,5.3c0.1,0.7-0.4,1.4-1.2,1.5C198.6,224.7,198.6,224.7,198.5,224.7z
			 M197.2,214.1c-0.7,0-1.2-0.5-1.3-1.2l-0.7-5.3c-0.1-0.7,0.4-1.4,1.2-1.5c0.7-0.1,1.4,0.4,1.5,1.2l0.7,5.3
			c0.1,0.7-0.4,1.4-1.2,1.5C197.3,214.1,197.3,214.1,197.2,214.1z M195.9,203.6c-0.7,0-1.2-0.5-1.3-1.2l-0.7-5.3
			c-0.1-0.7,0.4-1.4,1.2-1.5c0.7-0.1,1.4,0.4,1.5,1.2l0.7,5.3c0.1,0.7-0.4,1.4-1.2,1.5C196,203.6,196,203.6,195.9,203.6z M194.6,193
			c-0.7,0-1.2-0.5-1.3-1.2l-0.7-5.3c-0.1-0.7,0.4-1.4,1.2-1.5c0.7-0.1,1.4,0.4,1.5,1.2l0.7,5.3c0.1,0.7-0.4,1.4-1.2,1.5
			C194.7,193,194.7,193,194.6,193z M193.3,182.5c-0.7,0-1.2-0.5-1.3-1.2l-0.7-5.3c-0.1-0.7,0.4-1.4,1.2-1.5c0.7-0.1,1.4,0.4,1.5,1.2
			l0.7,5.3c0.1,0.7-0.4,1.4-1.2,1.5C193.4,182.5,193.4,182.5,193.3,182.5z M192,171.9c-0.7,0-1.2-0.5-1.3-1.2l-0.7-5.3
			c-0.1-0.7,0.4-1.4,1.2-1.5c0.7-0.1,1.4,0.4,1.5,1.2l0.7,5.3c0.1,0.7-0.4,1.4-1.2,1.5C192.1,171.9,192.1,171.9,192,171.9z
			 M190.7,161.4c-0.7,0-1.2-0.5-1.3-1.2l-0.7-5.3c-0.1-0.7,0.4-1.4,1.2-1.5c0.7-0.1,1.4,0.4,1.5,1.2l0.7,5.3
			c0.1,0.7-0.4,1.4-1.2,1.5C190.8,161.4,190.8,161.4,190.7,161.4z M189.4,150.8c-0.7,0-1.2-0.5-1.3-1.2l-0.7-5.3
			c-0.1-0.7,0.4-1.4,1.2-1.5c0.7-0.1,1.4,0.4,1.5,1.2l0.7,5.3c0.1,0.7-0.4,1.4-1.2,1.5C189.5,150.8,189.5,150.8,189.4,150.8z
			 M188.1,140.3c-0.7,0-1.2-0.5-1.3-1.2l-0.7-5.3c-0.1-0.7,0.4-1.4,1.2-1.5c0.7-0.1,1.4,0.4,1.5,1.2l0.7,5.3
			c0.1,0.7-0.4,1.4-1.2,1.5C188.2,140.3,188.2,140.3,188.1,140.3z"/>
	</g>
	<g>
		<path class="st3" d="M333.4,301.6c-0.7,0-1.2-0.5-1.3-1.2l-0.7-5.3c-0.1-0.7,0.4-1.4,1.2-1.5c0.7-0.1,1.4,0.4,1.5,1.2l0.7,5.3
			c0.1,0.7-0.4,1.4-1.2,1.5C333.5,301.6,333.4,301.6,333.4,301.6z M332,291c-0.7,0-1.2-0.5-1.3-1.2l-0.7-5.3
			c-0.1-0.7,0.4-1.4,1.2-1.5c0.7-0.1,1.4,0.4,1.5,1.2l0.7,5.3c0.1,0.7-0.4,1.4-1.2,1.5C332.1,291,332,291,332,291z M330.6,280.5
			c-0.7,0-1.2-0.5-1.3-1.2l-0.7-5.3c-0.1-0.7,0.4-1.4,1.2-1.5c0.7-0.1,1.4,0.4,1.5,1.2l0.7,5.3c0.1,0.7-0.4,1.4-1.2,1.5
			C330.7,280.5,330.7,280.5,330.6,280.5z M329.2,270c-0.7,0-1.2-0.5-1.3-1.2l-0.7-5.3c-0.1-0.7,0.4-1.4,1.2-1.5
			c0.7-0.1,1.4,0.4,1.5,1.2l0.7,5.3c0.1,0.7-0.4,1.4-1.2,1.5C329.3,270,329.3,270,329.2,270z M327.9,259.4c-0.7,0-1.2-0.5-1.3-1.2
			l-0.7-5.3c-0.1-0.7,0.4-1.4,1.2-1.5c0.7-0.1,1.4,0.4,1.5,1.2l0.7,5.3c0.1,0.7-0.4,1.4-1.2,1.5C328,259.4,327.9,259.4,327.9,259.4z
			 M326.5,248.9c-0.7,0-1.2-0.5-1.3-1.2l-0.7-5.3c-0.1-0.7,0.4-1.4,1.2-1.5c0.7-0.1,1.4,0.4,1.5,1.1l0.7,5.3
			c0.1,0.7-0.4,1.4-1.2,1.5C326.6,248.9,326.5,248.9,326.5,248.9z M325.1,238.3c-0.7,0-1.2-0.5-1.3-1.2l-0.7-5.3
			c-0.1-0.7,0.4-1.4,1.2-1.5c0.7-0.1,1.4,0.4,1.5,1.1l0.7,5.3c0.1,0.7-0.4,1.4-1.2,1.5C325.2,238.3,325.2,238.3,325.1,238.3z
			 M323.7,227.8c-0.7,0-1.2-0.5-1.3-1.2l-0.7-5.3c-0.1-0.7,0.4-1.4,1.2-1.5c0.7-0.1,1.4,0.4,1.5,1.2l0.7,5.3
			c0.1,0.7-0.4,1.4-1.2,1.5C323.8,227.8,323.8,227.8,323.7,227.8z M322.4,217.3c-0.7,0-1.2-0.5-1.3-1.2l-0.7-5.3
			c-0.1-0.7,0.4-1.4,1.2-1.5c0.7-0.1,1.4,0.4,1.5,1.1l0.7,5.3c0.1,0.7-0.4,1.4-1.2,1.5C322.5,217.3,322.4,217.3,322.4,217.3z
			 M321,206.7c-0.7,0-1.2-0.5-1.3-1.2l-0.7-5.3c-0.1-0.7,0.4-1.4,1.2-1.5c0.7-0.1,1.4,0.4,1.5,1.1l0.7,5.3c0.1,0.7-0.4,1.4-1.2,1.5
			C321.1,206.7,321,206.7,321,206.7z M319.6,196.2c-0.7,0-1.2-0.5-1.3-1.2l-0.7-5.3c-0.1-0.7,0.4-1.4,1.2-1.5
			c0.7-0.1,1.4,0.4,1.5,1.2l0.7,5.3c0.1,0.7-0.4,1.4-1.2,1.5C319.7,196.2,319.7,196.2,319.6,196.2z M318.2,185.6
			c-0.7,0-1.2-0.5-1.3-1.2l-0.7-5.3c-0.1-0.7,0.4-1.4,1.2-1.5c0.7-0.1,1.4,0.4,1.5,1.1l0.7,5.3c0.1,0.7-0.4,1.4-1.2,1.5
			C318.3,185.6,318.3,185.6,318.2,185.6z"/>
	</g>
	<g>
		<path class="st3" d="M269.9,298.2c-0.7,0-1.2-0.5-1.3-1.2l-0.6-5.3c-0.1-0.7,0.4-1.4,1.2-1.5c0.7-0.1,1.4,0.4,1.5,1.2l0.6,5.3
			c0.1,0.7-0.4,1.4-1.2,1.5C270,298.2,270,298.2,269.9,298.2z M268.6,287.6c-0.7,0-1.2-0.5-1.3-1.2l-0.6-5.3
			c-0.1-0.7,0.4-1.4,1.2-1.5c0.7-0.1,1.4,0.4,1.5,1.2l0.6,5.3c0.1,0.7-0.4,1.4-1.2,1.5C268.8,287.6,268.7,287.6,268.6,287.6z
			 M267.4,277.1c-0.7,0-1.2-0.5-1.3-1.2l-0.6-5.3c-0.1-0.7,0.4-1.4,1.2-1.5c0.7-0.1,1.4,0.4,1.5,1.2l0.6,5.3
			c0.1,0.7-0.4,1.4-1.2,1.5C267.5,277.1,267.4,277.1,267.4,277.1z M266.1,266.5c-0.7,0-1.2-0.5-1.3-1.2l-0.6-5.3
			c-0.1-0.7,0.4-1.4,1.2-1.5c0.7-0.1,1.4,0.4,1.5,1.2l0.6,5.3c0.1,0.7-0.4,1.4-1.2,1.5C266.2,266.5,266.2,266.5,266.1,266.5z
			 M264.8,256c-0.7,0-1.2-0.5-1.3-1.2l-0.6-5.3c-0.1-0.7,0.4-1.4,1.2-1.5c0.7-0.1,1.4,0.4,1.5,1.2l0.6,5.3c0.1,0.7-0.4,1.4-1.2,1.5
			C265,256,264.9,256,264.8,256z M263.6,245.4c-0.7,0-1.2-0.5-1.3-1.2l-0.6-5.3c-0.1-0.7,0.4-1.4,1.2-1.5c0.7-0.1,1.4,0.4,1.5,1.2
			l0.6,5.3c0.1,0.7-0.4,1.4-1.2,1.5C263.7,245.4,263.6,245.4,263.6,245.4z M262.3,234.8c-0.7,0-1.2-0.5-1.3-1.2l-0.6-5.3
			c-0.1-0.7,0.4-1.4,1.2-1.5c0.7-0.1,1.4,0.4,1.5,1.2l0.6,5.3c0.1,0.7-0.4,1.4-1.2,1.5C262.4,234.8,262.4,234.8,262.3,234.8z
			 M261.1,224.3c-0.7,0-1.2-0.5-1.3-1.2l-0.6-5.3c-0.1-0.7,0.4-1.4,1.2-1.5c0.7-0.1,1.4,0.4,1.5,1.2l0.6,5.3
			c0.1,0.7-0.4,1.4-1.2,1.5C261.2,224.3,261.1,224.3,261.1,224.3z M259.8,213.7c-0.7,0-1.2-0.5-1.3-1.2l-0.6-5.3
			c-0.1-0.7,0.4-1.4,1.2-1.5c0.7-0.1,1.4,0.4,1.5,1.2l0.6,5.3c0.1,0.7-0.4,1.4-1.2,1.5C259.9,213.7,259.8,213.7,259.8,213.7z
			 M258.5,203.2c-0.7,0-1.2-0.5-1.3-1.2l-0.6-5.3c-0.1-0.7,0.4-1.4,1.2-1.5c0.7-0.1,1.4,0.4,1.5,1.2l0.6,5.3
			c0.1,0.7-0.4,1.4-1.2,1.5C258.6,203.2,258.6,203.2,258.5,203.2z M257.3,192.6c-0.7,0-1.2-0.5-1.3-1.2l-0.6-5.3
			c-0.1-0.7,0.4-1.4,1.2-1.5c0.7-0.1,1.4,0.4,1.5,1.2l0.6,5.3c0.1,0.7-0.4,1.4-1.2,1.5C257.4,192.6,257.3,192.6,257.3,192.6z
			 M256,182.1c-0.7,0-1.2-0.5-1.3-1.2l-0.6-5.3c-0.1-0.7,0.4-1.4,1.2-1.5c0.7-0.1,1.4,0.4,1.5,1.2l0.6,5.3c0.1,0.7-0.4,1.4-1.2,1.5
			C256.1,182.1,256,182.1,256,182.1z M254.7,171.5c-0.7,0-1.2-0.5-1.3-1.2l-0.6-5.3c-0.1-0.7,0.4-1.4,1.2-1.5
			c0.7-0.1,1.4,0.4,1.5,1.2l0.6,5.3c0.1,0.7-0.4,1.4-1.2,1.5C254.8,171.5,254.8,171.5,254.7,171.5z M253.5,161
			c-0.7,0-1.2-0.5-1.3-1.2l-0.6-5.3c-0.1-0.7,0.4-1.4,1.2-1.5c0.7-0.1,1.4,0.4,1.5,1.2l0.6,5.3c0.1,0.7-0.4,1.4-1.2,1.5
			C253.6,161,253.5,161,253.5,161z"/>
	</g>
	<g>
		<path class="st3" d="M100.1,196.4c-0.5,0-1-0.3-1.2-0.7c-0.3-0.7,0-1.5,0.6-1.8l4.8-2.3c0.7-0.3,1.5,0,1.8,0.6
			c0.3,0.7,0,1.5-0.6,1.8l-4.8,2.3C100.5,196.3,100.3,196.4,100.1,196.4z M109.6,191.7c-0.5,0-1-0.3-1.2-0.7c-0.3-0.7,0-1.5,0.6-1.8
			l4.8-2.3c0.7-0.3,1.5,0,1.8,0.6c0.3,0.7,0,1.5-0.6,1.8l-4.8,2.3C110,191.7,109.8,191.7,109.6,191.7z M119.2,187
			c-0.5,0-1-0.3-1.2-0.7c-0.3-0.7,0-1.5,0.6-1.8l4.8-2.3c0.7-0.3,1.5,0,1.8,0.6c0.3,0.7,0,1.5-0.6,1.8l-4.8,2.3
			C119.6,187,119.4,187,119.2,187z M128.7,182.4c-0.5,0-1-0.3-1.2-0.7c-0.3-0.7,0-1.5,0.6-1.8l4.8-2.3c0.7-0.3,1.5,0,1.8,0.6
			c0.3,0.7,0,1.5-0.6,1.8l-4.8,2.3C129.1,182.3,128.9,182.4,128.7,182.4z M138.3,177.7c-0.5,0-1-0.3-1.2-0.7c-0.3-0.7,0-1.5,0.6-1.8
			l4.8-2.3c0.7-0.3,1.5,0,1.8,0.6c0.3,0.7,0,1.5-0.6,1.8l-4.8,2.3C138.7,177.7,138.5,177.7,138.3,177.7z M147.8,173.1
			c-0.5,0-1-0.3-1.2-0.7c-0.3-0.7,0-1.5,0.6-1.8l4.8-2.3c0.7-0.3,1.5,0,1.8,0.6c0.3,0.7,0,1.5-0.6,1.8l-4.8,2.3
			C148.2,173,148,173.1,147.8,173.1z M157.4,168.4c-0.5,0-1-0.3-1.2-0.7c-0.3-0.7,0-1.5,0.6-1.8l4.8-2.3c0.7-0.3,1.5,0,1.8,0.6
			c0.3,0.7,0,1.5-0.6,1.8l-4.8,2.3C157.8,168.4,157.6,168.4,157.4,168.4z M167,163.7c-0.5,0-1-0.3-1.2-0.7c-0.3-0.7,0-1.5,0.6-1.8
			l4.8-2.3c0.7-0.3,1.5,0,1.8,0.6c0.3,0.7,0,1.5-0.6,1.8l-4.8,2.3C167.4,163.7,167.2,163.7,167,163.7z M176.5,159.1
			c-0.5,0-1-0.3-1.2-0.7c-0.3-0.7,0-1.5,0.6-1.8l4.8-2.3c0.7-0.3,1.5,0,1.8,0.6c0.3,0.7,0,1.5-0.6,1.8l-4.8,2.3
			C176.9,159,176.7,159.1,176.5,159.1z M186.1,154.4c-0.5,0-1-0.3-1.2-0.7c-0.3-0.7,0-1.5,0.6-1.8l4.8-2.3c0.7-0.3,1.5,0,1.8,0.6
			c0.3,0.7,0,1.5-0.6,1.8l-4.8,2.3C186.5,154.4,186.3,154.4,186.1,154.4z M195.6,149.8c-0.5,0-1-0.3-1.2-0.7c-0.3-0.7,0-1.5,0.6-1.8
			l4.8-2.3c0.7-0.3,1.5,0,1.8,0.6c0.3,0.7,0,1.5-0.6,1.8l-4.8,2.3C196,149.7,195.8,149.8,195.6,149.8z M205.2,145.1
			c-0.5,0-1-0.3-1.2-0.7c-0.3-0.7,0-1.5,0.6-1.8l4.3-2.1c0.7-0.3,1.5,0,1.8,0.6c0.3,0.7,0,1.5-0.6,1.8l-4.3,2.1
			C205.6,145.1,205.4,145.1,205.2,145.1z"/>
	</g>
	<g>
		<path class="st3" d="M158.1,242.4c-0.5,0-1-0.3-1.2-0.7c-0.3-0.7-0.1-1.5,0.6-1.8l4.8-2.4c0.7-0.3,1.5-0.1,1.8,0.6
			c0.3,0.7,0.1,1.5-0.6,1.8l-4.8,2.4C158.5,242.4,158.3,242.4,158.1,242.4z M167.6,237.6c-0.5,0-1-0.3-1.2-0.7
			c-0.3-0.7-0.1-1.5,0.6-1.8l4.8-2.4c0.7-0.3,1.5-0.1,1.8,0.6c0.3,0.7,0.1,1.5-0.6,1.8l-4.8,2.4C168,237.6,167.8,237.6,167.6,237.6z
			 M177.1,232.9c-0.5,0-1-0.3-1.2-0.7c-0.3-0.7-0.1-1.5,0.6-1.8l4.8-2.4c0.7-0.3,1.5-0.1,1.8,0.6c0.3,0.7,0.1,1.5-0.6,1.8l-4.8,2.4
			C177.5,232.8,177.3,232.9,177.1,232.9z M186.6,228.1c-0.5,0-1-0.3-1.2-0.7c-0.3-0.7-0.1-1.5,0.6-1.8l4.8-2.4
			c0.7-0.3,1.5-0.1,1.8,0.6c0.3,0.7,0.1,1.5-0.6,1.8l-4.8,2.4C187,228.1,186.8,228.1,186.6,228.1z M196.1,223.4
			c-0.5,0-1-0.3-1.2-0.7c-0.3-0.7-0.1-1.5,0.6-1.8l4.8-2.4c0.7-0.3,1.5-0.1,1.8,0.6c0.3,0.7,0.1,1.5-0.6,1.8l-4.8,2.4
			C196.5,223.3,196.3,223.4,196.1,223.4z M205.7,218.6c-0.5,0-1-0.3-1.2-0.7c-0.3-0.7-0.1-1.5,0.6-1.8l4.8-2.4
			c0.7-0.3,1.5-0.1,1.8,0.6c0.3,0.7,0.1,1.5-0.6,1.8l-4.8,2.4C206.1,218.6,205.9,218.6,205.7,218.6z M215.2,213.9
			c-0.5,0-1-0.3-1.2-0.7c-0.3-0.7-0.1-1.5,0.6-1.8l4.8-2.4c0.7-0.3,1.5-0.1,1.8,0.6c0.3,0.7,0.1,1.5-0.6,1.8l-4.8,2.4
			C215.6,213.8,215.4,213.9,215.2,213.9z M224.7,209.1c-0.5,0-1-0.3-1.2-0.7c-0.3-0.7-0.1-1.5,0.6-1.8l4.8-2.4
			c0.7-0.3,1.5-0.1,1.8,0.6c0.3,0.7,0.1,1.5-0.6,1.8l-4.8,2.4C225.1,209.1,224.9,209.1,224.7,209.1z M234.2,204.4
			c-0.5,0-1-0.3-1.2-0.7c-0.3-0.7-0.1-1.5,0.6-1.8l4.8-2.4c0.7-0.3,1.5-0.1,1.8,0.6c0.3,0.7,0.1,1.5-0.6,1.8l-4.8,2.4
			C234.6,204.3,234.4,204.4,234.2,204.4z M243.7,199.6c-0.5,0-1-0.3-1.2-0.7c-0.3-0.7-0.1-1.5,0.6-1.8l4.8-2.4
			c0.7-0.3,1.5-0.1,1.8,0.6c0.3,0.7,0.1,1.5-0.6,1.8l-4.8,2.4C244.1,199.6,243.9,199.6,243.7,199.6z M253.2,194.9
			c-0.5,0-1-0.3-1.2-0.7c-0.3-0.7-0.1-1.5,0.6-1.8l4.8-2.4c0.7-0.3,1.5-0.1,1.8,0.6c0.3,0.7,0.1,1.5-0.6,1.8l-4.8,2.4
			C253.6,194.8,253.4,194.9,253.2,194.9z M262.7,190.1c-0.5,0-1-0.3-1.2-0.7c-0.3-0.7-0.1-1.5,0.6-1.8l4.8-2.4
			c0.7-0.3,1.5-0.1,1.8,0.6c0.3,0.7,0.1,1.5-0.6,1.8l-4.8,2.4C263.1,190.1,262.9,190.1,262.7,190.1z M272.2,185.3
			c-0.5,0-1-0.3-1.2-0.7c-0.3-0.7-0.1-1.5,0.6-1.8l4.8-2.4c0.7-0.3,1.5-0.1,1.8,0.6c0.3,0.7,0.1,1.5-0.6,1.8l-4.8,2.4
			C272.6,185.3,272.4,185.3,272.2,185.3z M281.7,180.6c-0.5,0-1-0.3-1.2-0.7c-0.3-0.7-0.1-1.5,0.6-1.8l4.8-2.4
			c0.7-0.3,1.5-0.1,1.8,0.6c0.3,0.7,0.1,1.5-0.6,1.8l-4.8,2.4C282.1,180.5,281.9,180.6,281.7,180.6z M291.2,175.8
			c-0.5,0-1-0.3-1.2-0.7c-0.3-0.7-0.1-1.5,0.6-1.8l4.3-2.1c0.7-0.3,1.5-0.1,1.8,0.6c0.3,0.7,0.1,1.5-0.6,1.8l-4.3,2.1
			C291.6,175.8,291.4,175.8,291.2,175.8z"/>
	</g>
	<g>
		<path class="st3" d="M325.5,302.4c-0.5,0-1-0.3-1.2-0.7c-0.3-0.7-0.1-1.5,0.6-1.8l4.7-2.4c0.6-0.3,1.5-0.1,1.8,0.6
			c0.3,0.7,0.1,1.5-0.6,1.8l-4.7,2.4C326,302.4,325.8,302.4,325.5,302.4z M335,297.6c-0.5,0-1-0.3-1.2-0.7c-0.3-0.7-0.1-1.5,0.6-1.8
			l4.7-2.4c0.6-0.3,1.5-0.1,1.8,0.6c0.3,0.7,0.1,1.5-0.6,1.8l-4.7,2.4C335.4,297.6,335.2,297.6,335,297.6z M344.5,292.8
			c-0.5,0-1-0.3-1.2-0.7c-0.3-0.7-0.1-1.5,0.6-1.8l4.7-2.4c0.6-0.3,1.5-0.1,1.8,0.6c0.3,0.7,0.1,1.5-0.6,1.8l-4.7,2.4
			C344.9,292.7,344.7,292.8,344.5,292.8z M354,288c-0.5,0-1-0.3-1.2-0.7c-0.3-0.7-0.1-1.5,0.6-1.8l4.7-2.4c0.7-0.3,1.5-0.1,1.8,0.6
			c0.3,0.7,0.1,1.5-0.6,1.8l-4.7,2.4C354.4,287.9,354.2,288,354,288z M363.4,283.1c-0.5,0-1-0.3-1.2-0.7c-0.3-0.7-0.1-1.5,0.6-1.8
			l4.7-2.4c0.7-0.3,1.5-0.1,1.8,0.6c0.3,0.7,0.1,1.5-0.6,1.8L364,283C363.8,283.1,363.6,283.1,363.4,283.1z M372.9,278.3
			c-0.5,0-1-0.3-1.2-0.7c-0.3-0.7-0.1-1.5,0.6-1.8l4.7-2.4c0.7-0.3,1.5-0.1,1.8,0.6c0.3,0.7,0.1,1.5-0.6,1.8l-4.7,2.4
			C373.3,278.3,373.1,278.3,372.9,278.3z M382.4,273.5c-0.5,0-1-0.3-1.2-0.7c-0.3-0.7-0.1-1.5,0.6-1.8l4.7-2.4
			c0.7-0.3,1.5-0.1,1.8,0.6c0.3,0.7,0.1,1.5-0.6,1.8l-4.7,2.4C382.8,273.4,382.6,273.5,382.4,273.5z M391.9,268.6
			c-0.5,0-1-0.3-1.2-0.7c-0.3-0.7-0.1-1.5,0.6-1.8l4.7-2.4c0.6-0.3,1.5-0.1,1.8,0.6c0.3,0.7,0.1,1.5-0.6,1.8l-4.7,2.4
			C392.3,268.6,392.1,268.6,391.9,268.6z M401.3,263.8c-0.5,0-1-0.3-1.2-0.7c-0.3-0.7-0.1-1.5,0.6-1.8l4.7-2.4
			c0.6-0.3,1.5-0.1,1.8,0.6c0.3,0.7,0.1,1.5-0.6,1.8l-4.7,2.4C401.7,263.8,401.5,263.8,401.3,263.8z M410.8,259
			c-0.5,0-1-0.3-1.2-0.7c-0.3-0.7-0.1-1.5,0.6-1.8l4.7-2.4c0.7-0.3,1.5-0.1,1.8,0.6c0.3,0.7,0.1,1.5-0.6,1.8l-4.7,2.4
			C411.2,258.9,411,259,410.8,259z M420.3,254.2c-0.5,0-1-0.3-1.2-0.7c-0.3-0.7-0.1-1.5,0.6-1.8l4.7-2.4c0.6-0.3,1.5-0.1,1.8,0.6
			c0.3,0.7,0.1,1.5-0.6,1.8l-4.7,2.4C420.7,254.1,420.5,254.2,420.3,254.2z"/>
	</g>
	<g>
		<path class="st3" d="M217.5,285.1c-0.5,0-1-0.3-1.2-0.7c-0.3-0.7-0.1-1.5,0.6-1.8l4.8-2.4c0.7-0.3,1.5-0.1,1.8,0.6
			c0.3,0.7,0.1,1.5-0.6,1.8l-4.8,2.4C217.9,285,217.7,285.1,217.5,285.1z M227,280.3c-0.5,0-1-0.3-1.2-0.7c-0.3-0.7-0.1-1.5,0.6-1.8
			l4.8-2.4c0.7-0.3,1.5-0.1,1.8,0.6c0.3,0.7,0.1,1.5-0.6,1.8l-4.8,2.4C227.4,280.3,227.2,280.3,227,280.3z M236.5,275.6
			c-0.5,0-1-0.3-1.2-0.7c-0.3-0.7-0.1-1.5,0.6-1.8l4.8-2.4c0.7-0.3,1.5-0.1,1.8,0.6c0.3,0.7,0.1,1.5-0.6,1.8l-4.8,2.4
			C236.9,275.5,236.7,275.6,236.5,275.6z M246,270.8c-0.5,0-1-0.3-1.2-0.7c-0.3-0.7-0.1-1.5,0.6-1.8l4.8-2.4
			c0.7-0.3,1.5-0.1,1.8,0.6c0.3,0.7,0.1,1.5-0.6,1.8l-4.8,2.4C246.4,270.7,246.2,270.8,246,270.8z M255.5,266c-0.5,0-1-0.3-1.2-0.7
			c-0.3-0.7-0.1-1.5,0.6-1.8l4.8-2.4c0.7-0.3,1.5-0.1,1.8,0.6c0.3,0.7,0.1,1.5-0.6,1.8l-4.8,2.4C255.9,266,255.7,266,255.5,266z
			 M265,261.2c-0.5,0-1-0.3-1.2-0.7c-0.3-0.7-0.1-1.5,0.6-1.8l4.8-2.4c0.7-0.3,1.5-0.1,1.8,0.6c0.3,0.7,0.1,1.5-0.6,1.8l-4.8,2.4
			C265.4,261.2,265.2,261.2,265,261.2z M274.5,256.5c-0.5,0-1-0.3-1.2-0.7c-0.3-0.7-0.1-1.5,0.6-1.8l4.8-2.4
			c0.7-0.3,1.5-0.1,1.8,0.6c0.3,0.7,0.1,1.5-0.6,1.8l-4.8,2.4C274.9,256.4,274.7,256.5,274.5,256.5z M284,251.7
			c-0.5,0-1-0.3-1.2-0.7c-0.3-0.7-0.1-1.5,0.6-1.8l4.8-2.4c0.7-0.3,1.5-0.1,1.8,0.6c0.3,0.7,0.1,1.5-0.6,1.8l-4.8,2.4
			C284.4,251.7,284.2,251.7,284,251.7z M293.5,246.9c-0.5,0-1-0.3-1.2-0.7c-0.3-0.7-0.1-1.5,0.6-1.8l4.8-2.4
			c0.7-0.3,1.5-0.1,1.8,0.6c0.3,0.7,0.1,1.5-0.6,1.8l-4.8,2.4C293.9,246.9,293.7,246.9,293.5,246.9z M303,242.2
			c-0.5,0-1-0.3-1.2-0.7c-0.3-0.7-0.1-1.5,0.6-1.8l4.8-2.4c0.7-0.3,1.5-0.1,1.8,0.6c0.3,0.7,0.1,1.5-0.6,1.8l-4.8,2.4
			C303.4,242.1,303.2,242.2,303,242.2z M312.5,237.4c-0.5,0-1-0.3-1.2-0.7c-0.3-0.7-0.1-1.5,0.6-1.8l4.8-2.4
			c0.7-0.3,1.5-0.1,1.8,0.6c0.3,0.7,0.1,1.5-0.6,1.8l-4.8,2.4C312.9,237.4,312.7,237.4,312.5,237.4z M322,232.6
			c-0.5,0-1-0.3-1.2-0.7c-0.3-0.7-0.1-1.5,0.6-1.8l4.8-2.4c0.7-0.3,1.5-0.1,1.8,0.6c0.3,0.7,0.1,1.5-0.6,1.8l-4.8,2.4
			C322.4,232.6,322.2,232.6,322,232.6z M331.5,227.9c-0.5,0-1-0.3-1.2-0.7c-0.3-0.7-0.1-1.5,0.6-1.8l4.7-2.4
			c0.7-0.3,1.5-0.1,1.8,0.6c0.3,0.7,0.1,1.5-0.6,1.8l-4.8,2.4C331.9,227.8,331.7,227.9,331.5,227.9z M341,223.1
			c-0.5,0-1-0.3-1.2-0.7c-0.3-0.7-0.1-1.5,0.6-1.8l4.8-2.4c0.7-0.3,1.5-0.1,1.8,0.6c0.3,0.7,0.1,1.5-0.6,1.8l-4.8,2.4
			C341.4,223,341.2,223.1,341,223.1z M350.5,218.3c-0.5,0-1-0.3-1.2-0.7c-0.3-0.7-0.1-1.5,0.6-1.8l4.8-2.4c0.7-0.3,1.5-0.1,1.8,0.6
			c0.3,0.7,0.1,1.5-0.6,1.8l-4.8,2.4C350.9,218.3,350.7,218.3,350.5,218.3z M360,213.5c-0.5,0-1-0.3-1.2-0.7
			c-0.3-0.7-0.1-1.5,0.6-1.8l4.8-2.4c0.7-0.3,1.5-0.1,1.8,0.6c0.3,0.7,0.1,1.5-0.6,1.8l-4.8,2.4C360.4,213.5,360.2,213.5,360,213.5z
			 M369.5,208.8c-0.5,0-1-0.3-1.2-0.7c-0.3-0.7-0.1-1.5,0.6-1.8l4.7-2.4c0.7-0.3,1.5-0.1,1.8,0.6c0.3,0.7,0.1,1.5-0.6,1.8l-4.7,2.4
			C369.9,208.7,369.7,208.8,369.5,208.8z M379,204c-0.5,0-1-0.3-1.2-0.7c-0.3-0.7-0.1-1.5,0.6-1.8l3.3-1.6c0.7-0.3,1.5-0.1,1.8,0.6
			c0.3,0.7,0.1,1.5-0.6,1.8l-3.3,1.6C379.4,204,379.2,204,379,204z"/>
	</g>
	<g>
		<g>
			<path class="st1" d="M256.6,279.9c-3.2,9.3-13.1,14.3-22.2,11.2c-9-3.1-13.7-13.2-10.5-22.5c3.2-9.3,13.1-14.3,22.2-11.2
				C255.1,260.5,259.8,270.6,256.6,279.9z"/>
		</g>
		<g>
			<path class="st3" d="M254,279.1c-2.7,7.9-11.1,12.1-18.7,9.5c-7.6-2.6-11.6-11.1-8.9-19c2.7-7.9,11.1-12.1,18.7-9.5
				C252.8,262.7,256.8,271.2,254,279.1z"/>
		</g>
		<g>
			<g>
				<path class="st4" d="M253.4,278.4c-2.6,7.4-10.5,11.5-17.7,9c-7.2-2.5-11-10.6-8.4-18c2.6-7.4,10.5-11.5,17.7-9
					C252.2,262.9,256,271,253.4,278.4z"/>
			</g>
			<g>
				<path class="st5" d="M252.3,278c-2.4,6.8-9.6,10.5-16.3,8.2c-6.6-2.3-10.1-9.7-7.7-16.5c2.4-6.8,9.6-10.5,16.3-8.2
					C251.2,263.8,254.7,271.2,252.3,278z"/>
			</g>
			<g>
				<path class="st6" d="M250.3,273.3c-1.2,3.6-6.1,5.1-10.9,3.4c-4.8-1.7-7.7-5.9-6.5-9.5c1.2-3.6,6.1-5.1,11-3.4
					C248.6,265.4,251.5,269.7,250.3,273.3z"/>
			</g>
			<g>
				<path class="st6" d="M242,281.4c-0.4,1.2-2.5,1.7-4.6,0.9c-2.1-0.7-3.5-2.3-3-3.6c0.4-1.2,2.5-1.7,4.6-0.9
					C241.1,278.6,242.4,280.2,242,281.4z"/>
			</g>
		</g>
	</g>
</g>
</svg>
