<?xml version="1.0" encoding="utf-8"?>
<!-- Generator: Adobe Illustrator 24.0.2, SVG Export Plug-In . SVG Version: 6.00 Build 0)  -->
<svg version="1.1" id="Layer_1" xmlns="http://www.w3.org/2000/svg" xmlns:xlink="http://www.w3.org/1999/xlink" x="0px" y="0px"
	 viewBox="0 0 500 500" style="enable-background:new 0 0 500 500;" xml:space="preserve">
<style type="text/css">
	.st0{fill-rule:evenodd;clip-rule:evenodd;fill:#7ECCCB;}
	.st1{fill-rule:evenodd;clip-rule:evenodd;fill:#54AAAA;}
</style>
<g>
	<path class="st0" d="M253.8,49.4c-26.6,0.4-51.4-6.2-62-16.8c-10.6-10.6-12.4-23-23.9-18.6c-11.5,4.4-37.2,9.8-44.3,15.1
		c-7.1,5.3-20.4,49.6-25.7,86.9c-5.3,37.2-12.4,120.5-16.8,182.6c-4.4,62-1.8,113.4-2.7,122.3c-0.9,8.9-6.2,30.1,13.3,26.6
		c19.5-3.5,26.6-3.5,31.9-6.2c5.3-2.7,5.3,8.9,1.8,17.7c-3.5,8.9,1.8,19.5,16,19.5c14.2,0,32.8,11.5,48.7,8
		c16-3.5,30.1-11.5,48.7-9.7c18.6,1.8,40.8,4.4,55.8,0c15.1-4.4,23,9.7,47.9,6.2c24.8-3.5,37.2-13.3,36.3-23
		c-0.9-9.7-2.7-6.2,12.4-6.2s28.4,0,29.2-14.2c0.9-14.2,2.7-126.7,2.7-167.5c0-40.8-8-164-12.4-191.4c-4.4-27.5-13.3-53.2-39-60.3
		C345.9,13.1,345,7.7,330,23.7C314.9,39.6,293.7,48.9,253.8,49.4z"/>
	<path class="st1" d="M253.8,49.4c-26.6,0.4-51.4-6.2-62-16.8c-9.8-9.8-12.1-21.2-21.5-19.3c-0.1,24.3,8.7,75.2,25,108
		c17.7,35.5,54.1,90.4,67.4,89.5c13.3-0.9,37.2-50.5,54.9-88.6c13.3-28.7,19.1-74.8,18.9-104.7c-1.9,1.6-4,3.6-6.5,6.3
		C314.9,39.6,293.7,48.9,253.8,49.4z"/>
	<path class="st1" d="M124.1,440.9c1.8-0.6,2.9,0.7,3.4,2.9c3-41.3,11.1-140,10.2-193.2c-0.8-53.3-7.2-112.6-10.8-133.8
		c-3.5-21.3-5.7-14.4,0,27.5c5.6,41.8,2.3,120.3,1.4,159.1C127.3,342.2,127.1,412.6,124.1,440.9z"/>
	<path class="st1" d="M378.4,463.5c0.3-1.3,0.5-2.5,0.3-3.8c-0.2-2-0.4-3.4-0.5-4.4C378.3,458.3,378.3,461,378.4,463.5L378.4,463.5z
		 M378.2,453.7c0.2-1.1,1.3-0.9,4.6-0.6c-0.8-50.3,2-192.6,2-220.3c0-32.2,1.3-69.4,8.2-100.9c6.9-31.5,0.6-23.3-1.9-8.2
		c-2.5,15.1-12.6,40.4-12.6,51.1c0,10.7,2.5,42.3,2.5,87S379.1,439.1,378.2,453.7L378.2,453.7z"/>
	<path class="st1" d="M236,476.4c0.9,0,1.8,0.1,2.7,0.2c7.1,0.7,14.7,1.5,22.3,2c6.9-102-10-92.1-10.6-76.6
		C249.8,415.7,241.1,451.5,236,476.4L236,476.4z M313.5,478.9c6.3,2.3,13.4,4.9,23.8,4.4c-3.6-33.8-6.2-72.3-9.3-88.9
		C324.1,373.2,317.5,433.3,313.5,478.9z"/>
</g>
</svg>
