<svg height="490pt" viewBox="-56 0 490 490.216" width="490pt" xmlns="http://www.w3.org/2000/svg"><path d="m229.523438 34.214844 2.878906.722656c-2.636719 9.597656-6 18.957031-10.078125 28.078125-7.441407 16.71875-17.199219 32.480469-29.039063 46.640625l-3.761718 4.558594-3.757813-4.558594c-18.242187-21.921875-31.601563-47.359375-39.121094-74.71875l2.878907-.722656zm0 0" fill="#f0bc5e"/><path d="m341.171875 406.929688c-2.191406 1.511718-4.289063 3.175781-6.207031 5.046874-3.121094 3.199219-5.761719 6.960938-7.839844 11.039063-2.960938 5.921875-7.441406 10.71875-12.800781 14-5.441407 3.359375-11.679688 5.199219-18.238281 5.199219-6.882813 0-13.601563-2-19.28125-5.839844l-5.761719-3.839844c-6.238281-4.078125-13.519531-6.320312-20.957031-6.320312-8.160157 0-16.082032 2.640625-22.640626 7.519531l-9.121093 6.882813c-8.320313 6.238281-18.398438 9.597656-28.800781 9.597656-10.398438 0-20.480469-3.359375-28.800782-9.597656l-9.117187-6.882813c-6.5625-4.878906-14.480469-7.519531-22.640625-7.519531-7.441406 0-14.722656 2.242187-20.960938 6.320312l-5.679687 3.839844c-5.761719 3.761719-12.480469 5.839844-19.359375 5.839844-6.5625 0-12.878906-1.839844-18.320313-5.117188-5.359375-3.363281-9.839843-8.082031-12.878906-13.921875l-.5625-1.199219c-1.839844-3.679687-4.238281-7.039062-7.117187-9.921874-1.867188-1.933594-3.953126-3.621094-6.144532-5.167969l-37.832031 47.289062 20.246094 6.746094c8.410156 2.804687 16.175781 7.613281 22.480469 13.910156 9.769531 9.777344 23.3125 15.382813 37.167968 15.382813 10.390625 0 20.496094-3.0625 29.0625-8.75l1.714844-1.089844c10.679688-7.167969 25.039062-8.085938 36.574219-2.304688l8.320312 4.203126c21.425781 10.527343 46.199219 10.566406 67.785157-.042969l8.207031-4.152344c11.601562-5.8125 25.777343-4.964844 36.808593 2.425781l1.351563.839844c8.726563 5.808594 18.832031 8.871094 29.214844 8.871094 13.847656 0 27.402343-5.605469 37.167969-15.382813 6.296874-6.296875 14.074218-11.113281 22.480468-13.902343l20.242188-6.746094zm0 0" fill="#f0bc5e"/><path d="m312.730469 294.320312c-13.039063-30.96875-33.503907-58.433593-59.207031-79.792968v-41.503906l15.433593-19.304688c10.679688-13.269531 16.566407-30.015625 16.566407-47.183594 0-6.3125-.75-12.496094-2.246094-18.367187-1-3.960938-1.511719-8.167969-1.511719-12.511719 0-9.34375 2.535156-18.480469 7.34375-26.457031l16.621094-27.824219-74.832031-21.375-1.292969 9.078125c-1.175781 8.226563-2.832031 16.203125-4.921875 23.730469-2.519532 9.167968-5.777344 18.230468-9.671875 26.953125-6.6875 15.046875-15.246094 29.101562-25.488281 41.855469-16.429688-20.511719-28.253907-43.648438-35.175782-68.824219-2.078125-7.503907-3.734375-15.488281-4.910156-23.714844l-1.296875-9.078125-74.832031 21.375 16.640625 27.847656c7 11.59375 9.117187 25.800782 5.816406 38.9375-1.488281 5.886719-2.242187 12.0625-2.242187 18.375 0 17.167969 5.886718 33.914063 16.550781 47.152344l15.449219 19.335938v41.503906c-25.710938 21.359375-46.175782 48.824218-59.207032 79.785156l-47.3125 112.261719 7.503906 3.058593c4.503907 1.832032 8.472657 4.503907 11.921876 8.09375 2.246093 2.242188 4.140624 4.882813 5.511718 7.617188l.71875 1.527344c3.625 6.945312 9.054688 12.832031 15.847656 17.082031 14.039063 8.460937 32.199219 8.253906 46.28125-.945313l5.582032-3.777343c10.585937-6.917969 24.554687-6.4375 34.402344.898437l9.152343 6.886719c9.765625 7.328125 21.382813 11.199219 33.597657 11.199219 12.214843 0 23.832031-3.871094 33.617187-11.207032l9.078125-6.847656c9.921875-7.382812 23.921875-7.808594 34.386719-.960937l5.710937 3.808593c13.40625 9.089844 32.121094 9.511719 46.175782.839844 6.742187-4.121094 12.199218-10.085937 15.761718-17.191406 1.75-3.449219 3.917969-6.503906 6.300782-8.945312 2.921874-2.855469 6.050781-5.109376 9.351562-6.726563l9.898438-4.960937zm-190.175781-150.648437c-8.398438-10.425781-13.03125-23.617187-13.03125-37.136719 0-4.984375.59375-9.839844 1.761718-14.445312 4.335938-17.273438 1.558594-35.90625-7.609375-51.097656l-5.945312-9.945313 37.355469-10.679687c1.070312 5.738281 2.351562 11.320312 3.839843 16.679687 7.847657 28.570313 21.535157 54.722656 40.664063 77.6875l9.933594 12.058594 9.898437-12.007813c12.222656-14.617187 22.390625-30.945312 30.207031-48.503906 4.222656-9.449219 7.75-19.273438 10.480469-29.203125 1.496094-5.375 2.78125-10.964844 3.847656-16.703125l37.351563 10.679688-5.921875 9.914062c-6.300781 10.4375-9.628907 22.429688-9.628907 34.6875 0 5.671875.671876 11.207031 2.007813 16.457031 1.167969 4.582031 1.757813 9.4375 1.757813 14.421875 0 13.519532-4.632813 26.710938-13.046876 37.167969l-18.953124 23.703125v10.808594h-96v-10.808594zm46.058593 66.542969h-27.089843v-16h48c4.410156 0 8 3.585937 8 8 0 2.136718-.816407 4.105468-2.449219 5.707031-1.445313 1.46875-3.414063 2.292969-5.550781 2.292969zm43.4375-16h25.472657v16h-25.457032c.898438-2.535156 1.457032-5.207032 1.457032-8 0-2.816406-.574219-5.488282-1.472657-8zm117.183594 212.167968c-3.636719 3.746094-6.75 8.113282-9.261719 13.050782-2.242187 4.476562-5.632812 8.191406-9.847656 10.773437-8.863281 5.457031-20.488281 5.175781-28.882812-.496093l-5.8125-3.871094c-16.113282-10.535156-37.515626-9.871094-52.792969 1.503906l-9.113281 6.871094c-13.953126 10.472656-34.0625 10.464844-47.984376.007812l-9.160156-6.894531c-15.207031-11.320313-36.535156-12.089844-52.847656-1.425781l-5.574219 3.777344c-8.839843 5.777343-20.433593 5.832031-29.058593.640624-4.261719-2.671874-7.734376-6.417968-9.871094-10.503906l-.664063-1.417968c-2.246093-4.496094-5.152343-8.527344-8.511719-11.878907-3.007812-3.136719-6.375-5.832031-10.054687-8.0625l41.261719-97.929687c12.175781-28.894532 31.328125-54.496094 55.410156-74.304688h24.320312c-12.578124 27.53125-19.265624 57.777344-19.265624 87.992188h16c0-30.144532 7.128906-60.359375 20.578124-87.335938l.335938-.664062h14.222656c13.609375 25.890625 20.863282 54.449218 20.863282 82.960937h16c0-28.375-6.519532-56.792969-18.910157-82.960937h31.976563c24.078125 19.808594 43.230468 45.417968 55.40625 74.3125l41.304687 98.015625c-3.496093 2.097656-6.847656 4.703125-10.066406 7.839843zm0 0"/><path d="m141.523438 330.214844h16v16h-16zm0 0"/><path d="m213.523438 322.214844h16v16h-16zm0 0"/></svg>