<?xml version="1.0" encoding="utf-8"?>
<!-- Generator: Adobe Illustrator 24.0.2, SVG Export Plug-In . SVG Version: 6.00 Build 0)  -->
<svg version="1.1" id="Layer_1" xmlns="http://www.w3.org/2000/svg" xmlns:xlink="http://www.w3.org/1999/xlink" x="0px" y="0px"
	 viewBox="0 0 500 500" style="enable-background:new 0 0 500 500;" xml:space="preserve">
<style type="text/css">
	.st0{clip-path:url(#SVGID_2_);}
	.st1{fill:#231F20;}
	.st2{fill:#71164A;}
	.st3{fill:#9E2064;}
	.st4{clip-path:url(#SVGID_4_);}
</style>
<g>
	<g>
		<defs>
			<path id="SVGID_1_" d="M303.5,26.2c0,0,15.3,15.4,14.4,51.1c-0.9,35.7-1.7,216.4,12.6,275.1s15.3,74.1,15.3,74.1
				s-70.7,22.9-110.4-6.7C235.5,419.9,237.6,20.9,303.5,26.2z"/>
		</defs>
		<use xlink:href="#SVGID_1_"  style="overflow:visible;fill:#EB2D7C;"/>
		<clipPath id="SVGID_2_">
			<use xlink:href="#SVGID_1_"  style="overflow:visible;"/>
		</clipPath>
		<g class="st0">
			<path class="st1" d="M221.2,414.7c0,0,61.8,23.1,129.1,3.5l-1,20L221.2,441V414.7z"/>
		</g>
	</g>
	<g id="XMLID_1438_">
		<g>
			<path class="st2" d="M192.5,25.3c-1.3-1-15.2,5.6-15.8,6.5c-8.3,11.7-7.3,26.7-7.5,39.9c-0.7,37.8-7.1,75.5-13.3,112.8
				c-0.1,0.8-2.3,11.8-1.6,12c0,0,20,5.3,23.9,3.7c1.9-0.8,7.9-24.3,8.2-29.2c0.5-9.9,2.5-21.7,3.2-31.6
				c1.7-22.8,10.6-41.1,12.4-63.9C203.1,58.5,193.1,25.8,192.5,25.3z"/>
		</g>
	</g>
	<g id="XMLID_78_">
		<path class="st3" d="M286.1,24.5c0,0,11.2-0.5,17.5,1.2c6.8,1.8,13.3,0.2,18,19.2c3.7,14.8,11.1,153,11.1,153s-13.6,4.4-24.2-1.3
			c0,0-9.2-63.1-10.3-73.4c-1-10.3-10.9-63.9-10.9-63.9S276.6,29.4,286.1,24.5z"/>
	</g>
	<g id="XMLID_77_">
		<g>
			<path class="st3" d="M181.9,52.5c0.8,5,1.3,10.1,1.3,15.1c0,5.9-2,11.8-1.3,17.6c0.8,6.3,4.9,12.2,7.4,18.1
				c0.8,1.9,1.6,3.9,2.2,6H285c0.2-3.7,0.7-7.5,1.3-11.1c2.7-15.5,9.1-30.2,14.4-45.1c3.1-8.7,6.3-17.3,9.4-26
				c0,0-26.4-5.8-26.4-5.5c-0.1,9.7-6.4,15.5-14.5,21.4c-8.8,6.3-18.3,12.4-29.5,14.7c-18.8,3.9-35.5-6.6-43.1-21.7
				c-0.3-0.6-4.5-10.9-3.9-11c-3.9,0.7-6.4,1.5-8.5,2.4c-7.1,3.1-7.5,4.3-7.5,4.3c0.2,0.6,0.4,1.3,0.6,1.9
				C179.5,41.5,180.7,44.5,181.9,52.5z"/>
		</g>
	</g>
	<g id="XMLID_1435_">
		<g>
			<path class="st3" d="M292.6,143.3c0,0,6.1,11.3,8.7,37.6c2.2,22.2,28.9,266.9,30.8,284.1c0,0-28.7,17.7-65.7,19.6
				c-50.1,2.5-79.5-9.5-96.2-14.4c-1.1-0.3,0.4-14.8,0.4-15.8c0.5-13.5,1.2-26.9,1.8-40.4c0.9-18.3,1.7-36.7,2.6-55
				c0.9-19.8,1.9-39.7,2.8-59.5c0.8-18,1.6-36,2.4-54c0.7-16.9,0.5-34.2,0.9-51.3c0.4-16,1.5-34,6.8-50.2c0,0,10.8,7.3,50.5,6.6
				C278,149.9,292.6,143.3,292.6,143.3z"/>
		</g>
	</g>
	<g>
		<defs>
			<path id="SVGID_3_" d="M182.7,65.4c-0.8,0.4-1.3,8.3-1.5,9.2c-0.5,4.7-0.1,9.5,1.2,14.1c2.9,9.5,10.5,17.9,10.6,27.9
				c0.1,5-1.2,10-2.5,14.9c-3,11-6.6,21.9-8.4,33.1c-1.8,11.6-1.7,23.6-2.3,35.3c0,35-7.2,66.6-3.1,106.4c2.7-2.8,3.7-6.4,5.1-9.9
				c1.5-3.7,2.9-7.4,4.5-11.1c6.5-15.3,17-28.8,26.3-42.8c7.9-11.8,15.6-23.9,21.1-36.8c19.1-44.5,23-87.9,49.1-129.5
				c10-15.9,19.1-33.1,27.5-49.7c0,0-12.3-5.1-27.2-5.1C283.3,21.6,183.3,65.2,182.7,65.4z"/>
		</defs>
		<use xlink:href="#SVGID_3_"  style="overflow:visible;fill:#EB2D7C;"/>
		<clipPath id="SVGID_4_">
			<use xlink:href="#SVGID_3_"  style="overflow:visible;"/>
		</clipPath>
		<g class="st4">
			<path class="st1" d="M180.5,71.6c0,0,104-46.4,112.7-50l-14.8-2.9L177.3,62.8L180.5,71.6z"/>
		</g>
		<g class="st4">
			<path class="st1" d="M308.1,24.4c-0.4,1.2-36.5,53.2-45.9,79.8c-9.4,26.6-12.6,35.7-16.9,51.4c-4.4,15.7-15.7,49.6-21.1,58.9
				c-5.3,9.2-25.7,37.7-29.5,44c-3.9,6.3-13,26.7-15.1,31.1c-2.1,4.4-5.2,15.7-5.2,15.7s0.1,1.8,1.3,2.4c1.2,0.6,5.6-1.2,5.6-1.2
				s47.2-81.1,50.5-86.3c3.3-5.2,29.8-88.3,33.4-98.8c3.6-10.5,26.7-55.7,29.6-60.4c2.9-4.7,19.8-34.4,19.8-34.4L308.1,24.4z"/>
		</g>
	</g>
</g>
</svg>
