<?xml version="1.0" encoding="utf-8"?>
<!-- Generator: Adobe Illustrator 24.0.2, SVG Export Plug-In . SVG Version: 6.00 Build 0)  -->
<svg version="1.1" id="Layer_1" xmlns="http://www.w3.org/2000/svg" xmlns:xlink="http://www.w3.org/1999/xlink" x="0px" y="0px"
	 viewBox="0 0 500 500" style="enable-background:new 0 0 500 500;" xml:space="preserve">
<style type="text/css">
	.st0{fill:#E97F91;}
	.st1{opacity:0.48;}
	.st2{fill:#BF6879;}
	.st3{fill:#7E3E4C;}
	.st4{fill:#A85066;}
	.st5{clip-path:url(#SVGID_2_);}
	.st6{fill:#7B454D;}
	.st7{fill:url(#SVGID_3_);}
	.st8{fill:#201510;}
	.st9{fill:url(#SVGID_4_);}
	.st10{fill:#BE6266;}
</style>
<g>
	<path class="st0" d="M191.3,38.3c0,0-14.1,8.7-48.2,15.9c-34.2,7.2-27.9,7.8-37.2,19.2c-9.3,11.4-60.5,87.8-60.8,89.3
		c-0.3,1.5,21,21.6,32.7,32.7c11.7,11.1,21.9,15,26.7,12c4.8-3,28.8-25.8,28.8-25.8s0.6,3,4.8,4.2c4.2,1.2,5.7,11.5,7.5,22.6
		c1.8,11,3.9,39.5,3.9,81.1c0,41.7-9.3,65.6-13.8,83.9c-4.5,18.3-13.5,52.2-9.9,104c0,0,39.3,14.7,133.4,12.6
		c94.1-2.1,116.6-1.8,117.8-9c1.2-7.2,0.3-72.8-7.5-106.4c-7.8-33.6-19.5-89.3-16.2-124.4s5.4-72.5,5.4-72.5s4.8,0.6,6.9-3
		c2.1-3.6,3,2.1,6.9,5.4c3.9,3.3,13.2,17.1,15.3,18.3c2.1,1.2,12.9-1.5,42-20.4c29.1-18.9,25.5-24.6,25.5-24.6s-46.5-63.8-60.5-78.2
		c-14.1-14.4-21.9-20.1-25.8-20.7s-59.6-14.4-65.3-16.2C297.7,36.5,197.9,29.9,191.3,38.3z"/>
	<g class="st1">
		
			<image style="overflow:visible;" width="1324" height="928" xlink:href="636DDA45.png"  transform="matrix(0.24 0 0 0.24 88.56 7.92)">
		</image>
	</g>
	<g>
		
			<image style="overflow:visible;" width="470" height="392" xlink:href="636DDA47.png"  transform="matrix(0.24 0 0 0.24 211.44 34.32)">
		</image>
	</g>
	<g>
		
			<image style="overflow:visible;" width="449" height="376" xlink:href="636DDA42.png"  transform="matrix(0.24 0 0 0.24 174.24 34.32)">
		</image>
	</g>
	<path class="st2" d="M205.4,6.5c0,0,16.8,4.2,38.7,3.6c21.9-0.6,44.1-3.6,44.1-3.6l1.8,36l-22.8,22.5l-21.8,5.5l-20.1-5.8L205.4,41
		l-3.6-21.6C201.8,19.4,203.6,8.9,205.4,6.5z"/>
	<path class="st3" d="M196.4,30.3c0,0,42.7-7.6,93.5-3.6c0,0-10.3,38.7-44.1,43.6C212.1,75.3,196.4,30.3,196.4,30.3z"/>
	<path class="st4" d="M252.9,71.4c0,0,0.6,0.1,1.2,0.6c0.7,0.5,1.4,1.3,2.1,2.6c0.6,1.2,1.2,2.7,1.5,4.5c0.3,1.7,0.7,3.7,1.1,5.8
		c0.7,4.3,1.4,9.3,1.1,14.8c-0.1,1.4-0.3,2.8-0.6,4.1c-0.3,1.4-0.4,2.5,0.1,3.9c1.1,2.5,1.8,5.6,1.8,8.5c0.1,2.9-0.6,5.8-0.4,8.5
		c0.1,2.8,0.5,5.6,0.8,8.2c0.3,2.7,0.8,5.2,1,7.7c0.1,1.2-0.1,2.5-0.3,3.6c0,0.3-0.1,0.5,0.1,0.7l0.1,0.1c0,0.1,0-0.1,0.1,0.1l0,0.1
		c0,0.2-0.2,0.3-0.3,0.3c-0.2,0.1-0.3,0.1-0.4,0.1c-0.6,0.1-1.1,0.2-1.6,0.3c-4.3,0.7-7.8,1-10.3,1.3c-2.5,0.3-3.9,0.4-3.9,0.4
		s1.4-0.2,3.9-0.5c2.5-0.3,6.1-0.7,10.3-1.5c0.5-0.1,1.1-0.2,1.6-0.4c0.1,0,0.3-0.1,0.4-0.1c0.1-0.1,0,0,0.1,0.1l0-0.1
		c0.1,0.2,0,0,0,0l-0.1-0.1c-0.2-0.3-0.2-0.7-0.1-1c0.2-1.2,0.3-2.3,0.2-3.5c-0.2-2.4-0.7-5-1.1-7.7c-0.4-2.7-0.8-5.4-1-8.3
		c-0.2-2.9,0.4-5.7,0.3-8.6c0-2.9-0.7-5.5-1.9-8.1c-0.6-1.4-0.6-3.1-0.2-4.4c0.3-1.4,0.4-2.7,0.5-4c0.2-5.3-0.7-10.3-1.4-14.5
		c-0.8-4.2-1.4-7.8-2.6-9.8c-0.5-1-1.2-1.6-1.6-1.9c-0.5-0.3-0.6-0.3-0.6-0.3L252.9,71.4z"/>
	<path class="st4" d="M245.9,70.3c0,0-7.8,5.4-19.5,11.1C214.7,87.1,200,92.2,200,92.2s-12.9-18.9-16.8-34.8
		c-3.9-15.9,3.9-17.1,7.2-26.1c3.3-9,11.4-24.9,15-24.9c0,0-0.6,11.4,2.1,22.2C210.2,39.5,223.7,67.3,245.9,70.3z"/>
	<path class="st4" d="M288.1,6.5c0,0-1.5,27.9-10.2,39.9c-8.7,12-22.8,22.2-32.1,24c0,0,7.2,1.5,14.1,7.8
		c6.9,6.3,28.2,14.1,28.2,14.1s11.7-11.4,18.3-27.3s4.5-24.9,0-29.4c-4.5-4.5-10.5-17.4-12-21C292.9,11,288.1,6.5,288.1,6.5z"/>
	<g>
		<defs>
			<path id="SVGID_1_" d="M191.3,38.3c0,0-14.1,8.7-48.2,15.9c-34.2,7.2-27.9,7.8-37.2,19.2c-9.3,11.4-60.5,87.8-60.8,89.3
				c-0.3,1.5,21,21.6,32.7,32.7c11.7,11.1,21.9,15,26.7,12c4.8-3,28.8-25.8,28.8-25.8s0.6,3,4.8,4.2c4.2,1.2,5.7,11.5,7.5,22.6
				c1.8,11,3.9,39.5,3.9,81.1c0,41.7-9.3,65.6-13.8,83.9c-4.5,18.3-13.5,52.2-9.9,104c0,0,39.3,14.7,133.4,12.6
				c94.1-2.1,116.6-1.8,117.8-9c1.2-7.2,0.3-72.8-7.5-106.4c-7.8-33.6-19.5-89.3-16.2-124.4s5.4-72.5,5.4-72.5s4.8,0.6,6.9-3
				c2.1-3.6,3,2.1,6.9,5.4c3.9,3.3,13.2,17.1,15.3,18.3c2.1,1.2,12.9-1.5,42-20.4c29.1-18.9,25.5-24.6,25.5-24.6
				s-46.5-63.8-60.5-78.2c-14.1-14.4-21.9-20.1-25.8-20.7s-59.6-14.4-65.3-16.2C297.7,36.5,197.9,29.9,191.3,38.3z"/>
		</defs>
		<clipPath id="SVGID_2_">
			<use xlink:href="#SVGID_1_"  style="overflow:visible;"/>
		</clipPath>
		<g class="st5">
			
				<image style="overflow:visible;" width="502" height="1582" xlink:href="636DDA43.png"  transform="matrix(0.24 0 0 0.24 84.48 29.76)">
			</image>
		</g>
		<g class="st5">
			
				<image style="overflow:visible;" width="503" height="1582" xlink:href="636DDA4D.png"  transform="matrix(0.24 0 0 0.24 289.92 29.76)">
			</image>
		</g>
		<g class="st5">
			<path class="st6" d="M121.8,57.1c0.1,10.6,0.7,21.3,2.6,31.8c0.7,5.3,0.8,10.7,0.9,16c0,5.3-0.1,10.7-0.4,16
				c-0.3,5.3-0.7,10.6-1.3,15.9c-0.5,5.3-1,10.6-1.1,15.9c0,5.3,0.4,10.7,1.9,15.8c0.8,2.5,1.9,5,3.3,7.2c1.4,2.2,3.3,4.2,5.4,5.8
				c-2.1-1.6-4-3.5-5.5-5.8c-1.5-2.2-2.6-4.7-3.4-7.2c-1.6-5.1-2-10.5-2.1-15.8c0-5.3,0.4-10.7,0.9-16c0.5-5.3,0.9-10.6,1.1-15.9
				c0.2-5.3,0.4-10.6,0.3-16c-0.1-5.3-0.3-10.6-1-15.9c-1.9-10.5-2.7-21.2-2.8-31.9L121.8,57.1z"/>
		</g>
		<g class="st5">
			<path class="st6" d="M362.4,179.6c1.9-1.7,3.4-3.8,4.7-6.1c1.3-2.3,2.3-4.7,3.1-7.1c1.6-5,2.1-10.2,2-15.5
				c-0.1-10.5-0.1-21.1-0.1-31.6c0.1-21.1,0.3-42.1,0.5-63.2c0,21.1,0,42.1,0,63.2c0.1,10.5,0.1,21.1,0.3,31.6
				c0.2,5.3-0.4,10.7-1.9,15.7c-0.8,2.5-1.8,5-3.1,7.3c-1.3,2.3-2.9,4.5-4.9,6.4L362.4,179.6z"/>
		</g>
		<g class="st5">
			
				<image style="overflow:visible;" width="584" height="1290" xlink:href="636DDA4F.png"  transform="matrix(0.24 0 0 0.24 109.92 214.08)">
			</image>
		</g>
		<g class="st5">
			
				<image style="overflow:visible;" width="501" height="1065" xlink:href="636DDA40.png"  transform="matrix(0.24 0 0 0.24 277.68 275.76)">
			</image>
		</g>
	</g>
	<g>
		
			<image style="overflow:visible;" width="436" height="578" xlink:href="636DDA41.png"  transform="matrix(0.24 0 0 0.24 56.4 71.28)">
		</image>
	</g>
	<g>
		
			<image style="overflow:visible;" width="436" height="578" xlink:href="636DDA46.png"  transform="matrix(0.24 0 0 0.24 336.48 71.28)">
		</image>
	</g>
	<g class="st1">
		
			<image style="overflow:visible;" width="464" height="537" xlink:href="5EE08C0E.png"  transform="matrix(0.24 0 0 0.24 162.96 -20.16)">
		</image>
	</g>
	<g class="st1">
		
			<image style="overflow:visible;" width="464" height="537" xlink:href="5EE08C09.png"  transform="matrix(0.24 0 0 0.24 217.92 -20.16)">
		</image>
	</g>
	<g>
		
			<image style="overflow:visible;" width="441" height="480" xlink:href="5EE08C0A.png"  transform="matrix(0.24 0 0 0.24 157.44 2.4)">
		</image>
	</g>
	<g>
		
			<image style="overflow:visible;" width="441" height="480" xlink:href="5EE08C08.png"  transform="matrix(0.24 0 0 0.24 228.72 2.4)">
		</image>
	</g>
	<g>
		<g>
			
				<radialGradient id="SVGID_3_" cx="253.7747" cy="126.1389" r="5.42" gradientTransform="matrix(0.9957 -9.240000e-02 9.240000e-02 0.9957 -15.3593 26.2256)" gradientUnits="userSpaceOnUse">
				<stop  offset="0" style="stop-color:#707074"/>
				<stop  offset="0.5957" style="stop-color:#717276"/>
				<stop  offset="0.7634" style="stop-color:#737679"/>
				<stop  offset="0.7866" style="stop-color:#77797D"/>
				<stop  offset="0.8142" style="stop-color:#83858A"/>
				<stop  offset="0.844" style="stop-color:#989AA1"/>
				<stop  offset="0.871" style="stop-color:#B6B8C3"/>
				<stop  offset="0.8846" style="stop-color:#B4B6C0"/>
				<stop  offset="0.8908" style="stop-color:#AEAFB9"/>
				<stop  offset="0.8955" style="stop-color:#A3A4AD"/>
				<stop  offset="0.8978" style="stop-color:#9C9CA5"/>
				<stop  offset="0.9692" style="stop-color:#7C7C81"/>
				<stop  offset="1" style="stop-color:#6F6E73"/>
			</radialGradient>
			<path class="st7" d="M254.4,127.9c0.3,3-1.9,5.6-4.9,5.9s-5.6-1.9-5.9-4.9c-0.3-3,1.9-5.6,4.9-5.9
				C251.5,122.7,254.1,124.9,254.4,127.9z"/>
			<g>
				<g>
					<path class="st8" d="M248.5,127.3c0,0.5-0.3,0.9-0.8,1c-0.5,0-0.9-0.3-1-0.8c0-0.5,0.3-0.9,0.8-1
						C248,126.4,248.4,126.8,248.5,127.3z"/>
					<path class="st8" d="M251.1,127.1c0,0.5-0.3,0.9-0.8,1c-0.5,0-0.9-0.3-1-0.8c0-0.5,0.3-0.9,0.8-1
						C250.6,126.2,251,126.6,251.1,127.1z"/>
				</g>
				<g>
					<path class="st8" d="M248.7,129.5c0,0.5-0.3,0.9-0.8,1c-0.5,0-0.9-0.3-1-0.8c0-0.5,0.3-0.9,0.8-1
						C248.2,128.7,248.7,129,248.7,129.5z"/>
					<path class="st8" d="M251.3,129.3c0,0.5-0.3,0.9-0.8,1c-0.5,0-0.9-0.3-1-0.8c0-0.5,0.3-0.9,0.8-1
						C250.8,128.4,251.2,128.8,251.3,129.3z"/>
				</g>
			</g>
		</g>
		<g>
			
				<radialGradient id="SVGID_4_" cx="257.0063" cy="94.3396" r="5.42" gradientTransform="matrix(0.9957 -9.240000e-02 9.240000e-02 0.9957 -15.3593 26.2256)" gradientUnits="userSpaceOnUse">
				<stop  offset="0" style="stop-color:#707074"/>
				<stop  offset="0.5957" style="stop-color:#717276"/>
				<stop  offset="0.7634" style="stop-color:#737679"/>
				<stop  offset="0.7866" style="stop-color:#77797D"/>
				<stop  offset="0.8142" style="stop-color:#83858A"/>
				<stop  offset="0.844" style="stop-color:#989AA1"/>
				<stop  offset="0.871" style="stop-color:#B6B8C3"/>
				<stop  offset="0.8846" style="stop-color:#B4B6C0"/>
				<stop  offset="0.8908" style="stop-color:#AEAFB9"/>
				<stop  offset="0.8955" style="stop-color:#A3A4AD"/>
				<stop  offset="0.8978" style="stop-color:#9C9CA5"/>
				<stop  offset="0.9692" style="stop-color:#7C7C81"/>
				<stop  offset="1" style="stop-color:#6F6E73"/>
			</radialGradient>
			<path class="st9" d="M254.7,95.9c0.3,3-1.9,5.6-4.9,5.9c-3,0.3-5.6-1.9-5.9-4.9c-0.3-3,1.9-5.6,4.9-5.9
				C251.7,90.7,254.4,92.9,254.7,95.9z"/>
			<g>
				<g>
					<path class="st8" d="M248.8,95.3c0,0.5-0.3,0.9-0.8,1c-0.5,0-0.9-0.3-1-0.8c0-0.5,0.3-0.9,0.8-1
						C248.3,94.5,248.7,94.8,248.8,95.3z"/>
					<path class="st8" d="M251.3,95.1c0,0.5-0.3,0.9-0.8,1c-0.5,0-0.9-0.3-1-0.8c0-0.5,0.3-0.9,0.8-1
						C250.8,94.2,251.3,94.6,251.3,95.1z"/>
				</g>
				<g>
					<path class="st8" d="M249,97.6c0,0.5-0.3,0.9-0.8,1c-0.5,0-0.9-0.3-1-0.8c0-0.5,0.3-0.9,0.8-1C248.5,96.7,248.9,97.1,249,97.6z
						"/>
					<path class="st8" d="M251.5,97.3c0,0.5-0.3,0.9-0.8,1c-0.5,0-0.9-0.3-1-0.8c0-0.5,0.3-0.9,0.8-1
						C251.1,96.5,251.5,96.8,251.5,97.3z"/>
				</g>
			</g>
		</g>
		<path class="st10" d="M254.4,127.9c0.3,3-1.9,5.6-4.9,5.9s-5.6-1.9-5.9-4.9c-0.3-3,1.9-5.6,4.9-5.9
			C251.5,122.7,254.1,124.9,254.4,127.9z"/>
		<path class="st10" d="M254.7,95.9c0.3,3-1.9,5.6-4.9,5.9c-3,0.3-5.6-1.9-5.9-4.9c-0.3-3,1.9-5.6,4.9-5.9
			C251.7,90.7,254.4,92.9,254.7,95.9z"/>
	</g>
</g>
</svg>
