<?xml version="1.0" encoding="utf-8"?>
<!-- Generator: Adobe Illustrator 24.0.2, SVG Export Plug-In . SVG Version: 6.00 Build 0)  -->
<svg version="1.1" id="Layer_1" xmlns="http://www.w3.org/2000/svg" xmlns:xlink="http://www.w3.org/1999/xlink" x="0px" y="0px"
	 viewBox="0 0 500 500" style="enable-background:new 0 0 500 500;" xml:space="preserve">
<style type="text/css">
	.st0{fill:#F5C887;}
	.st1{fill:#DDB77F;}
	.st2{fill:#393937;}
	.st3{fill:#D5B07A;}
	.st4{fill:#9D835B;}
	.st5{fill:#C4A370;}
	.st6{fill:#EDC285;}
	.st7{fill:#E4DAD0;}
</style>
<g>
	<path class="st0" d="M269.5,276c-2.4-17.7-9.2-32.7-18.2-46.4c-3-4.5-6.2-8.9-9.6-13.2c-16-20.4-35.3-38.5-48.6-59.7
		c-13-19.7-30.8-44.9-36.2-68.5c11.4-2.5,23.1-5.7,33.8-9.4c-8.1-1.7-18.2-4.2-26.4-5.9c2.3-11.5,2-21.3,9.3-31.8
		c0.3-0.4,0.6-0.8,0.9-1.2c10-13.5,23.7-16.2,38.9-22.2c0,29.9,20.9,81.6,38,153.4c3.4,14.3,6.7,29.3,9.6,45.2
		C264.3,235.1,267.3,255,269.5,276z"/>
	<path class="st0" d="M345.6,88.2c-5.5,23.6-23.2,48.7-36.2,68.5c-13.3,21.2-32.6,39.3-48.6,59.7c-2.9-15.9-6.2-30.9-9.6-45.2
		c17.1-71.8,38-123.5,38-153.4c15.6,6.1,29.6,8.8,39.7,23.3c7.3,10.5,7,20.2,9.3,31.8c-8.2,1.7-18.3,4.2-26.4,5.9
		C322.6,82.5,334.3,85.7,345.6,88.2z"/>
	<path class="st1" d="M269.5,276c0,0,0,21.2,0,96c0,29.5-8,50.6-20.1,65.6c-38.2,47.3-117.6,33.9-117.6,33.9s9.2-62.4,16.5-122
		c1.1-8.8,2.1-17.5,3.1-26c2.8-25,5-47.6,5.6-62.4c2.1-53.9-12.2-74.9-12.2-74.9c11-69.8-21.1-134.6-21.1-134.6l50.8-11.5
		c-0.3,0.4-0.6,0.8-0.9,1.2c-7.3,10.5-7,20.2-9.3,31.8c8.2,1.7,18.3,4.2,26.4,5.9c-10.7,3.8-22.4,6.9-33.8,9.4
		c5.5,23.6,23.2,48.7,36.2,68.5c13.3,21.2,32.6,39.3,48.6,59.7c3.4,4.3,6.6,8.7,9.6,13.2C260.2,243.2,267.1,258.2,269.5,276z"/>
	<path class="st2" d="M144.7,186.1l-54.3,261L36.1,437c0,0,46.5-373.1,87.5-385.5C123.6,51.5,155.6,116.3,144.7,186.1z"/>
	<path class="st3" d="M351.1,350.1c8,59.3,18.1,121.2,18.1,121.2s-80.9,13.4-119.9-33.8c12.1-15,20.1-36.1,20.1-65.6
		c0-74.7,0-96,0-96c-2.2-21-5.2-40.8-8.6-59.6c16-20.4,35.3-38.5,48.6-59.7c13-19.7,30.8-44.9,36.2-68.5
		c-11.4-2.5-23.1-5.7-33.8-9.4c8.1-1.7,18.2-4.2,26.4-5.9c-2.3-11.5-2-21.3-9.3-31.8l45.8,10.4c0,0-32,64.8-21,134.6
		c0,0-14.3,21.1-12.2,74.9c0.6,14.9,3,37.8,6.2,63.1C348.8,332.6,349.9,341.4,351.1,350.1z"/>
	<path class="st2" d="M462.4,437l-54.3,10.2l-54.3-261c-11-69.8,21-134.6,21-134.6C415.8,63.8,462.4,437,462.4,437z"/>
	<path class="st4" d="M289.2,17.8c0,29.9-20.9,81.6-38,153.4c-17.1-71.8-38-123.5-38-153.4H289.2z"/>
	<path class="st5" d="M289.2,17.8c0,7.5-1.3,16.5-3.6,26.7h-68.8c-2.3-10.2-3.6-19.2-3.6-26.7H289.2z"/>
	<path class="st6" d="M217.6,330.7c-1.6,14.4-14.5,24.8-28.8,23.2l-40.5-4.4c1.1-8.8,2.1-17.5,3.1-26L217.6,330.7z"/>
	<path class="st6" d="M351.1,350.1l-34.7,3.8c-14.3,1.6-27.3-8.8-28.9-23.2l60.2-6.6C348.8,332.6,349.9,341.4,351.1,350.1z"/>
	<path class="st4" d="M260.6,309.4c0,4.4-3.6,8-8,8c-4.4,0-8-3.6-8-8c0-4.4,3.6-8,8-8C257.1,301.4,260.6,305,260.6,309.4z"/>
	<path class="st4" d="M259.2,362.1c0,4.4-3.6,8-8,8c-4.4,0-8-3.6-8-8c0-4.4,3.6-8,8-8C255.7,354.1,259.2,357.7,259.2,362.1z"/>
	<g>
		<path class="st7" d="M278.9,195c-6.2,7-12.3,14-18,21.4c-2.9-15.9-6.2-30.9-9.6-45.2c1.7-7.1,3.4-13.9,5.1-20.6
			C263.7,165.5,271.4,180.2,278.9,195z"/>
	</g>
</g>
</svg>
